%TF.GenerationSoftware,KiCad,Pcbnew,10.0.5*%
%TF.CreationDate,2026-09-10T12:27:39-03:00*%
%TF.ProjectId,Kicker_LT3751_OxeBots,4b69636b-6572-45f4-9c54-333735315f4f,rev?*%
%TF.SameCoordinates,Original*%
%TF.FileFunction,Paste,Top*%
%TF.FilePolarity,Positive*%
%FSLAX46Y46*%
G04 Gerber Fmt 4.6, Leading zero omitted, Abs format (unit mm)*
G04 Created by KiCad (PCBNEW 10.0.5) date 2026-09-10 12:27:39*
%MOMM*%
%LPD*%
G01*
G04 APERTURE LIST*
G04 Aperture macros list*
%AMRoundRect*
0 Rectangle with rounded corners*
0 $1 Rounding radius*
0 $2 $3 $4 $5 $6 $7 $8 $9 X,Y pos of 4 corners*
0 Add a 4 corners polygon primitive as box body*
4,1,4,$2,$3,$4,$5,$6,$7,$8,$9,$2,$3,0*
0 Add four circle primitives for the rounded corners*
1,1,$1+$1,$2,$3*
1,1,$1+$1,$4,$5*
1,1,$1+$1,$6,$7*
1,1,$1+$1,$8,$9*
0 Add four rect primitives between the rounded corners*
20,1,$1+$1,$2,$3,$4,$5,0*
20,1,$1+$1,$4,$5,$6,$7,0*
20,1,$1+$1,$6,$7,$8,$9,0*
20,1,$1+$1,$8,$9,$2,$3,0*%
%AMRotRect*
0 Rectangle, with rotation*
0 The origin of the aperture is its center*
0 $1 length*
0 $2 width*
0 $3 Rotation angle, in degrees counterclockwise*
0 Add horizontal line*
21,1,$1,$2,0,0,$3*%
G04 Aperture macros list end*
%ADD10RoundRect,0.250000X-0.350000X-0.450000X0.350000X-0.450000X0.350000X0.450000X-0.350000X0.450000X0*%
%ADD11RoundRect,0.250000X1.950000X1.000000X-1.950000X1.000000X-1.950000X-1.000000X1.950000X-1.000000X0*%
%ADD12RoundRect,0.250000X1.500000X1.000000X-1.500000X1.000000X-1.500000X-1.000000X1.500000X-1.000000X0*%
%ADD13RoundRect,0.250000X0.350000X0.450000X-0.350000X0.450000X-0.350000X-0.450000X0.350000X-0.450000X0*%
%ADD14RoundRect,0.250000X-0.450000X0.350000X-0.450000X-0.350000X0.450000X-0.350000X0.450000X0.350000X0*%
%ADD15R,1.500000X3.000000*%
%ADD16RoundRect,0.100000X-0.100000X0.637500X-0.100000X-0.637500X0.100000X-0.637500X0.100000X0.637500X0*%
%ADD17RoundRect,0.250000X-0.337500X-0.475000X0.337500X-0.475000X0.337500X0.475000X-0.337500X0.475000X0*%
%ADD18RoundRect,0.250000X0.450000X-0.350000X0.450000X0.350000X-0.450000X0.350000X-0.450000X-0.350000X0*%
%ADD19RoundRect,0.250000X-0.475000X0.337500X-0.475000X-0.337500X0.475000X-0.337500X0.475000X0.337500X0*%
%ADD20RoundRect,0.250000X1.000000X-1.500000X1.000000X1.500000X-1.000000X1.500000X-1.000000X-1.500000X0*%
%ADD21RoundRect,0.250000X0.475000X-0.337500X0.475000X0.337500X-0.475000X0.337500X-0.475000X-0.337500X0*%
%ADD22RoundRect,0.217500X-0.457500X0.217500X-0.457500X-0.217500X0.457500X-0.217500X0.457500X0.217500X0*%
%ADD23RoundRect,0.249999X-1.425001X0.450001X-1.425001X-0.450001X1.425001X-0.450001X1.425001X0.450001X0*%
%ADD24RoundRect,0.250000X0.337500X0.475000X-0.337500X0.475000X-0.337500X-0.475000X0.337500X-0.475000X0*%
%ADD25RoundRect,0.250000X1.400000X2.000000X-1.400000X2.000000X-1.400000X-2.000000X1.400000X-2.000000X0*%
%ADD26RoundRect,0.150000X0.825000X0.150000X-0.825000X0.150000X-0.825000X-0.150000X0.825000X-0.150000X0*%
%ADD27RotRect,1.800000X1.100000X125.000000*%
%ADD28RoundRect,0.250000X-1.400000X-2.000000X1.400000X-2.000000X1.400000X2.000000X-1.400000X2.000000X0*%
%ADD29RoundRect,0.250000X1.425000X-0.362500X1.425000X0.362500X-1.425000X0.362500X-1.425000X-0.362500X0*%
G04 APERTURE END LIST*
D10*
%TO.C,R39*%
X70954000Y-85471000D03*
X72954000Y-85471000D03*
%TD*%
%TO.C,R40*%
X70954000Y-88900000D03*
X72954000Y-88900000D03*
%TD*%
D11*
%TO.C,C4*%
X83527000Y-122936000D03*
X75127000Y-122936000D03*
%TD*%
D12*
%TO.C,C21*%
X98513000Y-86741000D03*
X92013000Y-86741000D03*
%TD*%
D13*
%TO.C,R32*%
X120230000Y-81153000D03*
X118230000Y-81153000D03*
%TD*%
D14*
%TO.C,R9*%
X59778000Y-117253000D03*
X59778000Y-119253000D03*
%TD*%
D15*
%TO.C,T1*%
X118038000Y-117843300D03*
X115538000Y-117843300D03*
X113038000Y-117843300D03*
X110538000Y-117843300D03*
X108038000Y-117843300D03*
X108038000Y-138049000D03*
X110538000Y-138049000D03*
X113038000Y-138049000D03*
X115538000Y-138049000D03*
X118038000Y-138049000D03*
%TD*%
D16*
%TO.C,U1*%
X72605000Y-75936000D03*
X71955000Y-75936000D03*
X71305000Y-75936000D03*
X70655000Y-75936000D03*
X70005000Y-75936000D03*
X69355000Y-75936000D03*
X68705000Y-75936000D03*
X68055000Y-75936000D03*
X67405000Y-75936000D03*
X66755000Y-75936000D03*
X66755000Y-81661000D03*
X67405000Y-81661000D03*
X68055000Y-81661000D03*
X68705000Y-81661000D03*
X69355000Y-81661000D03*
X70005000Y-81661000D03*
X70655000Y-81661000D03*
X71305000Y-81661000D03*
X71955000Y-81661000D03*
X72605000Y-81661000D03*
%TD*%
D17*
%TO.C,C27*%
X118198000Y-73533000D03*
X120273000Y-73533000D03*
%TD*%
D14*
%TO.C,R4*%
X62064000Y-117221000D03*
X62064000Y-119221000D03*
%TD*%
%TO.C,R17*%
X48348000Y-121920000D03*
X48348000Y-123920000D03*
%TD*%
D10*
%TO.C,R19*%
X82892000Y-65151000D03*
X84892000Y-65151000D03*
%TD*%
D18*
%TO.C,R2*%
X60286000Y-76676000D03*
X60286000Y-74676000D03*
%TD*%
D10*
%TO.C,R30*%
X121024000Y-49657000D03*
X123024000Y-49657000D03*
%TD*%
D19*
%TO.C,C32*%
X115404000Y-56218000D03*
X115404000Y-58293000D03*
%TD*%
D20*
%TO.C,C30*%
X120865000Y-91134000D03*
X120865000Y-84634000D03*
%TD*%
D14*
%TO.C,R8*%
X66636000Y-117221000D03*
X66636000Y-119221000D03*
%TD*%
%TO.C,R13*%
X55206000Y-117221000D03*
X55206000Y-119221000D03*
%TD*%
%TO.C,R5*%
X52949000Y-117221000D03*
X52949000Y-119221000D03*
%TD*%
%TO.C,R3*%
X64350000Y-117221000D03*
X64350000Y-119221000D03*
%TD*%
D21*
%TO.C,C3*%
X88861000Y-98552000D03*
X88861000Y-96477000D03*
%TD*%
D19*
%TO.C,C6*%
X77685000Y-78232000D03*
X77685000Y-80307000D03*
%TD*%
D13*
%TO.C,R37*%
X135849823Y-63500000D03*
X133849823Y-63500000D03*
%TD*%
D10*
%TO.C,R27*%
X99815000Y-80391000D03*
X101815000Y-80391000D03*
%TD*%
D14*
%TO.C,R14*%
X65366000Y-138049000D03*
X65366000Y-140049000D03*
%TD*%
%TO.C,R6*%
X50634000Y-117221000D03*
X50634000Y-119221000D03*
%TD*%
D19*
%TO.C,C8*%
X75018000Y-78232000D03*
X75018000Y-80307000D03*
%TD*%
D22*
%TO.C,U2*%
X59623400Y-128864900D03*
X57943400Y-128864900D03*
X59623400Y-129944900D03*
X57943400Y-129944900D03*
D16*
X61708400Y-126517400D03*
X61058400Y-126517400D03*
X60408400Y-126517400D03*
X59758400Y-126517400D03*
X59108400Y-126517400D03*
X58458400Y-126517400D03*
X57808400Y-126517400D03*
X57158400Y-126517400D03*
X56508400Y-126517400D03*
X55858400Y-126517400D03*
X55858400Y-132292400D03*
X56508400Y-132292400D03*
X57158400Y-132292400D03*
X57808400Y-132292400D03*
X58458400Y-132292400D03*
X59108400Y-132292400D03*
X59758400Y-132292400D03*
X60408400Y-132292400D03*
X61058400Y-132292400D03*
X61708400Y-132292400D03*
%TD*%
D19*
%TO.C,C19*%
X52920000Y-127381000D03*
X52920000Y-129456000D03*
%TD*%
D14*
%TO.C,R15*%
X63080000Y-138049000D03*
X63080000Y-140049000D03*
%TD*%
D10*
%TO.C,R26*%
X98418000Y-65659000D03*
X100418000Y-65659000D03*
%TD*%
D13*
%TO.C,R35*%
X144977823Y-63483463D03*
X142977823Y-63483463D03*
%TD*%
%TO.C,R38*%
X131152000Y-63500000D03*
X129152000Y-63500000D03*
%TD*%
D23*
%TO.C,R34*%
X123024000Y-150745000D03*
X123024000Y-156845000D03*
%TD*%
D14*
%TO.C,R12*%
X59778000Y-138049000D03*
X59778000Y-140049000D03*
%TD*%
D21*
%TO.C,C2*%
X86194000Y-98552000D03*
X86194000Y-96477000D03*
%TD*%
D14*
%TO.C,R1*%
X47967000Y-88932000D03*
X47967000Y-90932000D03*
%TD*%
D13*
%TO.C,R36*%
X140389823Y-63483463D03*
X138389823Y-63483463D03*
%TD*%
D14*
%TO.C,R11*%
X48348000Y-117221000D03*
X48348000Y-119221000D03*
%TD*%
D24*
%TO.C,C22*%
X84924000Y-67691000D03*
X82849000Y-67691000D03*
%TD*%
D14*
%TO.C,R16*%
X57492000Y-138049000D03*
X57492000Y-140049000D03*
%TD*%
D19*
%TO.C,C16*%
X45808000Y-123295500D03*
X45808000Y-125370500D03*
%TD*%
D10*
%TO.C,R29*%
X118198000Y-77343000D03*
X120198000Y-77343000D03*
%TD*%
D14*
%TO.C,R7*%
X50634000Y-121945400D03*
X50634000Y-123945400D03*
%TD*%
D24*
%TO.C,C24*%
X100418000Y-61849000D03*
X98343000Y-61849000D03*
%TD*%
D25*
%TO.C,D5*%
X139026108Y-106011990D03*
X139026108Y-97211990D03*
%TD*%
D19*
%TO.C,C20*%
X50634000Y-127381000D03*
X50634000Y-129456000D03*
%TD*%
D26*
%TO.C,U7*%
X124418000Y-56515000D03*
X124418000Y-55245000D03*
X124418000Y-53975000D03*
X124418000Y-52705000D03*
X119468000Y-52705000D03*
X119468000Y-53975000D03*
X119468000Y-55245000D03*
X119468000Y-56515000D03*
%TD*%
D18*
%TO.C,R28*%
X121246000Y-61452000D03*
X121246000Y-59452000D03*
%TD*%
D27*
%TO.C,SW1*%
X71149197Y-54916382D03*
X67593023Y-49837640D03*
X74180059Y-52794148D03*
X70623885Y-47715406D03*
%TD*%
D24*
%TO.C,C29*%
X113647500Y-91694000D03*
X111572500Y-91694000D03*
%TD*%
D28*
%TO.C,D3*%
X126918000Y-112059000D03*
X126918000Y-120859000D03*
%TD*%
D21*
%TO.C,C25*%
X102196000Y-90318500D03*
X102196000Y-88243500D03*
%TD*%
D14*
%TO.C,R10*%
X57492000Y-117237000D03*
X57492000Y-119237000D03*
%TD*%
D23*
%TO.C,R33*%
X117690000Y-150747000D03*
X117690000Y-156847000D03*
%TD*%
D21*
%TO.C,C28*%
X119616500Y-66167000D03*
X119616500Y-64092000D03*
%TD*%
D20*
%TO.C,C1*%
X66255000Y-109982000D03*
X66255000Y-103482000D03*
%TD*%
D29*
%TO.C,R18*%
X71208000Y-133899500D03*
X71208000Y-127974500D03*
%TD*%
D26*
%TO.C,U3*%
X92798000Y-66929000D03*
X92798000Y-65659000D03*
X92798000Y-64389000D03*
X92798000Y-63119000D03*
X87848000Y-63119000D03*
X87848000Y-64389000D03*
X87848000Y-65659000D03*
X87848000Y-66929000D03*
%TD*%
D19*
%TO.C,C9*%
X62826000Y-74676000D03*
X62826000Y-76751000D03*
%TD*%
M02*
