%TF.GenerationSoftware,KiCad,Pcbnew,10.0.6-10.0.6~ubuntu24.04.1*%
%TF.CreationDate,2026-09-10T22:49:30-03:00*%
%TF.ProjectId,Kicker_LT3751_OxeBots,4b69636b-6572-45f4-9c54-333735315f4f,V01*%
%TF.SameCoordinates,Original*%
%TF.FileFunction,Copper,L2,Bot*%
%TF.FilePolarity,Positive*%
%FSLAX46Y46*%
G04 Gerber Fmt 4.6, Leading zero omitted, Abs format (unit mm)*
G04 Created by KiCad (PCBNEW 10.0.6-10.0.6~ubuntu24.04.1) date 2026-09-10 22:49:30*
%MOMM*%
%LPD*%
G01*
G04 APERTURE LIST*
G04 Aperture macros list*
%AMRoundRect*
0 Rectangle with rounded corners*
0 $1 Rounding radius*
0 $2 $3 $4 $5 $6 $7 $8 $9 X,Y pos of 4 corners*
0 Add a 4 corners polygon primitive as box body*
4,1,4,$2,$3,$4,$5,$6,$7,$8,$9,$2,$3,0*
0 Add four circle primitives for the rounded corners*
1,1,$1+$1,$2,$3*
1,1,$1+$1,$4,$5*
1,1,$1+$1,$6,$7*
1,1,$1+$1,$8,$9*
0 Add four rect primitives between the rounded corners*
20,1,$1+$1,$2,$3,$4,$5,0*
20,1,$1+$1,$4,$5,$6,$7,0*
20,1,$1+$1,$6,$7,$8,$9,0*
20,1,$1+$1,$8,$9,$2,$3,0*%
%AMHorizOval*
0 Thick line with rounded ends*
0 $1 width*
0 $2 $3 position (X,Y) of the first rounded end (center of the circle)*
0 $4 $5 position (X,Y) of the second rounded end (center of the circle)*
0 Add line between two ends*
20,1,$1,$2,$3,$4,$5,0*
0 Add two circle primitives to create the rounded ends*
1,1,$1,$2,$3*
1,1,$1,$4,$5*%
%AMRotRect*
0 Rectangle, with rotation*
0 The origin of the aperture is its center*
0 $1 length*
0 $2 width*
0 $3 Rotation angle, in degrees counterclockwise*
0 Add horizontal line*
21,1,$1,$2,0,0,$3*%
%AMFreePoly0*
4,1,23,0.500000,-0.750000,0.000000,-0.750000,0.000000,-0.745722,-0.065263,-0.745722,-0.191342,-0.711940,-0.304381,-0.646677,-0.396677,-0.554381,-0.461940,-0.441342,-0.495722,-0.315263,-0.495722,-0.250000,-0.500000,-0.250000,-0.500000,0.250000,-0.495722,0.250000,-0.495722,0.315263,-0.461940,0.441342,-0.396677,0.554381,-0.304381,0.646677,-0.191342,0.711940,-0.065263,0.745722,0.000000,0.745722,
0.000000,0.750000,0.500000,0.750000,0.500000,-0.750000,0.500000,-0.750000,$1*%
%AMFreePoly1*
4,1,23,0.000000,0.745722,0.065263,0.745722,0.191342,0.711940,0.304381,0.646677,0.396677,0.554381,0.461940,0.441342,0.495722,0.315263,0.495722,0.250000,0.500000,0.250000,0.500000,-0.250000,0.495722,-0.250000,0.495722,-0.315263,0.461940,-0.441342,0.396677,-0.554381,0.304381,-0.646677,0.191342,-0.711940,0.065263,-0.745722,0.000000,-0.745722,0.000000,-0.750000,-0.500000,-0.750000,
-0.500000,0.750000,0.000000,0.750000,0.000000,0.745722,0.000000,0.745722,$1*%
G04 Aperture macros list end*
%TA.AperFunction,ComponentPad*%
%ADD10RotRect,1.700000X1.700000X150.000000*%
%TD*%
%TA.AperFunction,ComponentPad*%
%ADD11C,1.700000*%
%TD*%
%TA.AperFunction,ComponentPad*%
%ADD12C,2.000000*%
%TD*%
%TA.AperFunction,ComponentPad*%
%ADD13C,0.900000*%
%TD*%
%TA.AperFunction,ComponentPad*%
%ADD14C,8.600000*%
%TD*%
%TA.AperFunction,ComponentPad*%
%ADD15RotRect,1.905000X2.000000X152.800000*%
%TD*%
%TA.AperFunction,ComponentPad*%
%ADD16HorizOval,1.905000X0.021712X0.042247X-0.021712X-0.042247X0*%
%TD*%
%TA.AperFunction,ComponentPad*%
%ADD17R,1.800000X1.800000*%
%TD*%
%TA.AperFunction,ComponentPad*%
%ADD18C,1.800000*%
%TD*%
%TA.AperFunction,ComponentPad*%
%ADD19R,1.500000X1.500000*%
%TD*%
%TA.AperFunction,ComponentPad*%
%ADD20C,1.500000*%
%TD*%
%TA.AperFunction,ComponentPad*%
%ADD21RoundRect,0.250000X0.600000X0.600000X-0.600000X0.600000X-0.600000X-0.600000X0.600000X-0.600000X0*%
%TD*%
%TA.AperFunction,ComponentPad*%
%ADD22R,1.905000X2.000000*%
%TD*%
%TA.AperFunction,ComponentPad*%
%ADD23O,1.905000X2.000000*%
%TD*%
%TA.AperFunction,ComponentPad*%
%ADD24RoundRect,0.250000X0.950000X0.550000X-0.950000X0.550000X-0.950000X-0.550000X0.950000X-0.550000X0*%
%TD*%
%TA.AperFunction,ComponentPad*%
%ADD25O,2.400000X1.600000*%
%TD*%
%TA.AperFunction,ComponentPad*%
%ADD26RoundRect,0.675000X0.000000X-2.227386X2.227386X0.000000X0.000000X2.227386X-2.227386X0.000000X0*%
%TD*%
%TA.AperFunction,ComponentPad*%
%ADD27C,2.400000*%
%TD*%
%TA.AperFunction,ComponentPad*%
%ADD28RoundRect,0.250000X-0.950000X-0.550000X0.950000X-0.550000X0.950000X0.550000X-0.950000X0.550000X0*%
%TD*%
%TA.AperFunction,ComponentPad*%
%ADD29O,3.800000X5.500000*%
%TD*%
%TA.AperFunction,ComponentPad*%
%ADD30O,3.800000X5.300000*%
%TD*%
%TA.AperFunction,ComponentPad*%
%ADD31RoundRect,0.250000X1.750000X1.750000X-1.750000X1.750000X-1.750000X-1.750000X1.750000X-1.750000X0*%
%TD*%
%TA.AperFunction,ComponentPad*%
%ADD32C,4.000000*%
%TD*%
%TA.AperFunction,ComponentPad*%
%ADD33C,2.550000*%
%TD*%
%TA.AperFunction,ComponentPad*%
%ADD34R,2.550000X2.550000*%
%TD*%
%TA.AperFunction,ComponentPad*%
%ADD35C,1.508000*%
%TD*%
%TA.AperFunction,ComponentPad*%
%ADD36R,1.750000X2.250000*%
%TD*%
%TA.AperFunction,ComponentPad*%
%ADD37O,1.750000X2.250000*%
%TD*%
%TA.AperFunction,SMDPad,CuDef*%
%ADD38RoundRect,0.250000X0.450000X-0.350000X0.450000X0.350000X-0.450000X0.350000X-0.450000X-0.350000X0*%
%TD*%
%TA.AperFunction,SMDPad,CuDef*%
%ADD39RoundRect,0.150000X-0.150000X0.587500X-0.150000X-0.587500X0.150000X-0.587500X0.150000X0.587500X0*%
%TD*%
%TA.AperFunction,SMDPad,CuDef*%
%ADD40RoundRect,0.250000X-0.475000X0.337500X-0.475000X-0.337500X0.475000X-0.337500X0.475000X0.337500X0*%
%TD*%
%TA.AperFunction,SMDPad,CuDef*%
%ADD41RoundRect,0.250000X0.337500X0.475000X-0.337500X0.475000X-0.337500X-0.475000X0.337500X-0.475000X0*%
%TD*%
%TA.AperFunction,SMDPad,CuDef*%
%ADD42FreePoly0,90.000000*%
%TD*%
%TA.AperFunction,SMDPad,CuDef*%
%ADD43FreePoly1,90.000000*%
%TD*%
%TA.AperFunction,SMDPad,CuDef*%
%ADD44RoundRect,0.250000X1.000000X0.900000X-1.000000X0.900000X-1.000000X-0.900000X1.000000X-0.900000X0*%
%TD*%
%TA.AperFunction,SMDPad,CuDef*%
%ADD45RoundRect,0.249999X-0.450001X-1.425001X0.450001X-1.425001X0.450001X1.425001X-0.450001X1.425001X0*%
%TD*%
%TA.AperFunction,SMDPad,CuDef*%
%ADD46RoundRect,0.250000X0.475000X-0.337500X0.475000X0.337500X-0.475000X0.337500X-0.475000X-0.337500X0*%
%TD*%
%TA.AperFunction,SMDPad,CuDef*%
%ADD47FreePoly0,270.000000*%
%TD*%
%TA.AperFunction,SMDPad,CuDef*%
%ADD48FreePoly1,270.000000*%
%TD*%
%TA.AperFunction,SMDPad,CuDef*%
%ADD49RoundRect,0.250000X-0.450000X0.350000X-0.450000X-0.350000X0.450000X-0.350000X0.450000X0.350000X0*%
%TD*%
%TA.AperFunction,SMDPad,CuDef*%
%ADD50RoundRect,0.250000X-1.300000X-0.550000X1.300000X-0.550000X1.300000X0.550000X-1.300000X0.550000X0*%
%TD*%
%TA.AperFunction,ViaPad*%
%ADD51C,0.600000*%
%TD*%
%TA.AperFunction,ViaPad*%
%ADD52C,3.000000*%
%TD*%
%TA.AperFunction,ViaPad*%
%ADD53C,1.000000*%
%TD*%
%TA.AperFunction,Conductor*%
%ADD54C,0.508000*%
%TD*%
%TA.AperFunction,Conductor*%
%ADD55C,0.381000*%
%TD*%
%TA.AperFunction,Conductor*%
%ADD56C,1.016000*%
%TD*%
%TA.AperFunction,Conductor*%
%ADD57C,2.540000*%
%TD*%
G04 APERTURE END LIST*
D10*
%TO.P,J1,1,Pin_1_1*%
%TO.N,+3.3V*%
X50380000Y-82463705D03*
D11*
%TO.P,J1,2,Pin_2_2*%
%TO.N,MCU_STLINK_SWDIO*%
X51650000Y-80264000D03*
%TO.P,J1,3,Pin_3_3*%
%TO.N,MCU_STLINK_SWCLK*%
X52920000Y-78064296D03*
%TO.P,J1,4,Pin_4_4*%
%TO.N,GND*%
X54190000Y-75864591D03*
%TD*%
D12*
%TO.P,C23,1*%
%TO.N,Net-(C23-Pad1)*%
X84162000Y-138303000D03*
%TO.P,C23,2*%
%TO.N,Net-(Q1-D)*%
X84162000Y-130803000D03*
%TD*%
D13*
%TO.P,H2,1*%
%TO.N,N/C*%
X96140851Y-129301617D03*
X97085432Y-127021198D03*
X97085432Y-131582036D03*
X99365851Y-126076617D03*
D14*
X99365851Y-129301617D03*
D13*
X99365851Y-132526617D03*
X101646270Y-127021198D03*
X101646270Y-131582036D03*
X102590851Y-129301617D03*
%TD*%
D15*
%TO.P,Q1,1,G_1*%
%TO.N,Net-(Q1-G)*%
X77304000Y-140335000D03*
D16*
%TO.P,Q1,2,D_2*%
%TO.N,Net-(Q1-D)*%
X75044882Y-139173971D03*
%TO.P,Q1,3,S_3*%
%TO.N,Net-(Q1-S)*%
X72785765Y-138012943D03*
%TD*%
D17*
%TO.P,D4,1,K_1*%
%TO.N,Net-(D4-K)*%
X116420000Y-144907000D03*
D18*
%TO.P,D4,2,A_2*%
%TO.N,Net-(D4-A)*%
X116420000Y-147447000D03*
%TD*%
D19*
%TO.P,RV1,1,1_1*%
%TO.N,Net-(R26-Pad1)*%
X93306000Y-73025000D03*
D20*
%TO.P,RV1,2,2_2*%
%TO.N,Net-(U3B-+)*%
X90766000Y-75565000D03*
%TO.P,RV1,3,3_3*%
X88226000Y-73025000D03*
%TD*%
D21*
%TO.P,J2,1,Pin_1_1*%
%TO.N,+24V_INPUT*%
X80860000Y-108712000D03*
D11*
%TO.P,J2,2,Pin_2_2*%
X78320000Y-108712000D03*
%TO.P,J2,3,Pin_3_3*%
X80860000Y-106172000D03*
%TO.P,J2,4,Pin_4_4*%
X78320000Y-106172000D03*
%TO.P,J2,5,Pin_5_5*%
X80860000Y-103632000D03*
%TO.P,J2,6,Pin_6_6*%
X78320000Y-103632000D03*
%TO.P,J2,7,Pin_7_7*%
%TO.N,+12V*%
X80860000Y-101092000D03*
%TO.P,J2,8,Pin_8_8*%
%TO.N,MCU_I2C_SDA*%
X78320000Y-101092000D03*
%TO.P,J2,9,Pin_9_9*%
%TO.N,+3.3V*%
X80860000Y-98552000D03*
%TO.P,J2,10,Pin_10_10*%
%TO.N,MCU_I2C_SCL*%
X78320000Y-98552000D03*
%TO.P,J2,11,Pin_11_11*%
%TO.N,GND*%
X80860000Y-96012000D03*
%TO.P,J2,12,Pin_12_12*%
X78320000Y-96012000D03*
%TO.P,J2,13,Pin_13_13*%
X80860000Y-93472000D03*
%TO.P,J2,14,Pin_14_14*%
X78320000Y-93472000D03*
%TO.P,J2,15,Pin_15_15*%
X80860000Y-90932000D03*
%TO.P,J2,16,Pin_16_16*%
X78320000Y-90932000D03*
%TD*%
D22*
%TO.P,Q4,1,G_1*%
%TO.N,Net-(Q4-G)*%
X128612000Y-88265000D03*
D23*
%TO.P,Q4,2,D_2*%
%TO.N,Net-(D5-A)*%
X131152000Y-88265000D03*
%TO.P,Q4,3,S_3*%
%TO.N,GNDPWR*%
X133692000Y-88265000D03*
%TD*%
D24*
%TO.P,U5,1*%
%TO.N,Net-(R28-Pad1)*%
X115404000Y-68707000D03*
D25*
%TO.P,U5,2*%
%TO.N,+15V_SEC*%
X115404000Y-66167000D03*
%TO.P,U5,3*%
%TO.N,Net-(U7B--)*%
X115404000Y-63627000D03*
%TO.P,U5,4*%
%TO.N,GNDPWR*%
X115404000Y-61087000D03*
%TO.P,U5,5*%
%TO.N,GND*%
X105244000Y-61087000D03*
%TO.P,U5,6*%
%TO.N,Net-(U3A--)*%
X105244000Y-63627000D03*
%TO.P,U5,7*%
%TO.N,unconnected-(U5-Pad7)*%
X105244000Y-66167000D03*
%TO.P,U5,8*%
%TO.N,unconnected-(U5-Pad8)*%
X105244000Y-68707000D03*
%TD*%
D26*
%TO.P,R31,1*%
%TO.N,Net-(D4-K)*%
X123745974Y-143169026D03*
%TO.P,R31,2*%
%TO.N,VCAP*%
X148424000Y-118491000D03*
%TD*%
D27*
%TO.P,R24,1*%
%TO.N,+24V*%
X90512000Y-120269000D03*
%TO.P,R24,2*%
%TO.N,Net-(C23-Pad1)*%
X90512000Y-140589000D03*
%TD*%
D12*
%TO.P,C26,1*%
%TO.N,VCAP*%
X148852000Y-88519000D03*
%TO.P,C26,2*%
%TO.N,GNDPWR*%
X138852000Y-88519000D03*
%TD*%
D28*
%TO.P,U6,1,NC_1*%
%TO.N,unconnected-(U6-NC-Pad1)*%
X106514000Y-73533000D03*
D25*
%TO.P,U6,2,A_2*%
%TO.N,Net-(U6-A)*%
X106514000Y-76073000D03*
%TO.P,U6,3,C_3*%
%TO.N,GND*%
X106514000Y-78613000D03*
%TO.P,U6,4,NC_4*%
%TO.N,unconnected-(U6-NC-Pad4)*%
X106514000Y-81153000D03*
%TO.P,U6,5,VEE_5*%
%TO.N,GNDPWR*%
X114134000Y-81153000D03*
%TO.P,U6,6,VO_6*%
%TO.N,unconnected-(U6-VO-Pad6)*%
X114134000Y-78613000D03*
%TO.P,U6,7,VO_7*%
%TO.N,Net-(R29-Pad1)*%
X114134000Y-76073000D03*
%TO.P,U6,8,VCC_8*%
%TO.N,+15V_SEC*%
X114134000Y-73533000D03*
%TD*%
D17*
%TO.P,D2,1,K_1*%
%TO.N,GND*%
X47967000Y-96552000D03*
D18*
%TO.P,D2,2,A_2*%
%TO.N,Net-(D2-A)*%
X47967000Y-94012000D03*
%TD*%
D29*
%TO.P,F1,1*%
%TO.N,+24V_INPUT*%
X88607000Y-105537000D03*
D30*
%TO.P,F1,2*%
%TO.N,+24V*%
X88607000Y-113537000D03*
%TD*%
D31*
%TO.P,C31,1*%
%TO.N,VCAP*%
X148137235Y-44726200D03*
D32*
%TO.P,C31,2*%
%TO.N,GNDPWR*%
X138137235Y-44726200D03*
%TD*%
D13*
%TO.P,H1,1*%
%TO.N,N/C*%
X96140851Y-74152383D03*
X97085432Y-71871964D03*
X97085432Y-76432802D03*
X99365851Y-70927383D03*
D14*
X99365851Y-74152383D03*
D13*
X99365851Y-77377383D03*
X101646270Y-71871964D03*
X101646270Y-76432802D03*
X102590851Y-74152383D03*
%TD*%
D33*
%TO.P,J3,N,N_N*%
%TO.N,Net-(D5-A)*%
X129493963Y-99036494D03*
D34*
%TO.P,J3,P,P_P*%
%TO.N,VCAP*%
X129493963Y-104036494D03*
D35*
%TO.P,J3,S1*%
%TO.N,N/C*%
X119493963Y-96036494D03*
%TO.P,J3,S2*%
X119493963Y-107036494D03*
%TD*%
D36*
%TO.P,PS1,1,-Vin_1*%
%TO.N,GND*%
X106260000Y-88265000D03*
D37*
%TO.P,PS1,2,+Vin_2*%
%TO.N,+12V*%
X108800000Y-88265000D03*
%TO.P,PS1,3,-Vout_3*%
%TO.N,GNDPWR*%
X111340000Y-88265000D03*
%TO.P,PS1,4,+Vout_4*%
%TO.N,+15V_SEC*%
X113880000Y-88265000D03*
%TD*%
D31*
%TO.P,C33,1*%
%TO.N,VCAP*%
X148137235Y-158727800D03*
D32*
%TO.P,C33,2*%
%TO.N,GNDPWR*%
X138137235Y-158727800D03*
%TD*%
D38*
%TO.P,R23,1*%
%TO.N,Net-(Q3-G)*%
X97624000Y-85725000D03*
%TO.P,R23,2*%
%TO.N,GND*%
X97624000Y-83725000D03*
%TD*%
D39*
%TO.P,Q3,1,G_1*%
%TO.N,Net-(Q3-G)*%
X97624000Y-88773000D03*
%TO.P,Q3,2,S_2*%
%TO.N,GND*%
X99524000Y-88773000D03*
%TO.P,Q3,3,D_3*%
%TO.N,Net-(Q2-S)*%
X98574000Y-90648000D03*
%TD*%
D40*
%TO.P,C12,1*%
%TO.N,LT3751_UVLO_1*%
X64350000Y-121945400D03*
%TO.P,C12,2*%
%TO.N,GND*%
X64350000Y-124020400D03*
%TD*%
%TO.P,C14,1*%
%TO.N,Net-(U2-CHARGE)*%
X50634000Y-121953200D03*
%TO.P,C14,2*%
%TO.N,GND*%
X50634000Y-124028200D03*
%TD*%
D41*
%TO.P,C5,1*%
%TO.N,+24V*%
X79865500Y-124714000D03*
%TO.P,C5,2*%
%TO.N,GND*%
X77790500Y-124714000D03*
%TD*%
D40*
%TO.P,C11,1*%
%TO.N,LT3751_DONE*%
X52920000Y-121920000D03*
%TO.P,C11,2*%
%TO.N,GND*%
X52920000Y-123995000D03*
%TD*%
D39*
%TO.P,Q2,1,G_1*%
%TO.N,Net-(Q2-G)*%
X92036000Y-88676000D03*
%TO.P,Q2,2,S_2*%
%TO.N,Net-(Q2-S)*%
X93936000Y-88676000D03*
%TO.P,Q2,3,D_3*%
%TO.N,Net-(Q2-D)*%
X92986000Y-90551000D03*
%TD*%
D40*
%TO.P,C17,1*%
%TO.N,LT3751_UVLO_2*%
X59778000Y-121945400D03*
%TO.P,C17,2*%
%TO.N,GND*%
X59778000Y-124020400D03*
%TD*%
%TO.P,C13,1*%
%TO.N,LT3751_OVLO_1*%
X62064000Y-121945400D03*
%TO.P,C13,2*%
%TO.N,GND*%
X62064000Y-124020400D03*
%TD*%
D38*
%TO.P,R22,1*%
%TO.N,Net-(Q2-G)*%
X94830000Y-85709000D03*
%TO.P,R22,2*%
%TO.N,GND*%
X94830000Y-83709000D03*
%TD*%
D42*
%TO.P,JP2,1,A_1*%
%TO.N,LT3751_OVLO_1*%
X62826000Y-119253000D03*
D43*
%TO.P,JP2,2,B_2*%
%TO.N,GND*%
X62826000Y-117953000D03*
%TD*%
D44*
%TO.P,D1,1,A1_1*%
%TO.N,+24V*%
X80860000Y-120015000D03*
%TO.P,D1,2,A2_2*%
%TO.N,GND*%
X76560000Y-120015000D03*
%TD*%
D45*
%TO.P,R25,1*%
%TO.N,+24V*%
X95588000Y-120396000D03*
%TO.P,R25,2*%
%TO.N,Net-(R25-Pad2)*%
X101688000Y-120396000D03*
%TD*%
D46*
%TO.P,C7,1*%
%TO.N,+12V*%
X50507000Y-134366000D03*
%TO.P,C7,2*%
%TO.N,GND*%
X50507000Y-132291000D03*
%TD*%
%TO.P,C10,1*%
%TO.N,+12V*%
X52931000Y-134366000D03*
%TO.P,C10,2*%
%TO.N,GND*%
X52931000Y-132291000D03*
%TD*%
D40*
%TO.P,C15,1*%
%TO.N,LT3751_FAULT*%
X55206000Y-121920000D03*
%TO.P,C15,2*%
%TO.N,GND*%
X55206000Y-123995000D03*
%TD*%
D47*
%TO.P,JP3,1,A_1*%
%TO.N,+12V*%
X60159000Y-117953000D03*
D48*
%TO.P,JP3,2,B_2*%
%TO.N,LT3751_UVLO_2*%
X60159000Y-119253000D03*
%TD*%
D49*
%TO.P,R21,1*%
%TO.N,MCU_OUT_BLEEDER*%
X100412506Y-83717078D03*
%TO.P,R21,2*%
%TO.N,Net-(Q3-G)*%
X100412506Y-85717078D03*
%TD*%
D38*
%TO.P,R20,1*%
%TO.N,+12V*%
X89496000Y-91789000D03*
%TO.P,R20,2*%
%TO.N,Net-(Q2-G)*%
X89496000Y-89789000D03*
%TD*%
D40*
%TO.P,C18,1*%
%TO.N,LT3751_OVLO_2*%
X57492000Y-121945400D03*
%TO.P,C18,2*%
%TO.N,GND*%
X57492000Y-124020400D03*
%TD*%
D47*
%TO.P,JP1,1,A_1*%
%TO.N,+12V*%
X65493000Y-117953000D03*
D48*
%TO.P,JP1,2,B_2*%
%TO.N,LT3751_UVLO_1*%
X65493000Y-119253000D03*
%TD*%
D50*
%TO.P,U4,1*%
%TO.N,Net-(R25-Pad2)*%
X109816000Y-131445000D03*
%TO.P,U4,2*%
%TO.N,Net-(Q2-D)*%
X109816000Y-128905000D03*
%TO.P,U4,3*%
%TO.N,unconnected-(U4-Pad3)*%
X109816000Y-126365000D03*
%TO.P,U4,4*%
%TO.N,GNDPWR*%
X118706000Y-126365000D03*
%TO.P,U4,5*%
%TO.N,unconnected-(U4-Pad5)*%
X118706000Y-128905000D03*
%TO.P,U4,6*%
%TO.N,Net-(D4-K)*%
X118706000Y-131445000D03*
%TD*%
D42*
%TO.P,JP4,1,A_1*%
%TO.N,LT3751_OVLO_2*%
X57492000Y-119237000D03*
D43*
%TO.P,JP4,2,B_2*%
%TO.N,GND*%
X57492000Y-117937000D03*
%TD*%
D51*
%TO.N,GND*%
X51823853Y-132176790D03*
X69323853Y-127846663D03*
X64323853Y-127846663D03*
X76823853Y-123516536D03*
X71823853Y-123516536D03*
X71823853Y-106196028D03*
X66823853Y-106196028D03*
X46823853Y-106196028D03*
X69323853Y-101865901D03*
X64323853Y-101865901D03*
X49323853Y-101865901D03*
X71823853Y-97535774D03*
X66823853Y-97535774D03*
X61823853Y-97535774D03*
X46823853Y-97535774D03*
X89323853Y-93205647D03*
X79323853Y-94455647D03*
X69323853Y-93205647D03*
X54323853Y-93205647D03*
X50573853Y-93205647D03*
X86823853Y-88875520D03*
X81823853Y-88875520D03*
X76823853Y-88875520D03*
X61823853Y-88875520D03*
X56823853Y-88875520D03*
X51823853Y-88875520D03*
X104323853Y-84545393D03*
X89323853Y-84545393D03*
X79323853Y-84545393D03*
X74323853Y-84545393D03*
X59323853Y-84545393D03*
X54323853Y-84545393D03*
X86823853Y-80215266D03*
X81823853Y-80215266D03*
X76823853Y-80215266D03*
X46823853Y-80215266D03*
X41823853Y-80215266D03*
X94323853Y-75885139D03*
X89323853Y-75885139D03*
X79323853Y-75885139D03*
X74323853Y-75885139D03*
X55573853Y-75885139D03*
X49323853Y-75885139D03*
X44323853Y-75885139D03*
X106823853Y-71555012D03*
X91823853Y-71555012D03*
X86823853Y-71555012D03*
X81823853Y-71555012D03*
X61823853Y-71555012D03*
X46823853Y-71555012D03*
X99323853Y-67224885D03*
X79323853Y-67224885D03*
X74323853Y-67224885D03*
X101823853Y-62894758D03*
X96823853Y-62894758D03*
X91823853Y-62894758D03*
X81823853Y-62894758D03*
X76823853Y-62894758D03*
X71823853Y-62894758D03*
X66823853Y-62894758D03*
X104323853Y-58564631D03*
X99323853Y-58564631D03*
X79323853Y-58564631D03*
X74323853Y-58564631D03*
X69323853Y-58564631D03*
X76823853Y-54234504D03*
X66823853Y-54234504D03*
X74323853Y-49904377D03*
X64323853Y-49904377D03*
X71823853Y-45574250D03*
X66823853Y-45574250D03*
%TO.N,+3.3V*%
X59143000Y-78232000D03*
X71589000Y-78232000D03*
X70954000Y-83947000D03*
%TO.N,GND*%
X86194000Y-70993000D03*
X66255000Y-100203000D03*
X72859000Y-125095000D03*
X69049000Y-125095000D03*
X69811000Y-125857000D03*
X69811000Y-74168000D03*
X74002000Y-90551000D03*
X63080000Y-90551000D03*
D52*
X58783400Y-129404900D03*
D51*
X54444000Y-105791000D03*
X63080000Y-96139000D03*
X94830000Y-64389000D03*
X66255000Y-100965000D03*
X63080000Y-87757000D03*
X63080000Y-92964000D03*
X72097000Y-125095000D03*
X71335000Y-125857000D03*
X67017000Y-100965000D03*
X65493000Y-100965000D03*
X69811000Y-125095000D03*
X69684000Y-83947000D03*
X72097000Y-125857000D03*
X71335000Y-125095000D03*
X50761000Y-105791000D03*
X67017000Y-100203000D03*
X94830000Y-63119000D03*
X65493000Y-100203000D03*
X70573000Y-125095000D03*
X72859000Y-125857000D03*
X70573000Y-125857000D03*
X74002000Y-91313000D03*
X60286000Y-105791000D03*
X57492000Y-105791000D03*
X69049000Y-125857000D03*
%TO.N,LT3751_DONE*%
X52920000Y-120523000D03*
X52920000Y-113157000D03*
%TO.N,+12V*%
X91020000Y-91821000D03*
X60159000Y-115951000D03*
X57492000Y-134366000D03*
D53*
X62889500Y-111569500D03*
D51*
X64731000Y-115443000D03*
%TO.N,Net-(Q4-G)*%
X120198000Y-78613000D03*
%TO.N,GNDPWR*%
X115023000Y-83312000D03*
X134073000Y-132715000D03*
X133311000Y-131953000D03*
X133311000Y-133477000D03*
X133311000Y-132715000D03*
X133311000Y-134239000D03*
X134073000Y-131953000D03*
X115023000Y-84963000D03*
X126453000Y-52705000D03*
X119595000Y-62738000D03*
X134073000Y-134239000D03*
X134073000Y-135001000D03*
X133311000Y-131191000D03*
X115023000Y-85725000D03*
X119087000Y-51562000D03*
X115023000Y-84201000D03*
X133311000Y-135001000D03*
X134073000Y-131191000D03*
X134073000Y-133477000D03*
%TO.N,LT3751_UVLO_2*%
X59778000Y-120523000D03*
%TO.N,MCU_I2C_SDA*%
X72605000Y-77343000D03*
X72605000Y-87376000D03*
%TO.N,MCU_OUT_BLEEDER*%
X80923500Y-75501500D03*
X84987500Y-79565500D03*
X99084500Y-83502500D03*
%TO.N,MCU_PWM_OUT_KICK*%
X80987000Y-72644000D03*
X85114500Y-76771500D03*
%TO.N,LT3751_FAULT*%
X55206000Y-113157000D03*
X55206000Y-120555000D03*
%TO.N,LT3751_OVLO_1*%
X62064000Y-120523000D03*
%TO.N,Net-(Q1-G)*%
X57492000Y-141478000D03*
%TO.N,Net-(Q1-S)*%
X57111000Y-136271000D03*
X69049000Y-135382000D03*
%TO.N,Net-(U7B--)*%
X117309000Y-57912000D03*
X116928000Y-53822600D03*
%TO.N,LT3751_UVLO_1*%
X64350000Y-120523000D03*
%TO.N,Net-(U2-CSN)*%
X68033000Y-127254000D03*
X55714000Y-135382000D03*
%TO.N,Net-(U2-CHARGE)*%
X50634000Y-120573800D03*
%TO.N,LT3751_OVLO_2*%
X57492000Y-120523000D03*
%TO.N,VCAP*%
X126834000Y-156845000D03*
%TD*%
%TO.N,+3.3V*%
D54*
X59143000Y-78232000D02*
X54911295Y-82463705D01*
X70954000Y-78867000D02*
X71589000Y-78232000D01*
X53260295Y-82463705D02*
X50380000Y-82463705D01*
X54911295Y-82463705D02*
X53260295Y-82463705D01*
X70954000Y-83947000D02*
X70954000Y-78867000D01*
%TO.N,LT3751_DONE*%
D55*
X52920000Y-120523000D02*
X52920000Y-113157000D01*
X52920000Y-121920000D02*
X52920000Y-120523000D01*
%TO.N,+12V*%
X64731000Y-115443000D02*
X65493000Y-116205000D01*
D56*
X46954647Y-132972647D02*
X48348000Y-134366000D01*
X50507000Y-134366000D02*
X52931000Y-134366000D01*
D55*
X60159000Y-115951000D02*
X60159000Y-117953000D01*
D56*
X62889500Y-111569500D02*
X48919500Y-111569500D01*
D55*
X89496000Y-91789000D02*
X90988000Y-91789000D01*
X65493000Y-116205000D02*
X65493000Y-117953000D01*
D56*
X57492000Y-134366000D02*
X52931000Y-134366000D01*
X48919500Y-111569500D02*
X46954647Y-113534353D01*
X48348000Y-134366000D02*
X50507000Y-134366000D01*
X46954647Y-113534353D02*
X46954647Y-132972647D01*
D55*
X90988000Y-91789000D02*
X91020000Y-91821000D01*
%TO.N,Net-(Q4-G)*%
D54*
X128612000Y-84074000D02*
X128612000Y-88265000D01*
X121468000Y-79883000D02*
X120198000Y-78613000D01*
X124421000Y-79883000D02*
X121468000Y-79883000D01*
X124421000Y-79883000D02*
X128612000Y-84074000D01*
%TO.N,LT3751_UVLO_2*%
D55*
X60159000Y-120142000D02*
X59778000Y-120523000D01*
X59778000Y-121945400D02*
X59778000Y-120523000D01*
X60159000Y-119253000D02*
X60159000Y-120142000D01*
%TO.N,Net-(C23-Pad1)*%
D57*
X85559000Y-138303000D02*
X87845000Y-140589000D01*
X87845000Y-140589000D02*
X90512000Y-140589000D01*
X84162000Y-138303000D02*
X85559000Y-138303000D01*
%TO.N,MCU_I2C_SDA*%
D55*
X72605000Y-87376000D02*
X72605000Y-77343000D01*
%TO.N,MCU_OUT_BLEEDER*%
X99299078Y-83717078D02*
X100412506Y-83717078D01*
X80923500Y-75501500D02*
X84987500Y-79565500D01*
X99084500Y-83502500D02*
X99299078Y-83717078D01*
%TO.N,MCU_PWM_OUT_KICK*%
X85114500Y-76771500D02*
X80987000Y-72644000D01*
%TO.N,LT3751_FAULT*%
X55206000Y-121920000D02*
X55206000Y-120555000D01*
X55206000Y-120555000D02*
X55206000Y-113157000D01*
%TO.N,LT3751_OVLO_1*%
X62826000Y-119253000D02*
X62826000Y-119761000D01*
X62064000Y-121945400D02*
X62064000Y-120523000D01*
X62826000Y-119761000D02*
X62064000Y-120523000D01*
%TO.N,Net-(Q1-G)*%
D54*
X77304000Y-141986000D02*
X75653000Y-143637000D01*
X77304000Y-140335000D02*
X77304000Y-141986000D01*
X59651000Y-143637000D02*
X57492000Y-141478000D01*
X75653000Y-143637000D02*
X59651000Y-143637000D01*
%TO.N,Net-(Q1-S)*%
D55*
X68160000Y-136271000D02*
X69049000Y-135382000D01*
X57111000Y-136271000D02*
X68160000Y-136271000D01*
%TO.N,Net-(U7B--)*%
X116928000Y-57531000D02*
X117309000Y-57912000D01*
X116928000Y-53822600D02*
X116928000Y-57531000D01*
%TO.N,LT3751_UVLO_1*%
X65493000Y-119380000D02*
X64350000Y-120523000D01*
X64350000Y-121945400D02*
X64350000Y-120523000D01*
X65493000Y-119253000D02*
X65493000Y-119380000D01*
%TO.N,unconnected-(U5-Pad7)*%
D54*
X104140000Y-66548000D02*
X105410000Y-66548000D01*
%TO.N,Net-(U2-CSN)*%
D55*
X57365000Y-135382000D02*
X57746000Y-135675485D01*
X55714000Y-135382000D02*
X57365000Y-135382000D01*
X66455000Y-135690000D02*
X67271000Y-134874000D01*
X67271000Y-128016000D02*
X67271000Y-128651000D01*
X67271000Y-134874000D02*
X67271000Y-128651000D01*
X57746000Y-135690000D02*
X66455000Y-135690000D01*
X57746000Y-135675485D02*
X57746000Y-135690000D01*
X68033000Y-127254000D02*
X67271000Y-128016000D01*
%TO.N,Net-(U2-CHARGE)*%
X50634000Y-120573800D02*
X50634000Y-121953200D01*
%TO.N,LT3751_OVLO_2*%
X57492000Y-120523000D02*
X57492000Y-121945400D01*
X57492000Y-119237000D02*
X57492000Y-120523000D01*
%TO.N,VCAP*%
D54*
X126834000Y-156845000D02*
X137756000Y-167767000D01*
X148137235Y-158727800D02*
X148137235Y-164497765D01*
X148137235Y-164497765D02*
X144868000Y-167767000D01*
X144868000Y-167767000D02*
X137756000Y-167767000D01*
%TO.N,Net-(Q3-G)*%
D55*
X97624000Y-88773000D02*
X97624000Y-85725000D01*
X97624000Y-85725000D02*
X100404584Y-85725000D01*
X100404584Y-85725000D02*
X100412506Y-85717078D01*
%TO.N,Net-(Q2-S)*%
X94733000Y-88676000D02*
X96705000Y-90648000D01*
X93936000Y-88676000D02*
X94733000Y-88676000D01*
X96705000Y-90648000D02*
X98574000Y-90648000D01*
%TO.N,Net-(Q2-G)*%
X92036000Y-88676000D02*
X92036000Y-87249000D01*
X92036000Y-88676000D02*
X90609000Y-88676000D01*
X93576000Y-85709000D02*
X92036000Y-87249000D01*
X94830000Y-85709000D02*
X93576000Y-85709000D01*
X90609000Y-88676000D02*
X89496000Y-89789000D01*
%TO.N,Net-(Q2-D)*%
X109689000Y-128905000D02*
X107911000Y-128905000D01*
X106641000Y-121666000D02*
X105752000Y-120777000D01*
X106641000Y-127635000D02*
X106641000Y-121666000D01*
X92986000Y-90551000D02*
X92986000Y-108011000D01*
X92986000Y-108011000D02*
X105752000Y-120777000D01*
X107911000Y-128905000D02*
X106641000Y-127635000D01*
%TO.N,Net-(R25-Pad2)*%
X109689000Y-131445000D02*
X108800000Y-131445000D01*
X108800000Y-131445000D02*
X105625000Y-128270000D01*
X105625000Y-128270000D02*
X105625000Y-122809000D01*
X105625000Y-122809000D02*
X103212000Y-120396000D01*
X103212000Y-120396000D02*
X101688000Y-120396000D01*
%TD*%
%TA.AperFunction,Conductor*%
%TO.N,GNDPWR*%
G36*
X140804000Y-90551000D02*
G01*
X135470000Y-90551000D01*
X134454000Y-89535000D01*
X133504115Y-89535000D01*
X133491920Y-89534399D01*
X133406313Y-89525937D01*
X133324069Y-89517809D01*
X133300148Y-89513033D01*
X133144679Y-89465696D01*
X133122156Y-89456330D01*
X132978962Y-89379474D01*
X132958708Y-89365881D01*
X132833324Y-89262474D01*
X132816125Y-89245180D01*
X132713409Y-89119225D01*
X132699935Y-89098908D01*
X132623863Y-88955282D01*
X132614624Y-88932713D01*
X132568143Y-88776977D01*
X132563500Y-88753030D01*
X132547835Y-88585087D01*
X132547302Y-88572916D01*
X132550735Y-87950041D01*
X132551394Y-87937956D01*
X132568743Y-87770671D01*
X132573581Y-87746946D01*
X132621326Y-87592055D01*
X132630687Y-87569719D01*
X132707631Y-87427069D01*
X132721147Y-87406990D01*
X132824363Y-87282013D01*
X132841533Y-87264939D01*
X132860613Y-87249357D01*
X132967070Y-87162418D01*
X132987222Y-87149012D01*
X133130307Y-87072848D01*
X133152683Y-87063616D01*
X133307836Y-87016727D01*
X133331588Y-87012019D01*
X133498958Y-86995593D01*
X133511070Y-86995000D01*
X134454000Y-86995000D01*
X135470000Y-85979000D01*
X140804000Y-85979000D01*
X140804000Y-90551000D01*
G37*
%TD.AperFunction*%
%TD*%
%TA.AperFunction,Conductor*%
%TO.N,+24V_INPUT*%
G36*
X89803917Y-102235147D02*
G01*
X89810047Y-102235448D01*
X89816058Y-102235892D01*
X89983886Y-102252421D01*
X89995910Y-102254205D01*
X90007792Y-102256568D01*
X90019584Y-102259521D01*
X90172181Y-102305810D01*
X90183629Y-102309907D01*
X90194833Y-102314548D01*
X90205818Y-102319744D01*
X90328116Y-102385114D01*
X90346421Y-102394898D01*
X90356857Y-102401153D01*
X90366946Y-102407894D01*
X90376722Y-102415144D01*
X90499959Y-102516282D01*
X90508975Y-102524454D01*
X90517544Y-102533023D01*
X90525716Y-102542039D01*
X90626854Y-102665276D01*
X90634100Y-102675045D01*
X90640847Y-102685142D01*
X90647101Y-102695577D01*
X90722249Y-102836170D01*
X90727451Y-102847168D01*
X90732090Y-102858367D01*
X90736191Y-102869827D01*
X90782471Y-103022393D01*
X90785428Y-103034199D01*
X90787794Y-103046095D01*
X90789579Y-103058129D01*
X90806104Y-103225903D01*
X90806551Y-103231970D01*
X90806850Y-103238053D01*
X90807000Y-103244141D01*
X90807000Y-107702857D01*
X90806850Y-107708945D01*
X90806551Y-107715028D01*
X90806104Y-107721095D01*
X90789579Y-107888869D01*
X90787794Y-107900903D01*
X90785428Y-107912799D01*
X90782471Y-107924605D01*
X90736191Y-108077171D01*
X90732090Y-108088631D01*
X90727451Y-108099830D01*
X90722249Y-108110828D01*
X90647101Y-108251421D01*
X90640842Y-108261864D01*
X90634100Y-108271953D01*
X90626854Y-108281722D01*
X90525716Y-108404959D01*
X90517544Y-108413975D01*
X90508975Y-108422544D01*
X90499959Y-108430716D01*
X90376722Y-108531854D01*
X90366953Y-108539100D01*
X90356864Y-108545842D01*
X90346421Y-108552101D01*
X90205828Y-108627249D01*
X90194830Y-108632451D01*
X90183631Y-108637090D01*
X90172171Y-108641191D01*
X90019605Y-108687471D01*
X90007799Y-108690428D01*
X89995903Y-108692794D01*
X89983869Y-108694579D01*
X89816095Y-108711104D01*
X89810028Y-108711551D01*
X89803945Y-108711850D01*
X89797857Y-108712000D01*
X84288998Y-108712000D01*
X83996107Y-109004893D01*
X82556354Y-110444644D01*
X82551954Y-110448834D01*
X82547451Y-110452916D01*
X82542835Y-110456898D01*
X82412509Y-110563854D01*
X82402740Y-110571100D01*
X82392651Y-110577842D01*
X82382208Y-110584101D01*
X82241615Y-110659249D01*
X82230617Y-110664451D01*
X82219418Y-110669090D01*
X82207958Y-110673191D01*
X82055392Y-110719471D01*
X82043586Y-110722428D01*
X82031690Y-110724794D01*
X82019656Y-110726579D01*
X81851881Y-110743104D01*
X81845814Y-110743551D01*
X81839731Y-110743850D01*
X81833643Y-110744000D01*
X77424143Y-110744000D01*
X77418063Y-110743851D01*
X77411971Y-110743551D01*
X77405904Y-110743104D01*
X77238129Y-110726579D01*
X77226095Y-110724794D01*
X77214199Y-110722428D01*
X77202393Y-110719471D01*
X77049827Y-110673191D01*
X77038367Y-110669090D01*
X77027168Y-110664451D01*
X77016170Y-110659249D01*
X76997610Y-110649328D01*
X76875569Y-110584096D01*
X76865142Y-110577847D01*
X76855045Y-110571100D01*
X76845276Y-110563854D01*
X76722039Y-110462716D01*
X76713023Y-110454544D01*
X76704454Y-110445975D01*
X76696282Y-110436959D01*
X76595144Y-110313722D01*
X76587898Y-110303953D01*
X76581147Y-110293850D01*
X76574905Y-110283435D01*
X76499745Y-110142821D01*
X76494551Y-110131840D01*
X76489903Y-110120619D01*
X76485807Y-110109170D01*
X76439521Y-109956584D01*
X76436566Y-109944783D01*
X76434205Y-109932909D01*
X76432421Y-109920882D01*
X76415892Y-109753058D01*
X76415448Y-109747047D01*
X76415147Y-109740917D01*
X76415000Y-109734857D01*
X76415000Y-103244141D01*
X76415148Y-103238075D01*
X76415149Y-103238053D01*
X76415449Y-103231948D01*
X76415892Y-103225939D01*
X76432421Y-103058109D01*
X76434206Y-103046083D01*
X76436570Y-103034199D01*
X76439518Y-103022425D01*
X76485813Y-102869806D01*
X76489908Y-102858367D01*
X76494550Y-102847160D01*
X76499738Y-102836191D01*
X76574905Y-102695563D01*
X76581156Y-102685135D01*
X76587889Y-102675058D01*
X76595130Y-102665292D01*
X76696295Y-102542023D01*
X76704448Y-102533028D01*
X76713028Y-102524448D01*
X76722023Y-102516295D01*
X76845292Y-102415130D01*
X76855058Y-102407889D01*
X76865135Y-102401156D01*
X76875563Y-102394905D01*
X77016191Y-102319738D01*
X77027160Y-102314550D01*
X77038371Y-102309906D01*
X77049806Y-102305813D01*
X77202425Y-102259518D01*
X77214202Y-102256569D01*
X77226085Y-102254205D01*
X77238109Y-102252421D01*
X77405940Y-102235892D01*
X77411952Y-102235448D01*
X77418081Y-102235147D01*
X77424143Y-102235000D01*
X89797857Y-102235000D01*
X89803917Y-102235147D01*
G37*
%TD.AperFunction*%
%TD*%
%TA.AperFunction,Conductor*%
%TO.N,GNDPWR*%
G36*
X135470000Y-90551000D02*
G01*
X140804000Y-90551000D01*
X140804000Y-159175433D01*
X140803734Y-159183543D01*
X140783142Y-159497711D01*
X140781025Y-159513792D01*
X140720400Y-159818574D01*
X140716202Y-159834241D01*
X140616311Y-160128512D01*
X140610104Y-160143498D01*
X140472658Y-160422210D01*
X140464548Y-160436257D01*
X140291898Y-160694646D01*
X140282024Y-160707514D01*
X140077125Y-160941156D01*
X140065656Y-160952625D01*
X139832014Y-161157524D01*
X139819146Y-161167398D01*
X139560757Y-161340048D01*
X139546710Y-161348158D01*
X139267998Y-161485604D01*
X139253012Y-161491811D01*
X138958741Y-161591702D01*
X138943074Y-161595900D01*
X138638292Y-161656525D01*
X138622211Y-161658642D01*
X138308043Y-161679234D01*
X138299933Y-161679500D01*
X137974067Y-161679500D01*
X137965957Y-161679234D01*
X137651788Y-161658642D01*
X137635707Y-161656525D01*
X137330925Y-161595900D01*
X137315258Y-161591702D01*
X137020987Y-161491811D01*
X137006001Y-161485604D01*
X136727289Y-161348158D01*
X136713242Y-161340048D01*
X136454853Y-161167398D01*
X136441985Y-161157524D01*
X136208343Y-160952625D01*
X136196874Y-160941156D01*
X135991975Y-160707514D01*
X135982101Y-160694646D01*
X135809451Y-160436257D01*
X135801341Y-160422210D01*
X135794659Y-160408660D01*
X135663892Y-160143491D01*
X135657688Y-160128512D01*
X135557797Y-159834241D01*
X135553599Y-159818574D01*
X135545525Y-159777986D01*
X135492972Y-159513781D01*
X135490857Y-159497723D01*
X135470265Y-159183543D01*
X135470000Y-159175433D01*
X135470000Y-139573000D01*
X132649106Y-136752106D01*
X132643559Y-136746184D01*
X132435975Y-136509480D01*
X132426101Y-136496612D01*
X132253451Y-136238223D01*
X132245341Y-136224176D01*
X132238659Y-136210626D01*
X132107892Y-135945457D01*
X132101688Y-135930478D01*
X132001797Y-135636207D01*
X131997599Y-135620540D01*
X131989258Y-135578609D01*
X131936972Y-135315748D01*
X131934857Y-135299690D01*
X131914265Y-134985509D01*
X131914000Y-134977399D01*
X131914000Y-130937000D01*
X135470000Y-130937000D01*
X135470000Y-121920000D01*
X135468834Y-121921165D01*
X135463782Y-90544782D01*
X135470000Y-90551000D01*
G37*
%TD.AperFunction*%
%TA.AperFunction,Conductor*%
G36*
X135470000Y-48133000D02*
G01*
X140804000Y-48133000D01*
X140804000Y-85979000D01*
X135470000Y-85979000D01*
X135463048Y-85985951D01*
X135456951Y-48119951D01*
X135470000Y-48133000D01*
G37*
%TD.AperFunction*%
%TD*%
%TA.AperFunction,Conductor*%
%TO.N,Net-(D4-K)*%
G36*
X120456847Y-130556597D02*
G01*
X120633728Y-130574018D01*
X120657556Y-130578757D01*
X120821788Y-130628576D01*
X120844240Y-130637877D01*
X120995585Y-130718772D01*
X121015797Y-130732277D01*
X121153186Y-130845030D01*
X121162202Y-130853202D01*
X127806797Y-137497797D01*
X127814969Y-137506813D01*
X127927722Y-137644202D01*
X127941227Y-137664414D01*
X128022121Y-137815756D01*
X128031424Y-137838214D01*
X128081240Y-138002437D01*
X128085982Y-138026278D01*
X128103403Y-138203152D01*
X128104000Y-138215306D01*
X128104000Y-143470693D01*
X128103403Y-143482847D01*
X128085982Y-143659721D01*
X128081240Y-143683562D01*
X128031424Y-143847785D01*
X128022121Y-143870243D01*
X127941227Y-144021585D01*
X127927722Y-144041797D01*
X127814969Y-144179186D01*
X127806797Y-144188202D01*
X124972202Y-147022797D01*
X124963186Y-147030969D01*
X124825797Y-147143722D01*
X124805585Y-147157227D01*
X124654243Y-147238121D01*
X124631785Y-147247424D01*
X124467562Y-147297240D01*
X124443721Y-147301982D01*
X124266847Y-147319403D01*
X124254693Y-147320000D01*
X119380307Y-147320000D01*
X119368153Y-147319403D01*
X119191278Y-147301982D01*
X119167437Y-147297240D01*
X119003214Y-147247424D01*
X118980756Y-147238121D01*
X118829414Y-147157227D01*
X118809202Y-147143722D01*
X118671813Y-147030969D01*
X118662797Y-147022797D01*
X117563000Y-145923000D01*
X117148786Y-145923000D01*
X115528000Y-145923000D01*
X115460961Y-145903315D01*
X115415206Y-145850511D01*
X115404000Y-145799000D01*
X115404000Y-131562092D01*
X115404597Y-131549938D01*
X115422018Y-131373056D01*
X115426757Y-131349232D01*
X115476577Y-131184994D01*
X115485875Y-131162549D01*
X115566775Y-131011195D01*
X115580272Y-130990995D01*
X115689149Y-130858328D01*
X115706328Y-130841149D01*
X115838995Y-130732272D01*
X115859195Y-130718775D01*
X116010549Y-130637875D01*
X116032994Y-130628577D01*
X116197232Y-130578757D01*
X116221056Y-130574018D01*
X116397939Y-130556597D01*
X116410093Y-130556000D01*
X120444693Y-130556000D01*
X120456847Y-130556597D01*
G37*
%TD.AperFunction*%
%TD*%
%TA.AperFunction,Conductor*%
%TO.N,GND*%
G36*
X82562786Y-97409000D02*
G01*
X82562676Y-97409000D01*
X82222145Y-97409075D01*
X76034001Y-97410440D01*
X76034000Y-97410440D01*
X76034000Y-97410441D01*
X76033999Y-97410442D01*
X75734164Y-97710064D01*
X75734161Y-97710067D01*
X75734148Y-97710080D01*
X75734147Y-97710079D01*
X75734130Y-97710097D01*
X75384573Y-98059408D01*
X74002000Y-99440998D01*
X74002000Y-99440999D01*
X74002000Y-99441000D01*
X74002000Y-117729000D01*
X75018000Y-118745000D01*
X77641210Y-118745000D01*
X77670170Y-118745000D01*
X77705106Y-118750023D01*
X77720104Y-118754427D01*
X77778855Y-118792172D01*
X77780042Y-118793541D01*
X77807518Y-118848402D01*
X77809163Y-118855960D01*
X77812000Y-118882331D01*
X77812000Y-127641857D01*
X77811850Y-127647945D01*
X77811551Y-127654028D01*
X77811104Y-127660095D01*
X77794579Y-127827869D01*
X77792794Y-127839903D01*
X77790428Y-127851799D01*
X77787471Y-127863605D01*
X77741191Y-128016171D01*
X77737090Y-128027631D01*
X77732451Y-128038830D01*
X77727249Y-128049828D01*
X77652101Y-128190421D01*
X77645842Y-128200864D01*
X77639100Y-128210953D01*
X77631854Y-128220722D01*
X77530716Y-128343959D01*
X77522544Y-128352975D01*
X77513975Y-128361544D01*
X77504959Y-128369716D01*
X77381722Y-128470854D01*
X77371953Y-128478100D01*
X77361864Y-128484842D01*
X77351421Y-128491101D01*
X77210828Y-128566249D01*
X77199830Y-128571451D01*
X77188631Y-128576090D01*
X77177171Y-128580191D01*
X77024605Y-128626471D01*
X77012799Y-128629428D01*
X77000903Y-128631794D01*
X76988869Y-128633579D01*
X76821095Y-128650104D01*
X76815028Y-128650551D01*
X76808945Y-128650850D01*
X76802857Y-128651000D01*
X69677143Y-128651000D01*
X69671063Y-128650851D01*
X69664971Y-128650551D01*
X69658904Y-128650104D01*
X69491129Y-128633579D01*
X69479095Y-128631794D01*
X69467199Y-128629428D01*
X69455393Y-128626471D01*
X69302827Y-128580191D01*
X69291367Y-128576090D01*
X69280168Y-128571451D01*
X69269170Y-128566249D01*
X69250610Y-128556328D01*
X69128569Y-128491096D01*
X69118142Y-128484847D01*
X69108045Y-128478100D01*
X69098276Y-128470854D01*
X68975039Y-128369716D01*
X68966023Y-128361544D01*
X68957454Y-128352975D01*
X68949282Y-128343959D01*
X68848144Y-128220722D01*
X68840898Y-128210953D01*
X68834147Y-128200850D01*
X68827905Y-128190435D01*
X68752745Y-128049821D01*
X68747547Y-128038830D01*
X68742903Y-128027619D01*
X68738807Y-128016170D01*
X68692527Y-127863605D01*
X68692521Y-127863584D01*
X68689566Y-127851783D01*
X68687205Y-127839909D01*
X68685421Y-127827882D01*
X68685420Y-127827869D01*
X68668892Y-127660058D01*
X68668448Y-127654028D01*
X68668147Y-127647917D01*
X68668000Y-127641857D01*
X68668000Y-126365000D01*
X68668000Y-124079000D01*
X68668000Y-102235000D01*
X68668000Y-95758000D01*
X74764000Y-89662000D01*
X82638000Y-89662000D01*
X82562786Y-97409000D01*
G37*
%TD.AperFunction*%
%TD*%
%TA.AperFunction,Conductor*%
%TO.N,GND*%
G36*
X72360006Y-40839329D02*
G01*
X72394611Y-40880874D01*
X83494626Y-62479171D01*
X83563529Y-62613240D01*
X83638623Y-62696058D01*
X83652052Y-62710868D01*
X83762820Y-62782253D01*
X83762821Y-62782253D01*
X83762824Y-62782255D01*
X83821610Y-62801129D01*
X83888300Y-62822541D01*
X83894428Y-62822840D01*
X83894436Y-62822843D01*
X83894437Y-62822841D01*
X84019927Y-62828979D01*
X84148735Y-62801129D01*
X84206681Y-62771348D01*
X84208093Y-62770636D01*
X85314473Y-62221653D01*
X85317520Y-62220194D01*
X86438173Y-61703058D01*
X86441344Y-61701648D01*
X87576121Y-61216398D01*
X87579308Y-61215088D01*
X88727328Y-60762100D01*
X88730597Y-60760864D01*
X89890981Y-60340483D01*
X89894187Y-60339373D01*
X91065992Y-59951943D01*
X91069325Y-59950893D01*
X91120343Y-59935610D01*
X92251578Y-59596735D01*
X92254889Y-59595794D01*
X93446723Y-59275168D01*
X93450055Y-59274322D01*
X94650494Y-58987494D01*
X94653760Y-58986763D01*
X95861821Y-58733966D01*
X95865235Y-58733302D01*
X97079852Y-58514759D01*
X97083303Y-58514188D01*
X98303655Y-58330042D01*
X98307072Y-58329575D01*
X99532155Y-58179980D01*
X99535637Y-58179606D01*
X100764407Y-58064688D01*
X100767848Y-58064416D01*
X101999439Y-57984259D01*
X102002867Y-57984084D01*
X103236195Y-57938757D01*
X103239640Y-57938678D01*
X104473843Y-57928216D01*
X104477235Y-57928235D01*
X105711216Y-57952647D01*
X105714644Y-57952763D01*
X106947416Y-58012029D01*
X106950858Y-58012244D01*
X108181413Y-58106312D01*
X108184871Y-58106625D01*
X108942945Y-58186174D01*
X109007560Y-58212747D01*
X109047554Y-58270037D01*
X109054000Y-58309496D01*
X109054000Y-86770514D01*
X109034315Y-86837553D01*
X108981511Y-86883308D01*
X108912353Y-86893252D01*
X108910603Y-86892988D01*
X108888579Y-86889500D01*
X108711421Y-86889500D01*
X108653095Y-86898738D01*
X108536443Y-86917214D01*
X108367960Y-86971956D01*
X108367957Y-86971957D01*
X108210109Y-87052386D01*
X108128338Y-87111796D01*
X108066786Y-87156517D01*
X108066784Y-87156519D01*
X108066783Y-87156519D01*
X107941519Y-87281783D01*
X107941519Y-87281784D01*
X107941517Y-87281786D01*
X107903675Y-87333871D01*
X107837386Y-87425109D01*
X107756957Y-87582957D01*
X107756956Y-87582960D01*
X107702214Y-87751443D01*
X107674500Y-87926421D01*
X107674500Y-88603578D01*
X107702214Y-88778556D01*
X107756956Y-88947039D01*
X107756957Y-88947042D01*
X107825444Y-89081452D01*
X107837386Y-89104890D01*
X107941517Y-89248214D01*
X108066786Y-89373483D01*
X108210110Y-89477614D01*
X108367958Y-89558042D01*
X108461651Y-89588484D01*
X108519324Y-89627919D01*
X108546523Y-89692277D01*
X108534609Y-89761124D01*
X108487366Y-89812600D01*
X108481785Y-89815772D01*
X108447457Y-89834121D01*
X108424998Y-89843424D01*
X108260775Y-89893240D01*
X108236934Y-89897982D01*
X108060061Y-89915403D01*
X108047907Y-89916000D01*
X103212000Y-89916000D01*
X103212000Y-91162886D01*
X103192315Y-91229925D01*
X103139511Y-91275680D01*
X103102947Y-91285982D01*
X102647333Y-91341304D01*
X102647330Y-91341304D01*
X102647326Y-91341305D01*
X102251233Y-91413892D01*
X102023132Y-91455693D01*
X101406994Y-91607557D01*
X101406978Y-91607562D01*
X100801152Y-91796345D01*
X100207808Y-92021370D01*
X99629127Y-92281813D01*
X99067216Y-92576727D01*
X98524171Y-92905009D01*
X98524146Y-92905025D01*
X98001911Y-93265498D01*
X97502383Y-93656852D01*
X97502382Y-93656853D01*
X97027394Y-94077656D01*
X97027358Y-94077690D01*
X96578690Y-94526358D01*
X96578656Y-94526394D01*
X96157853Y-95001382D01*
X96157852Y-95001383D01*
X95766498Y-95500911D01*
X95406025Y-96023146D01*
X95406009Y-96023171D01*
X95077727Y-96566216D01*
X94782813Y-97128127D01*
X94689307Y-97335891D01*
X94643842Y-97388946D01*
X94576912Y-97408998D01*
X94576231Y-97409000D01*
X93551000Y-97409000D01*
X93483961Y-97389315D01*
X93438206Y-97336511D01*
X93427000Y-97285000D01*
X93427000Y-91465254D01*
X93446685Y-91398215D01*
X93463325Y-91377567D01*
X93464048Y-91376844D01*
X93464050Y-91376842D01*
X93521646Y-91263804D01*
X93521646Y-91263802D01*
X93521647Y-91263801D01*
X93536499Y-91170024D01*
X93536500Y-91170019D01*
X93536499Y-89931982D01*
X93521646Y-89838196D01*
X93514527Y-89824225D01*
X93501632Y-89755559D01*
X93527908Y-89690819D01*
X93585014Y-89650561D01*
X93651039Y-89647731D01*
X93651057Y-89647620D01*
X93651605Y-89647706D01*
X93654820Y-89647569D01*
X93659893Y-89649019D01*
X93754475Y-89663999D01*
X93754481Y-89664000D01*
X94117518Y-89663999D01*
X94211304Y-89649146D01*
X94324342Y-89591550D01*
X94414050Y-89501842D01*
X94471646Y-89388804D01*
X94471646Y-89388802D01*
X94471647Y-89388801D01*
X94471647Y-89388800D01*
X94481498Y-89326604D01*
X94511427Y-89263469D01*
X94570738Y-89226537D01*
X94640601Y-89227535D01*
X94691652Y-89258320D01*
X96352112Y-90918780D01*
X96434220Y-91000888D01*
X96534780Y-91058946D01*
X96646941Y-91089000D01*
X97899501Y-91089000D01*
X97966540Y-91108685D01*
X98012295Y-91161489D01*
X98023501Y-91213000D01*
X98023501Y-91267018D01*
X98038354Y-91360804D01*
X98095950Y-91473842D01*
X98095952Y-91473844D01*
X98095954Y-91473847D01*
X98185652Y-91563545D01*
X98185654Y-91563546D01*
X98185658Y-91563550D01*
X98298694Y-91621145D01*
X98298698Y-91621147D01*
X98392475Y-91635999D01*
X98392481Y-91636000D01*
X98755518Y-91635999D01*
X98849304Y-91621146D01*
X98962342Y-91563550D01*
X99052050Y-91473842D01*
X99109646Y-91360804D01*
X99109646Y-91360802D01*
X99109647Y-91360801D01*
X99123155Y-91275511D01*
X99124500Y-91267019D01*
X99124499Y-90028982D01*
X99109646Y-89935196D01*
X99052050Y-89822158D01*
X99052046Y-89822154D01*
X99052045Y-89822152D01*
X98962347Y-89732454D01*
X98962344Y-89732452D01*
X98962342Y-89732450D01*
X98867411Y-89684080D01*
X98849301Y-89674852D01*
X98755524Y-89660000D01*
X98392482Y-89660000D01*
X98321649Y-89671218D01*
X98298696Y-89674854D01*
X98298695Y-89674854D01*
X98289057Y-89676381D01*
X98288736Y-89674359D01*
X98231478Y-89675989D01*
X98171649Y-89639902D01*
X98140827Y-89577198D01*
X98148799Y-89507785D01*
X98152514Y-89499800D01*
X98159646Y-89485804D01*
X98174500Y-89392019D01*
X98174499Y-88153982D01*
X98159646Y-88060196D01*
X98102050Y-87947158D01*
X98102046Y-87947154D01*
X98102045Y-87947152D01*
X98101319Y-87946426D01*
X98100717Y-87945324D01*
X98096311Y-87939259D01*
X98097094Y-87938689D01*
X98067834Y-87885103D01*
X98065000Y-87858745D01*
X98065000Y-86692997D01*
X98084685Y-86625958D01*
X98137489Y-86580203D01*
X98175753Y-86569707D01*
X98177377Y-86569532D01*
X98181483Y-86569091D01*
X98316331Y-86518796D01*
X98431546Y-86432546D01*
X98517796Y-86317331D01*
X98544152Y-86246667D01*
X98586023Y-86190734D01*
X98651487Y-86166316D01*
X98660334Y-86166000D01*
X99379127Y-86166000D01*
X99446166Y-86185685D01*
X99491921Y-86238489D01*
X99495309Y-86246668D01*
X99518707Y-86309404D01*
X99518712Y-86309413D01*
X99604958Y-86424622D01*
X99604961Y-86424625D01*
X99720170Y-86510871D01*
X99720177Y-86510875D01*
X99855023Y-86561169D01*
X99855022Y-86561169D01*
X99861950Y-86561913D01*
X99914633Y-86567578D01*
X100910378Y-86567577D01*
X100969989Y-86561169D01*
X101104837Y-86510874D01*
X101220052Y-86424624D01*
X101306302Y-86309409D01*
X101356597Y-86174561D01*
X101363006Y-86114951D01*
X101363005Y-85319206D01*
X101356597Y-85259595D01*
X101309257Y-85132671D01*
X101306303Y-85124749D01*
X101306299Y-85124742D01*
X101220053Y-85009533D01*
X101220050Y-85009530D01*
X101104841Y-84923284D01*
X101104834Y-84923280D01*
X100969988Y-84872986D01*
X100969989Y-84872986D01*
X100910389Y-84866579D01*
X100910387Y-84866578D01*
X100910379Y-84866578D01*
X100910370Y-84866578D01*
X99914635Y-84866578D01*
X99914629Y-84866579D01*
X99855022Y-84872986D01*
X99720177Y-84923280D01*
X99720170Y-84923284D01*
X99604961Y-85009530D01*
X99604958Y-85009533D01*
X99518712Y-85124742D01*
X99518708Y-85124749D01*
X99489399Y-85203333D01*
X99447528Y-85259267D01*
X99382064Y-85283684D01*
X99373217Y-85284000D01*
X98660334Y-85284000D01*
X98593295Y-85264315D01*
X98547540Y-85211511D01*
X98544152Y-85203333D01*
X98517797Y-85132671D01*
X98517793Y-85132664D01*
X98431547Y-85017455D01*
X98431544Y-85017452D01*
X98316335Y-84931206D01*
X98316328Y-84931202D01*
X98181482Y-84880908D01*
X98181483Y-84880908D01*
X98121883Y-84874501D01*
X98121881Y-84874500D01*
X98121873Y-84874500D01*
X98121864Y-84874500D01*
X97126129Y-84874500D01*
X97126123Y-84874501D01*
X97066516Y-84880908D01*
X96931671Y-84931202D01*
X96931664Y-84931206D01*
X96816455Y-85017452D01*
X96816452Y-85017455D01*
X96730206Y-85132664D01*
X96730202Y-85132671D01*
X96679908Y-85267517D01*
X96673501Y-85327116D01*
X96673500Y-85327135D01*
X96673500Y-86122870D01*
X96673501Y-86122876D01*
X96679908Y-86182483D01*
X96730202Y-86317328D01*
X96730206Y-86317335D01*
X96816452Y-86432544D01*
X96816455Y-86432547D01*
X96931664Y-86518793D01*
X96931671Y-86518797D01*
X96976618Y-86535561D01*
X97066517Y-86569091D01*
X97072256Y-86569708D01*
X97136805Y-86596445D01*
X97176654Y-86653837D01*
X97183000Y-86692997D01*
X97183000Y-87858745D01*
X97163315Y-87925784D01*
X97146681Y-87946426D01*
X97145954Y-87947152D01*
X97145951Y-87947157D01*
X97088352Y-88060198D01*
X97073500Y-88153975D01*
X97073500Y-89392017D01*
X97082128Y-89446491D01*
X97088354Y-89485804D01*
X97145950Y-89598842D01*
X97145952Y-89598844D01*
X97145954Y-89598847D01*
X97235652Y-89688545D01*
X97235654Y-89688546D01*
X97235658Y-89688550D01*
X97345699Y-89744619D01*
X97348698Y-89746147D01*
X97442475Y-89760999D01*
X97442481Y-89761000D01*
X97805518Y-89760999D01*
X97899304Y-89746146D01*
X97899305Y-89746145D01*
X97908943Y-89744619D01*
X97909263Y-89746643D01*
X97966500Y-89745004D01*
X98026335Y-89781080D01*
X98057168Y-89843779D01*
X98049209Y-89913193D01*
X98045472Y-89921226D01*
X98038353Y-89935197D01*
X98038352Y-89935198D01*
X98023500Y-90028975D01*
X98023500Y-90083000D01*
X98003815Y-90150039D01*
X97951011Y-90195794D01*
X97899500Y-90207000D01*
X96939030Y-90207000D01*
X96871991Y-90187315D01*
X96851349Y-90170681D01*
X95003781Y-88323113D01*
X95003776Y-88323109D01*
X94903222Y-88265055D01*
X94903221Y-88265054D01*
X94865833Y-88255036D01*
X94791059Y-88235000D01*
X94791057Y-88235000D01*
X94610499Y-88235000D01*
X94543460Y-88215315D01*
X94497705Y-88162511D01*
X94486499Y-88111000D01*
X94486499Y-88056982D01*
X94486498Y-88056975D01*
X94471646Y-87963196D01*
X94414050Y-87850158D01*
X94414046Y-87850154D01*
X94414045Y-87850152D01*
X94324347Y-87760454D01*
X94324344Y-87760452D01*
X94324342Y-87760450D01*
X94233201Y-87714011D01*
X94211301Y-87702852D01*
X94117524Y-87688000D01*
X93754482Y-87688000D01*
X93673519Y-87700823D01*
X93660696Y-87702854D01*
X93547658Y-87760450D01*
X93547657Y-87760451D01*
X93547652Y-87760454D01*
X93457954Y-87850152D01*
X93457951Y-87850157D01*
X93400352Y-87963198D01*
X93385500Y-88056975D01*
X93385500Y-89295017D01*
X93390503Y-89326604D01*
X93400354Y-89388804D01*
X93401995Y-89392024D01*
X93407472Y-89402773D01*
X93420367Y-89471442D01*
X93394090Y-89536182D01*
X93336983Y-89576438D01*
X93270960Y-89579267D01*
X93270943Y-89579380D01*
X93270389Y-89579292D01*
X93267177Y-89579430D01*
X93262109Y-89577980D01*
X93167524Y-89563000D01*
X92804482Y-89563000D01*
X92733649Y-89574218D01*
X92710696Y-89577854D01*
X92710695Y-89577854D01*
X92701057Y-89579381D01*
X92700736Y-89577359D01*
X92643478Y-89578989D01*
X92583649Y-89542902D01*
X92552827Y-89480198D01*
X92560799Y-89410785D01*
X92564514Y-89402800D01*
X92571646Y-89388804D01*
X92586500Y-89295019D01*
X92586499Y-88056982D01*
X92571646Y-87963196D01*
X92514050Y-87850158D01*
X92514046Y-87850154D01*
X92514045Y-87850152D01*
X92513319Y-87849426D01*
X92512717Y-87848324D01*
X92508311Y-87842259D01*
X92509094Y-87841689D01*
X92479834Y-87788103D01*
X92477000Y-87761745D01*
X92477000Y-87483030D01*
X92496685Y-87415991D01*
X92513319Y-87395349D01*
X93071115Y-86837553D01*
X93710432Y-86198235D01*
X93771753Y-86164752D01*
X93841445Y-86169736D01*
X93897378Y-86211608D01*
X93914293Y-86242585D01*
X93936202Y-86301328D01*
X93936206Y-86301335D01*
X94022452Y-86416544D01*
X94022455Y-86416547D01*
X94137664Y-86502793D01*
X94137671Y-86502797D01*
X94272517Y-86553091D01*
X94272516Y-86553091D01*
X94279444Y-86553835D01*
X94332127Y-86559500D01*
X95327872Y-86559499D01*
X95387483Y-86553091D01*
X95522331Y-86502796D01*
X95637546Y-86416546D01*
X95723796Y-86301331D01*
X95774091Y-86166483D01*
X95780500Y-86106873D01*
X95780499Y-85311128D01*
X95774091Y-85251517D01*
X95729764Y-85132671D01*
X95723797Y-85116671D01*
X95723793Y-85116664D01*
X95637547Y-85001455D01*
X95637544Y-85001452D01*
X95522335Y-84915206D01*
X95522328Y-84915202D01*
X95387482Y-84864908D01*
X95387483Y-84864908D01*
X95327883Y-84858501D01*
X95327881Y-84858500D01*
X95327873Y-84858500D01*
X95327864Y-84858500D01*
X94332129Y-84858500D01*
X94332123Y-84858501D01*
X94272516Y-84864908D01*
X94137671Y-84915202D01*
X94137664Y-84915206D01*
X94022455Y-85001452D01*
X94022452Y-85001455D01*
X93936206Y-85116664D01*
X93936202Y-85116671D01*
X93909848Y-85187333D01*
X93867977Y-85243266D01*
X93802513Y-85267684D01*
X93793666Y-85268000D01*
X93517941Y-85268000D01*
X93405781Y-85298053D01*
X93405778Y-85298054D01*
X93305223Y-85356110D01*
X93305217Y-85356114D01*
X91683113Y-86978218D01*
X91683109Y-86978223D01*
X91625055Y-87078777D01*
X91625054Y-87078778D01*
X91595000Y-87190942D01*
X91595000Y-87761745D01*
X91575315Y-87828784D01*
X91558681Y-87849426D01*
X91557954Y-87850152D01*
X91557951Y-87850157D01*
X91500352Y-87963198D01*
X91485500Y-88056975D01*
X91485500Y-88111000D01*
X91465815Y-88178039D01*
X91413011Y-88223794D01*
X91361500Y-88235000D01*
X90550941Y-88235000D01*
X90438781Y-88265053D01*
X90438778Y-88265054D01*
X90338223Y-88323110D01*
X90338217Y-88323114D01*
X89759149Y-88902181D01*
X89697826Y-88935666D01*
X89671468Y-88938500D01*
X88998129Y-88938500D01*
X88998123Y-88938501D01*
X88938516Y-88944908D01*
X88803671Y-88995202D01*
X88803664Y-88995206D01*
X88688455Y-89081452D01*
X88688452Y-89081455D01*
X88602206Y-89196664D01*
X88602202Y-89196671D01*
X88551908Y-89331517D01*
X88545501Y-89391116D01*
X88545500Y-89391135D01*
X88545500Y-90186870D01*
X88545501Y-90186876D01*
X88551908Y-90246483D01*
X88602202Y-90381328D01*
X88602206Y-90381335D01*
X88688452Y-90496544D01*
X88688455Y-90496547D01*
X88803664Y-90582793D01*
X88803671Y-90582797D01*
X88938517Y-90633091D01*
X88938516Y-90633091D01*
X88945444Y-90633835D01*
X88998127Y-90639500D01*
X89993872Y-90639499D01*
X90053483Y-90633091D01*
X90188331Y-90582796D01*
X90303546Y-90496546D01*
X90389796Y-90381331D01*
X90440091Y-90246483D01*
X90446500Y-90186873D01*
X90446499Y-89513529D01*
X90466183Y-89446491D01*
X90482818Y-89425849D01*
X90755349Y-89153319D01*
X90816672Y-89119834D01*
X90843030Y-89117000D01*
X91361501Y-89117000D01*
X91428540Y-89136685D01*
X91474295Y-89189489D01*
X91485501Y-89241000D01*
X91485501Y-89295018D01*
X91500354Y-89388804D01*
X91557950Y-89501842D01*
X91557952Y-89501844D01*
X91557954Y-89501847D01*
X91647652Y-89591545D01*
X91647654Y-89591546D01*
X91647658Y-89591550D01*
X91757601Y-89647569D01*
X91760698Y-89649147D01*
X91854475Y-89663999D01*
X91854481Y-89664000D01*
X92217518Y-89663999D01*
X92311304Y-89649146D01*
X92311305Y-89649145D01*
X92320943Y-89647619D01*
X92321263Y-89649643D01*
X92378500Y-89648004D01*
X92438335Y-89684080D01*
X92469168Y-89746779D01*
X92461209Y-89816193D01*
X92457472Y-89824226D01*
X92450353Y-89838197D01*
X92450352Y-89838198D01*
X92435500Y-89931975D01*
X92435500Y-91170017D01*
X92446292Y-91238157D01*
X92450354Y-91263804D01*
X92507950Y-91376842D01*
X92507951Y-91376843D01*
X92507951Y-91376844D01*
X92508675Y-91377567D01*
X92509274Y-91378663D01*
X92513689Y-91384741D01*
X92512904Y-91385311D01*
X92542164Y-91438888D01*
X92545000Y-91465254D01*
X92545000Y-97285000D01*
X92525315Y-97352039D01*
X92472511Y-97397794D01*
X92421000Y-97409000D01*
X82638000Y-97409000D01*
X82562786Y-97409000D01*
X82621212Y-91391135D01*
X88545500Y-91391135D01*
X88545500Y-92186870D01*
X88545501Y-92186876D01*
X88551908Y-92246483D01*
X88602202Y-92381328D01*
X88602206Y-92381335D01*
X88688452Y-92496544D01*
X88688455Y-92496547D01*
X88803664Y-92582793D01*
X88803671Y-92582797D01*
X88938517Y-92633091D01*
X88938516Y-92633091D01*
X88945444Y-92633835D01*
X88998127Y-92639500D01*
X89993872Y-92639499D01*
X90053483Y-92633091D01*
X90188331Y-92582796D01*
X90303546Y-92496546D01*
X90389796Y-92381331D01*
X90416152Y-92310667D01*
X90458023Y-92254734D01*
X90523487Y-92230316D01*
X90532334Y-92230000D01*
X90599114Y-92230000D01*
X90666153Y-92249685D01*
X90675213Y-92256986D01*
X90675539Y-92256562D01*
X90681988Y-92261511D01*
X90807511Y-92333982D01*
X90807512Y-92333982D01*
X90807515Y-92333984D01*
X90947525Y-92371500D01*
X90947528Y-92371500D01*
X91092472Y-92371500D01*
X91092475Y-92371500D01*
X91232485Y-92333984D01*
X91358015Y-92261509D01*
X91460509Y-92159015D01*
X91532984Y-92033485D01*
X91570500Y-91893475D01*
X91570500Y-91748525D01*
X91532984Y-91608515D01*
X91532431Y-91607558D01*
X91460511Y-91482988D01*
X91460506Y-91482982D01*
X91358017Y-91380493D01*
X91358011Y-91380488D01*
X91232488Y-91308017D01*
X91232489Y-91308017D01*
X91221006Y-91304940D01*
X91092475Y-91270500D01*
X90947525Y-91270500D01*
X90807515Y-91308016D01*
X90767034Y-91331387D01*
X90705035Y-91348000D01*
X90532334Y-91348000D01*
X90465295Y-91328315D01*
X90419540Y-91275511D01*
X90416152Y-91267333D01*
X90389797Y-91196671D01*
X90389793Y-91196664D01*
X90303547Y-91081455D01*
X90303544Y-91081452D01*
X90188335Y-90995206D01*
X90188328Y-90995202D01*
X90053482Y-90944908D01*
X90053483Y-90944908D01*
X89993883Y-90938501D01*
X89993881Y-90938500D01*
X89993873Y-90938500D01*
X89993864Y-90938500D01*
X88998129Y-90938500D01*
X88998123Y-90938501D01*
X88938516Y-90944908D01*
X88803671Y-90995202D01*
X88803664Y-90995206D01*
X88688455Y-91081452D01*
X88688452Y-91081455D01*
X88602206Y-91196664D01*
X88602202Y-91196671D01*
X88551908Y-91331517D01*
X88545501Y-91391116D01*
X88545500Y-91391135D01*
X82621212Y-91391135D01*
X82638000Y-89662000D01*
X74764000Y-89662000D01*
X68668000Y-95758000D01*
X68668000Y-97790000D01*
X68287000Y-97409000D01*
X68032999Y-97409000D01*
X67652000Y-97789999D01*
X67652000Y-108975907D01*
X67651403Y-108988061D01*
X67633982Y-109164934D01*
X67629240Y-109188775D01*
X67579424Y-109352998D01*
X67570121Y-109375456D01*
X67489227Y-109526798D01*
X67475722Y-109547010D01*
X67366854Y-109679666D01*
X67349666Y-109696854D01*
X67217010Y-109805722D01*
X67196798Y-109819227D01*
X67045456Y-109900121D01*
X67022998Y-109909424D01*
X66858775Y-109959240D01*
X66834934Y-109963982D01*
X66658061Y-109981403D01*
X66645907Y-109982000D01*
X44103883Y-109982000D01*
X44036844Y-109962315D01*
X43991089Y-109909511D01*
X43980954Y-109874254D01*
X43862205Y-108975995D01*
X43861856Y-108973090D01*
X43706219Y-107531421D01*
X43705947Y-107528582D01*
X43584806Y-106083618D01*
X43584594Y-106080663D01*
X43498018Y-104633270D01*
X43497877Y-104630310D01*
X43487786Y-104348928D01*
X43445912Y-103181278D01*
X43445842Y-103178350D01*
X43444133Y-103035341D01*
X43439723Y-102666248D01*
X43458605Y-102598979D01*
X43510859Y-102552596D01*
X43579893Y-102541827D01*
X43643791Y-102570091D01*
X43680755Y-102623812D01*
X43729133Y-102762068D01*
X43860733Y-103035338D01*
X43860735Y-103035341D01*
X44022108Y-103292164D01*
X44211221Y-103529304D01*
X44425696Y-103743779D01*
X44662836Y-103932892D01*
X44919659Y-104094265D01*
X45192935Y-104225868D01*
X45309221Y-104266558D01*
X45479216Y-104326042D01*
X45479228Y-104326046D01*
X45774937Y-104393540D01*
X45774946Y-104393541D01*
X45774951Y-104393542D01*
X45975874Y-104416180D01*
X46076337Y-104427499D01*
X46076340Y-104427500D01*
X46076343Y-104427500D01*
X46379660Y-104427500D01*
X46379661Y-104427499D01*
X46533694Y-104410144D01*
X46681048Y-104393542D01*
X46681051Y-104393541D01*
X46681063Y-104393540D01*
X46976772Y-104326046D01*
X47263065Y-104225868D01*
X47536341Y-104094265D01*
X47793164Y-103932892D01*
X48030304Y-103743779D01*
X48244779Y-103529304D01*
X48433892Y-103292164D01*
X48595265Y-103035341D01*
X48726868Y-102762065D01*
X48827046Y-102475772D01*
X48894540Y-102180063D01*
X48928500Y-101878657D01*
X48928500Y-101575343D01*
X48909838Y-101409708D01*
X48894542Y-101273951D01*
X48894541Y-101273946D01*
X48894540Y-101273937D01*
X48827046Y-100978228D01*
X48726868Y-100691935D01*
X48595265Y-100418659D01*
X48433892Y-100161836D01*
X48244779Y-99924696D01*
X48030304Y-99710221D01*
X47793164Y-99521108D01*
X47536341Y-99359735D01*
X47536338Y-99359733D01*
X47263068Y-99228133D01*
X46976783Y-99127957D01*
X46976771Y-99127953D01*
X46748556Y-99075864D01*
X46681063Y-99060460D01*
X46681060Y-99060459D01*
X46681048Y-99060457D01*
X46379663Y-99026500D01*
X46379657Y-99026500D01*
X46076343Y-99026500D01*
X46076336Y-99026500D01*
X45774951Y-99060457D01*
X45774937Y-99060460D01*
X45479228Y-99127953D01*
X45479216Y-99127957D01*
X45192931Y-99228133D01*
X44919661Y-99359733D01*
X44662837Y-99521107D01*
X44425696Y-99710220D01*
X44211220Y-99924696D01*
X44022107Y-100161837D01*
X43860733Y-100418661D01*
X43729133Y-100691931D01*
X43680757Y-100830180D01*
X43640035Y-100886956D01*
X43575082Y-100912703D01*
X43506521Y-100899246D01*
X43456118Y-100850859D01*
X43439725Y-100787745D01*
X43445844Y-100275614D01*
X43445915Y-100272687D01*
X43449891Y-100161837D01*
X43497879Y-98823686D01*
X43498020Y-98820729D01*
X43519274Y-98465389D01*
X43584595Y-97373331D01*
X43584807Y-97370381D01*
X43610801Y-97060327D01*
X43705949Y-95925409D01*
X43706219Y-95922586D01*
X43861861Y-94480864D01*
X43862204Y-94478014D01*
X43935781Y-93921448D01*
X46816500Y-93921448D01*
X46816500Y-94102551D01*
X46844829Y-94281410D01*
X46900787Y-94453636D01*
X46900788Y-94453639D01*
X46983006Y-94614997D01*
X47089441Y-94761494D01*
X47089445Y-94761499D01*
X47217500Y-94889554D01*
X47217505Y-94889558D01*
X47345287Y-94982396D01*
X47364006Y-94995996D01*
X47469484Y-95049740D01*
X47525360Y-95078211D01*
X47525363Y-95078212D01*
X47571976Y-95093357D01*
X47697591Y-95134171D01*
X47780429Y-95147291D01*
X47876449Y-95162500D01*
X47876454Y-95162500D01*
X48057551Y-95162500D01*
X48144259Y-95148765D01*
X48236409Y-95134171D01*
X48408639Y-95078211D01*
X48569994Y-94995996D01*
X48716501Y-94889553D01*
X48844553Y-94761501D01*
X48950996Y-94614994D01*
X49033211Y-94453639D01*
X49089171Y-94281409D01*
X49103765Y-94189259D01*
X49117500Y-94102551D01*
X49117500Y-93921448D01*
X49090288Y-93749646D01*
X49089171Y-93742591D01*
X49033211Y-93570361D01*
X49033211Y-93570360D01*
X49004740Y-93514484D01*
X48950996Y-93409006D01*
X48937396Y-93390287D01*
X48844558Y-93262505D01*
X48844554Y-93262500D01*
X48716499Y-93134445D01*
X48716494Y-93134441D01*
X48569997Y-93028006D01*
X48569996Y-93028005D01*
X48569994Y-93028004D01*
X48518300Y-93001664D01*
X48408639Y-92945788D01*
X48408636Y-92945787D01*
X48236410Y-92889829D01*
X48057551Y-92861500D01*
X48057546Y-92861500D01*
X47876454Y-92861500D01*
X47876449Y-92861500D01*
X47697589Y-92889829D01*
X47525363Y-92945787D01*
X47525360Y-92945788D01*
X47364002Y-93028006D01*
X47217505Y-93134441D01*
X47217500Y-93134445D01*
X47089445Y-93262500D01*
X47089441Y-93262505D01*
X46983006Y-93409002D01*
X46900788Y-93570360D01*
X46900787Y-93570363D01*
X46844829Y-93742589D01*
X46816500Y-93921448D01*
X43935781Y-93921448D01*
X44052238Y-93040525D01*
X44052656Y-93037628D01*
X44054164Y-93028004D01*
X44276984Y-91605101D01*
X44277474Y-91602199D01*
X44535980Y-90175378D01*
X44536516Y-90172607D01*
X44829059Y-88752294D01*
X44829661Y-88749540D01*
X45156043Y-87336691D01*
X45156716Y-87333927D01*
X45516766Y-85929277D01*
X45517529Y-85926445D01*
X45678338Y-85356114D01*
X45911033Y-84530829D01*
X45911834Y-84528111D01*
X46338841Y-83141434D01*
X46339254Y-83140125D01*
X46344192Y-83124747D01*
X46359155Y-83078142D01*
X46365593Y-82946515D01*
X46337743Y-82817707D01*
X46298571Y-82741486D01*
X48965656Y-82741486D01*
X48965656Y-82741488D01*
X48965656Y-82741489D01*
X48972173Y-82840931D01*
X49016250Y-82930309D01*
X49072260Y-82979429D01*
X50587240Y-83854103D01*
X50657784Y-83878049D01*
X50711556Y-83874525D01*
X70403500Y-83874525D01*
X70403500Y-84019475D01*
X70432586Y-84128023D01*
X70441017Y-84159488D01*
X70513488Y-84285011D01*
X70513490Y-84285013D01*
X70513491Y-84285015D01*
X70615985Y-84387509D01*
X70615986Y-84387510D01*
X70615988Y-84387511D01*
X70741511Y-84459982D01*
X70741512Y-84459982D01*
X70741515Y-84459984D01*
X70881525Y-84497500D01*
X70881528Y-84497500D01*
X71026472Y-84497500D01*
X71026475Y-84497500D01*
X71166485Y-84459984D01*
X71292015Y-84387509D01*
X71394509Y-84285015D01*
X71466984Y-84159485D01*
X71504500Y-84019475D01*
X71504500Y-83874525D01*
X71466984Y-83734515D01*
X71466982Y-83734513D01*
X71464880Y-83726665D01*
X71465865Y-83726400D01*
X71458500Y-83689368D01*
X71458500Y-79127332D01*
X71478185Y-79060293D01*
X71494815Y-79039655D01*
X71763562Y-78770907D01*
X71794956Y-78749932D01*
X71794446Y-78749048D01*
X71818975Y-78734886D01*
X71927015Y-78672509D01*
X71952319Y-78647205D01*
X72013642Y-78613720D01*
X72083334Y-78618704D01*
X72139267Y-78660576D01*
X72163684Y-78726040D01*
X72164000Y-78734886D01*
X72164000Y-87005609D01*
X72147387Y-87067609D01*
X72092017Y-87163511D01*
X72092016Y-87163515D01*
X72054500Y-87303525D01*
X72054500Y-87448475D01*
X72090535Y-87582957D01*
X72092017Y-87588488D01*
X72164488Y-87714011D01*
X72164490Y-87714013D01*
X72164491Y-87714015D01*
X72266985Y-87816509D01*
X72266986Y-87816510D01*
X72266988Y-87816511D01*
X72392511Y-87888982D01*
X72392512Y-87888982D01*
X72392515Y-87888984D01*
X72532525Y-87926500D01*
X72532528Y-87926500D01*
X72677472Y-87926500D01*
X72677475Y-87926500D01*
X72817485Y-87888984D01*
X72943015Y-87816509D01*
X73045509Y-87714015D01*
X73117984Y-87588485D01*
X73155500Y-87448475D01*
X73155500Y-87303525D01*
X73117984Y-87163515D01*
X73113944Y-87156517D01*
X73062613Y-87067609D01*
X73046000Y-87005609D01*
X73046000Y-83430025D01*
X98534000Y-83430025D01*
X98534000Y-83574975D01*
X98571516Y-83714985D01*
X98571517Y-83714988D01*
X98643988Y-83840511D01*
X98643990Y-83840513D01*
X98643991Y-83840515D01*
X98746485Y-83943009D01*
X98746486Y-83943010D01*
X98746488Y-83943011D01*
X98872011Y-84015482D01*
X98872012Y-84015482D01*
X98872015Y-84015484D01*
X98979233Y-84044213D01*
X99022627Y-84065614D01*
X99028295Y-84069963D01*
X99028298Y-84069966D01*
X99128858Y-84128024D01*
X99241019Y-84158078D01*
X99357137Y-84158078D01*
X99376172Y-84158078D01*
X99443211Y-84177763D01*
X99488966Y-84230567D01*
X99492354Y-84238745D01*
X99518708Y-84309406D01*
X99518712Y-84309413D01*
X99604958Y-84424622D01*
X99604961Y-84424625D01*
X99720170Y-84510871D01*
X99720177Y-84510875D01*
X99855023Y-84561169D01*
X99855022Y-84561169D01*
X99861950Y-84561913D01*
X99914633Y-84567578D01*
X100910378Y-84567577D01*
X100969989Y-84561169D01*
X101104837Y-84510874D01*
X101220052Y-84424624D01*
X101306302Y-84309409D01*
X101356597Y-84174561D01*
X101363006Y-84114951D01*
X101363005Y-83319206D01*
X101356597Y-83259595D01*
X101321124Y-83164488D01*
X101306303Y-83124749D01*
X101306299Y-83124742D01*
X101220053Y-83009533D01*
X101220050Y-83009530D01*
X101104841Y-82923284D01*
X101104834Y-82923280D01*
X100969988Y-82872986D01*
X100969989Y-82872986D01*
X100910389Y-82866579D01*
X100910387Y-82866578D01*
X100910379Y-82866578D01*
X100910370Y-82866578D01*
X99914635Y-82866578D01*
X99914629Y-82866579D01*
X99855022Y-82872986D01*
X99720177Y-82923280D01*
X99720170Y-82923284D01*
X99604961Y-83009530D01*
X99588437Y-83031604D01*
X99532503Y-83073474D01*
X99462811Y-83078458D01*
X99427171Y-83064679D01*
X99296988Y-82989517D01*
X99296989Y-82989517D01*
X99268894Y-82981989D01*
X99156975Y-82952000D01*
X99012025Y-82952000D01*
X98900106Y-82981989D01*
X98872011Y-82989517D01*
X98746488Y-83061988D01*
X98746482Y-83061993D01*
X98643993Y-83164482D01*
X98643988Y-83164488D01*
X98571517Y-83290011D01*
X98571516Y-83290015D01*
X98534000Y-83430025D01*
X73046000Y-83430025D01*
X73046000Y-81049530D01*
X105063500Y-81049530D01*
X105063500Y-81256469D01*
X105103868Y-81459412D01*
X105103870Y-81459420D01*
X105183058Y-81650596D01*
X105298024Y-81822657D01*
X105444342Y-81968975D01*
X105444345Y-81968977D01*
X105616402Y-82083941D01*
X105807580Y-82163130D01*
X106010530Y-82203499D01*
X106010534Y-82203500D01*
X106010535Y-82203500D01*
X107017466Y-82203500D01*
X107017467Y-82203499D01*
X107220420Y-82163130D01*
X107411598Y-82083941D01*
X107583655Y-81968977D01*
X107729977Y-81822655D01*
X107844941Y-81650598D01*
X107924130Y-81459420D01*
X107964500Y-81256465D01*
X107964500Y-81049535D01*
X107924130Y-80846580D01*
X107844941Y-80655402D01*
X107729977Y-80483345D01*
X107729975Y-80483342D01*
X107583657Y-80337024D01*
X107466458Y-80258715D01*
X107411598Y-80222059D01*
X107405369Y-80219479D01*
X107220420Y-80142870D01*
X107220412Y-80142868D01*
X107017469Y-80102500D01*
X107017465Y-80102500D01*
X106010535Y-80102500D01*
X106010530Y-80102500D01*
X105807587Y-80142868D01*
X105807579Y-80142870D01*
X105616403Y-80222058D01*
X105444342Y-80337024D01*
X105298024Y-80483342D01*
X105183058Y-80655403D01*
X105103870Y-80846579D01*
X105103868Y-80846587D01*
X105063500Y-81049530D01*
X73046000Y-81049530D01*
X73046000Y-77713389D01*
X73062612Y-77651391D01*
X73117984Y-77555485D01*
X73155500Y-77415475D01*
X73155500Y-77270525D01*
X73117984Y-77130515D01*
X73113933Y-77123499D01*
X73045511Y-77004988D01*
X73045506Y-77004982D01*
X72943017Y-76902493D01*
X72943011Y-76902488D01*
X72817488Y-76830017D01*
X72817489Y-76830017D01*
X72806006Y-76826940D01*
X72677475Y-76792500D01*
X72532525Y-76792500D01*
X72403993Y-76826940D01*
X72392511Y-76830017D01*
X72266988Y-76902488D01*
X72266982Y-76902493D01*
X72164493Y-77004982D01*
X72164488Y-77004988D01*
X72092017Y-77130511D01*
X72092016Y-77130515D01*
X72054500Y-77270525D01*
X72054500Y-77415475D01*
X72092016Y-77555485D01*
X72147387Y-77651391D01*
X72164000Y-77713389D01*
X72164000Y-77729114D01*
X72144315Y-77796153D01*
X72091511Y-77841908D01*
X72022353Y-77851852D01*
X71958797Y-77822827D01*
X71952319Y-77816795D01*
X71927017Y-77791493D01*
X71927011Y-77791488D01*
X71801488Y-77719017D01*
X71801489Y-77719017D01*
X71780485Y-77713389D01*
X71661475Y-77681500D01*
X71516525Y-77681500D01*
X71397515Y-77713389D01*
X71376511Y-77719017D01*
X71250988Y-77791488D01*
X71250982Y-77791493D01*
X71148493Y-77893982D01*
X71148491Y-77893985D01*
X71076019Y-78019511D01*
X71071953Y-78026553D01*
X71071070Y-78026043D01*
X71050092Y-78057435D01*
X70550300Y-78557228D01*
X70550298Y-78557230D01*
X70530829Y-78590952D01*
X70522600Y-78605207D01*
X70483881Y-78672270D01*
X70449500Y-78800581D01*
X70449500Y-78800583D01*
X70449500Y-83689368D01*
X70448365Y-83695069D01*
X70445515Y-83720553D01*
X70442599Y-83731771D01*
X70441016Y-83734515D01*
X70403500Y-83874525D01*
X50711556Y-83874525D01*
X50757226Y-83871532D01*
X50846604Y-83827455D01*
X50895724Y-83771445D01*
X51323679Y-83030204D01*
X51374246Y-82981989D01*
X51431066Y-82968205D01*
X54977711Y-82968205D01*
X54977714Y-82968205D01*
X55106025Y-82933824D01*
X55148132Y-82909513D01*
X55221065Y-82867406D01*
X59317562Y-78770907D01*
X59348956Y-78749932D01*
X59348446Y-78749048D01*
X59372975Y-78734886D01*
X59481015Y-78672509D01*
X59583509Y-78570015D01*
X59655984Y-78444485D01*
X59693500Y-78304475D01*
X59693500Y-78159525D01*
X59655984Y-78019515D01*
X59631833Y-77977685D01*
X59583511Y-77893988D01*
X59583506Y-77893982D01*
X59481017Y-77791493D01*
X59481011Y-77791488D01*
X59355488Y-77719017D01*
X59355489Y-77719017D01*
X59334485Y-77713389D01*
X59215475Y-77681500D01*
X59070525Y-77681500D01*
X58951515Y-77713389D01*
X58930511Y-77719017D01*
X58804988Y-77791488D01*
X58804982Y-77791493D01*
X58702493Y-77893982D01*
X58702491Y-77893985D01*
X58630019Y-78019511D01*
X58625953Y-78026553D01*
X58625070Y-78026043D01*
X58604092Y-78057435D01*
X54738643Y-81922886D01*
X54677320Y-81956371D01*
X54650962Y-81959205D01*
X51740406Y-81959205D01*
X51678406Y-81942592D01*
X50172764Y-81073309D01*
X50172762Y-81073308D01*
X50172760Y-81073307D01*
X50165874Y-81070969D01*
X50102217Y-81049361D01*
X50102216Y-81049361D01*
X50052495Y-81052619D01*
X50002773Y-81055878D01*
X49913396Y-81099955D01*
X49913395Y-81099955D01*
X49864274Y-81155967D01*
X48989604Y-82670940D01*
X48989600Y-82670950D01*
X48965656Y-82741486D01*
X46298571Y-82741486D01*
X46277505Y-82700496D01*
X46231078Y-82649295D01*
X46188983Y-82602869D01*
X46188982Y-82602868D01*
X46087740Y-82537623D01*
X46087738Y-82537621D01*
X46078215Y-82531483D01*
X46078211Y-82531482D01*
X46078210Y-82531481D01*
X45957255Y-82492646D01*
X45957230Y-82492637D01*
X39098627Y-80290581D01*
X38999376Y-80258715D01*
X38941563Y-80219479D01*
X38923602Y-80177389D01*
X50549500Y-80177389D01*
X50549500Y-80350610D01*
X50570522Y-80483342D01*
X50576598Y-80521701D01*
X50630127Y-80686445D01*
X50708768Y-80840788D01*
X50810586Y-80980928D01*
X50933072Y-81103414D01*
X51073212Y-81205232D01*
X51227555Y-81283873D01*
X51392299Y-81337402D01*
X51563389Y-81364500D01*
X51563390Y-81364500D01*
X51736610Y-81364500D01*
X51736611Y-81364500D01*
X51907701Y-81337402D01*
X52072445Y-81283873D01*
X52226788Y-81205232D01*
X52366928Y-81103414D01*
X52489414Y-80980928D01*
X52591232Y-80840788D01*
X52669873Y-80686445D01*
X52723402Y-80521701D01*
X52750500Y-80350611D01*
X52750500Y-80177389D01*
X52723402Y-80006299D01*
X52669873Y-79841555D01*
X52591232Y-79687212D01*
X52489414Y-79547072D01*
X52366928Y-79424586D01*
X52226788Y-79322768D01*
X52072445Y-79244127D01*
X51907701Y-79190598D01*
X51907699Y-79190597D01*
X51907698Y-79190597D01*
X51776271Y-79169781D01*
X51736611Y-79163500D01*
X51563389Y-79163500D01*
X51523728Y-79169781D01*
X51392302Y-79190597D01*
X51227552Y-79244128D01*
X51073211Y-79322768D01*
X50993256Y-79380859D01*
X50933072Y-79424586D01*
X50933070Y-79424588D01*
X50933069Y-79424588D01*
X50810588Y-79547069D01*
X50810588Y-79547070D01*
X50810586Y-79547072D01*
X50766859Y-79607256D01*
X50708768Y-79687211D01*
X50630128Y-79841552D01*
X50576597Y-80006302D01*
X50549500Y-80177389D01*
X38923602Y-80177389D01*
X38914140Y-80155216D01*
X38919628Y-80101490D01*
X39006148Y-79841552D01*
X39184215Y-79306574D01*
X39185069Y-79304100D01*
X39658167Y-77977685D01*
X51819500Y-77977685D01*
X51819500Y-78150906D01*
X51843822Y-78304475D01*
X51846598Y-78321997D01*
X51900127Y-78486741D01*
X51978768Y-78641084D01*
X52080586Y-78781224D01*
X52203072Y-78903710D01*
X52343212Y-79005528D01*
X52497555Y-79084169D01*
X52662299Y-79137698D01*
X52833389Y-79164796D01*
X52833390Y-79164796D01*
X53006610Y-79164796D01*
X53006611Y-79164796D01*
X53177701Y-79137698D01*
X53342445Y-79084169D01*
X53496788Y-79005528D01*
X53636928Y-78903710D01*
X53759414Y-78781224D01*
X53861232Y-78641084D01*
X53939873Y-78486741D01*
X53993402Y-78321997D01*
X54020500Y-78150907D01*
X54020500Y-77977685D01*
X53993402Y-77806595D01*
X53939873Y-77641851D01*
X53861232Y-77487508D01*
X53759414Y-77347368D01*
X53636928Y-77224882D01*
X53496788Y-77123064D01*
X53342445Y-77044423D01*
X53177701Y-76990894D01*
X53177699Y-76990893D01*
X53177698Y-76990893D01*
X53046271Y-76970077D01*
X53006611Y-76963796D01*
X52833389Y-76963796D01*
X52793728Y-76970077D01*
X52662302Y-76990893D01*
X52497552Y-77044424D01*
X52343211Y-77123064D01*
X52263256Y-77181155D01*
X52203072Y-77224882D01*
X52203070Y-77224884D01*
X52203069Y-77224884D01*
X52080588Y-77347365D01*
X52080588Y-77347366D01*
X52080586Y-77347368D01*
X52036859Y-77407552D01*
X51978768Y-77487507D01*
X51900128Y-77641848D01*
X51846597Y-77806598D01*
X51819500Y-77977685D01*
X39658167Y-77977685D01*
X39676350Y-77926705D01*
X39677182Y-77924450D01*
X40197680Y-76557820D01*
X40198640Y-76555380D01*
X40240703Y-76451635D01*
X40655319Y-75429025D01*
X80373000Y-75429025D01*
X80373000Y-75573975D01*
X80397000Y-75663543D01*
X80410517Y-75713988D01*
X80482988Y-75839511D01*
X80482990Y-75839513D01*
X80482991Y-75839515D01*
X80585485Y-75942009D01*
X80585486Y-75942010D01*
X80585488Y-75942011D01*
X80711011Y-76014482D01*
X80711012Y-76014482D01*
X80711015Y-76014484D01*
X80817987Y-76043147D01*
X80873572Y-76075240D01*
X84413758Y-79615426D01*
X84445851Y-79671012D01*
X84474514Y-79777981D01*
X84474517Y-79777988D01*
X84546988Y-79903511D01*
X84546990Y-79903513D01*
X84546991Y-79903515D01*
X84649485Y-80006009D01*
X84649486Y-80006010D01*
X84649488Y-80006011D01*
X84775011Y-80078482D01*
X84775012Y-80078482D01*
X84775015Y-80078484D01*
X84915025Y-80116000D01*
X84915028Y-80116000D01*
X85059972Y-80116000D01*
X85059975Y-80116000D01*
X85199985Y-80078484D01*
X85325515Y-80006009D01*
X85428009Y-79903515D01*
X85500484Y-79777985D01*
X85538000Y-79637975D01*
X85538000Y-79493025D01*
X85500484Y-79353015D01*
X85437617Y-79244127D01*
X85428011Y-79227488D01*
X85428006Y-79227482D01*
X85325517Y-79124993D01*
X85325511Y-79124988D01*
X85199988Y-79052517D01*
X85199981Y-79052514D01*
X85093012Y-79023851D01*
X85037426Y-78991758D01*
X81497240Y-75451572D01*
X81465147Y-75395987D01*
X81436484Y-75289015D01*
X81418013Y-75257023D01*
X81364011Y-75163488D01*
X81364006Y-75163482D01*
X81261517Y-75060993D01*
X81261511Y-75060988D01*
X81135988Y-74988517D01*
X81135989Y-74988517D01*
X81124506Y-74985440D01*
X80995975Y-74951000D01*
X80851025Y-74951000D01*
X80722493Y-74985440D01*
X80711011Y-74988517D01*
X80585488Y-75060988D01*
X80585482Y-75060993D01*
X80482993Y-75163482D01*
X80482988Y-75163488D01*
X80410517Y-75289011D01*
X80410516Y-75289015D01*
X80373000Y-75429025D01*
X40655319Y-75429025D01*
X40748118Y-75200145D01*
X40749059Y-75197892D01*
X41327287Y-73854617D01*
X41328316Y-73852295D01*
X41935011Y-72521640D01*
X41936047Y-72519432D01*
X42570927Y-71202016D01*
X42572039Y-71199768D01*
X43234849Y-69896120D01*
X43235981Y-69893951D01*
X43926372Y-68604759D01*
X43927596Y-68602531D01*
X44338748Y-67872556D01*
X44388798Y-67823807D01*
X44457260Y-67809854D01*
X44508786Y-67826023D01*
X52409007Y-72387218D01*
X56282247Y-74623434D01*
X56282250Y-74623436D01*
X56282251Y-74623436D01*
X56289288Y-74627499D01*
X56289289Y-74627500D01*
X56377388Y-74678364D01*
X56403417Y-74693392D01*
X56403420Y-74693393D01*
X56430315Y-74700600D01*
X56430316Y-74700600D01*
X56447831Y-74705292D01*
X56530711Y-74727501D01*
X56662495Y-74727500D01*
X56789790Y-74693392D01*
X56903918Y-74627500D01*
X56997103Y-74534314D01*
X57029707Y-74477841D01*
X57030378Y-74476694D01*
X57723313Y-73310321D01*
X57724864Y-73307784D01*
X58187485Y-72571525D01*
X80436500Y-72571525D01*
X80436500Y-72716475D01*
X80454250Y-72782718D01*
X80474017Y-72856488D01*
X80546488Y-72982011D01*
X80546490Y-72982013D01*
X80546491Y-72982015D01*
X80648985Y-73084509D01*
X80648986Y-73084510D01*
X80648988Y-73084511D01*
X80774511Y-73156982D01*
X80774512Y-73156982D01*
X80774515Y-73156984D01*
X80881487Y-73185647D01*
X80937072Y-73217740D01*
X84540759Y-76821427D01*
X84572853Y-76877014D01*
X84601517Y-76983988D01*
X84673988Y-77109511D01*
X84673990Y-77109513D01*
X84673991Y-77109515D01*
X84776485Y-77212009D01*
X84776486Y-77212010D01*
X84776488Y-77212011D01*
X84902011Y-77284482D01*
X84902012Y-77284482D01*
X84902015Y-77284484D01*
X85042025Y-77322000D01*
X85042028Y-77322000D01*
X85186972Y-77322000D01*
X85186975Y-77322000D01*
X85326985Y-77284484D01*
X85452515Y-77212009D01*
X85555009Y-77109515D01*
X85627484Y-76983985D01*
X85665000Y-76843975D01*
X85665000Y-76699025D01*
X85627484Y-76559015D01*
X85626804Y-76557838D01*
X85555011Y-76433488D01*
X85555006Y-76433482D01*
X85452517Y-76330993D01*
X85452511Y-76330988D01*
X85326988Y-76258517D01*
X85326989Y-76258517D01*
X85220014Y-76229853D01*
X85164427Y-76197759D01*
X84630211Y-75663543D01*
X89765499Y-75663543D01*
X89803947Y-75856829D01*
X89803950Y-75856839D01*
X89879364Y-76038907D01*
X89879371Y-76038920D01*
X89988860Y-76202781D01*
X89988863Y-76202785D01*
X90128214Y-76342136D01*
X90128218Y-76342139D01*
X90292079Y-76451628D01*
X90292092Y-76451635D01*
X90474160Y-76527049D01*
X90474165Y-76527051D01*
X90474169Y-76527051D01*
X90474170Y-76527052D01*
X90667456Y-76565500D01*
X90667459Y-76565500D01*
X90864543Y-76565500D01*
X90994582Y-76539632D01*
X91057835Y-76527051D01*
X91239914Y-76451632D01*
X91403782Y-76342139D01*
X91543139Y-76202782D01*
X91652632Y-76038914D01*
X91728051Y-75856835D01*
X91746004Y-75766579D01*
X91766500Y-75663543D01*
X91766500Y-75466456D01*
X91728052Y-75273170D01*
X91728051Y-75273169D01*
X91728051Y-75273165D01*
X91721365Y-75257023D01*
X91652635Y-75091092D01*
X91652628Y-75091079D01*
X91543139Y-74927218D01*
X91543136Y-74927214D01*
X91403785Y-74787863D01*
X91403781Y-74787860D01*
X91239920Y-74678371D01*
X91239907Y-74678364D01*
X91057839Y-74602950D01*
X91057829Y-74602947D01*
X90864543Y-74564500D01*
X90864541Y-74564500D01*
X90667459Y-74564500D01*
X90667457Y-74564500D01*
X90474170Y-74602947D01*
X90474160Y-74602950D01*
X90292092Y-74678364D01*
X90292079Y-74678371D01*
X90128218Y-74787860D01*
X90128214Y-74787863D01*
X89988863Y-74927214D01*
X89988860Y-74927218D01*
X89879371Y-75091079D01*
X89879364Y-75091092D01*
X89803950Y-75273160D01*
X89803947Y-75273170D01*
X89765500Y-75466456D01*
X89765500Y-75466459D01*
X89765500Y-75663541D01*
X89765500Y-75663543D01*
X89765499Y-75663543D01*
X84630211Y-75663543D01*
X82090211Y-73123543D01*
X87225499Y-73123543D01*
X87263947Y-73316829D01*
X87263950Y-73316839D01*
X87339364Y-73498907D01*
X87339371Y-73498920D01*
X87448860Y-73662781D01*
X87448863Y-73662785D01*
X87588214Y-73802136D01*
X87588218Y-73802139D01*
X87752079Y-73911628D01*
X87752092Y-73911635D01*
X87858237Y-73955601D01*
X87934165Y-73987051D01*
X87934169Y-73987051D01*
X87934170Y-73987052D01*
X88127456Y-74025500D01*
X88127459Y-74025500D01*
X88324543Y-74025500D01*
X88454582Y-73999632D01*
X88517835Y-73987051D01*
X88699914Y-73911632D01*
X88863782Y-73802139D01*
X89003139Y-73662782D01*
X89112632Y-73498914D01*
X89188051Y-73316835D01*
X89200632Y-73253582D01*
X89226500Y-73123543D01*
X89226500Y-72926456D01*
X89188052Y-72733170D01*
X89188051Y-72733169D01*
X89188051Y-72733165D01*
X89181137Y-72716472D01*
X89112635Y-72551092D01*
X89112628Y-72551079D01*
X89003139Y-72387218D01*
X89003136Y-72387214D01*
X88866243Y-72250321D01*
X92305500Y-72250321D01*
X92305500Y-73799678D01*
X92320032Y-73872735D01*
X92320033Y-73872739D01*
X92320034Y-73872740D01*
X92375399Y-73955601D01*
X92422470Y-73987052D01*
X92458260Y-74010966D01*
X92458264Y-74010967D01*
X92531321Y-74025499D01*
X92531324Y-74025500D01*
X92531326Y-74025500D01*
X94080676Y-74025500D01*
X94080677Y-74025499D01*
X94153740Y-74010966D01*
X94236601Y-73955601D01*
X94237871Y-73953700D01*
X94815351Y-73953700D01*
X94815351Y-74351065D01*
X94849983Y-74746910D01*
X94918983Y-75138224D01*
X94918986Y-75138237D01*
X95021825Y-75522041D01*
X95157729Y-75895438D01*
X95325658Y-76255563D01*
X95325666Y-76255578D01*
X95428379Y-76433482D01*
X95524342Y-76599694D01*
X95524346Y-76599700D01*
X95524353Y-76599711D01*
X95752257Y-76925192D01*
X95884784Y-77083131D01*
X96007674Y-77229585D01*
X96288649Y-77510560D01*
X96342189Y-77555485D01*
X96593041Y-77765976D01*
X96918522Y-77993880D01*
X96918529Y-77993884D01*
X96918540Y-77993892D01*
X97028600Y-78057435D01*
X97262655Y-78192567D01*
X97262670Y-78192575D01*
X97622795Y-78360504D01*
X97853542Y-78444488D01*
X97996186Y-78496406D01*
X97996187Y-78496406D01*
X97996192Y-78496408D01*
X98116770Y-78528716D01*
X98380004Y-78599250D01*
X98771326Y-78668251D01*
X99167170Y-78702882D01*
X99167171Y-78702883D01*
X99167172Y-78702883D01*
X99564531Y-78702883D01*
X99564531Y-78702882D01*
X99960376Y-78668251D01*
X100351698Y-78599250D01*
X100735516Y-78496406D01*
X101108911Y-78360502D01*
X101469040Y-78192571D01*
X101813162Y-77993892D01*
X102138659Y-77765977D01*
X102443053Y-77510560D01*
X102724028Y-77229585D01*
X102979445Y-76925191D01*
X103207360Y-76599694D01*
X103406039Y-76255572D01*
X103539423Y-75969530D01*
X105063500Y-75969530D01*
X105063500Y-76176469D01*
X105103868Y-76379412D01*
X105103870Y-76379420D01*
X105183058Y-76570596D01*
X105298024Y-76742657D01*
X105444342Y-76888975D01*
X105444345Y-76888977D01*
X105616402Y-77003941D01*
X105807580Y-77083130D01*
X106008343Y-77123064D01*
X106010530Y-77123499D01*
X106010534Y-77123500D01*
X106010535Y-77123500D01*
X107017466Y-77123500D01*
X107017467Y-77123499D01*
X107220420Y-77083130D01*
X107411598Y-77003941D01*
X107583655Y-76888977D01*
X107729977Y-76742655D01*
X107844941Y-76570598D01*
X107924130Y-76379420D01*
X107964500Y-76176465D01*
X107964500Y-75969535D01*
X107924130Y-75766580D01*
X107844941Y-75575402D01*
X107729977Y-75403345D01*
X107729975Y-75403342D01*
X107583657Y-75257024D01*
X107443669Y-75163488D01*
X107411598Y-75142059D01*
X107220420Y-75062870D01*
X107220412Y-75062868D01*
X107017469Y-75022500D01*
X107017465Y-75022500D01*
X106010535Y-75022500D01*
X106010530Y-75022500D01*
X105807587Y-75062868D01*
X105807579Y-75062870D01*
X105616403Y-75142058D01*
X105444342Y-75257024D01*
X105298024Y-75403342D01*
X105183058Y-75575403D01*
X105103870Y-75766579D01*
X105103868Y-75766587D01*
X105063500Y-75969530D01*
X103539423Y-75969530D01*
X103573970Y-75895443D01*
X103594328Y-75839511D01*
X103607607Y-75803025D01*
X103709874Y-75522048D01*
X103812718Y-75138230D01*
X103881719Y-74746908D01*
X103916351Y-74351062D01*
X103916351Y-73953704D01*
X103881719Y-73557858D01*
X103812718Y-73166536D01*
X103780041Y-73044586D01*
X103758422Y-72963899D01*
X103750715Y-72935135D01*
X105063500Y-72935135D01*
X105063500Y-74130870D01*
X105063501Y-74130876D01*
X105069908Y-74190483D01*
X105120202Y-74325328D01*
X105120206Y-74325335D01*
X105206452Y-74440544D01*
X105206455Y-74440547D01*
X105321664Y-74526793D01*
X105321671Y-74526797D01*
X105456517Y-74577091D01*
X105456516Y-74577091D01*
X105463444Y-74577835D01*
X105516127Y-74583500D01*
X107511872Y-74583499D01*
X107571483Y-74577091D01*
X107706331Y-74526796D01*
X107821546Y-74440546D01*
X107907796Y-74325331D01*
X107958091Y-74190483D01*
X107964500Y-74130873D01*
X107964499Y-72935128D01*
X107958091Y-72875517D01*
X107923481Y-72782724D01*
X107907797Y-72740671D01*
X107907793Y-72740664D01*
X107821547Y-72625455D01*
X107821544Y-72625452D01*
X107706335Y-72539206D01*
X107706328Y-72539202D01*
X107571482Y-72488908D01*
X107571483Y-72488908D01*
X107511883Y-72482501D01*
X107511881Y-72482500D01*
X107511873Y-72482500D01*
X107511864Y-72482500D01*
X105516129Y-72482500D01*
X105516123Y-72482501D01*
X105456516Y-72488908D01*
X105321671Y-72539202D01*
X105321664Y-72539206D01*
X105206455Y-72625452D01*
X105206452Y-72625455D01*
X105120206Y-72740664D01*
X105120202Y-72740671D01*
X105069908Y-72875517D01*
X105064432Y-72926456D01*
X105063501Y-72935123D01*
X105063500Y-72935135D01*
X103750715Y-72935135D01*
X103709875Y-72782721D01*
X103573972Y-72409327D01*
X103406043Y-72049202D01*
X103406035Y-72049187D01*
X103391782Y-72024500D01*
X103207360Y-71705072D01*
X103207352Y-71705061D01*
X103207348Y-71705054D01*
X102979444Y-71379573D01*
X102724025Y-71075178D01*
X102443055Y-70794208D01*
X102138660Y-70538789D01*
X101813179Y-70310885D01*
X101813168Y-70310878D01*
X101813162Y-70310874D01*
X101710923Y-70251846D01*
X101469046Y-70112198D01*
X101469031Y-70112190D01*
X101108906Y-69944261D01*
X100735509Y-69808357D01*
X100351705Y-69705518D01*
X100351708Y-69705518D01*
X100351698Y-69705516D01*
X100296450Y-69695774D01*
X99960378Y-69636515D01*
X99564533Y-69601883D01*
X99564530Y-69601883D01*
X99167172Y-69601883D01*
X99167168Y-69601883D01*
X98771323Y-69636515D01*
X98380009Y-69705515D01*
X98380006Y-69705515D01*
X98380004Y-69705516D01*
X98379999Y-69705517D01*
X98379996Y-69705518D01*
X97996192Y-69808357D01*
X97622795Y-69944261D01*
X97262670Y-70112190D01*
X97262655Y-70112198D01*
X96918548Y-70310869D01*
X96918522Y-70310885D01*
X96593041Y-70538789D01*
X96288646Y-70794208D01*
X96007676Y-71075178D01*
X95752257Y-71379573D01*
X95524353Y-71705054D01*
X95524337Y-71705080D01*
X95325666Y-72049187D01*
X95325658Y-72049202D01*
X95157729Y-72409327D01*
X95021825Y-72782724D01*
X94918986Y-73166528D01*
X94918983Y-73166541D01*
X94849983Y-73557855D01*
X94815351Y-73953700D01*
X94237871Y-73953700D01*
X94291966Y-73872740D01*
X94306500Y-73799674D01*
X94306500Y-72250326D01*
X94306500Y-72250323D01*
X94306499Y-72250321D01*
X94291967Y-72177264D01*
X94291966Y-72177260D01*
X94278557Y-72157192D01*
X94236601Y-72094399D01*
X94168946Y-72049194D01*
X94153739Y-72039033D01*
X94153735Y-72039032D01*
X94080677Y-72024500D01*
X94080674Y-72024500D01*
X92531326Y-72024500D01*
X92531323Y-72024500D01*
X92458264Y-72039032D01*
X92458260Y-72039033D01*
X92375399Y-72094399D01*
X92320033Y-72177260D01*
X92320032Y-72177264D01*
X92305500Y-72250321D01*
X88866243Y-72250321D01*
X88863785Y-72247863D01*
X88863781Y-72247860D01*
X88699920Y-72138371D01*
X88699907Y-72138364D01*
X88517839Y-72062950D01*
X88517829Y-72062947D01*
X88324543Y-72024500D01*
X88324541Y-72024500D01*
X88127459Y-72024500D01*
X88127457Y-72024500D01*
X87934170Y-72062947D01*
X87934160Y-72062950D01*
X87752092Y-72138364D01*
X87752079Y-72138371D01*
X87588218Y-72247860D01*
X87588214Y-72247863D01*
X87448863Y-72387214D01*
X87448860Y-72387218D01*
X87339371Y-72551079D01*
X87339364Y-72551092D01*
X87263950Y-72733160D01*
X87263947Y-72733170D01*
X87225500Y-72926456D01*
X87225500Y-72926459D01*
X87225500Y-73123541D01*
X87225500Y-73123543D01*
X87225499Y-73123543D01*
X82090211Y-73123543D01*
X81560740Y-72594072D01*
X81528647Y-72538487D01*
X81499984Y-72431515D01*
X81487171Y-72409323D01*
X81427511Y-72305988D01*
X81427506Y-72305982D01*
X81325017Y-72203493D01*
X81325011Y-72203488D01*
X81199488Y-72131017D01*
X81199489Y-72131017D01*
X81188006Y-72127940D01*
X81059475Y-72093500D01*
X80914525Y-72093500D01*
X80785993Y-72127940D01*
X80774511Y-72131017D01*
X80648988Y-72203488D01*
X80648982Y-72203493D01*
X80546493Y-72305982D01*
X80546488Y-72305988D01*
X80474017Y-72431511D01*
X80474016Y-72431515D01*
X80436500Y-72571525D01*
X58187485Y-72571525D01*
X58446234Y-72159728D01*
X58447833Y-72157254D01*
X59197560Y-71027603D01*
X59199260Y-71025109D01*
X59976927Y-69914485D01*
X59978660Y-69912074D01*
X60783795Y-68821154D01*
X60785608Y-68818762D01*
X60952903Y-68603530D01*
X103793500Y-68603530D01*
X103793500Y-68810469D01*
X103833868Y-69013412D01*
X103833870Y-69013420D01*
X103913058Y-69204596D01*
X104028024Y-69376657D01*
X104174342Y-69522975D01*
X104174345Y-69522977D01*
X104346402Y-69637941D01*
X104537580Y-69717130D01*
X104740530Y-69757499D01*
X104740534Y-69757500D01*
X104740535Y-69757500D01*
X105747466Y-69757500D01*
X105747467Y-69757499D01*
X105950420Y-69717130D01*
X106141598Y-69637941D01*
X106313655Y-69522977D01*
X106459977Y-69376655D01*
X106574941Y-69204598D01*
X106654130Y-69013420D01*
X106694500Y-68810465D01*
X106694500Y-68603535D01*
X106654130Y-68400580D01*
X106574941Y-68209402D01*
X106459977Y-68037345D01*
X106459975Y-68037342D01*
X106313657Y-67891024D01*
X106192176Y-67809854D01*
X106141598Y-67776059D01*
X105950420Y-67696870D01*
X105950412Y-67696868D01*
X105747469Y-67656500D01*
X105747465Y-67656500D01*
X104740535Y-67656500D01*
X104740530Y-67656500D01*
X104537587Y-67696868D01*
X104537579Y-67696870D01*
X104346403Y-67776058D01*
X104174342Y-67891024D01*
X104028024Y-68037342D01*
X103913058Y-68209403D01*
X103833870Y-68400579D01*
X103833868Y-68400587D01*
X103793500Y-68603530D01*
X60952903Y-68603530D01*
X61617671Y-67748280D01*
X61619488Y-67746001D01*
X62478018Y-66696548D01*
X62479937Y-66694261D01*
X62662963Y-66481581D01*
X103635500Y-66481581D01*
X103635500Y-66614419D01*
X103669881Y-66742730D01*
X103736300Y-66857770D01*
X103830230Y-66951700D01*
X103945270Y-67018119D01*
X104073581Y-67052500D01*
X104240779Y-67052500D01*
X104307818Y-67072185D01*
X104309664Y-67073394D01*
X104346402Y-67097941D01*
X104537580Y-67177130D01*
X104740530Y-67217499D01*
X104740534Y-67217500D01*
X104740535Y-67217500D01*
X105747466Y-67217500D01*
X105747467Y-67217499D01*
X105950420Y-67177130D01*
X106141598Y-67097941D01*
X106313655Y-66982977D01*
X106459977Y-66836655D01*
X106574941Y-66664598D01*
X106654130Y-66473420D01*
X106694500Y-66270465D01*
X106694500Y-66063535D01*
X106654130Y-65860580D01*
X106574941Y-65669402D01*
X106459977Y-65497345D01*
X106459975Y-65497342D01*
X106313657Y-65351024D01*
X106227626Y-65293541D01*
X106141598Y-65236059D01*
X105950420Y-65156870D01*
X105950412Y-65156868D01*
X105747469Y-65116500D01*
X105747465Y-65116500D01*
X104740535Y-65116500D01*
X104740530Y-65116500D01*
X104537587Y-65156868D01*
X104537579Y-65156870D01*
X104346403Y-65236058D01*
X104174342Y-65351024D01*
X104028024Y-65497342D01*
X103913058Y-65669403D01*
X103833870Y-65860579D01*
X103833868Y-65860587D01*
X103793500Y-66063530D01*
X103793500Y-66129668D01*
X103773815Y-66196707D01*
X103757181Y-66217349D01*
X103736302Y-66238227D01*
X103736300Y-66238230D01*
X103669881Y-66353270D01*
X103635500Y-66481581D01*
X62662963Y-66481581D01*
X63364292Y-65666622D01*
X63366323Y-65664321D01*
X63495195Y-65521910D01*
X64276050Y-64659019D01*
X64278072Y-64656840D01*
X65212596Y-63674513D01*
X65214677Y-63672380D01*
X65363527Y-63523530D01*
X103793500Y-63523530D01*
X103793500Y-63730469D01*
X103833868Y-63933412D01*
X103833870Y-63933420D01*
X103913058Y-64124596D01*
X104028024Y-64296657D01*
X104174342Y-64442975D01*
X104174345Y-64442977D01*
X104346402Y-64557941D01*
X104537580Y-64637130D01*
X104740530Y-64677499D01*
X104740534Y-64677500D01*
X104740535Y-64677500D01*
X105747466Y-64677500D01*
X105747467Y-64677499D01*
X105950420Y-64637130D01*
X106141598Y-64557941D01*
X106313655Y-64442977D01*
X106459977Y-64296655D01*
X106574941Y-64124598D01*
X106654130Y-63933420D01*
X106694500Y-63730465D01*
X106694500Y-63523535D01*
X106654130Y-63320580D01*
X106574941Y-63129402D01*
X106459977Y-62957345D01*
X106459975Y-62957342D01*
X106313657Y-62811024D01*
X106163760Y-62710867D01*
X106141598Y-62696059D01*
X105950420Y-62616870D01*
X105950412Y-62616868D01*
X105747469Y-62576500D01*
X105747465Y-62576500D01*
X104740535Y-62576500D01*
X104740530Y-62576500D01*
X104537587Y-62616868D01*
X104537579Y-62616870D01*
X104346403Y-62696058D01*
X104174342Y-62811024D01*
X104028024Y-62957342D01*
X103913058Y-63129403D01*
X103833870Y-63320579D01*
X103833868Y-63320587D01*
X103793500Y-63523530D01*
X65363527Y-63523530D01*
X66173378Y-62713679D01*
X66175511Y-62711598D01*
X67157839Y-61777074D01*
X67160018Y-61775052D01*
X68165337Y-60865310D01*
X68167639Y-60863280D01*
X68285958Y-60761459D01*
X69195786Y-59978487D01*
X69196934Y-59977512D01*
X69246874Y-59935609D01*
X69322462Y-59827658D01*
X69367535Y-59703822D01*
X69379021Y-59572538D01*
X69356137Y-59442756D01*
X69300442Y-59323319D01*
X60648482Y-49012313D01*
X60472134Y-48802149D01*
X60444122Y-48738140D01*
X60455161Y-48669148D01*
X60488481Y-48626571D01*
X61191864Y-48049629D01*
X61193928Y-48047975D01*
X62401663Y-47101670D01*
X62403738Y-47100081D01*
X63632348Y-46180962D01*
X63634506Y-46179386D01*
X64883243Y-45288013D01*
X64885459Y-45286468D01*
X66153832Y-44423187D01*
X66156047Y-44421716D01*
X67443419Y-43586964D01*
X67445658Y-43585548D01*
X68751337Y-42779772D01*
X68753610Y-42778404D01*
X70076987Y-42001984D01*
X70079291Y-42000666D01*
X71419636Y-41254026D01*
X71421986Y-41252751D01*
X72226415Y-40827905D01*
X72294887Y-40814005D01*
X72360006Y-40839329D01*
G37*
%TD.AperFunction*%
%TD*%
%TA.AperFunction,Conductor*%
%TO.N,GNDPWR*%
G36*
X135470000Y-130937000D02*
G01*
X131914000Y-130937000D01*
X131914000Y-130175000D01*
X130263000Y-128524000D01*
X122936307Y-128524000D01*
X122924153Y-128523403D01*
X122747278Y-128505982D01*
X122723437Y-128501240D01*
X122559214Y-128451424D01*
X122536756Y-128442121D01*
X122385414Y-128361227D01*
X122365202Y-128347722D01*
X122227813Y-128234969D01*
X122218797Y-128226797D01*
X121246000Y-127254000D01*
X120831786Y-127254000D01*
X117322454Y-127254000D01*
X117298283Y-127251621D01*
X117237640Y-127239569D01*
X117192975Y-127221087D01*
X117151898Y-127193672D01*
X117117692Y-127159514D01*
X117090220Y-127118477D01*
X117071675Y-127073839D01*
X117059537Y-127013204D01*
X117057126Y-126989055D01*
X117055290Y-125682829D01*
X117059476Y-125650719D01*
X117072095Y-125603401D01*
X117104163Y-125547740D01*
X117126808Y-125525063D01*
X117182428Y-125492916D01*
X117229722Y-125480231D01*
X117261840Y-125476000D01*
X131914000Y-125476000D01*
X135470000Y-121920000D01*
X135470000Y-130937000D01*
G37*
%TD.AperFunction*%
%TD*%
%TA.AperFunction,Conductor*%
%TO.N,VCAP*%
G36*
X145586287Y-32475531D02*
G01*
X145630096Y-32483311D01*
X145643546Y-32486085D01*
X146304230Y-32641588D01*
X146317552Y-32645116D01*
X146968586Y-32836962D01*
X146981705Y-32841227D01*
X147621079Y-33068820D01*
X147633942Y-33073804D01*
X147807964Y-33146843D01*
X148259778Y-33336475D01*
X148272299Y-33342143D01*
X148666773Y-33534057D01*
X148882629Y-33639072D01*
X148894832Y-33645432D01*
X149487802Y-33975717D01*
X149499620Y-33982737D01*
X150073363Y-34345338D01*
X150084809Y-34353023D01*
X150473920Y-34630238D01*
X150637562Y-34746821D01*
X150648571Y-34755133D01*
X151178672Y-35178942D01*
X151189204Y-35187851D01*
X151695041Y-35640384D01*
X151705044Y-35649845D01*
X152185026Y-36129682D01*
X152194508Y-36139701D01*
X152647185Y-36645388D01*
X152656097Y-36655917D01*
X153080069Y-37185890D01*
X153088385Y-37196897D01*
X153482353Y-37749532D01*
X153490040Y-37760973D01*
X153635209Y-37990518D01*
X153852800Y-38334581D01*
X153859848Y-38346439D01*
X154190297Y-38939278D01*
X154196677Y-38951510D01*
X154493770Y-39561706D01*
X154499463Y-39574271D01*
X154762316Y-40200004D01*
X154767304Y-40212865D01*
X154995101Y-40852196D01*
X154999369Y-40865315D01*
X155191400Y-41516248D01*
X155194936Y-41529582D01*
X155350634Y-42190193D01*
X155353425Y-42203702D01*
X155472295Y-42871899D01*
X155474334Y-42885543D01*
X155556017Y-43559305D01*
X155557297Y-43573040D01*
X155601541Y-44250278D01*
X155602059Y-44264064D01*
X155608730Y-44942736D01*
X155608483Y-44956529D01*
X155577558Y-45634509D01*
X155576548Y-45648266D01*
X155508125Y-46323493D01*
X155506355Y-46337175D01*
X155400641Y-47007584D01*
X155398116Y-47021145D01*
X155255435Y-47684682D01*
X155252162Y-47698084D01*
X155072955Y-48352691D01*
X155068945Y-48365890D01*
X154853767Y-49009552D01*
X154849033Y-49022509D01*
X154598528Y-49653290D01*
X154593083Y-49665965D01*
X154308032Y-50281902D01*
X154301893Y-50294256D01*
X153983177Y-50893445D01*
X153976364Y-50905440D01*
X153624951Y-51486065D01*
X153617484Y-51497665D01*
X153234447Y-52057948D01*
X153226349Y-52069116D01*
X152812874Y-52607322D01*
X152804170Y-52618024D01*
X152361533Y-53132496D01*
X152352250Y-53142700D01*
X151905910Y-53606798D01*
X151905907Y-53606802D01*
X151877610Y-53636226D01*
X151875531Y-53638305D01*
X151830034Y-53683063D01*
X151828976Y-53684860D01*
X151827500Y-53686337D01*
X151795565Y-53741648D01*
X151763208Y-53796647D01*
X151762651Y-53798657D01*
X151761608Y-53800465D01*
X151745084Y-53862130D01*
X151728057Y-53923657D01*
X151728039Y-53925744D01*
X151727500Y-53927759D01*
X151727500Y-53965985D01*
X151727500Y-53990491D01*
X151727492Y-53992534D01*
X151726896Y-54065162D01*
X151727500Y-54074988D01*
X151727500Y-149379002D01*
X151726897Y-149388821D01*
X151726976Y-149398540D01*
X151726976Y-149398542D01*
X151727500Y-149462420D01*
X151727500Y-149526219D01*
X151728039Y-149528233D01*
X151728057Y-149530322D01*
X151745093Y-149591879D01*
X151761608Y-149653513D01*
X151762651Y-149655319D01*
X151763208Y-149657332D01*
X151795596Y-149712382D01*
X151827500Y-149767641D01*
X151828974Y-149769115D01*
X151830034Y-149770916D01*
X151874577Y-149814734D01*
X151879366Y-149819577D01*
X152352260Y-150311285D01*
X152361541Y-150321488D01*
X152475956Y-150454471D01*
X152804174Y-150835953D01*
X152812878Y-150846655D01*
X153226355Y-151384863D01*
X153234453Y-151396031D01*
X153617486Y-151956306D01*
X153624953Y-151967905D01*
X153976377Y-152548545D01*
X153983190Y-152560541D01*
X154301899Y-153159716D01*
X154308038Y-153172069D01*
X154593097Y-153788019D01*
X154598542Y-153800695D01*
X154849043Y-154431466D01*
X154853777Y-154444422D01*
X155068961Y-155088094D01*
X155072971Y-155101294D01*
X155252181Y-155755911D01*
X155255453Y-155769312D01*
X155398129Y-156432819D01*
X155400655Y-156446381D01*
X155506373Y-157116809D01*
X155508143Y-157130490D01*
X155576567Y-157805718D01*
X155577577Y-157819476D01*
X155608502Y-158497455D01*
X155608749Y-158511248D01*
X155602079Y-159189923D01*
X155601561Y-159203708D01*
X155557319Y-159880944D01*
X155556039Y-159894680D01*
X155474356Y-160568447D01*
X155472317Y-160582090D01*
X155353449Y-161250282D01*
X155350658Y-161263792D01*
X155194959Y-161924407D01*
X155191423Y-161937741D01*
X154999391Y-162588681D01*
X154995123Y-162601799D01*
X154767330Y-163241120D01*
X154762342Y-163253981D01*
X154499488Y-163879720D01*
X154493795Y-163892287D01*
X154196697Y-164502492D01*
X154190317Y-164514722D01*
X153859878Y-165107547D01*
X153852830Y-165119406D01*
X153490074Y-165693008D01*
X153482381Y-165704458D01*
X153088415Y-166257093D01*
X153080099Y-166268100D01*
X152656115Y-166798089D01*
X152647202Y-166808619D01*
X152194533Y-167314298D01*
X152185051Y-167324317D01*
X151705068Y-167804155D01*
X151695045Y-167813634D01*
X151189239Y-168266141D01*
X151178707Y-168275051D01*
X150648594Y-168698870D01*
X150637585Y-168707183D01*
X150084834Y-169100979D01*
X150073382Y-169108668D01*
X149499649Y-169471264D01*
X149487787Y-169478308D01*
X148894884Y-169808556D01*
X148882652Y-169814933D01*
X148666787Y-169919953D01*
X148272336Y-170111855D01*
X148259776Y-170117541D01*
X147633962Y-170380203D01*
X147621099Y-170385187D01*
X146981725Y-170612780D01*
X146968606Y-170617045D01*
X146317571Y-170808892D01*
X146304235Y-170812423D01*
X145678375Y-170959729D01*
X145581279Y-170963110D01*
X145490280Y-170929077D01*
X145419232Y-170862810D01*
X145378951Y-170774399D01*
X145372329Y-170717503D01*
X145293758Y-32720833D01*
X145312657Y-32625540D01*
X145366587Y-32544728D01*
X145447338Y-32490705D01*
X145542615Y-32471697D01*
X145586287Y-32475531D01*
G37*
%TD.AperFunction*%
%TD*%
%TA.AperFunction,Conductor*%
%TO.N,GND*%
G36*
X52312539Y-113049685D02*
G01*
X52358294Y-113102489D01*
X52369500Y-113154000D01*
X52369500Y-113229475D01*
X52407016Y-113369485D01*
X52462387Y-113465391D01*
X52479000Y-113527389D01*
X52479000Y-120152609D01*
X52462387Y-120214609D01*
X52407017Y-120310511D01*
X52407016Y-120310515D01*
X52369500Y-120450525D01*
X52369500Y-120595475D01*
X52407016Y-120735485D01*
X52462387Y-120831391D01*
X52479000Y-120893389D01*
X52479000Y-120961814D01*
X52459315Y-121028853D01*
X52406511Y-121074608D01*
X52368256Y-121085103D01*
X52337519Y-121088407D01*
X52202671Y-121138702D01*
X52202664Y-121138706D01*
X52087455Y-121224952D01*
X52087452Y-121224955D01*
X52001206Y-121340164D01*
X52001202Y-121340171D01*
X51950910Y-121475013D01*
X51950909Y-121475017D01*
X51944500Y-121534627D01*
X51944500Y-121534634D01*
X51944500Y-121534635D01*
X51944500Y-122305370D01*
X51944501Y-122305376D01*
X51950908Y-122364983D01*
X52001202Y-122499828D01*
X52001206Y-122499835D01*
X52087452Y-122615044D01*
X52087455Y-122615047D01*
X52202664Y-122701293D01*
X52202671Y-122701297D01*
X52337517Y-122751591D01*
X52337516Y-122751591D01*
X52344444Y-122752335D01*
X52397127Y-122758000D01*
X53442872Y-122757999D01*
X53502483Y-122751591D01*
X53637331Y-122701296D01*
X53752546Y-122615046D01*
X53838796Y-122499831D01*
X53889091Y-122364983D01*
X53895500Y-122305373D01*
X53895499Y-121534628D01*
X53889091Y-121475017D01*
X53848270Y-121365571D01*
X53838797Y-121340171D01*
X53838793Y-121340164D01*
X53752547Y-121224955D01*
X53752544Y-121224952D01*
X53637335Y-121138706D01*
X53637328Y-121138702D01*
X53502482Y-121088408D01*
X53502483Y-121088408D01*
X53471745Y-121085104D01*
X53407194Y-121058366D01*
X53367345Y-121000974D01*
X53361000Y-120961815D01*
X53361000Y-120893389D01*
X53377612Y-120831391D01*
X53432984Y-120735485D01*
X53470500Y-120595475D01*
X53470500Y-120450525D01*
X53432984Y-120310515D01*
X53396088Y-120246609D01*
X53377613Y-120214609D01*
X53361000Y-120152609D01*
X53361000Y-113527389D01*
X53377612Y-113465391D01*
X53432984Y-113369485D01*
X53470500Y-113229475D01*
X53470500Y-113154000D01*
X53490185Y-113086961D01*
X53542989Y-113041206D01*
X53594500Y-113030000D01*
X54531500Y-113030000D01*
X54598539Y-113049685D01*
X54644294Y-113102489D01*
X54655500Y-113154000D01*
X54655500Y-113229475D01*
X54693016Y-113369485D01*
X54748387Y-113465391D01*
X54765000Y-113527389D01*
X54765000Y-120184609D01*
X54748387Y-120246609D01*
X54693017Y-120342511D01*
X54693016Y-120342515D01*
X54655500Y-120482525D01*
X54655500Y-120627475D01*
X54693016Y-120767485D01*
X54748387Y-120863391D01*
X54765000Y-120925389D01*
X54765000Y-120961814D01*
X54745315Y-121028853D01*
X54692511Y-121074608D01*
X54654256Y-121085103D01*
X54623519Y-121088407D01*
X54488671Y-121138702D01*
X54488664Y-121138706D01*
X54373455Y-121224952D01*
X54373452Y-121224955D01*
X54287206Y-121340164D01*
X54287202Y-121340171D01*
X54236910Y-121475013D01*
X54236909Y-121475017D01*
X54230500Y-121534627D01*
X54230500Y-121534634D01*
X54230500Y-121534635D01*
X54230500Y-122305370D01*
X54230501Y-122305376D01*
X54236908Y-122364983D01*
X54287202Y-122499828D01*
X54287206Y-122499835D01*
X54373452Y-122615044D01*
X54373455Y-122615047D01*
X54488664Y-122701293D01*
X54488671Y-122701297D01*
X54623517Y-122751591D01*
X54623516Y-122751591D01*
X54630444Y-122752335D01*
X54683127Y-122758000D01*
X55728872Y-122757999D01*
X55788483Y-122751591D01*
X55923331Y-122701296D01*
X56038546Y-122615046D01*
X56124796Y-122499831D01*
X56175091Y-122364983D01*
X56181500Y-122305373D01*
X56181499Y-121534628D01*
X56175091Y-121475017D01*
X56134270Y-121365571D01*
X56124797Y-121340171D01*
X56124793Y-121340164D01*
X56038547Y-121224955D01*
X56038544Y-121224952D01*
X55923335Y-121138706D01*
X55923328Y-121138702D01*
X55788482Y-121088408D01*
X55788483Y-121088408D01*
X55757745Y-121085104D01*
X55693194Y-121058366D01*
X55653345Y-121000974D01*
X55647000Y-120961815D01*
X55647000Y-120925389D01*
X55663612Y-120863391D01*
X55718984Y-120767485D01*
X55756500Y-120627475D01*
X55756500Y-120482525D01*
X55718984Y-120342515D01*
X55701496Y-120312225D01*
X55663613Y-120246609D01*
X55647000Y-120184609D01*
X55647000Y-118736995D01*
X56486500Y-118736995D01*
X56486500Y-119302826D01*
X56495205Y-119368952D01*
X56529282Y-119496126D01*
X56554800Y-119557734D01*
X56554808Y-119557750D01*
X56620626Y-119671749D01*
X56620637Y-119671765D01*
X56661233Y-119724671D01*
X56661239Y-119724678D01*
X56754321Y-119817760D01*
X56754328Y-119817766D01*
X56775180Y-119833766D01*
X56807243Y-119858369D01*
X56807250Y-119858373D01*
X56921249Y-119924191D01*
X56921253Y-119924193D01*
X56921257Y-119924195D01*
X56974453Y-119946229D01*
X57028855Y-119990069D01*
X57050921Y-120056363D01*
X57051000Y-120060790D01*
X57051000Y-120152609D01*
X57034387Y-120214609D01*
X56979017Y-120310511D01*
X56979016Y-120310515D01*
X56941500Y-120450525D01*
X56941500Y-120595475D01*
X56979016Y-120735485D01*
X57034387Y-120831391D01*
X57051000Y-120893389D01*
X57051000Y-120987214D01*
X57031315Y-121054253D01*
X56978511Y-121100008D01*
X56940256Y-121110503D01*
X56909519Y-121113807D01*
X56774671Y-121164102D01*
X56774664Y-121164106D01*
X56659455Y-121250352D01*
X56659452Y-121250355D01*
X56573206Y-121365564D01*
X56573202Y-121365571D01*
X56522910Y-121500413D01*
X56522909Y-121500417D01*
X56516500Y-121560027D01*
X56516500Y-121560034D01*
X56516500Y-121560035D01*
X56516500Y-122330770D01*
X56516501Y-122330776D01*
X56522908Y-122390383D01*
X56573202Y-122525228D01*
X56573206Y-122525235D01*
X56659452Y-122640444D01*
X56659455Y-122640447D01*
X56774664Y-122726693D01*
X56774671Y-122726697D01*
X56909517Y-122776991D01*
X56909516Y-122776991D01*
X56916444Y-122777735D01*
X56969127Y-122783400D01*
X58014872Y-122783399D01*
X58074483Y-122776991D01*
X58209331Y-122726696D01*
X58324546Y-122640446D01*
X58410796Y-122525231D01*
X58461091Y-122390383D01*
X58467500Y-122330773D01*
X58467499Y-121560028D01*
X58467499Y-121560027D01*
X58802500Y-121560027D01*
X58802500Y-121560034D01*
X58802500Y-121560035D01*
X58802500Y-122330770D01*
X58802501Y-122330776D01*
X58808908Y-122390383D01*
X58859202Y-122525228D01*
X58859206Y-122525235D01*
X58945452Y-122640444D01*
X58945455Y-122640447D01*
X59060664Y-122726693D01*
X59060671Y-122726697D01*
X59195517Y-122776991D01*
X59195516Y-122776991D01*
X59202444Y-122777735D01*
X59255127Y-122783400D01*
X60300872Y-122783399D01*
X60360483Y-122776991D01*
X60495331Y-122726696D01*
X60610546Y-122640446D01*
X60696796Y-122525231D01*
X60747091Y-122390383D01*
X60753500Y-122330773D01*
X60753499Y-121560028D01*
X60753499Y-121560027D01*
X61088500Y-121560027D01*
X61088500Y-121560034D01*
X61088500Y-121560035D01*
X61088500Y-122330770D01*
X61088501Y-122330776D01*
X61094908Y-122390383D01*
X61145202Y-122525228D01*
X61145206Y-122525235D01*
X61231452Y-122640444D01*
X61231455Y-122640447D01*
X61346664Y-122726693D01*
X61346671Y-122726697D01*
X61481517Y-122776991D01*
X61481516Y-122776991D01*
X61488444Y-122777735D01*
X61541127Y-122783400D01*
X62586872Y-122783399D01*
X62646483Y-122776991D01*
X62781331Y-122726696D01*
X62896546Y-122640446D01*
X62982796Y-122525231D01*
X63033091Y-122390383D01*
X63039500Y-122330773D01*
X63039499Y-121560028D01*
X63039499Y-121560027D01*
X63374500Y-121560027D01*
X63374500Y-121560034D01*
X63374500Y-121560035D01*
X63374500Y-122330770D01*
X63374501Y-122330776D01*
X63380908Y-122390383D01*
X63431202Y-122525228D01*
X63431206Y-122525235D01*
X63517452Y-122640444D01*
X63517455Y-122640447D01*
X63632664Y-122726693D01*
X63632671Y-122726697D01*
X63767517Y-122776991D01*
X63767516Y-122776991D01*
X63774444Y-122777735D01*
X63827127Y-122783400D01*
X64872872Y-122783399D01*
X64932483Y-122776991D01*
X65067331Y-122726696D01*
X65182546Y-122640446D01*
X65268796Y-122525231D01*
X65319091Y-122390383D01*
X65325500Y-122330773D01*
X65325499Y-121560028D01*
X65320299Y-121511657D01*
X65319091Y-121500416D01*
X65268797Y-121365571D01*
X65268793Y-121365564D01*
X65182547Y-121250355D01*
X65182544Y-121250352D01*
X65067335Y-121164106D01*
X65067328Y-121164102D01*
X64932482Y-121113808D01*
X64932483Y-121113808D01*
X64901745Y-121110504D01*
X64837194Y-121083766D01*
X64797345Y-121026374D01*
X64791000Y-120987215D01*
X64791000Y-120893389D01*
X64807612Y-120831391D01*
X64862984Y-120735485D01*
X64891647Y-120628511D01*
X64923738Y-120572928D01*
X65451849Y-120044819D01*
X65513172Y-120011334D01*
X65539530Y-120008500D01*
X65808827Y-120008500D01*
X65822052Y-120006758D01*
X65874956Y-119999794D01*
X66002123Y-119965719D01*
X66059212Y-119942072D01*
X66063734Y-119940199D01*
X66063737Y-119940197D01*
X66063743Y-119940195D01*
X66177757Y-119874369D01*
X66230673Y-119833765D01*
X66323765Y-119740673D01*
X66364369Y-119687757D01*
X66430195Y-119573743D01*
X66455719Y-119512123D01*
X66489794Y-119384956D01*
X66498500Y-119318826D01*
X66498500Y-118753000D01*
X66498500Y-118752997D01*
X66498499Y-118752995D01*
X66479052Y-118655229D01*
X66479051Y-118655228D01*
X66479051Y-118655224D01*
X66479048Y-118655219D01*
X66477077Y-118650460D01*
X66469604Y-118580991D01*
X66477077Y-118555540D01*
X66479047Y-118550781D01*
X66479051Y-118550776D01*
X66498500Y-118453000D01*
X66498500Y-117887174D01*
X66489794Y-117821044D01*
X66455719Y-117693877D01*
X66447211Y-117673337D01*
X66430199Y-117632265D01*
X66430191Y-117632249D01*
X66364373Y-117518250D01*
X66364369Y-117518243D01*
X66323765Y-117465327D01*
X66323760Y-117465321D01*
X66230678Y-117372239D01*
X66230671Y-117372233D01*
X66177765Y-117331637D01*
X66177763Y-117331635D01*
X66177757Y-117331631D01*
X66177752Y-117331628D01*
X66177749Y-117331626D01*
X66063750Y-117265808D01*
X66063738Y-117265803D01*
X66010547Y-117243770D01*
X65956144Y-117199929D01*
X65934079Y-117133634D01*
X65934000Y-117129209D01*
X65934000Y-116146942D01*
X65934000Y-116146941D01*
X65922919Y-116105587D01*
X65903947Y-116034781D01*
X65845888Y-115934220D01*
X65304740Y-115393072D01*
X65272647Y-115337487D01*
X65243984Y-115230515D01*
X65171509Y-115104985D01*
X65069015Y-115002491D01*
X65069013Y-115002490D01*
X65069011Y-115002488D01*
X64943488Y-114930017D01*
X64943489Y-114930017D01*
X64932006Y-114926940D01*
X64803475Y-114892500D01*
X64658525Y-114892500D01*
X64529993Y-114926940D01*
X64518511Y-114930017D01*
X64392988Y-115002488D01*
X64392982Y-115002493D01*
X64290493Y-115104982D01*
X64290488Y-115104988D01*
X64218017Y-115230511D01*
X64218016Y-115230515D01*
X64180500Y-115370525D01*
X64180500Y-115515475D01*
X64206628Y-115612985D01*
X64218017Y-115655488D01*
X64290488Y-115781011D01*
X64290490Y-115781013D01*
X64290491Y-115781015D01*
X64392985Y-115883509D01*
X64392986Y-115883510D01*
X64392988Y-115883511D01*
X64518511Y-115955982D01*
X64518512Y-115955982D01*
X64518515Y-115955984D01*
X64625487Y-115984647D01*
X64681072Y-116016740D01*
X65015681Y-116351349D01*
X65049166Y-116412672D01*
X65052000Y-116439030D01*
X65052000Y-117129209D01*
X65032315Y-117196248D01*
X64979511Y-117242003D01*
X64975453Y-117243770D01*
X64922261Y-117265803D01*
X64922249Y-117265808D01*
X64808250Y-117331626D01*
X64808234Y-117331637D01*
X64755328Y-117372233D01*
X64755321Y-117372239D01*
X64662239Y-117465321D01*
X64662233Y-117465328D01*
X64621637Y-117518234D01*
X64621626Y-117518250D01*
X64555808Y-117632249D01*
X64555800Y-117632265D01*
X64530282Y-117693873D01*
X64496205Y-117821047D01*
X64487500Y-117887173D01*
X64487500Y-118453004D01*
X64506947Y-118550771D01*
X64508926Y-118555548D01*
X64516394Y-118625018D01*
X64508926Y-118650452D01*
X64506947Y-118655228D01*
X64487500Y-118752995D01*
X64487500Y-119318826D01*
X64496205Y-119384952D01*
X64530282Y-119512126D01*
X64555805Y-119573745D01*
X64556064Y-119574270D01*
X64556094Y-119574442D01*
X64557358Y-119577494D01*
X64556675Y-119577776D01*
X64568062Y-119643102D01*
X64540941Y-119707493D01*
X64532534Y-119716796D01*
X64300072Y-119949258D01*
X64244486Y-119981351D01*
X64137518Y-120010014D01*
X64137511Y-120010017D01*
X64011988Y-120082488D01*
X64011982Y-120082493D01*
X63909493Y-120184982D01*
X63909488Y-120184988D01*
X63837017Y-120310511D01*
X63837016Y-120310515D01*
X63799500Y-120450525D01*
X63799500Y-120595475D01*
X63837016Y-120735485D01*
X63892387Y-120831391D01*
X63909000Y-120893389D01*
X63909000Y-120987214D01*
X63889315Y-121054253D01*
X63836511Y-121100008D01*
X63798256Y-121110503D01*
X63767519Y-121113807D01*
X63632671Y-121164102D01*
X63632664Y-121164106D01*
X63517455Y-121250352D01*
X63517452Y-121250355D01*
X63431206Y-121365564D01*
X63431202Y-121365571D01*
X63380910Y-121500413D01*
X63380909Y-121500417D01*
X63374500Y-121560027D01*
X63039499Y-121560027D01*
X63034580Y-121514269D01*
X63033091Y-121500416D01*
X62982797Y-121365571D01*
X62982793Y-121365564D01*
X62896547Y-121250355D01*
X62896544Y-121250352D01*
X62781335Y-121164106D01*
X62781328Y-121164102D01*
X62646482Y-121113808D01*
X62646483Y-121113808D01*
X62615745Y-121110504D01*
X62551194Y-121083766D01*
X62511345Y-121026374D01*
X62505000Y-120987215D01*
X62505000Y-120893389D01*
X62521612Y-120831391D01*
X62576984Y-120735485D01*
X62605647Y-120628511D01*
X62637738Y-120572928D01*
X63178888Y-120031780D01*
X63178888Y-120031779D01*
X63184635Y-120026033D01*
X63186279Y-120027677D01*
X63233034Y-119993521D01*
X63242901Y-119990430D01*
X63335123Y-119965719D01*
X63335125Y-119965718D01*
X63335128Y-119965717D01*
X63377910Y-119947996D01*
X63396734Y-119940199D01*
X63396737Y-119940197D01*
X63396743Y-119940195D01*
X63510757Y-119874369D01*
X63563673Y-119833765D01*
X63656765Y-119740673D01*
X63697369Y-119687757D01*
X63763195Y-119573743D01*
X63788719Y-119512123D01*
X63822794Y-119384956D01*
X63831500Y-119318826D01*
X63831500Y-118753000D01*
X63831500Y-118752997D01*
X63831499Y-118752995D01*
X63812052Y-118655228D01*
X63812051Y-118655227D01*
X63812051Y-118655224D01*
X63756666Y-118572334D01*
X63756665Y-118572333D01*
X63673778Y-118516950D01*
X63673771Y-118516947D01*
X63576003Y-118497500D01*
X63576000Y-118497500D01*
X62076000Y-118497500D01*
X62075997Y-118497500D01*
X61978228Y-118516947D01*
X61978221Y-118516950D01*
X61895334Y-118572333D01*
X61895333Y-118572334D01*
X61839950Y-118655221D01*
X61839947Y-118655228D01*
X61820500Y-118752995D01*
X61820500Y-119318826D01*
X61829205Y-119384952D01*
X61863282Y-119512126D01*
X61888800Y-119573734D01*
X61888808Y-119573750D01*
X61954626Y-119687749D01*
X61954637Y-119687765D01*
X61995233Y-119740671D01*
X61995239Y-119740678D01*
X62021265Y-119766704D01*
X62054750Y-119828027D01*
X62049766Y-119897719D01*
X62021259Y-119942072D01*
X62014066Y-119949264D01*
X61958486Y-119981351D01*
X61851518Y-120010014D01*
X61851511Y-120010017D01*
X61725988Y-120082488D01*
X61725982Y-120082493D01*
X61623493Y-120184982D01*
X61623488Y-120184988D01*
X61551017Y-120310511D01*
X61551016Y-120310515D01*
X61513500Y-120450525D01*
X61513500Y-120595475D01*
X61551016Y-120735485D01*
X61606387Y-120831391D01*
X61623000Y-120893389D01*
X61623000Y-120987214D01*
X61603315Y-121054253D01*
X61550511Y-121100008D01*
X61512256Y-121110503D01*
X61481519Y-121113807D01*
X61346671Y-121164102D01*
X61346664Y-121164106D01*
X61231455Y-121250352D01*
X61231452Y-121250355D01*
X61145206Y-121365564D01*
X61145202Y-121365571D01*
X61094910Y-121500413D01*
X61094909Y-121500417D01*
X61088500Y-121560027D01*
X60753499Y-121560027D01*
X60748580Y-121514269D01*
X60747091Y-121500416D01*
X60696797Y-121365571D01*
X60696793Y-121365564D01*
X60610547Y-121250355D01*
X60610544Y-121250352D01*
X60495335Y-121164106D01*
X60495328Y-121164102D01*
X60360482Y-121113808D01*
X60360483Y-121113808D01*
X60329745Y-121110504D01*
X60265194Y-121083766D01*
X60225345Y-121026374D01*
X60219000Y-120987215D01*
X60219000Y-120893389D01*
X60235612Y-120831391D01*
X60290984Y-120735485D01*
X60319647Y-120628511D01*
X60351737Y-120572930D01*
X60511888Y-120412780D01*
X60546528Y-120352781D01*
X60552458Y-120342511D01*
X60569943Y-120312225D01*
X60569944Y-120312224D01*
X60569944Y-120312222D01*
X60569946Y-120312220D01*
X60600000Y-120200059D01*
X60600000Y-120076790D01*
X60619685Y-120009751D01*
X60672489Y-119963996D01*
X60676510Y-119962244D01*
X60729743Y-119940195D01*
X60843757Y-119874369D01*
X60896673Y-119833765D01*
X60989765Y-119740673D01*
X61030369Y-119687757D01*
X61096195Y-119573743D01*
X61121719Y-119512123D01*
X61155794Y-119384956D01*
X61164500Y-119318826D01*
X61164500Y-118753000D01*
X61164500Y-118752997D01*
X61164499Y-118752995D01*
X61145052Y-118655229D01*
X61145051Y-118655228D01*
X61145051Y-118655224D01*
X61145048Y-118655219D01*
X61143077Y-118650460D01*
X61135604Y-118580991D01*
X61143077Y-118555540D01*
X61145047Y-118550781D01*
X61145051Y-118550776D01*
X61164500Y-118453000D01*
X61164500Y-117887174D01*
X61155794Y-117821044D01*
X61121719Y-117693877D01*
X61113211Y-117673337D01*
X61096199Y-117632265D01*
X61096191Y-117632249D01*
X61030373Y-117518250D01*
X61030369Y-117518243D01*
X60989765Y-117465327D01*
X60989760Y-117465321D01*
X60896678Y-117372239D01*
X60896671Y-117372233D01*
X60843765Y-117331637D01*
X60843763Y-117331635D01*
X60843757Y-117331631D01*
X60843752Y-117331628D01*
X60843749Y-117331626D01*
X60729750Y-117265808D01*
X60729738Y-117265803D01*
X60676547Y-117243770D01*
X60622144Y-117199929D01*
X60600079Y-117133634D01*
X60600000Y-117129209D01*
X60600000Y-116321389D01*
X60616612Y-116259391D01*
X60671984Y-116163485D01*
X60709500Y-116023475D01*
X60709500Y-115878525D01*
X60671984Y-115738515D01*
X60624046Y-115655485D01*
X60599511Y-115612988D01*
X60599506Y-115612982D01*
X60497017Y-115510493D01*
X60497011Y-115510488D01*
X60371488Y-115438017D01*
X60371489Y-115438017D01*
X60360006Y-115434940D01*
X60231475Y-115400500D01*
X60086525Y-115400500D01*
X59957993Y-115434940D01*
X59946511Y-115438017D01*
X59820988Y-115510488D01*
X59820982Y-115510493D01*
X59718493Y-115612982D01*
X59718488Y-115612988D01*
X59646017Y-115738511D01*
X59646016Y-115738515D01*
X59608500Y-115878525D01*
X59608500Y-116023475D01*
X59646016Y-116163485D01*
X59701387Y-116259391D01*
X59718000Y-116321389D01*
X59718000Y-117129209D01*
X59698315Y-117196248D01*
X59645511Y-117242003D01*
X59641453Y-117243770D01*
X59588261Y-117265803D01*
X59588249Y-117265808D01*
X59474250Y-117331626D01*
X59474234Y-117331637D01*
X59421328Y-117372233D01*
X59421321Y-117372239D01*
X59328239Y-117465321D01*
X59328233Y-117465328D01*
X59287637Y-117518234D01*
X59287626Y-117518250D01*
X59221808Y-117632249D01*
X59221800Y-117632265D01*
X59196282Y-117693873D01*
X59162205Y-117821047D01*
X59153500Y-117887173D01*
X59153500Y-118453004D01*
X59172947Y-118550771D01*
X59174926Y-118555548D01*
X59182394Y-118625018D01*
X59174926Y-118650452D01*
X59172947Y-118655228D01*
X59153500Y-118752995D01*
X59153500Y-119318826D01*
X59162205Y-119384952D01*
X59196282Y-119512126D01*
X59221800Y-119573734D01*
X59221808Y-119573750D01*
X59287626Y-119687749D01*
X59287637Y-119687765D01*
X59328233Y-119740671D01*
X59328239Y-119740678D01*
X59421321Y-119833760D01*
X59421328Y-119833766D01*
X59467078Y-119868871D01*
X59508281Y-119925298D01*
X59512436Y-119995044D01*
X59478224Y-120055965D01*
X59453596Y-120074632D01*
X59439988Y-120082488D01*
X59439982Y-120082493D01*
X59337493Y-120184982D01*
X59337488Y-120184988D01*
X59265017Y-120310511D01*
X59265016Y-120310515D01*
X59227500Y-120450525D01*
X59227500Y-120595475D01*
X59265016Y-120735485D01*
X59320387Y-120831391D01*
X59337000Y-120893389D01*
X59337000Y-120987214D01*
X59317315Y-121054253D01*
X59264511Y-121100008D01*
X59226256Y-121110503D01*
X59195519Y-121113807D01*
X59060671Y-121164102D01*
X59060664Y-121164106D01*
X58945455Y-121250352D01*
X58945452Y-121250355D01*
X58859206Y-121365564D01*
X58859202Y-121365571D01*
X58808910Y-121500413D01*
X58808909Y-121500417D01*
X58802500Y-121560027D01*
X58467499Y-121560027D01*
X58462580Y-121514269D01*
X58461091Y-121500416D01*
X58410797Y-121365571D01*
X58410793Y-121365564D01*
X58324547Y-121250355D01*
X58324544Y-121250352D01*
X58209335Y-121164106D01*
X58209328Y-121164102D01*
X58074482Y-121113808D01*
X58074483Y-121113808D01*
X58043745Y-121110504D01*
X57979194Y-121083766D01*
X57939345Y-121026374D01*
X57933000Y-120987215D01*
X57933000Y-120893389D01*
X57949612Y-120831391D01*
X58004984Y-120735485D01*
X58042500Y-120595475D01*
X58042500Y-120450525D01*
X58004984Y-120310515D01*
X57968088Y-120246609D01*
X57949613Y-120214609D01*
X57933000Y-120152609D01*
X57933000Y-120060790D01*
X57952685Y-119993751D01*
X58005489Y-119947996D01*
X58009510Y-119946244D01*
X58062743Y-119924195D01*
X58176757Y-119858369D01*
X58229673Y-119817765D01*
X58322765Y-119724673D01*
X58363369Y-119671757D01*
X58429195Y-119557743D01*
X58454719Y-119496123D01*
X58488794Y-119368956D01*
X58497500Y-119302826D01*
X58497500Y-118737000D01*
X58497500Y-118736997D01*
X58497499Y-118736995D01*
X58478052Y-118639228D01*
X58478051Y-118639227D01*
X58478051Y-118639224D01*
X58422666Y-118556334D01*
X58414348Y-118550776D01*
X58339778Y-118500950D01*
X58339771Y-118500947D01*
X58242003Y-118481500D01*
X58242000Y-118481500D01*
X56742000Y-118481500D01*
X56741997Y-118481500D01*
X56644228Y-118500947D01*
X56644221Y-118500950D01*
X56561334Y-118556333D01*
X56561333Y-118556334D01*
X56505950Y-118639221D01*
X56505947Y-118639228D01*
X56486500Y-118736995D01*
X55647000Y-118736995D01*
X55647000Y-113527389D01*
X55663612Y-113465391D01*
X55718984Y-113369485D01*
X55756500Y-113229475D01*
X55756500Y-113154000D01*
X55776185Y-113086961D01*
X55828989Y-113041206D01*
X55880500Y-113030000D01*
X66469693Y-113030000D01*
X66481847Y-113030597D01*
X66658728Y-113048018D01*
X66682556Y-113052757D01*
X66846788Y-113102576D01*
X66869240Y-113111877D01*
X67020585Y-113192772D01*
X67040797Y-113206277D01*
X67178186Y-113319030D01*
X67187202Y-113327202D01*
X67354797Y-113494797D01*
X67362969Y-113503813D01*
X67475722Y-113641202D01*
X67489227Y-113661414D01*
X67570121Y-113812756D01*
X67579424Y-113835214D01*
X67629240Y-113999437D01*
X67633982Y-114023278D01*
X67651403Y-114200152D01*
X67652000Y-114212306D01*
X67652000Y-123317000D01*
X67906000Y-123571000D01*
X68234395Y-123571000D01*
X68414000Y-123571000D01*
X68668000Y-123317000D01*
X68668000Y-126365000D01*
X67398000Y-126365000D01*
X67397999Y-126365000D01*
X66382000Y-127380999D01*
X66382000Y-131835907D01*
X66381403Y-131848061D01*
X66363982Y-132024934D01*
X66359240Y-132048775D01*
X66309424Y-132212998D01*
X66300121Y-132235456D01*
X66219227Y-132386798D01*
X66205722Y-132407010D01*
X66096854Y-132539666D01*
X66079666Y-132556854D01*
X65947010Y-132665722D01*
X65926798Y-132679227D01*
X65775456Y-132760121D01*
X65752998Y-132769424D01*
X65588775Y-132819240D01*
X65564934Y-132823982D01*
X65388061Y-132841403D01*
X65375907Y-132842000D01*
X48967302Y-132842000D01*
X48955148Y-132841403D01*
X48804181Y-132826534D01*
X48780340Y-132821792D01*
X48641027Y-132779532D01*
X48618571Y-132770230D01*
X48490185Y-132701606D01*
X48469974Y-132688101D01*
X48357440Y-132595747D01*
X48340252Y-132578559D01*
X48247898Y-132466025D01*
X48234393Y-132445814D01*
X48202848Y-132386798D01*
X48165767Y-132317423D01*
X48156467Y-132294972D01*
X48114205Y-132155653D01*
X48109466Y-132131823D01*
X48094597Y-131980850D01*
X48094000Y-131968697D01*
X48094000Y-121567827D01*
X49658500Y-121567827D01*
X49658500Y-121567834D01*
X49658500Y-121567835D01*
X49658500Y-122338570D01*
X49658501Y-122338576D01*
X49664908Y-122398183D01*
X49715202Y-122533028D01*
X49715206Y-122533035D01*
X49801452Y-122648244D01*
X49801455Y-122648247D01*
X49916664Y-122734493D01*
X49916671Y-122734497D01*
X50051517Y-122784791D01*
X50051516Y-122784791D01*
X50058444Y-122785535D01*
X50111127Y-122791200D01*
X51156872Y-122791199D01*
X51216483Y-122784791D01*
X51351331Y-122734496D01*
X51466546Y-122648246D01*
X51552796Y-122533031D01*
X51603091Y-122398183D01*
X51609500Y-122338573D01*
X51609499Y-121567828D01*
X51603091Y-121508217D01*
X51600181Y-121500416D01*
X51552797Y-121373371D01*
X51552793Y-121373364D01*
X51466547Y-121258155D01*
X51466544Y-121258152D01*
X51351335Y-121171906D01*
X51351328Y-121171902D01*
X51216482Y-121121608D01*
X51216483Y-121121608D01*
X51185745Y-121118304D01*
X51121194Y-121091566D01*
X51081345Y-121034174D01*
X51075000Y-120995015D01*
X51075000Y-120944189D01*
X51091612Y-120882191D01*
X51146984Y-120786285D01*
X51184500Y-120646275D01*
X51184500Y-120501325D01*
X51146984Y-120361315D01*
X51136127Y-120342511D01*
X51074511Y-120235788D01*
X51074506Y-120235782D01*
X50972017Y-120133293D01*
X50972011Y-120133288D01*
X50846488Y-120060817D01*
X50846489Y-120060817D01*
X50828381Y-120055965D01*
X50706475Y-120023300D01*
X50561525Y-120023300D01*
X50439619Y-120055965D01*
X50421511Y-120060817D01*
X50295988Y-120133288D01*
X50295982Y-120133293D01*
X50193493Y-120235782D01*
X50193488Y-120235788D01*
X50121017Y-120361311D01*
X50121016Y-120361315D01*
X50083500Y-120501325D01*
X50083500Y-120646275D01*
X50121016Y-120786285D01*
X50176387Y-120882191D01*
X50193000Y-120944189D01*
X50193000Y-120995014D01*
X50173315Y-121062053D01*
X50120511Y-121107808D01*
X50082256Y-121118303D01*
X50051519Y-121121607D01*
X49916671Y-121171902D01*
X49916664Y-121171906D01*
X49801455Y-121258152D01*
X49801452Y-121258155D01*
X49715206Y-121373364D01*
X49715202Y-121373371D01*
X49667818Y-121500417D01*
X49664909Y-121508217D01*
X49658500Y-121567827D01*
X48094000Y-121567827D01*
X48094000Y-114466306D01*
X48094597Y-114454152D01*
X48112018Y-114277269D01*
X48116757Y-114253445D01*
X48166577Y-114089207D01*
X48175875Y-114066762D01*
X48256775Y-113915408D01*
X48270272Y-113895208D01*
X48383039Y-113757802D01*
X48391192Y-113748807D01*
X48812807Y-113327192D01*
X48821802Y-113319039D01*
X48959208Y-113206272D01*
X48979408Y-113192775D01*
X49130762Y-113111875D01*
X49153207Y-113102577D01*
X49317445Y-113052757D01*
X49341269Y-113048018D01*
X49518153Y-113030597D01*
X49530307Y-113030000D01*
X52245500Y-113030000D01*
X52312539Y-113049685D01*
G37*
%TD.AperFunction*%
%TD*%
%TA.AperFunction,Conductor*%
%TO.N,+24V*%
G36*
X90611847Y-110490597D02*
G01*
X90788728Y-110508018D01*
X90812556Y-110512757D01*
X90976788Y-110562576D01*
X90999240Y-110571877D01*
X91150585Y-110652772D01*
X91170797Y-110666277D01*
X91308186Y-110779030D01*
X91317202Y-110787202D01*
X95802797Y-115272797D01*
X95810969Y-115281813D01*
X95923722Y-115419202D01*
X95937227Y-115439414D01*
X96018121Y-115590756D01*
X96027424Y-115613214D01*
X96077240Y-115777437D01*
X96081982Y-115801278D01*
X96099403Y-115978152D01*
X96100000Y-115990306D01*
X96100000Y-121372693D01*
X96099403Y-121384847D01*
X96081982Y-121561721D01*
X96077240Y-121585562D01*
X96027424Y-121749785D01*
X96018121Y-121772243D01*
X95937227Y-121923585D01*
X95923722Y-121943797D01*
X95810969Y-122081186D01*
X95802797Y-122090202D01*
X91825202Y-126067797D01*
X91816186Y-126075969D01*
X91678797Y-126188722D01*
X91658585Y-126202227D01*
X91507243Y-126283121D01*
X91484785Y-126292424D01*
X91320562Y-126342240D01*
X91296721Y-126346982D01*
X91119847Y-126364403D01*
X91107693Y-126365000D01*
X80596093Y-126365000D01*
X80583939Y-126364403D01*
X80407065Y-126346982D01*
X80383224Y-126342240D01*
X80219001Y-126292424D01*
X80196543Y-126283121D01*
X80045201Y-126202227D01*
X80024989Y-126188722D01*
X79892333Y-126079854D01*
X79875145Y-126062666D01*
X79766277Y-125930010D01*
X79752772Y-125909798D01*
X79671878Y-125758456D01*
X79662575Y-125735998D01*
X79612757Y-125571769D01*
X79608018Y-125547941D01*
X79590597Y-125371061D01*
X79590000Y-125358907D01*
X79590000Y-119243092D01*
X79590597Y-119230938D01*
X79608018Y-119054056D01*
X79612757Y-119030232D01*
X79662577Y-118865994D01*
X79671875Y-118843549D01*
X79752775Y-118692195D01*
X79766272Y-118671995D01*
X79875149Y-118539328D01*
X79892328Y-118522149D01*
X80024995Y-118413272D01*
X80045195Y-118399775D01*
X80196549Y-118318875D01*
X80218994Y-118309577D01*
X80383232Y-118259757D01*
X80407056Y-118255018D01*
X80583939Y-118237597D01*
X80596093Y-118237000D01*
X83654000Y-118237000D01*
X85940000Y-115951000D01*
X85940000Y-111496092D01*
X85940597Y-111483938D01*
X85958018Y-111307056D01*
X85962757Y-111283232D01*
X86012577Y-111118994D01*
X86021875Y-111096549D01*
X86102775Y-110945195D01*
X86116272Y-110924995D01*
X86225149Y-110792328D01*
X86242328Y-110775149D01*
X86374995Y-110666272D01*
X86395195Y-110652775D01*
X86546549Y-110571875D01*
X86568994Y-110562577D01*
X86733232Y-110512757D01*
X86757056Y-110508018D01*
X86933939Y-110490597D01*
X86946093Y-110490000D01*
X90599693Y-110490000D01*
X90611847Y-110490597D01*
G37*
%TD.AperFunction*%
%TD*%
%TA.AperFunction,Conductor*%
%TO.N,GNDPWR*%
G36*
X139800917Y-42164147D02*
G01*
X139807047Y-42164448D01*
X139813058Y-42164892D01*
X139980886Y-42181421D01*
X139992910Y-42183205D01*
X140004792Y-42185568D01*
X140016584Y-42188521D01*
X140169181Y-42234810D01*
X140180626Y-42238906D01*
X140191829Y-42243547D01*
X140202818Y-42248745D01*
X140253215Y-42275682D01*
X140253217Y-42275683D01*
X140343435Y-42323905D01*
X140353850Y-42330147D01*
X140363953Y-42336898D01*
X140373722Y-42344144D01*
X140496959Y-42445282D01*
X140505975Y-42453454D01*
X140514544Y-42462023D01*
X140522716Y-42471039D01*
X140623854Y-42594276D01*
X140631100Y-42604045D01*
X140637847Y-42614142D01*
X140644101Y-42624577D01*
X140719249Y-42765170D01*
X140724451Y-42776168D01*
X140729090Y-42787367D01*
X140733191Y-42798827D01*
X140779471Y-42951393D01*
X140782428Y-42963199D01*
X140784794Y-42975095D01*
X140786579Y-42987129D01*
X140803104Y-43154903D01*
X140803551Y-43160970D01*
X140803850Y-43167053D01*
X140804000Y-43173141D01*
X140804000Y-48133000D01*
X135470000Y-48133000D01*
X135456950Y-48119950D01*
X135456950Y-48119949D01*
X134200000Y-46863000D01*
X130897998Y-46863000D01*
X129628000Y-48132998D01*
X129628000Y-63965643D01*
X129627850Y-63971731D01*
X129627551Y-63977814D01*
X129627104Y-63983881D01*
X129610579Y-64151656D01*
X129608794Y-64163690D01*
X129606428Y-64175586D01*
X129603471Y-64187392D01*
X129557191Y-64339958D01*
X129553090Y-64351418D01*
X129548451Y-64362617D01*
X129543249Y-64373615D01*
X129468101Y-64514208D01*
X129461842Y-64524651D01*
X129455100Y-64534740D01*
X129447854Y-64544509D01*
X129340898Y-64674835D01*
X129336926Y-64679440D01*
X129332845Y-64683943D01*
X129328645Y-64688354D01*
X127768354Y-66248645D01*
X127763953Y-66252835D01*
X127759440Y-66256926D01*
X127754835Y-66260898D01*
X127624509Y-66367854D01*
X127614740Y-66375100D01*
X127604651Y-66381842D01*
X127594208Y-66388101D01*
X127453615Y-66463249D01*
X127442617Y-66468451D01*
X127431418Y-66473090D01*
X127419958Y-66477191D01*
X127267392Y-66523471D01*
X127255586Y-66526428D01*
X127243690Y-66528794D01*
X127231656Y-66530579D01*
X127063881Y-66547104D01*
X127057814Y-66547551D01*
X127051731Y-66547850D01*
X127045643Y-66548000D01*
X124929000Y-66548000D01*
X123469247Y-68007753D01*
X123469243Y-68007762D01*
X123469240Y-68008431D01*
X123465024Y-68415896D01*
X123353022Y-79237955D01*
X123347637Y-79272839D01*
X123343078Y-79287790D01*
X123304696Y-79346173D01*
X123304688Y-79346180D01*
X123303046Y-79347573D01*
X123248573Y-79374314D01*
X123241581Y-79375798D01*
X123215836Y-79378500D01*
X121746163Y-79378500D01*
X121711227Y-79373477D01*
X121685985Y-79366065D01*
X121633240Y-79334769D01*
X120745547Y-78447076D01*
X120730126Y-78428286D01*
X120709514Y-78397438D01*
X120705229Y-78390547D01*
X120663836Y-78318853D01*
X120663835Y-78318852D01*
X120656750Y-78306580D01*
X120638509Y-78274985D01*
X120536015Y-78172491D01*
X120536013Y-78172490D01*
X120536011Y-78172488D01*
X120482242Y-78141444D01*
X120453808Y-78111624D01*
X120399007Y-78096939D01*
X120399007Y-78096940D01*
X120334740Y-78079720D01*
X120270475Y-78062500D01*
X120270474Y-78062500D01*
X120125525Y-78062500D01*
X119996994Y-78096939D01*
X119996993Y-78096940D01*
X119989338Y-78098991D01*
X119985510Y-78100017D01*
X119859991Y-78172485D01*
X119859984Y-78172490D01*
X119859968Y-78172505D01*
X119757505Y-78274968D01*
X119757490Y-78274984D01*
X119757485Y-78274992D01*
X119685017Y-78400509D01*
X119684989Y-78400578D01*
X119684748Y-78401511D01*
X119647500Y-78540525D01*
X119647500Y-78685474D01*
X119685013Y-78825477D01*
X119685017Y-78825488D01*
X119685018Y-78825489D01*
X119755635Y-78947802D01*
X119757123Y-78950568D01*
X119757353Y-78950877D01*
X119757491Y-78951015D01*
X119859985Y-79053509D01*
X119958866Y-79110598D01*
X119958867Y-79110599D01*
X119975545Y-79120228D01*
X119982438Y-79124514D01*
X119992043Y-79130931D01*
X119992043Y-79130932D01*
X120000701Y-79136717D01*
X120013286Y-79145126D01*
X120032076Y-79160547D01*
X121158230Y-80286701D01*
X121273270Y-80353119D01*
X121401581Y-80387500D01*
X123198006Y-80387500D01*
X123232942Y-80392523D01*
X123247940Y-80396927D01*
X123306704Y-80434686D01*
X123307667Y-80435797D01*
X123335268Y-80491286D01*
X123336995Y-80499428D01*
X123339687Y-80526440D01*
X123288335Y-85488254D01*
X123288125Y-85494303D01*
X123287766Y-85500364D01*
X123287262Y-85506383D01*
X123269231Y-85672881D01*
X123267346Y-85684820D01*
X123264889Y-85696614D01*
X123261849Y-85708316D01*
X123214600Y-85859488D01*
X123210436Y-85870836D01*
X123205740Y-85881929D01*
X123200490Y-85892819D01*
X123124835Y-86031969D01*
X123118550Y-86042295D01*
X123111800Y-86052257D01*
X123104538Y-86061923D01*
X123003357Y-86183758D01*
X122995187Y-86192673D01*
X122986613Y-86201158D01*
X122977620Y-86209229D01*
X122854740Y-86309147D01*
X122844993Y-86316312D01*
X122834949Y-86322966D01*
X122824566Y-86329139D01*
X122684653Y-86403345D01*
X122673711Y-86408482D01*
X122662568Y-86413064D01*
X122651175Y-86417111D01*
X122499529Y-86462791D01*
X122487805Y-86465708D01*
X122475990Y-86468043D01*
X122464023Y-86469807D01*
X122297327Y-86486116D01*
X122291302Y-86486557D01*
X122285262Y-86486852D01*
X122279213Y-86487000D01*
X114992390Y-86487000D01*
X114969138Y-86489500D01*
X113870093Y-86489500D01*
X113853229Y-86489914D01*
X113845285Y-86490109D01*
X113833126Y-86490706D01*
X113808399Y-86492530D01*
X113631523Y-86509950D01*
X113631503Y-86509952D01*
X113582449Y-86517228D01*
X113566347Y-86520431D01*
X113558612Y-86521970D01*
X113542490Y-86526008D01*
X113510502Y-86534021D01*
X113346259Y-86583842D01*
X113299541Y-86600558D01*
X113299504Y-86600573D01*
X113277103Y-86609853D01*
X113277079Y-86609863D01*
X113232269Y-86631058D01*
X113232264Y-86631060D01*
X113232259Y-86631063D01*
X113080905Y-86711963D01*
X113080897Y-86711967D01*
X113080891Y-86711971D01*
X113038359Y-86737463D01*
X113018129Y-86750981D01*
X112978329Y-86780499D01*
X112978299Y-86780522D01*
X112845656Y-86889379D01*
X112845631Y-86889401D01*
X112808884Y-86922707D01*
X112808877Y-86922715D01*
X112791715Y-86939877D01*
X112791707Y-86939884D01*
X112758401Y-86976631D01*
X112758379Y-86976656D01*
X112649522Y-87109299D01*
X112649499Y-87109329D01*
X112619981Y-87149129D01*
X112606463Y-87169359D01*
X112580971Y-87211891D01*
X112580963Y-87211905D01*
X112500063Y-87363259D01*
X112500058Y-87363269D01*
X112478863Y-87408079D01*
X112478853Y-87408103D01*
X112469573Y-87430504D01*
X112469558Y-87430541D01*
X112452842Y-87477259D01*
X112403021Y-87641502D01*
X112390970Y-87689613D01*
X112386228Y-87713447D01*
X112378954Y-87762490D01*
X112378949Y-87762534D01*
X112361530Y-87939398D01*
X112359706Y-87964125D01*
X112359109Y-87976284D01*
X112358500Y-88001108D01*
X112358500Y-90013245D01*
X112356000Y-90021758D01*
X112356000Y-92818692D01*
X112355403Y-92830847D01*
X112354214Y-92842918D01*
X112352428Y-92854958D01*
X112343858Y-92898035D01*
X112336802Y-92921292D01*
X112327634Y-92943426D01*
X112316176Y-92964863D01*
X112302094Y-92985939D01*
X112286672Y-93004731D01*
X112269731Y-93021672D01*
X112250939Y-93037094D01*
X112229863Y-93051176D01*
X112208428Y-93062634D01*
X112186295Y-93071802D01*
X112163036Y-93078858D01*
X112146640Y-93082119D01*
X112126989Y-93086029D01*
X112126988Y-93086029D01*
X112119960Y-93087427D01*
X112107927Y-93089212D01*
X112095850Y-93090402D01*
X112083691Y-93091000D01*
X111333143Y-93091000D01*
X111327063Y-93090851D01*
X111320971Y-93090551D01*
X111314904Y-93090104D01*
X111147129Y-93073579D01*
X111135095Y-93071794D01*
X111123199Y-93069428D01*
X111111393Y-93066471D01*
X110958827Y-93020191D01*
X110947367Y-93016090D01*
X110936168Y-93011451D01*
X110925170Y-93006249D01*
X110906173Y-92996095D01*
X110784569Y-92931096D01*
X110774142Y-92924847D01*
X110764045Y-92918100D01*
X110754276Y-92910854D01*
X110631039Y-92809716D01*
X110622023Y-92801544D01*
X110613454Y-92792975D01*
X110605282Y-92783959D01*
X110504144Y-92660722D01*
X110496898Y-92650953D01*
X110490147Y-92640850D01*
X110483905Y-92630435D01*
X110408745Y-92489821D01*
X110403551Y-92478840D01*
X110398903Y-92467619D01*
X110394807Y-92456170D01*
X110348521Y-92303584D01*
X110345566Y-92291783D01*
X110343205Y-92279909D01*
X110341421Y-92267882D01*
X110324892Y-92100058D01*
X110324448Y-92094047D01*
X110324147Y-92087917D01*
X110324000Y-92081857D01*
X110324000Y-78716471D01*
X112683499Y-78716471D01*
X112723864Y-78919394D01*
X112723870Y-78919421D01*
X112779409Y-79053505D01*
X112803055Y-79110590D01*
X112803063Y-79110605D01*
X112816646Y-79130933D01*
X112918025Y-79282659D01*
X113064336Y-79428970D01*
X113064340Y-79428973D01*
X113064342Y-79428975D01*
X113064345Y-79428977D01*
X113064349Y-79428980D01*
X113064348Y-79428980D01*
X113064411Y-79429032D01*
X113064448Y-79429046D01*
X113236402Y-79543941D01*
X113427580Y-79623130D01*
X113618540Y-79661114D01*
X113627559Y-79662908D01*
X113629794Y-79663409D01*
X113630532Y-79663500D01*
X114637466Y-79663500D01*
X114641586Y-79663500D01*
X114649435Y-79661118D01*
X114840420Y-79623130D01*
X115031598Y-79543941D01*
X115203655Y-79428977D01*
X115349977Y-79282655D01*
X115464941Y-79110598D01*
X115544130Y-78919420D01*
X115584500Y-78716465D01*
X115584500Y-78509535D01*
X115544130Y-78306580D01*
X115464941Y-78115402D01*
X115350046Y-77943449D01*
X115350036Y-77943417D01*
X115349980Y-77943348D01*
X115349980Y-77943349D01*
X115349977Y-77943345D01*
X115349975Y-77943342D01*
X115349973Y-77943340D01*
X115349970Y-77943336D01*
X115203662Y-77797028D01*
X115203655Y-77797022D01*
X115117626Y-77739540D01*
X115117625Y-77739540D01*
X115031604Y-77682062D01*
X115031595Y-77682057D01*
X114908010Y-77630867D01*
X114840420Y-77602870D01*
X114840412Y-77602868D01*
X114840404Y-77602866D01*
X114840394Y-77602864D01*
X114637471Y-77562500D01*
X114637469Y-77562500D01*
X114637465Y-77562500D01*
X113630535Y-77562500D01*
X113630530Y-77562500D01*
X113630528Y-77562500D01*
X113427604Y-77602864D01*
X113427579Y-77602870D01*
X113236404Y-77682057D01*
X113064337Y-77797027D01*
X112918027Y-77943337D01*
X112803057Y-78115404D01*
X112723870Y-78306579D01*
X112683500Y-78509527D01*
X112683500Y-78509530D01*
X112683500Y-78716469D01*
X112683500Y-78716471D01*
X112683499Y-78716471D01*
X110324000Y-78716471D01*
X110324000Y-76176471D01*
X112683499Y-76176471D01*
X112723864Y-76379394D01*
X112723868Y-76379412D01*
X112723870Y-76379420D01*
X112803058Y-76570596D01*
X112918023Y-76742655D01*
X112918027Y-76742661D01*
X113064336Y-76888970D01*
X113064340Y-76888973D01*
X113064342Y-76888975D01*
X113064345Y-76888977D01*
X113064349Y-76888980D01*
X113064348Y-76888980D01*
X113064411Y-76889032D01*
X113064448Y-76889046D01*
X113236402Y-77003941D01*
X113427580Y-77083130D01*
X113618540Y-77121114D01*
X113627559Y-77122908D01*
X113629794Y-77123409D01*
X113630532Y-77123500D01*
X114637466Y-77123500D01*
X114641586Y-77123500D01*
X114649435Y-77121118D01*
X114840420Y-77083130D01*
X115031598Y-77003941D01*
X115203655Y-76888977D01*
X115349977Y-76742655D01*
X115464941Y-76570598D01*
X115544130Y-76379420D01*
X115584500Y-76176465D01*
X115584500Y-75969535D01*
X115544130Y-75766580D01*
X115464941Y-75575402D01*
X115350046Y-75403449D01*
X115350036Y-75403417D01*
X115349980Y-75403348D01*
X115349980Y-75403349D01*
X115349977Y-75403345D01*
X115349975Y-75403342D01*
X115349973Y-75403340D01*
X115349970Y-75403336D01*
X115203662Y-75257028D01*
X115203655Y-75257022D01*
X115117626Y-75199540D01*
X115117625Y-75199540D01*
X115031604Y-75142062D01*
X115031595Y-75142057D01*
X114908010Y-75090867D01*
X114840420Y-75062870D01*
X114840412Y-75062868D01*
X114840404Y-75062866D01*
X114840394Y-75062864D01*
X114637471Y-75022500D01*
X114637469Y-75022500D01*
X114637465Y-75022500D01*
X113630535Y-75022500D01*
X113630530Y-75022500D01*
X113630528Y-75022500D01*
X113427604Y-75062864D01*
X113427579Y-75062870D01*
X113236404Y-75142057D01*
X113064337Y-75257027D01*
X112918027Y-75403337D01*
X112803057Y-75575404D01*
X112723870Y-75766579D01*
X112723864Y-75766604D01*
X112683500Y-75969527D01*
X112683500Y-75969530D01*
X112683500Y-76176469D01*
X112683500Y-76176471D01*
X112683499Y-76176471D01*
X110324000Y-76176471D01*
X110324000Y-73636471D01*
X112683499Y-73636471D01*
X112723864Y-73839394D01*
X112723868Y-73839412D01*
X112723870Y-73839420D01*
X112803058Y-74030596D01*
X112918023Y-74202655D01*
X112918027Y-74202661D01*
X113064336Y-74348970D01*
X113064340Y-74348973D01*
X113064342Y-74348975D01*
X113064345Y-74348977D01*
X113064349Y-74348980D01*
X113064348Y-74348980D01*
X113064411Y-74349032D01*
X113064448Y-74349046D01*
X113236402Y-74463941D01*
X113427580Y-74543130D01*
X113618540Y-74581114D01*
X113627559Y-74582908D01*
X113629794Y-74583409D01*
X113630532Y-74583500D01*
X114637466Y-74583500D01*
X114641586Y-74583500D01*
X114649435Y-74581118D01*
X114840420Y-74543130D01*
X115031598Y-74463941D01*
X115203655Y-74348977D01*
X115349977Y-74202655D01*
X115464941Y-74030598D01*
X115544130Y-73839420D01*
X115584500Y-73636465D01*
X115584500Y-73429535D01*
X115544130Y-73226580D01*
X115464941Y-73035402D01*
X115350046Y-72863449D01*
X115350036Y-72863417D01*
X115349980Y-72863348D01*
X115349980Y-72863349D01*
X115349977Y-72863345D01*
X115349975Y-72863342D01*
X115349973Y-72863340D01*
X115349970Y-72863336D01*
X115203662Y-72717028D01*
X115203655Y-72717022D01*
X115117626Y-72659540D01*
X115117625Y-72659540D01*
X115031604Y-72602062D01*
X115031595Y-72602057D01*
X114908010Y-72550867D01*
X114840420Y-72522870D01*
X114840412Y-72522868D01*
X114840404Y-72522866D01*
X114840394Y-72522864D01*
X114637471Y-72482500D01*
X114637469Y-72482500D01*
X114637465Y-72482500D01*
X113630535Y-72482500D01*
X113630530Y-72482500D01*
X113630528Y-72482500D01*
X113427604Y-72522864D01*
X113427579Y-72522870D01*
X113236404Y-72602057D01*
X113064337Y-72717027D01*
X112918027Y-72863337D01*
X112803057Y-73035404D01*
X112723870Y-73226579D01*
X112723864Y-73226604D01*
X112683500Y-73429527D01*
X112683500Y-73429530D01*
X112683500Y-73636469D01*
X112683500Y-73636471D01*
X112683499Y-73636471D01*
X110324000Y-73636471D01*
X110324000Y-68109125D01*
X113953500Y-68109125D01*
X113953500Y-69304876D01*
X113953659Y-69306806D01*
X113953885Y-69308454D01*
X113959907Y-69364482D01*
X113987690Y-69438971D01*
X114010202Y-69499328D01*
X114010203Y-69499330D01*
X114010204Y-69499332D01*
X114010205Y-69499333D01*
X114096450Y-69614542D01*
X114096452Y-69614544D01*
X114096455Y-69614547D01*
X114211664Y-69700793D01*
X114211671Y-69700797D01*
X114261155Y-69719253D01*
X114296513Y-69745721D01*
X114353444Y-69751835D01*
X114353443Y-69751839D01*
X114353458Y-69751836D01*
X114406127Y-69757500D01*
X116401872Y-69757499D01*
X116461483Y-69751091D01*
X116596331Y-69700796D01*
X116711546Y-69614546D01*
X116797796Y-69499331D01*
X116848091Y-69364483D01*
X116854500Y-69304873D01*
X116854499Y-68109128D01*
X116848091Y-68049517D01*
X116848091Y-68049516D01*
X116848089Y-68049510D01*
X116832530Y-68007796D01*
X116832525Y-68007783D01*
X116832514Y-68007754D01*
X116797797Y-67914671D01*
X116797793Y-67914664D01*
X116711547Y-67799455D01*
X116711544Y-67799452D01*
X116711542Y-67799450D01*
X116653616Y-67756086D01*
X116596335Y-67713206D01*
X116596332Y-67713204D01*
X116596330Y-67713203D01*
X116596328Y-67713202D01*
X116546844Y-67694746D01*
X116511497Y-67668284D01*
X116409583Y-67657328D01*
X116404742Y-67656500D01*
X116401881Y-67656500D01*
X116401873Y-67656500D01*
X116401864Y-67656500D01*
X114406129Y-67656500D01*
X114406123Y-67656500D01*
X114404192Y-67656659D01*
X114402545Y-67656885D01*
X114346516Y-67662908D01*
X114261152Y-67694747D01*
X114211666Y-67713204D01*
X114211665Y-67713205D01*
X114096456Y-67799450D01*
X114096450Y-67799456D01*
X114010205Y-67914665D01*
X114010203Y-67914668D01*
X113959908Y-68049516D01*
X113953500Y-68109125D01*
X110324000Y-68109125D01*
X110324000Y-66270471D01*
X113953499Y-66270471D01*
X113992881Y-66468451D01*
X113993868Y-66473412D01*
X113993870Y-66473420D01*
X114073058Y-66664596D01*
X114188023Y-66836655D01*
X114188027Y-66836661D01*
X114334336Y-66982970D01*
X114334340Y-66982973D01*
X114334342Y-66982975D01*
X114334345Y-66982977D01*
X114334349Y-66982980D01*
X114334348Y-66982980D01*
X114334411Y-66983032D01*
X114334448Y-66983046D01*
X114506402Y-67097941D01*
X114697580Y-67177130D01*
X114888540Y-67215114D01*
X114897559Y-67216908D01*
X114899794Y-67217409D01*
X114900532Y-67217500D01*
X115907466Y-67217500D01*
X115911586Y-67217500D01*
X115919435Y-67215118D01*
X116110420Y-67177130D01*
X116301598Y-67097941D01*
X116473655Y-66982977D01*
X116619977Y-66836655D01*
X116734941Y-66664598D01*
X116814130Y-66473420D01*
X116854500Y-66270465D01*
X116854500Y-66063535D01*
X116814130Y-65860580D01*
X116734941Y-65669402D01*
X116620046Y-65497449D01*
X116620036Y-65497417D01*
X116619980Y-65497348D01*
X116619980Y-65497349D01*
X116619977Y-65497345D01*
X116619975Y-65497342D01*
X116619973Y-65497340D01*
X116619970Y-65497336D01*
X116473662Y-65351028D01*
X116473655Y-65351022D01*
X116387626Y-65293540D01*
X116387625Y-65293540D01*
X116301604Y-65236062D01*
X116301595Y-65236057D01*
X116178010Y-65184867D01*
X116110420Y-65156870D01*
X116110412Y-65156868D01*
X116110404Y-65156866D01*
X116110394Y-65156864D01*
X115907471Y-65116500D01*
X115907469Y-65116500D01*
X115907465Y-65116500D01*
X114900535Y-65116500D01*
X114900530Y-65116500D01*
X114900528Y-65116500D01*
X114697604Y-65156864D01*
X114697579Y-65156870D01*
X114506404Y-65236057D01*
X114334337Y-65351027D01*
X114188027Y-65497337D01*
X114073057Y-65669404D01*
X113993870Y-65860579D01*
X113993864Y-65860604D01*
X113953500Y-66063527D01*
X113953500Y-66063530D01*
X113953500Y-66270469D01*
X113953500Y-66270471D01*
X113953499Y-66270471D01*
X110324000Y-66270471D01*
X110324000Y-63730471D01*
X113953499Y-63730471D01*
X113993864Y-63933394D01*
X113993868Y-63933412D01*
X113993870Y-63933420D01*
X114073058Y-64124596D01*
X114188023Y-64296655D01*
X114188027Y-64296661D01*
X114334336Y-64442970D01*
X114334340Y-64442973D01*
X114334342Y-64442975D01*
X114334345Y-64442977D01*
X114334349Y-64442980D01*
X114334348Y-64442980D01*
X114334411Y-64443032D01*
X114334448Y-64443046D01*
X114506402Y-64557941D01*
X114697580Y-64637130D01*
X114897573Y-64676910D01*
X114899792Y-64677409D01*
X114900532Y-64677500D01*
X115907466Y-64677500D01*
X115911586Y-64677500D01*
X115919435Y-64675118D01*
X116110420Y-64637130D01*
X116301598Y-64557941D01*
X116473655Y-64442977D01*
X116619977Y-64296655D01*
X116734941Y-64124598D01*
X116814130Y-63933420D01*
X116854500Y-63730465D01*
X116854500Y-63523535D01*
X116814130Y-63320580D01*
X116734941Y-63129402D01*
X116620046Y-62957449D01*
X116620036Y-62957417D01*
X116619980Y-62957348D01*
X116619980Y-62957349D01*
X116619977Y-62957345D01*
X116619975Y-62957342D01*
X116619973Y-62957340D01*
X116619970Y-62957336D01*
X116473662Y-62811028D01*
X116473655Y-62811022D01*
X116323759Y-62710866D01*
X116301598Y-62696059D01*
X116301596Y-62696058D01*
X116245602Y-62672864D01*
X116110420Y-62616870D01*
X116110412Y-62616868D01*
X116110404Y-62616866D01*
X116110394Y-62616864D01*
X115907471Y-62576500D01*
X115907469Y-62576500D01*
X115907465Y-62576500D01*
X114900535Y-62576500D01*
X114900530Y-62576500D01*
X114900528Y-62576500D01*
X114697604Y-62616864D01*
X114697579Y-62616870D01*
X114506404Y-62696057D01*
X114334337Y-62811027D01*
X114188027Y-62957337D01*
X114073057Y-63129404D01*
X113993870Y-63320579D01*
X113993864Y-63320604D01*
X113953500Y-63523527D01*
X113953500Y-63523530D01*
X113953500Y-63730469D01*
X113953500Y-63730471D01*
X113953499Y-63730471D01*
X110324000Y-63730471D01*
X110324000Y-54842507D01*
X110324217Y-54835166D01*
X110324655Y-54827796D01*
X110325304Y-54820513D01*
X110452941Y-53750125D01*
X116377500Y-53750125D01*
X116377500Y-53895075D01*
X116405637Y-54000082D01*
X116415016Y-54035086D01*
X116415017Y-54035087D01*
X116462225Y-54116854D01*
X116474612Y-54146758D01*
X116482774Y-54177217D01*
X116487000Y-54209313D01*
X116487000Y-57589061D01*
X116498005Y-57630129D01*
X116498005Y-57630132D01*
X116498006Y-57630132D01*
X116517054Y-57701221D01*
X116525212Y-57715352D01*
X116525216Y-57715357D01*
X116535092Y-57732463D01*
X116535093Y-57732464D01*
X116575111Y-57801778D01*
X116575112Y-57801779D01*
X116575113Y-57801781D01*
X116575117Y-57801786D01*
X116723712Y-57950381D01*
X116743417Y-57976060D01*
X116759187Y-58003373D01*
X116771575Y-58033280D01*
X116796012Y-58124477D01*
X116796016Y-58124486D01*
X116796021Y-58124496D01*
X116866635Y-58246802D01*
X116868123Y-58249568D01*
X116868353Y-58249877D01*
X116970985Y-58352509D01*
X116971674Y-58353005D01*
X116974178Y-58354353D01*
X117093069Y-58422995D01*
X117096087Y-58424869D01*
X117096514Y-58424983D01*
X117096515Y-58424984D01*
X117236525Y-58462500D01*
X117236528Y-58462500D01*
X117381472Y-58462500D01*
X117381475Y-58462500D01*
X117521485Y-58424984D01*
X117647015Y-58352509D01*
X117749509Y-58250015D01*
X117821984Y-58124485D01*
X117859500Y-57984475D01*
X117859500Y-57839525D01*
X117821984Y-57699515D01*
X117749509Y-57573985D01*
X117647015Y-57471491D01*
X117647013Y-57471490D01*
X117647011Y-57471488D01*
X117521488Y-57399017D01*
X117521483Y-57399015D01*
X117492838Y-57391339D01*
X117492836Y-57391338D01*
X117478128Y-57387397D01*
X117445684Y-57373504D01*
X117432333Y-57365366D01*
X117385337Y-57313667D01*
X117381458Y-57305681D01*
X117369000Y-57251512D01*
X117369000Y-54209313D01*
X117373225Y-54177221D01*
X117381386Y-54146762D01*
X117393775Y-54116853D01*
X117440981Y-54035090D01*
X117440982Y-54035089D01*
X117440983Y-54035086D01*
X117440984Y-54035085D01*
X117478500Y-53895075D01*
X117478500Y-53750125D01*
X117440984Y-53610115D01*
X117368509Y-53484585D01*
X117266015Y-53382091D01*
X117265877Y-53381953D01*
X117265568Y-53381723D01*
X117262802Y-53380235D01*
X117212243Y-53351045D01*
X117183808Y-53321224D01*
X117129007Y-53306539D01*
X117129007Y-53306540D01*
X117064740Y-53289320D01*
X117000475Y-53272100D01*
X117000474Y-53272100D01*
X116855525Y-53272100D01*
X116726994Y-53306539D01*
X116726993Y-53306540D01*
X116719338Y-53308591D01*
X116715510Y-53309617D01*
X116589991Y-53382085D01*
X116589984Y-53382090D01*
X116589968Y-53382105D01*
X116487505Y-53484568D01*
X116487490Y-53484584D01*
X116487485Y-53484592D01*
X116415017Y-53610109D01*
X116415004Y-53610141D01*
X116414909Y-53610514D01*
X116377500Y-53750125D01*
X110452941Y-53750125D01*
X110455661Y-53727316D01*
X111095753Y-48359339D01*
X111669508Y-43547679D01*
X111678629Y-43513595D01*
X111684781Y-43499217D01*
X111729242Y-43445331D01*
X111730458Y-43444507D01*
X111788814Y-43423677D01*
X111797116Y-43422926D01*
X111824252Y-43423452D01*
X112403078Y-43498596D01*
X112404059Y-43498728D01*
X112405558Y-43498938D01*
X112406602Y-43499090D01*
X113614341Y-43681538D01*
X113615328Y-43681693D01*
X113616839Y-43681937D01*
X113617854Y-43682106D01*
X114821277Y-43889630D01*
X114822386Y-43889826D01*
X114823856Y-43890095D01*
X114824899Y-43890292D01*
X116023982Y-44122886D01*
X116024956Y-44123080D01*
X116026384Y-44123373D01*
X116027387Y-44123583D01*
X117221274Y-44381086D01*
X117222473Y-44381351D01*
X117223777Y-44381646D01*
X117224912Y-44381910D01*
X118260054Y-44627848D01*
X118413030Y-44664194D01*
X118414310Y-44664506D01*
X118415616Y-44664831D01*
X118416825Y-44665138D01*
X118654179Y-44726782D01*
X119426339Y-44927320D01*
X119599649Y-44972330D01*
X119599857Y-44972385D01*
X119600663Y-44972598D01*
X119601399Y-44972794D01*
X119894253Y-45052152D01*
X120490019Y-45176994D01*
X121092015Y-45267120D01*
X121698221Y-45322227D01*
X122306601Y-45342129D01*
X122306606Y-45342128D01*
X122306622Y-45342129D01*
X122306623Y-45342128D01*
X122306624Y-45342129D01*
X122718241Y-45331732D01*
X122718242Y-45331732D01*
X122733385Y-45331349D01*
X122915113Y-45326760D01*
X123429083Y-45283896D01*
X123519836Y-45276328D01*
X123520712Y-45276269D01*
X123520815Y-45276259D01*
X123522535Y-45276103D01*
X123523012Y-45276063D01*
X123525421Y-45275644D01*
X124121881Y-45190886D01*
X124123700Y-45190667D01*
X124124033Y-45190600D01*
X124124791Y-45190450D01*
X124126580Y-45190100D01*
X124127126Y-45189976D01*
X124485060Y-45117752D01*
X124721035Y-45070137D01*
X124789436Y-45052156D01*
X125091689Y-44972700D01*
X125309747Y-44915377D01*
X125888499Y-44726782D01*
X126455356Y-44504981D01*
X127008415Y-44250721D01*
X127545818Y-43964854D01*
X128065762Y-43648340D01*
X128566500Y-43302242D01*
X129046352Y-42927723D01*
X129503705Y-42526039D01*
X129621246Y-42410077D01*
X129821776Y-42212240D01*
X129850160Y-42191291D01*
X129873472Y-42178765D01*
X129932157Y-42164000D01*
X139794857Y-42164000D01*
X139800917Y-42164147D01*
G37*
%TD.AperFunction*%
%TD*%
%TA.AperFunction,Conductor*%
%TO.N,Net-(Q1-S)*%
G36*
X72778652Y-132461578D02*
G01*
X72952760Y-132478451D01*
X72976222Y-132483042D01*
X73138079Y-132531313D01*
X73160230Y-132540327D01*
X73309796Y-132618777D01*
X73329811Y-132631880D01*
X73461533Y-132737593D01*
X73478655Y-132754293D01*
X73587624Y-132883330D01*
X73601224Y-132903010D01*
X73683385Y-133050566D01*
X73692952Y-133072493D01*
X73745250Y-133233083D01*
X73750429Y-133256438D01*
X73771647Y-133430057D01*
X73772524Y-133442000D01*
X73798478Y-134480115D01*
X73798495Y-134480895D01*
X73798706Y-134492176D01*
X73798726Y-134493716D01*
X73798798Y-134505172D01*
X73798800Y-134505951D01*
X73798800Y-138058907D01*
X73798203Y-138071061D01*
X73780782Y-138247934D01*
X73776040Y-138271775D01*
X73726224Y-138435998D01*
X73716921Y-138458456D01*
X73636027Y-138609798D01*
X73622522Y-138630010D01*
X73513654Y-138762666D01*
X73496466Y-138779854D01*
X73363810Y-138888722D01*
X73343598Y-138902227D01*
X73192256Y-138983121D01*
X73169798Y-138992424D01*
X73005575Y-139042240D01*
X72981734Y-139046982D01*
X72804861Y-139064403D01*
X72792707Y-139065000D01*
X72110736Y-139065000D01*
X72099253Y-139064467D01*
X71932042Y-139048915D01*
X71909470Y-139044679D01*
X71845597Y-139026434D01*
X71753550Y-139000142D01*
X71732146Y-138991816D01*
X71587114Y-138919288D01*
X71567618Y-138907161D01*
X71433838Y-138805629D01*
X71425020Y-138798268D01*
X70618444Y-138058907D01*
X68997004Y-136572587D01*
X68988016Y-136563447D01*
X68863627Y-136423114D01*
X68848690Y-136402264D01*
X68759035Y-136244961D01*
X68748708Y-136221484D01*
X68693335Y-136049107D01*
X68688059Y-136024012D01*
X68668665Y-135837493D01*
X68668000Y-135824669D01*
X68668000Y-133104125D01*
X68669061Y-133087940D01*
X68687506Y-132947836D01*
X68695884Y-132916568D01*
X68746827Y-132793581D01*
X68763012Y-132765548D01*
X68844053Y-132659932D01*
X68866932Y-132637053D01*
X68972549Y-132556010D01*
X69000579Y-132539827D01*
X69123569Y-132488883D01*
X69154835Y-132480506D01*
X69294941Y-132462061D01*
X69311126Y-132461000D01*
X72766691Y-132461000D01*
X72778652Y-132461578D01*
G37*
%TD.AperFunction*%
%TD*%
%TA.AperFunction,Conductor*%
%TO.N,+15V_SEC*%
G36*
X115228279Y-86995655D02*
G01*
X115413366Y-87014749D01*
X115438278Y-87019945D01*
X115609456Y-87074478D01*
X115632784Y-87084650D01*
X115789229Y-87172984D01*
X115809990Y-87187706D01*
X115949927Y-87310345D01*
X115959065Y-87319224D01*
X116080686Y-87450201D01*
X117780714Y-89281000D01*
X121754000Y-89281000D01*
X121995788Y-89281000D01*
X122019980Y-89283383D01*
X122081011Y-89295523D01*
X122125709Y-89314037D01*
X122167096Y-89341691D01*
X122201309Y-89375904D01*
X122228962Y-89417291D01*
X122247476Y-89461987D01*
X122259617Y-89523019D01*
X122262000Y-89547212D01*
X122262000Y-92824787D01*
X122259617Y-92848980D01*
X122247476Y-92910012D01*
X122228962Y-92954708D01*
X122201309Y-92996095D01*
X122167095Y-93030309D01*
X122125708Y-93057962D01*
X122081012Y-93076476D01*
X122032989Y-93086029D01*
X122019978Y-93088617D01*
X121995788Y-93091000D01*
X121754000Y-93091000D01*
X113130212Y-93091000D01*
X113106021Y-93088617D01*
X113089690Y-93085368D01*
X113044987Y-93076476D01*
X113000291Y-93057962D01*
X112958904Y-93030309D01*
X112924691Y-92996096D01*
X112897037Y-92954708D01*
X112878523Y-92910010D01*
X112866383Y-92848978D01*
X112864000Y-92824787D01*
X112864000Y-88001092D01*
X112864597Y-87988938D01*
X112882018Y-87812056D01*
X112886757Y-87788232D01*
X112936577Y-87623994D01*
X112945875Y-87601549D01*
X113026775Y-87450195D01*
X113040272Y-87429995D01*
X113149149Y-87297328D01*
X113166328Y-87280149D01*
X113298995Y-87171272D01*
X113319195Y-87157775D01*
X113470549Y-87076875D01*
X113492994Y-87067577D01*
X113657232Y-87017757D01*
X113681056Y-87013018D01*
X113857939Y-86995597D01*
X113870093Y-86995000D01*
X115215554Y-86995000D01*
X115228279Y-86995655D01*
G37*
%TD.AperFunction*%
%TD*%
M02*
