M48
; DRILL file KiCad 10.0.6-10.0.6~ubuntu24.04.1 date 2026-09-10T22:49:43
; FORMAT={-:-/ absolute / metric / decimal}
; #@! TF.CreationDate,2026-09-10T22:49:43-03:00
; #@! TF.GenerationSoftware,Kicad,Pcbnew,10.0.6-10.0.6~ubuntu24.04.1
; #@! TF.FileFunction,Plated,1,2,PTH
FMAT,2
METRIC
; #@! TA.AperFunction,Plated,PTH,ViaDrill
T1C0.300
; #@! TA.AperFunction,Plated,PTH,ViaDrill
T2C0.600
; #@! TA.AperFunction,Plated,PTH,ComponentDrill
T3C0.600
; #@! TA.AperFunction,Plated,PTH,ComponentDrill
T4C0.800
; #@! TA.AperFunction,Plated,PTH,ComponentDrill
T5C0.900
; #@! TA.AperFunction,Plated,PTH,ComponentDrill
T6C1.000
; #@! TA.AperFunction,Plated,PTH,ComponentDrill
T7C1.075
; #@! TA.AperFunction,Plated,PTH,ComponentDrill
T8C1.100
; #@! TA.AperFunction,Plated,PTH,ComponentDrill
T9C1.200
; #@! TA.AperFunction,Plated,PTH,ComponentDrill
T10C1.700
; #@! TA.AperFunction,Plated,PTH,ViaDrill
T11C2.000
; #@! TA.AperFunction,Plated,PTH,ComponentDrill
T12C2.000
; #@! TA.AperFunction,Plated,PTH,ComponentDrill
T13C2.750
; #@! TA.AperFunction,Plated,PTH,ComponentDrill
T14C4.300
%
G90
G05
T1
X41.824Y-80.215
X44.324Y-75.885
X46.824Y-71.555
X46.824Y-80.215
X46.824Y-97.536
X46.824Y-106.196
X49.324Y-75.885
X49.324Y-101.866
X50.574Y-93.206
X50.634Y-120.574
X50.761Y-105.791
X51.824Y-88.876
X51.824Y-132.177
X52.92Y-113.157
X52.92Y-120.523
X54.324Y-84.545
X54.324Y-93.206
X54.444Y-105.791
X55.206Y-113.157
X55.206Y-120.555
X55.574Y-75.885
X55.714Y-135.382
X56.824Y-88.876
X57.111Y-136.271
X57.492Y-105.791
X57.492Y-120.523
X57.492Y-134.366
X57.492Y-141.478
X59.143Y-78.232
X59.324Y-84.545
X59.778Y-120.523
X60.159Y-115.951
X60.286Y-105.791
X61.824Y-71.555
X61.824Y-88.876
X61.824Y-97.536
X62.064Y-120.523
X63.08Y-87.757
X63.08Y-90.551
X63.08Y-92.964
X63.08Y-96.139
X64.324Y-49.904
X64.324Y-101.866
X64.324Y-127.847
X64.35Y-120.523
X64.731Y-115.443
X65.493Y-100.203
X65.493Y-100.965
X66.255Y-100.203
X66.255Y-100.965
X66.824Y-45.574
X66.824Y-54.235
X66.824Y-62.895
X66.824Y-97.536
X66.824Y-106.196
X67.017Y-100.203
X67.017Y-100.965
X68.033Y-127.254
X69.049Y-125.095
X69.049Y-125.857
X69.049Y-135.382
X69.324Y-58.565
X69.324Y-93.206
X69.324Y-101.866
X69.324Y-127.847
X69.684Y-83.947
X69.811Y-74.168
X69.811Y-125.095
X69.811Y-125.857
X70.573Y-125.095
X70.573Y-125.857
X70.954Y-83.947
X71.335Y-125.095
X71.335Y-125.857
X71.589Y-78.232
X71.824Y-45.574
X71.824Y-62.895
X71.824Y-97.536
X71.824Y-106.196
X71.824Y-123.517
X72.097Y-125.095
X72.097Y-125.857
X72.605Y-77.343
X72.605Y-87.376
X72.859Y-125.095
X72.859Y-125.857
X74.002Y-90.551
X74.002Y-91.313
X74.324Y-49.904
X74.324Y-58.565
X74.324Y-67.225
X74.324Y-75.885
X74.324Y-84.545
X76.824Y-54.235
X76.824Y-62.895
X76.824Y-80.215
X76.824Y-88.876
X76.824Y-123.517
X79.324Y-58.565
X79.324Y-67.225
X79.324Y-75.885
X79.324Y-84.545
X79.324Y-94.456
X80.923Y-75.501
X80.987Y-72.644
X81.824Y-62.895
X81.824Y-71.555
X81.824Y-80.215
X81.824Y-88.876
X84.987Y-79.566
X85.114Y-76.772
X86.194Y-70.993
X86.824Y-71.555
X86.824Y-80.215
X86.824Y-88.876
X89.324Y-75.885
X89.324Y-84.545
X89.324Y-93.206
X91.02Y-91.821
X91.824Y-62.895
X91.824Y-71.555
X94.324Y-75.885
X94.83Y-63.119
X94.83Y-64.389
X96.824Y-62.895
X99.084Y-83.502
X99.324Y-58.565
X99.324Y-67.225
X101.824Y-62.895
X104.324Y-58.565
X104.324Y-84.545
X106.824Y-71.555
X115.023Y-83.312
X115.023Y-84.201
X115.023Y-84.963
X115.023Y-85.725
X116.928Y-53.823
X117.309Y-57.912
X119.087Y-51.562
X119.595Y-62.738
X120.198Y-78.613
X126.453Y-52.705
X126.834Y-156.845
X133.311Y-131.191
X133.311Y-131.953
X133.311Y-132.715
X133.311Y-133.477
X133.311Y-134.239
X133.311Y-135.001
X134.073Y-131.191
X134.073Y-131.953
X134.073Y-132.715
X134.073Y-133.477
X134.073Y-134.239
X134.073Y-135.001
T2
X62.889Y-111.569
T3
X96.141Y-74.152
X96.141Y-129.302
X97.085Y-71.872
X97.085Y-76.433
X97.085Y-127.021
X97.085Y-131.582
X99.366Y-70.927
X99.366Y-77.377
X99.366Y-126.077
X99.366Y-132.527
X101.646Y-71.872
X101.646Y-76.433
X101.646Y-127.021
X101.646Y-131.582
X102.591Y-74.152
X102.591Y-129.302
T4
X88.226Y-73.025
X90.766Y-75.565
X93.306Y-73.025
X105.244Y-61.087
X105.244Y-63.627
X105.244Y-66.167
X105.244Y-68.707
X106.514Y-73.533
X106.514Y-76.073
X106.514Y-78.613
X106.514Y-81.153
X114.134Y-73.533
X114.134Y-76.073
X114.134Y-78.613
X114.134Y-81.153
X115.404Y-61.087
X115.404Y-63.627
X115.404Y-66.167
X115.404Y-68.707
T5
X47.967Y-94.012
X47.967Y-96.552
X116.42Y-144.907
X116.42Y-147.447
T6
X50.38Y-82.464
X51.65Y-80.264
X52.92Y-78.064
X54.19Y-75.865
X78.32Y-90.932
X78.32Y-93.472
X78.32Y-96.012
X78.32Y-98.552
X78.32Y-101.092
X78.32Y-103.632
X78.32Y-106.172
X78.32Y-108.712
X80.86Y-90.932
X80.86Y-93.472
X80.86Y-96.012
X80.86Y-98.552
X80.86Y-101.092
X80.86Y-103.632
X80.86Y-106.172
X80.86Y-108.712
X84.162Y-130.803
X84.162Y-138.303
X119.494Y-96.036
X119.494Y-107.036
X138.852Y-88.519
X148.852Y-88.519
T7
X106.26Y-88.265
X108.8Y-88.265
X111.34Y-88.265
X113.88Y-88.265
T8
X72.786Y-138.013
X75.045Y-139.174
X77.304Y-140.335
X128.612Y-88.265
X131.152Y-88.265
X133.692Y-88.265
T9
X90.512Y-120.269
X90.512Y-140.589
T10
X129.494Y-99.036
X129.494Y-104.036
T11
X58.783Y-129.405
T12
X138.137Y-44.726
X138.137Y-158.728
X148.137Y-44.726
X148.137Y-158.728
T13
X123.746Y-143.169
X148.424Y-118.491
T14
X99.366Y-74.152
X99.366Y-129.302
T12
G00X88.607Y-104.787
M15
G01X88.607Y-106.287
M16
G05
G00X88.607Y-112.787
M15
G01X88.607Y-114.287
M16
G05
M30
