ISO-10303-21;
HEADER;
/* Generated by software containing ST-Developer
 * from STEP Tools, Inc. (www.steptools.com) 
 */

FILE_DESCRIPTION(
/* description */ (''),
/* implementation_level */ '2;1');

FILE_NAME(
/* name */ 'resistor_rx24_10w.step',
/* time_stamp */ '2026-06-26T22:01:51-03:00',
/* author */ (''),
/* organization */ (''),
/* preprocessor_version */ 'ST-DEVELOPER v20.1',
/* originating_system */ 'Autodesk Translation Framework v15.8.0.0',
/* authorisation */ '');

FILE_SCHEMA (('AUTOMOTIVE_DESIGN { 1 0 10303 214 3 1 1 }'));
ENDSEC;

DATA;
#10=MECHANICAL_DESIGN_GEOMETRIC_PRESENTATION_REPRESENTATION('',(#17,#18,
#19,#20),#850);
#11=SHAPE_REPRESENTATION_RELATIONSHIP('SRR','None',#857,#12);
#12=ADVANCED_BREP_SHAPE_REPRESENTATION('',(#21,#22,#23,#24),#849);
#13=(
BOUNDED_SURFACE()
B_SPLINE_SURFACE(2,2,((#766,#767,#768),(#769,#770,#771),(#772,#773,#774),
(#775,#776,#777),(#778,#779,#780),(#781,#782,#783),(#784,#785,#786),(#787,
#788,#789),(#790,#791,#792)),.UNSPECIFIED.,.F.,.F.,.F.)
B_SPLINE_SURFACE_WITH_KNOTS((3,2,2,2,3),(3,3),(-2.49809154479651,-1.24904577239826,
0.,1.24904577239826,2.49809154479651),(-3.14159265358979,-1.57079632679488),
 .UNSPECIFIED.)
GEOMETRIC_REPRESENTATION_ITEM()
RATIONAL_B_SPLINE_SURFACE(((1.,0.707106781186543,1.),(0.81124218517556,
0.573634850322227,0.81124218517556),(1.,0.707106781186543,1.),(0.81124218517556,
0.573634850322228,0.81124218517556),(1.,0.707106781186543,1.),(0.81124218517556,
0.573634850322228,0.81124218517556),(1.,0.707106781186543,1.),(0.81124218517556,
0.573634850322227,0.81124218517556),(1.,0.707106781186543,1.)))
REPRESENTATION_ITEM('')
SURFACE()
);
#14=(
BOUNDED_SURFACE()
B_SPLINE_SURFACE(2,2,((#812,#813,#814),(#815,#816,#817),(#818,#819,#820),
(#821,#822,#823),(#824,#825,#826),(#827,#828,#829),(#830,#831,#832),(#833,
#834,#835),(#836,#837,#838)),.UNSPECIFIED.,.F.,.F.,.F.)
B_SPLINE_SURFACE_WITH_KNOTS((3,2,2,2,3),(3,3),(-2.49809154479651,-1.24904577239826,
0.,1.24904577239826,2.49809154479651),(-3.14159265358979,-1.57079632679488),
 .UNSPECIFIED.)
GEOMETRIC_REPRESENTATION_ITEM()
RATIONAL_B_SPLINE_SURFACE(((1.,0.707106781186543,1.),(0.81124218517556,
0.573634850322227,0.81124218517556),(1.,0.707106781186543,1.),(0.81124218517556,
0.573634850322228,0.81124218517556),(1.,0.707106781186543,1.),(0.81124218517556,
0.573634850322228,0.81124218517556),(1.,0.707106781186543,1.),(0.81124218517556,
0.573634850322227,0.81124218517556),(1.,0.707106781186543,1.)))
REPRESENTATION_ITEM('')
SURFACE()
);
#15=ELLIPSE('',#510,1.76776695296637,1.25);
#16=ELLIPSE('',#521,1.76776695296637,1.25);
#17=STYLED_ITEM('',(#866),#21);
#18=STYLED_ITEM('',(#867),#22);
#19=STYLED_ITEM('',(#868),#23);
#20=STYLED_ITEM('',(#868),#24);
#21=MANIFOLD_SOLID_BREP('Corpo1',#461);
#22=MANIFOLD_SOLID_BREP('Corpo2',#462);
#23=MANIFOLD_SOLID_BREP('Corpo3',#463);
#24=MANIFOLD_SOLID_BREP('Corpo4',#464);
#25=FACE_BOUND('',#99,.T.);
#26=FACE_BOUND('',#101,.T.);
#27=FACE_BOUND('',#103,.T.);
#28=FACE_BOUND('',#106,.T.);
#29=FACE_BOUND('',#107,.T.);
#30=FACE_BOUND('',#110,.T.);
#31=CIRCLE('',#481,1.1);
#32=CIRCLE('',#482,1.1);
#33=CIRCLE('',#486,1.1);
#34=CIRCLE('',#487,1.1);
#35=CIRCLE('',#493,5.35000000000173);
#36=CIRCLE('',#494,3.75);
#37=CIRCLE('',#496,3.75);
#38=CIRCLE('',#499,5.35000000000173);
#39=CIRCLE('',#502,3.75);
#40=CIRCLE('',#504,3.75);
#41=CIRCLE('',#507,1.25);
#42=CIRCLE('',#509,1.25);
#43=CIRCLE('',#511,1.25);
#44=CIRCLE('',#512,1.25);
#45=CIRCLE('',#513,1.25);
#46=CIRCLE('',#515,1.25);
#47=CIRCLE('',#518,1.25);
#48=CIRCLE('',#520,1.25);
#49=CIRCLE('',#522,1.25);
#50=CIRCLE('',#523,1.25);
#51=CIRCLE('',#524,1.25);
#52=CIRCLE('',#526,1.25);
#53=CYLINDRICAL_SURFACE('',#480,1.1);
#54=CYLINDRICAL_SURFACE('',#485,1.1);
#55=CYLINDRICAL_SURFACE('',#495,3.75);
#56=CYLINDRICAL_SURFACE('',#498,5.35000000000173);
#57=CYLINDRICAL_SURFACE('',#503,3.75);
#58=CYLINDRICAL_SURFACE('',#508,1.25);
#59=CYLINDRICAL_SURFACE('',#514,1.25);
#60=CYLINDRICAL_SURFACE('',#519,1.25);
#61=CYLINDRICAL_SURFACE('',#525,1.25);
#62=FACE_OUTER_BOUND('',#90,.T.);
#63=FACE_OUTER_BOUND('',#91,.T.);
#64=FACE_OUTER_BOUND('',#92,.T.);
#65=FACE_OUTER_BOUND('',#93,.T.);
#66=FACE_OUTER_BOUND('',#94,.T.);
#67=FACE_OUTER_BOUND('',#95,.T.);
#68=FACE_OUTER_BOUND('',#96,.T.);
#69=FACE_OUTER_BOUND('',#97,.T.);
#70=FACE_OUTER_BOUND('',#98,.T.);
#71=FACE_OUTER_BOUND('',#100,.T.);
#72=FACE_OUTER_BOUND('',#102,.T.);
#73=FACE_OUTER_BOUND('',#104,.T.);
#74=FACE_OUTER_BOUND('',#105,.T.);
#75=FACE_OUTER_BOUND('',#108,.T.);
#76=FACE_OUTER_BOUND('',#109,.T.);
#77=FACE_OUTER_BOUND('',#111,.T.);
#78=FACE_OUTER_BOUND('',#112,.T.);
#79=FACE_OUTER_BOUND('',#113,.T.);
#80=FACE_OUTER_BOUND('',#114,.T.);
#81=FACE_OUTER_BOUND('',#115,.T.);
#82=FACE_OUTER_BOUND('',#116,.T.);
#83=FACE_OUTER_BOUND('',#117,.T.);
#84=FACE_OUTER_BOUND('',#118,.T.);
#85=FACE_OUTER_BOUND('',#119,.T.);
#86=FACE_OUTER_BOUND('',#120,.T.);
#87=FACE_OUTER_BOUND('',#121,.T.);
#88=FACE_OUTER_BOUND('',#122,.T.);
#89=FACE_OUTER_BOUND('',#123,.T.);
#90=EDGE_LOOP('',(#296,#297,#298,#299));
#91=EDGE_LOOP('',(#300,#301,#302,#303));
#92=EDGE_LOOP('',(#304,#305,#306,#307));
#93=EDGE_LOOP('',(#308,#309,#310,#311));
#94=EDGE_LOOP('',(#312,#313,#314,#315));
#95=EDGE_LOOP('',(#316,#317,#318,#319));
#96=EDGE_LOOP('',(#320,#321,#322,#323));
#97=EDGE_LOOP('',(#324,#325,#326,#327));
#98=EDGE_LOOP('',(#328,#329,#330,#331,#332,#333));
#99=EDGE_LOOP('',(#334));
#100=EDGE_LOOP('',(#335,#336,#337,#338,#339,#340));
#101=EDGE_LOOP('',(#341));
#102=EDGE_LOOP('',(#342,#343,#344,#345,#346,#347));
#103=EDGE_LOOP('',(#348));
#104=EDGE_LOOP('',(#349,#350,#351,#352));
#105=EDGE_LOOP('',(#353,#354,#355,#356,#357,#358,#359,#360));
#106=EDGE_LOOP('',(#361));
#107=EDGE_LOOP('',(#362));
#108=EDGE_LOOP('',(#363,#364,#365,#366));
#109=EDGE_LOOP('',(#367,#368,#369,#370,#371,#372));
#110=EDGE_LOOP('',(#373));
#111=EDGE_LOOP('',(#374));
#112=EDGE_LOOP('',(#375,#376,#377,#378));
#113=EDGE_LOOP('',(#379));
#114=EDGE_LOOP('',(#380));
#115=EDGE_LOOP('',(#381,#382,#383,#384,#385,#386));
#116=EDGE_LOOP('',(#387,#388,#389,#390));
#117=EDGE_LOOP('',(#391,#392,#393,#394,#395,#396));
#118=EDGE_LOOP('',(#397));
#119=EDGE_LOOP('',(#398));
#120=EDGE_LOOP('',(#399,#400,#401,#402,#403,#404));
#121=EDGE_LOOP('',(#405,#406,#407,#408));
#122=EDGE_LOOP('',(#409,#410,#411,#412,#413,#414));
#123=EDGE_LOOP('',(#415));
#124=LINE('',#670,#160);
#125=LINE('',#672,#161);
#126=LINE('',#674,#162);
#127=LINE('',#675,#163);
#128=LINE('',#678,#164);
#129=LINE('',#680,#165);
#130=LINE('',#681,#166);
#131=LINE('',#686,#167);
#132=LINE('',#691,#168);
#133=LINE('',#693,#169);
#134=LINE('',#695,#170);
#135=LINE('',#696,#171);
#136=LINE('',#699,#172);
#137=LINE('',#701,#173);
#138=LINE('',#702,#174);
#139=LINE('',#707,#175);
#140=LINE('',#711,#176);
#141=LINE('',#713,#177);
#142=LINE('',#714,#178);
#143=LINE('',#717,#179);
#144=LINE('',#719,#180);
#145=LINE('',#720,#181);
#146=LINE('',#723,#182);
#147=LINE('',#725,#183);
#148=LINE('',#726,#184);
#149=LINE('',#729,#185);
#150=LINE('',#731,#186);
#151=LINE('',#732,#187);
#152=LINE('',#734,#188);
#153=LINE('',#741,#189);
#154=LINE('',#743,#190);
#155=LINE('',#753,#191);
#156=LINE('',#760,#192);
#157=LINE('',#798,#193);
#158=LINE('',#806,#194);
#159=LINE('',#844,#195);
#160=VECTOR('',#532,10.);
#161=VECTOR('',#533,10.);
#162=VECTOR('',#534,10.);
#163=VECTOR('',#535,10.);
#164=VECTOR('',#538,10.);
#165=VECTOR('',#539,10.);
#166=VECTOR('',#540,10.);
#167=VECTOR('',#545,1.1);
#168=VECTOR('',#550,10.);
#169=VECTOR('',#551,10.);
#170=VECTOR('',#552,10.);
#171=VECTOR('',#553,10.);
#172=VECTOR('',#556,10.);
#173=VECTOR('',#557,10.);
#174=VECTOR('',#558,10.);
#175=VECTOR('',#563,1.1);
#176=VECTOR('',#568,10.);
#177=VECTOR('',#569,10.);
#178=VECTOR('',#570,10.);
#179=VECTOR('',#573,10.);
#180=VECTOR('',#574,10.);
#181=VECTOR('',#575,10.);
#182=VECTOR('',#578,10.);
#183=VECTOR('',#579,10.);
#184=VECTOR('',#580,10.);
#185=VECTOR('',#583,10.);
#186=VECTOR('',#584,10.);
#187=VECTOR('',#585,10.);
#188=VECTOR('',#588,10.);
#189=VECTOR('',#597,3.75);
#190=VECTOR('',#600,10.);
#191=VECTOR('',#615,3.75);
#192=VECTOR('',#624,1.25);
#193=VECTOR('',#637,1.25);
#194=VECTOR('',#648,1.25);
#195=VECTOR('',#661,1.25);
#196=VERTEX_POINT('',#668);
#197=VERTEX_POINT('',#669);
#198=VERTEX_POINT('',#671);
#199=VERTEX_POINT('',#673);
#200=VERTEX_POINT('',#677);
#201=VERTEX_POINT('',#679);
#202=VERTEX_POINT('',#683);
#203=VERTEX_POINT('',#685);
#204=VERTEX_POINT('',#689);
#205=VERTEX_POINT('',#690);
#206=VERTEX_POINT('',#692);
#207=VERTEX_POINT('',#694);
#208=VERTEX_POINT('',#698);
#209=VERTEX_POINT('',#700);
#210=VERTEX_POINT('',#704);
#211=VERTEX_POINT('',#706);
#212=VERTEX_POINT('',#710);
#213=VERTEX_POINT('',#712);
#214=VERTEX_POINT('',#716);
#215=VERTEX_POINT('',#718);
#216=VERTEX_POINT('',#722);
#217=VERTEX_POINT('',#724);
#218=VERTEX_POINT('',#728);
#219=VERTEX_POINT('',#730);
#220=VERTEX_POINT('',#736);
#221=VERTEX_POINT('',#739);
#222=VERTEX_POINT('',#748);
#223=VERTEX_POINT('',#751);
#224=VERTEX_POINT('',#756);
#225=VERTEX_POINT('',#759);
#226=VERTEX_POINT('',#761);
#227=VERTEX_POINT('',#763);
#228=VERTEX_POINT('',#793);
#229=VERTEX_POINT('',#797);
#230=VERTEX_POINT('',#802);
#231=VERTEX_POINT('',#805);
#232=VERTEX_POINT('',#807);
#233=VERTEX_POINT('',#809);
#234=VERTEX_POINT('',#839);
#235=VERTEX_POINT('',#843);
#236=EDGE_CURVE('',#196,#197,#124,.T.);
#237=EDGE_CURVE('',#198,#196,#125,.T.);
#238=EDGE_CURVE('',#199,#198,#126,.T.);
#239=EDGE_CURVE('',#199,#197,#127,.T.);
#240=EDGE_CURVE('',#197,#200,#128,.T.);
#241=EDGE_CURVE('',#201,#199,#129,.T.);
#242=EDGE_CURVE('',#200,#201,#130,.T.);
#243=EDGE_CURVE('',#202,#202,#31,.T.);
#244=EDGE_CURVE('',#202,#203,#131,.T.);
#245=EDGE_CURVE('',#203,#203,#32,.T.);
#246=EDGE_CURVE('',#204,#205,#132,.T.);
#247=EDGE_CURVE('',#206,#204,#133,.T.);
#248=EDGE_CURVE('',#207,#206,#134,.T.);
#249=EDGE_CURVE('',#205,#207,#135,.T.);
#250=EDGE_CURVE('',#208,#204,#136,.T.);
#251=EDGE_CURVE('',#209,#208,#137,.T.);
#252=EDGE_CURVE('',#206,#209,#138,.T.);
#253=EDGE_CURVE('',#210,#210,#33,.T.);
#254=EDGE_CURVE('',#210,#211,#139,.T.);
#255=EDGE_CURVE('',#211,#211,#34,.T.);
#256=EDGE_CURVE('',#196,#212,#140,.T.);
#257=EDGE_CURVE('',#213,#212,#141,.T.);
#258=EDGE_CURVE('',#213,#198,#142,.T.);
#259=EDGE_CURVE('',#214,#208,#143,.T.);
#260=EDGE_CURVE('',#215,#214,#144,.T.);
#261=EDGE_CURVE('',#215,#209,#145,.T.);
#262=EDGE_CURVE('',#216,#205,#146,.T.);
#263=EDGE_CURVE('',#217,#216,#147,.T.);
#264=EDGE_CURVE('',#214,#217,#148,.T.);
#265=EDGE_CURVE('',#218,#200,#149,.T.);
#266=EDGE_CURVE('',#218,#219,#150,.T.);
#267=EDGE_CURVE('',#212,#219,#151,.T.);
#268=EDGE_CURVE('',#201,#215,#152,.T.);
#269=EDGE_CURVE('',#217,#218,#35,.T.);
#270=EDGE_CURVE('',#220,#220,#36,.T.);
#271=EDGE_CURVE('',#221,#221,#37,.T.);
#272=EDGE_CURVE('',#221,#220,#153,.T.);
#273=EDGE_CURVE('',#207,#213,#154,.T.);
#274=EDGE_CURVE('',#219,#216,#38,.T.);
#275=EDGE_CURVE('',#222,#222,#39,.T.);
#276=EDGE_CURVE('',#223,#223,#40,.T.);
#277=EDGE_CURVE('',#223,#222,#155,.T.);
#278=EDGE_CURVE('',#224,#224,#41,.T.);
#279=EDGE_CURVE('',#224,#225,#156,.T.);
#280=EDGE_CURVE('',#225,#226,#42,.T.);
#281=EDGE_CURVE('',#227,#226,#15,.T.);
#282=EDGE_CURVE('',#227,#225,#43,.T.);
#283=EDGE_CURVE('',#227,#228,#44,.T.);
#284=EDGE_CURVE('',#228,#226,#45,.T.);
#285=EDGE_CURVE('',#228,#229,#157,.T.);
#286=EDGE_CURVE('',#229,#229,#46,.T.);
#287=EDGE_CURVE('',#230,#230,#47,.T.);
#288=EDGE_CURVE('',#230,#231,#158,.T.);
#289=EDGE_CURVE('',#232,#231,#48,.T.);
#290=EDGE_CURVE('',#232,#233,#16,.T.);
#291=EDGE_CURVE('',#231,#233,#49,.T.);
#292=EDGE_CURVE('',#232,#234,#50,.T.);
#293=EDGE_CURVE('',#234,#233,#51,.T.);
#294=EDGE_CURVE('',#234,#235,#159,.T.);
#295=EDGE_CURVE('',#235,#235,#52,.T.);
#296=ORIENTED_EDGE('',*,*,#236,.F.);
#297=ORIENTED_EDGE('',*,*,#237,.F.);
#298=ORIENTED_EDGE('',*,*,#238,.F.);
#299=ORIENTED_EDGE('',*,*,#239,.T.);
#300=ORIENTED_EDGE('',*,*,#240,.F.);
#301=ORIENTED_EDGE('',*,*,#239,.F.);
#302=ORIENTED_EDGE('',*,*,#241,.F.);
#303=ORIENTED_EDGE('',*,*,#242,.F.);
#304=ORIENTED_EDGE('',*,*,#243,.F.);
#305=ORIENTED_EDGE('',*,*,#244,.T.);
#306=ORIENTED_EDGE('',*,*,#245,.F.);
#307=ORIENTED_EDGE('',*,*,#244,.F.);
#308=ORIENTED_EDGE('',*,*,#246,.F.);
#309=ORIENTED_EDGE('',*,*,#247,.F.);
#310=ORIENTED_EDGE('',*,*,#248,.F.);
#311=ORIENTED_EDGE('',*,*,#249,.F.);
#312=ORIENTED_EDGE('',*,*,#250,.F.);
#313=ORIENTED_EDGE('',*,*,#251,.F.);
#314=ORIENTED_EDGE('',*,*,#252,.F.);
#315=ORIENTED_EDGE('',*,*,#247,.T.);
#316=ORIENTED_EDGE('',*,*,#253,.F.);
#317=ORIENTED_EDGE('',*,*,#254,.T.);
#318=ORIENTED_EDGE('',*,*,#255,.F.);
#319=ORIENTED_EDGE('',*,*,#254,.F.);
#320=ORIENTED_EDGE('',*,*,#237,.T.);
#321=ORIENTED_EDGE('',*,*,#256,.T.);
#322=ORIENTED_EDGE('',*,*,#257,.F.);
#323=ORIENTED_EDGE('',*,*,#258,.T.);
#324=ORIENTED_EDGE('',*,*,#251,.T.);
#325=ORIENTED_EDGE('',*,*,#259,.F.);
#326=ORIENTED_EDGE('',*,*,#260,.F.);
#327=ORIENTED_EDGE('',*,*,#261,.T.);
#328=ORIENTED_EDGE('',*,*,#250,.T.);
#329=ORIENTED_EDGE('',*,*,#246,.T.);
#330=ORIENTED_EDGE('',*,*,#262,.F.);
#331=ORIENTED_EDGE('',*,*,#263,.F.);
#332=ORIENTED_EDGE('',*,*,#264,.F.);
#333=ORIENTED_EDGE('',*,*,#259,.T.);
#334=ORIENTED_EDGE('',*,*,#245,.T.);
#335=ORIENTED_EDGE('',*,*,#236,.T.);
#336=ORIENTED_EDGE('',*,*,#240,.T.);
#337=ORIENTED_EDGE('',*,*,#265,.F.);
#338=ORIENTED_EDGE('',*,*,#266,.T.);
#339=ORIENTED_EDGE('',*,*,#267,.F.);
#340=ORIENTED_EDGE('',*,*,#256,.F.);
#341=ORIENTED_EDGE('',*,*,#255,.T.);
#342=ORIENTED_EDGE('',*,*,#242,.T.);
#343=ORIENTED_EDGE('',*,*,#268,.T.);
#344=ORIENTED_EDGE('',*,*,#260,.T.);
#345=ORIENTED_EDGE('',*,*,#264,.T.);
#346=ORIENTED_EDGE('',*,*,#269,.T.);
#347=ORIENTED_EDGE('',*,*,#265,.T.);
#348=ORIENTED_EDGE('',*,*,#270,.T.);
#349=ORIENTED_EDGE('',*,*,#271,.F.);
#350=ORIENTED_EDGE('',*,*,#272,.T.);
#351=ORIENTED_EDGE('',*,*,#270,.F.);
#352=ORIENTED_EDGE('',*,*,#272,.F.);
#353=ORIENTED_EDGE('',*,*,#238,.T.);
#354=ORIENTED_EDGE('',*,*,#258,.F.);
#355=ORIENTED_EDGE('',*,*,#273,.F.);
#356=ORIENTED_EDGE('',*,*,#248,.T.);
#357=ORIENTED_EDGE('',*,*,#252,.T.);
#358=ORIENTED_EDGE('',*,*,#261,.F.);
#359=ORIENTED_EDGE('',*,*,#268,.F.);
#360=ORIENTED_EDGE('',*,*,#241,.T.);
#361=ORIENTED_EDGE('',*,*,#243,.T.);
#362=ORIENTED_EDGE('',*,*,#253,.T.);
#363=ORIENTED_EDGE('',*,*,#263,.T.);
#364=ORIENTED_EDGE('',*,*,#274,.F.);
#365=ORIENTED_EDGE('',*,*,#266,.F.);
#366=ORIENTED_EDGE('',*,*,#269,.F.);
#367=ORIENTED_EDGE('',*,*,#249,.T.);
#368=ORIENTED_EDGE('',*,*,#273,.T.);
#369=ORIENTED_EDGE('',*,*,#257,.T.);
#370=ORIENTED_EDGE('',*,*,#267,.T.);
#371=ORIENTED_EDGE('',*,*,#274,.T.);
#372=ORIENTED_EDGE('',*,*,#262,.T.);
#373=ORIENTED_EDGE('',*,*,#271,.T.);
#374=ORIENTED_EDGE('',*,*,#275,.T.);
#375=ORIENTED_EDGE('',*,*,#276,.F.);
#376=ORIENTED_EDGE('',*,*,#277,.T.);
#377=ORIENTED_EDGE('',*,*,#275,.F.);
#378=ORIENTED_EDGE('',*,*,#277,.F.);
#379=ORIENTED_EDGE('',*,*,#276,.T.);
#380=ORIENTED_EDGE('',*,*,#278,.T.);
#381=ORIENTED_EDGE('',*,*,#278,.F.);
#382=ORIENTED_EDGE('',*,*,#279,.T.);
#383=ORIENTED_EDGE('',*,*,#280,.T.);
#384=ORIENTED_EDGE('',*,*,#281,.F.);
#385=ORIENTED_EDGE('',*,*,#282,.T.);
#386=ORIENTED_EDGE('',*,*,#279,.F.);
#387=ORIENTED_EDGE('',*,*,#283,.T.);
#388=ORIENTED_EDGE('',*,*,#284,.T.);
#389=ORIENTED_EDGE('',*,*,#280,.F.);
#390=ORIENTED_EDGE('',*,*,#282,.F.);
#391=ORIENTED_EDGE('',*,*,#283,.F.);
#392=ORIENTED_EDGE('',*,*,#281,.T.);
#393=ORIENTED_EDGE('',*,*,#284,.F.);
#394=ORIENTED_EDGE('',*,*,#285,.T.);
#395=ORIENTED_EDGE('',*,*,#286,.T.);
#396=ORIENTED_EDGE('',*,*,#285,.F.);
#397=ORIENTED_EDGE('',*,*,#286,.F.);
#398=ORIENTED_EDGE('',*,*,#287,.F.);
#399=ORIENTED_EDGE('',*,*,#287,.T.);
#400=ORIENTED_EDGE('',*,*,#288,.T.);
#401=ORIENTED_EDGE('',*,*,#289,.F.);
#402=ORIENTED_EDGE('',*,*,#290,.T.);
#403=ORIENTED_EDGE('',*,*,#291,.F.);
#404=ORIENTED_EDGE('',*,*,#288,.F.);
#405=ORIENTED_EDGE('',*,*,#292,.F.);
#406=ORIENTED_EDGE('',*,*,#289,.T.);
#407=ORIENTED_EDGE('',*,*,#291,.T.);
#408=ORIENTED_EDGE('',*,*,#293,.F.);
#409=ORIENTED_EDGE('',*,*,#292,.T.);
#410=ORIENTED_EDGE('',*,*,#294,.T.);
#411=ORIENTED_EDGE('',*,*,#295,.F.);
#412=ORIENTED_EDGE('',*,*,#294,.F.);
#413=ORIENTED_EDGE('',*,*,#293,.T.);
#414=ORIENTED_EDGE('',*,*,#290,.F.);
#415=ORIENTED_EDGE('',*,*,#295,.T.);
#416=PLANE('',#478);
#417=PLANE('',#479);
#418=PLANE('',#483);
#419=PLANE('',#484);
#420=PLANE('',#488);
#421=PLANE('',#489);
#422=PLANE('',#490);
#423=PLANE('',#491);
#424=PLANE('',#492);
#425=PLANE('',#497);
#426=PLANE('',#500);
#427=PLANE('',#501);
#428=PLANE('',#505);
#429=PLANE('',#506);
#430=PLANE('',#516);
#431=PLANE('',#517);
#432=PLANE('',#527);
#433=ADVANCED_FACE('',(#62),#416,.F.);
#434=ADVANCED_FACE('',(#63),#417,.F.);
#435=ADVANCED_FACE('',(#64),#53,.F.);
#436=ADVANCED_FACE('',(#65),#418,.F.);
#437=ADVANCED_FACE('',(#66),#419,.F.);
#438=ADVANCED_FACE('',(#67),#54,.F.);
#439=ADVANCED_FACE('',(#68),#420,.T.);
#440=ADVANCED_FACE('',(#69),#421,.T.);
#441=ADVANCED_FACE('',(#70,#25),#422,.T.);
#442=ADVANCED_FACE('',(#71,#26),#423,.T.);
#443=ADVANCED_FACE('',(#72,#27),#424,.F.);
#444=ADVANCED_FACE('',(#73),#55,.F.);
#445=ADVANCED_FACE('',(#74,#28,#29),#425,.T.);
#446=ADVANCED_FACE('',(#75),#56,.T.);
#447=ADVANCED_FACE('',(#76,#30),#426,.T.);
#448=ADVANCED_FACE('',(#77),#427,.F.);
#449=ADVANCED_FACE('',(#78),#57,.T.);
#450=ADVANCED_FACE('',(#79),#428,.T.);
#451=ADVANCED_FACE('',(#80),#429,.T.);
#452=ADVANCED_FACE('',(#81),#58,.T.);
#453=ADVANCED_FACE('',(#82),#13,.F.);
#454=ADVANCED_FACE('',(#83),#59,.T.);
#455=ADVANCED_FACE('',(#84),#430,.F.);
#456=ADVANCED_FACE('',(#85),#431,.F.);
#457=ADVANCED_FACE('',(#86),#60,.T.);
#458=ADVANCED_FACE('',(#87),#14,.T.);
#459=ADVANCED_FACE('',(#88),#61,.T.);
#460=ADVANCED_FACE('',(#89),#432,.T.);
#461=CLOSED_SHELL('',(#433,#434,#435,#436,#437,#438,#439,#440,#441,#442,
#443,#444,#445,#446,#447));
#462=CLOSED_SHELL('',(#448,#449,#450));
#463=CLOSED_SHELL('',(#451,#452,#453,#454,#455));
#464=CLOSED_SHELL('',(#456,#457,#458,#459,#460));
#465=DERIVED_UNIT_ELEMENT(#467,1.);
#466=DERIVED_UNIT_ELEMENT(#852,-3.);
#467=(
MASS_UNIT()
NAMED_UNIT(*)
SI_UNIT(.KILO.,.GRAM.)
);
#468=DERIVED_UNIT((#465,#466));
#469=MEASURE_REPRESENTATION_ITEM('density measure',
POSITIVE_RATIO_MEASURE(7850.),#468);
#470=PROPERTY_DEFINITION_REPRESENTATION(#475,#472);
#471=PROPERTY_DEFINITION_REPRESENTATION(#476,#473);
#472=REPRESENTATION('material name',(#474),#849);
#473=REPRESENTATION('density',(#469),#849);
#474=DESCRIPTIVE_REPRESENTATION_ITEM('A\X\E7o','A\X\E7o');
#475=PROPERTY_DEFINITION('material property','material name',#859);
#476=PROPERTY_DEFINITION('material property','density of part',#859);
#477=AXIS2_PLACEMENT_3D('',#666,#528,#529);
#478=AXIS2_PLACEMENT_3D('',#667,#530,#531);
#479=AXIS2_PLACEMENT_3D('',#676,#536,#537);
#480=AXIS2_PLACEMENT_3D('',#682,#541,#542);
#481=AXIS2_PLACEMENT_3D('',#684,#543,#544);
#482=AXIS2_PLACEMENT_3D('',#687,#546,#547);
#483=AXIS2_PLACEMENT_3D('',#688,#548,#549);
#484=AXIS2_PLACEMENT_3D('',#697,#554,#555);
#485=AXIS2_PLACEMENT_3D('',#703,#559,#560);
#486=AXIS2_PLACEMENT_3D('',#705,#561,#562);
#487=AXIS2_PLACEMENT_3D('',#708,#564,#565);
#488=AXIS2_PLACEMENT_3D('',#709,#566,#567);
#489=AXIS2_PLACEMENT_3D('',#715,#571,#572);
#490=AXIS2_PLACEMENT_3D('',#721,#576,#577);
#491=AXIS2_PLACEMENT_3D('',#727,#581,#582);
#492=AXIS2_PLACEMENT_3D('',#733,#586,#587);
#493=AXIS2_PLACEMENT_3D('',#735,#589,#590);
#494=AXIS2_PLACEMENT_3D('',#737,#591,#592);
#495=AXIS2_PLACEMENT_3D('',#738,#593,#594);
#496=AXIS2_PLACEMENT_3D('',#740,#595,#596);
#497=AXIS2_PLACEMENT_3D('',#742,#598,#599);
#498=AXIS2_PLACEMENT_3D('',#744,#601,#602);
#499=AXIS2_PLACEMENT_3D('',#745,#603,#604);
#500=AXIS2_PLACEMENT_3D('',#746,#605,#606);
#501=AXIS2_PLACEMENT_3D('',#747,#607,#608);
#502=AXIS2_PLACEMENT_3D('',#749,#609,#610);
#503=AXIS2_PLACEMENT_3D('',#750,#611,#612);
#504=AXIS2_PLACEMENT_3D('',#752,#613,#614);
#505=AXIS2_PLACEMENT_3D('',#754,#616,#617);
#506=AXIS2_PLACEMENT_3D('',#755,#618,#619);
#507=AXIS2_PLACEMENT_3D('',#757,#620,#621);
#508=AXIS2_PLACEMENT_3D('',#758,#622,#623);
#509=AXIS2_PLACEMENT_3D('',#762,#625,#626);
#510=AXIS2_PLACEMENT_3D('',#764,#627,#628);
#511=AXIS2_PLACEMENT_3D('',#765,#629,#630);
#512=AXIS2_PLACEMENT_3D('',#794,#631,#632);
#513=AXIS2_PLACEMENT_3D('',#795,#633,#634);
#514=AXIS2_PLACEMENT_3D('',#796,#635,#636);
#515=AXIS2_PLACEMENT_3D('',#799,#638,#639);
#516=AXIS2_PLACEMENT_3D('',#800,#640,#641);
#517=AXIS2_PLACEMENT_3D('',#801,#642,#643);
#518=AXIS2_PLACEMENT_3D('',#803,#644,#645);
#519=AXIS2_PLACEMENT_3D('',#804,#646,#647);
#520=AXIS2_PLACEMENT_3D('',#808,#649,#650);
#521=AXIS2_PLACEMENT_3D('',#810,#651,#652);
#522=AXIS2_PLACEMENT_3D('',#811,#653,#654);
#523=AXIS2_PLACEMENT_3D('',#840,#655,#656);
#524=AXIS2_PLACEMENT_3D('',#841,#657,#658);
#525=AXIS2_PLACEMENT_3D('',#842,#659,#660);
#526=AXIS2_PLACEMENT_3D('',#845,#662,#663);
#527=AXIS2_PLACEMENT_3D('',#846,#664,#665);
#528=DIRECTION('axis',(0.,0.,1.));
#529=DIRECTION('refdir',(1.,0.,0.));
#530=DIRECTION('center_axis',(0.,1.,0.));
#531=DIRECTION('ref_axis',(-1.,0.,0.));
#532=DIRECTION('',(1.,0.,0.));
#533=DIRECTION('',(1.1686558153949E-15,0.,1.));
#534=DIRECTION('',(-1.,0.,0.));
#535=DIRECTION('',(0.,0.,1.));
#536=DIRECTION('center_axis',(1.,0.,0.));
#537=DIRECTION('ref_axis',(0.,1.,0.));
#538=DIRECTION('',(0.,-1.,0.));
#539=DIRECTION('',(0.,1.,0.));
#540=DIRECTION('',(0.,0.,-1.));
#541=DIRECTION('center_axis',(0.,0.,1.));
#542=DIRECTION('ref_axis',(1.,0.,0.));
#543=DIRECTION('center_axis',(0.,0.,1.));
#544=DIRECTION('ref_axis',(1.,0.,0.));
#545=DIRECTION('',(0.,0.,1.));
#546=DIRECTION('center_axis',(0.,0.,-1.));
#547=DIRECTION('ref_axis',(1.,0.,0.));
#548=DIRECTION('center_axis',(-1.,0.,0.));
#549=DIRECTION('ref_axis',(0.,-1.,0.));
#550=DIRECTION('',(0.,1.,0.));
#551=DIRECTION('',(0.,0.,1.));
#552=DIRECTION('',(0.,-1.,0.));
#553=DIRECTION('',(0.,0.,-1.));
#554=DIRECTION('center_axis',(0.,-1.,0.));
#555=DIRECTION('ref_axis',(1.,0.,0.));
#556=DIRECTION('',(-1.,0.,0.));
#557=DIRECTION('',(0.,0.,1.));
#558=DIRECTION('',(1.,0.,0.));
#559=DIRECTION('center_axis',(0.,0.,1.));
#560=DIRECTION('ref_axis',(1.,0.,0.));
#561=DIRECTION('center_axis',(0.,0.,1.));
#562=DIRECTION('ref_axis',(1.,0.,0.));
#563=DIRECTION('',(0.,0.,1.));
#564=DIRECTION('center_axis',(0.,0.,-1.));
#565=DIRECTION('ref_axis',(1.,0.,0.));
#566=DIRECTION('center_axis',(-1.,0.,1.1686558153949E-15));
#567=DIRECTION('ref_axis',(1.1686558153949E-15,0.,1.));
#568=DIRECTION('',(0.,1.,0.));
#569=DIRECTION('',(1.1686558153949E-15,0.,1.));
#570=DIRECTION('',(0.,-1.,0.));
#571=DIRECTION('center_axis',(1.,0.,0.));
#572=DIRECTION('ref_axis',(0.,0.,-1.));
#573=DIRECTION('',(0.,1.,0.));
#574=DIRECTION('',(0.,0.,1.));
#575=DIRECTION('',(0.,1.,0.));
#576=DIRECTION('center_axis',(0.,0.,1.));
#577=DIRECTION('ref_axis',(1.,0.,0.));
#578=DIRECTION('',(1.,0.,0.));
#579=DIRECTION('',(0.,1.,0.));
#580=DIRECTION('',(-1.,0.,0.));
#581=DIRECTION('center_axis',(0.,0.,1.));
#582=DIRECTION('ref_axis',(1.,0.,0.));
#583=DIRECTION('',(-1.,0.,0.));
#584=DIRECTION('',(0.,1.,0.));
#585=DIRECTION('',(1.,0.,0.));
#586=DIRECTION('center_axis',(0.,1.,0.));
#587=DIRECTION('ref_axis',(1.,0.,0.));
#588=DIRECTION('',(1.,0.,0.));
#589=DIRECTION('center_axis',(0.,-1.,0.));
#590=DIRECTION('ref_axis',(-0.902873393725559,0.,-0.429906542055936));
#591=DIRECTION('center_axis',(0.,1.,0.));
#592=DIRECTION('ref_axis',(1.,0.,0.));
#593=DIRECTION('center_axis',(0.,1.,0.));
#594=DIRECTION('ref_axis',(1.,0.,0.));
#595=DIRECTION('center_axis',(0.,-1.,0.));
#596=DIRECTION('ref_axis',(1.,0.,0.));
#597=DIRECTION('',(0.,-1.,0.));
#598=DIRECTION('center_axis',(0.,0.,-1.));
#599=DIRECTION('ref_axis',(-1.,0.,0.));
#600=DIRECTION('',(-1.,0.,0.));
#601=DIRECTION('center_axis',(0.,1.,0.));
#602=DIRECTION('ref_axis',(5.18795805899438E-17,0.,1.));
#603=DIRECTION('center_axis',(0.,1.,0.));
#604=DIRECTION('ref_axis',(-0.902873393725559,0.,-0.429906542055936));
#605=DIRECTION('center_axis',(0.,1.,0.));
#606=DIRECTION('ref_axis',(1.,0.,0.));
#607=DIRECTION('center_axis',(0.,1.,0.));
#608=DIRECTION('ref_axis',(1.,0.,0.));
#609=DIRECTION('center_axis',(0.,-1.,0.));
#610=DIRECTION('ref_axis',(1.,0.,0.));
#611=DIRECTION('center_axis',(0.,1.,0.));
#612=DIRECTION('ref_axis',(1.,0.,0.));
#613=DIRECTION('center_axis',(0.,1.,0.));
#614=DIRECTION('ref_axis',(1.,0.,0.));
#615=DIRECTION('',(0.,-1.,0.));
#616=DIRECTION('center_axis',(0.,1.,0.));
#617=DIRECTION('ref_axis',(1.,0.,0.));
#618=DIRECTION('center_axis',(0.,-6.72257048770831E-15,-1.));
#619=DIRECTION('ref_axis',(1.,0.,0.));
#620=DIRECTION('center_axis',(0.,-6.72257048770831E-15,-1.));
#621=DIRECTION('ref_axis',(1.,0.,0.));
#622=DIRECTION('center_axis',(0.,0.,-1.));
#623=DIRECTION('ref_axis',(1.,0.,0.));
#624=DIRECTION('',(0.,0.,1.));
#625=DIRECTION('center_axis',(0.,-6.72257048770831E-15,-1.));
#626=DIRECTION('ref_axis',(1.,0.,0.));
#627=DIRECTION('center_axis',(0.,0.707106781186548,0.707106781186547));
#628=DIRECTION('ref_axis',(0.,-0.707106781186547,0.707106781186548));
#629=DIRECTION('center_axis',(0.,-6.72257048770831E-15,-1.));
#630=DIRECTION('ref_axis',(1.,0.,0.));
#631=DIRECTION('center_axis',(0.,-1.,0.));
#632=DIRECTION('ref_axis',(1.,0.,0.));
#633=DIRECTION('center_axis',(0.,-1.,0.));
#634=DIRECTION('ref_axis',(1.,0.,0.));
#635=DIRECTION('center_axis',(0.,-1.,7.45116123909501E-17));
#636=DIRECTION('ref_axis',(1.,0.,0.));
#637=DIRECTION('',(0.,1.,-7.45116123909501E-17));
#638=DIRECTION('center_axis',(0.,-1.,0.));
#639=DIRECTION('ref_axis',(1.,0.,0.));
#640=DIRECTION('center_axis',(0.,-1.,0.));
#641=DIRECTION('ref_axis',(1.,0.,0.));
#642=DIRECTION('center_axis',(0.,-6.72257048770831E-15,1.));
#643=DIRECTION('ref_axis',(1.,0.,0.));
#644=DIRECTION('center_axis',(0.,-6.72257048770831E-15,1.));
#645=DIRECTION('ref_axis',(1.,0.,0.));
#646=DIRECTION('center_axis',(0.,0.,1.));
#647=DIRECTION('ref_axis',(1.,0.,0.));
#648=DIRECTION('',(0.,0.,1.));
#649=DIRECTION('center_axis',(0.,-6.72257048770831E-15,1.));
#650=DIRECTION('ref_axis',(1.,0.,0.));
#651=DIRECTION('center_axis',(0.,0.707106781186548,-0.707106781186547));
#652=DIRECTION('ref_axis',(0.,0.707106781186547,0.707106781186548));
#653=DIRECTION('center_axis',(0.,-6.72257048770831E-15,1.));
#654=DIRECTION('ref_axis',(1.,0.,0.));
#655=DIRECTION('center_axis',(0.,-1.,0.));
#656=DIRECTION('ref_axis',(1.,0.,0.));
#657=DIRECTION('center_axis',(0.,-1.,0.));
#658=DIRECTION('ref_axis',(1.,0.,0.));
#659=DIRECTION('center_axis',(0.,-1.,-7.45116123909501E-17));
#660=DIRECTION('ref_axis',(1.,0.,0.));
#661=DIRECTION('',(0.,-1.,-7.45116123909501E-17));
#662=DIRECTION('center_axis',(0.,-1.,0.));
#663=DIRECTION('ref_axis',(1.,0.,0.));
#664=DIRECTION('center_axis',(0.,-1.,0.));
#665=DIRECTION('ref_axis',(1.,0.,0.));
#666=CARTESIAN_POINT('',(0.,0.,0.));
#667=CARTESIAN_POINT('Origin',(-5.35,4.7,0.));
#668=CARTESIAN_POINT('',(-10.15,4.7,1.9));
#669=CARTESIAN_POINT('',(-5.35,4.7,1.9));
#670=CARTESIAN_POINT('',(-7.75,4.7,1.9));
#671=CARTESIAN_POINT('',(-10.15,4.7,0.));
#672=CARTESIAN_POINT('',(-10.15,4.7,2.80477395694776E-15));
#673=CARTESIAN_POINT('',(-5.35,4.7,0.));
#674=CARTESIAN_POINT('',(2.4,4.7,0.));
#675=CARTESIAN_POINT('',(-5.35,4.7,0.));
#676=CARTESIAN_POINT('Origin',(-5.35,-9.5,0.));
#677=CARTESIAN_POINT('',(-5.35,-9.5,1.9));
#678=CARTESIAN_POINT('',(-5.35,-4.75,1.9));
#679=CARTESIAN_POINT('',(-5.35,-9.5,0.));
#680=CARTESIAN_POINT('',(-5.35,-4.75,0.));
#681=CARTESIAN_POINT('',(-5.35,-9.5,2.38750000000043));
#682=CARTESIAN_POINT('Origin',(7.95,-7.1,0.));
#683=CARTESIAN_POINT('',(6.85,-7.1,0.));
#684=CARTESIAN_POINT('Origin',(7.95,-7.1,0.));
#685=CARTESIAN_POINT('',(6.85,-7.1,1.9));
#686=CARTESIAN_POINT('',(6.85,-7.1,0.));
#687=CARTESIAN_POINT('Origin',(7.95,-7.1,1.9));
#688=CARTESIAN_POINT('Origin',(5.35,9.5,0.));
#689=CARTESIAN_POINT('',(5.35,-4.7,1.9));
#690=CARTESIAN_POINT('',(5.35,9.5,1.9));
#691=CARTESIAN_POINT('',(5.35,4.75,1.9));
#692=CARTESIAN_POINT('',(5.35,-4.7,0.));
#693=CARTESIAN_POINT('',(5.35,-4.7,0.));
#694=CARTESIAN_POINT('',(5.35,9.5,0.));
#695=CARTESIAN_POINT('',(5.35,4.75,0.));
#696=CARTESIAN_POINT('',(5.35,9.5,2.38750000000043));
#697=CARTESIAN_POINT('Origin',(5.35,-4.7,0.));
#698=CARTESIAN_POINT('',(10.15,-4.7,1.9));
#699=CARTESIAN_POINT('',(5.09018632821665,-4.7,1.9));
#700=CARTESIAN_POINT('',(10.15,-4.7,0.));
#701=CARTESIAN_POINT('',(10.15,-4.7,0.95));
#702=CARTESIAN_POINT('',(7.75,-4.7,0.));
#703=CARTESIAN_POINT('Origin',(-7.95,7.1,0.));
#704=CARTESIAN_POINT('',(-9.05,7.1,0.));
#705=CARTESIAN_POINT('Origin',(-7.95,7.1,0.));
#706=CARTESIAN_POINT('',(-9.05,7.1,1.9));
#707=CARTESIAN_POINT('',(-9.05,7.1,0.));
#708=CARTESIAN_POINT('Origin',(-7.95,7.1,1.9));
#709=CARTESIAN_POINT('Origin',(-10.15,0.,0.));
#710=CARTESIAN_POINT('',(-10.15,9.5,1.9));
#711=CARTESIAN_POINT('',(-10.15,0.,1.9));
#712=CARTESIAN_POINT('',(-10.15,9.5,0.));
#713=CARTESIAN_POINT('',(-10.15,9.5,0.));
#714=CARTESIAN_POINT('',(-10.15,0.,0.));
#715=CARTESIAN_POINT('Origin',(10.15,0.,1.9));
#716=CARTESIAN_POINT('',(10.15,-9.5,1.9));
#717=CARTESIAN_POINT('',(10.15,0.,1.9));
#718=CARTESIAN_POINT('',(10.15,-9.5,0.));
#719=CARTESIAN_POINT('',(10.15,-9.5,0.));
#720=CARTESIAN_POINT('',(10.15,0.,0.));
#721=CARTESIAN_POINT('Origin',(4.8303726564333,0.,1.9));
#722=CARTESIAN_POINT('',(4.8303726564333,9.5,1.9));
#723=CARTESIAN_POINT('',(4.8303726564333,9.5,1.9));
#724=CARTESIAN_POINT('',(4.8303726564333,-9.5,1.9));
#725=CARTESIAN_POINT('',(4.8303726564333,0.,1.9));
#726=CARTESIAN_POINT('',(4.8303726564333,-9.5,1.9));
#727=CARTESIAN_POINT('Origin',(-10.15,0.,1.9));
#728=CARTESIAN_POINT('',(-4.8303726564333,-9.5,1.9));
#729=CARTESIAN_POINT('',(-10.15,-9.5,1.9));
#730=CARTESIAN_POINT('',(-4.8303726564333,9.5,1.9));
#731=CARTESIAN_POINT('',(-4.8303726564333,0.,1.9));
#732=CARTESIAN_POINT('',(-10.15,9.5,1.9));
#733=CARTESIAN_POINT('Origin',(-2.22044604925031E-15,-9.5,4.77500000000086));
#734=CARTESIAN_POINT('',(-10.15,-9.5,0.));
#735=CARTESIAN_POINT('Origin',(-3.59082095596763E-17,-9.5,4.2));
#736=CARTESIAN_POINT('',(-3.75,-9.5,4.2));
#737=CARTESIAN_POINT('Origin',(-3.59081830233924E-17,-9.5,4.2));
#738=CARTESIAN_POINT('Origin',(-3.59081830233924E-17,0.,4.2));
#739=CARTESIAN_POINT('',(-3.75,9.5,4.2));
#740=CARTESIAN_POINT('Origin',(-3.59081830233924E-17,9.5,4.2));
#741=CARTESIAN_POINT('',(-3.75,0.,4.2));
#742=CARTESIAN_POINT('Origin',(10.15,0.,0.));
#743=CARTESIAN_POINT('',(-10.15,9.5,0.));
#744=CARTESIAN_POINT('Origin',(-3.59082095596763E-17,0.,4.2));
#745=CARTESIAN_POINT('Origin',(-3.59082095596763E-17,9.5,4.2));
#746=CARTESIAN_POINT('Origin',(-2.22044604925031E-15,9.5,4.77500000000086));
#747=CARTESIAN_POINT('Origin',(0.,-9.,4.2));
#748=CARTESIAN_POINT('',(-3.75,-9.,4.2));
#749=CARTESIAN_POINT('Origin',(-3.59081830233924E-17,-9.,4.2));
#750=CARTESIAN_POINT('Origin',(-3.59081830233924E-17,0.,4.2));
#751=CARTESIAN_POINT('',(-3.75,9.,4.2));
#752=CARTESIAN_POINT('Origin',(-3.59081830233924E-17,9.,4.2));
#753=CARTESIAN_POINT('',(-3.75,0.,4.2));
#754=CARTESIAN_POINT('Origin',(0.,9.,4.2));
#755=CARTESIAN_POINT('Origin',(0.,-17.45,-3.00000273011752));
#756=CARTESIAN_POINT('',(-1.25,-17.45,-3.00000273011752));
#757=CARTESIAN_POINT('Origin',(-3.59081830233924E-17,-17.45,-3.00000273011752));
#758=CARTESIAN_POINT('Origin',(-3.59081830233924E-17,-17.45,3.2));
#759=CARTESIAN_POINT('',(-1.25,-17.45,3.20000000000001));
#760=CARTESIAN_POINT('',(-1.25,-17.45,3.2));
#761=CARTESIAN_POINT('',(-0.749999999999994,-16.45,3.2));
#762=CARTESIAN_POINT('Origin',(-3.59081830233924E-17,-17.45,3.2));
#763=CARTESIAN_POINT('',(0.749999999999995,-16.45,3.2));
#764=CARTESIAN_POINT('Origin',(-3.59081830233924E-17,-17.45,4.2));
#765=CARTESIAN_POINT('Origin',(-3.59081830233924E-17,-17.45,3.2));
#766=CARTESIAN_POINT('Ctrl Pts',(-0.749999999999994,-16.45,3.2));
#767=CARTESIAN_POINT('Ctrl Pts',(-0.749999999999994,-16.45,3.2));
#768=CARTESIAN_POINT('Ctrl Pts',(-0.749999999999994,-16.45,3.2));
#769=CARTESIAN_POINT('Ctrl Pts',(-1.47075922005613,-16.45,3.74056941504209));
#770=CARTESIAN_POINT('Ctrl Pts',(-1.47075922005613,-16.9905694150421,3.74056941504209));
#771=CARTESIAN_POINT('Ctrl Pts',(-1.47075922005613,-16.9905694150421,3.2));
#772=CARTESIAN_POINT('Ctrl Pts',(-1.18585412256314,-16.45,4.59528470752104));
#773=CARTESIAN_POINT('Ctrl Pts',(-1.18585412256314,-17.8452847075211,4.59528470752105));
#774=CARTESIAN_POINT('Ctrl Pts',(-1.18585412256314,-17.845284707521,3.2));
#775=CARTESIAN_POINT('Ctrl Pts',(-0.900949025070161,-16.45,5.45));
#776=CARTESIAN_POINT('Ctrl Pts',(-0.900949025070161,-18.7,5.45000000000002));
#777=CARTESIAN_POINT('Ctrl Pts',(-0.900949025070161,-18.7,3.2));
#778=CARTESIAN_POINT('Ctrl Pts',(-3.59081830233924E-17,-16.45,5.45));
#779=CARTESIAN_POINT('Ctrl Pts',(-3.59081830233924E-17,-18.7,5.45000000000002));
#780=CARTESIAN_POINT('Ctrl Pts',(-3.59081830233924E-17,-18.7,3.2));
#781=CARTESIAN_POINT('Ctrl Pts',(0.900949025070161,-16.45,5.45));
#782=CARTESIAN_POINT('Ctrl Pts',(0.900949025070161,-18.7,5.45000000000002));
#783=CARTESIAN_POINT('Ctrl Pts',(0.900949025070161,-18.7,3.2));
#784=CARTESIAN_POINT('Ctrl Pts',(1.18585412256314,-16.45,4.59528470752104));
#785=CARTESIAN_POINT('Ctrl Pts',(1.18585412256314,-17.8452847075211,4.59528470752105));
#786=CARTESIAN_POINT('Ctrl Pts',(1.18585412256314,-17.845284707521,3.2));
#787=CARTESIAN_POINT('Ctrl Pts',(1.47075922005613,-16.45,3.74056941504209));
#788=CARTESIAN_POINT('Ctrl Pts',(1.47075922005613,-16.9905694150421,3.74056941504209));
#789=CARTESIAN_POINT('Ctrl Pts',(1.47075922005613,-16.9905694150421,3.2));
#790=CARTESIAN_POINT('Ctrl Pts',(0.749999999999994,-16.45,3.2));
#791=CARTESIAN_POINT('Ctrl Pts',(0.749999999999994,-16.45,3.2));
#792=CARTESIAN_POINT('Ctrl Pts',(0.749999999999994,-16.45,3.2));
#793=CARTESIAN_POINT('',(-1.25,-16.45,4.2));
#794=CARTESIAN_POINT('Origin',(-3.59081830233924E-17,-16.45,4.2));
#795=CARTESIAN_POINT('Origin',(-3.59081830233924E-17,-16.45,4.2));
#796=CARTESIAN_POINT('Origin',(-3.59081830233924E-17,-9.,4.2));
#797=CARTESIAN_POINT('',(-1.25,-9.,4.2));
#798=CARTESIAN_POINT('',(-1.25,-9.,4.2));
#799=CARTESIAN_POINT('Origin',(-3.59081830233924E-17,-9.,4.2));
#800=CARTESIAN_POINT('Origin',(0.,-9.,4.2));
#801=CARTESIAN_POINT('Origin',(0.,17.45,-3.00000273011752));
#802=CARTESIAN_POINT('',(-1.25,17.45,-3.00000273011752));
#803=CARTESIAN_POINT('Origin',(-3.59081830233924E-17,17.45,-3.00000273011752));
#804=CARTESIAN_POINT('Origin',(-3.59081830233924E-17,17.45,3.2));
#805=CARTESIAN_POINT('',(-1.25,17.45,3.20000000000001));
#806=CARTESIAN_POINT('',(-1.25,17.45,3.2));
#807=CARTESIAN_POINT('',(0.749999999999995,16.45,3.2));
#808=CARTESIAN_POINT('Origin',(-3.59081830233924E-17,17.45,3.2));
#809=CARTESIAN_POINT('',(-0.749999999999994,16.45,3.2));
#810=CARTESIAN_POINT('Origin',(-3.59081830233924E-17,17.45,4.2));
#811=CARTESIAN_POINT('Origin',(-3.59081830233924E-17,17.45,3.2));
#812=CARTESIAN_POINT('Ctrl Pts',(-0.749999999999994,16.45,3.2));
#813=CARTESIAN_POINT('Ctrl Pts',(-0.749999999999994,16.45,3.2));
#814=CARTESIAN_POINT('Ctrl Pts',(-0.749999999999994,16.45,3.2));
#815=CARTESIAN_POINT('Ctrl Pts',(-1.47075922005613,16.45,3.74056941504209));
#816=CARTESIAN_POINT('Ctrl Pts',(-1.47075922005613,16.9905694150421,3.74056941504209));
#817=CARTESIAN_POINT('Ctrl Pts',(-1.47075922005613,16.9905694150421,3.2));
#818=CARTESIAN_POINT('Ctrl Pts',(-1.18585412256314,16.45,4.59528470752104));
#819=CARTESIAN_POINT('Ctrl Pts',(-1.18585412256314,17.8452847075211,4.59528470752105));
#820=CARTESIAN_POINT('Ctrl Pts',(-1.18585412256314,17.845284707521,3.2));
#821=CARTESIAN_POINT('Ctrl Pts',(-0.900949025070161,16.45,5.45));
#822=CARTESIAN_POINT('Ctrl Pts',(-0.900949025070161,18.7,5.45000000000002));
#823=CARTESIAN_POINT('Ctrl Pts',(-0.900949025070161,18.7,3.2));
#824=CARTESIAN_POINT('Ctrl Pts',(-3.59081830233924E-17,16.45,5.45));
#825=CARTESIAN_POINT('Ctrl Pts',(-3.59081830233924E-17,18.7,5.45000000000002));
#826=CARTESIAN_POINT('Ctrl Pts',(-3.59081830233924E-17,18.7,3.2));
#827=CARTESIAN_POINT('Ctrl Pts',(0.900949025070161,16.45,5.45));
#828=CARTESIAN_POINT('Ctrl Pts',(0.900949025070161,18.7,5.45000000000002));
#829=CARTESIAN_POINT('Ctrl Pts',(0.900949025070161,18.7,3.2));
#830=CARTESIAN_POINT('Ctrl Pts',(1.18585412256314,16.45,4.59528470752104));
#831=CARTESIAN_POINT('Ctrl Pts',(1.18585412256314,17.8452847075211,4.59528470752105));
#832=CARTESIAN_POINT('Ctrl Pts',(1.18585412256314,17.845284707521,3.2));
#833=CARTESIAN_POINT('Ctrl Pts',(1.47075922005613,16.45,3.74056941504209));
#834=CARTESIAN_POINT('Ctrl Pts',(1.47075922005613,16.9905694150421,3.74056941504209));
#835=CARTESIAN_POINT('Ctrl Pts',(1.47075922005613,16.9905694150421,3.2));
#836=CARTESIAN_POINT('Ctrl Pts',(0.749999999999994,16.45,3.2));
#837=CARTESIAN_POINT('Ctrl Pts',(0.749999999999994,16.45,3.2));
#838=CARTESIAN_POINT('Ctrl Pts',(0.749999999999994,16.45,3.2));
#839=CARTESIAN_POINT('',(-1.25,16.45,4.2));
#840=CARTESIAN_POINT('Origin',(-3.59081830233924E-17,16.45,4.2));
#841=CARTESIAN_POINT('Origin',(-3.59081830233924E-17,16.45,4.2));
#842=CARTESIAN_POINT('Origin',(-3.59081830233924E-17,9.,4.2));
#843=CARTESIAN_POINT('',(-1.25,9.,4.2));
#844=CARTESIAN_POINT('',(-1.25,9.,4.2));
#845=CARTESIAN_POINT('Origin',(-3.59081830233924E-17,9.,4.2));
#846=CARTESIAN_POINT('Origin',(0.,9.,4.2));
#847=UNCERTAINTY_MEASURE_WITH_UNIT(LENGTH_MEASURE(0.01),#851,
'DISTANCE_ACCURACY_VALUE',
'Maximum model space distance between geometric entities at asserted c
onnectivities');
#848=UNCERTAINTY_MEASURE_WITH_UNIT(LENGTH_MEASURE(0.01),#851,
'DISTANCE_ACCURACY_VALUE',
'Maximum model space distance between geometric entities at asserted c
onnectivities');
#849=(
GEOMETRIC_REPRESENTATION_CONTEXT(3)
GLOBAL_UNCERTAINTY_ASSIGNED_CONTEXT((#847))
GLOBAL_UNIT_ASSIGNED_CONTEXT((#851,#853,#854))
REPRESENTATION_CONTEXT('','3D')
);
#850=(
GEOMETRIC_REPRESENTATION_CONTEXT(3)
GLOBAL_UNCERTAINTY_ASSIGNED_CONTEXT((#848))
GLOBAL_UNIT_ASSIGNED_CONTEXT((#851,#853,#854))
REPRESENTATION_CONTEXT('','3D')
);
#851=(
LENGTH_UNIT()
NAMED_UNIT(*)
SI_UNIT(.MILLI.,.METRE.)
);
#852=(
LENGTH_UNIT()
NAMED_UNIT(*)
SI_UNIT($,.METRE.)
);
#853=(
NAMED_UNIT(*)
PLANE_ANGLE_UNIT()
SI_UNIT($,.RADIAN.)
);
#854=(
NAMED_UNIT(*)
SI_UNIT($,.STERADIAN.)
SOLID_ANGLE_UNIT()
);
#855=SHAPE_DEFINITION_REPRESENTATION(#856,#857);
#856=PRODUCT_DEFINITION_SHAPE('',$,#859);
#857=SHAPE_REPRESENTATION('',(#477),#849);
#858=PRODUCT_DEFINITION_CONTEXT('part definition',#863,'design');
#859=PRODUCT_DEFINITION('resistor_rx24_10w','resistor_rx24_10w v1',#860,
#858);
#860=PRODUCT_DEFINITION_FORMATION('',$,#865);
#861=PRODUCT_RELATED_PRODUCT_CATEGORY('resistor_rx24_10w v1',
'resistor_rx24_10w v1',(#865));
#862=APPLICATION_PROTOCOL_DEFINITION('international standard',
'automotive_design',2009,#863);
#863=APPLICATION_CONTEXT(
'Core Data for Automotive Mechanical Design Process');
#864=PRODUCT_CONTEXT('part definition',#863,'mechanical');
#865=PRODUCT('resistor_rx24_10w','resistor_rx24_10w v1',$,(#864));
#866=PRESENTATION_STYLE_ASSIGNMENT((#869));
#867=PRESENTATION_STYLE_ASSIGNMENT((#870));
#868=PRESENTATION_STYLE_ASSIGNMENT((#871));
#869=SURFACE_STYLE_USAGE(.BOTH.,#872);
#870=SURFACE_STYLE_USAGE(.BOTH.,#873);
#871=SURFACE_STYLE_USAGE(.BOTH.,#874);
#872=SURFACE_SIDE_STYLE('',(#875));
#873=SURFACE_SIDE_STYLE('',(#876));
#874=SURFACE_SIDE_STYLE('',(#877));
#875=SURFACE_STYLE_FILL_AREA(#878);
#876=SURFACE_STYLE_FILL_AREA(#879);
#877=SURFACE_STYLE_FILL_AREA(#880);
#878=FILL_AREA_STYLE('Lat\X\E3o - Polido',(#881));
#879=FILL_AREA_STYLE('Fibra de carbono - Simples',(#882));
#880=FILL_AREA_STYLE('Alum\X\EDnio - Polido',(#883));
#881=FILL_AREA_STYLE_COLOUR('Lat\X\E3o - Polido',#884);
#882=FILL_AREA_STYLE_COLOUR('Fibra de carbono - Simples',#885);
#883=FILL_AREA_STYLE_COLOUR('Alum\X\EDnio - Polido',#886);
#884=COLOUR_RGB('Lat\X\E3o - Polido',0.952941176470588,0.796078431372549,
0.486274509803922);
#885=COLOUR_RGB('Fibra de carbono - Simples',0.0980392156862745,0.0980392156862745,
0.0980392156862745);
#886=COLOUR_RGB('Alum\X\EDnio - Polido',0.96078431372549,0.96078431372549,
0.964705882352941);
ENDSEC;
END-ISO-10303-21;
