M48
; DRILL file {KiCad 9.0.4-9.0.4-0~ubuntu24.04.1} date 2025-10-05T17:55:37-0300
; FORMAT={-:-/ absolute / metric / decimal}
; #@! TF.CreationDate,2025-10-05T17:55:37-03:00
; #@! TF.GenerationSoftware,Kicad,Pcbnew,9.0.4-9.0.4-0~ubuntu24.04.1
; #@! TF.FileFunction,MixedPlating,1,2
FMAT,2
METRIC
; #@! TA.AperFunction,Plated,PTH,ViaDrill
T1C0.300
; #@! TA.AperFunction,Plated,PTH,ComponentDrill
T2C0.700
; #@! TA.AperFunction,Plated,PTH,ComponentDrill
T3C0.800
; #@! TA.AperFunction,Plated,PTH,ComponentDrill
T4C0.950
; #@! TA.AperFunction,Plated,PTH,ComponentDrill
T5C1.000
; #@! TA.AperFunction,Plated,PTH,ComponentDrill
T6C1.050
; #@! TA.AperFunction,Plated,PTH,ComponentDrill
T7C1.300
; #@! TA.AperFunction,Plated,PTH,ComponentDrill
T8C1.600
; #@! TA.AperFunction,Plated,PTH,ComponentDrill
T9C1.700
; #@! TA.AperFunction,Plated,PTH,ComponentDrill
T10C1.900
; #@! TA.AperFunction,NonPlated,NPTH,ComponentDrill
T11C3.200
%
G90
G05
T1
X61.413Y-129.998
X61.413Y-131.268
X61.413Y-132.538
T2
X69.795Y-85.04
X69.795Y-90.12
X77.415Y-85.04
X77.415Y-90.12
T3
X73.605Y-85.08
X73.605Y-90.08
X113.235Y-86.39
X113.235Y-91.39
X113.295Y-115.58
X113.295Y-120.58
X113.362Y-100.995
X113.362Y-105.995
T4
X85.035Y-100.815
X85.035Y-103.315
X85.035Y-105.815
X86.305Y-86.21
X86.305Y-88.71
X86.305Y-91.21
T5
X47.791Y-61.048
X47.791Y-150.745
X48.205Y-64.523
X48.205Y-147.27
X61.784Y-52.64
X61.784Y-155.54
X63.324Y-65.548
X63.324Y-142.632
X81.225Y-69.38
X81.225Y-80.38
X93.065Y-85.04
X93.065Y-87.58
X93.065Y-90.12
X93.065Y-92.66
X93.163Y-114.25
X93.163Y-116.79
X93.163Y-119.33
X93.163Y-121.87
X93.192Y-99.645
X93.192Y-102.185
X93.192Y-104.725
X93.192Y-107.265
X116.605Y-104.09
X116.605Y-107.59
X126.757Y-136.964
X131.096Y-97.59
X131.096Y-110.59
X131.785Y-146.748
X132.996Y-69.736
X138.024Y-59.952
T6
X72.898Y-102.616
X72.898Y-105.116
T7
X73.605Y-121.87
X86.305Y-121.87
T8
X120.761Y-116.405
X120.761Y-129.875
X124.161Y-116.405
X124.161Y-129.875
T9
X71.225Y-72.38
X71.225Y-77.38
X132.575Y-137.347
X134.861Y-141.794
X138.815Y-69.353
X141.1Y-64.906
T10
X52.21Y-151.377
X52.21Y-56.803
X52.624Y-147.902
X52.624Y-60.278
X53.039Y-144.426
X53.039Y-63.754
X121.096Y-100.59
X121.096Y-104.09
X121.096Y-107.59
T11
X93.847Y-131.665
X93.847Y-76.515
X146.985Y-104.09
M30
