%TF.GenerationSoftware,KiCad,Pcbnew,9.0.4-9.0.4-0~ubuntu24.04.1*%
%TF.CreationDate,2025-10-08T16:16:52-03:00*%
%TF.ProjectId,teste_footprint,74657374-655f-4666-9f6f-747072696e74,rev?*%
%TF.SameCoordinates,Original*%
%TF.FileFunction,Copper,L1,Top*%
%TF.FilePolarity,Positive*%
%FSLAX46Y46*%
G04 Gerber Fmt 4.6, Leading zero omitted, Abs format (unit mm)*
G04 Created by KiCad (PCBNEW 9.0.4-9.0.4-0~ubuntu24.04.1) date 2025-10-08 16:16:52*
%MOMM*%
%LPD*%
G01*
G04 APERTURE LIST*
G04 Aperture macros list*
%AMRoundRect*
0 Rectangle with rounded corners*
0 $1 Rounding radius*
0 $2 $3 $4 $5 $6 $7 $8 $9 X,Y pos of 4 corners*
0 Add a 4 corners polygon primitive as box body*
4,1,4,$2,$3,$4,$5,$6,$7,$8,$9,$2,$3,0*
0 Add four circle primitives for the rounded corners*
1,1,$1+$1,$2,$3*
1,1,$1+$1,$4,$5*
1,1,$1+$1,$6,$7*
1,1,$1+$1,$8,$9*
0 Add four rect primitives between the rounded corners*
20,1,$1+$1,$2,$3,$4,$5,0*
20,1,$1+$1,$4,$5,$6,$7,0*
20,1,$1+$1,$6,$7,$8,$9,0*
20,1,$1+$1,$8,$9,$2,$3,0*%
G04 Aperture macros list end*
%ADD10C,0.150000*%
%ADD11C,0.250000*%
%ADD12C,0.125000*%
%TA.AperFunction,NonConductor*%
%ADD13C,0.150000*%
%TD*%
%TA.AperFunction,NonConductor*%
%ADD14C,0.125000*%
%TD*%
%TA.AperFunction,NonConductor*%
%ADD15C,0.250000*%
%TD*%
%TA.AperFunction,SMDPad,CuDef*%
%ADD16RoundRect,0.100000X-0.637500X-0.100000X0.637500X-0.100000X0.637500X0.100000X-0.637500X0.100000X0*%
%TD*%
%TA.AperFunction,HeatsinkPad*%
%ADD17R,2.150000X3.350000*%
%TD*%
%TA.AperFunction,Conductor*%
%ADD18C,0.200000*%
%TD*%
%TA.AperFunction,Conductor*%
%ADD19C,0.127000*%
%TD*%
%TA.AperFunction,Conductor*%
%ADD20C,0.254000*%
%TD*%
%TA.AperFunction,Conductor*%
%ADD21C,0.508000*%
%TD*%
%TA.AperFunction,Conductor*%
%ADD22C,1.270000*%
%TD*%
%TA.AperFunction,Conductor*%
%ADD23C,0.635000*%
%TD*%
G04 APERTURE END LIST*
D10*
G36*
X144468875Y-109215077D02*
G01*
X144499282Y-109245484D01*
X144537775Y-109322471D01*
X144581159Y-109496005D01*
X144581159Y-109715632D01*
X144537775Y-109889166D01*
X144499281Y-109966153D01*
X144468874Y-109996561D01*
X144400359Y-110030819D01*
X144340531Y-110030819D01*
X144272015Y-109996561D01*
X144241608Y-109966153D01*
X144203114Y-109889166D01*
X144159731Y-109715632D01*
X144159731Y-109496005D01*
X144203114Y-109322471D01*
X144241608Y-109245484D01*
X144272015Y-109215077D01*
X144340531Y-109180819D01*
X144400359Y-109180819D01*
X144468875Y-109215077D01*
G37*
G36*
X147461318Y-110291930D02*
G01*
X142470638Y-110291930D01*
X142470638Y-109382152D01*
X142581749Y-109382152D01*
X142583823Y-109411342D01*
X142596910Y-109437517D01*
X142619018Y-109456690D01*
X142646779Y-109465944D01*
X142675969Y-109463870D01*
X142689701Y-109458615D01*
X142784939Y-109410996D01*
X142791238Y-109407031D01*
X142793066Y-109406274D01*
X142795122Y-109404585D01*
X142797382Y-109403164D01*
X142798681Y-109401665D01*
X142804431Y-109396947D01*
X142866874Y-109334504D01*
X142866874Y-110030819D01*
X142656160Y-110030819D01*
X142641528Y-110032260D01*
X142614492Y-110043459D01*
X142593800Y-110064151D01*
X142582601Y-110091187D01*
X142582601Y-110120451D01*
X142593800Y-110147487D01*
X142614492Y-110168179D01*
X142641528Y-110179378D01*
X142656160Y-110180819D01*
X143227588Y-110180819D01*
X143242220Y-110179378D01*
X143269256Y-110168179D01*
X143289948Y-110147487D01*
X143301147Y-110120451D01*
X143301147Y-110091187D01*
X143289948Y-110064151D01*
X143269366Y-110043569D01*
X143534982Y-110043569D01*
X143534982Y-110072832D01*
X143540019Y-110084991D01*
X143546181Y-110099868D01*
X143555508Y-110111233D01*
X143603127Y-110158852D01*
X143614492Y-110168179D01*
X143641528Y-110179378D01*
X143641529Y-110179378D01*
X143670791Y-110179378D01*
X143670792Y-110179378D01*
X143697828Y-110168179D01*
X143709193Y-110158852D01*
X143756812Y-110111233D01*
X143766139Y-110099868D01*
X143777338Y-110072832D01*
X143777338Y-110043569D01*
X143777292Y-110043459D01*
X143766140Y-110016533D01*
X143756812Y-110005167D01*
X143709194Y-109957548D01*
X143697828Y-109948220D01*
X143697827Y-109948219D01*
X143679531Y-109940641D01*
X143670792Y-109937021D01*
X143670791Y-109937021D01*
X143641528Y-109937021D01*
X143632789Y-109940641D01*
X143614493Y-109948219D01*
X143614492Y-109948220D01*
X143603126Y-109957548D01*
X143555507Y-110005168D01*
X143546180Y-110016533D01*
X143534982Y-110043569D01*
X143269366Y-110043569D01*
X143269256Y-110043459D01*
X143242220Y-110032260D01*
X143227588Y-110030819D01*
X143016874Y-110030819D01*
X143016874Y-109486771D01*
X144009731Y-109486771D01*
X144009731Y-109724866D01*
X144009982Y-109727419D01*
X144009820Y-109728512D01*
X144010629Y-109733985D01*
X144011172Y-109739498D01*
X144011594Y-109740519D01*
X144011970Y-109743056D01*
X144059589Y-109933532D01*
X144059974Y-109934611D01*
X144060013Y-109935151D01*
X144062340Y-109941232D01*
X144064536Y-109947378D01*
X144064858Y-109947813D01*
X144065268Y-109948883D01*
X144112887Y-110044121D01*
X144116850Y-110050417D01*
X144117608Y-110052247D01*
X144119297Y-110054305D01*
X144120719Y-110056564D01*
X144122217Y-110057863D01*
X144126935Y-110063612D01*
X144174554Y-110111232D01*
X144180303Y-110115950D01*
X144181604Y-110117450D01*
X144183863Y-110118872D01*
X144185920Y-110120560D01*
X144187747Y-110121317D01*
X144194047Y-110125282D01*
X144289285Y-110172901D01*
X144303016Y-110178156D01*
X144305705Y-110178347D01*
X144308194Y-110179378D01*
X144322826Y-110180819D01*
X144418064Y-110180819D01*
X144432696Y-110179378D01*
X144435185Y-110178346D01*
X144437873Y-110178156D01*
X144451605Y-110172901D01*
X144546843Y-110125282D01*
X144553142Y-110121317D01*
X144554970Y-110120560D01*
X144557026Y-110118872D01*
X144559286Y-110117450D01*
X144560586Y-110115950D01*
X144566336Y-110111232D01*
X144613954Y-110063613D01*
X144618672Y-110057863D01*
X144620171Y-110056564D01*
X144621592Y-110054305D01*
X144623282Y-110052247D01*
X144624039Y-110050417D01*
X144628003Y-110044121D01*
X144675622Y-109948883D01*
X144676031Y-109947813D01*
X144676354Y-109947378D01*
X144678546Y-109941241D01*
X144680877Y-109935152D01*
X144680915Y-109934611D01*
X144681301Y-109933532D01*
X144728920Y-109743056D01*
X144729295Y-109740519D01*
X144729718Y-109739498D01*
X144730260Y-109733985D01*
X144731070Y-109728512D01*
X144730907Y-109727419D01*
X144731159Y-109724866D01*
X144731159Y-109486771D01*
X144730907Y-109484217D01*
X144731070Y-109483125D01*
X144730260Y-109477651D01*
X144729718Y-109472139D01*
X144729295Y-109471117D01*
X144728920Y-109468581D01*
X144721563Y-109439152D01*
X145009731Y-109439152D01*
X145009731Y-110105819D01*
X145011172Y-110120451D01*
X145022371Y-110147487D01*
X145043063Y-110168179D01*
X145070099Y-110179378D01*
X145099363Y-110179378D01*
X145126399Y-110168179D01*
X145147091Y-110147487D01*
X145158290Y-110120451D01*
X145159731Y-110105819D01*
X145159731Y-109565456D01*
X145176777Y-109548410D01*
X145245293Y-109514152D01*
X145352740Y-109514152D01*
X145409781Y-109542672D01*
X145438302Y-109599714D01*
X145438302Y-110105819D01*
X145439743Y-110120451D01*
X145450942Y-110147487D01*
X145471634Y-110168179D01*
X145498670Y-110179378D01*
X145527934Y-110179378D01*
X145554970Y-110168179D01*
X145575662Y-110147487D01*
X145586861Y-110120451D01*
X145588302Y-110105819D01*
X145588302Y-109599714D01*
X145616822Y-109542672D01*
X145673864Y-109514152D01*
X145781311Y-109514152D01*
X145838353Y-109542672D01*
X145866874Y-109599714D01*
X145866874Y-110105819D01*
X145868315Y-110120451D01*
X145879514Y-110147487D01*
X145900206Y-110168179D01*
X145927242Y-110179378D01*
X145956506Y-110179378D01*
X145983542Y-110168179D01*
X146004234Y-110147487D01*
X146015433Y-110120451D01*
X146016874Y-110105819D01*
X146016874Y-109582009D01*
X146015433Y-109567377D01*
X146014402Y-109564888D01*
X146014211Y-109562199D01*
X146008956Y-109548468D01*
X145961337Y-109453230D01*
X145959796Y-109450782D01*
X145959412Y-109449629D01*
X145958166Y-109448192D01*
X145953505Y-109440787D01*
X145951620Y-109439152D01*
X146343064Y-109439152D01*
X146343064Y-110105819D01*
X146344505Y-110120451D01*
X146355704Y-110147487D01*
X146376396Y-110168179D01*
X146403432Y-110179378D01*
X146432696Y-110179378D01*
X146459732Y-110168179D01*
X146480424Y-110147487D01*
X146491623Y-110120451D01*
X146493064Y-110105819D01*
X146493064Y-109565456D01*
X146510110Y-109548410D01*
X146578626Y-109514152D01*
X146686073Y-109514152D01*
X146743114Y-109542672D01*
X146771635Y-109599714D01*
X146771635Y-110105819D01*
X146773076Y-110120451D01*
X146784275Y-110147487D01*
X146804967Y-110168179D01*
X146832003Y-110179378D01*
X146861267Y-110179378D01*
X146888303Y-110168179D01*
X146908995Y-110147487D01*
X146920194Y-110120451D01*
X146921635Y-110105819D01*
X146921635Y-109599714D01*
X146950155Y-109542672D01*
X147007197Y-109514152D01*
X147114644Y-109514152D01*
X147171686Y-109542672D01*
X147200207Y-109599714D01*
X147200207Y-110105819D01*
X147201648Y-110120451D01*
X147212847Y-110147487D01*
X147233539Y-110168179D01*
X147260575Y-110179378D01*
X147289839Y-110179378D01*
X147316875Y-110168179D01*
X147337567Y-110147487D01*
X147348766Y-110120451D01*
X147350207Y-110105819D01*
X147350207Y-109582009D01*
X147348766Y-109567377D01*
X147347735Y-109564888D01*
X147347544Y-109562199D01*
X147342289Y-109548468D01*
X147294670Y-109453230D01*
X147293129Y-109450782D01*
X147292745Y-109449629D01*
X147291499Y-109448192D01*
X147286838Y-109440787D01*
X147279730Y-109434623D01*
X147273571Y-109427521D01*
X147266167Y-109422860D01*
X147264730Y-109421614D01*
X147263575Y-109421229D01*
X147261129Y-109419689D01*
X147165890Y-109372070D01*
X147152158Y-109366815D01*
X147149470Y-109366624D01*
X147146981Y-109365593D01*
X147132349Y-109364152D01*
X146989492Y-109364152D01*
X146974860Y-109365593D01*
X146972371Y-109366623D01*
X146969682Y-109366815D01*
X146955951Y-109372070D01*
X146860713Y-109419689D01*
X146858265Y-109421229D01*
X146857112Y-109421614D01*
X146855675Y-109422859D01*
X146848270Y-109427521D01*
X146846635Y-109429406D01*
X146845000Y-109427521D01*
X146837594Y-109422859D01*
X146836158Y-109421614D01*
X146835004Y-109421229D01*
X146832557Y-109419689D01*
X146737319Y-109372070D01*
X146723587Y-109366815D01*
X146720899Y-109366624D01*
X146718410Y-109365593D01*
X146703778Y-109364152D01*
X146560921Y-109364152D01*
X146546289Y-109365593D01*
X146543800Y-109366623D01*
X146541111Y-109366815D01*
X146527380Y-109372070D01*
X146479133Y-109396193D01*
X146459732Y-109376792D01*
X146432696Y-109365593D01*
X146403432Y-109365593D01*
X146376396Y-109376792D01*
X146355704Y-109397484D01*
X146344505Y-109424520D01*
X146343064Y-109439152D01*
X145951620Y-109439152D01*
X145946397Y-109434623D01*
X145940238Y-109427521D01*
X145932834Y-109422860D01*
X145931397Y-109421614D01*
X145930242Y-109421229D01*
X145927796Y-109419689D01*
X145832557Y-109372070D01*
X145818825Y-109366815D01*
X145816137Y-109366624D01*
X145813648Y-109365593D01*
X145799016Y-109364152D01*
X145656159Y-109364152D01*
X145641527Y-109365593D01*
X145639038Y-109366623D01*
X145636349Y-109366815D01*
X145622618Y-109372070D01*
X145527380Y-109419689D01*
X145524932Y-109421229D01*
X145523779Y-109421614D01*
X145522342Y-109422859D01*
X145514937Y-109427521D01*
X145513302Y-109429406D01*
X145511667Y-109427521D01*
X145504261Y-109422859D01*
X145502825Y-109421614D01*
X145501671Y-109421229D01*
X145499224Y-109419689D01*
X145403986Y-109372070D01*
X145390254Y-109366815D01*
X145387566Y-109366624D01*
X145385077Y-109365593D01*
X145370445Y-109364152D01*
X145227588Y-109364152D01*
X145212956Y-109365593D01*
X145210467Y-109366623D01*
X145207778Y-109366815D01*
X145194047Y-109372070D01*
X145145800Y-109396193D01*
X145126399Y-109376792D01*
X145099363Y-109365593D01*
X145070099Y-109365593D01*
X145043063Y-109376792D01*
X145022371Y-109397484D01*
X145011172Y-109424520D01*
X145009731Y-109439152D01*
X144721563Y-109439152D01*
X144681301Y-109278105D01*
X144680915Y-109277025D01*
X144680877Y-109276485D01*
X144678546Y-109270395D01*
X144676354Y-109264259D01*
X144676031Y-109263823D01*
X144675622Y-109262754D01*
X144628003Y-109167516D01*
X144624038Y-109161216D01*
X144623281Y-109159389D01*
X144621592Y-109157332D01*
X144620171Y-109155073D01*
X144618672Y-109153773D01*
X144613954Y-109148024D01*
X144566335Y-109100405D01*
X144560585Y-109095686D01*
X144559286Y-109094188D01*
X144557026Y-109092766D01*
X144554970Y-109091078D01*
X144553142Y-109090320D01*
X144546843Y-109086356D01*
X144451605Y-109038737D01*
X144437873Y-109033482D01*
X144435185Y-109033291D01*
X144432696Y-109032260D01*
X144418064Y-109030819D01*
X144322826Y-109030819D01*
X144308194Y-109032260D01*
X144305705Y-109033290D01*
X144303016Y-109033482D01*
X144289285Y-109038737D01*
X144194047Y-109086356D01*
X144187747Y-109090320D01*
X144185920Y-109091078D01*
X144183863Y-109092766D01*
X144181604Y-109094188D01*
X144180304Y-109095686D01*
X144174555Y-109100405D01*
X144126936Y-109148024D01*
X144122217Y-109153773D01*
X144120719Y-109155073D01*
X144119297Y-109157332D01*
X144117609Y-109159389D01*
X144116851Y-109161216D01*
X144112887Y-109167516D01*
X144065268Y-109262754D01*
X144064858Y-109263823D01*
X144064536Y-109264259D01*
X144062340Y-109270404D01*
X144060013Y-109276486D01*
X144059974Y-109277025D01*
X144059589Y-109278105D01*
X144011970Y-109468581D01*
X144011594Y-109471117D01*
X144011172Y-109472139D01*
X144010629Y-109477651D01*
X144009820Y-109483125D01*
X144009982Y-109484217D01*
X144009731Y-109486771D01*
X143016874Y-109486771D01*
X143016874Y-109105819D01*
X143016868Y-109105766D01*
X143016874Y-109105740D01*
X143016858Y-109105663D01*
X143015433Y-109091187D01*
X143012591Y-109084326D01*
X143011135Y-109077045D01*
X143007045Y-109070938D01*
X143004234Y-109064151D01*
X142998985Y-109058902D01*
X142994852Y-109052730D01*
X142988735Y-109048652D01*
X142983542Y-109043459D01*
X142976682Y-109040617D01*
X142970503Y-109036498D01*
X142963294Y-109035072D01*
X142956506Y-109032260D01*
X142949079Y-109032260D01*
X142941795Y-109030819D01*
X142934590Y-109032260D01*
X142927242Y-109032260D01*
X142920381Y-109035101D01*
X142913101Y-109036558D01*
X142906995Y-109040646D01*
X142900206Y-109043459D01*
X142894955Y-109048709D01*
X142888786Y-109052841D01*
X142879565Y-109064099D01*
X142879514Y-109064151D01*
X142879504Y-109064173D01*
X142879470Y-109064216D01*
X142788350Y-109200896D01*
X142706971Y-109282275D01*
X142622619Y-109324451D01*
X142610176Y-109332283D01*
X142591003Y-109354391D01*
X142581749Y-109382152D01*
X142470638Y-109382152D01*
X142470638Y-108919708D01*
X147461318Y-108919708D01*
X147461318Y-110291930D01*
G37*
D11*
G36*
X142869667Y-113510208D02*
G01*
X142936217Y-113576758D01*
X143016246Y-113736817D01*
X143104425Y-114089531D01*
X143104425Y-114534944D01*
X143016246Y-114887658D01*
X142936217Y-115047715D01*
X142869665Y-115114268D01*
X142723727Y-115187238D01*
X142592266Y-115187238D01*
X142446328Y-115114269D01*
X142379776Y-115047716D01*
X142299746Y-114887657D01*
X142211568Y-114534944D01*
X142211568Y-114089531D01*
X142299746Y-113736817D01*
X142379776Y-113576757D01*
X142446326Y-113510208D01*
X142592266Y-113437238D01*
X142723727Y-113437238D01*
X142869667Y-113510208D01*
G37*
G36*
X148814743Y-115659460D02*
G01*
X138789367Y-115659460D01*
X138789367Y-115287851D01*
X139011589Y-115287851D01*
X139011589Y-115336625D01*
X139017055Y-115349822D01*
X139030253Y-115381684D01*
X139064741Y-115416172D01*
X139096602Y-115429369D01*
X139109800Y-115434836D01*
X139109801Y-115434836D01*
X139134187Y-115437238D01*
X140372282Y-115437238D01*
X140396668Y-115434836D01*
X140441728Y-115416172D01*
X140476216Y-115381684D01*
X140494880Y-115336624D01*
X140494880Y-115287852D01*
X140476216Y-115242792D01*
X140441728Y-115208304D01*
X140403848Y-115192614D01*
X141011589Y-115192614D01*
X141011589Y-115241387D01*
X141030254Y-115286447D01*
X141030258Y-115286451D01*
X141045799Y-115305388D01*
X141141037Y-115400626D01*
X141159973Y-115416166D01*
X141159979Y-115416172D01*
X141191840Y-115429369D01*
X141205038Y-115434836D01*
X141205039Y-115434836D01*
X141253811Y-115434836D01*
X141253812Y-115434836D01*
X141267009Y-115429369D01*
X141298871Y-115416172D01*
X141298876Y-115416166D01*
X141317813Y-115400626D01*
X141413051Y-115305388D01*
X141428591Y-115286451D01*
X141428596Y-115286447D01*
X141447261Y-115241388D01*
X141447262Y-115192614D01*
X141428597Y-115147554D01*
X141413052Y-115128612D01*
X141317814Y-115033373D01*
X141298872Y-115017828D01*
X141298871Y-115017827D01*
X141292703Y-115015272D01*
X141253811Y-114999162D01*
X141205038Y-114999163D01*
X141186374Y-115006894D01*
X141159979Y-115017827D01*
X141159978Y-115017828D01*
X141141036Y-115033373D01*
X141045798Y-115128612D01*
X141030253Y-115147554D01*
X141017782Y-115177663D01*
X141012172Y-115191207D01*
X141011589Y-115192614D01*
X140403848Y-115192614D01*
X140396668Y-115189640D01*
X140372282Y-115187238D01*
X139435963Y-115187238D01*
X140365433Y-114257768D01*
X140380978Y-114238826D01*
X140382697Y-114234674D01*
X140385639Y-114231283D01*
X140395629Y-114208908D01*
X140440551Y-114074142D01*
X141961568Y-114074142D01*
X141961568Y-114550333D01*
X141961987Y-114554587D01*
X141961716Y-114556409D01*
X141963065Y-114565537D01*
X141963970Y-114574719D01*
X141964674Y-114576420D01*
X141965300Y-114580650D01*
X142060538Y-114961602D01*
X142061181Y-114963401D01*
X142061245Y-114964301D01*
X142065127Y-114974447D01*
X142068783Y-114984677D01*
X142069319Y-114985401D01*
X142070003Y-114987187D01*
X142165241Y-115177663D01*
X142171846Y-115188155D01*
X142173110Y-115191207D01*
X142175930Y-115194643D01*
X142178295Y-115198400D01*
X142180786Y-115200560D01*
X142188655Y-115210149D01*
X142283893Y-115305388D01*
X142293481Y-115313257D01*
X142295643Y-115315749D01*
X142299400Y-115318114D01*
X142302835Y-115320933D01*
X142305885Y-115322196D01*
X142316380Y-115328803D01*
X142506857Y-115424042D01*
X142529742Y-115432799D01*
X142534223Y-115433117D01*
X142538372Y-115434836D01*
X142562758Y-115437238D01*
X142753235Y-115437238D01*
X142777621Y-115434836D01*
X142781769Y-115433117D01*
X142786251Y-115432799D01*
X142809137Y-115424041D01*
X142999613Y-115328803D01*
X143010107Y-115322196D01*
X143013158Y-115320933D01*
X143016592Y-115318114D01*
X143020350Y-115315749D01*
X143022511Y-115313257D01*
X143032100Y-115305388D01*
X143127338Y-115210149D01*
X143135206Y-115200560D01*
X143137698Y-115198400D01*
X143140062Y-115194643D01*
X143142883Y-115191207D01*
X143144147Y-115188155D01*
X143150752Y-115177663D01*
X143245991Y-114987186D01*
X143246674Y-114985399D01*
X143247210Y-114984677D01*
X143250861Y-114974458D01*
X143254748Y-114964301D01*
X143254811Y-114963401D01*
X143255455Y-114961602D01*
X143350693Y-114580650D01*
X143351318Y-114576420D01*
X143352023Y-114574719D01*
X143352927Y-114565539D01*
X143354277Y-114556410D01*
X143354005Y-114554587D01*
X143354425Y-114550333D01*
X143354425Y-114074142D01*
X143354005Y-114069887D01*
X143354277Y-114068065D01*
X143352927Y-114058935D01*
X143352023Y-114049756D01*
X143351318Y-114048054D01*
X143350693Y-114043825D01*
X143334463Y-113978904D01*
X143961568Y-113978904D01*
X143961568Y-115312238D01*
X143963970Y-115336624D01*
X143982634Y-115381684D01*
X144017122Y-115416172D01*
X144062182Y-115434836D01*
X144110954Y-115434836D01*
X144156014Y-115416172D01*
X144190502Y-115381684D01*
X144209166Y-115336624D01*
X144211568Y-115312238D01*
X144211568Y-114221156D01*
X144255850Y-114176874D01*
X144401790Y-114103904D01*
X144628489Y-114103904D01*
X144755303Y-114167311D01*
X144818711Y-114294127D01*
X144818711Y-115312238D01*
X144821113Y-115336624D01*
X144839777Y-115381684D01*
X144874265Y-115416172D01*
X144919325Y-115434836D01*
X144968097Y-115434836D01*
X145013157Y-115416172D01*
X145047645Y-115381684D01*
X145066309Y-115336624D01*
X145068711Y-115312238D01*
X145068711Y-114294127D01*
X145132119Y-114167310D01*
X145258933Y-114103904D01*
X145485630Y-114103904D01*
X145612446Y-114167311D01*
X145675854Y-114294127D01*
X145675854Y-115312238D01*
X145678256Y-115336624D01*
X145696920Y-115381684D01*
X145731408Y-115416172D01*
X145776468Y-115434836D01*
X145825240Y-115434836D01*
X145870300Y-115416172D01*
X145904788Y-115381684D01*
X145923452Y-115336624D01*
X145925854Y-115312238D01*
X145925854Y-114264619D01*
X145923452Y-114240233D01*
X145921733Y-114236083D01*
X145921415Y-114231604D01*
X145912658Y-114208718D01*
X145817420Y-114018241D01*
X145814852Y-114014162D01*
X145814211Y-114012238D01*
X145812131Y-114009840D01*
X145804365Y-113997503D01*
X145792524Y-113987233D01*
X145785300Y-113978904D01*
X146628235Y-113978904D01*
X146628235Y-115312238D01*
X146630637Y-115336624D01*
X146649301Y-115381684D01*
X146683789Y-115416172D01*
X146728849Y-115434836D01*
X146777621Y-115434836D01*
X146822681Y-115416172D01*
X146857169Y-115381684D01*
X146875833Y-115336624D01*
X146878235Y-115312238D01*
X146878235Y-114221156D01*
X146922517Y-114176874D01*
X147068457Y-114103904D01*
X147295156Y-114103904D01*
X147421970Y-114167311D01*
X147485378Y-114294127D01*
X147485378Y-115312238D01*
X147487780Y-115336624D01*
X147506444Y-115381684D01*
X147540932Y-115416172D01*
X147585992Y-115434836D01*
X147634764Y-115434836D01*
X147679824Y-115416172D01*
X147714312Y-115381684D01*
X147732976Y-115336624D01*
X147735378Y-115312238D01*
X147735378Y-114294127D01*
X147798786Y-114167310D01*
X147925600Y-114103904D01*
X148152297Y-114103904D01*
X148279113Y-114167311D01*
X148342521Y-114294127D01*
X148342521Y-115312238D01*
X148344923Y-115336624D01*
X148363587Y-115381684D01*
X148398075Y-115416172D01*
X148443135Y-115434836D01*
X148491907Y-115434836D01*
X148536967Y-115416172D01*
X148571455Y-115381684D01*
X148590119Y-115336624D01*
X148592521Y-115312238D01*
X148592521Y-114264619D01*
X148590119Y-114240233D01*
X148588400Y-114236083D01*
X148588082Y-114231604D01*
X148579325Y-114208718D01*
X148484087Y-114018241D01*
X148481519Y-114014162D01*
X148480878Y-114012238D01*
X148478798Y-114009840D01*
X148471032Y-113997503D01*
X148459191Y-113987233D01*
X148448922Y-113975393D01*
X148436585Y-113967626D01*
X148434187Y-113965547D01*
X148432261Y-113964905D01*
X148428185Y-113962339D01*
X148237707Y-113867100D01*
X148214822Y-113858343D01*
X148210340Y-113858024D01*
X148206192Y-113856306D01*
X148181806Y-113853904D01*
X147896092Y-113853904D01*
X147871706Y-113856306D01*
X147867557Y-113858024D01*
X147863076Y-113858343D01*
X147840191Y-113867100D01*
X147649714Y-113962339D01*
X147645637Y-113964905D01*
X147643712Y-113965547D01*
X147641313Y-113967626D01*
X147628977Y-113975393D01*
X147618707Y-113987233D01*
X147610378Y-113994457D01*
X147602048Y-113987233D01*
X147591779Y-113975393D01*
X147579442Y-113967626D01*
X147577044Y-113965547D01*
X147575118Y-113964905D01*
X147571042Y-113962339D01*
X147380566Y-113867101D01*
X147357680Y-113858343D01*
X147353198Y-113858024D01*
X147349050Y-113856306D01*
X147324664Y-113853904D01*
X147038949Y-113853904D01*
X147014563Y-113856306D01*
X147010414Y-113858024D01*
X147005933Y-113858343D01*
X146983048Y-113867100D01*
X146864231Y-113926508D01*
X146857169Y-113909458D01*
X146822681Y-113874970D01*
X146777621Y-113856306D01*
X146728849Y-113856306D01*
X146683789Y-113874970D01*
X146649301Y-113909458D01*
X146630637Y-113954518D01*
X146628235Y-113978904D01*
X145785300Y-113978904D01*
X145782255Y-113975393D01*
X145769918Y-113967626D01*
X145767520Y-113965547D01*
X145765594Y-113964905D01*
X145761518Y-113962339D01*
X145571040Y-113867100D01*
X145548155Y-113858343D01*
X145543673Y-113858024D01*
X145539525Y-113856306D01*
X145515139Y-113853904D01*
X145229425Y-113853904D01*
X145205039Y-113856306D01*
X145200890Y-113858024D01*
X145196409Y-113858343D01*
X145173524Y-113867100D01*
X144983047Y-113962339D01*
X144978970Y-113964905D01*
X144977045Y-113965547D01*
X144974646Y-113967626D01*
X144962310Y-113975393D01*
X144952040Y-113987233D01*
X144943711Y-113994457D01*
X144935381Y-113987233D01*
X144925112Y-113975393D01*
X144912775Y-113967626D01*
X144910377Y-113965547D01*
X144908451Y-113964905D01*
X144904375Y-113962339D01*
X144713899Y-113867101D01*
X144691013Y-113858343D01*
X144686531Y-113858024D01*
X144682383Y-113856306D01*
X144657997Y-113853904D01*
X144372282Y-113853904D01*
X144347896Y-113856306D01*
X144343747Y-113858024D01*
X144339266Y-113858343D01*
X144316381Y-113867100D01*
X144197564Y-113926508D01*
X144190502Y-113909458D01*
X144156014Y-113874970D01*
X144110954Y-113856306D01*
X144062182Y-113856306D01*
X144017122Y-113874970D01*
X143982634Y-113909458D01*
X143963970Y-113954518D01*
X143961568Y-113978904D01*
X143334463Y-113978904D01*
X143255455Y-113662873D01*
X143254811Y-113661073D01*
X143254748Y-113660174D01*
X143250861Y-113650016D01*
X143247210Y-113639798D01*
X143246674Y-113639075D01*
X143245991Y-113637289D01*
X143150752Y-113446812D01*
X143144144Y-113436315D01*
X143142882Y-113433268D01*
X143140065Y-113429836D01*
X143137698Y-113426075D01*
X143135203Y-113423911D01*
X143127337Y-113414326D01*
X143032099Y-113319088D01*
X143022513Y-113311221D01*
X143020350Y-113308727D01*
X143016588Y-113306359D01*
X143013157Y-113303543D01*
X143010109Y-113302280D01*
X142999613Y-113295673D01*
X142809137Y-113200435D01*
X142786251Y-113191677D01*
X142781769Y-113191358D01*
X142777621Y-113189640D01*
X142753235Y-113187238D01*
X142562758Y-113187238D01*
X142538372Y-113189640D01*
X142534223Y-113191358D01*
X142529742Y-113191677D01*
X142506857Y-113200434D01*
X142316380Y-113295673D01*
X142305883Y-113302280D01*
X142302836Y-113303543D01*
X142299404Y-113306359D01*
X142295643Y-113308727D01*
X142293479Y-113311221D01*
X142283894Y-113319088D01*
X142188656Y-113414326D01*
X142180789Y-113423911D01*
X142178295Y-113426075D01*
X142175927Y-113429836D01*
X142173111Y-113433268D01*
X142171848Y-113436315D01*
X142165241Y-113446812D01*
X142070003Y-113637288D01*
X142069319Y-113639073D01*
X142068783Y-113639798D01*
X142065127Y-113650027D01*
X142061245Y-113660174D01*
X142061181Y-113661073D01*
X142060538Y-113662873D01*
X141965300Y-114043825D01*
X141964674Y-114048054D01*
X141963970Y-114049756D01*
X141963065Y-114058937D01*
X141961716Y-114068066D01*
X141961987Y-114069887D01*
X141961568Y-114074142D01*
X140440551Y-114074142D01*
X140490867Y-113923194D01*
X140493616Y-113911103D01*
X140494880Y-113908052D01*
X140495315Y-113903629D01*
X140496300Y-113899300D01*
X140496066Y-113896009D01*
X140497282Y-113883666D01*
X140497282Y-113693190D01*
X140494880Y-113668804D01*
X140493161Y-113664655D01*
X140492843Y-113660174D01*
X140484086Y-113637289D01*
X140388847Y-113446812D01*
X140382239Y-113436315D01*
X140380977Y-113433268D01*
X140378160Y-113429836D01*
X140375793Y-113426075D01*
X140373298Y-113423911D01*
X140365432Y-113414326D01*
X140270194Y-113319088D01*
X140260608Y-113311221D01*
X140258445Y-113308727D01*
X140254683Y-113306359D01*
X140251252Y-113303543D01*
X140248204Y-113302280D01*
X140237708Y-113295673D01*
X140047232Y-113200435D01*
X140024346Y-113191677D01*
X140019864Y-113191358D01*
X140015716Y-113189640D01*
X139991330Y-113187238D01*
X139515139Y-113187238D01*
X139490753Y-113189640D01*
X139486604Y-113191358D01*
X139482123Y-113191677D01*
X139459238Y-113200434D01*
X139268761Y-113295673D01*
X139258264Y-113302280D01*
X139255217Y-113303543D01*
X139251785Y-113306359D01*
X139248024Y-113308727D01*
X139245860Y-113311221D01*
X139236275Y-113319088D01*
X139141037Y-113414326D01*
X139125492Y-113433268D01*
X139106827Y-113478327D01*
X139106827Y-113527101D01*
X139125492Y-113572160D01*
X139159979Y-113606647D01*
X139205038Y-113625312D01*
X139253812Y-113625312D01*
X139298871Y-113606647D01*
X139317813Y-113591102D01*
X139398707Y-113510208D01*
X139544647Y-113437238D01*
X139961822Y-113437238D01*
X140107762Y-113510208D01*
X140174312Y-113576758D01*
X140247282Y-113722698D01*
X140247282Y-113863383D01*
X140167790Y-114101856D01*
X139045799Y-115223850D01*
X139030258Y-115242786D01*
X139030253Y-115242792D01*
X139017055Y-115274653D01*
X139011589Y-115287851D01*
X138789367Y-115287851D01*
X138789367Y-112965016D01*
X148814743Y-112965016D01*
X148814743Y-115659460D01*
G37*
D12*
G36*
X144118738Y-108092485D02*
G01*
X144128203Y-108101950D01*
X144144407Y-108134359D01*
X144164688Y-108215480D01*
X144164688Y-108319137D01*
X144144407Y-108400258D01*
X144128202Y-108432668D01*
X144118738Y-108442133D01*
X144093386Y-108454809D01*
X144075275Y-108454809D01*
X144049924Y-108442134D01*
X144040459Y-108432669D01*
X144024253Y-108400258D01*
X144003974Y-108319139D01*
X144003974Y-108215478D01*
X144024253Y-108134359D01*
X144040459Y-108101949D01*
X144049925Y-108092483D01*
X144075274Y-108079809D01*
X144093386Y-108079809D01*
X144118738Y-108092485D01*
G37*
G36*
X146375997Y-108642309D02*
G01*
X143816474Y-108642309D01*
X143816474Y-108207785D01*
X143878974Y-108207785D01*
X143878974Y-108326833D01*
X143880467Y-108334342D01*
X143880840Y-108341991D01*
X143904649Y-108437229D01*
X143907574Y-108443421D01*
X143909382Y-108450022D01*
X143933192Y-108497641D01*
X143939330Y-108505549D01*
X143944898Y-108513883D01*
X143968707Y-108537693D01*
X143977034Y-108543257D01*
X143984952Y-108549402D01*
X144032570Y-108573211D01*
X144035589Y-108574037D01*
X144036603Y-108575051D01*
X144046430Y-108577005D01*
X144056091Y-108579651D01*
X144057449Y-108579198D01*
X144060521Y-108579809D01*
X144108140Y-108579809D01*
X144111209Y-108579198D01*
X144112570Y-108579652D01*
X144122236Y-108577004D01*
X144132058Y-108575051D01*
X144133071Y-108574037D01*
X144136090Y-108573211D01*
X144183709Y-108549402D01*
X144191624Y-108543258D01*
X144199953Y-108537694D01*
X144223763Y-108513884D01*
X144229326Y-108505557D01*
X144235471Y-108497640D01*
X144249499Y-108469584D01*
X144359921Y-108469584D01*
X144359922Y-108517418D01*
X144359923Y-108517419D01*
X144373470Y-108537694D01*
X144397279Y-108561503D01*
X144417552Y-108575048D01*
X144417555Y-108575051D01*
X144465389Y-108575052D01*
X144465390Y-108575051D01*
X144465391Y-108575051D01*
X144465392Y-108575049D01*
X144485666Y-108561504D01*
X144509476Y-108537695D01*
X144523025Y-108517418D01*
X144523026Y-108469584D01*
X144523024Y-108469582D01*
X144509477Y-108449306D01*
X144485667Y-108425496D01*
X144465393Y-108411950D01*
X144465391Y-108411948D01*
X144465390Y-108411948D01*
X144465389Y-108411947D01*
X144417555Y-108411948D01*
X144397278Y-108425497D01*
X144373469Y-108449307D01*
X144359921Y-108469584D01*
X144249499Y-108469584D01*
X144259280Y-108450022D01*
X144261087Y-108443420D01*
X144264012Y-108437230D01*
X144287822Y-108341992D01*
X144288194Y-108334342D01*
X144289688Y-108326833D01*
X144289688Y-108249185D01*
X144593569Y-108249185D01*
X144595924Y-108273458D01*
X144598017Y-108276016D01*
X144598017Y-108279321D01*
X144612886Y-108294190D01*
X144626214Y-108310480D01*
X144629505Y-108310809D01*
X144631842Y-108313146D01*
X144652879Y-108313146D01*
X144673813Y-108315239D01*
X144676371Y-108313146D01*
X144679676Y-108313146D01*
X144699953Y-108299598D01*
X144716591Y-108282959D01*
X144741940Y-108270285D01*
X144831481Y-108270285D01*
X144856832Y-108282961D01*
X144866298Y-108292427D01*
X144878973Y-108317776D01*
X144878973Y-108407317D01*
X144866297Y-108432667D01*
X144856832Y-108442133D01*
X144831481Y-108454809D01*
X144741941Y-108454809D01*
X144716590Y-108442134D01*
X144699954Y-108425497D01*
X144679677Y-108411948D01*
X144631843Y-108411947D01*
X144598017Y-108445772D01*
X144598016Y-108493606D01*
X144611564Y-108513883D01*
X144635373Y-108537693D01*
X144643700Y-108543257D01*
X144651618Y-108549402D01*
X144699236Y-108573211D01*
X144702255Y-108574037D01*
X144703269Y-108575051D01*
X144713096Y-108577005D01*
X144722757Y-108579651D01*
X144724115Y-108579198D01*
X144727187Y-108579809D01*
X144846235Y-108579809D01*
X144849304Y-108579198D01*
X144850665Y-108579652D01*
X144860331Y-108577004D01*
X144870153Y-108575051D01*
X144871166Y-108574037D01*
X144874185Y-108573211D01*
X144921804Y-108549402D01*
X144929718Y-108543259D01*
X144938049Y-108537693D01*
X144961858Y-108513883D01*
X144967425Y-108505549D01*
X144973564Y-108497641D01*
X144997375Y-108450022D01*
X144998201Y-108447002D01*
X144999215Y-108445989D01*
X145001169Y-108436163D01*
X145003815Y-108426502D01*
X145003361Y-108425142D01*
X145003973Y-108422071D01*
X145003973Y-108303023D01*
X145003361Y-108299951D01*
X145003815Y-108298592D01*
X145001169Y-108288930D01*
X144999215Y-108279105D01*
X144998201Y-108278091D01*
X144997375Y-108275072D01*
X144973564Y-108227453D01*
X144967423Y-108219541D01*
X144961857Y-108211210D01*
X144938048Y-108187401D01*
X144932922Y-108183976D01*
X145093258Y-108183976D01*
X145093258Y-108517309D01*
X145098016Y-108541227D01*
X145131840Y-108575051D01*
X145179676Y-108575051D01*
X145213500Y-108541227D01*
X145218258Y-108517309D01*
X145218258Y-108258317D01*
X145241941Y-108246476D01*
X145283861Y-108246476D01*
X145299650Y-108254370D01*
X145307544Y-108270157D01*
X145307544Y-108517309D01*
X145312302Y-108541227D01*
X145346126Y-108575051D01*
X145393962Y-108575051D01*
X145427786Y-108541227D01*
X145432544Y-108517309D01*
X145432544Y-108270158D01*
X145440438Y-108254369D01*
X145456226Y-108246476D01*
X145498147Y-108246476D01*
X145513936Y-108254370D01*
X145521830Y-108270157D01*
X145521830Y-108517309D01*
X145526588Y-108541227D01*
X145560412Y-108575051D01*
X145608248Y-108575051D01*
X145642072Y-108541227D01*
X145646830Y-108517309D01*
X145646830Y-108255404D01*
X145646218Y-108252332D01*
X145646672Y-108250973D01*
X145644026Y-108241311D01*
X145642072Y-108231486D01*
X145641058Y-108230472D01*
X145640232Y-108227453D01*
X145618492Y-108183976D01*
X145759925Y-108183976D01*
X145759925Y-108517309D01*
X145764683Y-108541227D01*
X145798507Y-108575051D01*
X145846343Y-108575051D01*
X145880167Y-108541227D01*
X145884925Y-108517309D01*
X145884925Y-108258317D01*
X145908608Y-108246476D01*
X145950528Y-108246476D01*
X145966317Y-108254370D01*
X145974211Y-108270157D01*
X145974211Y-108517309D01*
X145978969Y-108541227D01*
X146012793Y-108575051D01*
X146060629Y-108575051D01*
X146094453Y-108541227D01*
X146099211Y-108517309D01*
X146099211Y-108270158D01*
X146107105Y-108254369D01*
X146122893Y-108246476D01*
X146164814Y-108246476D01*
X146180603Y-108254370D01*
X146188497Y-108270157D01*
X146188497Y-108517309D01*
X146193255Y-108541227D01*
X146227079Y-108575051D01*
X146274915Y-108575051D01*
X146308739Y-108541227D01*
X146313497Y-108517309D01*
X146313497Y-108255404D01*
X146312885Y-108252332D01*
X146313339Y-108250973D01*
X146310693Y-108241311D01*
X146308739Y-108231486D01*
X146307725Y-108230472D01*
X146306899Y-108227453D01*
X146283088Y-108179834D01*
X146275458Y-108170003D01*
X146274402Y-108166835D01*
X146270874Y-108164096D01*
X146268136Y-108160569D01*
X146264967Y-108159513D01*
X146255137Y-108151883D01*
X146207518Y-108128074D01*
X146204499Y-108127247D01*
X146203486Y-108126234D01*
X146193664Y-108124280D01*
X146183998Y-108121633D01*
X146182637Y-108122086D01*
X146179568Y-108121476D01*
X146108139Y-108121476D01*
X146105067Y-108122086D01*
X146103709Y-108121634D01*
X146094048Y-108124279D01*
X146084221Y-108126234D01*
X146083207Y-108127247D01*
X146080188Y-108128074D01*
X146036710Y-108149812D01*
X145993232Y-108128074D01*
X145990213Y-108127247D01*
X145989200Y-108126234D01*
X145979378Y-108124280D01*
X145969712Y-108121633D01*
X145968351Y-108122086D01*
X145965282Y-108121476D01*
X145893854Y-108121476D01*
X145890782Y-108122086D01*
X145889424Y-108121634D01*
X145879763Y-108124279D01*
X145869936Y-108126234D01*
X145868922Y-108127247D01*
X145865903Y-108128074D01*
X145854089Y-108133980D01*
X145846343Y-108126234D01*
X145798507Y-108126234D01*
X145764683Y-108160058D01*
X145759925Y-108183976D01*
X145618492Y-108183976D01*
X145616421Y-108179834D01*
X145608791Y-108170003D01*
X145607735Y-108166835D01*
X145604207Y-108164096D01*
X145601469Y-108160569D01*
X145598300Y-108159513D01*
X145588470Y-108151883D01*
X145540851Y-108128074D01*
X145537832Y-108127247D01*
X145536819Y-108126234D01*
X145526997Y-108124280D01*
X145517331Y-108121633D01*
X145515970Y-108122086D01*
X145512901Y-108121476D01*
X145441472Y-108121476D01*
X145438400Y-108122086D01*
X145437042Y-108121634D01*
X145427381Y-108124279D01*
X145417554Y-108126234D01*
X145416540Y-108127247D01*
X145413521Y-108128074D01*
X145370043Y-108149812D01*
X145326565Y-108128074D01*
X145323546Y-108127247D01*
X145322533Y-108126234D01*
X145312711Y-108124280D01*
X145303045Y-108121633D01*
X145301684Y-108122086D01*
X145298615Y-108121476D01*
X145227187Y-108121476D01*
X145224115Y-108122086D01*
X145222757Y-108121634D01*
X145213096Y-108124279D01*
X145203269Y-108126234D01*
X145202255Y-108127247D01*
X145199236Y-108128074D01*
X145187422Y-108133980D01*
X145179676Y-108126234D01*
X145131840Y-108126234D01*
X145098016Y-108160058D01*
X145093258Y-108183976D01*
X144932922Y-108183976D01*
X144929716Y-108181834D01*
X144921805Y-108175694D01*
X144874186Y-108151884D01*
X144871167Y-108151057D01*
X144870153Y-108150043D01*
X144860322Y-108148087D01*
X144850666Y-108145443D01*
X144849306Y-108145896D01*
X144846235Y-108145285D01*
X144729583Y-108145285D01*
X144736130Y-108079809D01*
X144917663Y-108079809D01*
X144941581Y-108075051D01*
X144975405Y-108041227D01*
X144975405Y-107993391D01*
X144941581Y-107959567D01*
X144917663Y-107954809D01*
X144679568Y-107954809D01*
X144664613Y-107957783D01*
X144661514Y-107957474D01*
X144660017Y-107958698D01*
X144655650Y-107959567D01*
X144640772Y-107974444D01*
X144624492Y-107987765D01*
X144623193Y-107992023D01*
X144621826Y-107993391D01*
X144621826Y-107996506D01*
X144617378Y-108011091D01*
X144593569Y-108249185D01*
X144289688Y-108249185D01*
X144289688Y-108207785D01*
X144288194Y-108200275D01*
X144287822Y-108192626D01*
X144264012Y-108097388D01*
X144261087Y-108091197D01*
X144259280Y-108084596D01*
X144235471Y-108036978D01*
X144229326Y-108029060D01*
X144223762Y-108020733D01*
X144199952Y-107996924D01*
X144191618Y-107991356D01*
X144183710Y-107985218D01*
X144136091Y-107961408D01*
X144133072Y-107960581D01*
X144132058Y-107959567D01*
X144122227Y-107957611D01*
X144112571Y-107954967D01*
X144111211Y-107955420D01*
X144108140Y-107954809D01*
X144060521Y-107954809D01*
X144057449Y-107955420D01*
X144056090Y-107954967D01*
X144046428Y-107957612D01*
X144036603Y-107959567D01*
X144035589Y-107960580D01*
X144032570Y-107961407D01*
X143984951Y-107985218D01*
X143977039Y-107991358D01*
X143968708Y-107996925D01*
X143944899Y-108020734D01*
X143939332Y-108029065D01*
X143933192Y-108036977D01*
X143909382Y-108084596D01*
X143907574Y-108091196D01*
X143904649Y-108097389D01*
X143880840Y-108192627D01*
X143880467Y-108200275D01*
X143878974Y-108207785D01*
X143816474Y-108207785D01*
X143816474Y-107892309D01*
X146375997Y-107892309D01*
X146375997Y-108642309D01*
G37*
D10*
G36*
X148397636Y-112572295D02*
G01*
X140986320Y-112572295D01*
X140986320Y-111249819D01*
X141152987Y-111249819D01*
X141155061Y-111279010D01*
X141168149Y-111305184D01*
X141190256Y-111324357D01*
X141218017Y-111333611D01*
X141247208Y-111331537D01*
X141260939Y-111326282D01*
X141403796Y-111254853D01*
X141410095Y-111250888D01*
X141411923Y-111250131D01*
X141413979Y-111248442D01*
X141416239Y-111247021D01*
X141417538Y-111245522D01*
X141423288Y-111240804D01*
X141566145Y-111097947D01*
X141566178Y-111097906D01*
X141566200Y-111097892D01*
X141570787Y-111092289D01*
X141575472Y-111086582D01*
X141575482Y-111086557D01*
X141575516Y-111086516D01*
X141580969Y-111078336D01*
X141580969Y-112255628D01*
X141227398Y-112255628D01*
X141212766Y-112257069D01*
X141185730Y-112268268D01*
X141165038Y-112288960D01*
X141153839Y-112315996D01*
X141153839Y-112345260D01*
X141165038Y-112372296D01*
X141185730Y-112392988D01*
X141212766Y-112404187D01*
X141227398Y-112405628D01*
X142084541Y-112405628D01*
X142099173Y-112404187D01*
X142126209Y-112392988D01*
X142146901Y-112372296D01*
X142158100Y-112345260D01*
X142158100Y-112315996D01*
X142146901Y-112288960D01*
X142126209Y-112268268D01*
X142099173Y-112257069D01*
X142084541Y-112255628D01*
X141730969Y-112255628D01*
X141730969Y-112244569D01*
X142582410Y-112244569D01*
X142582410Y-112273832D01*
X142590551Y-112293486D01*
X142593609Y-112300868D01*
X142602936Y-112312233D01*
X142674364Y-112383661D01*
X142685729Y-112392988D01*
X142712765Y-112404187D01*
X142742029Y-112404187D01*
X142753227Y-112399548D01*
X142769064Y-112392989D01*
X142780430Y-112383661D01*
X142851859Y-112312233D01*
X142861181Y-112300873D01*
X142861187Y-112300868D01*
X142872385Y-112273832D01*
X142872385Y-112244569D01*
X142861187Y-112217532D01*
X142851859Y-112206167D01*
X142780430Y-112134738D01*
X142769065Y-112125411D01*
X142769064Y-112125410D01*
X142752316Y-112118473D01*
X142742029Y-112114212D01*
X142742028Y-112114212D01*
X142712765Y-112114212D01*
X142685729Y-112125411D01*
X142674364Y-112134738D01*
X142602936Y-112206167D01*
X142593608Y-112217533D01*
X142582410Y-112244569D01*
X141730969Y-112244569D01*
X141730969Y-111552154D01*
X143295605Y-111552154D01*
X143296696Y-111555769D01*
X143296696Y-111559546D01*
X143300890Y-111569672D01*
X143304058Y-111580170D01*
X143306449Y-111583093D01*
X143307895Y-111586582D01*
X143315648Y-111594335D01*
X143322589Y-111602818D01*
X143325915Y-111604602D01*
X143328588Y-111607275D01*
X143338717Y-111611470D01*
X143348376Y-111616652D01*
X143352135Y-111617027D01*
X143355624Y-111618473D01*
X143366585Y-111618473D01*
X143377495Y-111619564D01*
X143381111Y-111618473D01*
X143384887Y-111618473D01*
X143395013Y-111614278D01*
X143405511Y-111611111D01*
X143408434Y-111608719D01*
X143411923Y-111607274D01*
X143423288Y-111597947D01*
X143486110Y-111535124D01*
X143602246Y-111477057D01*
X143923978Y-111477057D01*
X144040112Y-111535123D01*
X144094329Y-111589340D01*
X144152398Y-111705476D01*
X144152398Y-112027208D01*
X144094329Y-112143344D01*
X144040112Y-112197561D01*
X143923978Y-112255628D01*
X143602246Y-112255628D01*
X143486110Y-112197560D01*
X143423288Y-112134738D01*
X143411923Y-112125411D01*
X143384887Y-112114212D01*
X143355624Y-112114212D01*
X143328588Y-112125410D01*
X143307895Y-112146103D01*
X143296696Y-112173139D01*
X143296696Y-112202402D01*
X143307894Y-112229438D01*
X143317222Y-112240804D01*
X143388650Y-112312233D01*
X143394399Y-112316951D01*
X143395699Y-112318450D01*
X143397958Y-112319871D01*
X143400015Y-112321560D01*
X143401842Y-112322317D01*
X143408142Y-112326282D01*
X143551001Y-112397710D01*
X143564732Y-112402965D01*
X143567419Y-112403155D01*
X143569909Y-112404187D01*
X143584541Y-112405628D01*
X143941683Y-112405628D01*
X143956315Y-112404187D01*
X143958804Y-112403155D01*
X143961492Y-112402965D01*
X143975224Y-112397710D01*
X144118082Y-112326282D01*
X144124381Y-112322317D01*
X144126209Y-112321560D01*
X144128265Y-112319871D01*
X144130525Y-112318450D01*
X144131824Y-112316951D01*
X144137574Y-112312233D01*
X144209002Y-112240804D01*
X144213722Y-112235051D01*
X144215218Y-112233755D01*
X144216636Y-112231500D01*
X144218330Y-112229438D01*
X144219088Y-112227606D01*
X144223051Y-112221312D01*
X144294480Y-112078455D01*
X144299735Y-112064724D01*
X144299926Y-112062034D01*
X144300957Y-112059546D01*
X144302398Y-112044914D01*
X144302398Y-111687771D01*
X144300957Y-111673139D01*
X144299926Y-111670650D01*
X144299735Y-111667961D01*
X144294480Y-111654230D01*
X144223051Y-111511373D01*
X144219088Y-111505078D01*
X144218330Y-111503247D01*
X144216636Y-111501184D01*
X144215218Y-111498930D01*
X144213722Y-111497633D01*
X144209002Y-111491881D01*
X144137574Y-111420452D01*
X144131824Y-111415733D01*
X144130525Y-111414235D01*
X144128265Y-111412813D01*
X144126209Y-111411125D01*
X144124381Y-111410367D01*
X144118082Y-111406403D01*
X143975224Y-111334975D01*
X143963865Y-111330628D01*
X144795254Y-111330628D01*
X144795254Y-112330628D01*
X144796695Y-112345260D01*
X144807894Y-112372296D01*
X144828586Y-112392988D01*
X144855622Y-112404187D01*
X144884886Y-112404187D01*
X144911922Y-112392988D01*
X144932614Y-112372296D01*
X144943813Y-112345260D01*
X144945254Y-112330628D01*
X144945254Y-111504551D01*
X144986109Y-111463696D01*
X145102245Y-111405628D01*
X145281121Y-111405628D01*
X145385781Y-111457958D01*
X145438112Y-111562619D01*
X145438112Y-112330628D01*
X145439553Y-112345260D01*
X145450752Y-112372296D01*
X145471444Y-112392988D01*
X145498480Y-112404187D01*
X145527744Y-112404187D01*
X145554780Y-112392988D01*
X145575472Y-112372296D01*
X145586671Y-112345260D01*
X145588112Y-112330628D01*
X145588112Y-111562618D01*
X145640441Y-111457958D01*
X145745102Y-111405628D01*
X145923978Y-111405628D01*
X146028638Y-111457958D01*
X146080969Y-111562619D01*
X146080969Y-112330628D01*
X146082410Y-112345260D01*
X146093609Y-112372296D01*
X146114301Y-112392988D01*
X146141337Y-112404187D01*
X146170601Y-112404187D01*
X146197637Y-112392988D01*
X146218329Y-112372296D01*
X146229528Y-112345260D01*
X146230969Y-112330628D01*
X146230969Y-111544914D01*
X146229528Y-111530282D01*
X146228497Y-111527793D01*
X146228306Y-111525104D01*
X146223051Y-111511373D01*
X146151622Y-111368516D01*
X146150081Y-111366069D01*
X146149697Y-111364915D01*
X146148449Y-111363476D01*
X146143789Y-111356073D01*
X146136687Y-111349913D01*
X146130524Y-111342807D01*
X146123118Y-111338145D01*
X146121682Y-111336900D01*
X146120528Y-111336515D01*
X146118081Y-111334975D01*
X146109387Y-111330628D01*
X146795254Y-111330628D01*
X146795254Y-112330628D01*
X146796695Y-112345260D01*
X146807894Y-112372296D01*
X146828586Y-112392988D01*
X146855622Y-112404187D01*
X146884886Y-112404187D01*
X146911922Y-112392988D01*
X146932614Y-112372296D01*
X146943813Y-112345260D01*
X146945254Y-112330628D01*
X146945254Y-111504551D01*
X146986109Y-111463696D01*
X147102245Y-111405628D01*
X147281121Y-111405628D01*
X147385781Y-111457958D01*
X147438112Y-111562619D01*
X147438112Y-112330628D01*
X147439553Y-112345260D01*
X147450752Y-112372296D01*
X147471444Y-112392988D01*
X147498480Y-112404187D01*
X147527744Y-112404187D01*
X147554780Y-112392988D01*
X147575472Y-112372296D01*
X147586671Y-112345260D01*
X147588112Y-112330628D01*
X147588112Y-111562618D01*
X147640441Y-111457958D01*
X147745102Y-111405628D01*
X147923978Y-111405628D01*
X148028638Y-111457958D01*
X148080969Y-111562619D01*
X148080969Y-112330628D01*
X148082410Y-112345260D01*
X148093609Y-112372296D01*
X148114301Y-112392988D01*
X148141337Y-112404187D01*
X148170601Y-112404187D01*
X148197637Y-112392988D01*
X148218329Y-112372296D01*
X148229528Y-112345260D01*
X148230969Y-112330628D01*
X148230969Y-111544914D01*
X148229528Y-111530282D01*
X148228497Y-111527793D01*
X148228306Y-111525104D01*
X148223051Y-111511373D01*
X148151622Y-111368516D01*
X148150081Y-111366069D01*
X148149697Y-111364915D01*
X148148449Y-111363476D01*
X148143789Y-111356073D01*
X148136687Y-111349913D01*
X148130524Y-111342807D01*
X148123118Y-111338145D01*
X148121682Y-111336900D01*
X148120528Y-111336515D01*
X148118081Y-111334975D01*
X147975224Y-111263546D01*
X147961493Y-111258291D01*
X147958803Y-111258099D01*
X147956315Y-111257069D01*
X147941683Y-111255628D01*
X147727397Y-111255628D01*
X147712765Y-111257069D01*
X147710276Y-111258099D01*
X147707587Y-111258291D01*
X147693856Y-111263546D01*
X147550999Y-111334975D01*
X147548552Y-111336515D01*
X147547398Y-111336900D01*
X147545959Y-111338147D01*
X147538556Y-111342808D01*
X147532396Y-111349909D01*
X147525290Y-111356073D01*
X147520628Y-111363478D01*
X147519383Y-111364915D01*
X147518998Y-111366068D01*
X147517458Y-111368516D01*
X147513111Y-111377209D01*
X147508765Y-111368516D01*
X147507224Y-111366069D01*
X147506840Y-111364915D01*
X147505592Y-111363476D01*
X147500932Y-111356073D01*
X147493830Y-111349913D01*
X147487667Y-111342807D01*
X147480261Y-111338145D01*
X147478825Y-111336900D01*
X147477671Y-111336515D01*
X147475224Y-111334975D01*
X147332367Y-111263546D01*
X147318636Y-111258291D01*
X147315946Y-111258099D01*
X147313458Y-111257069D01*
X147298826Y-111255628D01*
X147084540Y-111255628D01*
X147069908Y-111257069D01*
X147067419Y-111258099D01*
X147064730Y-111258291D01*
X147050999Y-111263546D01*
X146943920Y-111317085D01*
X146943813Y-111315996D01*
X146932614Y-111288960D01*
X146911922Y-111268268D01*
X146884886Y-111257069D01*
X146855622Y-111257069D01*
X146828586Y-111268268D01*
X146807894Y-111288960D01*
X146796695Y-111315996D01*
X146795254Y-111330628D01*
X146109387Y-111330628D01*
X145975224Y-111263546D01*
X145961493Y-111258291D01*
X145958803Y-111258099D01*
X145956315Y-111257069D01*
X145941683Y-111255628D01*
X145727397Y-111255628D01*
X145712765Y-111257069D01*
X145710276Y-111258099D01*
X145707587Y-111258291D01*
X145693856Y-111263546D01*
X145550999Y-111334975D01*
X145548552Y-111336515D01*
X145547398Y-111336900D01*
X145545959Y-111338147D01*
X145538556Y-111342808D01*
X145532396Y-111349909D01*
X145525290Y-111356073D01*
X145520628Y-111363478D01*
X145519383Y-111364915D01*
X145518998Y-111366068D01*
X145517458Y-111368516D01*
X145513111Y-111377209D01*
X145508765Y-111368516D01*
X145507224Y-111366069D01*
X145506840Y-111364915D01*
X145505592Y-111363476D01*
X145500932Y-111356073D01*
X145493830Y-111349913D01*
X145487667Y-111342807D01*
X145480261Y-111338145D01*
X145478825Y-111336900D01*
X145477671Y-111336515D01*
X145475224Y-111334975D01*
X145332367Y-111263546D01*
X145318636Y-111258291D01*
X145315946Y-111258099D01*
X145313458Y-111257069D01*
X145298826Y-111255628D01*
X145084540Y-111255628D01*
X145069908Y-111257069D01*
X145067419Y-111258099D01*
X145064730Y-111258291D01*
X145050999Y-111263546D01*
X144943920Y-111317085D01*
X144943813Y-111315996D01*
X144932614Y-111288960D01*
X144911922Y-111268268D01*
X144884886Y-111257069D01*
X144855622Y-111257069D01*
X144828586Y-111268268D01*
X144807894Y-111288960D01*
X144796695Y-111315996D01*
X144795254Y-111330628D01*
X143963865Y-111330628D01*
X143961492Y-111329720D01*
X143958804Y-111329529D01*
X143956315Y-111328498D01*
X143941683Y-111327057D01*
X143584541Y-111327057D01*
X143569909Y-111328498D01*
X143567419Y-111329529D01*
X143564732Y-111329720D01*
X143551001Y-111334975D01*
X143462182Y-111379383D01*
X143509557Y-110905628D01*
X144155969Y-110905628D01*
X144170601Y-110904187D01*
X144197637Y-110892988D01*
X144218329Y-110872296D01*
X144229528Y-110845260D01*
X144229528Y-110815996D01*
X144218329Y-110788960D01*
X144197637Y-110768268D01*
X144170601Y-110757069D01*
X144155969Y-110755628D01*
X143441683Y-110755628D01*
X143436267Y-110756161D01*
X143434443Y-110755979D01*
X143432661Y-110756516D01*
X143427051Y-110757069D01*
X143416915Y-110761267D01*
X143406427Y-110764432D01*
X143403505Y-110766821D01*
X143400015Y-110768268D01*
X143392259Y-110776023D01*
X143383779Y-110782962D01*
X143381994Y-110786288D01*
X143379323Y-110788960D01*
X143375126Y-110799091D01*
X143369945Y-110808750D01*
X143368837Y-110814272D01*
X143368124Y-110815996D01*
X143368124Y-110817833D01*
X143367055Y-110823166D01*
X143295627Y-111537451D01*
X143295605Y-111552154D01*
X141730969Y-111552154D01*
X141730969Y-110830628D01*
X141730963Y-110830575D01*
X141730969Y-110830549D01*
X141730953Y-110830472D01*
X141729528Y-110815996D01*
X141726686Y-110809135D01*
X141725230Y-110801854D01*
X141721140Y-110795747D01*
X141718329Y-110788960D01*
X141713080Y-110783711D01*
X141708947Y-110777539D01*
X141702829Y-110773460D01*
X141697637Y-110768268D01*
X141690780Y-110765428D01*
X141684598Y-110761306D01*
X141677386Y-110759879D01*
X141670601Y-110757069D01*
X141663176Y-110757069D01*
X141655890Y-110755628D01*
X141648685Y-110757069D01*
X141641337Y-110757069D01*
X141634476Y-110759910D01*
X141627196Y-110761367D01*
X141621090Y-110765455D01*
X141614301Y-110768268D01*
X141609050Y-110773518D01*
X141602881Y-110777650D01*
X141593660Y-110788908D01*
X141593609Y-110788960D01*
X141593599Y-110788982D01*
X141593565Y-110789025D01*
X141454827Y-110997132D01*
X141325827Y-111126132D01*
X141193857Y-111192118D01*
X141181414Y-111199951D01*
X141162241Y-111222058D01*
X141152987Y-111249819D01*
X140986320Y-111249819D01*
X140986320Y-110588961D01*
X148397636Y-110588961D01*
X148397636Y-112572295D01*
G37*
D13*
X154149541Y-112584628D02*
X153292398Y-112584628D01*
X153720969Y-112584628D02*
X153720969Y-111084628D01*
X153720969Y-111084628D02*
X153578112Y-111298914D01*
X153578112Y-111298914D02*
X153435255Y-111441771D01*
X153435255Y-111441771D02*
X153292398Y-111513200D01*
X154792397Y-112441771D02*
X154863826Y-112513200D01*
X154863826Y-112513200D02*
X154792397Y-112584628D01*
X154792397Y-112584628D02*
X154720969Y-112513200D01*
X154720969Y-112513200D02*
X154792397Y-112441771D01*
X154792397Y-112441771D02*
X154792397Y-112584628D01*
X156220969Y-111084628D02*
X155506683Y-111084628D01*
X155506683Y-111084628D02*
X155435255Y-111798914D01*
X155435255Y-111798914D02*
X155506683Y-111727485D01*
X155506683Y-111727485D02*
X155649541Y-111656057D01*
X155649541Y-111656057D02*
X156006683Y-111656057D01*
X156006683Y-111656057D02*
X156149541Y-111727485D01*
X156149541Y-111727485D02*
X156220969Y-111798914D01*
X156220969Y-111798914D02*
X156292398Y-111941771D01*
X156292398Y-111941771D02*
X156292398Y-112298914D01*
X156292398Y-112298914D02*
X156220969Y-112441771D01*
X156220969Y-112441771D02*
X156149541Y-112513200D01*
X156149541Y-112513200D02*
X156006683Y-112584628D01*
X156006683Y-112584628D02*
X155649541Y-112584628D01*
X155649541Y-112584628D02*
X155506683Y-112513200D01*
X155506683Y-112513200D02*
X155435255Y-112441771D01*
X156935254Y-112584628D02*
X156935254Y-111584628D01*
X156935254Y-111727485D02*
X157006683Y-111656057D01*
X157006683Y-111656057D02*
X157149540Y-111584628D01*
X157149540Y-111584628D02*
X157363826Y-111584628D01*
X157363826Y-111584628D02*
X157506683Y-111656057D01*
X157506683Y-111656057D02*
X157578112Y-111798914D01*
X157578112Y-111798914D02*
X157578112Y-112584628D01*
X157578112Y-111798914D02*
X157649540Y-111656057D01*
X157649540Y-111656057D02*
X157792397Y-111584628D01*
X157792397Y-111584628D02*
X158006683Y-111584628D01*
X158006683Y-111584628D02*
X158149540Y-111656057D01*
X158149540Y-111656057D02*
X158220969Y-111798914D01*
X158220969Y-111798914D02*
X158220969Y-112584628D01*
X158935254Y-112584628D02*
X158935254Y-111584628D01*
X158935254Y-111727485D02*
X159006683Y-111656057D01*
X159006683Y-111656057D02*
X159149540Y-111584628D01*
X159149540Y-111584628D02*
X159363826Y-111584628D01*
X159363826Y-111584628D02*
X159506683Y-111656057D01*
X159506683Y-111656057D02*
X159578112Y-111798914D01*
X159578112Y-111798914D02*
X159578112Y-112584628D01*
X159578112Y-111798914D02*
X159649540Y-111656057D01*
X159649540Y-111656057D02*
X159792397Y-111584628D01*
X159792397Y-111584628D02*
X160006683Y-111584628D01*
X160006683Y-111584628D02*
X160149540Y-111656057D01*
X160149540Y-111656057D02*
X160220969Y-111798914D01*
X160220969Y-111798914D02*
X160220969Y-112584628D01*
D12*
D14*
X156125521Y-108271309D02*
X156173140Y-108271309D01*
X156173140Y-108271309D02*
X156220759Y-108295119D01*
X156220759Y-108295119D02*
X156244569Y-108318928D01*
X156244569Y-108318928D02*
X156268378Y-108366547D01*
X156268378Y-108366547D02*
X156292188Y-108461785D01*
X156292188Y-108461785D02*
X156292188Y-108580833D01*
X156292188Y-108580833D02*
X156268378Y-108676071D01*
X156268378Y-108676071D02*
X156244569Y-108723690D01*
X156244569Y-108723690D02*
X156220759Y-108747500D01*
X156220759Y-108747500D02*
X156173140Y-108771309D01*
X156173140Y-108771309D02*
X156125521Y-108771309D01*
X156125521Y-108771309D02*
X156077902Y-108747500D01*
X156077902Y-108747500D02*
X156054093Y-108723690D01*
X156054093Y-108723690D02*
X156030283Y-108676071D01*
X156030283Y-108676071D02*
X156006474Y-108580833D01*
X156006474Y-108580833D02*
X156006474Y-108461785D01*
X156006474Y-108461785D02*
X156030283Y-108366547D01*
X156030283Y-108366547D02*
X156054093Y-108318928D01*
X156054093Y-108318928D02*
X156077902Y-108295119D01*
X156077902Y-108295119D02*
X156125521Y-108271309D01*
X156506473Y-108723690D02*
X156530283Y-108747500D01*
X156530283Y-108747500D02*
X156506473Y-108771309D01*
X156506473Y-108771309D02*
X156482664Y-108747500D01*
X156482664Y-108747500D02*
X156506473Y-108723690D01*
X156506473Y-108723690D02*
X156506473Y-108771309D01*
X156982663Y-108271309D02*
X156744568Y-108271309D01*
X156744568Y-108271309D02*
X156720759Y-108509404D01*
X156720759Y-108509404D02*
X156744568Y-108485595D01*
X156744568Y-108485595D02*
X156792187Y-108461785D01*
X156792187Y-108461785D02*
X156911235Y-108461785D01*
X156911235Y-108461785D02*
X156958854Y-108485595D01*
X156958854Y-108485595D02*
X156982663Y-108509404D01*
X156982663Y-108509404D02*
X157006473Y-108557023D01*
X157006473Y-108557023D02*
X157006473Y-108676071D01*
X157006473Y-108676071D02*
X156982663Y-108723690D01*
X156982663Y-108723690D02*
X156958854Y-108747500D01*
X156958854Y-108747500D02*
X156911235Y-108771309D01*
X156911235Y-108771309D02*
X156792187Y-108771309D01*
X156792187Y-108771309D02*
X156744568Y-108747500D01*
X156744568Y-108747500D02*
X156720759Y-108723690D01*
X157220758Y-108771309D02*
X157220758Y-108437976D01*
X157220758Y-108485595D02*
X157244568Y-108461785D01*
X157244568Y-108461785D02*
X157292187Y-108437976D01*
X157292187Y-108437976D02*
X157363615Y-108437976D01*
X157363615Y-108437976D02*
X157411234Y-108461785D01*
X157411234Y-108461785D02*
X157435044Y-108509404D01*
X157435044Y-108509404D02*
X157435044Y-108771309D01*
X157435044Y-108509404D02*
X157458853Y-108461785D01*
X157458853Y-108461785D02*
X157506472Y-108437976D01*
X157506472Y-108437976D02*
X157577901Y-108437976D01*
X157577901Y-108437976D02*
X157625520Y-108461785D01*
X157625520Y-108461785D02*
X157649330Y-108509404D01*
X157649330Y-108509404D02*
X157649330Y-108771309D01*
X157887425Y-108771309D02*
X157887425Y-108437976D01*
X157887425Y-108485595D02*
X157911235Y-108461785D01*
X157911235Y-108461785D02*
X157958854Y-108437976D01*
X157958854Y-108437976D02*
X158030282Y-108437976D01*
X158030282Y-108437976D02*
X158077901Y-108461785D01*
X158077901Y-108461785D02*
X158101711Y-108509404D01*
X158101711Y-108509404D02*
X158101711Y-108771309D01*
X158101711Y-108509404D02*
X158125520Y-108461785D01*
X158125520Y-108461785D02*
X158173139Y-108437976D01*
X158173139Y-108437976D02*
X158244568Y-108437976D01*
X158244568Y-108437976D02*
X158292187Y-108461785D01*
X158292187Y-108461785D02*
X158315997Y-108509404D01*
X158315997Y-108509404D02*
X158315997Y-108771309D01*
D11*
D15*
X151294425Y-113756714D02*
X151389663Y-113661476D01*
X151389663Y-113661476D02*
X151580139Y-113566238D01*
X151580139Y-113566238D02*
X152056330Y-113566238D01*
X152056330Y-113566238D02*
X152246806Y-113661476D01*
X152246806Y-113661476D02*
X152342044Y-113756714D01*
X152342044Y-113756714D02*
X152437282Y-113947190D01*
X152437282Y-113947190D02*
X152437282Y-114137666D01*
X152437282Y-114137666D02*
X152342044Y-114423380D01*
X152342044Y-114423380D02*
X151199187Y-115566238D01*
X151199187Y-115566238D02*
X152437282Y-115566238D01*
X153294425Y-115375761D02*
X153389663Y-115471000D01*
X153389663Y-115471000D02*
X153294425Y-115566238D01*
X153294425Y-115566238D02*
X153199187Y-115471000D01*
X153199187Y-115471000D02*
X153294425Y-115375761D01*
X153294425Y-115375761D02*
X153294425Y-115566238D01*
X154627758Y-113566238D02*
X154818235Y-113566238D01*
X154818235Y-113566238D02*
X155008711Y-113661476D01*
X155008711Y-113661476D02*
X155103949Y-113756714D01*
X155103949Y-113756714D02*
X155199187Y-113947190D01*
X155199187Y-113947190D02*
X155294425Y-114328142D01*
X155294425Y-114328142D02*
X155294425Y-114804333D01*
X155294425Y-114804333D02*
X155199187Y-115185285D01*
X155199187Y-115185285D02*
X155103949Y-115375761D01*
X155103949Y-115375761D02*
X155008711Y-115471000D01*
X155008711Y-115471000D02*
X154818235Y-115566238D01*
X154818235Y-115566238D02*
X154627758Y-115566238D01*
X154627758Y-115566238D02*
X154437282Y-115471000D01*
X154437282Y-115471000D02*
X154342044Y-115375761D01*
X154342044Y-115375761D02*
X154246806Y-115185285D01*
X154246806Y-115185285D02*
X154151568Y-114804333D01*
X154151568Y-114804333D02*
X154151568Y-114328142D01*
X154151568Y-114328142D02*
X154246806Y-113947190D01*
X154246806Y-113947190D02*
X154342044Y-113756714D01*
X154342044Y-113756714D02*
X154437282Y-113661476D01*
X154437282Y-113661476D02*
X154627758Y-113566238D01*
X156151568Y-115566238D02*
X156151568Y-114232904D01*
X156151568Y-114423380D02*
X156246806Y-114328142D01*
X156246806Y-114328142D02*
X156437282Y-114232904D01*
X156437282Y-114232904D02*
X156722997Y-114232904D01*
X156722997Y-114232904D02*
X156913473Y-114328142D01*
X156913473Y-114328142D02*
X157008711Y-114518619D01*
X157008711Y-114518619D02*
X157008711Y-115566238D01*
X157008711Y-114518619D02*
X157103949Y-114328142D01*
X157103949Y-114328142D02*
X157294425Y-114232904D01*
X157294425Y-114232904D02*
X157580139Y-114232904D01*
X157580139Y-114232904D02*
X157770616Y-114328142D01*
X157770616Y-114328142D02*
X157865854Y-114518619D01*
X157865854Y-114518619D02*
X157865854Y-115566238D01*
X158818235Y-115566238D02*
X158818235Y-114232904D01*
X158818235Y-114423380D02*
X158913473Y-114328142D01*
X158913473Y-114328142D02*
X159103949Y-114232904D01*
X159103949Y-114232904D02*
X159389664Y-114232904D01*
X159389664Y-114232904D02*
X159580140Y-114328142D01*
X159580140Y-114328142D02*
X159675378Y-114518619D01*
X159675378Y-114518619D02*
X159675378Y-115566238D01*
X159675378Y-114518619D02*
X159770616Y-114328142D01*
X159770616Y-114328142D02*
X159961092Y-114232904D01*
X159961092Y-114232904D02*
X160246806Y-114232904D01*
X160246806Y-114232904D02*
X160437283Y-114328142D01*
X160437283Y-114328142D02*
X160532521Y-114518619D01*
X160532521Y-114518619D02*
X160532521Y-115566238D01*
D10*
D13*
X155292588Y-110359819D02*
X154721160Y-110359819D01*
X155006874Y-110359819D02*
X155006874Y-109359819D01*
X155006874Y-109359819D02*
X154911636Y-109502676D01*
X154911636Y-109502676D02*
X154816398Y-109597914D01*
X154816398Y-109597914D02*
X154721160Y-109645533D01*
X155721160Y-110264580D02*
X155768779Y-110312200D01*
X155768779Y-110312200D02*
X155721160Y-110359819D01*
X155721160Y-110359819D02*
X155673541Y-110312200D01*
X155673541Y-110312200D02*
X155721160Y-110264580D01*
X155721160Y-110264580D02*
X155721160Y-110359819D01*
X156387826Y-109359819D02*
X156483064Y-109359819D01*
X156483064Y-109359819D02*
X156578302Y-109407438D01*
X156578302Y-109407438D02*
X156625921Y-109455057D01*
X156625921Y-109455057D02*
X156673540Y-109550295D01*
X156673540Y-109550295D02*
X156721159Y-109740771D01*
X156721159Y-109740771D02*
X156721159Y-109978866D01*
X156721159Y-109978866D02*
X156673540Y-110169342D01*
X156673540Y-110169342D02*
X156625921Y-110264580D01*
X156625921Y-110264580D02*
X156578302Y-110312200D01*
X156578302Y-110312200D02*
X156483064Y-110359819D01*
X156483064Y-110359819D02*
X156387826Y-110359819D01*
X156387826Y-110359819D02*
X156292588Y-110312200D01*
X156292588Y-110312200D02*
X156244969Y-110264580D01*
X156244969Y-110264580D02*
X156197350Y-110169342D01*
X156197350Y-110169342D02*
X156149731Y-109978866D01*
X156149731Y-109978866D02*
X156149731Y-109740771D01*
X156149731Y-109740771D02*
X156197350Y-109550295D01*
X156197350Y-109550295D02*
X156244969Y-109455057D01*
X156244969Y-109455057D02*
X156292588Y-109407438D01*
X156292588Y-109407438D02*
X156387826Y-109359819D01*
X157149731Y-110359819D02*
X157149731Y-109693152D01*
X157149731Y-109788390D02*
X157197350Y-109740771D01*
X157197350Y-109740771D02*
X157292588Y-109693152D01*
X157292588Y-109693152D02*
X157435445Y-109693152D01*
X157435445Y-109693152D02*
X157530683Y-109740771D01*
X157530683Y-109740771D02*
X157578302Y-109836009D01*
X157578302Y-109836009D02*
X157578302Y-110359819D01*
X157578302Y-109836009D02*
X157625921Y-109740771D01*
X157625921Y-109740771D02*
X157721159Y-109693152D01*
X157721159Y-109693152D02*
X157864016Y-109693152D01*
X157864016Y-109693152D02*
X157959255Y-109740771D01*
X157959255Y-109740771D02*
X158006874Y-109836009D01*
X158006874Y-109836009D02*
X158006874Y-110359819D01*
X158483064Y-110359819D02*
X158483064Y-109693152D01*
X158483064Y-109788390D02*
X158530683Y-109740771D01*
X158530683Y-109740771D02*
X158625921Y-109693152D01*
X158625921Y-109693152D02*
X158768778Y-109693152D01*
X158768778Y-109693152D02*
X158864016Y-109740771D01*
X158864016Y-109740771D02*
X158911635Y-109836009D01*
X158911635Y-109836009D02*
X158911635Y-110359819D01*
X158911635Y-109836009D02*
X158959254Y-109740771D01*
X158959254Y-109740771D02*
X159054492Y-109693152D01*
X159054492Y-109693152D02*
X159197349Y-109693152D01*
X159197349Y-109693152D02*
X159292588Y-109740771D01*
X159292588Y-109740771D02*
X159340207Y-109836009D01*
X159340207Y-109836009D02*
X159340207Y-110359819D01*
D16*
%TO.P,IC1,1,RVTRANS*%
%TO.N,unconnected-(IC1-RVTRANS-Pad1)*%
X142204500Y-96643000D03*
%TO.P,IC1,2,UVLO1*%
%TO.N,unconnected-(IC1-UVLO1-Pad2)*%
X142204500Y-97293000D03*
%TO.P,IC1,3,OVLO1*%
%TO.N,unconnected-(IC1-OVLO1-Pad3)*%
X142204500Y-97943000D03*
%TO.P,IC1,4,UVLO2*%
%TO.N,unconnected-(IC1-UVLO2-Pad4)*%
X142204500Y-98593000D03*
%TO.P,IC1,5,OVLO2*%
%TO.N,unconnected-(IC1-OVLO2-Pad5)*%
X142204500Y-99243000D03*
%TO.P,IC1,6,~{FAULT}*%
%TO.N,unconnected-(IC1-~{FAULT}-Pad6)*%
X142204500Y-99893000D03*
%TO.P,IC1,7,~{DONE}*%
%TO.N,unconnected-(IC1-~{DONE}-Pad7)*%
X142204500Y-100543000D03*
%TO.P,IC1,8,CHARGE*%
%TO.N,unconnected-(IC1-CHARGE-Pad8)*%
X142204500Y-101193000D03*
%TO.P,IC1,9,CLAMP*%
%TO.N,unconnected-(IC1-CLAMP-Pad9)*%
X142204500Y-101843000D03*
%TO.P,IC1,10,FB*%
%TO.N,unconnected-(IC1-FB-Pad10)*%
X142204500Y-102493000D03*
%TO.P,IC1,11,CSN*%
%TO.N,unconnected-(IC1-CSN-Pad11)*%
X147979500Y-102493000D03*
%TO.P,IC1,12,CSP*%
%TO.N,unconnected-(IC1-CSP-Pad12)*%
X147979500Y-101843000D03*
%TO.P,IC1,13,VCC*%
%TO.N,unconnected-(IC1-VCC-Pad13)*%
X147979500Y-101193000D03*
%TO.P,IC1,14,LVGATE*%
%TO.N,unconnected-(IC1-LVGATE-Pad14)*%
X147979500Y-100543000D03*
%TO.P,IC1,15,HVGATE*%
%TO.N,unconnected-(IC1-HVGATE-Pad15)*%
X147979500Y-99893000D03*
%TO.P,IC1,16,RBG*%
%TO.N,unconnected-(IC1-RBG-Pad16)*%
X147979500Y-99243000D03*
%TO.P,IC1,17,NC*%
%TO.N,unconnected-(IC1-NC-Pad17)*%
X147979500Y-98593000D03*
%TO.P,IC1,18,RVOUT*%
%TO.N,unconnected-(IC1-RVOUT-Pad18)*%
X147979500Y-97943000D03*
%TO.P,IC1,19,NC*%
%TO.N,unconnected-(IC1-NC-Pad19)*%
X147979500Y-97293000D03*
%TO.P,IC1,20,RDCM*%
%TO.N,unconnected-(IC1-RDCM-Pad20)*%
X147979500Y-96643000D03*
D17*
%TO.P,IC1,21,GND*%
%TO.N,unconnected-(IC1-GND-Pad21)*%
X145092000Y-99568000D03*
%TD*%
D18*
%TO.N,unconnected-(IC1-RDCM-Pad20)*%
X147979500Y-96643000D02*
X149622000Y-96643000D01*
D19*
X149622000Y-96643000D02*
X156699500Y-96643000D01*
D18*
%TO.N,unconnected-(IC1-RVOUT-Pad18)*%
X147979500Y-97943000D02*
X149696000Y-97943000D01*
D20*
X149696000Y-97943000D02*
X156699500Y-97943000D01*
D21*
%TO.N,unconnected-(IC1-RBG-Pad16)*%
X149689000Y-99243000D02*
X156699500Y-99243000D01*
D18*
X147979500Y-99243000D02*
X149689000Y-99243000D01*
%TO.N,unconnected-(IC1-CSP-Pad12)*%
X147979500Y-101843000D02*
X149684500Y-101843000D01*
D22*
X149684500Y-101843000D02*
X156445500Y-101843000D01*
D23*
%TO.N,unconnected-(IC1-LVGATE-Pad14)*%
X149733000Y-100543000D02*
X156699500Y-100543000D01*
D18*
X147979500Y-100543000D02*
X149733000Y-100543000D01*
%TD*%
%TA.AperFunction,NonConductor*%
G36*
X161360039Y-93618685D02*
G01*
X161405794Y-93671489D01*
X161417000Y-93723000D01*
X161417000Y-107572000D01*
X161397315Y-107639039D01*
X161344511Y-107684794D01*
X161293000Y-107696000D01*
X149860000Y-107696000D01*
X149860000Y-116970000D01*
X149840315Y-117037039D01*
X149787511Y-117082794D01*
X149736000Y-117094000D01*
X138300000Y-117094000D01*
X138232961Y-117074315D01*
X138187206Y-117021511D01*
X138176000Y-116970000D01*
X138176000Y-115443673D01*
X139004187Y-115443673D01*
X148598956Y-115443673D01*
X148598956Y-113180803D01*
X139004187Y-113180803D01*
X139004187Y-115443673D01*
X138176000Y-115443673D01*
X138176000Y-112411484D01*
X141146542Y-112411484D01*
X148236825Y-112411484D01*
X148236825Y-110749253D01*
X141146542Y-110749253D01*
X141146542Y-112411484D01*
X138176000Y-112411484D01*
X138176000Y-110186675D01*
X142575304Y-110186675D01*
X147356063Y-110186675D01*
X147356063Y-109024444D01*
X142575304Y-109024444D01*
X142575304Y-110186675D01*
X138176000Y-110186675D01*
X138176000Y-108589532D01*
X143869710Y-108589532D01*
X146323220Y-108589532D01*
X146323220Y-107945086D01*
X143869710Y-107945086D01*
X143869710Y-108589532D01*
X138176000Y-108589532D01*
X138176000Y-96503638D01*
X140966500Y-96503638D01*
X140966500Y-96782363D01*
X140981953Y-96899753D01*
X140981957Y-96899765D01*
X140990566Y-96920550D01*
X140998033Y-96990019D01*
X140990566Y-97015450D01*
X140981957Y-97036234D01*
X140981955Y-97036239D01*
X140966500Y-97153638D01*
X140966500Y-97432363D01*
X140981953Y-97549753D01*
X140981957Y-97549765D01*
X140990566Y-97570550D01*
X140998033Y-97640019D01*
X140990566Y-97665450D01*
X140981957Y-97686234D01*
X140981955Y-97686239D01*
X140966500Y-97803638D01*
X140966500Y-98082363D01*
X140981953Y-98199753D01*
X140981957Y-98199765D01*
X140990566Y-98220550D01*
X140998033Y-98290019D01*
X140990566Y-98315450D01*
X140981957Y-98336234D01*
X140981955Y-98336239D01*
X140966500Y-98453638D01*
X140966500Y-98732363D01*
X140981953Y-98849753D01*
X140981957Y-98849765D01*
X140990566Y-98870550D01*
X140998033Y-98940019D01*
X140990566Y-98965450D01*
X140981957Y-98986234D01*
X140981955Y-98986239D01*
X140966500Y-99103638D01*
X140966500Y-99382363D01*
X140981953Y-99499753D01*
X140981957Y-99499765D01*
X140990566Y-99520550D01*
X140998033Y-99590019D01*
X140990566Y-99615450D01*
X140981957Y-99636234D01*
X140981955Y-99636239D01*
X140966500Y-99753638D01*
X140966500Y-100032363D01*
X140981953Y-100149753D01*
X140981957Y-100149765D01*
X140990566Y-100170550D01*
X140998033Y-100240019D01*
X140990566Y-100265450D01*
X140981957Y-100286234D01*
X140981955Y-100286239D01*
X140966500Y-100403638D01*
X140966500Y-100682363D01*
X140981953Y-100799753D01*
X140981957Y-100799765D01*
X140990566Y-100820550D01*
X140998033Y-100890019D01*
X140990566Y-100915450D01*
X140981957Y-100936234D01*
X140981955Y-100936239D01*
X140966500Y-101053638D01*
X140966500Y-101332363D01*
X140981953Y-101449753D01*
X140981957Y-101449765D01*
X140990566Y-101470550D01*
X140998033Y-101540019D01*
X140990566Y-101565450D01*
X140981957Y-101586234D01*
X140981955Y-101586239D01*
X140966500Y-101703638D01*
X140966500Y-101982363D01*
X140981953Y-102099753D01*
X140981957Y-102099765D01*
X140990566Y-102120550D01*
X140998033Y-102190019D01*
X140990566Y-102215450D01*
X140981957Y-102236234D01*
X140981955Y-102236239D01*
X140966500Y-102353638D01*
X140966500Y-102632363D01*
X140981953Y-102749753D01*
X140981956Y-102749762D01*
X141042243Y-102895309D01*
X141042464Y-102895841D01*
X141138718Y-103021282D01*
X141264159Y-103117536D01*
X141410238Y-103178044D01*
X141527639Y-103193500D01*
X142881360Y-103193499D01*
X142881363Y-103193499D01*
X142998753Y-103178046D01*
X142998757Y-103178044D01*
X142998762Y-103178044D01*
X143144841Y-103117536D01*
X143270282Y-103021282D01*
X143366536Y-102895841D01*
X143427044Y-102749762D01*
X143442500Y-102632361D01*
X143442499Y-102353640D01*
X143427044Y-102236238D01*
X143427042Y-102236234D01*
X143418435Y-102215455D01*
X143410965Y-102145986D01*
X143418435Y-102120545D01*
X143423258Y-102108901D01*
X143427044Y-102099762D01*
X143442500Y-101982361D01*
X143442499Y-101703640D01*
X143441607Y-101696864D01*
X143452372Y-101627829D01*
X143498752Y-101575573D01*
X143566021Y-101556688D01*
X143632822Y-101577169D01*
X143652113Y-101595344D01*
X143653183Y-101594275D01*
X143659455Y-101600547D01*
X143774664Y-101686793D01*
X143774671Y-101686797D01*
X143909517Y-101737091D01*
X143909516Y-101737091D01*
X143916444Y-101737835D01*
X143969127Y-101743500D01*
X146214872Y-101743499D01*
X146274483Y-101737091D01*
X146409331Y-101686796D01*
X146524546Y-101600546D01*
X146524548Y-101600542D01*
X146530817Y-101594275D01*
X146533190Y-101596648D01*
X146576048Y-101564524D01*
X146645737Y-101559498D01*
X146707080Y-101592946D01*
X146740602Y-101654249D01*
X146742392Y-101696857D01*
X146741500Y-101703635D01*
X146741500Y-101982363D01*
X146756953Y-102099753D01*
X146756957Y-102099765D01*
X146765566Y-102120550D01*
X146773033Y-102190019D01*
X146765566Y-102215450D01*
X146756957Y-102236234D01*
X146756955Y-102236239D01*
X146741500Y-102353638D01*
X146741500Y-102632363D01*
X146756953Y-102749753D01*
X146756956Y-102749762D01*
X146817243Y-102895309D01*
X146817464Y-102895841D01*
X146913718Y-103021282D01*
X147039159Y-103117536D01*
X147185238Y-103178044D01*
X147302639Y-103193500D01*
X148656360Y-103193499D01*
X148656363Y-103193499D01*
X148773753Y-103178046D01*
X148773757Y-103178044D01*
X148773762Y-103178044D01*
X148919841Y-103117536D01*
X149045282Y-103021282D01*
X149109885Y-102937088D01*
X149166312Y-102895887D01*
X149236058Y-102891732D01*
X149246579Y-102894645D01*
X149248612Y-102895305D01*
X149248619Y-102895309D01*
X149377208Y-102937090D01*
X149418602Y-102950540D01*
X149506868Y-102964520D01*
X149595134Y-102978500D01*
X149595135Y-102978500D01*
X156534865Y-102978500D01*
X156534866Y-102978500D01*
X156711397Y-102950540D01*
X156711400Y-102950539D01*
X156711401Y-102950539D01*
X156881378Y-102895310D01*
X156881378Y-102895309D01*
X156881381Y-102895309D01*
X157040632Y-102814167D01*
X157185228Y-102709111D01*
X157311611Y-102582728D01*
X157416667Y-102438132D01*
X157497809Y-102278881D01*
X157511665Y-102236238D01*
X157553039Y-102108901D01*
X157553039Y-102108900D01*
X157553040Y-102108897D01*
X157581000Y-101932366D01*
X157581000Y-101753634D01*
X157553040Y-101577103D01*
X157553039Y-101577099D01*
X157553039Y-101577098D01*
X157497810Y-101407121D01*
X157497808Y-101407118D01*
X157468951Y-101350483D01*
X157416667Y-101247868D01*
X157416665Y-101247865D01*
X157416664Y-101247863D01*
X157361018Y-101171274D01*
X157337537Y-101105468D01*
X157353362Y-101037414D01*
X157358233Y-101029497D01*
X157424402Y-100930468D01*
X157486065Y-100781602D01*
X157517500Y-100623566D01*
X157517500Y-100462434D01*
X157486065Y-100304398D01*
X157430623Y-100170550D01*
X157424403Y-100155533D01*
X157334880Y-100021552D01*
X157249107Y-99935779D01*
X157215622Y-99874456D01*
X157220606Y-99804764D01*
X157249107Y-99760417D01*
X157285559Y-99723966D01*
X157368129Y-99600390D01*
X157425005Y-99463080D01*
X157454000Y-99317312D01*
X157454000Y-99168688D01*
X157425005Y-99022920D01*
X157368129Y-98885610D01*
X157358066Y-98870550D01*
X157285560Y-98762035D01*
X157285554Y-98762028D01*
X157180468Y-98656942D01*
X157121770Y-98617722D01*
X157076965Y-98564110D01*
X157068258Y-98494785D01*
X157098412Y-98431758D01*
X157102961Y-98426957D01*
X157186911Y-98343008D01*
X157255583Y-98240233D01*
X157302885Y-98126035D01*
X157327000Y-98004803D01*
X157327000Y-97881197D01*
X157327000Y-97881194D01*
X157302886Y-97759970D01*
X157302885Y-97759969D01*
X157302885Y-97759965D01*
X157263736Y-97665450D01*
X157255586Y-97645773D01*
X157255579Y-97645760D01*
X157186911Y-97542992D01*
X157186908Y-97542988D01*
X157099511Y-97455591D01*
X157099507Y-97455588D01*
X156996739Y-97386920D01*
X156996734Y-97386918D01*
X156996733Y-97386917D01*
X156978813Y-97379494D01*
X156962517Y-97372744D01*
X156908114Y-97328902D01*
X156886050Y-97262608D01*
X156903330Y-97194908D01*
X156947968Y-97150798D01*
X157045804Y-97094313D01*
X157150813Y-96989304D01*
X157225065Y-96860696D01*
X157263500Y-96717252D01*
X157263500Y-96568748D01*
X157225065Y-96425304D01*
X157150813Y-96296696D01*
X157045804Y-96191687D01*
X156917196Y-96117435D01*
X156773752Y-96079000D01*
X156773751Y-96079000D01*
X149853603Y-96079000D01*
X149821510Y-96074775D01*
X149763418Y-96059209D01*
X149701057Y-96042500D01*
X149701056Y-96042500D01*
X148993257Y-96042500D01*
X148926218Y-96022815D01*
X148920900Y-96019075D01*
X148919836Y-96018461D01*
X148773765Y-95957957D01*
X148773760Y-95957955D01*
X148656370Y-95942501D01*
X148656367Y-95942500D01*
X148656361Y-95942500D01*
X148656354Y-95942500D01*
X147302636Y-95942500D01*
X147185246Y-95957953D01*
X147185237Y-95957956D01*
X147039160Y-96018463D01*
X146913718Y-96114718D01*
X146817463Y-96240160D01*
X146756956Y-96386237D01*
X146756955Y-96386239D01*
X146741500Y-96503638D01*
X146741500Y-96782363D01*
X146756953Y-96899753D01*
X146756957Y-96899765D01*
X146765566Y-96920550D01*
X146773033Y-96990019D01*
X146765566Y-97015450D01*
X146756957Y-97036234D01*
X146756955Y-97036239D01*
X146741500Y-97153638D01*
X146741500Y-97432364D01*
X146742393Y-97439144D01*
X146731622Y-97508179D01*
X146685238Y-97560431D01*
X146617968Y-97579311D01*
X146551169Y-97558825D01*
X146531887Y-97540654D01*
X146530817Y-97541725D01*
X146524544Y-97535452D01*
X146409335Y-97449206D01*
X146409328Y-97449202D01*
X146274482Y-97398908D01*
X146274483Y-97398908D01*
X146214883Y-97392501D01*
X146214881Y-97392500D01*
X146214873Y-97392500D01*
X146214864Y-97392500D01*
X143969129Y-97392500D01*
X143969123Y-97392501D01*
X143909516Y-97398908D01*
X143774671Y-97449202D01*
X143774664Y-97449206D01*
X143659455Y-97535452D01*
X143653183Y-97541725D01*
X143650820Y-97539362D01*
X143607849Y-97571513D01*
X143538156Y-97576478D01*
X143476842Y-97542976D01*
X143443374Y-97481644D01*
X143441608Y-97439134D01*
X143442500Y-97432361D01*
X143442499Y-97153640D01*
X143442124Y-97150795D01*
X143434689Y-97094312D01*
X143427044Y-97036238D01*
X143427042Y-97036234D01*
X143418435Y-97015455D01*
X143410965Y-96945986D01*
X143418435Y-96920545D01*
X143427044Y-96899762D01*
X143442500Y-96782361D01*
X143442499Y-96503640D01*
X143442499Y-96503638D01*
X143442499Y-96503636D01*
X143427046Y-96386246D01*
X143427044Y-96386239D01*
X143427044Y-96386238D01*
X143366536Y-96240159D01*
X143270282Y-96114718D01*
X143144841Y-96018464D01*
X142998762Y-95957956D01*
X142998760Y-95957955D01*
X142881370Y-95942501D01*
X142881367Y-95942500D01*
X142881361Y-95942500D01*
X142881354Y-95942500D01*
X141527636Y-95942500D01*
X141410246Y-95957953D01*
X141410237Y-95957956D01*
X141264160Y-96018463D01*
X141138718Y-96114718D01*
X141042463Y-96240160D01*
X140981956Y-96386237D01*
X140981955Y-96386239D01*
X140966500Y-96503638D01*
X138176000Y-96503638D01*
X138176000Y-93723000D01*
X138195685Y-93655961D01*
X138248489Y-93610206D01*
X138300000Y-93599000D01*
X161293000Y-93599000D01*
X161360039Y-93618685D01*
G37*
%TD.AperFunction*%
M02*
