<?xml version="1.0" encoding="UTF-8" standalone="no"?>
<svg
   width="72.3mm"
   height="8.3mm"
   viewBox="-0.15 -0.15 72.3 8.3"
   version="1.1"
   id="svg353"
   sodipodi:docname="U1_signals.svg"
   inkscape:version="1.2.2 (b0a8486541, 2022-12-01)"
   xmlns:inkscape="http://www.inkscape.org/namespaces/inkscape"
   xmlns:sodipodi="http://sodipodi.sourceforge.net/DTD/sodipodi-0.dtd"
   xmlns="http://www.w3.org/2000/svg"
   xmlns:svg="http://www.w3.org/2000/svg">
  <defs
     id="defs357" />
  <sodipodi:namedview
     id="namedview355"
     pagecolor="#ffffff"
     bordercolor="#000000"
     borderopacity="0.25"
     inkscape:showpageshadow="2"
     inkscape:pageopacity="0.0"
     inkscape:pagecheckerboard="0"
     inkscape:deskcolor="#d1d1d1"
     inkscape:document-units="mm"
     showgrid="false"
     inkscape:zoom="7.9585754"
     inkscape:cx="179.55475"
     inkscape:cy="19.03607"
     inkscape:window-width="1366"
     inkscape:window-height="699"
     inkscape:window-x="0"
     inkscape:window-y="0"
     inkscape:window-maximized="1"
     inkscape:current-layer="svg353" />
  <title
     id="title311">U1 signals</title>
  <rect
     x="0"
     y="0"
     width="72"
     height="8"
     id="rect313"
     style="fill:none;stroke:#000000;stroke-width:0.15" />
  <path
     d="M 0,4 H 72 M 9,0 v 8 m 9,-8 v 8 m 9,-8 v 8 m 9,-8 v 8 m 9,-8 v 8 m 9,-8 v 8 m 9,-8 v 8"
     id="path315"
     style="fill:none;stroke:#000000;stroke-width:0.15" />
  <path
     d="M 5.26826,2.48014 5.37931,2.52658 5.49447,2.55982 5.61362,2.57962 5.73665,2.58621 5.98968,2.54674 6.18398,2.42831 6.30767,2.24237 6.3489,2.00036 6.30695,1.7563 6.18107,1.57048 5.98193,1.45296 5.72067,1.41379 5.61041,1.41911 5.50488,1.4351 5.40443,1.46131 5.30992,1.49782 V 1.73154 L 5.40413,1.68479 5.49786,1.65161 5.59146,1.63163 5.68531,1.62497 5.83928,1.64931 5.95341,1.72233 6.02407,1.8404 6.04762,2.00036 6.02492,2.15924 5.9568,2.27743 5.84691,2.35063 5.69887,2.37503 5.65498,2.37363 5.61435,2.36946 5.57736,2.36207 5.54436,2.35154 V 2.13211 H 5.72237 V 1.93667 H 5.26826 Z M 5.01152,1.43413 H 4.68626 l -0.41099,0.775 v -0.775 H 3.99893 v 1.13005 h 0.3255 l 0.41099,-0.775 v 0.775 h 0.2761 z M 3.42295,1.65452 V 2.34403 H 3.31856 L 3.16114,2.32187 3.04586,2.25539 2.97502,2.14671 2.95141,1.99794 2.9749,1.85015 3.04538,1.74243 3.16054,1.6765 3.31856,1.65452 Z M 3.7143,1.43413 H 3.4072 L 3.18264,1.44333 3.02382,1.47094 2.90685,1.52035 2.80779,1.59543 2.73859,1.67783 2.68985,1.77198 2.66078,1.87836 2.6511,1.99794 2.66078,2.1191 2.68985,2.22632 2.73859,2.3206 2.80779,2.40288 2.90769,2.47802 3.02576,2.52761 3.18469,2.55503 3.4072,2.56418 h 0.3071 z"
     id="path319"
     style="fill:#000000;fill-rule:evenodd" />
  <path
     d="M 16.15484,2.33046 16.23689,2.36697 16.3222,2.39319 16.41108,2.40918 16.50384,2.4145 16.75686,2.37503 16.95116,2.2566 17.07485,2.07066 17.11609,1.82865 17.07485,1.58598 16.95116,1.39998 16.75686,1.28155 16.50384,1.24207 16.41108,1.2474 16.3222,1.26339 16.23689,1.2896 16.15484,1.32611 v 0.23371 l 0.08053,-0.04783 0.07932,-0.03306 0.08077,-0.01925 0.08488,-0.00642 0.13932,0.02501 0.10602,0.07502 0.06684,0.11873 0.02229,0.15663 L 16.79252,1.9848 16.72568,2.10354 16.61966,2.17837 16.48034,2.20332 16.39546,2.1969 16.31469,2.17764 16.23537,2.1444 16.15484,2.09651 Z M 15.91341,1.26242 h -0.78614 v 0.22039 h 0.49479 v 0.21022 h -0.46548 v 0.22039 h 0.46548 v 0.2589 h -0.5115 v 0.22014 h 0.80285 z m -1.6914,1.35189 v 0.14362 h 0.775 V 2.61431 Z M 13.6657,1.7635 13.58711,1.75503 13.53444,1.7296 13.50465,1.68449 13.49472,1.61746 13.50465,1.55123 13.53444,1.50703 13.58711,1.48196 13.6657,1.47361 h 0.12255 V 1.7635 Z m 0.12255,0.20126 v 0.4277 H 14.0796 V 1.26242 h -0.4449 l -0.19345,0.01877 -0.13374,0.05631 -0.07811,0.09663 -0.02603,0.14023 0.01356,0.1019 0.04069,0.08192 0.06775,0.06248 0.09524,0.04359 -0.05667,0.02222 -0.05038,0.03954 -0.04771,0.06037 -0.0482,0.08519 -0.15814,0.32089 h 0.31024 L 13.50755,2.11177 13.54951,2.04045 13.59208,1.996 13.64185,1.97257 13.7059,1.96476 Z M 12.88607,1.26242 h -0.78614 v 0.22039 h 0.49479 v 0.21022 h -0.46549 v 0.22039 h 0.46549 v 0.47904 h 0.29135 z m -1.363,0.91595 h -0.49721 v 0.21409 h 0.82126 V 2.17837 L 11.43467,1.81412 11.38648,1.76478 11.35281,1.71652 11.33301,1.6679 l -0.0066,-0.05044 0.01332,-0.07168 0.03996,-0.05619 0.06212,-0.03633 0.07981,-0.01211 0.07132,0.00727 0.07786,0.02179 0.08374,0.03621 0.08943,0.0505 V 1.30868 L 11.74618,1.2801 11.64949,1.25927 l -0.09518,-0.0129 -0.09324,-0.0043 -0.18031,0.02235 -0.13502,0.06702 -0.08428,0.10681 -0.02809,0.14216 0.01192,0.08919 0.03579,0.08301 0.07398,0.0933 0.12655,0.12055 z m -1.20249,-0.67594 0.3192,0.47299 h -0.3192 z m 0.04844,-0.24001 h -0.32405 v 0.713 H 9.88391 v 0.21119 h 0.16106 v 0.20585 h 0.27561 V 2.18661 h 0.50084 v -0.2497 z"
     id="path321"
     style="fill:#000000;fill-rule:evenodd" />
  <path
     d="m 26.3288,1.25225 h -0.37079 l -0.2572,0.60474 -0.2589,-0.60474 h -0.37006 v 1.13004 h 0.27537 V 1.55571 l 0.26035,0.60934 h 0.18479 l 0.26035,-0.60934 v 0.82658 h 0.27609 z m -1.54243,0 H 24.49502 V 1.92964 L 24.48358,2.04971 24.44925,2.12993 24.389,2.17498 24.29982,2.19 24.21009,2.17498 24.14966,2.12993 24.11533,2.04971 24.10389,1.92964 V 1.25225 h -0.29135 v 0.67739 l 0.03009,0.20938 0.09027,0.14809 0.15179,0.08792 0.21513,0.0293 0.21464,-0.0293 0.15179,-0.08792 0.09009,-0.14809 0.03003,-0.20938 z m -1.8883,0.55339 -0.39186,0.57665 h 0.30346 l 0.26398,-0.38604 0.26205,0.38604 h 0.30491 L 23.24851,1.80564 23.6256,1.25225 h -0.30443 l -0.24752,0.364 -0.24655,-0.364 h -0.30588 z m -1.19795,0.7985 v 0.14361 h 0.775 V 2.60414 Z M 21.55771,1.25225 h -0.29135 v 1.13004 h 0.29135 z m -0.57671,0 h -0.32526 l -0.41099,0.775 v -0.775 h -0.27634 v 1.13004 h 0.3255 l 0.411,-0.775 v 0.775 H 20.981 Z m -1.29722,0 H 19.39243 V 1.68286 H 18.96255 V 1.25225 H 18.6712 v 1.13004 h 0.29135 V 1.90325 h 0.42988 v 0.47904 h 0.29135 z"
     id="path323"
     style="fill:#000000;fill-rule:evenodd" />
  <path
     d="M 34.35052,1.25225 H 33.97973 L 33.72252,1.85699 33.46363,1.25225 h -0.37007 v 1.13004 h 0.27537 V 1.55571 l 0.26035,0.60934 h 0.18479 l 0.26035,-0.60934 v 0.82658 h 0.2761 z m -1.54243,0 H 32.51673 V 1.92964 L 32.50529,2.04971 32.47096,2.12993 32.41072,2.17498 32.32153,2.19 32.2318,2.17498 32.17137,2.12993 32.13704,2.04971 32.1256,1.92964 V 1.25225 h -0.29135 v 0.67739 l 0.03009,0.20938 0.09028,0.14809 0.15179,0.08792 0.21512,0.0293 0.21464,-0.0293 0.15179,-0.08792 0.09009,-0.14809 0.03004,-0.20938 z m -1.88831,0.55339 -0.39186,0.57665 h 0.30346 l 0.26399,-0.38604 0.26204,0.38604 h 0.30492 L 31.27022,1.80564 31.64731,1.25225 h -0.30443 l -0.24751,0.364 -0.24655,-0.364 h -0.30588 z m -1.19795,0.7985 v 0.14361 h 0.775 V 2.60414 Z M 29.12702,1.68988 29.06641,1.68231 29.02263,1.65961 28.99593,1.62213 28.98703,1.57024 28.99593,1.51883 29.02263,1.48136 29.06641,1.45829 29.12702,1.4506 h 0.16105 V 1.68988 Z M 29.11712,2.18394 29.04028,2.17468 28.98512,2.14689 28.95188,2.10039 28.94077,2.035 28.95173,1.97063 28.98461,1.9248 29.03965,1.89719 29.11709,1.88799 h 0.17098 v 0.29595 z m -0.27101,-0.40639 -0.08313,0.03887 -0.06194,0.06188 -0.03869,0.08168 -0.0129,0.09827 0.02761,0.14271 0.08283,0.10117 0.13926,0.06012 0.1969,0.02004 h 0.4834 V 1.25225 h -0.43739 l -0.20295,0.0178 -0.13805,0.0534 -0.07919,0.09258 -0.0264,0.13532 0.0097,0.07623 0.02906,0.06399 0.04723,0.05044 z"
     id="path325"
     style="fill:#000000;fill-rule:evenodd" />
  <path
     d="m 43.41037,1.25225 h -0.37079 l -0.2572,0.60474 -0.2589,-0.60474 h -0.37007 v 1.13004 h 0.27537 V 1.55571 l 0.26035,0.60934 h 0.18479 l 0.26035,-0.60934 v 0.82658 h 0.2761 z m -1.54243,0 H 41.57658 V 1.92964 L 41.56514,2.04971 41.53081,2.12993 41.47057,2.17498 41.38138,2.19 41.29165,2.17498 41.23122,2.12993 41.19689,2.04971 41.18545,1.92964 V 1.25225 H 40.8941 v 0.67739 l 0.03009,0.20938 0.09028,0.14809 0.15179,0.08792 0.21512,0.0293 0.21464,-0.0293 0.15179,-0.08792 0.09009,-0.14809 0.03004,-0.20938 z m -1.88831,0.55339 -0.39186,0.57665 h 0.30346 l 0.26399,-0.38604 0.26204,0.38604 h 0.30492 l -0.3921,-0.57665 0.37708,-0.55339 h -0.30443 l -0.24751,0.364 -0.24655,-0.364 h -0.30588 z m -1.19795,0.7985 v 0.14361 h 0.775 V 2.60414 Z M 37.95364,2.17643 h 0.45556 l 0.07192,0.20586 h 0.29305 l -0.4185,-1.13004 h -0.34754 l -0.4185,1.13004 h 0.29281 z m 0.3829,-0.20973 h -0.30952 l 0.15452,-0.4495 z"
     id="path327"
     style="fill:#000000;fill-rule:evenodd" />
  <path
     d="m 52.32822,1.47264 v 0.6895 H 52.22384 L 52.06642,2.13998 51.95113,2.0735 51.88029,1.96482 51.85668,1.81606 51.88017,1.66826 51.95065,1.56055 52.06581,1.49462 52.22384,1.47264 Z m 0.29135,-0.22039 h -0.30709 l -0.22457,0.0092 -0.15881,0.02761 -0.11698,0.0494 -0.09906,0.07508 -0.0692,0.08241 -0.04874,0.09415 -0.02906,0.10638 -0.0097,0.11958 0.0097,0.12115 0.02906,0.10723 0.04874,0.09427 0.0692,0.08229 0.09991,0.07513 0.11806,0.04959 0.15894,0.02743 0.22251,0.00914 h 0.30709 z m -1.28662,0 H 51.0416 v 1.13004 h 0.29135 z M 50.34234,1.75333 50.26375,1.74486 50.21108,1.71943 50.18129,1.67432 50.17136,1.60729 50.18129,1.54105 50.21108,1.49686 50.26375,1.47179 50.34234,1.46343 h 0.12255 v 0.2899 z m 0.12255,0.20126 v 0.4277 h 0.29135 V 1.25225 h -0.4449 l -0.19344,0.01877 -0.13375,0.0563 -0.07811,0.09664 -0.02603,0.14022 0.01356,0.1019 0.04069,0.08192 0.06775,0.06249 0.09524,0.04359 -0.05667,0.02222 -0.05038,0.03954 -0.04771,0.06037 -0.04819,0.08518 -0.15815,0.3209 h 0.31024 L 50.18419,2.1016 50.22615,2.03027 50.26872,1.98583 50.31849,1.9624 50.38255,1.95459 Z m -1.53477,0.64955 v 0.14361 h 0.775 V 2.60414 Z M 48.78771,1.25225 h -0.37079 l -0.2572,0.60474 -0.2589,-0.60474 h -0.37006 v 1.13004 h 0.27537 V 1.55571 l 0.26035,0.60934 h 0.18479 l 0.26035,-0.60934 v 0.82658 h 0.27609 z m -1.97062,0.24 0.31921,0.473 h -0.31921 z m 0.04844,-0.24 h -0.32405 v 0.713 h -0.16105 v 0.21118 h 0.16105 v 0.20586 h 0.27561 V 2.17643 h 0.50085 V 1.92674 Z"
     id="path329"
     style="fill:#000000;fill-rule:evenodd" />
  <path
     d="M 61.30219,1.48281 V 2.17232 H 61.1978 L 61.04038,2.15016 60.9251,2.08368 60.85426,1.97499 60.83065,1.82623 60.85414,1.67844 60.92461,1.57072 61.03977,1.50479 61.1978,1.48281 Z m 0.29135,-0.22039 h -0.3071 l -0.22457,0.0092 -0.15881,0.02761 -0.11698,0.04941 -0.09905,0.07507 -0.06921,0.08241 -0.04874,0.09415 -0.02906,0.10638 -0.0097,0.11958 0.0097,0.12115 0.02906,0.10723 0.04874,0.09427 0.06921,0.08229 0.0999,0.07514 0.11807,0.04958 0.15893,0.02743 0.22251,0.00914 h 0.3071 z m -1.28662,0 h -0.29136 v 1.13004 h 0.29136 z M 59.31631,1.7635 59.23772,1.75503 59.18504,1.7296 59.15525,1.68449 l -0.0099,-0.06703 0.0099,-0.06623 0.02979,-0.0442 0.05268,-0.02507 0.07859,-0.00835 h 0.12254 V 1.7635 Z m 0.12254,0.20126 v 0.4277 h 0.29136 V 1.26242 h -0.4449 l -0.19345,0.01877 -0.13375,0.05631 -0.0781,0.09663 -0.02604,0.14023 0.01356,0.1019 0.04069,0.08192 0.06775,0.06248 0.09524,0.04359 -0.05667,0.02222 -0.05037,0.03954 -0.04771,0.06037 -0.0482,0.08519 -0.15815,0.32089 h 0.31024 L 59.15816,2.11177 59.20012,2.04045 59.24268,1.996 59.29245,1.97257 59.35651,1.96476 Z m -1.53477,0.64955 v 0.14362 h 0.775 V 2.61431 Z M 57.76168,1.26242 H 57.39089 L 57.13368,1.86716 56.87479,1.26242 h -0.37007 v 1.13004 h 0.27537 V 1.56588 l 0.26035,0.60934 h 0.18479 l 0.26035,-0.60934 v 0.82658 h 0.2761 z m -2.12199,0.5207 -0.10057,0.04045 -0.07308,0.06224 -0.04468,0.08289 -0.0149,0.10287 0.03221,0.14791 0.09664,0.10759 L 55.6934,2.39265 55.91046,2.4145 55.9977,2.41099 56.08507,2.40046 56.17202,2.3829 56.25799,2.35832 V 2.13357 L 56.1765,2.16947 56.09573,2.19532 56.01575,2.21095 55.9371,2.21615 55.83483,2.20616 55.75957,2.17619 55.71325,2.12727 55.69781,2.06091 55.71362,1.99304 55.76103,1.94393 55.83931,1.91414 55.94775,1.90421 h 0.11649 V 1.71652 H 55.9417 L 55.84585,1.70792 55.77822,1.68213 55.7379,1.63872 55.72446,1.57726 l 0.01307,-0.05758 0.03924,-0.04293 0.06291,-0.0267 0.08458,-0.0089 0.07066,0.004 0.0715,0.01199 0.07175,0.01955 0.07139,0.02719 V 1.29051 L 56.1237,1.26932 56.03857,1.25418 55.95453,1.2451 55.87195,1.24207 l -0.19242,0.01811 -0.13696,0.05431 -0.0821,0.09046 -0.02737,0.12702 0.01308,0.0901 0.03924,0.07217 0.0646,0.05382 z"
     id="path331"
     style="fill:#000000;fill-rule:evenodd" />
  <path
     d="M 70.29649,1.48281 V 2.17232 H 70.19211 L 70.03469,2.15016 69.91941,2.08368 69.84857,1.97499 69.82495,1.82623 69.84845,1.67844 69.91892,1.57072 70.03408,1.50479 70.19211,1.48281 Z m 0.29136,-0.22039 h -0.3071 l -0.22457,0.0092 -0.15881,0.02761 -0.11698,0.04941 -0.09905,0.07507 -0.06921,0.08241 -0.04874,0.09415 -0.02906,0.10638 -0.0097,0.11958 0.0097,0.12115 0.02906,0.10723 0.04874,0.09427 0.06921,0.08229 0.0999,0.07514 0.11807,0.04958 0.15893,0.02743 0.22251,0.00914 h 0.3071 z m -1.28663,0 h -0.29135 v 1.13004 h 0.29135 z M 68.31062,1.7635 68.23203,1.75503 68.17935,1.7296 68.14956,1.68449 l -0.0099,-0.06703 0.0099,-0.06623 0.02979,-0.0442 0.05268,-0.02507 0.07859,-0.00835 h 0.12254 V 1.7635 Z m 0.12254,0.20126 v 0.4277 h 0.29136 V 1.26242 h -0.4449 l -0.19345,0.01877 -0.13375,0.05631 -0.0781,0.09663 -0.02604,0.14023 0.01356,0.1019 0.04069,0.08192 0.06775,0.06248 0.09524,0.04359 -0.05667,0.02222 -0.05037,0.03954 -0.04771,0.06037 -0.0482,0.08519 -0.15815,0.32089 h 0.31024 L 68.15247,2.11177 68.19443,2.04045 68.23699,1.996 68.28676,1.97257 68.35082,1.96476 Z m -1.53477,0.64955 v 0.14362 h 0.775 V 2.61431 Z M 66.75598,1.26242 H 66.3852 L 66.12799,1.86716 65.86909,1.26242 H 65.49903 V 2.39246 H 65.7744 V 1.56588 l 0.26035,0.60934 h 0.18479 l 0.26035,-0.60934 v 0.82658 h 0.27609 z m -1.84661,0.91595 h -0.49722 v 0.21409 h 0.82126 V 2.17837 L 64.82097,1.81412 64.77277,1.76478 64.73911,1.71652 64.71931,1.6679 l -0.0066,-0.05044 0.01332,-0.07168 0.03996,-0.05619 0.06212,-0.03633 0.0798,-0.01211 0.07133,0.00727 0.07786,0.02179 0.08374,0.03621 0.08942,0.0505 V 1.30868 L 65.13248,1.2801 65.03579,1.25927 l -0.09518,-0.0129 -0.09324,-0.0043 -0.18031,0.02235 -0.13502,0.06702 -0.08428,0.10681 -0.0281,0.14216 0.01193,0.08919 0.03578,0.08301 0.07399,0.0933 0.12654,0.12055 z"
     id="path333"
     style="fill:#000000;fill-rule:evenodd" />
  <path
     d="M 5.59666,5.43413 H 5.2714 l -0.41099,0.775 v -0.775 H 4.58407 v 1.13005 h 0.3255 l 0.41099,-0.775 v 0.775 h 0.2761 z M 3.40334,6.50218 3.48539,6.53869 3.5707,6.5649 3.65958,6.58089 3.75234,6.58621 4.00536,6.54674 4.19966,6.42831 4.32335,6.24237 4.36459,6.00036 4.32335,5.75769 4.19966,5.57169 4.00536,5.45326 3.75234,5.41379 3.65958,5.41911 3.5707,5.4351 3.48539,5.46131 3.40334,5.49782 V 5.73154 L 3.48387,5.6837 3.56319,5.65064 3.64396,5.63139 3.72884,5.62497 3.86816,5.64998 3.97418,5.725 4.04102,5.84373 4.06331,6.00036 4.04102,6.15651 3.97418,6.27525 3.86816,6.35008 3.72884,6.37503 3.64396,6.36861 3.56319,6.34936 3.48387,6.31612 3.40334,6.26822 Z"
     id="path335"
     style="fill:#000000;fill-rule:evenodd" />
  <path
     d="m 15.46099,5.59228 v 0.3967 h -0.39501 v 0.17849 h 0.39501 v 0.39671 h 0.18019 V 6.16747 h 0.39501 V 5.98898 h -0.39501 v -0.3967 z m -1.28129,0.36255 -0.10057,0.04045 -0.07308,0.06224 -0.04468,0.08289 -0.0149,0.10287 0.03221,0.14791 0.09664,0.1076 0.15808,0.06557 0.21706,0.02185 L 14.53771,6.5827 14.62508,6.57217 14.71203,6.55461 14.798,6.53003 V 6.30528 L 14.71651,6.34118 14.63574,6.36704 14.55576,6.38266 14.47711,6.38786 14.37484,6.37787 14.29958,6.3479 14.25326,6.29898 14.23782,6.23262 14.25363,6.16475 14.30104,6.11564 14.37932,6.08586 14.48776,6.07593 h 0.11649 V 5.88823 H 14.48171 L 14.38586,5.87963 14.31823,5.85384 14.27791,5.81043 14.26446,5.74897 l 0.01308,-0.05758 0.03924,-0.04293 0.06291,-0.0267 0.08458,-0.0089 0.07066,0.004 0.0715,0.01199 0.07175,0.01955 0.07139,0.02719 V 5.46222 L 14.66371,5.44103 14.57858,5.42589 14.49454,5.41681 14.41196,5.41379 l -0.19242,0.0181 -0.13696,0.05431 -0.0821,0.09046 -0.02737,0.12702 0.01308,0.0901 0.03924,0.07217 0.0646,0.05383 z m -0.51468,0.31654 h -0.27246 v 0.29281 h 0.27246 z m -1.15263,-0.31654 -0.10057,0.04045 -0.07308,0.06224 -0.04468,0.08289 -0.0149,0.10287 0.03221,0.14791 0.09664,0.1076 0.15808,0.06557 0.21707,0.02185 L 12.8704,6.5827 12.95777,6.57217 13.04472,6.55461 13.13069,6.53003 V 6.30528 L 13.0492,6.34118 12.96843,6.36704 12.88845,6.38266 12.8098,6.38786 12.70753,6.37787 12.63227,6.3479 12.58595,6.29898 12.57051,6.23262 12.58632,6.16475 12.63373,6.11564 12.71201,6.08586 12.82045,6.07593 h 0.11649 V 5.88823 H 12.8144 L 12.71855,5.87963 12.65092,5.85384 12.6106,5.81043 12.59716,5.74897 l 0.01307,-0.05758 0.03924,-0.04293 0.06291,-0.0267 0.08458,-0.0089 0.07066,0.004 0.0715,0.01199 0.07175,0.01955 0.07139,0.02719 V 5.46222 L 12.9964,5.44103 12.91127,5.42589 12.82723,5.41681 12.74465,5.41379 l -0.19242,0.0181 -0.13696,0.05431 -0.0821,0.09046 -0.02737,0.12702 0.01308,0.0901 0.03924,0.07217 0.0646,0.05383 z M 12.14835,5.43413 H 11.8553 l -0.29958,0.83409 -0.2991,-0.83409 h -0.29281 l 0.4185,1.13005 h 0.34754 z"
     id="path337"
     style="fill:#000000;fill-rule:evenodd" />
  <path
     d="m 24.89383,6.33046 0.08204,0.03651 0.08531,0.02622 0.08888,0.01599 0.09276,0.00532 0.25302,-0.03947 0.1943,-0.11843 0.1237,-0.18594 0.04123,-0.24201 -0.04123,-0.24267 -0.1237,-0.186 L 25.49584,5.28155 25.24282,5.24207 25.15006,5.2474 25.06118,5.26339 24.97587,5.2896 24.89383,5.32611 v 0.23371 l 0.08052,-0.04783 0.07932,-0.03306 0.08077,-0.01925 0.08489,-0.00642 0.13932,0.02501 0.10601,0.07502 0.06685,0.11873 0.02228,0.15663 L 25.53151,5.9848 25.46466,6.10354 25.35865,6.17837 25.21933,6.20332 25.13444,6.1969 25.05367,6.17764 24.97435,6.1444 24.89383,6.09651 Z M 24.6524,5.26242 h -0.29136 v 0.9099 h -0.5115 v 0.22014 h 0.80286 z m -0.98767,0 H 23.37337 V 5.67486 L 22.95342,5.26242 h -0.33834 l 0.5442,0.53523 -0.60014,0.59481 h 0.36473 l 0.4495,-0.44514 v 0.44514 h 0.29136 z m -1.8337,1.35189 v 0.14362 h 0.775 V 6.61431 Z M 20.90249,5.29802 V 5.5373 l 0.09191,-0.03651 0.08973,-0.02622 0.08597,-0.01598 0.08114,-0.00533 0.09082,0.00721 0.06369,0.02161 0.03742,0.03657 0.01247,0.05256 -0.0084,0.0405 -0.02525,0.03046 -0.04741,0.02343 -0.0749,0.01992 -0.124,0.02494 -0.16117,0.04784 -0.10669,0.06745 -0.05976,0.09336 -0.01992,0.12606 0.02772,0.16287 0.0832,0.11516 0.14016,0.06848 0.19866,0.02282 0.10753,-0.00514 0.10801,-0.01544 0.10826,-0.02531 0.10826,-0.03524 V 6.08755 L 21.6035,6.13793 21.50069,6.17425 21.40145,6.19605 21.30573,6.20332 21.22151,6.19538 21.15969,6.17159 21.12173,6.13284 21.10907,6.08053 21.11767,6.03372 21.14346,5.99891 21.19499,5.9716 21.28078,5.94732 21.39364,5.92238 21.54041,5.87527 21.64164,5.80661 21.70031,5.71337 21.71987,5.59252 21.69262,5.44321 21.61088,5.33289 21.47804,5.26478 21.29749,5.24207 21.20298,5.24559 21.10592,5.25612 21.0059,5.27362 Z m -0.3302,-0.0356 h -0.4834 l -0.19066,0.02397 -0.14041,0.07193 -0.08665,0.11601 -0.02888,0.1567 0.02888,0.15742 0.08665,0.11625 0.14041,0.07175 0.19066,0.02391 h 0.19205 v 0.3921 h 0.29135 z M 20.28094,5.47361 V 5.78918 H 20.11989 L 20.04475,5.77888 19.98886,5.748 19.95417,5.69817 19.94261,5.63103 19.95417,5.56412 19.98886,5.51454 20.04475,5.48384 20.11989,5.47361 Z M 19.43628,5.26242 h -0.29135 v 1.13004 h 0.29135 z"
     id="path339"
     style="fill:#000000;fill-rule:evenodd" />
  <path
     d="M 34.30789,5.7635 34.2293,5.75503 34.17663,5.7296 34.14684,5.68449 34.13691,5.61746 34.14684,5.55123 34.17663,5.50703 34.2293,5.48196 34.30789,5.47361 h 0.12255 V 5.7635 Z m 0.12255,0.20126 v 0.4277 h 0.29135 V 5.26242 h -0.4449 l -0.19345,0.01877 -0.13374,0.05631 -0.07811,0.09663 -0.02603,0.14023 0.01356,0.1019 0.04069,0.08192 0.06775,0.06248 0.09524,0.04359 -0.05667,0.02222 -0.05038,0.03954 -0.04771,0.06037 -0.0482,0.08519 -0.15814,0.32089 h 0.31024 L 34.14974,6.11177 34.1917,6.04045 34.23427,5.996 34.28404,5.97257 34.34809,5.96476 Z m -1.79827,0.3657 0.08204,0.03651 0.08531,0.02622 0.08888,0.01599 0.09276,0.00532 0.25302,-0.03947 0.1943,-0.11843 0.1237,-0.18594 0.04123,-0.24201 -0.04123,-0.24267 -0.1237,-0.186 L 33.23418,5.28155 32.98116,5.24207 32.8884,5.2474 32.79952,5.26339 32.71421,5.2896 32.63217,5.32611 V 5.55982 L 32.71269,5.51199 32.79201,5.47893 32.87278,5.45968 32.95767,5.45326 33.09698,5.47827 33.203,5.55329 33.26985,5.67202 33.29213,5.82865 33.26985,5.9848 33.203,6.10354 33.09698,6.17837 32.95767,6.20332 32.87278,6.1969 32.79201,6.17764 32.71269,6.1444 32.63217,6.09651 Z M 32.39074,5.26242 H 32.09938 V 5.67486 L 31.67943,5.26242 h -0.33834 l 0.5442,0.53523 -0.60014,0.59481 h 0.36473 l 0.4495,-0.44514 v 0.44514 h 0.29136 z m -1.8337,1.35189 v 0.14362 h 0.775 V 6.61431 Z M 29.6285,5.29802 V 5.5373 l 0.09191,-0.03651 0.08973,-0.02622 0.08597,-0.01598 0.08114,-0.00533 0.09082,0.00721 0.06369,0.02161 0.03742,0.03657 0.01247,0.05256 -0.0084,0.0405 -0.02525,0.03046 -0.04741,0.02343 -0.0749,0.01992 -0.124,0.02494 -0.16117,0.04784 -0.10669,0.06745 -0.05976,0.09336 -0.01992,0.12606 0.02772,0.16287 0.0832,0.11516 0.14016,0.06848 0.19866,0.02282 0.10753,-0.00514 0.10801,-0.01544 0.10826,-0.02531 0.10826,-0.03524 V 6.08755 L 30.32951,6.13793 30.2267,6.17425 30.12746,6.19605 30.03174,6.20332 29.94752,6.19538 29.8857,6.17159 29.84774,6.13284 29.83508,6.08053 29.84368,6.03372 29.86947,5.99891 29.921,5.9716 30.00679,5.94732 30.11965,5.92238 30.26642,5.87527 30.36765,5.80661 30.42632,5.71337 30.44588,5.59252 30.41863,5.44321 30.33689,5.33289 30.20405,5.26478 30.0235,5.24207 29.92899,5.24559 29.83193,5.25612 29.73191,5.27362 Z M 28.88441,5.7635 28.80582,5.75503 28.75314,5.7296 28.72335,5.68449 l -0.0099,-0.06703 0.0099,-0.06623 0.02979,-0.0442 0.05268,-0.02507 0.07859,-0.00835 h 0.12254 V 5.7635 Z m 0.12254,0.20126 v 0.4277 H 29.2983 V 5.26242 h -0.44489 l -0.19345,0.01877 -0.13375,0.05631 -0.07811,0.09663 -0.02603,0.14023 0.01356,0.1019 0.04069,0.08192 0.06775,0.06248 0.09524,0.04359 -0.05667,0.02222 -0.05038,0.03954 -0.04771,0.06037 -0.04819,0.08519 -0.15815,0.32089 h 0.31024 L 28.72626,6.11177 28.76822,6.04045 28.81078,5.996 28.86055,5.97257 28.92461,5.96476 Z"
     id="path341"
     style="fill:#000000;fill-rule:evenodd" />
  <path
     d="m 41.26828,6.48014 0.11105,0.04644 0.11516,0.03324 0.11915,0.0198 0.12303,0.00659 L 41.9897,6.54674 42.184,6.42831 42.30769,6.24237 42.34892,6.00036 42.30697,5.7563 42.18109,5.57048 41.98195,5.45296 41.72069,5.41379 41.61043,5.41911 41.5049,5.4351 41.40445,5.46131 41.30994,5.49782 v 0.23372 l 0.09421,-0.04675 0.09373,-0.03318 0.0936,-0.01998 0.09385,-0.00666 0.15397,0.02434 0.11413,0.07302 0.07066,0.11807 0.02355,0.15996 -0.0227,0.15888 -0.06812,0.11819 -0.10989,0.0732 -0.14804,0.0244 L 41.655,6.37363 41.61437,6.36946 41.57738,6.36207 41.54438,6.35154 V 6.13211 h 0.17801 V 5.93667 H 41.26828 Z M 41.01154,5.43413 h -0.32526 l -0.41099,0.775 v -0.775 h -0.27634 v 1.13005 h 0.3255 l 0.41099,-0.775 v 0.775 h 0.2761 z M 39.42297,5.65452 V 6.34403 H 39.31858 L 39.16116,6.32187 39.04588,6.25539 38.97504,6.14671 38.95143,5.99794 38.97492,5.85015 39.0454,5.74243 39.16056,5.6765 39.31858,5.65452 Z m 0.29135,-0.22039 h -0.3071 l -0.22456,0.0092 -0.15882,0.02761 -0.11697,0.04941 -0.09906,0.07508 -0.0692,0.0824 -0.04874,0.09415 -0.02907,0.10638 -0.0097,0.11958 0.0097,0.12116 0.02907,0.10722 0.04874,0.09428 0.0692,0.08228 0.0999,0.07514 0.11807,0.04959 0.15893,0.02742 0.22251,0.00915 h 0.3071 z"
     id="path343"
     style="fill:#000000;fill-rule:evenodd" />
  <path
     d="m 53.43591,5.26242 h -0.37079 l -0.2572,0.60474 -0.2589,-0.60474 h -0.37006 v 1.13004 h 0.27536 V 5.56588 l 0.26036,0.60934 h 0.18478 l 0.26036,-0.60934 v 0.82658 h 0.27609 z M 51.37738,5.45326 51.49562,5.47784 51.58396,5.55159 51.639,5.67002 51.65735,5.82865 51.639,5.98662 51.58396,6.10499 51.49562,6.17873 51.37738,6.20332 51.25858,6.17873 51.17006,6.10499 51.11503,5.98662 51.09668,5.82865 51.11503,5.67002 51.17006,5.55159 51.25858,5.47784 Z m 0,-0.21119 -0.24292,0.039 -0.18382,0.11697 -0.11588,0.18552 -0.03863,0.24509 0.03863,0.24443 0.11588,0.18546 0.18382,0.11697 0.24292,0.03899 0.24249,-0.03899 0.184,-0.11697 0.11607,-0.18546 0.03869,-0.24443 -0.03869,-0.24509 -0.11607,-0.18552 -0.184,-0.11697 z M 49.78969,5.29802 V 5.5373 l 0.09191,-0.03651 0.08973,-0.02622 0.08597,-0.01598 0.08114,-0.00533 0.09082,0.00721 0.06369,0.02161 0.03742,0.03657 0.01247,0.05256 -0.0084,0.0405 -0.02525,0.03046 -0.04741,0.02343 -0.0749,0.01992 -0.124,0.02494 -0.16117,0.04784 -0.10669,0.06745 -0.05976,0.09336 -0.01992,0.12606 0.02773,0.16287 0.08319,0.11516 0.14016,0.06848 0.19866,0.02282 0.10753,-0.00514 0.10801,-0.01544 0.10826,-0.02531 0.10826,-0.03524 V 6.08755 L 50.4907,6.13793 50.38789,6.17425 50.28865,6.19605 50.19293,6.20332 50.10871,6.19538 50.04689,6.17159 50.00893,6.13284 49.99627,6.08053 50.00487,6.03372 50.03066,5.99891 50.08219,5.9716 50.16798,5.94732 50.28084,5.92238 50.42761,5.87527 50.52884,5.80661 50.58751,5.71337 50.60707,5.59252 50.57982,5.44321 50.49808,5.33289 50.36525,5.26478 50.18469,5.24207 50.09018,5.24559 49.99312,5.25612 49.8931,5.27362 Z m -0.3302,-0.0356 h -0.29135 v 1.13004 h 0.29135 z m -1.2093,1.35189 v 0.14362 h 0.775 V 6.61431 Z M 47.32164,5.29802 V 5.5373 l 0.09191,-0.03651 0.08974,-0.02622 0.08597,-0.01598 0.08113,-0.00533 0.09082,0.00721 0.0637,0.02161 0.03742,0.03657 0.01247,0.05256 -0.0084,0.0405 -0.02524,0.03046 -0.04741,0.02343 -0.0749,0.01992 -0.124,0.02494 -0.16117,0.04784 -0.10669,0.06745 -0.05976,0.09336 -0.01992,0.12606 0.02771,0.16287 0.08319,0.11516 0.14017,0.06848 0.19866,0.02282 0.10753,-0.00514 0.10801,-0.01544 0.10826,-0.02531 0.10826,-0.03524 V 6.08755 L 48.02266,6.13793 47.91985,6.17425 47.82061,6.19605 47.72489,6.20332 47.64067,6.19538 47.57885,6.17159 47.54088,6.13284 47.52823,6.08053 47.53683,6.03372 47.56262,5.99891 47.61415,5.9716 47.69994,5.94732 47.8128,5.92238 47.95957,5.87527 48.0608,5.80661 48.11947,5.71337 48.13903,5.59252 48.11178,5.44321 48.03004,5.33289 47.8972,5.26478 47.71665,5.24207 47.62214,5.24559 47.52508,5.25612 47.42506,5.27362 Z m -0.33019,-0.0356 h -0.4834 l -0.19067,0.02397 -0.1404,0.07193 -0.08665,0.11601 -0.02888,0.1567 0.02888,0.15742 0.08665,0.11625 0.1404,0.07175 0.19067,0.02391 h 0.19205 v 0.3921 h 0.29135 z M 46.7001,5.47361 V 5.78918 H 46.53905 L 46.46391,5.77888 46.40802,5.748 46.37333,5.69817 46.36176,5.63103 46.37333,5.56412 46.40802,5.51454 46.46391,5.48384 46.53905,5.47361 Z M 45.85544,5.26242 h -0.29135 v 1.13004 h 0.29135 z"
     id="path345"
     style="fill:#000000;fill-rule:evenodd" />
  <path
     d="m 61.31054,5.47264 v 0.6895 H 61.20616 L 61.04874,6.13998 60.93345,6.0735 60.86261,5.96482 60.839,5.81606 60.86249,5.66826 60.93297,5.56055 61.04813,5.49462 61.20616,5.47264 Z M 61.60189,5.25225 H 61.2948 l -0.22457,0.0092 -0.15881,0.02761 -0.11698,0.0494 -0.09906,0.07508 -0.0692,0.08241 -0.04874,0.09415 -0.02906,0.10638 -0.0097,0.11958 0.0097,0.12115 0.02906,0.10723 0.04874,0.09427 0.0692,0.08229 0.09991,0.07513 0.11806,0.04959 0.15894,0.02743 0.22251,0.00914 h 0.30709 z m -1.28662,0 h -0.29135 v 1.13004 h 0.29135 z M 59.32466,5.75333 59.24607,5.74486 59.1934,5.71943 59.16361,5.67432 59.15368,5.60729 59.16361,5.54105 59.1934,5.49686 59.24607,5.47179 59.32466,5.46343 h 0.12255 v 0.2899 z m 0.12255,0.20126 v 0.4277 h 0.29135 V 5.25225 h -0.4449 l -0.19344,0.01877 -0.13375,0.0563 -0.07811,0.09664 -0.02603,0.14022 0.01356,0.1019 0.04069,0.08192 0.06775,0.06249 0.09524,0.04359 -0.05667,0.02222 -0.05038,0.03954 -0.04771,0.06037 -0.04819,0.08518 -0.15815,0.3209 h 0.31024 L 59.16652,6.1016 59.20847,6.03027 59.25104,5.98583 59.30081,5.9624 59.36487,5.95459 Z m -1.53477,0.64955 v 0.14361 h 0.775 V 6.60414 Z M 57.77003,5.25225 h -0.37079 l -0.2572,0.60474 -0.2589,-0.60474 h -0.37006 v 1.13004 h 0.27537 V 5.55571 l 0.26035,0.60934 h 0.18479 l 0.26035,-0.60934 v 0.82658 h 0.27609 z M 56.18837,6.18104 H 55.93092 V 5.4506 l 0.26423,0.05449 V 5.30674 L 55.93262,5.25225 h -0.27707 v 0.92879 h -0.25744 v 0.20125 h 0.79026 z"
     id="path347"
     style="fill:#000000;fill-rule:evenodd" />
  <path
     d="m 69.46099,5.59228 v 0.3967 h -0.39501 v 0.17849 h 0.39501 v 0.39671 h 0.18019 V 6.16747 h 0.39501 V 5.98898 h -0.39501 v -0.3967 z m -1.28129,0.36255 -0.10057,0.04045 -0.07308,0.06224 -0.04468,0.08289 -0.0149,0.10287 0.03221,0.14791 0.09664,0.1076 0.15808,0.06557 0.21706,0.02185 L 68.53771,6.5827 68.62508,6.57217 68.71203,6.55461 68.798,6.53003 V 6.30528 L 68.71651,6.34118 68.63574,6.36704 68.55576,6.38266 68.47711,6.38786 68.37484,6.37787 68.29958,6.3479 68.25326,6.29898 68.23782,6.23262 68.25363,6.16475 68.30104,6.11564 68.37932,6.08586 68.48776,6.07593 h 0.11649 V 5.88823 H 68.48171 L 68.38586,5.87963 68.31823,5.85384 68.27791,5.81043 68.26446,5.74897 l 0.01308,-0.05758 0.03924,-0.04293 0.06291,-0.0267 0.08458,-0.0089 0.07066,0.004 0.0715,0.01199 0.07175,0.01955 0.07139,0.02719 V 5.46222 L 68.66371,5.44103 68.57858,5.42589 68.49454,5.41681 68.41196,5.41379 l -0.19242,0.0181 -0.13696,0.05431 -0.0821,0.09046 -0.02737,0.12702 0.01308,0.0901 0.03924,0.07217 0.0646,0.05383 z m -0.51468,0.31654 h -0.27246 v 0.29281 h 0.27246 z m -1.15263,-0.31654 -0.10057,0.04045 -0.07308,0.06224 -0.04468,0.08289 -0.0149,0.10287 0.03221,0.14791 0.09664,0.1076 0.15808,0.06557 0.21707,0.02185 L 66.8704,6.5827 66.95777,6.57217 67.04472,6.55461 67.13069,6.53003 V 6.30528 L 67.0492,6.34118 66.96843,6.36704 66.88845,6.38266 66.8098,6.38786 66.70753,6.37787 66.63227,6.3479 66.58595,6.29898 66.57051,6.23262 66.58632,6.16475 66.63373,6.11564 66.71201,6.08586 66.82045,6.07593 h 0.11649 V 5.88823 H 66.8144 L 66.71855,5.87963 66.65092,5.85384 66.6106,5.81043 66.59716,5.74897 l 0.01307,-0.05758 0.03924,-0.04293 0.06291,-0.0267 0.08458,-0.0089 0.07066,0.004 0.0715,0.01199 0.07175,0.01955 0.07139,0.02719 V 5.46222 L 66.9964,5.44103 66.91127,5.42589 66.82723,5.41681 66.74465,5.41379 l -0.19242,0.0181 -0.13696,0.05431 -0.0821,0.09046 -0.02737,0.12702 0.01308,0.0901 0.03924,0.07217 0.0646,0.05383 z M 66.14835,5.43413 H 65.8553 l -0.29958,0.83409 -0.2991,-0.83409 h -0.29281 l 0.4185,1.13005 h 0.34754 z"
     id="path349"
     style="fill:#000000;fill-rule:evenodd" />
</svg>
