%TF.GenerationSoftware,KiCad,Pcbnew,10.0.6-10.0.6~ubuntu24.04.1*%
%TF.CreationDate,2026-09-12T00:09:06-03:00*%
%TF.ProjectId,power_board,706f7765-725f-4626-9f61-72642e6b6963,V02*%
%TF.SameCoordinates,Original*%
%TF.FileFunction,Soldermask,Bot*%
%TF.FilePolarity,Negative*%
%FSLAX46Y46*%
G04 Gerber Fmt 4.6, Leading zero omitted, Abs format (unit mm)*
G04 Created by KiCad (PCBNEW 10.0.6-10.0.6~ubuntu24.04.1) date 2026-09-12 00:09:06*
%MOMM*%
%LPD*%
G01*
G04 APERTURE LIST*
G04 Aperture macros list*
%AMRoundRect*
0 Rectangle with rounded corners*
0 $1 Rounding radius*
0 $2 $3 $4 $5 $6 $7 $8 $9 X,Y pos of 4 corners*
0 Add a 4 corners polygon primitive as box body*
4,1,4,$2,$3,$4,$5,$6,$7,$8,$9,$2,$3,0*
0 Add four circle primitives for the rounded corners*
1,1,$1+$1,$2,$3*
1,1,$1+$1,$4,$5*
1,1,$1+$1,$6,$7*
1,1,$1+$1,$8,$9*
0 Add four rect primitives between the rounded corners*
20,1,$1+$1,$2,$3,$4,$5,0*
20,1,$1+$1,$4,$5,$6,$7,0*
20,1,$1+$1,$6,$7,$8,$9,0*
20,1,$1+$1,$8,$9,$2,$3,0*%
%AMRotRect*
0 Rectangle, with rotation*
0 The origin of the aperture is its center*
0 $1 length*
0 $2 width*
0 $3 Rotation angle, in degrees counterclockwise*
0 Add horizontal line*
21,1,$1,$2,0,0,$3*%
G04 Aperture macros list end*
%ADD10C,1.600000*%
%ADD11C,2.000000*%
%ADD12C,3.200000*%
%ADD13RoundRect,0.250000X-0.550000X-0.550000X0.550000X-0.550000X0.550000X0.550000X-0.550000X0.550000X0*%
%ADD14C,1.400000*%
%ADD15R,3.000000X3.000000*%
%ADD16C,3.000000*%
%ADD17RotRect,3.000000X3.000000X276.800000*%
%ADD18RoundRect,0.250000X1.050000X1.050000X-1.050000X1.050000X-1.050000X-1.050000X1.050000X-1.050000X0*%
%ADD19C,2.600000*%
%ADD20RotRect,3.000000X3.000000X263.200000*%
%ADD21C,2.754000*%
%ADD22RoundRect,0.102000X-1.275000X1.275000X-1.275000X-1.275000X1.275000X-1.275000X1.275000X1.275000X0*%
%ADD23C,1.712000*%
%ADD24RoundRect,0.250000X0.725000X-0.600000X0.725000X0.600000X-0.725000X0.600000X-0.725000X-0.600000X0*%
%ADD25O,1.950000X1.700000*%
%ADD26RoundRect,0.250000X0.550000X0.550000X-0.550000X0.550000X-0.550000X-0.550000X0.550000X-0.550000X0*%
%ADD27RoundRect,0.249999X0.850001X0.850001X-0.850001X0.850001X-0.850001X-0.850001X0.850001X-0.850001X0*%
%ADD28C,2.200000*%
%ADD29R,1.905000X2.000000*%
%ADD30O,1.905000X2.000000*%
%ADD31RoundRect,0.250000X0.600000X0.600000X-0.600000X0.600000X-0.600000X-0.600000X0.600000X-0.600000X0*%
%ADD32C,1.700000*%
%ADD33O,3.800000X5.500000*%
%ADD34O,3.800000X5.300000*%
G04 APERTURE END LIST*
D10*
%TO.C,C10*%
X88500000Y-126500000D03*
X91000000Y-126500000D03*
%TD*%
D11*
%TO.C,TP10*%
X148730000Y-77470000D03*
%TD*%
%TO.C,TP12*%
X82650000Y-88480000D03*
%TD*%
%TO.C,TP9*%
X147460000Y-74295000D03*
%TD*%
D12*
%TO.C,H3*%
X93847149Y-76515383D03*
%TD*%
D13*
%TO.C,C9*%
X102000000Y-128250000D03*
D10*
X104500000Y-128250000D03*
%TD*%
D14*
%TO.C,J5*%
X131095891Y-97590000D03*
X131095891Y-110590000D03*
D15*
X121095891Y-100590000D03*
D16*
X121095891Y-104090000D03*
X121095891Y-107590000D03*
%TD*%
D14*
%TO.C,R6*%
X77110000Y-130980000D03*
X82190000Y-130980000D03*
%TD*%
D12*
%TO.C,H2*%
X93847143Y-131664619D03*
%TD*%
D11*
%TO.C,TP7*%
X68720000Y-43815000D03*
%TD*%
D10*
%TO.C,C5*%
X91800000Y-108800000D03*
X94300000Y-108800000D03*
%TD*%
D11*
%TO.C,TP13*%
X146190000Y-70485000D03*
%TD*%
D14*
%TO.C,J6*%
X61784403Y-52639858D03*
X63323655Y-65548409D03*
D17*
X52209960Y-56802794D03*
D16*
X52624374Y-60278173D03*
X53038788Y-63753553D03*
%TD*%
D18*
%TO.C,D6*%
X85020000Y-126730000D03*
D19*
X69780000Y-126730000D03*
%TD*%
D14*
%TO.C,J7*%
X63323654Y-142631590D03*
X61784402Y-155540142D03*
D20*
X53038787Y-144426447D03*
D16*
X52624373Y-147901826D03*
X52209959Y-151377206D03*
%TD*%
D12*
%TO.C,H1*%
X146985000Y-104090000D03*
%TD*%
D11*
%TO.C,TP2*%
X62370000Y-45085000D03*
%TD*%
%TO.C,TP6*%
X71895000Y-43180000D03*
%TD*%
D10*
%TO.C,C6*%
X91800000Y-88800000D03*
X94300000Y-88800000D03*
%TD*%
%TO.C,C3*%
X73650000Y-90480000D03*
X73650000Y-87980000D03*
%TD*%
D13*
%TO.C,C1*%
X102000000Y-108250000D03*
D10*
X104500000Y-108250000D03*
%TD*%
D21*
%TO.C,J3*%
X71400000Y-77480000D03*
D22*
X71400000Y-72480000D03*
D23*
X81400000Y-80480000D03*
X81400000Y-69480000D03*
%TD*%
D14*
%TO.C,R3*%
X69795000Y-90520000D03*
X69795000Y-85440000D03*
%TD*%
D11*
%TO.C,TP3*%
X59195000Y-45720000D03*
%TD*%
D14*
%TO.C,R2*%
X77415000Y-85440000D03*
X77415000Y-90520000D03*
%TD*%
D11*
%TO.C,TP5*%
X75070000Y-42545000D03*
%TD*%
D24*
%TO.C,J4*%
X96025000Y-118070000D03*
D25*
X96025000Y-115570000D03*
X96025000Y-113070000D03*
%TD*%
D11*
%TO.C,TP11*%
X150000000Y-80645000D03*
%TD*%
D13*
%TO.C,C2*%
X102000000Y-88250000D03*
D10*
X104500000Y-88250000D03*
%TD*%
D11*
%TO.C,TP8*%
X65545000Y-44450000D03*
%TD*%
D26*
%TO.C,C4*%
X81855113Y-145480000D03*
D10*
X79355113Y-145480000D03*
%TD*%
D27*
%TO.C,D1*%
X82730000Y-135480000D03*
D28*
X72570000Y-135480000D03*
%TD*%
D29*
%TO.C,Q1*%
X84190000Y-140930000D03*
D30*
X81650000Y-140930000D03*
X79110000Y-140930000D03*
%TD*%
D14*
%TO.C,R1*%
X73730000Y-132480000D03*
X68650000Y-132480000D03*
%TD*%
D31*
%TO.C,J1*%
X74650000Y-98240000D03*
D32*
X72110000Y-98240000D03*
X74650000Y-100780000D03*
X72110000Y-100780000D03*
X74650000Y-103320000D03*
X72110000Y-103320000D03*
X74650000Y-105860000D03*
X72110000Y-105860000D03*
X74650000Y-108400000D03*
X72110000Y-108400000D03*
X74650000Y-110940000D03*
X72110000Y-110940000D03*
X74650000Y-113480000D03*
X72110000Y-113480000D03*
X74650000Y-116020000D03*
X72110000Y-116020000D03*
%TD*%
D33*
%TO.C,F1*%
X122060000Y-121920000D03*
D34*
X122060000Y-129920000D03*
%TD*%
M02*
