%TF.GenerationSoftware,KiCad,Pcbnew,10.0.6-10.0.6~ubuntu24.04.1*%
%TF.CreationDate,2026-09-12T00:09:05-03:00*%
%TF.ProjectId,power_board,706f7765-725f-4626-9f61-72642e6b6963,V02*%
%TF.SameCoordinates,Original*%
%TF.FileFunction,Legend,Bot*%
%TF.FilePolarity,Positive*%
%FSLAX46Y46*%
G04 Gerber Fmt 4.6, Leading zero omitted, Abs format (unit mm)*
G04 Created by KiCad (PCBNEW 10.0.6-10.0.6~ubuntu24.04.1) date 2026-09-12 00:09:05*
%MOMM*%
%LPD*%
G01*
G04 APERTURE LIST*
%ADD10C,0.066702*%
%ADD11C,0.000000*%
%ADD12C,0.100000*%
%ADD13C,0.150000*%
%ADD14C,0.120000*%
G04 APERTURE END LIST*
D10*
X83684218Y-123448235D02*
X83684218Y-91431691D01*
X87241590Y-91431691D01*
X87241590Y-123448235D01*
X83684218Y-123448235D01*
D11*
G36*
X86231586Y-109514374D02*
G01*
X86101381Y-109514374D01*
X86101381Y-109393228D01*
X86231586Y-109393228D01*
X86231586Y-109514374D01*
G37*
G36*
X84820282Y-92566053D02*
G01*
X84449382Y-92699066D01*
X84820282Y-92832278D01*
X84820282Y-92962591D01*
X84317782Y-92776498D01*
X84317782Y-92621957D01*
X84820282Y-92435854D01*
X84820282Y-92566053D01*
G37*
G36*
X84820282Y-96568130D02*
G01*
X84449382Y-96701137D01*
X84820282Y-96834350D01*
X84820282Y-96964664D01*
X84317782Y-96778565D01*
X84317782Y-96624029D01*
X84820282Y-96437926D01*
X84820282Y-96568130D01*
G37*
G36*
X84820282Y-100570192D02*
G01*
X84449382Y-100703208D01*
X84820282Y-100836416D01*
X84820282Y-100966733D01*
X84317782Y-100780645D01*
X84317782Y-100626091D01*
X84820282Y-100439982D01*
X84820282Y-100570192D01*
G37*
G36*
X84829711Y-104812051D02*
G01*
X84458811Y-104945070D01*
X84829711Y-105078290D01*
X84829711Y-105208593D01*
X84327207Y-105022491D01*
X84327207Y-104867947D01*
X84829711Y-104681851D01*
X84829711Y-104812051D01*
G37*
G36*
X84829711Y-110123763D02*
G01*
X84458811Y-110256778D01*
X84829711Y-110389982D01*
X84829711Y-110520298D01*
X84327207Y-110334205D01*
X84327207Y-110179661D01*
X84829711Y-109993558D01*
X84829711Y-110123763D01*
G37*
G36*
X86598990Y-96568130D02*
G01*
X86228084Y-96701137D01*
X86598990Y-96834350D01*
X86598990Y-96964664D01*
X86096470Y-96778565D01*
X86096470Y-96624029D01*
X86598990Y-96437926D01*
X86598990Y-96568130D01*
G37*
G36*
X86598990Y-100570192D02*
G01*
X86228084Y-100703208D01*
X86598990Y-100836416D01*
X86598990Y-100966733D01*
X86096470Y-100780645D01*
X86096470Y-100626091D01*
X86598990Y-100439982D01*
X86598990Y-100570192D01*
G37*
G36*
X86598990Y-104572268D02*
G01*
X86228084Y-104705276D01*
X86598990Y-104838500D01*
X86598990Y-104968802D01*
X86096470Y-104782705D01*
X86096470Y-104628166D01*
X86598990Y-104442060D01*
X86598990Y-104572268D01*
G37*
G36*
X86598990Y-92566053D02*
G01*
X86228084Y-92699066D01*
X86598990Y-92832278D01*
X86598990Y-92962591D01*
X86096470Y-92776498D01*
X86096470Y-92621957D01*
X86598990Y-92435854D01*
X86598990Y-92566053D01*
G37*
G36*
X86603881Y-108443423D02*
G01*
X86232985Y-108576428D01*
X86603881Y-108709635D01*
X86603881Y-108839963D01*
X86101381Y-108653863D01*
X86101381Y-108499313D01*
X86603881Y-108313218D01*
X86603881Y-108443423D01*
G37*
G36*
X84825178Y-113343133D02*
G01*
X84480560Y-113343133D01*
X84825178Y-113525896D01*
X84825178Y-113670526D01*
X84322680Y-113670526D01*
X84322680Y-113547763D01*
X84667304Y-113547763D01*
X84322680Y-113364994D01*
X84322680Y-113220259D01*
X84825178Y-113220259D01*
X84825178Y-113343133D01*
G37*
G36*
X84825178Y-117345207D02*
G01*
X84480560Y-117345207D01*
X84825178Y-117527957D01*
X84825178Y-117672589D01*
X84322680Y-117672589D01*
X84322680Y-117549823D01*
X84667304Y-117549823D01*
X84322680Y-117367061D01*
X84322680Y-117222324D01*
X84825178Y-117222324D01*
X84825178Y-117345207D01*
G37*
G36*
X84825178Y-121347273D02*
G01*
X84480560Y-121347273D01*
X84825178Y-121530025D01*
X84825178Y-121674660D01*
X84322680Y-121674665D01*
X84322680Y-121551897D01*
X84667304Y-121551897D01*
X84322680Y-121369136D01*
X84322680Y-121224393D01*
X84825178Y-121224393D01*
X84825178Y-121347273D01*
G37*
G36*
X86603881Y-113343133D02*
G01*
X86259259Y-113343133D01*
X86603881Y-113525896D01*
X86603881Y-113670526D01*
X86101381Y-113670526D01*
X86101381Y-113547763D01*
X86446008Y-113547763D01*
X86101381Y-113364994D01*
X86101381Y-113220259D01*
X86603881Y-113220259D01*
X86603881Y-113343133D01*
G37*
G36*
X86603881Y-117345207D02*
G01*
X86259259Y-117345207D01*
X86603881Y-117527957D01*
X86603881Y-117672589D01*
X86101381Y-117672589D01*
X86101381Y-117549823D01*
X86446008Y-117549823D01*
X86101381Y-117367061D01*
X86101381Y-117222324D01*
X86603881Y-117222324D01*
X86603881Y-117345207D01*
G37*
G36*
X86603881Y-121347273D02*
G01*
X86259259Y-121347273D01*
X86603881Y-121530025D01*
X86603881Y-121674660D01*
X86101381Y-121674665D01*
X86101381Y-121551897D01*
X86446008Y-121551897D01*
X86101381Y-121369136D01*
X86101381Y-121224393D01*
X86603881Y-121224393D01*
X86603881Y-121347273D01*
G37*
G36*
X86185970Y-105613591D02*
G01*
X86598990Y-105613591D01*
X86598990Y-105736792D01*
X86574752Y-105853539D01*
X86486548Y-105853539D01*
X86510776Y-105736042D01*
X86185970Y-105736042D01*
X86185970Y-105850526D01*
X86096470Y-105850526D01*
X86096470Y-105499114D01*
X86185970Y-105499114D01*
X86185970Y-105613591D01*
G37*
G36*
X84573545Y-94173815D02*
G01*
X84749964Y-94173815D01*
X84749964Y-94253932D01*
X84573545Y-94253932D01*
X84573545Y-94429585D01*
X84494185Y-94429585D01*
X84494185Y-94253932D01*
X84317782Y-94253932D01*
X84317782Y-94173815D01*
X84494185Y-94173815D01*
X84494185Y-93998153D01*
X84573545Y-93998153D01*
X84573545Y-94173815D01*
G37*
G36*
X84573545Y-98175875D02*
G01*
X84749964Y-98175875D01*
X84749964Y-98256001D01*
X84573545Y-98256001D01*
X84573545Y-98431652D01*
X84494185Y-98431652D01*
X84494185Y-98256001D01*
X84317782Y-98256001D01*
X84317782Y-98175875D01*
X84494185Y-98175875D01*
X84494185Y-98000230D01*
X84573545Y-98000230D01*
X84573545Y-98175875D01*
G37*
G36*
X84573545Y-102177943D02*
G01*
X84749964Y-102177943D01*
X84749964Y-102258062D01*
X84573545Y-102258062D01*
X84573545Y-102433718D01*
X84494185Y-102433718D01*
X84494185Y-102258062D01*
X84317782Y-102258062D01*
X84317782Y-102177943D01*
X84494185Y-102177943D01*
X84494185Y-102002295D01*
X84573545Y-102002295D01*
X84573545Y-102177943D01*
G37*
G36*
X84582973Y-105940233D02*
G01*
X84759383Y-105940233D01*
X84759383Y-106020348D01*
X84582973Y-106020348D01*
X84582973Y-106196005D01*
X84503604Y-106196005D01*
X84503604Y-106020348D01*
X84327207Y-106020348D01*
X84327207Y-105940235D01*
X84503604Y-105940235D01*
X84503604Y-105764579D01*
X84582973Y-105764579D01*
X84582973Y-105940233D01*
G37*
G36*
X86352263Y-94173815D02*
G01*
X86528646Y-94173815D01*
X86528646Y-94253932D01*
X86352263Y-94253932D01*
X86352263Y-94429585D01*
X86272875Y-94429585D01*
X86272875Y-94253932D01*
X86096470Y-94253932D01*
X86096470Y-94173815D01*
X86272875Y-94173815D01*
X86272875Y-93998153D01*
X86352263Y-93998153D01*
X86352263Y-94173815D01*
G37*
G36*
X86352263Y-98175875D02*
G01*
X86528646Y-98175875D01*
X86528646Y-98256001D01*
X86352263Y-98256001D01*
X86352263Y-98431652D01*
X86272875Y-98431652D01*
X86272875Y-98256001D01*
X86096470Y-98256001D01*
X86096470Y-98175875D01*
X86272875Y-98175875D01*
X86272875Y-98000230D01*
X86352263Y-98000230D01*
X86352263Y-98175875D01*
G37*
G36*
X86352263Y-102177943D02*
G01*
X86528646Y-102177943D01*
X86528646Y-102258062D01*
X86352263Y-102258062D01*
X86352263Y-102433718D01*
X86272875Y-102433718D01*
X86272875Y-102258062D01*
X86096470Y-102258062D01*
X86096470Y-102177943D01*
X86272875Y-102177943D01*
X86272875Y-102002295D01*
X86352263Y-102002295D01*
X86352263Y-102177943D01*
G37*
G36*
X86352263Y-106180013D02*
G01*
X86528646Y-106180013D01*
X86528646Y-106260139D01*
X86352263Y-106260139D01*
X86352263Y-106435792D01*
X86272875Y-106435792D01*
X86272875Y-106260139D01*
X86096470Y-106260139D01*
X86096470Y-106180013D01*
X86272875Y-106180013D01*
X86272875Y-106004369D01*
X86352263Y-106004369D01*
X86352263Y-106180013D01*
G37*
G36*
X86357150Y-110312996D02*
G01*
X86533560Y-110312996D01*
X86533560Y-110393128D01*
X86357150Y-110393128D01*
X86357150Y-110568785D01*
X86277777Y-110568785D01*
X86277777Y-110393128D01*
X86101381Y-110393128D01*
X86101381Y-110312996D01*
X86277777Y-110312996D01*
X86277777Y-110137350D01*
X86357150Y-110137350D01*
X86357150Y-110312996D01*
G37*
G36*
X84503229Y-92997612D02*
G01*
X84503229Y-93069217D01*
X84820282Y-93069217D01*
X84820282Y-93213314D01*
X84520358Y-93414501D01*
X84409317Y-93414501D01*
X84409317Y-93333724D01*
X84503229Y-93333724D01*
X84713552Y-93191793D01*
X84503229Y-93191793D01*
X84503229Y-93333724D01*
X84409317Y-93333724D01*
X84409317Y-93191793D01*
X84317782Y-93191793D01*
X84317782Y-93069217D01*
X84409317Y-93069217D01*
X84409317Y-92997612D01*
X84503229Y-92997612D01*
G37*
G36*
X84503229Y-96999674D02*
G01*
X84503229Y-97071289D01*
X84820282Y-97071289D01*
X84820282Y-97215395D01*
X84520358Y-97416566D01*
X84409317Y-97416566D01*
X84409317Y-97335794D01*
X84503229Y-97335794D01*
X84713552Y-97193851D01*
X84503229Y-97193851D01*
X84503229Y-97335794D01*
X84409317Y-97335794D01*
X84409317Y-97193851D01*
X84317782Y-97193851D01*
X84317782Y-97071289D01*
X84409317Y-97071289D01*
X84409317Y-96999674D01*
X84503229Y-96999674D01*
G37*
G36*
X84503229Y-101001741D02*
G01*
X84503229Y-101073367D01*
X84820282Y-101073367D01*
X84820282Y-101217457D01*
X84520358Y-101418633D01*
X84409317Y-101418633D01*
X84409317Y-101337862D01*
X84503229Y-101337862D01*
X84713552Y-101195929D01*
X84503229Y-101195929D01*
X84503229Y-101337862D01*
X84409317Y-101337862D01*
X84409317Y-101195929D01*
X84317782Y-101195929D01*
X84317782Y-101073367D01*
X84409317Y-101073367D01*
X84409317Y-101001741D01*
X84503229Y-101001741D01*
G37*
G36*
X86281929Y-93069217D02*
G01*
X86598990Y-93069217D01*
X86598990Y-93213314D01*
X86299049Y-93414501D01*
X86188017Y-93414501D01*
X86188017Y-93333724D01*
X86281929Y-93333724D01*
X86492260Y-93191793D01*
X86281929Y-93191793D01*
X86281929Y-93333724D01*
X86188017Y-93333724D01*
X86188017Y-93191793D01*
X86096470Y-93191793D01*
X86096470Y-93069217D01*
X86188017Y-93069217D01*
X86188017Y-92997612D01*
X86281929Y-92997612D01*
X86281929Y-93069217D01*
G37*
G36*
X86281929Y-97071289D02*
G01*
X86598990Y-97071289D01*
X86598990Y-97215395D01*
X86299049Y-97416566D01*
X86188017Y-97416566D01*
X86188017Y-97335794D01*
X86281929Y-97335794D01*
X86492260Y-97193851D01*
X86281929Y-97193851D01*
X86281929Y-97335794D01*
X86188017Y-97335794D01*
X86188017Y-97193851D01*
X86096470Y-97193851D01*
X86096470Y-97071289D01*
X86188017Y-97071289D01*
X86188017Y-96999674D01*
X86281929Y-96999674D01*
X86281929Y-97071289D01*
G37*
G36*
X86281929Y-101073367D02*
G01*
X86598990Y-101073367D01*
X86598990Y-101217457D01*
X86299049Y-101418633D01*
X86188017Y-101418633D01*
X86188017Y-101337862D01*
X86281929Y-101337862D01*
X86492260Y-101195929D01*
X86281929Y-101195929D01*
X86281929Y-101337862D01*
X86188017Y-101337862D01*
X86188017Y-101195929D01*
X86096470Y-101195929D01*
X86096470Y-101073367D01*
X86188017Y-101073367D01*
X86188017Y-101001741D01*
X86281929Y-101001741D01*
X86281929Y-101073367D01*
G37*
G36*
X84624038Y-108370150D02*
G01*
X84673113Y-108395512D01*
X84703170Y-108437189D01*
X84713181Y-108494589D01*
X84709284Y-108530053D01*
X84697569Y-108562327D01*
X84677619Y-108592084D01*
X84648996Y-108620166D01*
X84704138Y-108620166D01*
X84704138Y-108740570D01*
X84327207Y-108740570D01*
X84327207Y-108620166D01*
X84512648Y-108620166D01*
X84558534Y-108614786D01*
X84593209Y-108598622D01*
X84615097Y-108573046D01*
X84622399Y-108539391D01*
X84620750Y-108524752D01*
X84615827Y-108511820D01*
X84607943Y-108500919D01*
X84597408Y-108492545D01*
X84586238Y-108487961D01*
X84570167Y-108484993D01*
X84544076Y-108483387D01*
X84502856Y-108482849D01*
X84364577Y-108482849D01*
X84327207Y-108482849D01*
X84327207Y-108361694D01*
X84556704Y-108361694D01*
X84624038Y-108370150D01*
G37*
G36*
X84412987Y-93726501D02*
G01*
X84507221Y-93619128D01*
X84560823Y-93562856D01*
X84602312Y-93529958D01*
X84639221Y-93514046D01*
X84678886Y-93508741D01*
X84742100Y-93521229D01*
X84789587Y-93558716D01*
X84819391Y-93618755D01*
X84829338Y-93698939D01*
X84827413Y-93740396D01*
X84821684Y-93782724D01*
X84812418Y-93825711D01*
X84799710Y-93869200D01*
X84689328Y-93869200D01*
X84711785Y-93829422D01*
X84727875Y-93792181D01*
X84737570Y-93757564D01*
X84740805Y-93725859D01*
X84735420Y-93690365D01*
X84719273Y-93662741D01*
X84694273Y-93644980D01*
X84662400Y-93639048D01*
X84639974Y-93641982D01*
X84618354Y-93650792D01*
X84596897Y-93665750D01*
X84574956Y-93687190D01*
X84412987Y-93870578D01*
X84317782Y-93870578D01*
X84317782Y-93505407D01*
X84412987Y-93505407D01*
X84412987Y-93726501D01*
G37*
G36*
X84412987Y-97728572D02*
G01*
X84507221Y-97621202D01*
X84560823Y-97564930D01*
X84602312Y-97532023D01*
X84639221Y-97516115D01*
X84678886Y-97510803D01*
X84742100Y-97523302D01*
X84789587Y-97560776D01*
X84819391Y-97620817D01*
X84829338Y-97700999D01*
X84827413Y-97742450D01*
X84821684Y-97784785D01*
X84812418Y-97827788D01*
X84799710Y-97871266D01*
X84689328Y-97871266D01*
X84711785Y-97831501D01*
X84727875Y-97794251D01*
X84737570Y-97759633D01*
X84740805Y-97727926D01*
X84735420Y-97692435D01*
X84719273Y-97664809D01*
X84694273Y-97647044D01*
X84662400Y-97641117D01*
X84639974Y-97644053D01*
X84618354Y-97652851D01*
X84596897Y-97667824D01*
X84574956Y-97689259D01*
X84412987Y-97872657D01*
X84317782Y-97872657D01*
X84317782Y-97507470D01*
X84412987Y-97507470D01*
X84412987Y-97728572D01*
G37*
G36*
X84412987Y-101730645D02*
G01*
X84507221Y-101623265D01*
X84560823Y-101566993D01*
X84602312Y-101534096D01*
X84639221Y-101518181D01*
X84678886Y-101512870D01*
X84742100Y-101525374D01*
X84789587Y-101562845D01*
X84819391Y-101622893D01*
X84829338Y-101703075D01*
X84827413Y-101744522D01*
X84821684Y-101786851D01*
X84812418Y-101829853D01*
X84799710Y-101873328D01*
X84689328Y-101873328D01*
X84711785Y-101833563D01*
X84727875Y-101796332D01*
X84737570Y-101761703D01*
X84740805Y-101729988D01*
X84735420Y-101694508D01*
X84719273Y-101666874D01*
X84694273Y-101649107D01*
X84662400Y-101643191D01*
X84639974Y-101646124D01*
X84618354Y-101654926D01*
X84596897Y-101669904D01*
X84574956Y-101691326D01*
X84412987Y-101874733D01*
X84317782Y-101874733D01*
X84317782Y-101509539D01*
X84412987Y-101509539D01*
X84412987Y-101730645D01*
G37*
G36*
X86191677Y-93726501D02*
G01*
X86285912Y-93619128D01*
X86339519Y-93562856D01*
X86381006Y-93529958D01*
X86417920Y-93514046D01*
X86457576Y-93508741D01*
X86520795Y-93521229D01*
X86568285Y-93558716D01*
X86598090Y-93618755D01*
X86608026Y-93698939D01*
X86606114Y-93740396D01*
X86600384Y-93782724D01*
X86591122Y-93825711D01*
X86578404Y-93869200D01*
X86468022Y-93869200D01*
X86490478Y-93829422D01*
X86506577Y-93792181D01*
X86516271Y-93757564D01*
X86519501Y-93725859D01*
X86514108Y-93690365D01*
X86497966Y-93662741D01*
X86472974Y-93644980D01*
X86441098Y-93639048D01*
X86418670Y-93641982D01*
X86397061Y-93650792D01*
X86375593Y-93665750D01*
X86353660Y-93687190D01*
X86191677Y-93870578D01*
X86096470Y-93870578D01*
X86096470Y-93505407D01*
X86191677Y-93505407D01*
X86191677Y-93726501D01*
G37*
G36*
X86191677Y-97728572D02*
G01*
X86285912Y-97621202D01*
X86339519Y-97564930D01*
X86381006Y-97532023D01*
X86417920Y-97516115D01*
X86457576Y-97510803D01*
X86520795Y-97523302D01*
X86568285Y-97560776D01*
X86598090Y-97620817D01*
X86608026Y-97700999D01*
X86606114Y-97742450D01*
X86600384Y-97784785D01*
X86591122Y-97827788D01*
X86578404Y-97871266D01*
X86468022Y-97871266D01*
X86490478Y-97831501D01*
X86506577Y-97794251D01*
X86516271Y-97759633D01*
X86519501Y-97727926D01*
X86514108Y-97692435D01*
X86497966Y-97664809D01*
X86472974Y-97647044D01*
X86441098Y-97641117D01*
X86418670Y-97644053D01*
X86397061Y-97652851D01*
X86375593Y-97667824D01*
X86353660Y-97689259D01*
X86191677Y-97872657D01*
X86096470Y-97872657D01*
X86096470Y-97507470D01*
X86191677Y-97507470D01*
X86191677Y-97728572D01*
G37*
G36*
X86191677Y-101730645D02*
G01*
X86285912Y-101623265D01*
X86339519Y-101566993D01*
X86381006Y-101534096D01*
X86417920Y-101518181D01*
X86457576Y-101512870D01*
X86520795Y-101525374D01*
X86568285Y-101562845D01*
X86598090Y-101622893D01*
X86608026Y-101703075D01*
X86606114Y-101744522D01*
X86600384Y-101786851D01*
X86591122Y-101829853D01*
X86578404Y-101873328D01*
X86468022Y-101873328D01*
X86490478Y-101833563D01*
X86506577Y-101796332D01*
X86516271Y-101761703D01*
X86519501Y-101729988D01*
X86514108Y-101694508D01*
X86497966Y-101666874D01*
X86472974Y-101649107D01*
X86441098Y-101643191D01*
X86418670Y-101646124D01*
X86397061Y-101654926D01*
X86375593Y-101669904D01*
X86353660Y-101691326D01*
X86191677Y-101874733D01*
X86096470Y-101874733D01*
X86096470Y-101509539D01*
X86191677Y-101509539D01*
X86191677Y-101730645D01*
G37*
G36*
X86191677Y-105253128D02*
G01*
X86285912Y-105145758D01*
X86339519Y-105089489D01*
X86381006Y-105056584D01*
X86417920Y-105040679D01*
X86457576Y-105035363D01*
X86520795Y-105047867D01*
X86568285Y-105085349D01*
X86598090Y-105145385D01*
X86608026Y-105225563D01*
X86606114Y-105267027D01*
X86600384Y-105309340D01*
X86591122Y-105352342D01*
X86578404Y-105395820D01*
X86468022Y-105395820D01*
X86490478Y-105356053D01*
X86506577Y-105318822D01*
X86516271Y-105284205D01*
X86519501Y-105252486D01*
X86514108Y-105216997D01*
X86497966Y-105189374D01*
X86472974Y-105171613D01*
X86441098Y-105165674D01*
X86418670Y-105168619D01*
X86397061Y-105177422D01*
X86375593Y-105192382D01*
X86353660Y-105213827D01*
X86191677Y-105397224D01*
X86096470Y-105397224D01*
X86096470Y-105032034D01*
X86191677Y-105032034D01*
X86191677Y-105253128D01*
G37*
G36*
X84627645Y-112625210D02*
G01*
X84674951Y-112638141D01*
X84716810Y-112659816D01*
X84753460Y-112690585D01*
X84786845Y-112734646D01*
X84808807Y-112786653D01*
X84821089Y-112857275D01*
X84825178Y-112957126D01*
X84825178Y-113093688D01*
X84322680Y-113093688D01*
X84322680Y-112957126D01*
X84324296Y-112917721D01*
X84420572Y-112917721D01*
X84420572Y-112964130D01*
X84727179Y-112964130D01*
X84727179Y-112917721D01*
X84717407Y-112847445D01*
X84688085Y-112796229D01*
X84640194Y-112764886D01*
X84574468Y-112754441D01*
X84508313Y-112764939D01*
X84459986Y-112796448D01*
X84430418Y-112847714D01*
X84420572Y-112917721D01*
X84324296Y-112917721D01*
X84326738Y-112858190D01*
X84338945Y-112787505D01*
X84360989Y-112735010D01*
X84394409Y-112690585D01*
X84430989Y-112659816D01*
X84472910Y-112638141D01*
X84520594Y-112625210D01*
X84574468Y-112620895D01*
X84627645Y-112625210D01*
G37*
G36*
X84627645Y-116627281D02*
G01*
X84674951Y-116640212D01*
X84716810Y-116661881D01*
X84753460Y-116692651D01*
X84786845Y-116736704D01*
X84808807Y-116788713D01*
X84821089Y-116859346D01*
X84825178Y-116959197D01*
X84825178Y-117095753D01*
X84322680Y-117095753D01*
X84322680Y-116959197D01*
X84324297Y-116919780D01*
X84420572Y-116919780D01*
X84420572Y-116966199D01*
X84727179Y-116966199D01*
X84727179Y-116919780D01*
X84717407Y-116849509D01*
X84688085Y-116798303D01*
X84640194Y-116766963D01*
X84574468Y-116756518D01*
X84508313Y-116767016D01*
X84459986Y-116798515D01*
X84430418Y-116849775D01*
X84420572Y-116919780D01*
X84324297Y-116919780D01*
X84326738Y-116860250D01*
X84338945Y-116789572D01*
X84360989Y-116737078D01*
X84394409Y-116692651D01*
X84430989Y-116661881D01*
X84472910Y-116640212D01*
X84520594Y-116627281D01*
X84574468Y-116622964D01*
X84627645Y-116627281D01*
G37*
G36*
X84627645Y-120629352D02*
G01*
X84674951Y-120642273D01*
X84716810Y-120663957D01*
X84753460Y-120694716D01*
X84786845Y-120738770D01*
X84808807Y-120790780D01*
X84821089Y-120861402D01*
X84825178Y-120961266D01*
X84825178Y-121097830D01*
X84322680Y-121097830D01*
X84322680Y-120961266D01*
X84324296Y-120921850D01*
X84420572Y-120921850D01*
X84420572Y-120968258D01*
X84727179Y-120968258D01*
X84727179Y-120921850D01*
X84717407Y-120851573D01*
X84688085Y-120800377D01*
X84640194Y-120769029D01*
X84574468Y-120758595D01*
X84508313Y-120769091D01*
X84459986Y-120800595D01*
X84430418Y-120851846D01*
X84420572Y-120921850D01*
X84324296Y-120921850D01*
X84326738Y-120862311D01*
X84338945Y-120791653D01*
X84360989Y-120739143D01*
X84394409Y-120694716D01*
X84430989Y-120663957D01*
X84472910Y-120642273D01*
X84520594Y-120629352D01*
X84574468Y-120625052D01*
X84627645Y-120629352D01*
G37*
G36*
X86406347Y-112625210D02*
G01*
X86453644Y-112638141D01*
X86495516Y-112659816D01*
X86532152Y-112690585D01*
X86565550Y-112734646D01*
X86587506Y-112786653D01*
X86599791Y-112857275D01*
X86603881Y-112957126D01*
X86603881Y-113093688D01*
X86101381Y-113093688D01*
X86101381Y-112957126D01*
X86103000Y-112917721D01*
X86199270Y-112917721D01*
X86199270Y-112964130D01*
X86505878Y-112964130D01*
X86505878Y-112917721D01*
X86496097Y-112847445D01*
X86466784Y-112796229D01*
X86418889Y-112764886D01*
X86353171Y-112754441D01*
X86287004Y-112764939D01*
X86238683Y-112796448D01*
X86209133Y-112847714D01*
X86199270Y-112917721D01*
X86103000Y-112917721D01*
X86105447Y-112858190D01*
X86117638Y-112787505D01*
X86139692Y-112735010D01*
X86173101Y-112690585D01*
X86209692Y-112659816D01*
X86251610Y-112638141D01*
X86299286Y-112625210D01*
X86353171Y-112620895D01*
X86406347Y-112625210D01*
G37*
G36*
X86406347Y-116627281D02*
G01*
X86453644Y-116640212D01*
X86495516Y-116661881D01*
X86532152Y-116692651D01*
X86565550Y-116736704D01*
X86587506Y-116788713D01*
X86599791Y-116859346D01*
X86603881Y-116959197D01*
X86603881Y-117095753D01*
X86101381Y-117095753D01*
X86101381Y-116959197D01*
X86103001Y-116919780D01*
X86199270Y-116919780D01*
X86199270Y-116966199D01*
X86505878Y-116966199D01*
X86505878Y-116919780D01*
X86496097Y-116849509D01*
X86466784Y-116798303D01*
X86418889Y-116766963D01*
X86353171Y-116756518D01*
X86287004Y-116767016D01*
X86238683Y-116798515D01*
X86209133Y-116849775D01*
X86199270Y-116919780D01*
X86103001Y-116919780D01*
X86105447Y-116860250D01*
X86117638Y-116789572D01*
X86139692Y-116737078D01*
X86173101Y-116692651D01*
X86209692Y-116661881D01*
X86251610Y-116640212D01*
X86299286Y-116627281D01*
X86353171Y-116622964D01*
X86406347Y-116627281D01*
G37*
G36*
X86406347Y-120629352D02*
G01*
X86453644Y-120642273D01*
X86495516Y-120663957D01*
X86532152Y-120694716D01*
X86565550Y-120738770D01*
X86587506Y-120790780D01*
X86599791Y-120861402D01*
X86603881Y-120961266D01*
X86603881Y-121097830D01*
X86101381Y-121097830D01*
X86101381Y-120961266D01*
X86103001Y-120921850D01*
X86199270Y-120921850D01*
X86199270Y-120968258D01*
X86505878Y-120968258D01*
X86505878Y-120921850D01*
X86496097Y-120851573D01*
X86466784Y-120800377D01*
X86418889Y-120769029D01*
X86353171Y-120758595D01*
X86287004Y-120769091D01*
X86238683Y-120800595D01*
X86209133Y-120851846D01*
X86199270Y-120921850D01*
X86103001Y-120921850D01*
X86105447Y-120862311D01*
X86117638Y-120791653D01*
X86139692Y-120739143D01*
X86173101Y-120694716D01*
X86209692Y-120663957D01*
X86251610Y-120642273D01*
X86299286Y-120629352D01*
X86353171Y-120625052D01*
X86406347Y-120629352D01*
G37*
G36*
X84598088Y-108841786D02*
G01*
X84660634Y-108882815D01*
X84700043Y-108948157D01*
X84713181Y-109034776D01*
X84700043Y-109121706D01*
X84660634Y-109187377D01*
X84598088Y-109228652D01*
X84515351Y-109242418D01*
X84432496Y-109228652D01*
X84369854Y-109187377D01*
X84330516Y-109121706D01*
X84317402Y-109034776D01*
X84403565Y-109034776D01*
X84410749Y-109070073D01*
X84432318Y-109095834D01*
X84467507Y-109111592D01*
X84515351Y-109116829D01*
X84563158Y-109111592D01*
X84598267Y-109095834D01*
X84619834Y-109070073D01*
X84627031Y-109034776D01*
X84619834Y-109000018D01*
X84598267Y-108974578D01*
X84563158Y-108958907D01*
X84515351Y-108953680D01*
X84467507Y-108958907D01*
X84432318Y-108974578D01*
X84410749Y-109000018D01*
X84403565Y-109034776D01*
X84317402Y-109034776D01*
X84330516Y-108948157D01*
X84369854Y-108882815D01*
X84432496Y-108841786D01*
X84515351Y-108828114D01*
X84598088Y-108841786D01*
G37*
G36*
X84564154Y-105272865D02*
G01*
X84619169Y-105311238D01*
X84653654Y-105372570D01*
X84665152Y-105454256D01*
X84664587Y-105470115D01*
X84662881Y-105485373D01*
X84660243Y-105500292D01*
X84656640Y-105515104D01*
X84734394Y-105515104D01*
X84734394Y-105296370D01*
X84829711Y-105296370D01*
X84829711Y-105618487D01*
X84547005Y-105618487D01*
X84560119Y-105583297D01*
X84569309Y-105550528D01*
X84574795Y-105519788D01*
X84576621Y-105490874D01*
X84570890Y-105448812D01*
X84553685Y-105416776D01*
X84526630Y-105396417D01*
X84491121Y-105389641D01*
X84455790Y-105396417D01*
X84428653Y-105416776D01*
X84411367Y-105448812D01*
X84405603Y-105490874D01*
X84408545Y-105524628D01*
X84417348Y-105560440D01*
X84432126Y-105598317D01*
X84452776Y-105638293D01*
X84350793Y-105638293D01*
X84336116Y-105596811D01*
X84325694Y-105555045D01*
X84319477Y-105512949D01*
X84317402Y-105470408D01*
X84328930Y-105382264D01*
X84363492Y-105315753D01*
X84418501Y-105273989D01*
X84491121Y-105260085D01*
X84564154Y-105272865D01*
G37*
G36*
X84601722Y-113986624D02*
G01*
X84514804Y-113986624D01*
X84514804Y-113907469D01*
X84417241Y-113907469D01*
X84412548Y-113922134D01*
X84409270Y-113938582D01*
X84407412Y-113956660D01*
X84406787Y-113976173D01*
X84417642Y-114042002D01*
X84450192Y-114090871D01*
X84502744Y-114121149D01*
X84573391Y-114131255D01*
X84644517Y-114120783D01*
X84697041Y-114089361D01*
X84729499Y-114038604D01*
X84740322Y-113970143D01*
X84737363Y-113928421D01*
X84728481Y-113886789D01*
X84713722Y-113845112D01*
X84692923Y-113803217D01*
X84796855Y-113803217D01*
X84813094Y-113845245D01*
X84824749Y-113889908D01*
X84831863Y-113936848D01*
X84834226Y-113985866D01*
X84816815Y-114102033D01*
X84764552Y-114190601D01*
X84681918Y-114246576D01*
X84573391Y-114265221D01*
X84465780Y-114246901D01*
X84383084Y-114191898D01*
X84330428Y-114105490D01*
X84312884Y-113992979D01*
X84315810Y-113938266D01*
X84324614Y-113885286D01*
X84339394Y-113834080D01*
X84360047Y-113784689D01*
X84601722Y-113784689D01*
X84601722Y-113986624D01*
G37*
G36*
X84601722Y-117988698D02*
G01*
X84514804Y-117988698D01*
X84514804Y-117909525D01*
X84417241Y-117909525D01*
X84412548Y-117924218D01*
X84409270Y-117940662D01*
X84407412Y-117958712D01*
X84406787Y-117978249D01*
X84417642Y-118044080D01*
X84450192Y-118092941D01*
X84502744Y-118123227D01*
X84573391Y-118133327D01*
X84644517Y-118122850D01*
X84697041Y-118091440D01*
X84729499Y-118040685D01*
X84740322Y-117972212D01*
X84737363Y-117930484D01*
X84728481Y-117888860D01*
X84713722Y-117847176D01*
X84692923Y-117805293D01*
X84796855Y-117805293D01*
X84813094Y-117847310D01*
X84824749Y-117891988D01*
X84831863Y-117938906D01*
X84834226Y-117987926D01*
X84816815Y-118104113D01*
X84764552Y-118192652D01*
X84681918Y-118248644D01*
X84573391Y-118267289D01*
X84465780Y-118248960D01*
X84383084Y-118193959D01*
X84330428Y-118107554D01*
X84312884Y-117995039D01*
X84315810Y-117940335D01*
X84324614Y-117887349D01*
X84339394Y-117836143D01*
X84360047Y-117786762D01*
X84601722Y-117786762D01*
X84601722Y-117988698D01*
G37*
G36*
X84601722Y-121990753D02*
G01*
X84514804Y-121990753D01*
X84514804Y-121911597D01*
X84417241Y-121911597D01*
X84412548Y-121926279D01*
X84409270Y-121942728D01*
X84407412Y-121960786D01*
X84406787Y-121980312D01*
X84417642Y-122046127D01*
X84450192Y-122095002D01*
X84502744Y-122125294D01*
X84573391Y-122135387D01*
X84644517Y-122124916D01*
X84697041Y-122093496D01*
X84729499Y-122042740D01*
X84740322Y-121974266D01*
X84737363Y-121932553D01*
X84728481Y-121890924D01*
X84713722Y-121849246D01*
X84692923Y-121807355D01*
X84796855Y-121807355D01*
X84813094Y-121849379D01*
X84824749Y-121894049D01*
X84831863Y-121940972D01*
X84834226Y-121990006D01*
X84816815Y-122106187D01*
X84764552Y-122194728D01*
X84681918Y-122250714D01*
X84573391Y-122269363D01*
X84465780Y-122251022D01*
X84383084Y-122196020D01*
X84330428Y-122109630D01*
X84312884Y-121997116D01*
X84315810Y-121942403D01*
X84324614Y-121889417D01*
X84339394Y-121838209D01*
X84360047Y-121788826D01*
X84601722Y-121788826D01*
X84601722Y-121990753D01*
G37*
G36*
X86380413Y-113986624D02*
G01*
X86293502Y-113986624D01*
X86293502Y-113907469D01*
X86195932Y-113907469D01*
X86191255Y-113922134D01*
X86187960Y-113938582D01*
X86186108Y-113956660D01*
X86185486Y-113976173D01*
X86196337Y-114042002D01*
X86228890Y-114090871D01*
X86281448Y-114121149D01*
X86352096Y-114131255D01*
X86423215Y-114120783D01*
X86475731Y-114089361D01*
X86508189Y-114038604D01*
X86519021Y-113970143D01*
X86516057Y-113928421D01*
X86507173Y-113886789D01*
X86492414Y-113845112D01*
X86471634Y-113803217D01*
X86575554Y-113803217D01*
X86591798Y-113845245D01*
X86603445Y-113889908D01*
X86610557Y-113936848D01*
X86612924Y-113985866D01*
X86595511Y-114102033D01*
X86543252Y-114190601D01*
X86460625Y-114246576D01*
X86352096Y-114265221D01*
X86244480Y-114246901D01*
X86161793Y-114191898D01*
X86109123Y-114105490D01*
X86091582Y-113992979D01*
X86094514Y-113938266D01*
X86103318Y-113885286D01*
X86118084Y-113834080D01*
X86138758Y-113784689D01*
X86380413Y-113784689D01*
X86380413Y-113986624D01*
G37*
G36*
X86380413Y-117988698D02*
G01*
X86293502Y-117988698D01*
X86293502Y-117909525D01*
X86195932Y-117909525D01*
X86191255Y-117924218D01*
X86187960Y-117940662D01*
X86186108Y-117958712D01*
X86185486Y-117978249D01*
X86196337Y-118044080D01*
X86228890Y-118092941D01*
X86281448Y-118123227D01*
X86352096Y-118133327D01*
X86423215Y-118122850D01*
X86475731Y-118091440D01*
X86508189Y-118040685D01*
X86519021Y-117972212D01*
X86516057Y-117930484D01*
X86507173Y-117888860D01*
X86492414Y-117847176D01*
X86471634Y-117805293D01*
X86575554Y-117805293D01*
X86591798Y-117847310D01*
X86603445Y-117891988D01*
X86610557Y-117938906D01*
X86612924Y-117987926D01*
X86595511Y-118104113D01*
X86543252Y-118192652D01*
X86460625Y-118248644D01*
X86352096Y-118267289D01*
X86244480Y-118248960D01*
X86161793Y-118193959D01*
X86109123Y-118107554D01*
X86091582Y-117995039D01*
X86094514Y-117940335D01*
X86103318Y-117887349D01*
X86118084Y-117836143D01*
X86138758Y-117786762D01*
X86380413Y-117786762D01*
X86380413Y-117988698D01*
G37*
G36*
X86380413Y-121990753D02*
G01*
X86293502Y-121990753D01*
X86293502Y-121911597D01*
X86195932Y-121911597D01*
X86191255Y-121926279D01*
X86187960Y-121942728D01*
X86186108Y-121960786D01*
X86185486Y-121980312D01*
X86196337Y-122046127D01*
X86228890Y-122095002D01*
X86281448Y-122125294D01*
X86352096Y-122135387D01*
X86423215Y-122124916D01*
X86475731Y-122093496D01*
X86508189Y-122042740D01*
X86519021Y-121974266D01*
X86516057Y-121932553D01*
X86507173Y-121890924D01*
X86492414Y-121849246D01*
X86471634Y-121807355D01*
X86575554Y-121807355D01*
X86591798Y-121849379D01*
X86603445Y-121894049D01*
X86610557Y-121940972D01*
X86612924Y-121990006D01*
X86595511Y-122106187D01*
X86543252Y-122194728D01*
X86460625Y-122250714D01*
X86352096Y-122269363D01*
X86244480Y-122251022D01*
X86161793Y-122196020D01*
X86109123Y-122109630D01*
X86091582Y-121997116D01*
X86094514Y-121942403D01*
X86103318Y-121889417D01*
X86118084Y-121838209D01*
X86138758Y-121788826D01*
X86380413Y-121788826D01*
X86380413Y-121990753D01*
G37*
G36*
X84624038Y-109335004D02*
G01*
X84673113Y-109360524D01*
X84703170Y-109402285D01*
X84713181Y-109459490D01*
X84708604Y-109495629D01*
X84694868Y-109528633D01*
X84672394Y-109557955D01*
X84641561Y-109583011D01*
X84671716Y-109602083D01*
X84694329Y-109628471D01*
X84708467Y-109660677D01*
X84713181Y-109697386D01*
X84709143Y-109730590D01*
X84697041Y-109760829D01*
X84676940Y-109787969D01*
X84648996Y-109811865D01*
X84704138Y-109811865D01*
X84704138Y-109933022D01*
X84327207Y-109933022D01*
X84327207Y-109811865D01*
X84512648Y-109811865D01*
X84559415Y-109807153D01*
X84593961Y-109793022D01*
X84615291Y-109770219D01*
X84622399Y-109739497D01*
X84617872Y-109716122D01*
X84604301Y-109701151D01*
X84575165Y-109693071D01*
X84523754Y-109690408D01*
X84327207Y-109690408D01*
X84327207Y-109569246D01*
X84512341Y-109569246D01*
X84559531Y-109564029D01*
X84594069Y-109549869D01*
X84615311Y-109527250D01*
X84622399Y-109496873D01*
X84617872Y-109474239D01*
X84604301Y-109458864D01*
X84580797Y-109449985D01*
X84546261Y-109447010D01*
X84538522Y-109447057D01*
X84532793Y-109447224D01*
X84528213Y-109447382D01*
X84523754Y-109447652D01*
X84327207Y-109447652D01*
X84327207Y-109326488D01*
X84556704Y-109326488D01*
X84624038Y-109335004D01*
G37*
G36*
X86289818Y-108904749D02*
G01*
X86326679Y-108924615D01*
X86354346Y-108957119D01*
X86372340Y-109001833D01*
X86387918Y-108961960D01*
X86411854Y-108933233D01*
X86443952Y-108915783D01*
X86484021Y-108909965D01*
X86540512Y-108922143D01*
X86580729Y-108958647D01*
X86604876Y-109019549D01*
X86612924Y-109105110D01*
X86611586Y-109141839D01*
X86607546Y-109179200D01*
X86600817Y-109217053D01*
X86591392Y-109255237D01*
X86496512Y-109255237D01*
X86508592Y-109223494D01*
X86517288Y-109191594D01*
X86522626Y-109159796D01*
X86524405Y-109128376D01*
X86520445Y-109090770D01*
X86508567Y-109062798D01*
X86489480Y-109045338D01*
X86463875Y-109039524D01*
X86436550Y-109045509D01*
X86417253Y-109063440D01*
X86405782Y-109093516D01*
X86401958Y-109136133D01*
X86401958Y-109190622D01*
X86318484Y-109190622D01*
X86318484Y-109138824D01*
X86314075Y-109090603D01*
X86300824Y-109055786D01*
X86278999Y-109034711D01*
X86248817Y-109027679D01*
X86219301Y-109034548D01*
X86197546Y-109055140D01*
X86184225Y-109088613D01*
X86179780Y-109134080D01*
X86182092Y-109169055D01*
X86189043Y-109204617D01*
X86200535Y-109240540D01*
X86216503Y-109276773D01*
X86116557Y-109276773D01*
X86105635Y-109238543D01*
X86097824Y-109199875D01*
X86093145Y-109161041D01*
X86091582Y-109122236D01*
X86101291Y-109025720D01*
X86130451Y-108955415D01*
X86178301Y-108912439D01*
X86244081Y-108898117D01*
X86289818Y-108904749D01*
G37*
G36*
X86289818Y-109646151D02*
G01*
X86326679Y-109666029D01*
X86354346Y-109698524D01*
X86372340Y-109743242D01*
X86387918Y-109703370D01*
X86411854Y-109674639D01*
X86443952Y-109657201D01*
X86484021Y-109651377D01*
X86540512Y-109663555D01*
X86580729Y-109700054D01*
X86604876Y-109760958D01*
X86612924Y-109846532D01*
X86611586Y-109883243D01*
X86607546Y-109920617D01*
X86600817Y-109958475D01*
X86591392Y-109996650D01*
X86496512Y-109996650D01*
X86508592Y-109964900D01*
X86517288Y-109932990D01*
X86522626Y-109901209D01*
X86524405Y-109869779D01*
X86520445Y-109832170D01*
X86508567Y-109804207D01*
X86489480Y-109786751D01*
X86463875Y-109780928D01*
X86436550Y-109786909D01*
X86417253Y-109804847D01*
X86405782Y-109834925D01*
X86401958Y-109877544D01*
X86401958Y-109932025D01*
X86318484Y-109932025D01*
X86318484Y-109880235D01*
X86314075Y-109832018D01*
X86300824Y-109797198D01*
X86278999Y-109776121D01*
X86248817Y-109769081D01*
X86219301Y-109775955D01*
X86197546Y-109796555D01*
X86184225Y-109830013D01*
X86179780Y-109875495D01*
X86182092Y-109910459D01*
X86189043Y-109946038D01*
X86200535Y-109981953D01*
X86216503Y-110018187D01*
X86116557Y-110018187D01*
X86105635Y-109979943D01*
X86097824Y-109941289D01*
X86093145Y-109902444D01*
X86091582Y-109863650D01*
X86101291Y-109767126D01*
X86130451Y-109696830D01*
X86178301Y-109653864D01*
X86244081Y-109639537D01*
X86289818Y-109646151D01*
G37*
D12*
X79330000Y-98240000D02*
X81420000Y-98240000D01*
X81420000Y-90805000D02*
X86500000Y-90805000D01*
X81420000Y-98240000D02*
X81420000Y-90805000D01*
D10*
X85462904Y-91431691D02*
X85462904Y-123448235D01*
D12*
X86500000Y-90805000D02*
X86500000Y-91440000D01*
D10*
X87241590Y-95433762D02*
X83684218Y-95433762D01*
X87241590Y-99435819D02*
X83684218Y-99435819D01*
X87241590Y-103437889D02*
X83684218Y-103437889D01*
X87241590Y-107439964D02*
X83684218Y-107439964D01*
X87241590Y-111442037D02*
X83684218Y-111442037D01*
X87241590Y-115444107D02*
X83684218Y-115444107D01*
X87241590Y-119446164D02*
X83684218Y-119446164D01*
D12*
X59049837Y-48276390D02*
X59192694Y-48228771D01*
X59192694Y-48228771D02*
X59240313Y-48181152D01*
X59240313Y-48181152D02*
X59287932Y-48085914D01*
X59287932Y-48085914D02*
X59287932Y-47943057D01*
X59287932Y-47943057D02*
X59240313Y-47847819D01*
X59240313Y-47847819D02*
X59192694Y-47800200D01*
X59192694Y-47800200D02*
X59097456Y-47752580D01*
X59097456Y-47752580D02*
X58716504Y-47752580D01*
X58716504Y-47752580D02*
X58716504Y-48752580D01*
X58716504Y-48752580D02*
X59049837Y-48752580D01*
X59049837Y-48752580D02*
X59145075Y-48704961D01*
X59145075Y-48704961D02*
X59192694Y-48657342D01*
X59192694Y-48657342D02*
X59240313Y-48562104D01*
X59240313Y-48562104D02*
X59240313Y-48466866D01*
X59240313Y-48466866D02*
X59192694Y-48371628D01*
X59192694Y-48371628D02*
X59145075Y-48324009D01*
X59145075Y-48324009D02*
X59049837Y-48276390D01*
X59049837Y-48276390D02*
X58716504Y-48276390D01*
X60240313Y-47752580D02*
X59668885Y-47752580D01*
X59954599Y-47752580D02*
X59954599Y-48752580D01*
X59954599Y-48752580D02*
X59859361Y-48609723D01*
X59859361Y-48609723D02*
X59764123Y-48514485D01*
X59764123Y-48514485D02*
X59668885Y-48466866D01*
X62224837Y-47641390D02*
X62367694Y-47593771D01*
X62367694Y-47593771D02*
X62415313Y-47546152D01*
X62415313Y-47546152D02*
X62462932Y-47450914D01*
X62462932Y-47450914D02*
X62462932Y-47308057D01*
X62462932Y-47308057D02*
X62415313Y-47212819D01*
X62415313Y-47212819D02*
X62367694Y-47165200D01*
X62367694Y-47165200D02*
X62272456Y-47117580D01*
X62272456Y-47117580D02*
X61891504Y-47117580D01*
X61891504Y-47117580D02*
X61891504Y-48117580D01*
X61891504Y-48117580D02*
X62224837Y-48117580D01*
X62224837Y-48117580D02*
X62320075Y-48069961D01*
X62320075Y-48069961D02*
X62367694Y-48022342D01*
X62367694Y-48022342D02*
X62415313Y-47927104D01*
X62415313Y-47927104D02*
X62415313Y-47831866D01*
X62415313Y-47831866D02*
X62367694Y-47736628D01*
X62367694Y-47736628D02*
X62320075Y-47689009D01*
X62320075Y-47689009D02*
X62224837Y-47641390D01*
X62224837Y-47641390D02*
X61891504Y-47641390D01*
X62843885Y-48022342D02*
X62891504Y-48069961D01*
X62891504Y-48069961D02*
X62986742Y-48117580D01*
X62986742Y-48117580D02*
X63224837Y-48117580D01*
X63224837Y-48117580D02*
X63320075Y-48069961D01*
X63320075Y-48069961D02*
X63367694Y-48022342D01*
X63367694Y-48022342D02*
X63415313Y-47927104D01*
X63415313Y-47927104D02*
X63415313Y-47831866D01*
X63415313Y-47831866D02*
X63367694Y-47689009D01*
X63367694Y-47689009D02*
X62796266Y-47117580D01*
X62796266Y-47117580D02*
X63415313Y-47117580D01*
X65399837Y-47006390D02*
X65542694Y-46958771D01*
X65542694Y-46958771D02*
X65590313Y-46911152D01*
X65590313Y-46911152D02*
X65637932Y-46815914D01*
X65637932Y-46815914D02*
X65637932Y-46673057D01*
X65637932Y-46673057D02*
X65590313Y-46577819D01*
X65590313Y-46577819D02*
X65542694Y-46530200D01*
X65542694Y-46530200D02*
X65447456Y-46482580D01*
X65447456Y-46482580D02*
X65066504Y-46482580D01*
X65066504Y-46482580D02*
X65066504Y-47482580D01*
X65066504Y-47482580D02*
X65399837Y-47482580D01*
X65399837Y-47482580D02*
X65495075Y-47434961D01*
X65495075Y-47434961D02*
X65542694Y-47387342D01*
X65542694Y-47387342D02*
X65590313Y-47292104D01*
X65590313Y-47292104D02*
X65590313Y-47196866D01*
X65590313Y-47196866D02*
X65542694Y-47101628D01*
X65542694Y-47101628D02*
X65495075Y-47054009D01*
X65495075Y-47054009D02*
X65399837Y-47006390D01*
X65399837Y-47006390D02*
X65066504Y-47006390D01*
X65971266Y-47482580D02*
X66590313Y-47482580D01*
X66590313Y-47482580D02*
X66256980Y-47101628D01*
X66256980Y-47101628D02*
X66399837Y-47101628D01*
X66399837Y-47101628D02*
X66495075Y-47054009D01*
X66495075Y-47054009D02*
X66542694Y-47006390D01*
X66542694Y-47006390D02*
X66590313Y-46911152D01*
X66590313Y-46911152D02*
X66590313Y-46673057D01*
X66590313Y-46673057D02*
X66542694Y-46577819D01*
X66542694Y-46577819D02*
X66495075Y-46530200D01*
X66495075Y-46530200D02*
X66399837Y-46482580D01*
X66399837Y-46482580D02*
X66114123Y-46482580D01*
X66114123Y-46482580D02*
X66018885Y-46530200D01*
X66018885Y-46530200D02*
X65971266Y-46577819D01*
X68574837Y-46371390D02*
X68717694Y-46323771D01*
X68717694Y-46323771D02*
X68765313Y-46276152D01*
X68765313Y-46276152D02*
X68812932Y-46180914D01*
X68812932Y-46180914D02*
X68812932Y-46038057D01*
X68812932Y-46038057D02*
X68765313Y-45942819D01*
X68765313Y-45942819D02*
X68717694Y-45895200D01*
X68717694Y-45895200D02*
X68622456Y-45847580D01*
X68622456Y-45847580D02*
X68241504Y-45847580D01*
X68241504Y-45847580D02*
X68241504Y-46847580D01*
X68241504Y-46847580D02*
X68574837Y-46847580D01*
X68574837Y-46847580D02*
X68670075Y-46799961D01*
X68670075Y-46799961D02*
X68717694Y-46752342D01*
X68717694Y-46752342D02*
X68765313Y-46657104D01*
X68765313Y-46657104D02*
X68765313Y-46561866D01*
X68765313Y-46561866D02*
X68717694Y-46466628D01*
X68717694Y-46466628D02*
X68670075Y-46419009D01*
X68670075Y-46419009D02*
X68574837Y-46371390D01*
X68574837Y-46371390D02*
X68241504Y-46371390D01*
X69670075Y-46514247D02*
X69670075Y-45847580D01*
X69431980Y-46895200D02*
X69193885Y-46180914D01*
X69193885Y-46180914D02*
X69812932Y-46180914D01*
X71897217Y-45736390D02*
X72040074Y-45688771D01*
X72040074Y-45688771D02*
X72087693Y-45641152D01*
X72087693Y-45641152D02*
X72135312Y-45545914D01*
X72135312Y-45545914D02*
X72135312Y-45403057D01*
X72135312Y-45403057D02*
X72087693Y-45307819D01*
X72087693Y-45307819D02*
X72040074Y-45260200D01*
X72040074Y-45260200D02*
X71944836Y-45212580D01*
X71944836Y-45212580D02*
X71563884Y-45212580D01*
X71563884Y-45212580D02*
X71563884Y-46212580D01*
X71563884Y-46212580D02*
X71897217Y-46212580D01*
X71897217Y-46212580D02*
X71992455Y-46164961D01*
X71992455Y-46164961D02*
X72040074Y-46117342D01*
X72040074Y-46117342D02*
X72087693Y-46022104D01*
X72087693Y-46022104D02*
X72087693Y-45926866D01*
X72087693Y-45926866D02*
X72040074Y-45831628D01*
X72040074Y-45831628D02*
X71992455Y-45784009D01*
X71992455Y-45784009D02*
X71897217Y-45736390D01*
X71897217Y-45736390D02*
X71563884Y-45736390D01*
X73040074Y-46212580D02*
X72563884Y-46212580D01*
X72563884Y-46212580D02*
X72516265Y-45736390D01*
X72516265Y-45736390D02*
X72563884Y-45784009D01*
X72563884Y-45784009D02*
X72659122Y-45831628D01*
X72659122Y-45831628D02*
X72897217Y-45831628D01*
X72897217Y-45831628D02*
X72992455Y-45784009D01*
X72992455Y-45784009D02*
X73040074Y-45736390D01*
X73040074Y-45736390D02*
X73087693Y-45641152D01*
X73087693Y-45641152D02*
X73087693Y-45403057D01*
X73087693Y-45403057D02*
X73040074Y-45307819D01*
X73040074Y-45307819D02*
X72992455Y-45260200D01*
X72992455Y-45260200D02*
X72897217Y-45212580D01*
X72897217Y-45212580D02*
X72659122Y-45212580D01*
X72659122Y-45212580D02*
X72563884Y-45260200D01*
X72563884Y-45260200D02*
X72516265Y-45307819D01*
X74924837Y-45101390D02*
X75067694Y-45053771D01*
X75067694Y-45053771D02*
X75115313Y-45006152D01*
X75115313Y-45006152D02*
X75162932Y-44910914D01*
X75162932Y-44910914D02*
X75162932Y-44768057D01*
X75162932Y-44768057D02*
X75115313Y-44672819D01*
X75115313Y-44672819D02*
X75067694Y-44625200D01*
X75067694Y-44625200D02*
X74972456Y-44577580D01*
X74972456Y-44577580D02*
X74591504Y-44577580D01*
X74591504Y-44577580D02*
X74591504Y-45577580D01*
X74591504Y-45577580D02*
X74924837Y-45577580D01*
X74924837Y-45577580D02*
X75020075Y-45529961D01*
X75020075Y-45529961D02*
X75067694Y-45482342D01*
X75067694Y-45482342D02*
X75115313Y-45387104D01*
X75115313Y-45387104D02*
X75115313Y-45291866D01*
X75115313Y-45291866D02*
X75067694Y-45196628D01*
X75067694Y-45196628D02*
X75020075Y-45149009D01*
X75020075Y-45149009D02*
X74924837Y-45101390D01*
X74924837Y-45101390D02*
X74591504Y-45101390D01*
X76020075Y-45577580D02*
X75829599Y-45577580D01*
X75829599Y-45577580D02*
X75734361Y-45529961D01*
X75734361Y-45529961D02*
X75686742Y-45482342D01*
X75686742Y-45482342D02*
X75591504Y-45339485D01*
X75591504Y-45339485D02*
X75543885Y-45149009D01*
X75543885Y-45149009D02*
X75543885Y-44768057D01*
X75543885Y-44768057D02*
X75591504Y-44672819D01*
X75591504Y-44672819D02*
X75639123Y-44625200D01*
X75639123Y-44625200D02*
X75734361Y-44577580D01*
X75734361Y-44577580D02*
X75924837Y-44577580D01*
X75924837Y-44577580D02*
X76020075Y-44625200D01*
X76020075Y-44625200D02*
X76067694Y-44672819D01*
X76067694Y-44672819D02*
X76115313Y-44768057D01*
X76115313Y-44768057D02*
X76115313Y-45006152D01*
X76115313Y-45006152D02*
X76067694Y-45101390D01*
X76067694Y-45101390D02*
X76020075Y-45149009D01*
X76020075Y-45149009D02*
X75924837Y-45196628D01*
X75924837Y-45196628D02*
X75734361Y-45196628D01*
X75734361Y-45196628D02*
X75639123Y-45149009D01*
X75639123Y-45149009D02*
X75591504Y-45101390D01*
X75591504Y-45101390D02*
X75543885Y-45006152D01*
D13*
X76316666Y-145839580D02*
X76364285Y-145887200D01*
X76364285Y-145887200D02*
X76507142Y-145934819D01*
X76507142Y-145934819D02*
X76602380Y-145934819D01*
X76602380Y-145934819D02*
X76745237Y-145887200D01*
X76745237Y-145887200D02*
X76840475Y-145791961D01*
X76840475Y-145791961D02*
X76888094Y-145696723D01*
X76888094Y-145696723D02*
X76935713Y-145506247D01*
X76935713Y-145506247D02*
X76935713Y-145363390D01*
X76935713Y-145363390D02*
X76888094Y-145172914D01*
X76888094Y-145172914D02*
X76840475Y-145077676D01*
X76840475Y-145077676D02*
X76745237Y-144982438D01*
X76745237Y-144982438D02*
X76602380Y-144934819D01*
X76602380Y-144934819D02*
X76507142Y-144934819D01*
X76507142Y-144934819D02*
X76364285Y-144982438D01*
X76364285Y-144982438D02*
X76316666Y-145030057D01*
X75459523Y-145268152D02*
X75459523Y-145934819D01*
X75697618Y-144887200D02*
X75935713Y-145601485D01*
X75935713Y-145601485D02*
X75316666Y-145601485D01*
X78388094Y-133464819D02*
X78388094Y-132464819D01*
X78388094Y-132464819D02*
X78149999Y-132464819D01*
X78149999Y-132464819D02*
X78007142Y-132512438D01*
X78007142Y-132512438D02*
X77911904Y-132607676D01*
X77911904Y-132607676D02*
X77864285Y-132702914D01*
X77864285Y-132702914D02*
X77816666Y-132893390D01*
X77816666Y-132893390D02*
X77816666Y-133036247D01*
X77816666Y-133036247D02*
X77864285Y-133226723D01*
X77864285Y-133226723D02*
X77911904Y-133321961D01*
X77911904Y-133321961D02*
X78007142Y-133417200D01*
X78007142Y-133417200D02*
X78149999Y-133464819D01*
X78149999Y-133464819D02*
X78388094Y-133464819D01*
X76864285Y-133464819D02*
X77435713Y-133464819D01*
X77149999Y-133464819D02*
X77149999Y-132464819D01*
X77149999Y-132464819D02*
X77245237Y-132607676D01*
X77245237Y-132607676D02*
X77340475Y-132702914D01*
X77340475Y-132702914D02*
X77435713Y-132750533D01*
X82991904Y-133834819D02*
X82991904Y-132834819D01*
X82420476Y-133834819D02*
X82849047Y-133263390D01*
X82420476Y-132834819D02*
X82991904Y-133406247D01*
X88245238Y-141530057D02*
X88340476Y-141482438D01*
X88340476Y-141482438D02*
X88435714Y-141387200D01*
X88435714Y-141387200D02*
X88578571Y-141244342D01*
X88578571Y-141244342D02*
X88673809Y-141196723D01*
X88673809Y-141196723D02*
X88769047Y-141196723D01*
X88721428Y-141434819D02*
X88816666Y-141387200D01*
X88816666Y-141387200D02*
X88911904Y-141291961D01*
X88911904Y-141291961D02*
X88959523Y-141101485D01*
X88959523Y-141101485D02*
X88959523Y-140768152D01*
X88959523Y-140768152D02*
X88911904Y-140577676D01*
X88911904Y-140577676D02*
X88816666Y-140482438D01*
X88816666Y-140482438D02*
X88721428Y-140434819D01*
X88721428Y-140434819D02*
X88530952Y-140434819D01*
X88530952Y-140434819D02*
X88435714Y-140482438D01*
X88435714Y-140482438D02*
X88340476Y-140577676D01*
X88340476Y-140577676D02*
X88292857Y-140768152D01*
X88292857Y-140768152D02*
X88292857Y-141101485D01*
X88292857Y-141101485D02*
X88340476Y-141291961D01*
X88340476Y-141291961D02*
X88435714Y-141387200D01*
X88435714Y-141387200D02*
X88530952Y-141434819D01*
X88530952Y-141434819D02*
X88721428Y-141434819D01*
X87340476Y-141434819D02*
X87911904Y-141434819D01*
X87626190Y-141434819D02*
X87626190Y-140434819D01*
X87626190Y-140434819D02*
X87721428Y-140577676D01*
X87721428Y-140577676D02*
X87816666Y-140672914D01*
X87816666Y-140672914D02*
X87911904Y-140720533D01*
X71356666Y-131014819D02*
X71689999Y-130538628D01*
X71928094Y-131014819D02*
X71928094Y-130014819D01*
X71928094Y-130014819D02*
X71547142Y-130014819D01*
X71547142Y-130014819D02*
X71451904Y-130062438D01*
X71451904Y-130062438D02*
X71404285Y-130110057D01*
X71404285Y-130110057D02*
X71356666Y-130205295D01*
X71356666Y-130205295D02*
X71356666Y-130348152D01*
X71356666Y-130348152D02*
X71404285Y-130443390D01*
X71404285Y-130443390D02*
X71451904Y-130491009D01*
X71451904Y-130491009D02*
X71547142Y-130538628D01*
X71547142Y-130538628D02*
X71928094Y-130538628D01*
X70404285Y-131014819D02*
X70975713Y-131014819D01*
X70689999Y-131014819D02*
X70689999Y-130014819D01*
X70689999Y-130014819D02*
X70785237Y-130157676D01*
X70785237Y-130157676D02*
X70880475Y-130252914D01*
X70880475Y-130252914D02*
X70975713Y-130300533D01*
X73713333Y-91594819D02*
X73713333Y-92309104D01*
X73713333Y-92309104D02*
X73760952Y-92451961D01*
X73760952Y-92451961D02*
X73856190Y-92547200D01*
X73856190Y-92547200D02*
X73999047Y-92594819D01*
X73999047Y-92594819D02*
X74094285Y-92594819D01*
X72713333Y-92594819D02*
X73284761Y-92594819D01*
X72999047Y-92594819D02*
X72999047Y-91594819D01*
X72999047Y-91594819D02*
X73094285Y-91737676D01*
X73094285Y-91737676D02*
X73189523Y-91832914D01*
X73189523Y-91832914D02*
X73284761Y-91880533D01*
X119141009Y-125536666D02*
X119141009Y-125203333D01*
X119664819Y-125203333D02*
X118664819Y-125203333D01*
X118664819Y-125203333D02*
X118664819Y-125679523D01*
X119664819Y-126584285D02*
X119664819Y-126012857D01*
X119664819Y-126298571D02*
X118664819Y-126298571D01*
X118664819Y-126298571D02*
X118807676Y-126203333D01*
X118807676Y-126203333D02*
X118902914Y-126108095D01*
X118902914Y-126108095D02*
X118950533Y-126012857D01*
%TO.C,C4*%
D14*
X78005113Y-145197000D02*
X78005113Y-145763000D01*
X78045113Y-144963000D02*
X78045113Y-145997000D01*
X78085113Y-144803000D02*
X78085113Y-146157000D01*
X78125113Y-144675000D02*
X78125113Y-146285000D01*
X78165113Y-144566000D02*
X78165113Y-146394000D01*
X78205113Y-144469000D02*
X78205113Y-146491000D01*
X78245113Y-144382000D02*
X78245113Y-146578000D01*
X78285113Y-144303000D02*
X78285113Y-146657000D01*
X78325113Y-144229000D02*
X78325113Y-144440000D01*
X78325113Y-146520000D02*
X78325113Y-146731000D01*
X78365113Y-144161000D02*
X78365113Y-144440000D01*
X78365113Y-146520000D02*
X78365113Y-146799000D01*
X78405113Y-144097000D02*
X78405113Y-144440000D01*
X78405113Y-146520000D02*
X78405113Y-146863000D01*
X78445113Y-144037000D02*
X78445113Y-144440000D01*
X78445113Y-146520000D02*
X78445113Y-146923000D01*
X78485113Y-143981000D02*
X78485113Y-144440000D01*
X78485113Y-146520000D02*
X78485113Y-146979000D01*
X78525113Y-143927000D02*
X78525113Y-144440000D01*
X78525113Y-146520000D02*
X78525113Y-147033000D01*
X78565113Y-143876000D02*
X78565113Y-144440000D01*
X78565113Y-146520000D02*
X78565113Y-147084000D01*
X78605113Y-143828000D02*
X78605113Y-144440000D01*
X78605113Y-146520000D02*
X78605113Y-147132000D01*
X78645113Y-143781000D02*
X78645113Y-144440000D01*
X78645113Y-146520000D02*
X78645113Y-147179000D01*
X78685113Y-143737000D02*
X78685113Y-144440000D01*
X78685113Y-146520000D02*
X78685113Y-147223000D01*
X78725113Y-143695000D02*
X78725113Y-144440000D01*
X78725113Y-146520000D02*
X78725113Y-147265000D01*
X78765113Y-143655000D02*
X78765113Y-144440000D01*
X78765113Y-146520000D02*
X78765113Y-147305000D01*
X78805113Y-143616000D02*
X78805113Y-144440000D01*
X78805113Y-146520000D02*
X78805113Y-147344000D01*
X78845113Y-143579000D02*
X78845113Y-144440000D01*
X78845113Y-146520000D02*
X78845113Y-147381000D01*
X78885113Y-143544000D02*
X78885113Y-144440000D01*
X78885113Y-146520000D02*
X78885113Y-147416000D01*
X78925113Y-143510000D02*
X78925113Y-144440000D01*
X78925113Y-146520000D02*
X78925113Y-147450000D01*
X78965113Y-143477000D02*
X78965113Y-144440000D01*
X78965113Y-146520000D02*
X78965113Y-147483000D01*
X79005113Y-143445000D02*
X79005113Y-144440000D01*
X79005113Y-146520000D02*
X79005113Y-147515000D01*
X79045113Y-143415000D02*
X79045113Y-144440000D01*
X79045113Y-146520000D02*
X79045113Y-147545000D01*
X79085113Y-143386000D02*
X79085113Y-144440000D01*
X79085113Y-146520000D02*
X79085113Y-147574000D01*
X79125113Y-143358000D02*
X79125113Y-144440000D01*
X79125113Y-146520000D02*
X79125113Y-147602000D01*
X79165113Y-143331000D02*
X79165113Y-144440000D01*
X79165113Y-146520000D02*
X79165113Y-147629000D01*
X79205113Y-143305000D02*
X79205113Y-144440000D01*
X79205113Y-146520000D02*
X79205113Y-147655000D01*
X79245113Y-143281000D02*
X79245113Y-144440000D01*
X79245113Y-146520000D02*
X79245113Y-147679000D01*
X79285113Y-143257000D02*
X79285113Y-144440000D01*
X79285113Y-146520000D02*
X79285113Y-147703000D01*
X79325113Y-143234000D02*
X79325113Y-144440000D01*
X79325113Y-146520000D02*
X79325113Y-147726000D01*
X79365113Y-143212000D02*
X79365113Y-144440000D01*
X79365113Y-146520000D02*
X79365113Y-147748000D01*
X79405113Y-143191000D02*
X79405113Y-144440000D01*
X79405113Y-146520000D02*
X79405113Y-147769000D01*
X79445113Y-143171000D02*
X79445113Y-144440000D01*
X79445113Y-146520000D02*
X79445113Y-147789000D01*
X79485113Y-143151000D02*
X79485113Y-144440000D01*
X79485113Y-146520000D02*
X79485113Y-147809000D01*
X79525113Y-143133000D02*
X79525113Y-144440000D01*
X79525113Y-146520000D02*
X79525113Y-147827000D01*
X79565113Y-143115000D02*
X79565113Y-144440000D01*
X79565113Y-146520000D02*
X79565113Y-147845000D01*
X79605113Y-143098000D02*
X79605113Y-144440000D01*
X79605113Y-146520000D02*
X79605113Y-147862000D01*
X79645113Y-143082000D02*
X79645113Y-144440000D01*
X79645113Y-146520000D02*
X79645113Y-147878000D01*
X79685113Y-143067000D02*
X79685113Y-144440000D01*
X79685113Y-146520000D02*
X79685113Y-147893000D01*
X79725113Y-143052000D02*
X79725113Y-144440000D01*
X79725113Y-146520000D02*
X79725113Y-147908000D01*
X79765113Y-143038000D02*
X79765113Y-144440000D01*
X79765113Y-146520000D02*
X79765113Y-147922000D01*
X79805113Y-143025000D02*
X79805113Y-144440000D01*
X79805113Y-146520000D02*
X79805113Y-147935000D01*
X79845113Y-143013000D02*
X79845113Y-144440000D01*
X79845113Y-146520000D02*
X79845113Y-147947000D01*
X79885113Y-143001000D02*
X79885113Y-144440000D01*
X79885113Y-146520000D02*
X79885113Y-147959000D01*
X79925113Y-142990000D02*
X79925113Y-144440000D01*
X79925113Y-146520000D02*
X79925113Y-147970000D01*
X79965113Y-142979000D02*
X79965113Y-144440000D01*
X79965113Y-146520000D02*
X79965113Y-147981000D01*
X80005113Y-142970000D02*
X80005113Y-144440000D01*
X80005113Y-146520000D02*
X80005113Y-147990000D01*
X80045113Y-142961000D02*
X80045113Y-144440000D01*
X80045113Y-146520000D02*
X80045113Y-147999000D01*
X80085113Y-142952000D02*
X80085113Y-144440000D01*
X80085113Y-146520000D02*
X80085113Y-148008000D01*
X80125113Y-142944000D02*
X80125113Y-144440000D01*
X80125113Y-146520000D02*
X80125113Y-148016000D01*
X80165113Y-142937000D02*
X80165113Y-144440000D01*
X80165113Y-146520000D02*
X80165113Y-148023000D01*
X80205113Y-142931000D02*
X80205113Y-144440000D01*
X80205113Y-146520000D02*
X80205113Y-148029000D01*
X80245113Y-142925000D02*
X80245113Y-144440000D01*
X80245113Y-146520000D02*
X80245113Y-148035000D01*
X80285113Y-142920000D02*
X80285113Y-144440000D01*
X80285113Y-146520000D02*
X80285113Y-148040000D01*
X80325113Y-142915000D02*
X80325113Y-144440000D01*
X80325113Y-146520000D02*
X80325113Y-148045000D01*
X80365113Y-142911000D02*
X80365113Y-144440000D01*
X80365113Y-146520000D02*
X80365113Y-148049000D01*
X80405113Y-142908000D02*
X80405113Y-148052000D01*
X80445113Y-142905000D02*
X80445113Y-148055000D01*
X80485113Y-142903000D02*
X80485113Y-148057000D01*
X80525113Y-142901000D02*
X80525113Y-148059000D01*
X80565113Y-142900000D02*
X80565113Y-148060000D01*
X80605113Y-142900000D02*
X80605113Y-148060000D01*
X83159888Y-143755000D02*
X83159888Y-144255000D01*
X83409888Y-144005000D02*
X82909888Y-144005000D01*
X83225113Y-145480000D02*
G75*
G02*
X77985113Y-145480000I-2620000J0D01*
G01*
X77985113Y-145480000D02*
G75*
G02*
X83225113Y-145480000I2620000J0D01*
G01*
%TO.C,D1*%
X73910000Y-135480000D02*
X74930000Y-135480000D01*
X79350000Y-134010000D02*
X79350000Y-136950000D01*
X79470000Y-134010000D02*
X79470000Y-136950000D01*
X79590000Y-134010000D02*
X79590000Y-136950000D01*
X81390000Y-135480000D02*
X80370000Y-135480000D01*
X74930000Y-134010000D02*
X80370000Y-134010000D01*
X80370000Y-136950000D01*
X74930000Y-136950000D01*
X74930000Y-134010000D01*
%TO.C,Q1*%
X76540000Y-137670000D02*
X76540000Y-142290000D01*
X76540000Y-142290000D02*
X86760000Y-142290000D01*
X79800000Y-137670000D02*
X79800000Y-139050000D01*
X83500000Y-137670000D02*
X83500000Y-139050000D01*
X86760000Y-137670000D02*
X76540000Y-137670000D01*
X86760000Y-139050000D02*
X76540000Y-139050000D01*
X86760000Y-142290000D02*
X86760000Y-137670000D01*
%TO.C,R1*%
X73110000Y-131560000D02*
X69270000Y-131560000D01*
X73110000Y-133400000D02*
X69270000Y-133400000D01*
%TO.C,J1*%
X68820000Y-93030000D02*
X68820000Y-121230000D01*
X68820000Y-121230000D02*
X77940000Y-121230000D01*
X70130000Y-94330000D02*
X70130000Y-119930000D01*
X70130000Y-119930000D02*
X76630000Y-119930000D01*
X76630000Y-94330000D02*
X70130000Y-94330000D01*
X76630000Y-105080000D02*
X76630000Y-94330000D01*
X76630000Y-109180000D02*
X77940000Y-109180000D01*
X76630000Y-119930000D02*
X76630000Y-109180000D01*
X77940000Y-93030000D02*
X68820000Y-93030000D01*
X77940000Y-105080000D02*
X76630000Y-105080000D01*
X77940000Y-121230000D02*
X77940000Y-93030000D01*
X78330000Y-98240000D02*
X79330000Y-97740000D01*
X79330000Y-97740000D02*
X79330000Y-98740000D01*
X79330000Y-98740000D02*
X78330000Y-98240000D01*
%TO.C,F1*%
X120060000Y-124320000D02*
X120060000Y-127520000D01*
X122060000Y-125170000D02*
X122060000Y-126770000D01*
X124060000Y-127520000D02*
X124060000Y-124320000D01*
%TD*%
M02*
