M48
; DRILL file KiCad 10.0.6-10.0.6~ubuntu24.04.1 date 2026-09-12T00:09:50
; FORMAT={-:-/ absolute / metric / decimal}
; #@! TF.CreationDate,2026-09-12T00:09:50-03:00
; #@! TF.GenerationSoftware,Kicad,Pcbnew,10.0.6-10.0.6~ubuntu24.04.1
; #@! TF.FileFunction,Plated,1,2,PTH
FMAT,2
METRIC
; #@! TA.AperFunction,Plated,PTH,ViaDrill
T1C0.300
; #@! TA.AperFunction,Plated,PTH,ComponentDrill
T2C0.300
; #@! TA.AperFunction,Plated,PTH,ViaDrill
T3C0.400
; #@! TA.AperFunction,Plated,PTH,ViaDrill
T4C0.500
; #@! TA.AperFunction,Plated,PTH,ComponentDrill
T5C0.700
; #@! TA.AperFunction,Plated,PTH,ComponentDrill
T6C0.800
; #@! TA.AperFunction,Plated,PTH,ComponentDrill
T7C0.950
; #@! TA.AperFunction,Plated,PTH,ComponentDrill
T8C1.000
; #@! TA.AperFunction,Plated,PTH,ComponentDrill
T9C1.100
; #@! TA.AperFunction,Plated,PTH,ComponentDrill
T10C1.300
; #@! TA.AperFunction,Plated,PTH,ComponentDrill
T11C1.700
; #@! TA.AperFunction,Plated,PTH,ComponentDrill
T12C1.900
; #@! TA.AperFunction,Plated,PTH,ComponentDrill
T13C2.000
%
G90
G05
T1
X53.48Y-131.445
X53.48Y-133.985
X56.02Y-131.445
X56.02Y-133.985
X58.56Y-131.445
X58.56Y-133.985
X59.93Y-73.581
X60.465Y-131.445
X60.465Y-133.985
X62.37Y-131.445
X62.37Y-133.985
X62.93Y-73.581
X64.275Y-127.0
X65.93Y-73.581
X65.93Y-94.581
X65.93Y-106.581
X65.93Y-109.581
X65.93Y-112.581
X65.93Y-115.581
X65.93Y-118.581
X65.93Y-121.581
X65.93Y-124.581
X68.93Y-112.581
X68.93Y-115.581
X68.93Y-118.581
X68.93Y-121.581
X68.93Y-124.581
X68.93Y-127.581
X71.351Y-102.516
X71.4Y-115.05
X71.705Y-99.37
X71.93Y-88.581
X71.93Y-118.581
X71.93Y-121.581
X71.93Y-124.581
X71.93Y-127.581
X71.93Y-130.581
X72.68Y-112.581
X73.705Y-98.87
X73.705Y-101.37
X73.705Y-102.87
X74.93Y-85.581
X74.93Y-114.831
X74.93Y-118.581
X74.93Y-121.581
X74.93Y-124.581
X74.93Y-127.581
X74.93Y-130.581
X75.705Y-98.87
X75.705Y-100.87
X75.705Y-102.87
X77.705Y-98.87
X77.705Y-100.87
X77.705Y-102.87
X77.93Y-88.581
X77.93Y-133.581
X79.705Y-98.87
X80.93Y-82.581
X80.93Y-85.581
X80.93Y-139.581
X83.93Y-79.581
X83.93Y-82.581
X83.93Y-85.581
X86.35Y-99.85
X86.35Y-115.95
X86.93Y-106.581
X87.5Y-108.2
X88.115Y-88.254
X88.8Y-122.85
X90.945Y-105.41
X92.954Y-87.198
X93.485Y-106.045
X95.93Y-79.581
X95.93Y-102.831
X95.93Y-121.581
X95.93Y-125.331
X96.461Y-119.111
X96.66Y-97.79
X96.66Y-127.635
X98.458Y-80.956
X98.565Y-67.945
X98.93Y-91.581
X98.93Y-112.581
X98.93Y-115.581
X98.93Y-118.581
X99.193Y-110.33
X101.105Y-67.945
X101.105Y-95.25
X101.93Y-85.581
X101.93Y-91.581
X101.93Y-112.581
X101.93Y-115.581
X103.645Y-67.945
X104.28Y-112.395
X104.93Y-106.581
X104.93Y-124.581
X106.185Y-67.945
X106.185Y-72.39
X107.93Y-100.581
X107.93Y-103.581
X107.93Y-106.581
X107.93Y-112.581
X107.93Y-115.581
X107.93Y-118.581
X107.93Y-121.581
X107.93Y-124.581
X109.265Y-68.58
X110.93Y-94.581
X110.93Y-100.581
X110.93Y-103.581
X110.93Y-106.581
X110.93Y-112.581
X110.93Y-115.581
X110.93Y-118.581
X110.93Y-121.581
X110.93Y-124.581
X111.265Y-68.58
X113.17Y-72.25
X113.265Y-68.58
X113.805Y-109.22
X113.93Y-58.581
X113.93Y-61.581
X113.93Y-97.581
X113.93Y-115.581
X115.265Y-68.58
X116.93Y-52.581
X116.93Y-55.581
X116.93Y-58.581
X116.93Y-61.581
X116.93Y-148.581
X116.93Y-151.581
X116.93Y-154.581
X117.265Y-68.58
X117.265Y-70.58
X117.265Y-72.58
X119.265Y-68.58
X119.265Y-70.58
X119.93Y-46.581
X119.93Y-49.581
X119.93Y-52.581
X119.93Y-55.581
X119.93Y-58.581
X119.93Y-61.581
X119.93Y-148.581
X119.93Y-151.581
X119.93Y-154.581
X119.93Y-157.581
X119.93Y-160.581
X122.93Y-46.581
X122.93Y-49.581
X122.93Y-52.581
X122.93Y-55.581
X122.93Y-58.581
X122.93Y-61.581
X122.93Y-67.581
X122.93Y-145.581
X122.93Y-148.581
X122.93Y-151.581
X122.93Y-154.581
X122.93Y-157.581
X122.93Y-160.581
X125.93Y-46.581
X125.93Y-49.581
X125.93Y-52.581
X125.93Y-55.581
X125.93Y-58.581
X125.93Y-61.581
X125.93Y-67.581
X125.93Y-145.581
X125.93Y-148.581
X125.93Y-151.581
X125.93Y-154.581
X125.93Y-157.581
X125.93Y-160.581
X128.93Y-49.581
X128.93Y-52.581
X128.93Y-55.581
X128.93Y-58.581
X128.93Y-61.581
X128.93Y-67.581
X128.93Y-70.581
X128.93Y-73.581
X128.93Y-76.581
X128.93Y-79.581
X128.93Y-82.581
X128.93Y-85.581
X128.93Y-88.581
X128.93Y-100.581
X128.93Y-109.581
X128.93Y-112.581
X128.93Y-115.581
X128.93Y-118.581
X128.93Y-142.581
X128.93Y-145.581
X128.93Y-148.581
X128.93Y-151.581
X128.93Y-154.581
X128.93Y-157.581
X131.93Y-52.581
X131.93Y-55.581
X131.93Y-58.581
X131.93Y-61.581
X131.93Y-64.581
X131.93Y-70.581
X131.93Y-73.581
X131.93Y-76.581
X131.93Y-79.581
X131.93Y-82.581
X131.93Y-85.581
X131.93Y-88.581
X131.93Y-100.581
X131.93Y-112.581
X131.93Y-115.581
X131.93Y-124.581
X131.93Y-142.581
X131.93Y-145.581
X131.93Y-148.581
X131.93Y-151.581
X131.93Y-154.581
X134.93Y-55.581
X134.93Y-58.581
X134.93Y-61.581
X134.93Y-64.581
X134.93Y-67.581
X134.93Y-73.581
X134.93Y-76.581
X134.93Y-79.581
X134.93Y-82.581
X134.93Y-85.581
X134.93Y-88.581
X134.93Y-100.581
X134.93Y-109.581
X134.93Y-112.581
X134.93Y-121.581
X134.93Y-124.581
X134.93Y-139.581
X134.93Y-142.581
X134.93Y-145.581
X134.93Y-148.581
X134.93Y-151.581
X134.93Y-154.581
X137.93Y-58.581
X137.93Y-61.581
X137.93Y-64.581
X137.93Y-67.581
X137.93Y-100.581
X137.93Y-109.581
X137.93Y-112.581
X137.93Y-115.581
X137.93Y-118.581
X137.93Y-121.581
X137.93Y-124.581
X137.93Y-127.581
X137.93Y-139.581
X137.93Y-142.581
X137.93Y-145.581
X137.93Y-148.581
X137.93Y-151.581
X140.54Y-91.44
X140.54Y-96.48
X140.627Y-93.98
X140.93Y-61.581
X140.93Y-64.581
X140.93Y-67.581
X140.93Y-109.581
X140.93Y-112.581
X140.93Y-115.581
X140.93Y-118.581
X140.93Y-121.581
X140.93Y-124.581
X140.93Y-127.581
X140.93Y-130.581
X140.93Y-133.581
X140.93Y-136.581
X140.93Y-139.581
X140.93Y-142.581
X140.93Y-145.581
X140.93Y-148.581
X141.68Y-100.581
X143.93Y-64.581
X143.93Y-67.581
X143.93Y-106.581
X143.93Y-109.581
X143.93Y-112.581
X143.93Y-115.581
X143.93Y-118.581
X143.93Y-121.581
X143.93Y-124.581
X143.93Y-127.581
X143.93Y-130.581
X143.93Y-133.581
X143.93Y-136.581
X143.93Y-139.581
X143.93Y-142.581
X146.93Y-82.581
X146.93Y-88.581
X146.93Y-91.581
X146.93Y-94.581
X146.93Y-97.581
X146.93Y-100.581
X146.93Y-106.581
X146.93Y-109.581
X146.93Y-112.581
X146.93Y-115.581
X146.93Y-118.581
X146.93Y-124.581
X146.93Y-127.581
X146.93Y-130.581
X146.93Y-133.581
X146.93Y-136.581
X146.93Y-139.581
X149.93Y-73.581
X149.93Y-127.581
X149.93Y-130.581
X149.93Y-133.581
X152.93Y-82.581
X152.93Y-127.581
T2
X95.4Y-82.2
X95.4Y-83.4
X95.4Y-84.7
X95.4Y-85.8
X95.4Y-102.2
X95.4Y-103.4
X95.4Y-104.7
X95.4Y-105.8
X95.4Y-122.2
X95.4Y-123.4
X95.4Y-124.7
X95.4Y-125.8
X96.6Y-82.2
X96.6Y-83.4
X96.6Y-84.7
X96.6Y-85.8
X96.6Y-102.2
X96.6Y-103.4
X96.6Y-104.7
X96.6Y-105.8
X96.6Y-122.2
X96.6Y-123.4
X96.6Y-124.7
X96.6Y-125.8
T3
X92.121Y-99.595
X92.166Y-93.967
X100.412Y-103.342
X115.075Y-77.47
X141.0Y-101.0
T4
X97.184Y-108.061
X107.635Y-92.075
X113.805Y-92.075
T5
X68.65Y-132.48
X69.795Y-85.44
X69.795Y-90.52
X73.73Y-132.48
X77.11Y-130.98
X77.415Y-85.44
X77.415Y-90.52
X82.19Y-130.98
T6
X73.65Y-87.98
X73.65Y-90.48
X79.355Y-145.48
X81.855Y-145.48
X88.5Y-126.5
X91.0Y-126.5
X91.8Y-88.8
X91.8Y-108.8
X94.3Y-88.8
X94.3Y-108.8
X102.0Y-88.25
X102.0Y-108.25
X102.0Y-128.25
X104.5Y-88.25
X104.5Y-108.25
X104.5Y-128.25
T7
X96.025Y-113.07
X96.025Y-115.57
X96.025Y-118.07
T8
X59.195Y-45.72
X61.784Y-155.54
X61.784Y-52.64
X62.37Y-45.085
X63.324Y-142.632
X63.324Y-65.548
X65.545Y-44.45
X68.72Y-43.815
X71.895Y-43.18
X72.11Y-98.24
X72.11Y-100.78
X72.11Y-103.32
X72.11Y-105.86
X72.11Y-108.4
X72.11Y-110.94
X72.11Y-113.48
X72.11Y-116.02
X74.65Y-98.24
X74.65Y-100.78
X74.65Y-103.32
X74.65Y-105.86
X74.65Y-108.4
X74.65Y-110.94
X74.65Y-113.48
X74.65Y-116.02
X75.07Y-42.545
X81.4Y-69.48
X81.4Y-80.48
X82.65Y-88.48
X131.096Y-97.59
X131.096Y-110.59
X146.19Y-70.485
X147.46Y-74.295
X148.73Y-77.47
X150.0Y-80.645
T9
X72.57Y-135.48
X79.11Y-140.93
X81.65Y-140.93
X82.73Y-135.48
X84.19Y-140.93
T10
X69.78Y-126.73
X85.02Y-126.73
T11
X71.4Y-72.48
X71.4Y-77.48
T12
X52.21Y-151.377
X52.21Y-56.803
X52.624Y-147.902
X52.624Y-60.278
X53.039Y-144.426
X53.039Y-63.754
X121.096Y-100.59
X121.096Y-104.09
X121.096Y-107.59
T13
G00X122.06Y-121.17
M15
G01X122.06Y-122.67
M16
G05
G00X122.06Y-129.17
M15
G01X122.06Y-130.67
M16
G05
M30
