%TF.GenerationSoftware,KiCad,Pcbnew,10.0.6-10.0.6~ubuntu24.04.1*%
%TF.CreationDate,2026-09-12T00:09:06-03:00*%
%TF.ProjectId,power_board,706f7765-725f-4626-9f61-72642e6b6963,V02*%
%TF.SameCoordinates,Original*%
%TF.FileFunction,Soldermask,Top*%
%TF.FilePolarity,Negative*%
%FSLAX46Y46*%
G04 Gerber Fmt 4.6, Leading zero omitted, Abs format (unit mm)*
G04 Created by KiCad (PCBNEW 10.0.6-10.0.6~ubuntu24.04.1) date 2026-09-12 00:09:06*
%MOMM*%
%LPD*%
G01*
G04 APERTURE LIST*
G04 Aperture macros list*
%AMRoundRect*
0 Rectangle with rounded corners*
0 $1 Rounding radius*
0 $2 $3 $4 $5 $6 $7 $8 $9 X,Y pos of 4 corners*
0 Add a 4 corners polygon primitive as box body*
4,1,4,$2,$3,$4,$5,$6,$7,$8,$9,$2,$3,0*
0 Add four circle primitives for the rounded corners*
1,1,$1+$1,$2,$3*
1,1,$1+$1,$4,$5*
1,1,$1+$1,$6,$7*
1,1,$1+$1,$8,$9*
0 Add four rect primitives between the rounded corners*
20,1,$1+$1,$2,$3,$4,$5,0*
20,1,$1+$1,$4,$5,$6,$7,0*
20,1,$1+$1,$6,$7,$8,$9,0*
20,1,$1+$1,$8,$9,$2,$3,0*%
%AMRotRect*
0 Rectangle, with rotation*
0 The origin of the aperture is its center*
0 $1 length*
0 $2 width*
0 $3 Rotation angle, in degrees counterclockwise*
0 Add horizontal line*
21,1,$1,$2,0,0,$3*%
G04 Aperture macros list end*
%ADD10C,4.100000*%
%ADD11RoundRect,1.250000X3.750000X-1.250000X3.750000X1.250000X-3.750000X1.250000X-3.750000X-1.250000X0*%
%ADD12C,1.600000*%
%ADD13C,2.000000*%
%ADD14R,2.400000X1.500000*%
%ADD15C,3.200000*%
%ADD16RoundRect,0.250000X-0.550000X-0.550000X0.550000X-0.550000X0.550000X0.550000X-0.550000X0.550000X0*%
%ADD17RoundRect,0.250000X-0.262500X-0.450000X0.262500X-0.450000X0.262500X0.450000X-0.262500X0.450000X0*%
%ADD18C,1.400000*%
%ADD19R,3.000000X3.000000*%
%ADD20C,3.000000*%
%ADD21RoundRect,0.250000X-0.400000X-0.400000X0.400000X-0.400000X0.400000X0.400000X-0.400000X0.400000X0*%
%ADD22RoundRect,0.250000X-0.750000X-0.400000X0.750000X-0.400000X0.750000X0.400000X-0.750000X0.400000X0*%
%ADD23R,1.550000X0.600000*%
%ADD24R,2.600000X3.100000*%
%ADD25RoundRect,0.250000X-1.000000X1.750000X-1.000000X-1.750000X1.000000X-1.750000X1.000000X1.750000X0*%
%ADD26RoundRect,0.250000X1.000000X-1.400000X1.000000X1.400000X-1.000000X1.400000X-1.000000X-1.400000X0*%
%ADD27RotRect,3.000000X3.000000X276.800000*%
%ADD28RoundRect,0.250000X1.050000X1.050000X-1.050000X1.050000X-1.050000X-1.050000X1.050000X-1.050000X0*%
%ADD29C,2.600000*%
%ADD30RotRect,3.000000X3.000000X263.200000*%
%ADD31RoundRect,0.243750X0.243750X0.456250X-0.243750X0.456250X-0.243750X-0.456250X0.243750X-0.456250X0*%
%ADD32RoundRect,0.250000X-0.550000X1.500000X-0.550000X-1.500000X0.550000X-1.500000X0.550000X1.500000X0*%
%ADD33C,2.754000*%
%ADD34RoundRect,0.102000X-1.275000X1.275000X-1.275000X-1.275000X1.275000X-1.275000X1.275000X1.275000X0*%
%ADD35C,1.712000*%
%ADD36RoundRect,0.250000X-0.450000X0.262500X-0.450000X-0.262500X0.450000X-0.262500X0.450000X0.262500X0*%
%ADD37RoundRect,1.250000X1.250000X3.750000X-1.250000X3.750000X-1.250000X-3.750000X1.250000X-3.750000X0*%
%ADD38RoundRect,0.250000X0.725000X-0.600000X0.725000X0.600000X-0.725000X0.600000X-0.725000X-0.600000X0*%
%ADD39O,1.950000X1.700000*%
%ADD40RoundRect,0.250000X0.550000X0.550000X-0.550000X0.550000X-0.550000X-0.550000X0.550000X-0.550000X0*%
%ADD41RoundRect,0.249999X0.850001X0.850001X-0.850001X0.850001X-0.850001X-0.850001X0.850001X-0.850001X0*%
%ADD42C,2.200000*%
%ADD43R,1.905000X2.000000*%
%ADD44O,1.905000X2.000000*%
%ADD45RoundRect,0.250000X0.600000X0.600000X-0.600000X0.600000X-0.600000X-0.600000X0.600000X-0.600000X0*%
%ADD46C,1.700000*%
%ADD47O,3.800000X5.500000*%
%ADD48O,3.800000X5.300000*%
G04 APERTURE END LIST*
D10*
X125380000Y-50800000D02*
G75*
G02*
X121280000Y-50800000I-2050000J0D01*
G01*
X121280000Y-50800000D02*
G75*
G02*
X125380000Y-50800000I2050000J0D01*
G01*
D11*
%TO.C,TP15*%
X57925000Y-132715000D03*
%TD*%
D12*
%TO.C,C10*%
X88500000Y-126500000D03*
X91000000Y-126500000D03*
%TD*%
D13*
%TO.C,TP10*%
X148730000Y-77470000D03*
%TD*%
%TO.C,TP12*%
X82650000Y-88480000D03*
%TD*%
D14*
%TO.C,L1*%
X106000000Y-97750000D03*
X106000000Y-92250000D03*
%TD*%
D13*
%TO.C,TP9*%
X147460000Y-74295000D03*
%TD*%
D15*
%TO.C,H3*%
X93847149Y-76515383D03*
%TD*%
D16*
%TO.C,C9*%
X102000000Y-128250000D03*
D12*
X104500000Y-128250000D03*
%TD*%
D17*
%TO.C,R10*%
X140539700Y-91480000D03*
X142364700Y-91480000D03*
%TD*%
D18*
%TO.C,J5*%
X131095891Y-97590000D03*
X131095891Y-110590000D03*
D19*
X121095891Y-100590000D03*
D20*
X121095891Y-104090000D03*
X121095891Y-107590000D03*
%TD*%
D21*
%TO.C,R_ADJ3*%
X88650000Y-117350000D03*
D22*
X87500000Y-122850000D03*
D21*
X86350000Y-117350000D03*
%TD*%
D18*
%TO.C,R6*%
X77110000Y-130980000D03*
X82190000Y-130980000D03*
%TD*%
D23*
%TO.C,U1*%
X93300000Y-102095000D03*
X93300000Y-103365000D03*
X93300000Y-104635000D03*
X93300000Y-105905000D03*
X98700000Y-105905000D03*
X98700000Y-104635000D03*
X98700000Y-103365000D03*
X98700000Y-102095000D03*
D24*
X96000000Y-104000000D03*
%TD*%
D23*
%TO.C,U2*%
X93300000Y-82095000D03*
X93300000Y-83365000D03*
X93300000Y-84635000D03*
X93300000Y-85905000D03*
X98700000Y-85905000D03*
X98700000Y-84635000D03*
X98700000Y-83365000D03*
X98700000Y-82095000D03*
D24*
X96000000Y-84000000D03*
%TD*%
D15*
%TO.C,H2*%
X93847143Y-131664619D03*
%TD*%
D13*
%TO.C,TP7*%
X68720000Y-43815000D03*
%TD*%
D25*
%TO.C,C11*%
X113500000Y-109350000D03*
X113500000Y-115450000D03*
%TD*%
D14*
%TO.C,L3*%
X104500000Y-117750000D03*
X104500000Y-112250000D03*
%TD*%
D12*
%TO.C,C5*%
X91800000Y-108800000D03*
X94300000Y-108800000D03*
%TD*%
D26*
%TO.C,D3*%
X102600000Y-82095000D03*
X109400000Y-82095000D03*
%TD*%
D13*
%TO.C,TP13*%
X146190000Y-70485000D03*
%TD*%
D18*
%TO.C,J6*%
X61784403Y-52639858D03*
X63323655Y-65548409D03*
D27*
X52209960Y-56802794D03*
D20*
X52624374Y-60278173D03*
X53038788Y-63753553D03*
%TD*%
D28*
%TO.C,D6*%
X85020000Y-126730000D03*
D29*
X69780000Y-126730000D03*
%TD*%
D18*
%TO.C,J7*%
X63323654Y-142631590D03*
X61784402Y-155540142D03*
D30*
X53038787Y-144426447D03*
D20*
X52624373Y-147901826D03*
X52209959Y-151377206D03*
%TD*%
D15*
%TO.C,H1*%
X146985000Y-104090000D03*
%TD*%
D17*
%TO.C,R7*%
X97087500Y-108800000D03*
X98912500Y-108800000D03*
%TD*%
D31*
%TO.C,D7*%
X146361500Y-96520000D03*
X144486500Y-96520000D03*
%TD*%
D13*
%TO.C,TP2*%
X62370000Y-45085000D03*
%TD*%
%TO.C,TP6*%
X71895000Y-43180000D03*
%TD*%
D12*
%TO.C,C6*%
X91800000Y-88800000D03*
X94300000Y-88800000D03*
%TD*%
%TO.C,C3*%
X73650000Y-90480000D03*
X73650000Y-87980000D03*
%TD*%
D31*
%TO.C,D4*%
X146361500Y-94020000D03*
X144486500Y-94020000D03*
%TD*%
D26*
%TO.C,D8*%
X102600000Y-122095000D03*
X109400000Y-122095000D03*
%TD*%
D32*
%TO.C,C8*%
X115000000Y-72300000D03*
X115000000Y-77700000D03*
%TD*%
D16*
%TO.C,C1*%
X102000000Y-108250000D03*
D12*
X104500000Y-108250000D03*
%TD*%
D31*
%TO.C,D5*%
X146361500Y-91440000D03*
X144486500Y-91440000D03*
%TD*%
D17*
%TO.C,R8*%
X97087500Y-88800000D03*
X98912500Y-88800000D03*
%TD*%
D23*
%TO.C,U3*%
X93300000Y-122095000D03*
X93300000Y-123365000D03*
X93300000Y-124635000D03*
X93300000Y-125905000D03*
X98700000Y-125905000D03*
X98700000Y-124635000D03*
X98700000Y-123365000D03*
X98700000Y-122095000D03*
D24*
X96000000Y-124000000D03*
%TD*%
D33*
%TO.C,J3*%
X71400000Y-77480000D03*
D34*
X71400000Y-72480000D03*
D35*
X81400000Y-80480000D03*
X81400000Y-69480000D03*
%TD*%
D32*
%TO.C,C7*%
X115000000Y-92300000D03*
X115000000Y-97700000D03*
%TD*%
D18*
%TO.C,R3*%
X69795000Y-90520000D03*
X69795000Y-85440000D03*
%TD*%
D17*
%TO.C,R9*%
X140627200Y-93980000D03*
X142452200Y-93980000D03*
%TD*%
%TO.C,R13*%
X97587500Y-127800000D03*
X99412500Y-127800000D03*
%TD*%
D14*
%TO.C,L2*%
X106000000Y-77750000D03*
X106000000Y-72250000D03*
%TD*%
D36*
%TO.C,R12*%
X91200000Y-121587500D03*
X91200000Y-123412500D03*
%TD*%
D21*
%TO.C,R_ADJ2*%
X88650000Y-81250000D03*
D22*
X87500000Y-86750000D03*
D21*
X86350000Y-81250000D03*
%TD*%
D13*
%TO.C,TP3*%
X59195000Y-45720000D03*
%TD*%
D21*
%TO.C,R_ADJ1*%
X88650000Y-101250000D03*
D22*
X87500000Y-106750000D03*
D21*
X86350000Y-101250000D03*
%TD*%
D17*
%TO.C,R11*%
X140539700Y-96480000D03*
X142364700Y-96480000D03*
%TD*%
D18*
%TO.C,R2*%
X77415000Y-85440000D03*
X77415000Y-90520000D03*
%TD*%
D37*
%TO.C,TP4*%
X46850000Y-124325000D03*
%TD*%
D13*
%TO.C,TP5*%
X75070000Y-42545000D03*
%TD*%
D38*
%TO.C,J4*%
X96025000Y-118070000D03*
D39*
X96025000Y-115570000D03*
X96025000Y-113070000D03*
%TD*%
D13*
%TO.C,TP11*%
X150000000Y-80645000D03*
%TD*%
D26*
%TO.C,D2*%
X102600000Y-102095000D03*
X109400000Y-102095000D03*
%TD*%
D36*
%TO.C,R5*%
X91200000Y-83087500D03*
X91200000Y-84912500D03*
%TD*%
D16*
%TO.C,C2*%
X102000000Y-88250000D03*
D12*
X104500000Y-88250000D03*
%TD*%
D36*
%TO.C,R4*%
X91200000Y-103087500D03*
X91200000Y-104912500D03*
%TD*%
D13*
%TO.C,TP8*%
X65545000Y-44450000D03*
%TD*%
D40*
%TO.C,C4*%
X81855113Y-145480000D03*
D12*
X79355113Y-145480000D03*
%TD*%
D41*
%TO.C,D1*%
X82730000Y-135480000D03*
D42*
X72570000Y-135480000D03*
%TD*%
D43*
%TO.C,Q1*%
X84190000Y-140930000D03*
D44*
X81650000Y-140930000D03*
X79110000Y-140930000D03*
%TD*%
D18*
%TO.C,R1*%
X73730000Y-132480000D03*
X68650000Y-132480000D03*
%TD*%
D45*
%TO.C,J1*%
X74650000Y-98240000D03*
D46*
X72110000Y-98240000D03*
X74650000Y-100780000D03*
X72110000Y-100780000D03*
X74650000Y-103320000D03*
X72110000Y-103320000D03*
X74650000Y-105860000D03*
X72110000Y-105860000D03*
X74650000Y-108400000D03*
X72110000Y-108400000D03*
X74650000Y-110940000D03*
X72110000Y-110940000D03*
X74650000Y-113480000D03*
X72110000Y-113480000D03*
X74650000Y-116020000D03*
X72110000Y-116020000D03*
%TD*%
D47*
%TO.C,F1*%
X122060000Y-121920000D03*
D48*
X122060000Y-129920000D03*
%TD*%
M02*
