%TF.GenerationSoftware,KiCad,Pcbnew,10.0.6-10.0.6~ubuntu24.04.1*%
%TF.CreationDate,2026-09-10T19:48:43-03:00*%
%TF.ProjectId,main,6d61696e-2e6b-4696-9361-645f70636258,V02*%
%TF.SameCoordinates,Original*%
%TF.FileFunction,Soldermask,Bot*%
%TF.FilePolarity,Negative*%
%FSLAX46Y46*%
G04 Gerber Fmt 4.6, Leading zero omitted, Abs format (unit mm)*
G04 Created by KiCad (PCBNEW 10.0.6-10.0.6~ubuntu24.04.1) date 2026-09-10 19:48:43*
%MOMM*%
%LPD*%
G01*
G04 APERTURE LIST*
G04 Aperture macros list*
%AMRoundRect*
0 Rectangle with rounded corners*
0 $1 Rounding radius*
0 $2 $3 $4 $5 $6 $7 $8 $9 X,Y pos of 4 corners*
0 Add a 4 corners polygon primitive as box body*
4,1,4,$2,$3,$4,$5,$6,$7,$8,$9,$2,$3,0*
0 Add four circle primitives for the rounded corners*
1,1,$1+$1,$2,$3*
1,1,$1+$1,$4,$5*
1,1,$1+$1,$6,$7*
1,1,$1+$1,$8,$9*
0 Add four rect primitives between the rounded corners*
20,1,$1+$1,$2,$3,$4,$5,0*
20,1,$1+$1,$4,$5,$6,$7,0*
20,1,$1+$1,$6,$7,$8,$9,0*
20,1,$1+$1,$8,$9,$2,$3,0*%
%AMHorizOval*
0 Thick line with rounded ends*
0 $1 width*
0 $2 $3 position (X,Y) of the first rounded end (center of the circle)*
0 $4 $5 position (X,Y) of the second rounded end (center of the circle)*
0 Add line between two ends*
20,1,$1,$2,$3,$4,$5,0*
0 Add two circle primitives to create the rounded ends*
1,1,$1,$2,$3*
1,1,$1,$4,$5*%
G04 Aperture macros list end*
%ADD10RoundRect,0.250000X-0.504106X0.794671X-0.874926X-0.346597X0.504106X-0.794671X0.874926X0.346597X0*%
%ADD11HorizOval,1.700000X-0.118882X0.038627X0.118882X-0.038627X0*%
%ADD12RoundRect,0.102000X-0.765000X-0.765000X0.765000X-0.765000X0.765000X0.765000X-0.765000X0.765000X0*%
%ADD13C,1.734000*%
%ADD14C,1.728000*%
%ADD15RoundRect,0.250000X0.481009X-0.611253X0.611253X0.481009X-0.481009X0.611253X-0.611253X-0.481009X0*%
%ADD16C,1.600000*%
%ADD17RoundRect,0.250000X0.600000X-0.600000X0.600000X0.600000X-0.600000X0.600000X-0.600000X-0.600000X0*%
%ADD18C,1.700000*%
%ADD19C,2.900000*%
%ADD20C,5.000000*%
%ADD21RoundRect,0.250000X0.739748X-0.240359X0.240359X0.739748X-0.739748X0.240359X-0.240359X-0.739748X0*%
%ADD22R,1.300000X1.300000*%
%ADD23C,1.300000*%
%ADD24RoundRect,0.250000X-0.240359X0.739748X-0.739748X-0.240359X0.240359X-0.739748X0.739748X0.240359X0*%
%ADD25RoundRect,0.250000X-0.550000X0.550000X-0.550000X-0.550000X0.550000X-0.550000X0.550000X0.550000X0*%
%ADD26RoundRect,0.250000X-0.612929X0.478872X-0.478872X-0.612929X0.612929X-0.478872X0.478872X0.612929X0*%
%ADD27RoundRect,0.200000X0.335825X-0.053354X0.154229X0.303049X-0.335825X0.053354X-0.154229X-0.303049X0*%
%ADD28RoundRect,0.200000X0.275000X-0.200000X0.275000X0.200000X-0.275000X0.200000X-0.275000X-0.200000X0*%
%ADD29RoundRect,0.250000X-0.600000X0.600000X-0.600000X-0.600000X0.600000X-0.600000X0.600000X0.600000X0*%
%ADD30RoundRect,0.150000X0.564840X0.220480X-0.601401X0.077284X-0.564840X-0.220480X0.601401X-0.077284X0*%
%ADD31C,2.000000*%
%ADD32RoundRect,0.250000X0.662996X-0.271223X0.577687X0.423559X-0.662996X0.271223X-0.577687X-0.423559X0*%
%ADD33HorizOval,1.200000X0.272950X0.033514X-0.272950X-0.033514X0*%
%ADD34RoundRect,0.218750X0.218750X0.256250X-0.218750X0.256250X-0.218750X-0.256250X0.218750X-0.256250X0*%
%ADD35RoundRect,0.200000X-0.275000X0.200000X-0.275000X-0.200000X0.275000X-0.200000X0.275000X0.200000X0*%
%ADD36RoundRect,0.250000X-0.250000X-0.475000X0.250000X-0.475000X0.250000X0.475000X-0.250000X0.475000X0*%
%ADD37RoundRect,0.200000X-0.297324X0.164995X-0.248576X-0.232023X0.297324X-0.164995X0.248576X0.232023X0*%
%ADD38C,1.000000*%
%ADD39RoundRect,0.250000X0.397982X-0.595596X0.715776X0.028108X-0.397982X0.595596X-0.715776X-0.028108X0*%
%ADD40HorizOval,1.200000X-0.245027X0.124847X0.245027X-0.124847X0*%
%ADD41RoundRect,0.218750X0.256250X-0.218750X0.256250X0.218750X-0.256250X0.218750X-0.256250X-0.218750X0*%
%ADD42RoundRect,0.200000X-0.154229X0.303049X-0.335825X-0.053354X0.154229X-0.303049X0.335825X0.053354X0*%
%ADD43RoundRect,0.225000X-0.168235X0.291242X-0.307293X-0.136733X0.168235X-0.291242X0.307293X0.136733X0*%
%ADD44RoundRect,0.200000X-0.200000X-0.275000X0.200000X-0.275000X0.200000X0.275000X-0.200000X0.275000X0*%
%ADD45RoundRect,0.218750X-0.256250X0.218750X-0.256250X-0.218750X0.256250X-0.218750X0.256250X0.218750X0*%
%ADD46RoundRect,0.200000X0.249385X-0.231154X0.296746X0.166032X-0.249385X0.231154X-0.296746X-0.166032X0*%
%ADD47RoundRect,0.250000X0.475000X-0.250000X0.475000X0.250000X-0.475000X0.250000X-0.475000X-0.250000X0*%
%ADD48RoundRect,0.225000X-0.086979X-0.324899X0.313974X-0.120604X0.086979X0.324899X-0.313974X0.120604X0*%
%ADD49RoundRect,0.150000X-0.601128X-0.079382X0.565607X-0.218507X0.601128X0.079382X-0.565607X0.218507X0*%
%ADD50RoundRect,0.375000X-0.375000X0.625000X-0.375000X-0.625000X0.375000X-0.625000X0.375000X0.625000X0*%
%ADD51RoundRect,0.500000X-1.400000X0.500000X-1.400000X-0.500000X1.400000X-0.500000X1.400000X0.500000X0*%
%ADD52RoundRect,0.150000X-0.455368X-0.400370X0.591565X0.133068X0.455368X0.400370X-0.591565X-0.133068X0*%
%ADD53RoundRect,0.225000X0.250000X-0.225000X0.250000X0.225000X-0.250000X0.225000X-0.250000X-0.225000X0*%
%ADD54RoundRect,0.200000X0.200000X0.275000X-0.200000X0.275000X-0.200000X-0.275000X0.200000X-0.275000X0*%
%ADD55R,1.700000X1.700000*%
%ADD56RoundRect,0.225000X-0.313974X-0.120604X0.086979X-0.324899X0.313974X0.120604X-0.086979X0.324899X0*%
%ADD57RoundRect,0.225000X-0.250000X0.225000X-0.250000X-0.225000X0.250000X-0.225000X0.250000X0.225000X0*%
%ADD58RoundRect,0.218750X-0.218750X-0.256250X0.218750X-0.256250X0.218750X0.256250X-0.218750X0.256250X0*%
%ADD59RoundRect,0.225000X0.192856X0.275557X-0.253790X0.220716X-0.192856X-0.275557X0.253790X-0.220716X0*%
%ADD60RoundRect,0.150000X0.591565X-0.133068X-0.455368X0.400370X-0.591565X0.133068X0.455368X-0.400370X0*%
%ADD61RoundRect,0.250000X-0.579162X0.421540X-0.662045X-0.273535X0.579162X-0.421540X0.662045X0.273535X0*%
%ADD62HorizOval,1.200000X-0.273066X0.032561X0.273066X-0.032561X0*%
%ADD63RoundRect,0.250000X-0.715776X0.028108X-0.397982X-0.595596X0.715776X-0.028108X0.397982X0.595596X0*%
%ADD64HorizOval,1.200000X-0.245027X-0.124847X0.245027X0.124847X0*%
%ADD65RoundRect,0.225000X0.253018X0.221600X-0.193816X0.274882X-0.253018X-0.221600X0.193816X-0.274882X0*%
G04 APERTURE END LIST*
D10*
%TO.C,PCB1*%
X173990000Y-117348000D03*
D11*
X173217458Y-119725641D03*
X172444915Y-122103283D03*
X171672373Y-124480924D03*
X170899830Y-126858565D03*
X170127288Y-129236206D03*
%TD*%
D12*
%TO.C,U3*%
X136652000Y-120132000D03*
D13*
X136652000Y-117592000D03*
X136652000Y-115052000D03*
X136652000Y-112512000D03*
X136652000Y-109972000D03*
X136652000Y-107432000D03*
X136652000Y-104892000D03*
X136652000Y-102352000D03*
X136652000Y-99812000D03*
X136652000Y-97272000D03*
X136652000Y-94732000D03*
X136652000Y-92192000D03*
X136652000Y-89652000D03*
X136652000Y-87112000D03*
X136652000Y-84572000D03*
X136652000Y-82032000D03*
X136652000Y-79492000D03*
X136652000Y-76952000D03*
X136652000Y-74412000D03*
X162052000Y-74412000D03*
X162052000Y-76952000D03*
X162052000Y-79492000D03*
X162052000Y-82032000D03*
X162052000Y-84572000D03*
X162052000Y-87112000D03*
X162052000Y-89652000D03*
X162052000Y-92192000D03*
X162052000Y-94732000D03*
X162052000Y-97272000D03*
X162052000Y-99812000D03*
X162052000Y-102352000D03*
X162052000Y-104892000D03*
X162052000Y-107432000D03*
X162052000Y-109972000D03*
X162052000Y-112512000D03*
X162052000Y-115052000D03*
X162052000Y-117592000D03*
X162052000Y-120132000D03*
%TD*%
D14*
%TO.C,PCB2*%
X73313000Y-63684200D03*
X75853000Y-63684200D03*
X78393000Y-63684200D03*
X80933000Y-63684200D03*
X73313000Y-66224100D03*
X75853000Y-66224100D03*
X78393000Y-66224100D03*
X80933000Y-66224100D03*
%TD*%
D15*
%TO.C,C18*%
X110320990Y-131895414D03*
D16*
X110617000Y-129413000D03*
%TD*%
D17*
%TO.C,J2*%
X93091000Y-79316859D03*
D18*
X93091000Y-76776859D03*
X95631000Y-79316859D03*
X95631000Y-76776859D03*
X98171000Y-79316859D03*
X98171000Y-76776859D03*
X100711000Y-79316859D03*
X100711000Y-76776859D03*
X103251000Y-79316859D03*
X103251000Y-76776859D03*
X105791000Y-79316859D03*
X105791000Y-76776859D03*
X108331000Y-79316859D03*
X108331000Y-76776859D03*
X110871000Y-79316859D03*
X110871000Y-76776859D03*
%TD*%
D17*
%TO.C,J3*%
X99669600Y-111658400D03*
D18*
X99669600Y-109118400D03*
X102209600Y-111658400D03*
X102209600Y-109118400D03*
X104749600Y-111658400D03*
X104749600Y-109118400D03*
X107289600Y-111658400D03*
X107289600Y-109118400D03*
X109829600Y-111658400D03*
X109829600Y-109118400D03*
X112369600Y-111658400D03*
X112369600Y-109118400D03*
X114909600Y-111658400D03*
X114909600Y-109118400D03*
X117449600Y-111658400D03*
X117449600Y-109118400D03*
%TD*%
D19*
%TO.C,H1*%
X119843149Y-67406383D03*
D20*
X119843149Y-67406383D03*
%TD*%
D21*
%TO.C,C16*%
X132325976Y-128211516D03*
D16*
X131191000Y-125984000D03*
%TD*%
D22*
%TO.C,Q2*%
X98579000Y-52394800D03*
D23*
X97309000Y-53664800D03*
X96039000Y-52394800D03*
%TD*%
D19*
%TO.C,H2*%
X173000000Y-95000000D03*
D20*
X173000000Y-95000000D03*
%TD*%
D24*
%TO.C,C14*%
X129921000Y-60325000D03*
D16*
X128786024Y-62552516D03*
%TD*%
D22*
%TO.C,Q8*%
X100597000Y-134010400D03*
D23*
X99327000Y-135280400D03*
X98057000Y-134010400D03*
%TD*%
D22*
%TO.C,Q6*%
X153670000Y-141076000D03*
D23*
X154940000Y-139806000D03*
X156210000Y-141076000D03*
%TD*%
D25*
%TO.C,U1*%
X123190000Y-89408000D03*
D16*
X120650000Y-89408000D03*
X118110000Y-89408000D03*
X115570000Y-89408000D03*
X113030000Y-89408000D03*
X110490000Y-89408000D03*
X107950000Y-89408000D03*
X105410000Y-89408000D03*
X105410000Y-97028000D03*
X107950000Y-97028000D03*
X110490000Y-97028000D03*
X113030000Y-97028000D03*
X115570000Y-97028000D03*
X118110000Y-97028000D03*
X120650000Y-97028000D03*
X123190000Y-97028000D03*
%TD*%
D22*
%TO.C,Q5*%
X156210000Y-135488000D03*
D23*
X154940000Y-136758000D03*
X153670000Y-135488000D03*
%TD*%
D19*
%TO.C,H3*%
X119862143Y-122574619D03*
D20*
X119862143Y-122574619D03*
%TD*%
D26*
%TO.C,C8*%
X111183261Y-57085405D03*
D16*
X111487934Y-59566770D03*
%TD*%
D22*
%TO.C,Q4*%
X144780000Y-59560352D03*
D23*
X146050000Y-58290352D03*
X147320000Y-59560352D03*
%TD*%
D22*
%TO.C,Q1*%
X96039000Y-57982800D03*
D23*
X97309000Y-56712800D03*
X98579000Y-57982800D03*
%TD*%
D22*
%TO.C,Q3*%
X147304751Y-53340000D03*
D23*
X146034751Y-54610000D03*
X144764751Y-53340000D03*
%TD*%
D22*
%TO.C,Q7*%
X98057000Y-139852400D03*
D23*
X99327000Y-138582400D03*
X100597000Y-139852400D03*
%TD*%
D25*
%TO.C,U5*%
X92710000Y-95885000D03*
D16*
X90170000Y-95885000D03*
X87630000Y-95885000D03*
X85090000Y-95885000D03*
X82550000Y-95885000D03*
X80010000Y-95885000D03*
X77470000Y-95885000D03*
X74930000Y-95885000D03*
X74930000Y-103505000D03*
X77470000Y-103505000D03*
X80010000Y-103505000D03*
X82550000Y-103505000D03*
X85090000Y-103505000D03*
X87630000Y-103505000D03*
X90170000Y-103505000D03*
X92710000Y-103505000D03*
%TD*%
D27*
%TO.C,R25*%
X149726542Y-147039080D03*
X148977458Y-145568920D03*
%TD*%
%TO.C,R26*%
X151250542Y-150087080D03*
X150501458Y-148616920D03*
%TD*%
D28*
%TO.C,R22*%
X144145000Y-57975000D03*
X144145000Y-56325000D03*
%TD*%
D29*
%TO.C,J1*%
X93116400Y-69385459D03*
D18*
X93116400Y-71925459D03*
X95656400Y-69385459D03*
X95656400Y-71925459D03*
X98196400Y-69385459D03*
X98196400Y-71925459D03*
X100736400Y-69385459D03*
X100736400Y-71925459D03*
X103276400Y-69385459D03*
X103276400Y-71925459D03*
X105816400Y-69385459D03*
X105816400Y-71925459D03*
X108356400Y-69385459D03*
X108356400Y-71925459D03*
X110896400Y-69385459D03*
X110896400Y-71925459D03*
%TD*%
D30*
%TO.C,D9*%
X99139736Y-41487829D03*
X99371288Y-43373666D03*
X97394488Y-42659253D03*
%TD*%
D31*
%TO.C,TP28*%
X165735000Y-114935000D03*
%TD*%
D32*
%TO.C,M1*%
X106554600Y-47052358D03*
D33*
X106310861Y-45067266D03*
X106067123Y-43082173D03*
X105823384Y-41097081D03*
X105579645Y-39111989D03*
%TD*%
D34*
%TO.C,D16*%
X122560000Y-77477370D03*
X120985000Y-77477370D03*
%TD*%
D35*
%TO.C,R36*%
X101600000Y-135700000D03*
X101600000Y-137350000D03*
%TD*%
D36*
%TO.C,C6*%
X68585000Y-70485000D03*
X70485000Y-70485000D03*
%TD*%
D31*
%TO.C,TP12*%
X89662000Y-61341000D03*
%TD*%
D28*
%TO.C,R23*%
X150114000Y-63372000D03*
X150114000Y-61722000D03*
%TD*%
D37*
%TO.C,R11*%
X101780458Y-45048149D03*
X101981542Y-46685851D03*
%TD*%
D38*
%TO.C,TP4*%
X126095096Y-73660000D03*
%TD*%
D35*
%TO.C,R4*%
X78105000Y-106337500D03*
X78105000Y-107987500D03*
%TD*%
D31*
%TO.C,TP19*%
X86233000Y-57404000D03*
%TD*%
D39*
%TO.C,M2*%
X144876490Y-44225121D03*
D40*
X145784471Y-42443108D03*
X146692452Y-40661095D03*
X147600433Y-38879082D03*
X148508414Y-37097069D03*
%TD*%
D28*
%TO.C,R35*%
X98044000Y-132270000D03*
X98044000Y-130620000D03*
%TD*%
D41*
%TO.C,D6*%
X158115000Y-136804500D03*
X158115000Y-135229500D03*
%TD*%
D42*
%TO.C,R19*%
X150869542Y-39904920D03*
X150120458Y-41375080D03*
%TD*%
D36*
%TO.C,C7*%
X68585000Y-68326000D03*
X70485000Y-68326000D03*
%TD*%
D43*
%TO.C,C3*%
X171054488Y-114197931D03*
X170575512Y-115672069D03*
%TD*%
D34*
%TO.C,D15*%
X122555000Y-75572370D03*
X120980000Y-75572370D03*
%TD*%
D44*
%TO.C,R30*%
X150305000Y-141351000D03*
X151955000Y-141351000D03*
%TD*%
D45*
%TO.C,D5*%
X94996000Y-132562500D03*
X94996000Y-134137500D03*
%TD*%
D35*
%TO.C,R6*%
X158115000Y-132144000D03*
X158115000Y-133794000D03*
%TD*%
D46*
%TO.C,R33*%
X102010317Y-149155197D03*
X102205683Y-147516803D03*
%TD*%
D31*
%TO.C,TP29*%
X159385000Y-123825000D03*
%TD*%
D47*
%TO.C,C4*%
X80681800Y-74127800D03*
X80681800Y-72227800D03*
%TD*%
D31*
%TO.C,TP27*%
X168910000Y-134620000D03*
%TD*%
D28*
%TO.C,R5*%
X95250000Y-137350000D03*
X95250000Y-135700000D03*
%TD*%
D48*
%TO.C,C17*%
X142184470Y-142083843D03*
X143565530Y-141380157D03*
%TD*%
D31*
%TO.C,TP25*%
X165735000Y-103505000D03*
%TD*%
D35*
%TO.C,R3*%
X74295000Y-106337500D03*
X74295000Y-107987500D03*
%TD*%
D31*
%TO.C,TP17*%
X69088000Y-107061000D03*
%TD*%
%TO.C,TP5*%
X160020000Y-142875000D03*
%TD*%
D49*
%TO.C,D12*%
X98016611Y-147872914D03*
X98241579Y-145986279D03*
X99990905Y-147151604D03*
%TD*%
D35*
%TO.C,R14*%
X96039000Y-59774000D03*
X96039000Y-61424000D03*
%TD*%
D41*
%TO.C,D2*%
X78105000Y-93497500D03*
X78105000Y-91922500D03*
%TD*%
D45*
%TO.C,D4*%
X80010000Y-106375000D03*
X80010000Y-107950000D03*
%TD*%
D50*
%TO.C,U4*%
X73505000Y-72390000D03*
X75805000Y-72390000D03*
D51*
X75805000Y-78690000D03*
D50*
X78105000Y-72390000D03*
%TD*%
D35*
%TO.C,R20*%
X144810000Y-62185352D03*
X144810000Y-63835352D03*
%TD*%
D52*
%TO.C,D11*%
X153519972Y-148592072D03*
X152657390Y-146899160D03*
X154759319Y-146894384D03*
%TD*%
D38*
%TO.C,TP3*%
X125349000Y-71755000D03*
%TD*%
D53*
%TO.C,C11*%
X109855000Y-106820000D03*
X109855000Y-105270000D03*
%TD*%
D54*
%TO.C,R9*%
X166433000Y-112268000D03*
X164783000Y-112268000D03*
%TD*%
D31*
%TO.C,TP26*%
X165735000Y-107315000D03*
%TD*%
D38*
%TO.C,TP1*%
X126095096Y-77470000D03*
%TD*%
D55*
%TO.C,IMU1*%
X69164200Y-129159000D03*
D18*
X69164200Y-126619000D03*
X69164200Y-124079000D03*
X69164200Y-121539000D03*
X69164200Y-118999000D03*
X69164200Y-116459000D03*
X69164200Y-113919000D03*
X69164200Y-111379000D03*
%TD*%
D53*
%TO.C,C10*%
X112395000Y-106820000D03*
X112395000Y-105270000D03*
%TD*%
D31*
%TO.C,TP18*%
X92837000Y-128651000D03*
%TD*%
D56*
%TO.C,C15*%
X143454470Y-47273157D03*
X144835530Y-47976843D03*
%TD*%
D31*
%TO.C,TP8*%
X152000518Y-46320614D03*
%TD*%
D37*
%TO.C,R12*%
X101499458Y-41091149D03*
X101700542Y-42728851D03*
%TD*%
D44*
%TO.C,R41*%
X117915000Y-77470000D03*
X119565000Y-77470000D03*
%TD*%
D53*
%TO.C,C13*%
X104775000Y-106820000D03*
X104775000Y-105270000D03*
%TD*%
D31*
%TO.C,TP14*%
X130810000Y-109855000D03*
%TD*%
D35*
%TO.C,R13*%
X98594972Y-59773087D03*
X98594972Y-61423087D03*
%TD*%
D57*
%TO.C,C1*%
X71797551Y-125448985D03*
X71797551Y-126998985D03*
%TD*%
D44*
%TO.C,R31*%
X95187000Y-139928600D03*
X96837000Y-139928600D03*
%TD*%
%TO.C,R10*%
X92547000Y-57932000D03*
X94197000Y-57932000D03*
%TD*%
D35*
%TO.C,R15*%
X100865000Y-52357200D03*
X100865000Y-54007200D03*
%TD*%
D28*
%TO.C,R17*%
X148590000Y-55580352D03*
X148590000Y-53930352D03*
%TD*%
D58*
%TO.C,D1*%
X70205500Y-59436000D03*
X71780500Y-59436000D03*
%TD*%
D35*
%TO.C,R24*%
X156210000Y-132144000D03*
X156210000Y-133794000D03*
%TD*%
D44*
%TO.C,R38*%
X117915000Y-71755000D03*
X119565000Y-71755000D03*
%TD*%
D28*
%TO.C,R8*%
X92610000Y-56090000D03*
X92610000Y-54440000D03*
%TD*%
D44*
%TO.C,R39*%
X117915000Y-73660000D03*
X119565000Y-73660000D03*
%TD*%
D31*
%TO.C,TP9*%
X150114000Y-65913000D03*
%TD*%
D45*
%TO.C,D3*%
X76200000Y-106375000D03*
X76200000Y-107950000D03*
%TD*%
D38*
%TO.C,TP2*%
X125349000Y-75565000D03*
%TD*%
D59*
%TO.C,C9*%
X108238223Y-51360551D03*
X106699777Y-51549449D03*
%TD*%
D47*
%TO.C,C5*%
X82815400Y-74127800D03*
X82815400Y-72227800D03*
%TD*%
D31*
%TO.C,TP21*%
X69088000Y-99568000D03*
%TD*%
D53*
%TO.C,C12*%
X107315000Y-106820000D03*
X107315000Y-105270000D03*
%TD*%
D28*
%TO.C,R34*%
X96520000Y-132270000D03*
X96520000Y-130620000D03*
%TD*%
D31*
%TO.C,TP13*%
X133350000Y-107315000D03*
%TD*%
D28*
%TO.C,R27*%
X153670000Y-133794000D03*
X153670000Y-132144000D03*
%TD*%
D60*
%TO.C,D10*%
X154936610Y-42759160D03*
X154074028Y-44452072D03*
X152834681Y-42754384D03*
%TD*%
D31*
%TO.C,TP23*%
X69088000Y-103378000D03*
%TD*%
D41*
%TO.C,D7*%
X150114000Y-60223500D03*
X150114000Y-58648500D03*
%TD*%
D31*
%TO.C,TP22*%
X165735000Y-94615000D03*
%TD*%
D28*
%TO.C,R28*%
X151765000Y-133794000D03*
X151765000Y-132144000D03*
%TD*%
D54*
%TO.C,R1*%
X75628000Y-59436000D03*
X73978000Y-59436000D03*
%TD*%
D46*
%TO.C,R32*%
X102518317Y-145599197D03*
X102713683Y-143960803D03*
%TD*%
D31*
%TO.C,TP24*%
X165735000Y-99822000D03*
%TD*%
%TO.C,TP16*%
X130810000Y-114935000D03*
%TD*%
D35*
%TO.C,R7*%
X150114000Y-55563000D03*
X150114000Y-57213000D03*
%TD*%
D58*
%TO.C,D8*%
X93827500Y-50800000D03*
X95402500Y-50800000D03*
%TD*%
D28*
%TO.C,R29*%
X152400000Y-139890000D03*
X152400000Y-138240000D03*
%TD*%
%TO.C,R2*%
X80010000Y-93535000D03*
X80010000Y-91885000D03*
%TD*%
D42*
%TO.C,R18*%
X149425127Y-42731090D03*
X148676043Y-44201250D03*
%TD*%
D31*
%TO.C,TP6*%
X103632000Y-128778000D03*
%TD*%
D44*
%TO.C,R40*%
X117915000Y-75565000D03*
X119565000Y-75565000D03*
%TD*%
D31*
%TO.C,TP10*%
X89509600Y-55219600D03*
%TD*%
%TO.C,TP20*%
X82550000Y-59944000D03*
%TD*%
%TO.C,TP7*%
X147828000Y-141224000D03*
%TD*%
D35*
%TO.C,R37*%
X100609400Y-130620000D03*
X100609400Y-132270000D03*
%TD*%
D34*
%TO.C,D13*%
X122555000Y-71762370D03*
X120980000Y-71762370D03*
%TD*%
D35*
%TO.C,R21*%
X147320000Y-62185352D03*
X147320000Y-63835352D03*
%TD*%
D61*
%TO.C,M4*%
X105756995Y-143106366D03*
D62*
X105520187Y-145092297D03*
X105283379Y-147078228D03*
X105046571Y-149064159D03*
X104809763Y-151050090D03*
%TD*%
D63*
%TO.C,M3*%
X143997985Y-145529668D03*
D64*
X144905966Y-147311681D03*
X145813947Y-149093694D03*
X146721928Y-150875707D03*
X147629909Y-152657720D03*
%TD*%
D31*
%TO.C,TP15*%
X133350000Y-112395000D03*
%TD*%
D54*
%TO.C,R16*%
X104146270Y-52349944D03*
X102496270Y-52349944D03*
%TD*%
D34*
%TO.C,D14*%
X122555000Y-73667370D03*
X120980000Y-73667370D03*
%TD*%
D65*
%TO.C,C19*%
X106179548Y-139283763D03*
X104640452Y-139100237D03*
%TD*%
D38*
%TO.C,TP11*%
X124587000Y-79248000D03*
%TD*%
M02*
