M48
; DRILL file KiCad 10.0.6-10.0.6~ubuntu24.04.1 date 2026-09-10T19:48:59
; FORMAT={-:-/ absolute / metric / decimal}
; #@! TF.CreationDate,2026-09-10T19:48:59-03:00
; #@! TF.GenerationSoftware,Kicad,Pcbnew,10.0.6-10.0.6~ubuntu24.04.1
; #@! TF.FileFunction,Plated,1,2,PTH
FMAT,2
METRIC
; #@! TA.AperFunction,Plated,PTH,ViaDrill
T1C0.300
; #@! TA.AperFunction,Plated,PTH,ViaDrill
T2C0.400
; #@! TA.AperFunction,Plated,PTH,ComponentDrill
T3C0.750
; #@! TA.AperFunction,Plated,PTH,ComponentDrill
T4C0.800
; #@! TA.AperFunction,Plated,PTH,ComponentDrill
T5C0.950
; #@! TA.AperFunction,Plated,PTH,ComponentDrill
T6C1.000
; #@! TA.AperFunction,Plated,PTH,ComponentDrill
T7C1.016
; #@! TA.AperFunction,Plated,PTH,ComponentDrill
T8C1.020
; #@! TA.AperFunction,Plated,PTH,ComponentDrill
T9C2.500
%
G90
G05
T1
X68.851Y-60.471
X68.851Y-63.935
X68.851Y-74.327
X68.851Y-77.791
X68.851Y-81.255
X68.851Y-84.719
X68.851Y-88.184
X68.851Y-91.648
X68.851Y-95.112
X69.851Y-62.203
X69.851Y-72.595
X69.851Y-76.059
X69.851Y-79.523
X69.851Y-82.987
X69.851Y-86.452
X69.851Y-89.916
X69.851Y-93.38
X69.851Y-96.844
X69.851Y-131.485
X70.851Y-63.935
X70.851Y-74.327
X70.851Y-77.791
X70.851Y-81.255
X70.851Y-84.719
X70.851Y-88.184
X70.851Y-91.648
X70.851Y-95.112
X70.851Y-98.576
X71.755Y-111.76
X71.851Y-62.203
X71.851Y-69.131
X71.851Y-72.595
X71.851Y-76.059
X71.851Y-79.523
X71.851Y-82.987
X71.851Y-86.452
X71.851Y-89.916
X71.851Y-93.38
X71.851Y-96.844
X71.851Y-100.308
X71.851Y-131.485
X72.263Y-126.999
X72.851Y-60.471
X72.851Y-74.327
X72.851Y-77.791
X72.851Y-81.255
X72.851Y-84.719
X72.851Y-88.184
X72.851Y-91.648
X72.851Y-95.112
X72.851Y-98.576
X72.851Y-105.504
X72.851Y-108.968
X72.851Y-129.753
X73.851Y-69.131
X73.851Y-76.059
X73.851Y-82.987
X73.851Y-86.452
X73.851Y-89.916
X73.851Y-93.38
X73.851Y-124.557
X73.851Y-128.021
X74.851Y-84.719
X74.851Y-88.184
X74.851Y-91.648
X74.851Y-129.753
X75.851Y-69.131
X75.851Y-82.987
X75.851Y-86.452
X75.851Y-89.916
X75.851Y-93.38
X75.851Y-110.7
X75.851Y-124.557
X75.851Y-128.021
X76.115Y-116.84
X76.2Y-105.41
X76.708Y-114.3
X76.851Y-88.184
X76.851Y-129.753
X77.166Y-83.743
X77.258Y-119.253
X77.851Y-86.452
X77.851Y-89.916
X77.851Y-110.7
X77.851Y-128.021
X77.851Y-121.92
X78.851Y-74.327
X78.851Y-77.791
X78.851Y-81.255
X78.851Y-88.184
X78.851Y-129.753
X79.851Y-69.131
X79.851Y-76.059
X79.851Y-79.523
X79.851Y-82.987
X79.851Y-86.452
X79.851Y-89.916
X79.851Y-128.021
X79.851Y-131.485
X80.01Y-98.517
X80.851Y-70.863
X80.851Y-77.791
X80.851Y-81.255
X80.851Y-88.184
X80.851Y-129.753
X81.851Y-69.131
X81.851Y-76.059
X81.851Y-79.523
X81.851Y-82.987
X81.851Y-86.452
X81.851Y-89.916
X81.851Y-93.38
X81.851Y-128.021
X81.851Y-131.485
X82.55Y-109.22
X82.596Y-100.187
X82.851Y-70.863
X82.851Y-77.791
X82.851Y-81.255
X82.851Y-88.184
X82.851Y-91.648
X82.851Y-129.753
X83.564Y-112.095
X83.851Y-69.131
X83.851Y-76.059
X83.851Y-79.523
X83.851Y-82.987
X83.851Y-86.452
X83.851Y-89.916
X83.851Y-93.38
X83.851Y-128.021
X83.851Y-131.485
X84.851Y-70.863
X84.851Y-74.327
X84.851Y-77.791
X84.851Y-81.255
X84.851Y-88.184
X84.851Y-91.648
X84.851Y-129.753
X85.09Y-100.187
X85.471Y-61.849
X85.851Y-69.131
X85.851Y-76.059
X85.851Y-79.523
X85.851Y-82.987
X85.851Y-86.452
X85.851Y-89.916
X85.851Y-93.38
X85.851Y-128.021
X85.851Y-131.485
X86.851Y-60.471
X86.851Y-70.863
X86.851Y-77.791
X86.851Y-81.255
X86.851Y-129.753
X86.851Y-133.217
X87.63Y-106.899
X87.851Y-69.131
X87.851Y-72.595
X87.851Y-76.059
X87.851Y-79.523
X87.851Y-82.987
X87.851Y-128.021
X87.851Y-131.485
X88.265Y-65.405
X88.851Y-70.863
X88.851Y-77.791
X88.851Y-81.255
X88.851Y-129.753
X88.851Y-133.217
X89.851Y-58.739
X89.851Y-69.131
X89.851Y-72.595
X89.851Y-76.059
X89.851Y-79.523
X89.851Y-128.021
X89.851Y-131.485
X89.851Y-134.949
X90.17Y-65.77
X90.17Y-100.587
X90.17Y-108.169
X90.851Y-57.007
X90.851Y-133.217
X90.851Y-136.681
X90.966Y-65.846
X91.851Y-134.949
X92.703Y-58.423
X92.71Y-101.787
X92.851Y-133.217
X92.851Y-136.681
X93.853Y-126.28
X94.488Y-48.641
X95.25Y-46.609
X95.837Y-137.366
X95.851Y-55.275
X96.841Y-110.47
X96.851Y-88.184
X96.851Y-91.648
X96.851Y-95.112
X97.282Y-43.434
X97.409Y-111.033
X97.851Y-55.275
X97.851Y-86.452
X97.851Y-89.916
X97.851Y-93.38
X97.851Y-103.772
X97.851Y-107.236
X98.679Y-145.542
X98.851Y-88.184
X98.851Y-91.648
X98.851Y-102.04
X99.06Y-82.873
X99.314Y-40.132
X99.695Y-43.815
X99.779Y-83.228
X99.851Y-55.275
X99.851Y-86.452
X99.851Y-89.916
X99.851Y-93.38
X99.851Y-100.308
X99.851Y-148.805
X100.851Y-88.184
X100.851Y-91.648
X100.851Y-98.576
X101.219Y-142.875
X101.727Y-145.542
X101.851Y-48.346
X101.851Y-86.452
X101.851Y-89.916
X101.851Y-96.844
X101.851Y-100.308
X101.851Y-103.772
X101.851Y-107.236
X101.854Y-50.038
X102.235Y-123.98
X102.851Y-88.184
X102.851Y-91.648
X102.851Y-98.576
X102.851Y-105.504
X103.251Y-149.86
X103.274Y-75.211
X103.505Y-146.812
X103.632Y-40.132
X103.851Y-37.954
X103.851Y-41.418
X103.851Y-86.452
X103.851Y-100.308
X103.851Y-103.772
X104.851Y-70.863
X104.851Y-77.791
X104.851Y-91.648
X105.851Y-86.452
X105.851Y-100.308
X105.851Y-117.628
X105.851Y-121.093
X106.18Y-139.284
X106.204Y-72.949
X106.68Y-152.654
X106.851Y-70.863
X106.851Y-77.791
X106.851Y-91.648
X106.851Y-150.537
X106.934Y-37.338
X107.315Y-103.759
X107.315Y-148.336
X107.442Y-39.878
X107.497Y-68.777
X107.696Y-41.91
X107.851Y-73.095
X107.851Y-117.628
X107.851Y-121.093
X107.851Y-128.021
X107.851Y-145.341
X107.95Y-43.815
X108.238Y-51.361
X108.267Y-59.627
X108.851Y-70.863
X108.851Y-77.791
X108.851Y-91.648
X108.851Y-122.825
X108.851Y-129.753
X109.851Y-69.131
X109.851Y-72.595
X109.851Y-80.023
X109.851Y-86.452
X109.851Y-100.308
X109.851Y-103.772
X109.851Y-117.628
X109.851Y-121.093
X110.851Y-70.863
X110.851Y-122.825
X111.351Y-77.791
X111.851Y-72.595
X111.851Y-86.452
X111.851Y-100.308
X111.851Y-117.628
X111.851Y-121.093
X111.851Y-128.021
X112.351Y-69.131
X112.351Y-79.523
X112.395Y-63.465
X112.395Y-103.759
X112.851Y-122.825
X113.851Y-86.452
X113.851Y-100.308
X113.851Y-107.236
X113.851Y-117.628
X113.851Y-121.093
X113.919Y-59.69
X113.919Y-72.39
X114.3Y-95.631
X114.851Y-84.719
X114.851Y-98.576
X114.851Y-105.504
X114.851Y-122.825
X114.935Y-75.565
X115.851Y-86.452
X115.851Y-100.308
X115.851Y-107.236
X115.851Y-117.628
X115.851Y-121.093
X115.851Y-124.557
X116.851Y-84.719
X116.851Y-88.184
X116.851Y-98.576
X116.851Y-105.504
X116.851Y-129.753
X116.967Y-95.631
X117.475Y-71.755
X117.475Y-77.47
X117.602Y-59.817
X117.851Y-82.987
X117.851Y-86.452
X117.851Y-100.308
X117.851Y-107.236
X117.851Y-117.628
X117.851Y-128.021
X118.851Y-81.255
X118.851Y-84.719
X118.851Y-98.576
X118.851Y-105.504
X118.851Y-115.896
X118.851Y-129.753
X119.851Y-82.987
X119.851Y-86.452
X119.851Y-100.308
X119.851Y-107.236
X119.851Y-110.7
X119.851Y-114.164
X119.851Y-117.628
X119.851Y-128.021
X120.851Y-81.255
X120.851Y-84.719
X120.851Y-105.504
X120.851Y-108.968
X120.851Y-112.432
X120.851Y-115.896
X120.851Y-129.753
X121.851Y-82.987
X121.851Y-86.452
X121.851Y-100.308
X121.851Y-107.236
X121.851Y-110.7
X121.851Y-114.164
X121.851Y-117.628
X121.851Y-128.021
X122.851Y-81.255
X122.851Y-84.719
X123.851Y-69.131
X123.851Y-82.987
X123.851Y-86.452
X123.851Y-128.021
X124.851Y-98.576
X124.851Y-115.896
X124.851Y-126.289
X125.095Y-71.755
X125.095Y-75.565
X125.265Y-107.315
X125.365Y-87.958
X125.724Y-68.083
X125.73Y-73.66
X125.73Y-77.47
X125.815Y-109.855
X125.851Y-96.844
X125.851Y-100.308
X125.851Y-117.628
X125.851Y-128.021
X126.238Y-79.121
X126.365Y-82.804
X126.365Y-112.395
X126.45Y-114.935
X126.538Y-93.962
X126.851Y-98.576
X126.851Y-102.04
X127.0Y-94.615
X127.505Y-95.415
X127.505Y-128.397
X128.74Y-70.485
X128.908Y-67.307
X129.055Y-127.762
X129.505Y-93.98
X129.54Y-66.675
X129.54Y-70.485
X129.851Y-86.452
X130.175Y-64.77
X130.175Y-68.58
X130.34Y-70.485
X130.81Y-64.135
X130.851Y-77.791
X130.851Y-81.255
X130.851Y-88.184
X131.445Y-63.5
X131.445Y-70.485
X131.851Y-76.059
X131.851Y-79.523
X131.851Y-82.987
X131.851Y-86.452
X131.851Y-117.628
X132.851Y-77.791
X132.851Y-81.255
X132.851Y-88.184
X133.35Y-71.12
X133.851Y-76.059
X133.851Y-79.523
X133.851Y-82.987
X133.851Y-86.452
X133.851Y-117.628
X134.851Y-77.791
X134.851Y-81.255
X134.851Y-88.184
X136.017Y-121.92
X137.851Y-72.595
X137.851Y-93.38
X138.851Y-77.791
X138.851Y-81.255
X138.851Y-84.719
X138.851Y-88.184
X138.851Y-91.648
X138.851Y-108.968
X138.851Y-112.432
X138.851Y-115.896
X141.851Y-107.236
X141.851Y-110.7
X141.851Y-114.164
X141.851Y-117.628
X142.184Y-142.084
X142.851Y-133.217
X143.345Y-54.61
X143.454Y-47.273
X143.851Y-41.418
X143.851Y-134.949
X143.851Y-148.805
X144.851Y-39.686
X144.851Y-105.504
X144.851Y-108.968
X144.851Y-112.432
X144.851Y-133.217
X144.851Y-136.681
X144.851Y-150.537
X145.669Y-152.527
X145.851Y-37.954
X145.851Y-103.772
X145.851Y-107.236
X145.851Y-110.7
X145.851Y-134.949
X145.851Y-138.413
X146.05Y-56.515
X146.851Y-36.222
X146.851Y-105.504
X146.851Y-108.968
X146.851Y-126.289
X146.939Y-154.813
X147.255Y-127.606
X147.701Y-58.039
X147.851Y-103.772
X147.851Y-107.236
X147.851Y-148.805
X147.955Y-128.006
X148.214Y-62.865
X148.717Y-40.64
X148.717Y-45.593
X148.851Y-105.504
X148.851Y-126.289
X148.851Y-150.537
X148.851Y-154.002
X149.225Y-39.497
X149.606Y-61.976
X149.851Y-124.557
X149.851Y-134.949
X149.851Y-138.413
X150.495Y-148.59
X150.749Y-60.325
X150.851Y-136.681
X151.851Y-37.954
X152.851Y-39.686
X152.851Y-119.361
X152.851Y-150.537
X153.289Y-146.558
X153.851Y-41.418
X153.851Y-138.413
X154.851Y-39.686
X154.851Y-115.896
X154.851Y-119.361
X155.411Y-146.521
X155.851Y-41.418
X155.851Y-114.164
X155.851Y-138.413
X156.21Y-127.956
X156.21Y-131.699
X156.851Y-43.15
X156.851Y-112.432
X156.851Y-115.896
X156.851Y-119.361
X157.851Y-107.236
X157.851Y-110.7
X157.851Y-114.164
X157.851Y-145.341
X158.851Y-105.504
X158.851Y-108.968
X158.851Y-112.432
X158.851Y-115.896
X158.851Y-119.361
X158.851Y-126.289
X158.851Y-147.073
X159.851Y-103.772
X159.851Y-107.236
X159.851Y-110.7
X159.851Y-114.164
X159.851Y-134.949
X159.851Y-138.413
X159.851Y-145.341
X160.851Y-136.681
X161.851Y-134.949
X161.851Y-138.413
X162.851Y-122.825
X162.851Y-129.753
X162.851Y-143.609
X163.851Y-103.772
X163.851Y-117.628
X163.851Y-128.021
X163.851Y-141.877
X163.957Y-98.552
X163.957Y-101.092
X164.465Y-121.92
X164.851Y-105.504
X164.851Y-129.753
X164.851Y-136.681
X164.851Y-140.145
X165.735Y-119.126
X165.851Y-128.021
X165.851Y-134.949
X165.851Y-138.413
X166.103Y-121.399
X166.851Y-105.504
X166.851Y-126.289
X166.851Y-129.753
X166.851Y-136.681
X167.851Y-138.413
X168.851Y-136.681
X170.851Y-119.361
X171.851Y-100.308
X171.851Y-103.772
X171.851Y-107.236
X171.851Y-110.7
X172.851Y-98.576
X172.851Y-102.04
X172.851Y-105.504
X172.851Y-108.968
X172.851Y-112.432
X173.851Y-100.308
X173.851Y-103.772
X173.851Y-107.236
X174.851Y-98.576
X174.851Y-102.04
X175.387Y-126.492
X176.851Y-115.896
X176.851Y-119.361
X176.851Y-122.825
X177.851Y-117.628
X177.851Y-121.093
X178.851Y-119.361
T2
X93.98Y-84.223
X98.044Y-129.54
X116.205Y-73.66
X119.507Y-60.198
X137.16Y-122.62
X150.622Y-132.207
X151.638Y-127.856
X151.765Y-120.65
T3
X96.039Y-52.395
X96.039Y-57.983
X97.309Y-53.665
X97.309Y-56.713
X98.057Y-134.01
X98.057Y-139.852
X98.579Y-52.395
X98.579Y-57.983
X99.327Y-135.28
X99.327Y-138.582
X100.597Y-134.01
X100.597Y-139.852
X104.81Y-151.05
X105.047Y-149.064
X105.283Y-147.078
X105.52Y-145.092
X105.58Y-39.112
X105.757Y-143.106
X105.823Y-41.097
X106.067Y-43.082
X106.311Y-45.067
X106.555Y-47.052
X143.998Y-145.53
X144.765Y-53.34
X144.78Y-59.56
X144.876Y-44.225
X144.906Y-147.312
X145.784Y-42.443
X145.814Y-149.094
X146.035Y-54.61
X146.05Y-58.29
X146.692Y-40.661
X146.722Y-150.876
X147.305Y-53.34
X147.32Y-59.56
X147.6Y-38.879
X147.63Y-152.658
X148.508Y-37.097
X153.67Y-135.488
X153.67Y-141.076
X154.94Y-136.758
X154.94Y-139.806
X156.21Y-135.488
X156.21Y-141.076
T4
X74.93Y-95.885
X74.93Y-103.505
X77.47Y-95.885
X77.47Y-103.505
X80.01Y-95.885
X80.01Y-103.505
X82.55Y-95.885
X82.55Y-103.505
X85.09Y-95.885
X85.09Y-103.505
X87.63Y-95.885
X87.63Y-103.505
X90.17Y-95.885
X90.17Y-103.505
X92.71Y-95.885
X92.71Y-103.505
X105.41Y-89.408
X105.41Y-97.028
X107.95Y-89.408
X107.95Y-97.028
X110.321Y-131.895
X110.49Y-89.408
X110.49Y-97.028
X110.617Y-129.413
X111.183Y-57.085
X111.488Y-59.567
X113.03Y-89.408
X113.03Y-97.028
X115.57Y-89.408
X115.57Y-97.028
X118.11Y-89.408
X118.11Y-97.028
X120.65Y-89.408
X120.65Y-97.028
X123.19Y-89.408
X123.19Y-97.028
X128.786Y-62.553
X129.921Y-60.325
X131.191Y-125.984
X132.326Y-128.212
T5
X170.127Y-129.236
X170.9Y-126.859
X171.672Y-124.481
X172.445Y-122.103
X173.217Y-119.726
X173.99Y-117.348
T6
X69.088Y-99.568
X69.088Y-103.378
X69.088Y-107.061
X69.164Y-111.379
X69.164Y-113.919
X69.164Y-116.459
X69.164Y-118.999
X69.164Y-121.539
X69.164Y-124.079
X69.164Y-126.619
X69.164Y-129.159
X82.55Y-59.944
X86.233Y-57.404
X89.51Y-55.22
X89.662Y-61.341
X92.837Y-128.651
X93.091Y-76.777
X93.091Y-79.317
X93.116Y-69.385
X93.116Y-71.925
X95.631Y-76.777
X95.631Y-79.317
X95.656Y-69.385
X95.656Y-71.925
X98.171Y-76.777
X98.171Y-79.317
X98.196Y-69.385
X98.196Y-71.925
X99.67Y-109.118
X99.67Y-111.658
X100.711Y-76.777
X100.711Y-79.317
X100.736Y-69.385
X100.736Y-71.925
X102.21Y-109.118
X102.21Y-111.658
X103.251Y-76.777
X103.251Y-79.317
X103.276Y-69.385
X103.276Y-71.925
X103.632Y-128.778
X104.75Y-109.118
X104.75Y-111.658
X105.791Y-76.777
X105.791Y-79.317
X105.816Y-69.385
X105.816Y-71.925
X107.29Y-109.118
X107.29Y-111.658
X108.331Y-76.777
X108.331Y-79.317
X108.356Y-69.385
X108.356Y-71.925
X109.83Y-109.118
X109.83Y-111.658
X110.871Y-76.777
X110.871Y-79.317
X110.896Y-69.385
X110.896Y-71.925
X112.37Y-109.118
X112.37Y-111.658
X114.91Y-109.118
X114.91Y-111.658
X117.45Y-109.118
X117.45Y-111.658
X130.81Y-109.855
X130.81Y-114.935
X133.35Y-107.315
X133.35Y-112.395
X147.828Y-141.224
X150.114Y-65.913
X152.001Y-46.321
X159.385Y-123.825
X160.02Y-142.875
X165.735Y-94.615
X165.735Y-99.822
X165.735Y-103.505
X165.735Y-107.315
X165.735Y-114.935
X168.91Y-134.62
T7
X73.313Y-63.684
X73.313Y-66.224
X75.853Y-63.684
X75.853Y-66.224
X78.393Y-63.684
X78.393Y-66.224
X80.933Y-63.684
X80.933Y-66.224
T8
X136.652Y-74.412
X136.652Y-76.952
X136.652Y-79.492
X136.652Y-82.032
X136.652Y-84.572
X136.652Y-87.112
X136.652Y-89.652
X136.652Y-92.192
X136.652Y-94.732
X136.652Y-97.272
X136.652Y-99.812
X136.652Y-102.352
X136.652Y-104.892
X136.652Y-107.432
X136.652Y-109.972
X136.652Y-112.512
X136.652Y-115.052
X136.652Y-117.592
X136.652Y-120.132
X162.052Y-74.412
X162.052Y-76.952
X162.052Y-79.492
X162.052Y-82.032
X162.052Y-84.572
X162.052Y-87.112
X162.052Y-89.652
X162.052Y-92.192
X162.052Y-94.732
X162.052Y-97.272
X162.052Y-99.812
X162.052Y-102.352
X162.052Y-104.892
X162.052Y-107.432
X162.052Y-109.972
X162.052Y-112.512
X162.052Y-115.052
X162.052Y-117.592
X162.052Y-120.132
T9
X119.843Y-67.406
X119.862Y-122.575
X173.0Y-95.0
M30
