%TF.GenerationSoftware,KiCad,Pcbnew,10.0.3*%
%TF.CreationDate,2026-09-12T20:38:51-03:00*%
%TF.ProjectId,interfacecircuito,696e7465-7266-4616-9365-636972637569,rev?*%
%TF.SameCoordinates,Original*%
%TF.FileFunction,AssemblyDrawing,Top*%
%FSLAX46Y46*%
G04 Gerber Fmt 4.6, Leading zero omitted, Abs format (unit mm)*
G04 Created by KiCad (PCBNEW 10.0.3) date 2026-09-12 20:38:51*
%MOMM*%
%LPD*%
G01*
G04 APERTURE LIST*
%ADD10C,0.150000*%
%ADD11C,0.120000*%
%ADD12C,0.100000*%
%ADD13C,0.127000*%
G04 APERTURE END LIST*
D10*
X141238095Y-122804819D02*
X141238095Y-121804819D01*
X141238095Y-121804819D02*
X141571428Y-122519104D01*
X141571428Y-122519104D02*
X141904761Y-121804819D01*
X141904761Y-121804819D02*
X141904761Y-122804819D01*
X142380952Y-121804819D02*
X142380952Y-122614342D01*
X142380952Y-122614342D02*
X142428571Y-122709580D01*
X142428571Y-122709580D02*
X142476190Y-122757200D01*
X142476190Y-122757200D02*
X142571428Y-122804819D01*
X142571428Y-122804819D02*
X142761904Y-122804819D01*
X142761904Y-122804819D02*
X142857142Y-122757200D01*
X142857142Y-122757200D02*
X142904761Y-122709580D01*
X142904761Y-122709580D02*
X142952380Y-122614342D01*
X142952380Y-122614342D02*
X142952380Y-121804819D01*
X143999999Y-122804819D02*
X143666666Y-122328628D01*
X143428571Y-122804819D02*
X143428571Y-121804819D01*
X143428571Y-121804819D02*
X143809523Y-121804819D01*
X143809523Y-121804819D02*
X143904761Y-121852438D01*
X143904761Y-121852438D02*
X143952380Y-121900057D01*
X143952380Y-121900057D02*
X143999999Y-121995295D01*
X143999999Y-121995295D02*
X143999999Y-122138152D01*
X143999999Y-122138152D02*
X143952380Y-122233390D01*
X143952380Y-122233390D02*
X143904761Y-122281009D01*
X143904761Y-122281009D02*
X143809523Y-122328628D01*
X143809523Y-122328628D02*
X143428571Y-122328628D01*
X144952380Y-122804819D02*
X144380952Y-122804819D01*
X144666666Y-122804819D02*
X144666666Y-121804819D01*
X144666666Y-121804819D02*
X144571428Y-121947676D01*
X144571428Y-121947676D02*
X144476190Y-122042914D01*
X144476190Y-122042914D02*
X144380952Y-122090533D01*
X145857142Y-121804819D02*
X145380952Y-121804819D01*
X145380952Y-121804819D02*
X145333333Y-122281009D01*
X145333333Y-122281009D02*
X145380952Y-122233390D01*
X145380952Y-122233390D02*
X145476190Y-122185771D01*
X145476190Y-122185771D02*
X145714285Y-122185771D01*
X145714285Y-122185771D02*
X145809523Y-122233390D01*
X145809523Y-122233390D02*
X145857142Y-122281009D01*
X145857142Y-122281009D02*
X145904761Y-122376247D01*
X145904761Y-122376247D02*
X145904761Y-122614342D01*
X145904761Y-122614342D02*
X145857142Y-122709580D01*
X145857142Y-122709580D02*
X145809523Y-122757200D01*
X145809523Y-122757200D02*
X145714285Y-122804819D01*
X145714285Y-122804819D02*
X145476190Y-122804819D01*
X145476190Y-122804819D02*
X145380952Y-122757200D01*
X145380952Y-122757200D02*
X145333333Y-122709580D01*
X146761904Y-121804819D02*
X146571428Y-121804819D01*
X146571428Y-121804819D02*
X146476190Y-121852438D01*
X146476190Y-121852438D02*
X146428571Y-121900057D01*
X146428571Y-121900057D02*
X146333333Y-122042914D01*
X146333333Y-122042914D02*
X146285714Y-122233390D01*
X146285714Y-122233390D02*
X146285714Y-122614342D01*
X146285714Y-122614342D02*
X146333333Y-122709580D01*
X146333333Y-122709580D02*
X146380952Y-122757200D01*
X146380952Y-122757200D02*
X146476190Y-122804819D01*
X146476190Y-122804819D02*
X146666666Y-122804819D01*
X146666666Y-122804819D02*
X146761904Y-122757200D01*
X146761904Y-122757200D02*
X146809523Y-122709580D01*
X146809523Y-122709580D02*
X146857142Y-122614342D01*
X146857142Y-122614342D02*
X146857142Y-122376247D01*
X146857142Y-122376247D02*
X146809523Y-122281009D01*
X146809523Y-122281009D02*
X146761904Y-122233390D01*
X146761904Y-122233390D02*
X146666666Y-122185771D01*
X146666666Y-122185771D02*
X146476190Y-122185771D01*
X146476190Y-122185771D02*
X146380952Y-122233390D01*
X146380952Y-122233390D02*
X146333333Y-122281009D01*
X146333333Y-122281009D02*
X146285714Y-122376247D01*
X147476190Y-121804819D02*
X147571428Y-121804819D01*
X147571428Y-121804819D02*
X147666666Y-121852438D01*
X147666666Y-121852438D02*
X147714285Y-121900057D01*
X147714285Y-121900057D02*
X147761904Y-121995295D01*
X147761904Y-121995295D02*
X147809523Y-122185771D01*
X147809523Y-122185771D02*
X147809523Y-122423866D01*
X147809523Y-122423866D02*
X147761904Y-122614342D01*
X147761904Y-122614342D02*
X147714285Y-122709580D01*
X147714285Y-122709580D02*
X147666666Y-122757200D01*
X147666666Y-122757200D02*
X147571428Y-122804819D01*
X147571428Y-122804819D02*
X147476190Y-122804819D01*
X147476190Y-122804819D02*
X147380952Y-122757200D01*
X147380952Y-122757200D02*
X147333333Y-122709580D01*
X147333333Y-122709580D02*
X147285714Y-122614342D01*
X147285714Y-122614342D02*
X147238095Y-122423866D01*
X147238095Y-122423866D02*
X147238095Y-122185771D01*
X147238095Y-122185771D02*
X147285714Y-121995295D01*
X147285714Y-121995295D02*
X147333333Y-121900057D01*
X147333333Y-121900057D02*
X147380952Y-121852438D01*
X147380952Y-121852438D02*
X147476190Y-121804819D01*
X143761905Y-125954819D02*
X143761905Y-124954819D01*
X143761905Y-124954819D02*
X144000000Y-124954819D01*
X144000000Y-124954819D02*
X144142857Y-125002438D01*
X144142857Y-125002438D02*
X144238095Y-125097676D01*
X144238095Y-125097676D02*
X144285714Y-125192914D01*
X144285714Y-125192914D02*
X144333333Y-125383390D01*
X144333333Y-125383390D02*
X144333333Y-125526247D01*
X144333333Y-125526247D02*
X144285714Y-125716723D01*
X144285714Y-125716723D02*
X144238095Y-125811961D01*
X144238095Y-125811961D02*
X144142857Y-125907200D01*
X144142857Y-125907200D02*
X144000000Y-125954819D01*
X144000000Y-125954819D02*
X143761905Y-125954819D01*
X145285714Y-125954819D02*
X144714286Y-125954819D01*
X145000000Y-125954819D02*
X145000000Y-124954819D01*
X145000000Y-124954819D02*
X144904762Y-125097676D01*
X144904762Y-125097676D02*
X144809524Y-125192914D01*
X144809524Y-125192914D02*
X144714286Y-125240533D01*
X132619819Y-79095238D02*
X132619819Y-79666666D01*
X132619819Y-79380952D02*
X131619819Y-79380952D01*
X131619819Y-79380952D02*
X131762676Y-79476190D01*
X131762676Y-79476190D02*
X131857914Y-79571428D01*
X131857914Y-79571428D02*
X131905533Y-79666666D01*
X131619819Y-78476190D02*
X131619819Y-78380952D01*
X131619819Y-78380952D02*
X131667438Y-78285714D01*
X131667438Y-78285714D02*
X131715057Y-78238095D01*
X131715057Y-78238095D02*
X131810295Y-78190476D01*
X131810295Y-78190476D02*
X132000771Y-78142857D01*
X132000771Y-78142857D02*
X132238866Y-78142857D01*
X132238866Y-78142857D02*
X132429342Y-78190476D01*
X132429342Y-78190476D02*
X132524580Y-78238095D01*
X132524580Y-78238095D02*
X132572200Y-78285714D01*
X132572200Y-78285714D02*
X132619819Y-78380952D01*
X132619819Y-78380952D02*
X132619819Y-78476190D01*
X132619819Y-78476190D02*
X132572200Y-78571428D01*
X132572200Y-78571428D02*
X132524580Y-78619047D01*
X132524580Y-78619047D02*
X132429342Y-78666666D01*
X132429342Y-78666666D02*
X132238866Y-78714285D01*
X132238866Y-78714285D02*
X132000771Y-78714285D01*
X132000771Y-78714285D02*
X131810295Y-78666666D01*
X131810295Y-78666666D02*
X131715057Y-78619047D01*
X131715057Y-78619047D02*
X131667438Y-78571428D01*
X131667438Y-78571428D02*
X131619819Y-78476190D01*
X132619819Y-77714285D02*
X131619819Y-77714285D01*
X132238866Y-77619047D02*
X132619819Y-77333333D01*
X131953152Y-77333333D02*
X132334104Y-77714285D01*
X128954819Y-79730238D02*
X128478628Y-80063571D01*
X128954819Y-80301666D02*
X127954819Y-80301666D01*
X127954819Y-80301666D02*
X127954819Y-79920714D01*
X127954819Y-79920714D02*
X128002438Y-79825476D01*
X128002438Y-79825476D02*
X128050057Y-79777857D01*
X128050057Y-79777857D02*
X128145295Y-79730238D01*
X128145295Y-79730238D02*
X128288152Y-79730238D01*
X128288152Y-79730238D02*
X128383390Y-79777857D01*
X128383390Y-79777857D02*
X128431009Y-79825476D01*
X128431009Y-79825476D02*
X128478628Y-79920714D01*
X128478628Y-79920714D02*
X128478628Y-80301666D01*
X127954819Y-79444523D02*
X128954819Y-79111190D01*
X128954819Y-79111190D02*
X127954819Y-78777857D01*
X128954819Y-77920714D02*
X128954819Y-78492142D01*
X128954819Y-78206428D02*
X127954819Y-78206428D01*
X127954819Y-78206428D02*
X128097676Y-78301666D01*
X128097676Y-78301666D02*
X128192914Y-78396904D01*
X128192914Y-78396904D02*
X128240533Y-78492142D01*
X131738095Y-70323866D02*
X132500000Y-70323866D01*
X132119047Y-70704819D02*
X132119047Y-69942914D01*
X133499999Y-70704819D02*
X132928571Y-70704819D01*
X133214285Y-70704819D02*
X133214285Y-69704819D01*
X133214285Y-69704819D02*
X133119047Y-69847676D01*
X133119047Y-69847676D02*
X133023809Y-69942914D01*
X133023809Y-69942914D02*
X132928571Y-69990533D01*
X133880952Y-69800057D02*
X133928571Y-69752438D01*
X133928571Y-69752438D02*
X134023809Y-69704819D01*
X134023809Y-69704819D02*
X134261904Y-69704819D01*
X134261904Y-69704819D02*
X134357142Y-69752438D01*
X134357142Y-69752438D02*
X134404761Y-69800057D01*
X134404761Y-69800057D02*
X134452380Y-69895295D01*
X134452380Y-69895295D02*
X134452380Y-69990533D01*
X134452380Y-69990533D02*
X134404761Y-70133390D01*
X134404761Y-70133390D02*
X133833333Y-70704819D01*
X133833333Y-70704819D02*
X134452380Y-70704819D01*
X134738095Y-69704819D02*
X135071428Y-70704819D01*
X135071428Y-70704819D02*
X135404761Y-69704819D01*
X132238095Y-66304819D02*
X132809523Y-66304819D01*
X132523809Y-67304819D02*
X132523809Y-66304819D01*
X133142857Y-67304819D02*
X133142857Y-66304819D01*
X133142857Y-66304819D02*
X133523809Y-66304819D01*
X133523809Y-66304819D02*
X133619047Y-66352438D01*
X133619047Y-66352438D02*
X133666666Y-66400057D01*
X133666666Y-66400057D02*
X133714285Y-66495295D01*
X133714285Y-66495295D02*
X133714285Y-66638152D01*
X133714285Y-66638152D02*
X133666666Y-66733390D01*
X133666666Y-66733390D02*
X133619047Y-66781009D01*
X133619047Y-66781009D02*
X133523809Y-66828628D01*
X133523809Y-66828628D02*
X133142857Y-66828628D01*
X134095238Y-66400057D02*
X134142857Y-66352438D01*
X134142857Y-66352438D02*
X134238095Y-66304819D01*
X134238095Y-66304819D02*
X134476190Y-66304819D01*
X134476190Y-66304819D02*
X134571428Y-66352438D01*
X134571428Y-66352438D02*
X134619047Y-66400057D01*
X134619047Y-66400057D02*
X134666666Y-66495295D01*
X134666666Y-66495295D02*
X134666666Y-66590533D01*
X134666666Y-66590533D02*
X134619047Y-66733390D01*
X134619047Y-66733390D02*
X134047619Y-67304819D01*
X134047619Y-67304819D02*
X134666666Y-67304819D01*
X91666667Y-104404819D02*
X91666667Y-103404819D01*
X91666667Y-103881009D02*
X92238095Y-103881009D01*
X92238095Y-104404819D02*
X92238095Y-103404819D01*
X92571429Y-103404819D02*
X92904762Y-104404819D01*
X92904762Y-104404819D02*
X93238095Y-103404819D01*
X93571429Y-104023866D02*
X94333334Y-104023866D01*
X91261905Y-98454819D02*
X91833333Y-98454819D01*
X91547619Y-99454819D02*
X91547619Y-98454819D01*
X92166667Y-99454819D02*
X92166667Y-98454819D01*
X92166667Y-98454819D02*
X92547619Y-98454819D01*
X92547619Y-98454819D02*
X92642857Y-98502438D01*
X92642857Y-98502438D02*
X92690476Y-98550057D01*
X92690476Y-98550057D02*
X92738095Y-98645295D01*
X92738095Y-98645295D02*
X92738095Y-98788152D01*
X92738095Y-98788152D02*
X92690476Y-98883390D01*
X92690476Y-98883390D02*
X92642857Y-98931009D01*
X92642857Y-98931009D02*
X92547619Y-98978628D01*
X92547619Y-98978628D02*
X92166667Y-98978628D01*
X93690476Y-99454819D02*
X93119048Y-99454819D01*
X93404762Y-99454819D02*
X93404762Y-98454819D01*
X93404762Y-98454819D02*
X93309524Y-98597676D01*
X93309524Y-98597676D02*
X93214286Y-98692914D01*
X93214286Y-98692914D02*
X93119048Y-98740533D01*
X94547619Y-98454819D02*
X94357143Y-98454819D01*
X94357143Y-98454819D02*
X94261905Y-98502438D01*
X94261905Y-98502438D02*
X94214286Y-98550057D01*
X94214286Y-98550057D02*
X94119048Y-98692914D01*
X94119048Y-98692914D02*
X94071429Y-98883390D01*
X94071429Y-98883390D02*
X94071429Y-99264342D01*
X94071429Y-99264342D02*
X94119048Y-99359580D01*
X94119048Y-99359580D02*
X94166667Y-99407200D01*
X94166667Y-99407200D02*
X94261905Y-99454819D01*
X94261905Y-99454819D02*
X94452381Y-99454819D01*
X94452381Y-99454819D02*
X94547619Y-99407200D01*
X94547619Y-99407200D02*
X94595238Y-99359580D01*
X94595238Y-99359580D02*
X94642857Y-99264342D01*
X94642857Y-99264342D02*
X94642857Y-99026247D01*
X94642857Y-99026247D02*
X94595238Y-98931009D01*
X94595238Y-98931009D02*
X94547619Y-98883390D01*
X94547619Y-98883390D02*
X94452381Y-98835771D01*
X94452381Y-98835771D02*
X94261905Y-98835771D01*
X94261905Y-98835771D02*
X94166667Y-98883390D01*
X94166667Y-98883390D02*
X94119048Y-98931009D01*
X94119048Y-98931009D02*
X94071429Y-99026247D01*
X128914819Y-108147857D02*
X128914819Y-108624047D01*
X128914819Y-108624047D02*
X127914819Y-108624047D01*
X128391009Y-107814523D02*
X128391009Y-107481190D01*
X128914819Y-107338333D02*
X128914819Y-107814523D01*
X128914819Y-107814523D02*
X127914819Y-107814523D01*
X127914819Y-107814523D02*
X127914819Y-107338333D01*
X128914819Y-106909761D02*
X127914819Y-106909761D01*
X127914819Y-106909761D02*
X127914819Y-106671666D01*
X127914819Y-106671666D02*
X127962438Y-106528809D01*
X127962438Y-106528809D02*
X128057676Y-106433571D01*
X128057676Y-106433571D02*
X128152914Y-106385952D01*
X128152914Y-106385952D02*
X128343390Y-106338333D01*
X128343390Y-106338333D02*
X128486247Y-106338333D01*
X128486247Y-106338333D02*
X128676723Y-106385952D01*
X128676723Y-106385952D02*
X128771961Y-106433571D01*
X128771961Y-106433571D02*
X128867200Y-106528809D01*
X128867200Y-106528809D02*
X128914819Y-106671666D01*
X128914819Y-106671666D02*
X128914819Y-106909761D01*
D11*
X124863855Y-108095475D02*
X124063855Y-108095475D01*
X124063855Y-108095475D02*
X124063855Y-107904999D01*
X124063855Y-107904999D02*
X124101950Y-107790713D01*
X124101950Y-107790713D02*
X124178140Y-107714523D01*
X124178140Y-107714523D02*
X124254331Y-107676428D01*
X124254331Y-107676428D02*
X124406712Y-107638332D01*
X124406712Y-107638332D02*
X124520998Y-107638332D01*
X124520998Y-107638332D02*
X124673379Y-107676428D01*
X124673379Y-107676428D02*
X124749569Y-107714523D01*
X124749569Y-107714523D02*
X124825760Y-107790713D01*
X124825760Y-107790713D02*
X124863855Y-107904999D01*
X124863855Y-107904999D02*
X124863855Y-108095475D01*
X124063855Y-106952618D02*
X124063855Y-107104999D01*
X124063855Y-107104999D02*
X124101950Y-107181190D01*
X124101950Y-107181190D02*
X124140045Y-107219285D01*
X124140045Y-107219285D02*
X124254331Y-107295475D01*
X124254331Y-107295475D02*
X124406712Y-107333571D01*
X124406712Y-107333571D02*
X124711474Y-107333571D01*
X124711474Y-107333571D02*
X124787664Y-107295475D01*
X124787664Y-107295475D02*
X124825760Y-107257380D01*
X124825760Y-107257380D02*
X124863855Y-107181190D01*
X124863855Y-107181190D02*
X124863855Y-107028809D01*
X124863855Y-107028809D02*
X124825760Y-106952618D01*
X124825760Y-106952618D02*
X124787664Y-106914523D01*
X124787664Y-106914523D02*
X124711474Y-106876428D01*
X124711474Y-106876428D02*
X124520998Y-106876428D01*
X124520998Y-106876428D02*
X124444807Y-106914523D01*
X124444807Y-106914523D02*
X124406712Y-106952618D01*
X124406712Y-106952618D02*
X124368617Y-107028809D01*
X124368617Y-107028809D02*
X124368617Y-107181190D01*
X124368617Y-107181190D02*
X124406712Y-107257380D01*
X124406712Y-107257380D02*
X124444807Y-107295475D01*
X124444807Y-107295475D02*
X124520998Y-107333571D01*
D10*
X55142857Y-87204819D02*
X55142857Y-86204819D01*
X55714285Y-87204819D02*
X55285714Y-86633390D01*
X55714285Y-86204819D02*
X55142857Y-86776247D01*
X56142857Y-87204819D02*
X56142857Y-86204819D01*
X57190475Y-87109580D02*
X57142856Y-87157200D01*
X57142856Y-87157200D02*
X56999999Y-87204819D01*
X56999999Y-87204819D02*
X56904761Y-87204819D01*
X56904761Y-87204819D02*
X56761904Y-87157200D01*
X56761904Y-87157200D02*
X56666666Y-87061961D01*
X56666666Y-87061961D02*
X56619047Y-86966723D01*
X56619047Y-86966723D02*
X56571428Y-86776247D01*
X56571428Y-86776247D02*
X56571428Y-86633390D01*
X56571428Y-86633390D02*
X56619047Y-86442914D01*
X56619047Y-86442914D02*
X56666666Y-86347676D01*
X56666666Y-86347676D02*
X56761904Y-86252438D01*
X56761904Y-86252438D02*
X56904761Y-86204819D01*
X56904761Y-86204819D02*
X56999999Y-86204819D01*
X56999999Y-86204819D02*
X57142856Y-86252438D01*
X57142856Y-86252438D02*
X57190475Y-86300057D01*
X57619047Y-87204819D02*
X57619047Y-86204819D01*
X58190475Y-87204819D02*
X57761904Y-86633390D01*
X58190475Y-86204819D02*
X57619047Y-86776247D01*
X58380952Y-87300057D02*
X59142856Y-87300057D01*
X59380952Y-87204819D02*
X59380952Y-86204819D01*
X59380952Y-86204819D02*
X59761904Y-86204819D01*
X59761904Y-86204819D02*
X59857142Y-86252438D01*
X59857142Y-86252438D02*
X59904761Y-86300057D01*
X59904761Y-86300057D02*
X59952380Y-86395295D01*
X59952380Y-86395295D02*
X59952380Y-86538152D01*
X59952380Y-86538152D02*
X59904761Y-86633390D01*
X59904761Y-86633390D02*
X59857142Y-86681009D01*
X59857142Y-86681009D02*
X59761904Y-86728628D01*
X59761904Y-86728628D02*
X59380952Y-86728628D01*
X60285714Y-86204819D02*
X60523809Y-87204819D01*
X60523809Y-87204819D02*
X60714285Y-86490533D01*
X60714285Y-86490533D02*
X60904761Y-87204819D01*
X60904761Y-87204819D02*
X61142857Y-86204819D01*
X61523809Y-87204819D02*
X61523809Y-86204819D01*
X61523809Y-86204819D02*
X61857142Y-86919104D01*
X61857142Y-86919104D02*
X62190475Y-86204819D01*
X62190475Y-86204819D02*
X62190475Y-87204819D01*
X62428571Y-87300057D02*
X63190475Y-87300057D01*
X63428571Y-87204819D02*
X63428571Y-86204819D01*
X63428571Y-86681009D02*
X63999999Y-86681009D01*
X63999999Y-87204819D02*
X63999999Y-86204819D01*
X64333333Y-86204819D02*
X64666666Y-87204819D01*
X64666666Y-87204819D02*
X64999999Y-86204819D01*
X58738095Y-82804819D02*
X59309523Y-82804819D01*
X59023809Y-83804819D02*
X59023809Y-82804819D01*
X59642857Y-83804819D02*
X59642857Y-82804819D01*
X59642857Y-82804819D02*
X60023809Y-82804819D01*
X60023809Y-82804819D02*
X60119047Y-82852438D01*
X60119047Y-82852438D02*
X60166666Y-82900057D01*
X60166666Y-82900057D02*
X60214285Y-82995295D01*
X60214285Y-82995295D02*
X60214285Y-83138152D01*
X60214285Y-83138152D02*
X60166666Y-83233390D01*
X60166666Y-83233390D02*
X60119047Y-83281009D01*
X60119047Y-83281009D02*
X60023809Y-83328628D01*
X60023809Y-83328628D02*
X59642857Y-83328628D01*
X61071428Y-82804819D02*
X60880952Y-82804819D01*
X60880952Y-82804819D02*
X60785714Y-82852438D01*
X60785714Y-82852438D02*
X60738095Y-82900057D01*
X60738095Y-82900057D02*
X60642857Y-83042914D01*
X60642857Y-83042914D02*
X60595238Y-83233390D01*
X60595238Y-83233390D02*
X60595238Y-83614342D01*
X60595238Y-83614342D02*
X60642857Y-83709580D01*
X60642857Y-83709580D02*
X60690476Y-83757200D01*
X60690476Y-83757200D02*
X60785714Y-83804819D01*
X60785714Y-83804819D02*
X60976190Y-83804819D01*
X60976190Y-83804819D02*
X61071428Y-83757200D01*
X61071428Y-83757200D02*
X61119047Y-83709580D01*
X61119047Y-83709580D02*
X61166666Y-83614342D01*
X61166666Y-83614342D02*
X61166666Y-83376247D01*
X61166666Y-83376247D02*
X61119047Y-83281009D01*
X61119047Y-83281009D02*
X61071428Y-83233390D01*
X61071428Y-83233390D02*
X60976190Y-83185771D01*
X60976190Y-83185771D02*
X60785714Y-83185771D01*
X60785714Y-83185771D02*
X60690476Y-83233390D01*
X60690476Y-83233390D02*
X60642857Y-83281009D01*
X60642857Y-83281009D02*
X60595238Y-83376247D01*
X132593333Y-115954819D02*
X132260000Y-115478628D01*
X132021905Y-115954819D02*
X132021905Y-114954819D01*
X132021905Y-114954819D02*
X132402857Y-114954819D01*
X132402857Y-114954819D02*
X132498095Y-115002438D01*
X132498095Y-115002438D02*
X132545714Y-115050057D01*
X132545714Y-115050057D02*
X132593333Y-115145295D01*
X132593333Y-115145295D02*
X132593333Y-115288152D01*
X132593333Y-115288152D02*
X132545714Y-115383390D01*
X132545714Y-115383390D02*
X132498095Y-115431009D01*
X132498095Y-115431009D02*
X132402857Y-115478628D01*
X132402857Y-115478628D02*
X132021905Y-115478628D01*
X133450476Y-115288152D02*
X133450476Y-115954819D01*
X133212381Y-114907200D02*
X132974286Y-115621485D01*
X132974286Y-115621485D02*
X133593333Y-115621485D01*
X134324819Y-105095238D02*
X134324819Y-105666666D01*
X134324819Y-105380952D02*
X133324819Y-105380952D01*
X133324819Y-105380952D02*
X133467676Y-105476190D01*
X133467676Y-105476190D02*
X133562914Y-105571428D01*
X133562914Y-105571428D02*
X133610533Y-105666666D01*
X133324819Y-104476190D02*
X133324819Y-104380952D01*
X133324819Y-104380952D02*
X133372438Y-104285714D01*
X133372438Y-104285714D02*
X133420057Y-104238095D01*
X133420057Y-104238095D02*
X133515295Y-104190476D01*
X133515295Y-104190476D02*
X133705771Y-104142857D01*
X133705771Y-104142857D02*
X133943866Y-104142857D01*
X133943866Y-104142857D02*
X134134342Y-104190476D01*
X134134342Y-104190476D02*
X134229580Y-104238095D01*
X134229580Y-104238095D02*
X134277200Y-104285714D01*
X134277200Y-104285714D02*
X134324819Y-104380952D01*
X134324819Y-104380952D02*
X134324819Y-104476190D01*
X134324819Y-104476190D02*
X134277200Y-104571428D01*
X134277200Y-104571428D02*
X134229580Y-104619047D01*
X134229580Y-104619047D02*
X134134342Y-104666666D01*
X134134342Y-104666666D02*
X133943866Y-104714285D01*
X133943866Y-104714285D02*
X133705771Y-104714285D01*
X133705771Y-104714285D02*
X133515295Y-104666666D01*
X133515295Y-104666666D02*
X133420057Y-104619047D01*
X133420057Y-104619047D02*
X133372438Y-104571428D01*
X133372438Y-104571428D02*
X133324819Y-104476190D01*
X134324819Y-103714285D02*
X133324819Y-103714285D01*
X133943866Y-103619047D02*
X134324819Y-103333333D01*
X133658152Y-103333333D02*
X134039104Y-103714285D01*
X131954819Y-104666666D02*
X131478628Y-104999999D01*
X131954819Y-105238094D02*
X130954819Y-105238094D01*
X130954819Y-105238094D02*
X130954819Y-104857142D01*
X130954819Y-104857142D02*
X131002438Y-104761904D01*
X131002438Y-104761904D02*
X131050057Y-104714285D01*
X131050057Y-104714285D02*
X131145295Y-104666666D01*
X131145295Y-104666666D02*
X131288152Y-104666666D01*
X131288152Y-104666666D02*
X131383390Y-104714285D01*
X131383390Y-104714285D02*
X131431009Y-104761904D01*
X131431009Y-104761904D02*
X131478628Y-104857142D01*
X131478628Y-104857142D02*
X131478628Y-105238094D01*
X130954819Y-104333332D02*
X130954819Y-103714285D01*
X130954819Y-103714285D02*
X131335771Y-104047618D01*
X131335771Y-104047618D02*
X131335771Y-103904761D01*
X131335771Y-103904761D02*
X131383390Y-103809523D01*
X131383390Y-103809523D02*
X131431009Y-103761904D01*
X131431009Y-103761904D02*
X131526247Y-103714285D01*
X131526247Y-103714285D02*
X131764342Y-103714285D01*
X131764342Y-103714285D02*
X131859580Y-103761904D01*
X131859580Y-103761904D02*
X131907200Y-103809523D01*
X131907200Y-103809523D02*
X131954819Y-103904761D01*
X131954819Y-103904761D02*
X131954819Y-104190475D01*
X131954819Y-104190475D02*
X131907200Y-104285713D01*
X131907200Y-104285713D02*
X131859580Y-104333332D01*
X133718196Y-76785159D02*
X133861053Y-76832778D01*
X133861053Y-76832778D02*
X133908672Y-76880397D01*
X133908672Y-76880397D02*
X133956291Y-76975635D01*
X133956291Y-76975635D02*
X133956291Y-77118492D01*
X133956291Y-77118492D02*
X133908672Y-77213730D01*
X133908672Y-77213730D02*
X133861053Y-77261350D01*
X133861053Y-77261350D02*
X133765815Y-77308969D01*
X133765815Y-77308969D02*
X133384863Y-77308969D01*
X133384863Y-77308969D02*
X133384863Y-76308969D01*
X133384863Y-76308969D02*
X133718196Y-76308969D01*
X133718196Y-76308969D02*
X133813434Y-76356588D01*
X133813434Y-76356588D02*
X133861053Y-76404207D01*
X133861053Y-76404207D02*
X133908672Y-76499445D01*
X133908672Y-76499445D02*
X133908672Y-76594683D01*
X133908672Y-76594683D02*
X133861053Y-76689921D01*
X133861053Y-76689921D02*
X133813434Y-76737540D01*
X133813434Y-76737540D02*
X133718196Y-76785159D01*
X133718196Y-76785159D02*
X133384863Y-76785159D01*
X134908672Y-77308969D02*
X134337244Y-77308969D01*
X134622958Y-77308969D02*
X134622958Y-76308969D01*
X134622958Y-76308969D02*
X134527720Y-76451826D01*
X134527720Y-76451826D02*
X134432482Y-76547064D01*
X134432482Y-76547064D02*
X134337244Y-76594683D01*
X135289625Y-76404207D02*
X135337244Y-76356588D01*
X135337244Y-76356588D02*
X135432482Y-76308969D01*
X135432482Y-76308969D02*
X135670577Y-76308969D01*
X135670577Y-76308969D02*
X135765815Y-76356588D01*
X135765815Y-76356588D02*
X135813434Y-76404207D01*
X135813434Y-76404207D02*
X135861053Y-76499445D01*
X135861053Y-76499445D02*
X135861053Y-76594683D01*
X135861053Y-76594683D02*
X135813434Y-76737540D01*
X135813434Y-76737540D02*
X135242006Y-77308969D01*
X135242006Y-77308969D02*
X135861053Y-77308969D01*
X136813434Y-77308969D02*
X136242006Y-77308969D01*
X136527720Y-77308969D02*
X136527720Y-76308969D01*
X136527720Y-76308969D02*
X136432482Y-76451826D01*
X136432482Y-76451826D02*
X136337244Y-76547064D01*
X136337244Y-76547064D02*
X136242006Y-76594683D01*
X137718196Y-76308969D02*
X137242006Y-76308969D01*
X137242006Y-76308969D02*
X137194387Y-76785159D01*
X137194387Y-76785159D02*
X137242006Y-76737540D01*
X137242006Y-76737540D02*
X137337244Y-76689921D01*
X137337244Y-76689921D02*
X137575339Y-76689921D01*
X137575339Y-76689921D02*
X137670577Y-76737540D01*
X137670577Y-76737540D02*
X137718196Y-76785159D01*
X137718196Y-76785159D02*
X137765815Y-76880397D01*
X137765815Y-76880397D02*
X137765815Y-77118492D01*
X137765815Y-77118492D02*
X137718196Y-77213730D01*
X137718196Y-77213730D02*
X137670577Y-77261350D01*
X137670577Y-77261350D02*
X137575339Y-77308969D01*
X137575339Y-77308969D02*
X137337244Y-77308969D01*
X137337244Y-77308969D02*
X137242006Y-77261350D01*
X137242006Y-77261350D02*
X137194387Y-77213730D01*
X138146768Y-77261350D02*
X138289625Y-77308969D01*
X138289625Y-77308969D02*
X138527720Y-77308969D01*
X138527720Y-77308969D02*
X138622958Y-77261350D01*
X138622958Y-77261350D02*
X138670577Y-77213730D01*
X138670577Y-77213730D02*
X138718196Y-77118492D01*
X138718196Y-77118492D02*
X138718196Y-77023254D01*
X138718196Y-77023254D02*
X138670577Y-76928016D01*
X138670577Y-76928016D02*
X138622958Y-76880397D01*
X138622958Y-76880397D02*
X138527720Y-76832778D01*
X138527720Y-76832778D02*
X138337244Y-76785159D01*
X138337244Y-76785159D02*
X138242006Y-76737540D01*
X138242006Y-76737540D02*
X138194387Y-76689921D01*
X138194387Y-76689921D02*
X138146768Y-76594683D01*
X138146768Y-76594683D02*
X138146768Y-76499445D01*
X138146768Y-76499445D02*
X138194387Y-76404207D01*
X138194387Y-76404207D02*
X138242006Y-76356588D01*
X138242006Y-76356588D02*
X138337244Y-76308969D01*
X138337244Y-76308969D02*
X138575339Y-76308969D01*
X138575339Y-76308969D02*
X138718196Y-76356588D01*
X141356319Y-70612785D02*
X140356319Y-70612785D01*
X140356319Y-70612785D02*
X140356319Y-70231833D01*
X140356319Y-70231833D02*
X140403938Y-70136595D01*
X140403938Y-70136595D02*
X140451557Y-70088976D01*
X140451557Y-70088976D02*
X140546795Y-70041357D01*
X140546795Y-70041357D02*
X140689652Y-70041357D01*
X140689652Y-70041357D02*
X140784890Y-70088976D01*
X140784890Y-70088976D02*
X140832509Y-70136595D01*
X140832509Y-70136595D02*
X140880128Y-70231833D01*
X140880128Y-70231833D02*
X140880128Y-70612785D01*
X141308700Y-69660404D02*
X141356319Y-69517547D01*
X141356319Y-69517547D02*
X141356319Y-69279452D01*
X141356319Y-69279452D02*
X141308700Y-69184214D01*
X141308700Y-69184214D02*
X141261080Y-69136595D01*
X141261080Y-69136595D02*
X141165842Y-69088976D01*
X141165842Y-69088976D02*
X141070604Y-69088976D01*
X141070604Y-69088976D02*
X140975366Y-69136595D01*
X140975366Y-69136595D02*
X140927747Y-69184214D01*
X140927747Y-69184214D02*
X140880128Y-69279452D01*
X140880128Y-69279452D02*
X140832509Y-69469928D01*
X140832509Y-69469928D02*
X140784890Y-69565166D01*
X140784890Y-69565166D02*
X140737271Y-69612785D01*
X140737271Y-69612785D02*
X140642033Y-69660404D01*
X140642033Y-69660404D02*
X140546795Y-69660404D01*
X140546795Y-69660404D02*
X140451557Y-69612785D01*
X140451557Y-69612785D02*
X140403938Y-69565166D01*
X140403938Y-69565166D02*
X140356319Y-69469928D01*
X140356319Y-69469928D02*
X140356319Y-69231833D01*
X140356319Y-69231833D02*
X140403938Y-69088976D01*
X141356319Y-68136595D02*
X141356319Y-68708023D01*
X141356319Y-68422309D02*
X140356319Y-68422309D01*
X140356319Y-68422309D02*
X140499176Y-68517547D01*
X140499176Y-68517547D02*
X140594414Y-68612785D01*
X140594414Y-68612785D02*
X140642033Y-68708023D01*
X143071428Y-26633390D02*
X142976190Y-26585771D01*
X142976190Y-26585771D02*
X142928571Y-26538152D01*
X142928571Y-26538152D02*
X142880952Y-26442914D01*
X142880952Y-26442914D02*
X142880952Y-26395295D01*
X142880952Y-26395295D02*
X142928571Y-26300057D01*
X142928571Y-26300057D02*
X142976190Y-26252438D01*
X142976190Y-26252438D02*
X143071428Y-26204819D01*
X143071428Y-26204819D02*
X143261904Y-26204819D01*
X143261904Y-26204819D02*
X143357142Y-26252438D01*
X143357142Y-26252438D02*
X143404761Y-26300057D01*
X143404761Y-26300057D02*
X143452380Y-26395295D01*
X143452380Y-26395295D02*
X143452380Y-26442914D01*
X143452380Y-26442914D02*
X143404761Y-26538152D01*
X143404761Y-26538152D02*
X143357142Y-26585771D01*
X143357142Y-26585771D02*
X143261904Y-26633390D01*
X143261904Y-26633390D02*
X143071428Y-26633390D01*
X143071428Y-26633390D02*
X142976190Y-26681009D01*
X142976190Y-26681009D02*
X142928571Y-26728628D01*
X142928571Y-26728628D02*
X142880952Y-26823866D01*
X142880952Y-26823866D02*
X142880952Y-27014342D01*
X142880952Y-27014342D02*
X142928571Y-27109580D01*
X142928571Y-27109580D02*
X142976190Y-27157200D01*
X142976190Y-27157200D02*
X143071428Y-27204819D01*
X143071428Y-27204819D02*
X143261904Y-27204819D01*
X143261904Y-27204819D02*
X143357142Y-27157200D01*
X143357142Y-27157200D02*
X143404761Y-27109580D01*
X143404761Y-27109580D02*
X143452380Y-27014342D01*
X143452380Y-27014342D02*
X143452380Y-26823866D01*
X143452380Y-26823866D02*
X143404761Y-26728628D01*
X143404761Y-26728628D02*
X143357142Y-26681009D01*
X143357142Y-26681009D02*
X143261904Y-26633390D01*
X143833333Y-26300057D02*
X143880952Y-26252438D01*
X143880952Y-26252438D02*
X143976190Y-26204819D01*
X143976190Y-26204819D02*
X144214285Y-26204819D01*
X144214285Y-26204819D02*
X144309523Y-26252438D01*
X144309523Y-26252438D02*
X144357142Y-26300057D01*
X144357142Y-26300057D02*
X144404761Y-26395295D01*
X144404761Y-26395295D02*
X144404761Y-26490533D01*
X144404761Y-26490533D02*
X144357142Y-26633390D01*
X144357142Y-26633390D02*
X143785714Y-27204819D01*
X143785714Y-27204819D02*
X144404761Y-27204819D01*
X145023809Y-26204819D02*
X145119047Y-26204819D01*
X145119047Y-26204819D02*
X145214285Y-26252438D01*
X145214285Y-26252438D02*
X145261904Y-26300057D01*
X145261904Y-26300057D02*
X145309523Y-26395295D01*
X145309523Y-26395295D02*
X145357142Y-26585771D01*
X145357142Y-26585771D02*
X145357142Y-26823866D01*
X145357142Y-26823866D02*
X145309523Y-27014342D01*
X145309523Y-27014342D02*
X145261904Y-27109580D01*
X145261904Y-27109580D02*
X145214285Y-27157200D01*
X145214285Y-27157200D02*
X145119047Y-27204819D01*
X145119047Y-27204819D02*
X145023809Y-27204819D01*
X145023809Y-27204819D02*
X144928571Y-27157200D01*
X144928571Y-27157200D02*
X144880952Y-27109580D01*
X144880952Y-27109580D02*
X144833333Y-27014342D01*
X144833333Y-27014342D02*
X144785714Y-26823866D01*
X144785714Y-26823866D02*
X144785714Y-26585771D01*
X144785714Y-26585771D02*
X144833333Y-26395295D01*
X144833333Y-26395295D02*
X144880952Y-26300057D01*
X144880952Y-26300057D02*
X144928571Y-26252438D01*
X144928571Y-26252438D02*
X145023809Y-26204819D01*
X146214285Y-26538152D02*
X146214285Y-27204819D01*
X145785714Y-26538152D02*
X145785714Y-27061961D01*
X145785714Y-27061961D02*
X145833333Y-27157200D01*
X145833333Y-27157200D02*
X145928571Y-27204819D01*
X145928571Y-27204819D02*
X146071428Y-27204819D01*
X146071428Y-27204819D02*
X146166666Y-27157200D01*
X146166666Y-27157200D02*
X146214285Y-27109580D01*
X147023809Y-26681009D02*
X146690476Y-26681009D01*
X146690476Y-27204819D02*
X146690476Y-26204819D01*
X146690476Y-26204819D02*
X147166666Y-26204819D01*
X144833333Y-43359580D02*
X144785714Y-43407200D01*
X144785714Y-43407200D02*
X144642857Y-43454819D01*
X144642857Y-43454819D02*
X144547619Y-43454819D01*
X144547619Y-43454819D02*
X144404762Y-43407200D01*
X144404762Y-43407200D02*
X144309524Y-43311961D01*
X144309524Y-43311961D02*
X144261905Y-43216723D01*
X144261905Y-43216723D02*
X144214286Y-43026247D01*
X144214286Y-43026247D02*
X144214286Y-42883390D01*
X144214286Y-42883390D02*
X144261905Y-42692914D01*
X144261905Y-42692914D02*
X144309524Y-42597676D01*
X144309524Y-42597676D02*
X144404762Y-42502438D01*
X144404762Y-42502438D02*
X144547619Y-42454819D01*
X144547619Y-42454819D02*
X144642857Y-42454819D01*
X144642857Y-42454819D02*
X144785714Y-42502438D01*
X144785714Y-42502438D02*
X144833333Y-42550057D01*
X145214286Y-42550057D02*
X145261905Y-42502438D01*
X145261905Y-42502438D02*
X145357143Y-42454819D01*
X145357143Y-42454819D02*
X145595238Y-42454819D01*
X145595238Y-42454819D02*
X145690476Y-42502438D01*
X145690476Y-42502438D02*
X145738095Y-42550057D01*
X145738095Y-42550057D02*
X145785714Y-42645295D01*
X145785714Y-42645295D02*
X145785714Y-42740533D01*
X145785714Y-42740533D02*
X145738095Y-42883390D01*
X145738095Y-42883390D02*
X145166667Y-43454819D01*
X145166667Y-43454819D02*
X145785714Y-43454819D01*
X125333333Y-95704819D02*
X125904761Y-95704819D01*
X125619047Y-96704819D02*
X125619047Y-95704819D01*
X126809523Y-96704819D02*
X126476190Y-96228628D01*
X126238095Y-96704819D02*
X126238095Y-95704819D01*
X126238095Y-95704819D02*
X126619047Y-95704819D01*
X126619047Y-95704819D02*
X126714285Y-95752438D01*
X126714285Y-95752438D02*
X126761904Y-95800057D01*
X126761904Y-95800057D02*
X126809523Y-95895295D01*
X126809523Y-95895295D02*
X126809523Y-96038152D01*
X126809523Y-96038152D02*
X126761904Y-96133390D01*
X126761904Y-96133390D02*
X126714285Y-96181009D01*
X126714285Y-96181009D02*
X126619047Y-96228628D01*
X126619047Y-96228628D02*
X126238095Y-96228628D01*
X127238095Y-96704819D02*
X127238095Y-95704819D01*
X128238094Y-95752438D02*
X128142856Y-95704819D01*
X128142856Y-95704819D02*
X127999999Y-95704819D01*
X127999999Y-95704819D02*
X127857142Y-95752438D01*
X127857142Y-95752438D02*
X127761904Y-95847676D01*
X127761904Y-95847676D02*
X127714285Y-95942914D01*
X127714285Y-95942914D02*
X127666666Y-96133390D01*
X127666666Y-96133390D02*
X127666666Y-96276247D01*
X127666666Y-96276247D02*
X127714285Y-96466723D01*
X127714285Y-96466723D02*
X127761904Y-96561961D01*
X127761904Y-96561961D02*
X127857142Y-96657200D01*
X127857142Y-96657200D02*
X127999999Y-96704819D01*
X127999999Y-96704819D02*
X128095237Y-96704819D01*
X128095237Y-96704819D02*
X128238094Y-96657200D01*
X128238094Y-96657200D02*
X128285713Y-96609580D01*
X128285713Y-96609580D02*
X128285713Y-96276247D01*
X128285713Y-96276247D02*
X128095237Y-96276247D01*
X129238094Y-95752438D02*
X129142856Y-95704819D01*
X129142856Y-95704819D02*
X128999999Y-95704819D01*
X128999999Y-95704819D02*
X128857142Y-95752438D01*
X128857142Y-95752438D02*
X128761904Y-95847676D01*
X128761904Y-95847676D02*
X128714285Y-95942914D01*
X128714285Y-95942914D02*
X128666666Y-96133390D01*
X128666666Y-96133390D02*
X128666666Y-96276247D01*
X128666666Y-96276247D02*
X128714285Y-96466723D01*
X128714285Y-96466723D02*
X128761904Y-96561961D01*
X128761904Y-96561961D02*
X128857142Y-96657200D01*
X128857142Y-96657200D02*
X128999999Y-96704819D01*
X128999999Y-96704819D02*
X129095237Y-96704819D01*
X129095237Y-96704819D02*
X129238094Y-96657200D01*
X129238094Y-96657200D02*
X129285713Y-96609580D01*
X129285713Y-96609580D02*
X129285713Y-96276247D01*
X129285713Y-96276247D02*
X129095237Y-96276247D01*
X129714285Y-96181009D02*
X130047618Y-96181009D01*
X130190475Y-96704819D02*
X129714285Y-96704819D01*
X129714285Y-96704819D02*
X129714285Y-95704819D01*
X129714285Y-95704819D02*
X130190475Y-95704819D01*
X131190475Y-96704819D02*
X130857142Y-96228628D01*
X130619047Y-96704819D02*
X130619047Y-95704819D01*
X130619047Y-95704819D02*
X130999999Y-95704819D01*
X130999999Y-95704819D02*
X131095237Y-95752438D01*
X131095237Y-95752438D02*
X131142856Y-95800057D01*
X131142856Y-95800057D02*
X131190475Y-95895295D01*
X131190475Y-95895295D02*
X131190475Y-96038152D01*
X131190475Y-96038152D02*
X131142856Y-96133390D01*
X131142856Y-96133390D02*
X131095237Y-96181009D01*
X131095237Y-96181009D02*
X130999999Y-96228628D01*
X130999999Y-96228628D02*
X130619047Y-96228628D01*
X131380952Y-96800057D02*
X132142856Y-96800057D01*
X132714285Y-96181009D02*
X132857142Y-96228628D01*
X132857142Y-96228628D02*
X132904761Y-96276247D01*
X132904761Y-96276247D02*
X132952380Y-96371485D01*
X132952380Y-96371485D02*
X132952380Y-96514342D01*
X132952380Y-96514342D02*
X132904761Y-96609580D01*
X132904761Y-96609580D02*
X132857142Y-96657200D01*
X132857142Y-96657200D02*
X132761904Y-96704819D01*
X132761904Y-96704819D02*
X132380952Y-96704819D01*
X132380952Y-96704819D02*
X132380952Y-95704819D01*
X132380952Y-95704819D02*
X132714285Y-95704819D01*
X132714285Y-95704819D02*
X132809523Y-95752438D01*
X132809523Y-95752438D02*
X132857142Y-95800057D01*
X132857142Y-95800057D02*
X132904761Y-95895295D01*
X132904761Y-95895295D02*
X132904761Y-95990533D01*
X132904761Y-95990533D02*
X132857142Y-96085771D01*
X132857142Y-96085771D02*
X132809523Y-96133390D01*
X132809523Y-96133390D02*
X132714285Y-96181009D01*
X132714285Y-96181009D02*
X132380952Y-96181009D01*
X133857142Y-96704819D02*
X133380952Y-96704819D01*
X133380952Y-96704819D02*
X133380952Y-95704819D01*
X134190476Y-96181009D02*
X134523809Y-96181009D01*
X134666666Y-96704819D02*
X134190476Y-96704819D01*
X134190476Y-96704819D02*
X134190476Y-95704819D01*
X134190476Y-95704819D02*
X134666666Y-95704819D01*
X135095238Y-96181009D02*
X135428571Y-96181009D01*
X135571428Y-96704819D02*
X135095238Y-96704819D01*
X135095238Y-96704819D02*
X135095238Y-95704819D01*
X135095238Y-95704819D02*
X135571428Y-95704819D01*
X136000000Y-96704819D02*
X136000000Y-95704819D01*
X136000000Y-95704819D02*
X136238095Y-95704819D01*
X136238095Y-95704819D02*
X136380952Y-95752438D01*
X136380952Y-95752438D02*
X136476190Y-95847676D01*
X136476190Y-95847676D02*
X136523809Y-95942914D01*
X136523809Y-95942914D02*
X136571428Y-96133390D01*
X136571428Y-96133390D02*
X136571428Y-96276247D01*
X136571428Y-96276247D02*
X136523809Y-96466723D01*
X136523809Y-96466723D02*
X136476190Y-96561961D01*
X136476190Y-96561961D02*
X136380952Y-96657200D01*
X136380952Y-96657200D02*
X136238095Y-96704819D01*
X136238095Y-96704819D02*
X136000000Y-96704819D01*
X129738095Y-92304819D02*
X130309523Y-92304819D01*
X130023809Y-93304819D02*
X130023809Y-92304819D01*
X130642857Y-93304819D02*
X130642857Y-92304819D01*
X130642857Y-92304819D02*
X131023809Y-92304819D01*
X131023809Y-92304819D02*
X131119047Y-92352438D01*
X131119047Y-92352438D02*
X131166666Y-92400057D01*
X131166666Y-92400057D02*
X131214285Y-92495295D01*
X131214285Y-92495295D02*
X131214285Y-92638152D01*
X131214285Y-92638152D02*
X131166666Y-92733390D01*
X131166666Y-92733390D02*
X131119047Y-92781009D01*
X131119047Y-92781009D02*
X131023809Y-92828628D01*
X131023809Y-92828628D02*
X130642857Y-92828628D01*
X131690476Y-93304819D02*
X131880952Y-93304819D01*
X131880952Y-93304819D02*
X131976190Y-93257200D01*
X131976190Y-93257200D02*
X132023809Y-93209580D01*
X132023809Y-93209580D02*
X132119047Y-93066723D01*
X132119047Y-93066723D02*
X132166666Y-92876247D01*
X132166666Y-92876247D02*
X132166666Y-92495295D01*
X132166666Y-92495295D02*
X132119047Y-92400057D01*
X132119047Y-92400057D02*
X132071428Y-92352438D01*
X132071428Y-92352438D02*
X131976190Y-92304819D01*
X131976190Y-92304819D02*
X131785714Y-92304819D01*
X131785714Y-92304819D02*
X131690476Y-92352438D01*
X131690476Y-92352438D02*
X131642857Y-92400057D01*
X131642857Y-92400057D02*
X131595238Y-92495295D01*
X131595238Y-92495295D02*
X131595238Y-92733390D01*
X131595238Y-92733390D02*
X131642857Y-92828628D01*
X131642857Y-92828628D02*
X131690476Y-92876247D01*
X131690476Y-92876247D02*
X131785714Y-92923866D01*
X131785714Y-92923866D02*
X131976190Y-92923866D01*
X131976190Y-92923866D02*
X132071428Y-92876247D01*
X132071428Y-92876247D02*
X132119047Y-92828628D01*
X132119047Y-92828628D02*
X132166666Y-92733390D01*
X130952380Y-69454819D02*
X130380952Y-69454819D01*
X130666666Y-69454819D02*
X130666666Y-68454819D01*
X130666666Y-68454819D02*
X130571428Y-68597676D01*
X130571428Y-68597676D02*
X130476190Y-68692914D01*
X130476190Y-68692914D02*
X130380952Y-68740533D01*
X131571428Y-68454819D02*
X131666666Y-68454819D01*
X131666666Y-68454819D02*
X131761904Y-68502438D01*
X131761904Y-68502438D02*
X131809523Y-68550057D01*
X131809523Y-68550057D02*
X131857142Y-68645295D01*
X131857142Y-68645295D02*
X131904761Y-68835771D01*
X131904761Y-68835771D02*
X131904761Y-69073866D01*
X131904761Y-69073866D02*
X131857142Y-69264342D01*
X131857142Y-69264342D02*
X131809523Y-69359580D01*
X131809523Y-69359580D02*
X131761904Y-69407200D01*
X131761904Y-69407200D02*
X131666666Y-69454819D01*
X131666666Y-69454819D02*
X131571428Y-69454819D01*
X131571428Y-69454819D02*
X131476190Y-69407200D01*
X131476190Y-69407200D02*
X131428571Y-69359580D01*
X131428571Y-69359580D02*
X131380952Y-69264342D01*
X131380952Y-69264342D02*
X131333333Y-69073866D01*
X131333333Y-69073866D02*
X131333333Y-68835771D01*
X131333333Y-68835771D02*
X131380952Y-68645295D01*
X131380952Y-68645295D02*
X131428571Y-68550057D01*
X131428571Y-68550057D02*
X131476190Y-68502438D01*
X131476190Y-68502438D02*
X131571428Y-68454819D01*
X132523809Y-68454819D02*
X132619047Y-68454819D01*
X132619047Y-68454819D02*
X132714285Y-68502438D01*
X132714285Y-68502438D02*
X132761904Y-68550057D01*
X132761904Y-68550057D02*
X132809523Y-68645295D01*
X132809523Y-68645295D02*
X132857142Y-68835771D01*
X132857142Y-68835771D02*
X132857142Y-69073866D01*
X132857142Y-69073866D02*
X132809523Y-69264342D01*
X132809523Y-69264342D02*
X132761904Y-69359580D01*
X132761904Y-69359580D02*
X132714285Y-69407200D01*
X132714285Y-69407200D02*
X132619047Y-69454819D01*
X132619047Y-69454819D02*
X132523809Y-69454819D01*
X132523809Y-69454819D02*
X132428571Y-69407200D01*
X132428571Y-69407200D02*
X132380952Y-69359580D01*
X132380952Y-69359580D02*
X132333333Y-69264342D01*
X132333333Y-69264342D02*
X132285714Y-69073866D01*
X132285714Y-69073866D02*
X132285714Y-68835771D01*
X132285714Y-68835771D02*
X132333333Y-68645295D01*
X132333333Y-68645295D02*
X132380952Y-68550057D01*
X132380952Y-68550057D02*
X132428571Y-68502438D01*
X132428571Y-68502438D02*
X132523809Y-68454819D01*
X133285714Y-68788152D02*
X133285714Y-69454819D01*
X133285714Y-68883390D02*
X133333333Y-68835771D01*
X133333333Y-68835771D02*
X133428571Y-68788152D01*
X133428571Y-68788152D02*
X133571428Y-68788152D01*
X133571428Y-68788152D02*
X133666666Y-68835771D01*
X133666666Y-68835771D02*
X133714285Y-68931009D01*
X133714285Y-68931009D02*
X133714285Y-69454819D01*
X134523809Y-68931009D02*
X134190476Y-68931009D01*
X134190476Y-69454819D02*
X134190476Y-68454819D01*
X134190476Y-68454819D02*
X134666666Y-68454819D01*
X131857142Y-71859580D02*
X131809523Y-71907200D01*
X131809523Y-71907200D02*
X131666666Y-71954819D01*
X131666666Y-71954819D02*
X131571428Y-71954819D01*
X131571428Y-71954819D02*
X131428571Y-71907200D01*
X131428571Y-71907200D02*
X131333333Y-71811961D01*
X131333333Y-71811961D02*
X131285714Y-71716723D01*
X131285714Y-71716723D02*
X131238095Y-71526247D01*
X131238095Y-71526247D02*
X131238095Y-71383390D01*
X131238095Y-71383390D02*
X131285714Y-71192914D01*
X131285714Y-71192914D02*
X131333333Y-71097676D01*
X131333333Y-71097676D02*
X131428571Y-71002438D01*
X131428571Y-71002438D02*
X131571428Y-70954819D01*
X131571428Y-70954819D02*
X131666666Y-70954819D01*
X131666666Y-70954819D02*
X131809523Y-71002438D01*
X131809523Y-71002438D02*
X131857142Y-71050057D01*
X132809523Y-71954819D02*
X132238095Y-71954819D01*
X132523809Y-71954819D02*
X132523809Y-70954819D01*
X132523809Y-70954819D02*
X132428571Y-71097676D01*
X132428571Y-71097676D02*
X132333333Y-71192914D01*
X132333333Y-71192914D02*
X132238095Y-71240533D01*
X133190476Y-71050057D02*
X133238095Y-71002438D01*
X133238095Y-71002438D02*
X133333333Y-70954819D01*
X133333333Y-70954819D02*
X133571428Y-70954819D01*
X133571428Y-70954819D02*
X133666666Y-71002438D01*
X133666666Y-71002438D02*
X133714285Y-71050057D01*
X133714285Y-71050057D02*
X133761904Y-71145295D01*
X133761904Y-71145295D02*
X133761904Y-71240533D01*
X133761904Y-71240533D02*
X133714285Y-71383390D01*
X133714285Y-71383390D02*
X133142857Y-71954819D01*
X133142857Y-71954819D02*
X133761904Y-71954819D01*
X127904761Y-89824819D02*
X127333333Y-89824819D01*
X127619047Y-89824819D02*
X127619047Y-88824819D01*
X127619047Y-88824819D02*
X127523809Y-88967676D01*
X127523809Y-88967676D02*
X127428571Y-89062914D01*
X127428571Y-89062914D02*
X127333333Y-89110533D01*
X128523809Y-88824819D02*
X128619047Y-88824819D01*
X128619047Y-88824819D02*
X128714285Y-88872438D01*
X128714285Y-88872438D02*
X128761904Y-88920057D01*
X128761904Y-88920057D02*
X128809523Y-89015295D01*
X128809523Y-89015295D02*
X128857142Y-89205771D01*
X128857142Y-89205771D02*
X128857142Y-89443866D01*
X128857142Y-89443866D02*
X128809523Y-89634342D01*
X128809523Y-89634342D02*
X128761904Y-89729580D01*
X128761904Y-89729580D02*
X128714285Y-89777200D01*
X128714285Y-89777200D02*
X128619047Y-89824819D01*
X128619047Y-89824819D02*
X128523809Y-89824819D01*
X128523809Y-89824819D02*
X128428571Y-89777200D01*
X128428571Y-89777200D02*
X128380952Y-89729580D01*
X128380952Y-89729580D02*
X128333333Y-89634342D01*
X128333333Y-89634342D02*
X128285714Y-89443866D01*
X128285714Y-89443866D02*
X128285714Y-89205771D01*
X128285714Y-89205771D02*
X128333333Y-89015295D01*
X128333333Y-89015295D02*
X128380952Y-88920057D01*
X128380952Y-88920057D02*
X128428571Y-88872438D01*
X128428571Y-88872438D02*
X128523809Y-88824819D01*
X129285714Y-89824819D02*
X129285714Y-88824819D01*
X129380952Y-89443866D02*
X129666666Y-89824819D01*
X129666666Y-89158152D02*
X129285714Y-89539104D01*
X127857142Y-87454819D02*
X127523809Y-86978628D01*
X127285714Y-87454819D02*
X127285714Y-86454819D01*
X127285714Y-86454819D02*
X127666666Y-86454819D01*
X127666666Y-86454819D02*
X127761904Y-86502438D01*
X127761904Y-86502438D02*
X127809523Y-86550057D01*
X127809523Y-86550057D02*
X127857142Y-86645295D01*
X127857142Y-86645295D02*
X127857142Y-86788152D01*
X127857142Y-86788152D02*
X127809523Y-86883390D01*
X127809523Y-86883390D02*
X127761904Y-86931009D01*
X127761904Y-86931009D02*
X127666666Y-86978628D01*
X127666666Y-86978628D02*
X127285714Y-86978628D01*
X128809523Y-87454819D02*
X128238095Y-87454819D01*
X128523809Y-87454819D02*
X128523809Y-86454819D01*
X128523809Y-86454819D02*
X128428571Y-86597676D01*
X128428571Y-86597676D02*
X128333333Y-86692914D01*
X128333333Y-86692914D02*
X128238095Y-86740533D01*
X129142857Y-86454819D02*
X129809523Y-86454819D01*
X129809523Y-86454819D02*
X129380952Y-87454819D01*
X139104819Y-107833332D02*
X138104819Y-107833332D01*
X139104819Y-106785714D02*
X138628628Y-107119047D01*
X139104819Y-107357142D02*
X138104819Y-107357142D01*
X138104819Y-107357142D02*
X138104819Y-106976190D01*
X138104819Y-106976190D02*
X138152438Y-106880952D01*
X138152438Y-106880952D02*
X138200057Y-106833333D01*
X138200057Y-106833333D02*
X138295295Y-106785714D01*
X138295295Y-106785714D02*
X138438152Y-106785714D01*
X138438152Y-106785714D02*
X138533390Y-106833333D01*
X138533390Y-106833333D02*
X138581009Y-106880952D01*
X138581009Y-106880952D02*
X138628628Y-106976190D01*
X138628628Y-106976190D02*
X138628628Y-107357142D01*
X138581009Y-106023809D02*
X138581009Y-106357142D01*
X139104819Y-106357142D02*
X138104819Y-106357142D01*
X138104819Y-106357142D02*
X138104819Y-105880952D01*
X138581009Y-105166666D02*
X138628628Y-105023809D01*
X138628628Y-105023809D02*
X138676247Y-104976190D01*
X138676247Y-104976190D02*
X138771485Y-104928571D01*
X138771485Y-104928571D02*
X138914342Y-104928571D01*
X138914342Y-104928571D02*
X139009580Y-104976190D01*
X139009580Y-104976190D02*
X139057200Y-105023809D01*
X139057200Y-105023809D02*
X139104819Y-105119047D01*
X139104819Y-105119047D02*
X139104819Y-105499999D01*
X139104819Y-105499999D02*
X138104819Y-105499999D01*
X138104819Y-105499999D02*
X138104819Y-105166666D01*
X138104819Y-105166666D02*
X138152438Y-105071428D01*
X138152438Y-105071428D02*
X138200057Y-105023809D01*
X138200057Y-105023809D02*
X138295295Y-104976190D01*
X138295295Y-104976190D02*
X138390533Y-104976190D01*
X138390533Y-104976190D02*
X138485771Y-105023809D01*
X138485771Y-105023809D02*
X138533390Y-105071428D01*
X138533390Y-105071428D02*
X138581009Y-105166666D01*
X138581009Y-105166666D02*
X138581009Y-105499999D01*
X138104819Y-104595237D02*
X138104819Y-103976190D01*
X138104819Y-103976190D02*
X138485771Y-104309523D01*
X138485771Y-104309523D02*
X138485771Y-104166666D01*
X138485771Y-104166666D02*
X138533390Y-104071428D01*
X138533390Y-104071428D02*
X138581009Y-104023809D01*
X138581009Y-104023809D02*
X138676247Y-103976190D01*
X138676247Y-103976190D02*
X138914342Y-103976190D01*
X138914342Y-103976190D02*
X139009580Y-104023809D01*
X139009580Y-104023809D02*
X139057200Y-104071428D01*
X139057200Y-104071428D02*
X139104819Y-104166666D01*
X139104819Y-104166666D02*
X139104819Y-104452380D01*
X139104819Y-104452380D02*
X139057200Y-104547618D01*
X139057200Y-104547618D02*
X139009580Y-104595237D01*
X138104819Y-103357142D02*
X138104819Y-103261904D01*
X138104819Y-103261904D02*
X138152438Y-103166666D01*
X138152438Y-103166666D02*
X138200057Y-103119047D01*
X138200057Y-103119047D02*
X138295295Y-103071428D01*
X138295295Y-103071428D02*
X138485771Y-103023809D01*
X138485771Y-103023809D02*
X138723866Y-103023809D01*
X138723866Y-103023809D02*
X138914342Y-103071428D01*
X138914342Y-103071428D02*
X139009580Y-103119047D01*
X139009580Y-103119047D02*
X139057200Y-103166666D01*
X139057200Y-103166666D02*
X139104819Y-103261904D01*
X139104819Y-103261904D02*
X139104819Y-103357142D01*
X139104819Y-103357142D02*
X139057200Y-103452380D01*
X139057200Y-103452380D02*
X139009580Y-103499999D01*
X139009580Y-103499999D02*
X138914342Y-103547618D01*
X138914342Y-103547618D02*
X138723866Y-103595237D01*
X138723866Y-103595237D02*
X138485771Y-103595237D01*
X138485771Y-103595237D02*
X138295295Y-103547618D01*
X138295295Y-103547618D02*
X138200057Y-103499999D01*
X138200057Y-103499999D02*
X138152438Y-103452380D01*
X138152438Y-103452380D02*
X138104819Y-103357142D01*
X138104819Y-102690475D02*
X138104819Y-102023809D01*
X138104819Y-102023809D02*
X139104819Y-102452380D01*
X138104819Y-101738094D02*
X138104819Y-101071428D01*
X138104819Y-101071428D02*
X139104819Y-101499999D01*
X136050057Y-104595238D02*
X136002438Y-104690476D01*
X136002438Y-104690476D02*
X135907200Y-104785714D01*
X135907200Y-104785714D02*
X135764342Y-104928571D01*
X135764342Y-104928571D02*
X135716723Y-105023809D01*
X135716723Y-105023809D02*
X135716723Y-105119047D01*
X135954819Y-105071428D02*
X135907200Y-105166666D01*
X135907200Y-105166666D02*
X135811961Y-105261904D01*
X135811961Y-105261904D02*
X135621485Y-105309523D01*
X135621485Y-105309523D02*
X135288152Y-105309523D01*
X135288152Y-105309523D02*
X135097676Y-105261904D01*
X135097676Y-105261904D02*
X135002438Y-105166666D01*
X135002438Y-105166666D02*
X134954819Y-105071428D01*
X134954819Y-105071428D02*
X134954819Y-104880952D01*
X134954819Y-104880952D02*
X135002438Y-104785714D01*
X135002438Y-104785714D02*
X135097676Y-104690476D01*
X135097676Y-104690476D02*
X135288152Y-104642857D01*
X135288152Y-104642857D02*
X135621485Y-104642857D01*
X135621485Y-104642857D02*
X135811961Y-104690476D01*
X135811961Y-104690476D02*
X135907200Y-104785714D01*
X135907200Y-104785714D02*
X135954819Y-104880952D01*
X135954819Y-104880952D02*
X135954819Y-105071428D01*
X135954819Y-103690476D02*
X135954819Y-104261904D01*
X135954819Y-103976190D02*
X134954819Y-103976190D01*
X134954819Y-103976190D02*
X135097676Y-104071428D01*
X135097676Y-104071428D02*
X135192914Y-104166666D01*
X135192914Y-104166666D02*
X135240533Y-104261904D01*
X127459580Y-72738095D02*
X127507200Y-72785714D01*
X127507200Y-72785714D02*
X127554819Y-72928571D01*
X127554819Y-72928571D02*
X127554819Y-73023809D01*
X127554819Y-73023809D02*
X127507200Y-73166666D01*
X127507200Y-73166666D02*
X127411961Y-73261904D01*
X127411961Y-73261904D02*
X127316723Y-73309523D01*
X127316723Y-73309523D02*
X127126247Y-73357142D01*
X127126247Y-73357142D02*
X126983390Y-73357142D01*
X126983390Y-73357142D02*
X126792914Y-73309523D01*
X126792914Y-73309523D02*
X126697676Y-73261904D01*
X126697676Y-73261904D02*
X126602438Y-73166666D01*
X126602438Y-73166666D02*
X126554819Y-73023809D01*
X126554819Y-73023809D02*
X126554819Y-72928571D01*
X126554819Y-72928571D02*
X126602438Y-72785714D01*
X126602438Y-72785714D02*
X126650057Y-72738095D01*
X127554819Y-72166666D02*
X127507200Y-72261904D01*
X127507200Y-72261904D02*
X127459580Y-72309523D01*
X127459580Y-72309523D02*
X127364342Y-72357142D01*
X127364342Y-72357142D02*
X127078628Y-72357142D01*
X127078628Y-72357142D02*
X126983390Y-72309523D01*
X126983390Y-72309523D02*
X126935771Y-72261904D01*
X126935771Y-72261904D02*
X126888152Y-72166666D01*
X126888152Y-72166666D02*
X126888152Y-72023809D01*
X126888152Y-72023809D02*
X126935771Y-71928571D01*
X126935771Y-71928571D02*
X126983390Y-71880952D01*
X126983390Y-71880952D02*
X127078628Y-71833333D01*
X127078628Y-71833333D02*
X127364342Y-71833333D01*
X127364342Y-71833333D02*
X127459580Y-71880952D01*
X127459580Y-71880952D02*
X127507200Y-71928571D01*
X127507200Y-71928571D02*
X127554819Y-72023809D01*
X127554819Y-72023809D02*
X127554819Y-72166666D01*
X126888152Y-71404761D02*
X127554819Y-71404761D01*
X126983390Y-71404761D02*
X126935771Y-71357142D01*
X126935771Y-71357142D02*
X126888152Y-71261904D01*
X126888152Y-71261904D02*
X126888152Y-71119047D01*
X126888152Y-71119047D02*
X126935771Y-71023809D01*
X126935771Y-71023809D02*
X127031009Y-70976190D01*
X127031009Y-70976190D02*
X127554819Y-70976190D01*
X126888152Y-70499999D02*
X127554819Y-70499999D01*
X126983390Y-70499999D02*
X126935771Y-70452380D01*
X126935771Y-70452380D02*
X126888152Y-70357142D01*
X126888152Y-70357142D02*
X126888152Y-70214285D01*
X126888152Y-70214285D02*
X126935771Y-70119047D01*
X126935771Y-70119047D02*
X127031009Y-70071428D01*
X127031009Y-70071428D02*
X127554819Y-70071428D01*
X127650057Y-69833333D02*
X127650057Y-69071428D01*
X126554819Y-68642856D02*
X126554819Y-68547618D01*
X126554819Y-68547618D02*
X126602438Y-68452380D01*
X126602438Y-68452380D02*
X126650057Y-68404761D01*
X126650057Y-68404761D02*
X126745295Y-68357142D01*
X126745295Y-68357142D02*
X126935771Y-68309523D01*
X126935771Y-68309523D02*
X127173866Y-68309523D01*
X127173866Y-68309523D02*
X127364342Y-68357142D01*
X127364342Y-68357142D02*
X127459580Y-68404761D01*
X127459580Y-68404761D02*
X127507200Y-68452380D01*
X127507200Y-68452380D02*
X127554819Y-68547618D01*
X127554819Y-68547618D02*
X127554819Y-68642856D01*
X127554819Y-68642856D02*
X127507200Y-68738094D01*
X127507200Y-68738094D02*
X127459580Y-68785713D01*
X127459580Y-68785713D02*
X127364342Y-68833332D01*
X127364342Y-68833332D02*
X127173866Y-68880951D01*
X127173866Y-68880951D02*
X126935771Y-68880951D01*
X126935771Y-68880951D02*
X126745295Y-68833332D01*
X126745295Y-68833332D02*
X126650057Y-68785713D01*
X126650057Y-68785713D02*
X126602438Y-68738094D01*
X126602438Y-68738094D02*
X126554819Y-68642856D01*
X127554819Y-67357142D02*
X127554819Y-67928570D01*
X127554819Y-67642856D02*
X126554819Y-67642856D01*
X126554819Y-67642856D02*
X126697676Y-67738094D01*
X126697676Y-67738094D02*
X126792914Y-67833332D01*
X126792914Y-67833332D02*
X126840533Y-67928570D01*
X127554819Y-67023808D02*
X126888152Y-66499999D01*
X126888152Y-67023808D02*
X127554819Y-66499999D01*
X126554819Y-65928570D02*
X126554819Y-65833332D01*
X126554819Y-65833332D02*
X126602438Y-65738094D01*
X126602438Y-65738094D02*
X126650057Y-65690475D01*
X126650057Y-65690475D02*
X126745295Y-65642856D01*
X126745295Y-65642856D02*
X126935771Y-65595237D01*
X126935771Y-65595237D02*
X127173866Y-65595237D01*
X127173866Y-65595237D02*
X127364342Y-65642856D01*
X127364342Y-65642856D02*
X127459580Y-65690475D01*
X127459580Y-65690475D02*
X127507200Y-65738094D01*
X127507200Y-65738094D02*
X127554819Y-65833332D01*
X127554819Y-65833332D02*
X127554819Y-65928570D01*
X127554819Y-65928570D02*
X127507200Y-66023808D01*
X127507200Y-66023808D02*
X127459580Y-66071427D01*
X127459580Y-66071427D02*
X127364342Y-66119046D01*
X127364342Y-66119046D02*
X127173866Y-66166665D01*
X127173866Y-66166665D02*
X126935771Y-66166665D01*
X126935771Y-66166665D02*
X126745295Y-66119046D01*
X126745295Y-66119046D02*
X126650057Y-66071427D01*
X126650057Y-66071427D02*
X126602438Y-66023808D01*
X126602438Y-66023808D02*
X126554819Y-65928570D01*
X126650057Y-65214284D02*
X126602438Y-65166665D01*
X126602438Y-65166665D02*
X126554819Y-65071427D01*
X126554819Y-65071427D02*
X126554819Y-64833332D01*
X126554819Y-64833332D02*
X126602438Y-64738094D01*
X126602438Y-64738094D02*
X126650057Y-64690475D01*
X126650057Y-64690475D02*
X126745295Y-64642856D01*
X126745295Y-64642856D02*
X126840533Y-64642856D01*
X126840533Y-64642856D02*
X126983390Y-64690475D01*
X126983390Y-64690475D02*
X127554819Y-65261903D01*
X127554819Y-65261903D02*
X127554819Y-64642856D01*
X124654819Y-69333333D02*
X125369104Y-69333333D01*
X125369104Y-69333333D02*
X125511961Y-69380952D01*
X125511961Y-69380952D02*
X125607200Y-69476190D01*
X125607200Y-69476190D02*
X125654819Y-69619047D01*
X125654819Y-69619047D02*
X125654819Y-69714285D01*
X125654819Y-68333333D02*
X125654819Y-68904761D01*
X125654819Y-68619047D02*
X124654819Y-68619047D01*
X124654819Y-68619047D02*
X124797676Y-68714285D01*
X124797676Y-68714285D02*
X124892914Y-68809523D01*
X124892914Y-68809523D02*
X124940533Y-68904761D01*
X136727380Y-62204819D02*
X136155952Y-62204819D01*
X136441666Y-62204819D02*
X136441666Y-61204819D01*
X136441666Y-61204819D02*
X136346428Y-61347676D01*
X136346428Y-61347676D02*
X136251190Y-61442914D01*
X136251190Y-61442914D02*
X136155952Y-61490533D01*
X137346428Y-61204819D02*
X137441666Y-61204819D01*
X137441666Y-61204819D02*
X137536904Y-61252438D01*
X137536904Y-61252438D02*
X137584523Y-61300057D01*
X137584523Y-61300057D02*
X137632142Y-61395295D01*
X137632142Y-61395295D02*
X137679761Y-61585771D01*
X137679761Y-61585771D02*
X137679761Y-61823866D01*
X137679761Y-61823866D02*
X137632142Y-62014342D01*
X137632142Y-62014342D02*
X137584523Y-62109580D01*
X137584523Y-62109580D02*
X137536904Y-62157200D01*
X137536904Y-62157200D02*
X137441666Y-62204819D01*
X137441666Y-62204819D02*
X137346428Y-62204819D01*
X137346428Y-62204819D02*
X137251190Y-62157200D01*
X137251190Y-62157200D02*
X137203571Y-62109580D01*
X137203571Y-62109580D02*
X137155952Y-62014342D01*
X137155952Y-62014342D02*
X137108333Y-61823866D01*
X137108333Y-61823866D02*
X137108333Y-61585771D01*
X137108333Y-61585771D02*
X137155952Y-61395295D01*
X137155952Y-61395295D02*
X137203571Y-61300057D01*
X137203571Y-61300057D02*
X137251190Y-61252438D01*
X137251190Y-61252438D02*
X137346428Y-61204819D01*
X138298809Y-61204819D02*
X138394047Y-61204819D01*
X138394047Y-61204819D02*
X138489285Y-61252438D01*
X138489285Y-61252438D02*
X138536904Y-61300057D01*
X138536904Y-61300057D02*
X138584523Y-61395295D01*
X138584523Y-61395295D02*
X138632142Y-61585771D01*
X138632142Y-61585771D02*
X138632142Y-61823866D01*
X138632142Y-61823866D02*
X138584523Y-62014342D01*
X138584523Y-62014342D02*
X138536904Y-62109580D01*
X138536904Y-62109580D02*
X138489285Y-62157200D01*
X138489285Y-62157200D02*
X138394047Y-62204819D01*
X138394047Y-62204819D02*
X138298809Y-62204819D01*
X138298809Y-62204819D02*
X138203571Y-62157200D01*
X138203571Y-62157200D02*
X138155952Y-62109580D01*
X138155952Y-62109580D02*
X138108333Y-62014342D01*
X138108333Y-62014342D02*
X138060714Y-61823866D01*
X138060714Y-61823866D02*
X138060714Y-61585771D01*
X138060714Y-61585771D02*
X138108333Y-61395295D01*
X138108333Y-61395295D02*
X138155952Y-61300057D01*
X138155952Y-61300057D02*
X138203571Y-61252438D01*
X138203571Y-61252438D02*
X138298809Y-61204819D01*
X139060714Y-61538152D02*
X139060714Y-62204819D01*
X139060714Y-61633390D02*
X139108333Y-61585771D01*
X139108333Y-61585771D02*
X139203571Y-61538152D01*
X139203571Y-61538152D02*
X139346428Y-61538152D01*
X139346428Y-61538152D02*
X139441666Y-61585771D01*
X139441666Y-61585771D02*
X139489285Y-61681009D01*
X139489285Y-61681009D02*
X139489285Y-62204819D01*
X140298809Y-61681009D02*
X139965476Y-61681009D01*
X139965476Y-62204819D02*
X139965476Y-61204819D01*
X139965476Y-61204819D02*
X140441666Y-61204819D01*
X138108333Y-59609580D02*
X138060714Y-59657200D01*
X138060714Y-59657200D02*
X137917857Y-59704819D01*
X137917857Y-59704819D02*
X137822619Y-59704819D01*
X137822619Y-59704819D02*
X137679762Y-59657200D01*
X137679762Y-59657200D02*
X137584524Y-59561961D01*
X137584524Y-59561961D02*
X137536905Y-59466723D01*
X137536905Y-59466723D02*
X137489286Y-59276247D01*
X137489286Y-59276247D02*
X137489286Y-59133390D01*
X137489286Y-59133390D02*
X137536905Y-58942914D01*
X137536905Y-58942914D02*
X137584524Y-58847676D01*
X137584524Y-58847676D02*
X137679762Y-58752438D01*
X137679762Y-58752438D02*
X137822619Y-58704819D01*
X137822619Y-58704819D02*
X137917857Y-58704819D01*
X137917857Y-58704819D02*
X138060714Y-58752438D01*
X138060714Y-58752438D02*
X138108333Y-58800057D01*
X138965476Y-59038152D02*
X138965476Y-59704819D01*
X138727381Y-58657200D02*
X138489286Y-59371485D01*
X138489286Y-59371485D02*
X139108333Y-59371485D01*
X63554819Y-110261905D02*
X64269104Y-110261905D01*
X64269104Y-110261905D02*
X64411961Y-110309524D01*
X64411961Y-110309524D02*
X64507200Y-110404762D01*
X64507200Y-110404762D02*
X64554819Y-110547619D01*
X64554819Y-110547619D02*
X64554819Y-110642857D01*
X63888152Y-109357143D02*
X64554819Y-109357143D01*
X63888152Y-109785714D02*
X64411961Y-109785714D01*
X64411961Y-109785714D02*
X64507200Y-109738095D01*
X64507200Y-109738095D02*
X64554819Y-109642857D01*
X64554819Y-109642857D02*
X64554819Y-109500000D01*
X64554819Y-109500000D02*
X64507200Y-109404762D01*
X64507200Y-109404762D02*
X64459580Y-109357143D01*
X64554819Y-108880952D02*
X63888152Y-108880952D01*
X63983390Y-108880952D02*
X63935771Y-108833333D01*
X63935771Y-108833333D02*
X63888152Y-108738095D01*
X63888152Y-108738095D02*
X63888152Y-108595238D01*
X63888152Y-108595238D02*
X63935771Y-108500000D01*
X63935771Y-108500000D02*
X64031009Y-108452381D01*
X64031009Y-108452381D02*
X64554819Y-108452381D01*
X64031009Y-108452381D02*
X63935771Y-108404762D01*
X63935771Y-108404762D02*
X63888152Y-108309524D01*
X63888152Y-108309524D02*
X63888152Y-108166667D01*
X63888152Y-108166667D02*
X63935771Y-108071428D01*
X63935771Y-108071428D02*
X64031009Y-108023809D01*
X64031009Y-108023809D02*
X64554819Y-108023809D01*
X63888152Y-107547619D02*
X64888152Y-107547619D01*
X63935771Y-107547619D02*
X63888152Y-107452381D01*
X63888152Y-107452381D02*
X63888152Y-107261905D01*
X63888152Y-107261905D02*
X63935771Y-107166667D01*
X63935771Y-107166667D02*
X63983390Y-107119048D01*
X63983390Y-107119048D02*
X64078628Y-107071429D01*
X64078628Y-107071429D02*
X64364342Y-107071429D01*
X64364342Y-107071429D02*
X64459580Y-107119048D01*
X64459580Y-107119048D02*
X64507200Y-107166667D01*
X64507200Y-107166667D02*
X64554819Y-107261905D01*
X64554819Y-107261905D02*
X64554819Y-107452381D01*
X64554819Y-107452381D02*
X64507200Y-107547619D01*
X64507200Y-106261905D02*
X64554819Y-106357143D01*
X64554819Y-106357143D02*
X64554819Y-106547619D01*
X64554819Y-106547619D02*
X64507200Y-106642857D01*
X64507200Y-106642857D02*
X64411961Y-106690476D01*
X64411961Y-106690476D02*
X64031009Y-106690476D01*
X64031009Y-106690476D02*
X63935771Y-106642857D01*
X63935771Y-106642857D02*
X63888152Y-106547619D01*
X63888152Y-106547619D02*
X63888152Y-106357143D01*
X63888152Y-106357143D02*
X63935771Y-106261905D01*
X63935771Y-106261905D02*
X64031009Y-106214286D01*
X64031009Y-106214286D02*
X64126247Y-106214286D01*
X64126247Y-106214286D02*
X64221485Y-106690476D01*
X64554819Y-105785714D02*
X63888152Y-105785714D01*
X64078628Y-105785714D02*
X63983390Y-105738095D01*
X63983390Y-105738095D02*
X63935771Y-105690476D01*
X63935771Y-105690476D02*
X63888152Y-105595238D01*
X63888152Y-105595238D02*
X63888152Y-105500000D01*
X64650057Y-105404762D02*
X64650057Y-104642857D01*
X63650057Y-104452380D02*
X63602438Y-104404761D01*
X63602438Y-104404761D02*
X63554819Y-104309523D01*
X63554819Y-104309523D02*
X63554819Y-104071428D01*
X63554819Y-104071428D02*
X63602438Y-103976190D01*
X63602438Y-103976190D02*
X63650057Y-103928571D01*
X63650057Y-103928571D02*
X63745295Y-103880952D01*
X63745295Y-103880952D02*
X63840533Y-103880952D01*
X63840533Y-103880952D02*
X63983390Y-103928571D01*
X63983390Y-103928571D02*
X64554819Y-104499999D01*
X64554819Y-104499999D02*
X64554819Y-103880952D01*
X64650057Y-103690476D02*
X64650057Y-102928571D01*
X63554819Y-102499999D02*
X63554819Y-102309523D01*
X63554819Y-102309523D02*
X63602438Y-102214285D01*
X63602438Y-102214285D02*
X63697676Y-102119047D01*
X63697676Y-102119047D02*
X63888152Y-102071428D01*
X63888152Y-102071428D02*
X64221485Y-102071428D01*
X64221485Y-102071428D02*
X64411961Y-102119047D01*
X64411961Y-102119047D02*
X64507200Y-102214285D01*
X64507200Y-102214285D02*
X64554819Y-102309523D01*
X64554819Y-102309523D02*
X64554819Y-102499999D01*
X64554819Y-102499999D02*
X64507200Y-102595237D01*
X64507200Y-102595237D02*
X64411961Y-102690475D01*
X64411961Y-102690475D02*
X64221485Y-102738094D01*
X64221485Y-102738094D02*
X63888152Y-102738094D01*
X63888152Y-102738094D02*
X63697676Y-102690475D01*
X63697676Y-102690475D02*
X63602438Y-102595237D01*
X63602438Y-102595237D02*
X63554819Y-102499999D01*
X63888152Y-101642856D02*
X64888152Y-101642856D01*
X63935771Y-101642856D02*
X63888152Y-101547618D01*
X63888152Y-101547618D02*
X63888152Y-101357142D01*
X63888152Y-101357142D02*
X63935771Y-101261904D01*
X63935771Y-101261904D02*
X63983390Y-101214285D01*
X63983390Y-101214285D02*
X64078628Y-101166666D01*
X64078628Y-101166666D02*
X64364342Y-101166666D01*
X64364342Y-101166666D02*
X64459580Y-101214285D01*
X64459580Y-101214285D02*
X64507200Y-101261904D01*
X64507200Y-101261904D02*
X64554819Y-101357142D01*
X64554819Y-101357142D02*
X64554819Y-101547618D01*
X64554819Y-101547618D02*
X64507200Y-101642856D01*
X64507200Y-100357142D02*
X64554819Y-100452380D01*
X64554819Y-100452380D02*
X64554819Y-100642856D01*
X64554819Y-100642856D02*
X64507200Y-100738094D01*
X64507200Y-100738094D02*
X64411961Y-100785713D01*
X64411961Y-100785713D02*
X64031009Y-100785713D01*
X64031009Y-100785713D02*
X63935771Y-100738094D01*
X63935771Y-100738094D02*
X63888152Y-100642856D01*
X63888152Y-100642856D02*
X63888152Y-100452380D01*
X63888152Y-100452380D02*
X63935771Y-100357142D01*
X63935771Y-100357142D02*
X64031009Y-100309523D01*
X64031009Y-100309523D02*
X64126247Y-100309523D01*
X64126247Y-100309523D02*
X64221485Y-100785713D01*
X63888152Y-99880951D02*
X64554819Y-99880951D01*
X63983390Y-99880951D02*
X63935771Y-99833332D01*
X63935771Y-99833332D02*
X63888152Y-99738094D01*
X63888152Y-99738094D02*
X63888152Y-99595237D01*
X63888152Y-99595237D02*
X63935771Y-99499999D01*
X63935771Y-99499999D02*
X64031009Y-99452380D01*
X64031009Y-99452380D02*
X64554819Y-99452380D01*
X113814524Y-80549819D02*
X113814524Y-79549819D01*
X113814524Y-79549819D02*
X114195476Y-79549819D01*
X114195476Y-79549819D02*
X114290714Y-79597438D01*
X114290714Y-79597438D02*
X114338333Y-79645057D01*
X114338333Y-79645057D02*
X114385952Y-79740295D01*
X114385952Y-79740295D02*
X114385952Y-79883152D01*
X114385952Y-79883152D02*
X114338333Y-79978390D01*
X114338333Y-79978390D02*
X114290714Y-80026009D01*
X114290714Y-80026009D02*
X114195476Y-80073628D01*
X114195476Y-80073628D02*
X113814524Y-80073628D01*
X115385952Y-80454580D02*
X115338333Y-80502200D01*
X115338333Y-80502200D02*
X115195476Y-80549819D01*
X115195476Y-80549819D02*
X115100238Y-80549819D01*
X115100238Y-80549819D02*
X114957381Y-80502200D01*
X114957381Y-80502200D02*
X114862143Y-80406961D01*
X114862143Y-80406961D02*
X114814524Y-80311723D01*
X114814524Y-80311723D02*
X114766905Y-80121247D01*
X114766905Y-80121247D02*
X114766905Y-79978390D01*
X114766905Y-79978390D02*
X114814524Y-79787914D01*
X114814524Y-79787914D02*
X114862143Y-79692676D01*
X114862143Y-79692676D02*
X114957381Y-79597438D01*
X114957381Y-79597438D02*
X115100238Y-79549819D01*
X115100238Y-79549819D02*
X115195476Y-79549819D01*
X115195476Y-79549819D02*
X115338333Y-79597438D01*
X115338333Y-79597438D02*
X115385952Y-79645057D01*
X115957381Y-79978390D02*
X115862143Y-79930771D01*
X115862143Y-79930771D02*
X115814524Y-79883152D01*
X115814524Y-79883152D02*
X115766905Y-79787914D01*
X115766905Y-79787914D02*
X115766905Y-79740295D01*
X115766905Y-79740295D02*
X115814524Y-79645057D01*
X115814524Y-79645057D02*
X115862143Y-79597438D01*
X115862143Y-79597438D02*
X115957381Y-79549819D01*
X115957381Y-79549819D02*
X116147857Y-79549819D01*
X116147857Y-79549819D02*
X116243095Y-79597438D01*
X116243095Y-79597438D02*
X116290714Y-79645057D01*
X116290714Y-79645057D02*
X116338333Y-79740295D01*
X116338333Y-79740295D02*
X116338333Y-79787914D01*
X116338333Y-79787914D02*
X116290714Y-79883152D01*
X116290714Y-79883152D02*
X116243095Y-79930771D01*
X116243095Y-79930771D02*
X116147857Y-79978390D01*
X116147857Y-79978390D02*
X115957381Y-79978390D01*
X115957381Y-79978390D02*
X115862143Y-80026009D01*
X115862143Y-80026009D02*
X115814524Y-80073628D01*
X115814524Y-80073628D02*
X115766905Y-80168866D01*
X115766905Y-80168866D02*
X115766905Y-80359342D01*
X115766905Y-80359342D02*
X115814524Y-80454580D01*
X115814524Y-80454580D02*
X115862143Y-80502200D01*
X115862143Y-80502200D02*
X115957381Y-80549819D01*
X115957381Y-80549819D02*
X116147857Y-80549819D01*
X116147857Y-80549819D02*
X116243095Y-80502200D01*
X116243095Y-80502200D02*
X116290714Y-80454580D01*
X116290714Y-80454580D02*
X116338333Y-80359342D01*
X116338333Y-80359342D02*
X116338333Y-80168866D01*
X116338333Y-80168866D02*
X116290714Y-80073628D01*
X116290714Y-80073628D02*
X116243095Y-80026009D01*
X116243095Y-80026009D02*
X116147857Y-79978390D01*
X117290714Y-80549819D02*
X116719286Y-80549819D01*
X117005000Y-80549819D02*
X117005000Y-79549819D01*
X117005000Y-79549819D02*
X116909762Y-79692676D01*
X116909762Y-79692676D02*
X116814524Y-79787914D01*
X116814524Y-79787914D02*
X116719286Y-79835533D01*
X117624048Y-79549819D02*
X118290714Y-79549819D01*
X118290714Y-79549819D02*
X117862143Y-80549819D01*
X114028809Y-75949819D02*
X114219285Y-75949819D01*
X114219285Y-75949819D02*
X114314523Y-75997438D01*
X114314523Y-75997438D02*
X114409761Y-76092676D01*
X114409761Y-76092676D02*
X114457380Y-76283152D01*
X114457380Y-76283152D02*
X114457380Y-76616485D01*
X114457380Y-76616485D02*
X114409761Y-76806961D01*
X114409761Y-76806961D02*
X114314523Y-76902200D01*
X114314523Y-76902200D02*
X114219285Y-76949819D01*
X114219285Y-76949819D02*
X114028809Y-76949819D01*
X114028809Y-76949819D02*
X113933571Y-76902200D01*
X113933571Y-76902200D02*
X113838333Y-76806961D01*
X113838333Y-76806961D02*
X113790714Y-76616485D01*
X113790714Y-76616485D02*
X113790714Y-76283152D01*
X113790714Y-76283152D02*
X113838333Y-76092676D01*
X113838333Y-76092676D02*
X113933571Y-75997438D01*
X113933571Y-75997438D02*
X114028809Y-75949819D01*
X114885952Y-76949819D02*
X114885952Y-75949819D01*
X114885952Y-75949819D02*
X115266904Y-75949819D01*
X115266904Y-75949819D02*
X115362142Y-75997438D01*
X115362142Y-75997438D02*
X115409761Y-76045057D01*
X115409761Y-76045057D02*
X115457380Y-76140295D01*
X115457380Y-76140295D02*
X115457380Y-76283152D01*
X115457380Y-76283152D02*
X115409761Y-76378390D01*
X115409761Y-76378390D02*
X115362142Y-76426009D01*
X115362142Y-76426009D02*
X115266904Y-76473628D01*
X115266904Y-76473628D02*
X114885952Y-76473628D01*
X115743095Y-75949819D02*
X116314523Y-75949819D01*
X116028809Y-76949819D02*
X116028809Y-75949819D01*
X116838333Y-75949819D02*
X117028809Y-75949819D01*
X117028809Y-75949819D02*
X117124047Y-75997438D01*
X117124047Y-75997438D02*
X117219285Y-76092676D01*
X117219285Y-76092676D02*
X117266904Y-76283152D01*
X117266904Y-76283152D02*
X117266904Y-76616485D01*
X117266904Y-76616485D02*
X117219285Y-76806961D01*
X117219285Y-76806961D02*
X117124047Y-76902200D01*
X117124047Y-76902200D02*
X117028809Y-76949819D01*
X117028809Y-76949819D02*
X116838333Y-76949819D01*
X116838333Y-76949819D02*
X116743095Y-76902200D01*
X116743095Y-76902200D02*
X116647857Y-76806961D01*
X116647857Y-76806961D02*
X116600238Y-76616485D01*
X116600238Y-76616485D02*
X116600238Y-76283152D01*
X116600238Y-76283152D02*
X116647857Y-76092676D01*
X116647857Y-76092676D02*
X116743095Y-75997438D01*
X116743095Y-75997438D02*
X116838333Y-75949819D01*
X117647857Y-76045057D02*
X117695476Y-75997438D01*
X117695476Y-75997438D02*
X117790714Y-75949819D01*
X117790714Y-75949819D02*
X118028809Y-75949819D01*
X118028809Y-75949819D02*
X118124047Y-75997438D01*
X118124047Y-75997438D02*
X118171666Y-76045057D01*
X118171666Y-76045057D02*
X118219285Y-76140295D01*
X118219285Y-76140295D02*
X118219285Y-76235533D01*
X118219285Y-76235533D02*
X118171666Y-76378390D01*
X118171666Y-76378390D02*
X117600238Y-76949819D01*
X117600238Y-76949819D02*
X118219285Y-76949819D01*
X127952380Y-53954819D02*
X127380952Y-53954819D01*
X127666666Y-53954819D02*
X127666666Y-52954819D01*
X127666666Y-52954819D02*
X127571428Y-53097676D01*
X127571428Y-53097676D02*
X127476190Y-53192914D01*
X127476190Y-53192914D02*
X127380952Y-53240533D01*
X128571428Y-52954819D02*
X128666666Y-52954819D01*
X128666666Y-52954819D02*
X128761904Y-53002438D01*
X128761904Y-53002438D02*
X128809523Y-53050057D01*
X128809523Y-53050057D02*
X128857142Y-53145295D01*
X128857142Y-53145295D02*
X128904761Y-53335771D01*
X128904761Y-53335771D02*
X128904761Y-53573866D01*
X128904761Y-53573866D02*
X128857142Y-53764342D01*
X128857142Y-53764342D02*
X128809523Y-53859580D01*
X128809523Y-53859580D02*
X128761904Y-53907200D01*
X128761904Y-53907200D02*
X128666666Y-53954819D01*
X128666666Y-53954819D02*
X128571428Y-53954819D01*
X128571428Y-53954819D02*
X128476190Y-53907200D01*
X128476190Y-53907200D02*
X128428571Y-53859580D01*
X128428571Y-53859580D02*
X128380952Y-53764342D01*
X128380952Y-53764342D02*
X128333333Y-53573866D01*
X128333333Y-53573866D02*
X128333333Y-53335771D01*
X128333333Y-53335771D02*
X128380952Y-53145295D01*
X128380952Y-53145295D02*
X128428571Y-53050057D01*
X128428571Y-53050057D02*
X128476190Y-53002438D01*
X128476190Y-53002438D02*
X128571428Y-52954819D01*
X129523809Y-52954819D02*
X129619047Y-52954819D01*
X129619047Y-52954819D02*
X129714285Y-53002438D01*
X129714285Y-53002438D02*
X129761904Y-53050057D01*
X129761904Y-53050057D02*
X129809523Y-53145295D01*
X129809523Y-53145295D02*
X129857142Y-53335771D01*
X129857142Y-53335771D02*
X129857142Y-53573866D01*
X129857142Y-53573866D02*
X129809523Y-53764342D01*
X129809523Y-53764342D02*
X129761904Y-53859580D01*
X129761904Y-53859580D02*
X129714285Y-53907200D01*
X129714285Y-53907200D02*
X129619047Y-53954819D01*
X129619047Y-53954819D02*
X129523809Y-53954819D01*
X129523809Y-53954819D02*
X129428571Y-53907200D01*
X129428571Y-53907200D02*
X129380952Y-53859580D01*
X129380952Y-53859580D02*
X129333333Y-53764342D01*
X129333333Y-53764342D02*
X129285714Y-53573866D01*
X129285714Y-53573866D02*
X129285714Y-53335771D01*
X129285714Y-53335771D02*
X129333333Y-53145295D01*
X129333333Y-53145295D02*
X129380952Y-53050057D01*
X129380952Y-53050057D02*
X129428571Y-53002438D01*
X129428571Y-53002438D02*
X129523809Y-52954819D01*
X130285714Y-53288152D02*
X130285714Y-53954819D01*
X130285714Y-53383390D02*
X130333333Y-53335771D01*
X130333333Y-53335771D02*
X130428571Y-53288152D01*
X130428571Y-53288152D02*
X130571428Y-53288152D01*
X130571428Y-53288152D02*
X130666666Y-53335771D01*
X130666666Y-53335771D02*
X130714285Y-53431009D01*
X130714285Y-53431009D02*
X130714285Y-53954819D01*
X131523809Y-53431009D02*
X131190476Y-53431009D01*
X131190476Y-53954819D02*
X131190476Y-52954819D01*
X131190476Y-52954819D02*
X131666666Y-52954819D01*
X129333333Y-56359580D02*
X129285714Y-56407200D01*
X129285714Y-56407200D02*
X129142857Y-56454819D01*
X129142857Y-56454819D02*
X129047619Y-56454819D01*
X129047619Y-56454819D02*
X128904762Y-56407200D01*
X128904762Y-56407200D02*
X128809524Y-56311961D01*
X128809524Y-56311961D02*
X128761905Y-56216723D01*
X128761905Y-56216723D02*
X128714286Y-56026247D01*
X128714286Y-56026247D02*
X128714286Y-55883390D01*
X128714286Y-55883390D02*
X128761905Y-55692914D01*
X128761905Y-55692914D02*
X128809524Y-55597676D01*
X128809524Y-55597676D02*
X128904762Y-55502438D01*
X128904762Y-55502438D02*
X129047619Y-55454819D01*
X129047619Y-55454819D02*
X129142857Y-55454819D01*
X129142857Y-55454819D02*
X129285714Y-55502438D01*
X129285714Y-55502438D02*
X129333333Y-55550057D01*
X130190476Y-55454819D02*
X130000000Y-55454819D01*
X130000000Y-55454819D02*
X129904762Y-55502438D01*
X129904762Y-55502438D02*
X129857143Y-55550057D01*
X129857143Y-55550057D02*
X129761905Y-55692914D01*
X129761905Y-55692914D02*
X129714286Y-55883390D01*
X129714286Y-55883390D02*
X129714286Y-56264342D01*
X129714286Y-56264342D02*
X129761905Y-56359580D01*
X129761905Y-56359580D02*
X129809524Y-56407200D01*
X129809524Y-56407200D02*
X129904762Y-56454819D01*
X129904762Y-56454819D02*
X130095238Y-56454819D01*
X130095238Y-56454819D02*
X130190476Y-56407200D01*
X130190476Y-56407200D02*
X130238095Y-56359580D01*
X130238095Y-56359580D02*
X130285714Y-56264342D01*
X130285714Y-56264342D02*
X130285714Y-56026247D01*
X130285714Y-56026247D02*
X130238095Y-55931009D01*
X130238095Y-55931009D02*
X130190476Y-55883390D01*
X130190476Y-55883390D02*
X130095238Y-55835771D01*
X130095238Y-55835771D02*
X129904762Y-55835771D01*
X129904762Y-55835771D02*
X129809524Y-55883390D01*
X129809524Y-55883390D02*
X129761905Y-55931009D01*
X129761905Y-55931009D02*
X129714286Y-56026247D01*
X122324819Y-102190476D02*
X122324819Y-102761904D01*
X122324819Y-102476190D02*
X121324819Y-102476190D01*
X121324819Y-102476190D02*
X121467676Y-102571428D01*
X121467676Y-102571428D02*
X121562914Y-102666666D01*
X121562914Y-102666666D02*
X121610533Y-102761904D01*
X121324819Y-101571428D02*
X121324819Y-101476190D01*
X121324819Y-101476190D02*
X121372438Y-101380952D01*
X121372438Y-101380952D02*
X121420057Y-101333333D01*
X121420057Y-101333333D02*
X121515295Y-101285714D01*
X121515295Y-101285714D02*
X121705771Y-101238095D01*
X121705771Y-101238095D02*
X121943866Y-101238095D01*
X121943866Y-101238095D02*
X122134342Y-101285714D01*
X122134342Y-101285714D02*
X122229580Y-101333333D01*
X122229580Y-101333333D02*
X122277200Y-101380952D01*
X122277200Y-101380952D02*
X122324819Y-101476190D01*
X122324819Y-101476190D02*
X122324819Y-101571428D01*
X122324819Y-101571428D02*
X122277200Y-101666666D01*
X122277200Y-101666666D02*
X122229580Y-101714285D01*
X122229580Y-101714285D02*
X122134342Y-101761904D01*
X122134342Y-101761904D02*
X121943866Y-101809523D01*
X121943866Y-101809523D02*
X121705771Y-101809523D01*
X121705771Y-101809523D02*
X121515295Y-101761904D01*
X121515295Y-101761904D02*
X121420057Y-101714285D01*
X121420057Y-101714285D02*
X121372438Y-101666666D01*
X121372438Y-101666666D02*
X121324819Y-101571428D01*
X119954819Y-102166666D02*
X119478628Y-102499999D01*
X119954819Y-102738094D02*
X118954819Y-102738094D01*
X118954819Y-102738094D02*
X118954819Y-102357142D01*
X118954819Y-102357142D02*
X119002438Y-102261904D01*
X119002438Y-102261904D02*
X119050057Y-102214285D01*
X119050057Y-102214285D02*
X119145295Y-102166666D01*
X119145295Y-102166666D02*
X119288152Y-102166666D01*
X119288152Y-102166666D02*
X119383390Y-102214285D01*
X119383390Y-102214285D02*
X119431009Y-102261904D01*
X119431009Y-102261904D02*
X119478628Y-102357142D01*
X119478628Y-102357142D02*
X119478628Y-102738094D01*
X118954819Y-101309523D02*
X118954819Y-101499999D01*
X118954819Y-101499999D02*
X119002438Y-101595237D01*
X119002438Y-101595237D02*
X119050057Y-101642856D01*
X119050057Y-101642856D02*
X119192914Y-101738094D01*
X119192914Y-101738094D02*
X119383390Y-101785713D01*
X119383390Y-101785713D02*
X119764342Y-101785713D01*
X119764342Y-101785713D02*
X119859580Y-101738094D01*
X119859580Y-101738094D02*
X119907200Y-101690475D01*
X119907200Y-101690475D02*
X119954819Y-101595237D01*
X119954819Y-101595237D02*
X119954819Y-101404761D01*
X119954819Y-101404761D02*
X119907200Y-101309523D01*
X119907200Y-101309523D02*
X119859580Y-101261904D01*
X119859580Y-101261904D02*
X119764342Y-101214285D01*
X119764342Y-101214285D02*
X119526247Y-101214285D01*
X119526247Y-101214285D02*
X119431009Y-101261904D01*
X119431009Y-101261904D02*
X119383390Y-101309523D01*
X119383390Y-101309523D02*
X119335771Y-101404761D01*
X119335771Y-101404761D02*
X119335771Y-101595237D01*
X119335771Y-101595237D02*
X119383390Y-101690475D01*
X119383390Y-101690475D02*
X119431009Y-101738094D01*
X119431009Y-101738094D02*
X119526247Y-101785713D01*
X103714286Y-68324819D02*
X104333333Y-68324819D01*
X104333333Y-68324819D02*
X104000000Y-68705771D01*
X104000000Y-68705771D02*
X104142857Y-68705771D01*
X104142857Y-68705771D02*
X104238095Y-68753390D01*
X104238095Y-68753390D02*
X104285714Y-68801009D01*
X104285714Y-68801009D02*
X104333333Y-68896247D01*
X104333333Y-68896247D02*
X104333333Y-69134342D01*
X104333333Y-69134342D02*
X104285714Y-69229580D01*
X104285714Y-69229580D02*
X104238095Y-69277200D01*
X104238095Y-69277200D02*
X104142857Y-69324819D01*
X104142857Y-69324819D02*
X103857143Y-69324819D01*
X103857143Y-69324819D02*
X103761905Y-69277200D01*
X103761905Y-69277200D02*
X103714286Y-69229580D01*
X104666667Y-68324819D02*
X105285714Y-68324819D01*
X105285714Y-68324819D02*
X104952381Y-68705771D01*
X104952381Y-68705771D02*
X105095238Y-68705771D01*
X105095238Y-68705771D02*
X105190476Y-68753390D01*
X105190476Y-68753390D02*
X105238095Y-68801009D01*
X105238095Y-68801009D02*
X105285714Y-68896247D01*
X105285714Y-68896247D02*
X105285714Y-69134342D01*
X105285714Y-69134342D02*
X105238095Y-69229580D01*
X105238095Y-69229580D02*
X105190476Y-69277200D01*
X105190476Y-69277200D02*
X105095238Y-69324819D01*
X105095238Y-69324819D02*
X104809524Y-69324819D01*
X104809524Y-69324819D02*
X104714286Y-69277200D01*
X104714286Y-69277200D02*
X104666667Y-69229580D01*
X105904762Y-68324819D02*
X106000000Y-68324819D01*
X106000000Y-68324819D02*
X106095238Y-68372438D01*
X106095238Y-68372438D02*
X106142857Y-68420057D01*
X106142857Y-68420057D02*
X106190476Y-68515295D01*
X106190476Y-68515295D02*
X106238095Y-68705771D01*
X106238095Y-68705771D02*
X106238095Y-68943866D01*
X106238095Y-68943866D02*
X106190476Y-69134342D01*
X106190476Y-69134342D02*
X106142857Y-69229580D01*
X106142857Y-69229580D02*
X106095238Y-69277200D01*
X106095238Y-69277200D02*
X106000000Y-69324819D01*
X106000000Y-69324819D02*
X105904762Y-69324819D01*
X105904762Y-69324819D02*
X105809524Y-69277200D01*
X105809524Y-69277200D02*
X105761905Y-69229580D01*
X105761905Y-69229580D02*
X105714286Y-69134342D01*
X105714286Y-69134342D02*
X105666667Y-68943866D01*
X105666667Y-68943866D02*
X105666667Y-68705771D01*
X105666667Y-68705771D02*
X105714286Y-68515295D01*
X105714286Y-68515295D02*
X105761905Y-68420057D01*
X105761905Y-68420057D02*
X105809524Y-68372438D01*
X105809524Y-68372438D02*
X105904762Y-68324819D01*
X104833333Y-66954819D02*
X104500000Y-66478628D01*
X104261905Y-66954819D02*
X104261905Y-65954819D01*
X104261905Y-65954819D02*
X104642857Y-65954819D01*
X104642857Y-65954819D02*
X104738095Y-66002438D01*
X104738095Y-66002438D02*
X104785714Y-66050057D01*
X104785714Y-66050057D02*
X104833333Y-66145295D01*
X104833333Y-66145295D02*
X104833333Y-66288152D01*
X104833333Y-66288152D02*
X104785714Y-66383390D01*
X104785714Y-66383390D02*
X104738095Y-66431009D01*
X104738095Y-66431009D02*
X104642857Y-66478628D01*
X104642857Y-66478628D02*
X104261905Y-66478628D01*
X105785714Y-66954819D02*
X105214286Y-66954819D01*
X105500000Y-66954819D02*
X105500000Y-65954819D01*
X105500000Y-65954819D02*
X105404762Y-66097676D01*
X105404762Y-66097676D02*
X105309524Y-66192914D01*
X105309524Y-66192914D02*
X105214286Y-66240533D01*
X121738095Y-62823866D02*
X122500000Y-62823866D01*
X122119047Y-63204819D02*
X122119047Y-62442914D01*
X122928571Y-62300057D02*
X122976190Y-62252438D01*
X122976190Y-62252438D02*
X123071428Y-62204819D01*
X123071428Y-62204819D02*
X123309523Y-62204819D01*
X123309523Y-62204819D02*
X123404761Y-62252438D01*
X123404761Y-62252438D02*
X123452380Y-62300057D01*
X123452380Y-62300057D02*
X123499999Y-62395295D01*
X123499999Y-62395295D02*
X123499999Y-62490533D01*
X123499999Y-62490533D02*
X123452380Y-62633390D01*
X123452380Y-62633390D02*
X122880952Y-63204819D01*
X122880952Y-63204819D02*
X123499999Y-63204819D01*
X124357142Y-62538152D02*
X124357142Y-63204819D01*
X124119047Y-62157200D02*
X123880952Y-62871485D01*
X123880952Y-62871485D02*
X124499999Y-62871485D01*
X124738095Y-62204819D02*
X125071428Y-63204819D01*
X125071428Y-63204819D02*
X125404761Y-62204819D01*
X122238095Y-58804819D02*
X122809523Y-58804819D01*
X122523809Y-59804819D02*
X122523809Y-58804819D01*
X123142857Y-59804819D02*
X123142857Y-58804819D01*
X123142857Y-58804819D02*
X123523809Y-58804819D01*
X123523809Y-58804819D02*
X123619047Y-58852438D01*
X123619047Y-58852438D02*
X123666666Y-58900057D01*
X123666666Y-58900057D02*
X123714285Y-58995295D01*
X123714285Y-58995295D02*
X123714285Y-59138152D01*
X123714285Y-59138152D02*
X123666666Y-59233390D01*
X123666666Y-59233390D02*
X123619047Y-59281009D01*
X123619047Y-59281009D02*
X123523809Y-59328628D01*
X123523809Y-59328628D02*
X123142857Y-59328628D01*
X124666666Y-59804819D02*
X124095238Y-59804819D01*
X124380952Y-59804819D02*
X124380952Y-58804819D01*
X124380952Y-58804819D02*
X124285714Y-58947676D01*
X124285714Y-58947676D02*
X124190476Y-59042914D01*
X124190476Y-59042914D02*
X124095238Y-59090533D01*
X129871905Y-90954819D02*
X129871905Y-89954819D01*
X129871905Y-89954819D02*
X130110000Y-89954819D01*
X130110000Y-89954819D02*
X130252857Y-90002438D01*
X130252857Y-90002438D02*
X130348095Y-90097676D01*
X130348095Y-90097676D02*
X130395714Y-90192914D01*
X130395714Y-90192914D02*
X130443333Y-90383390D01*
X130443333Y-90383390D02*
X130443333Y-90526247D01*
X130443333Y-90526247D02*
X130395714Y-90716723D01*
X130395714Y-90716723D02*
X130348095Y-90811961D01*
X130348095Y-90811961D02*
X130252857Y-90907200D01*
X130252857Y-90907200D02*
X130110000Y-90954819D01*
X130110000Y-90954819D02*
X129871905Y-90954819D01*
X130824286Y-90050057D02*
X130871905Y-90002438D01*
X130871905Y-90002438D02*
X130967143Y-89954819D01*
X130967143Y-89954819D02*
X131205238Y-89954819D01*
X131205238Y-89954819D02*
X131300476Y-90002438D01*
X131300476Y-90002438D02*
X131348095Y-90050057D01*
X131348095Y-90050057D02*
X131395714Y-90145295D01*
X131395714Y-90145295D02*
X131395714Y-90240533D01*
X131395714Y-90240533D02*
X131348095Y-90383390D01*
X131348095Y-90383390D02*
X130776667Y-90954819D01*
X130776667Y-90954819D02*
X131395714Y-90954819D01*
X135818095Y-93054819D02*
X135818095Y-92054819D01*
X136389523Y-93054819D02*
X135960952Y-92483390D01*
X136389523Y-92054819D02*
X135818095Y-92626247D01*
X104361429Y-128035569D02*
X105028095Y-129035569D01*
X105028095Y-128035569D02*
X104361429Y-129035569D01*
X105266191Y-128035569D02*
X105837619Y-128035569D01*
X105551905Y-129035569D02*
X105551905Y-128035569D01*
X106075715Y-128035569D02*
X106694762Y-128035569D01*
X106694762Y-128035569D02*
X106361429Y-128416521D01*
X106361429Y-128416521D02*
X106504286Y-128416521D01*
X106504286Y-128416521D02*
X106599524Y-128464140D01*
X106599524Y-128464140D02*
X106647143Y-128511759D01*
X106647143Y-128511759D02*
X106694762Y-128606997D01*
X106694762Y-128606997D02*
X106694762Y-128845092D01*
X106694762Y-128845092D02*
X106647143Y-128940330D01*
X106647143Y-128940330D02*
X106599524Y-128987950D01*
X106599524Y-128987950D02*
X106504286Y-129035569D01*
X106504286Y-129035569D02*
X106218572Y-129035569D01*
X106218572Y-129035569D02*
X106123334Y-128987950D01*
X106123334Y-128987950D02*
X106075715Y-128940330D01*
X107313810Y-128035569D02*
X107409048Y-128035569D01*
X107409048Y-128035569D02*
X107504286Y-128083188D01*
X107504286Y-128083188D02*
X107551905Y-128130807D01*
X107551905Y-128130807D02*
X107599524Y-128226045D01*
X107599524Y-128226045D02*
X107647143Y-128416521D01*
X107647143Y-128416521D02*
X107647143Y-128654616D01*
X107647143Y-128654616D02*
X107599524Y-128845092D01*
X107599524Y-128845092D02*
X107551905Y-128940330D01*
X107551905Y-128940330D02*
X107504286Y-128987950D01*
X107504286Y-128987950D02*
X107409048Y-129035569D01*
X107409048Y-129035569D02*
X107313810Y-129035569D01*
X107313810Y-129035569D02*
X107218572Y-128987950D01*
X107218572Y-128987950D02*
X107170953Y-128940330D01*
X107170953Y-128940330D02*
X107123334Y-128845092D01*
X107123334Y-128845092D02*
X107075715Y-128654616D01*
X107075715Y-128654616D02*
X107075715Y-128416521D01*
X107075715Y-128416521D02*
X107123334Y-128226045D01*
X107123334Y-128226045D02*
X107170953Y-128130807D01*
X107170953Y-128130807D02*
X107218572Y-128083188D01*
X107218572Y-128083188D02*
X107313810Y-128035569D01*
X108075715Y-129035569D02*
X108075715Y-128035569D01*
X108075715Y-128035569D02*
X108456667Y-128035569D01*
X108456667Y-128035569D02*
X108551905Y-128083188D01*
X108551905Y-128083188D02*
X108599524Y-128130807D01*
X108599524Y-128130807D02*
X108647143Y-128226045D01*
X108647143Y-128226045D02*
X108647143Y-128368902D01*
X108647143Y-128368902D02*
X108599524Y-128464140D01*
X108599524Y-128464140D02*
X108551905Y-128511759D01*
X108551905Y-128511759D02*
X108456667Y-128559378D01*
X108456667Y-128559378D02*
X108075715Y-128559378D01*
X108980477Y-128035569D02*
X109218572Y-129035569D01*
X109218572Y-129035569D02*
X109409048Y-128321283D01*
X109409048Y-128321283D02*
X109599524Y-129035569D01*
X109599524Y-129035569D02*
X109837620Y-128035569D01*
X110218572Y-128654616D02*
X110980477Y-128654616D01*
X111456667Y-129035569D02*
X111456667Y-128035569D01*
X111456667Y-128035569D02*
X111790000Y-128749854D01*
X111790000Y-128749854D02*
X112123333Y-128035569D01*
X112123333Y-128035569D02*
X112123333Y-129035569D01*
X137452380Y-90204819D02*
X136880952Y-90204819D01*
X137166666Y-90204819D02*
X137166666Y-89204819D01*
X137166666Y-89204819D02*
X137071428Y-89347676D01*
X137071428Y-89347676D02*
X136976190Y-89442914D01*
X136976190Y-89442914D02*
X136880952Y-89490533D01*
X138071428Y-89204819D02*
X138166666Y-89204819D01*
X138166666Y-89204819D02*
X138261904Y-89252438D01*
X138261904Y-89252438D02*
X138309523Y-89300057D01*
X138309523Y-89300057D02*
X138357142Y-89395295D01*
X138357142Y-89395295D02*
X138404761Y-89585771D01*
X138404761Y-89585771D02*
X138404761Y-89823866D01*
X138404761Y-89823866D02*
X138357142Y-90014342D01*
X138357142Y-90014342D02*
X138309523Y-90109580D01*
X138309523Y-90109580D02*
X138261904Y-90157200D01*
X138261904Y-90157200D02*
X138166666Y-90204819D01*
X138166666Y-90204819D02*
X138071428Y-90204819D01*
X138071428Y-90204819D02*
X137976190Y-90157200D01*
X137976190Y-90157200D02*
X137928571Y-90109580D01*
X137928571Y-90109580D02*
X137880952Y-90014342D01*
X137880952Y-90014342D02*
X137833333Y-89823866D01*
X137833333Y-89823866D02*
X137833333Y-89585771D01*
X137833333Y-89585771D02*
X137880952Y-89395295D01*
X137880952Y-89395295D02*
X137928571Y-89300057D01*
X137928571Y-89300057D02*
X137976190Y-89252438D01*
X137976190Y-89252438D02*
X138071428Y-89204819D01*
X139023809Y-89204819D02*
X139119047Y-89204819D01*
X139119047Y-89204819D02*
X139214285Y-89252438D01*
X139214285Y-89252438D02*
X139261904Y-89300057D01*
X139261904Y-89300057D02*
X139309523Y-89395295D01*
X139309523Y-89395295D02*
X139357142Y-89585771D01*
X139357142Y-89585771D02*
X139357142Y-89823866D01*
X139357142Y-89823866D02*
X139309523Y-90014342D01*
X139309523Y-90014342D02*
X139261904Y-90109580D01*
X139261904Y-90109580D02*
X139214285Y-90157200D01*
X139214285Y-90157200D02*
X139119047Y-90204819D01*
X139119047Y-90204819D02*
X139023809Y-90204819D01*
X139023809Y-90204819D02*
X138928571Y-90157200D01*
X138928571Y-90157200D02*
X138880952Y-90109580D01*
X138880952Y-90109580D02*
X138833333Y-90014342D01*
X138833333Y-90014342D02*
X138785714Y-89823866D01*
X138785714Y-89823866D02*
X138785714Y-89585771D01*
X138785714Y-89585771D02*
X138833333Y-89395295D01*
X138833333Y-89395295D02*
X138880952Y-89300057D01*
X138880952Y-89300057D02*
X138928571Y-89252438D01*
X138928571Y-89252438D02*
X139023809Y-89204819D01*
X139785714Y-89538152D02*
X139785714Y-90204819D01*
X139785714Y-89633390D02*
X139833333Y-89585771D01*
X139833333Y-89585771D02*
X139928571Y-89538152D01*
X139928571Y-89538152D02*
X140071428Y-89538152D01*
X140071428Y-89538152D02*
X140166666Y-89585771D01*
X140166666Y-89585771D02*
X140214285Y-89681009D01*
X140214285Y-89681009D02*
X140214285Y-90204819D01*
X141023809Y-89681009D02*
X140690476Y-89681009D01*
X140690476Y-90204819D02*
X140690476Y-89204819D01*
X140690476Y-89204819D02*
X141166666Y-89204819D01*
X138833333Y-87609580D02*
X138785714Y-87657200D01*
X138785714Y-87657200D02*
X138642857Y-87704819D01*
X138642857Y-87704819D02*
X138547619Y-87704819D01*
X138547619Y-87704819D02*
X138404762Y-87657200D01*
X138404762Y-87657200D02*
X138309524Y-87561961D01*
X138309524Y-87561961D02*
X138261905Y-87466723D01*
X138261905Y-87466723D02*
X138214286Y-87276247D01*
X138214286Y-87276247D02*
X138214286Y-87133390D01*
X138214286Y-87133390D02*
X138261905Y-86942914D01*
X138261905Y-86942914D02*
X138309524Y-86847676D01*
X138309524Y-86847676D02*
X138404762Y-86752438D01*
X138404762Y-86752438D02*
X138547619Y-86704819D01*
X138547619Y-86704819D02*
X138642857Y-86704819D01*
X138642857Y-86704819D02*
X138785714Y-86752438D01*
X138785714Y-86752438D02*
X138833333Y-86800057D01*
X139785714Y-87704819D02*
X139214286Y-87704819D01*
X139500000Y-87704819D02*
X139500000Y-86704819D01*
X139500000Y-86704819D02*
X139404762Y-86847676D01*
X139404762Y-86847676D02*
X139309524Y-86942914D01*
X139309524Y-86942914D02*
X139214286Y-86990533D01*
X115380952Y-94752438D02*
X115285714Y-94704819D01*
X115285714Y-94704819D02*
X115142857Y-94704819D01*
X115142857Y-94704819D02*
X115000000Y-94752438D01*
X115000000Y-94752438D02*
X114904762Y-94847676D01*
X114904762Y-94847676D02*
X114857143Y-94942914D01*
X114857143Y-94942914D02*
X114809524Y-95133390D01*
X114809524Y-95133390D02*
X114809524Y-95276247D01*
X114809524Y-95276247D02*
X114857143Y-95466723D01*
X114857143Y-95466723D02*
X114904762Y-95561961D01*
X114904762Y-95561961D02*
X115000000Y-95657200D01*
X115000000Y-95657200D02*
X115142857Y-95704819D01*
X115142857Y-95704819D02*
X115238095Y-95704819D01*
X115238095Y-95704819D02*
X115380952Y-95657200D01*
X115380952Y-95657200D02*
X115428571Y-95609580D01*
X115428571Y-95609580D02*
X115428571Y-95276247D01*
X115428571Y-95276247D02*
X115238095Y-95276247D01*
X115809524Y-95419104D02*
X116285714Y-95419104D01*
X115714286Y-95704819D02*
X116047619Y-94704819D01*
X116047619Y-94704819D02*
X116380952Y-95704819D01*
X116571429Y-94704819D02*
X117142857Y-94704819D01*
X116857143Y-95704819D02*
X116857143Y-94704819D01*
X117476191Y-95181009D02*
X117809524Y-95181009D01*
X117952381Y-95704819D02*
X117476191Y-95704819D01*
X117476191Y-95704819D02*
X117476191Y-94704819D01*
X117476191Y-94704819D02*
X117952381Y-94704819D01*
X118142858Y-95800057D02*
X118904762Y-95800057D01*
X119142858Y-95704819D02*
X119142858Y-94704819D01*
X119714286Y-95704819D02*
X119285715Y-95133390D01*
X119714286Y-94704819D02*
X119142858Y-95276247D01*
X120142858Y-95704819D02*
X120142858Y-94704819D01*
X121190476Y-95609580D02*
X121142857Y-95657200D01*
X121142857Y-95657200D02*
X121000000Y-95704819D01*
X121000000Y-95704819D02*
X120904762Y-95704819D01*
X120904762Y-95704819D02*
X120761905Y-95657200D01*
X120761905Y-95657200D02*
X120666667Y-95561961D01*
X120666667Y-95561961D02*
X120619048Y-95466723D01*
X120619048Y-95466723D02*
X120571429Y-95276247D01*
X120571429Y-95276247D02*
X120571429Y-95133390D01*
X120571429Y-95133390D02*
X120619048Y-94942914D01*
X120619048Y-94942914D02*
X120666667Y-94847676D01*
X120666667Y-94847676D02*
X120761905Y-94752438D01*
X120761905Y-94752438D02*
X120904762Y-94704819D01*
X120904762Y-94704819D02*
X121000000Y-94704819D01*
X121000000Y-94704819D02*
X121142857Y-94752438D01*
X121142857Y-94752438D02*
X121190476Y-94800057D01*
X121619048Y-95704819D02*
X121619048Y-94704819D01*
X122190476Y-95704819D02*
X121761905Y-95133390D01*
X122190476Y-94704819D02*
X121619048Y-95276247D01*
X117238095Y-91304819D02*
X117809523Y-91304819D01*
X117523809Y-92304819D02*
X117523809Y-91304819D01*
X118142857Y-92304819D02*
X118142857Y-91304819D01*
X118142857Y-91304819D02*
X118523809Y-91304819D01*
X118523809Y-91304819D02*
X118619047Y-91352438D01*
X118619047Y-91352438D02*
X118666666Y-91400057D01*
X118666666Y-91400057D02*
X118714285Y-91495295D01*
X118714285Y-91495295D02*
X118714285Y-91638152D01*
X118714285Y-91638152D02*
X118666666Y-91733390D01*
X118666666Y-91733390D02*
X118619047Y-91781009D01*
X118619047Y-91781009D02*
X118523809Y-91828628D01*
X118523809Y-91828628D02*
X118142857Y-91828628D01*
X119619047Y-91304819D02*
X119142857Y-91304819D01*
X119142857Y-91304819D02*
X119095238Y-91781009D01*
X119095238Y-91781009D02*
X119142857Y-91733390D01*
X119142857Y-91733390D02*
X119238095Y-91685771D01*
X119238095Y-91685771D02*
X119476190Y-91685771D01*
X119476190Y-91685771D02*
X119571428Y-91733390D01*
X119571428Y-91733390D02*
X119619047Y-91781009D01*
X119619047Y-91781009D02*
X119666666Y-91876247D01*
X119666666Y-91876247D02*
X119666666Y-92114342D01*
X119666666Y-92114342D02*
X119619047Y-92209580D01*
X119619047Y-92209580D02*
X119571428Y-92257200D01*
X119571428Y-92257200D02*
X119476190Y-92304819D01*
X119476190Y-92304819D02*
X119238095Y-92304819D01*
X119238095Y-92304819D02*
X119142857Y-92257200D01*
X119142857Y-92257200D02*
X119095238Y-92209580D01*
X143321428Y-140633390D02*
X143226190Y-140585771D01*
X143226190Y-140585771D02*
X143178571Y-140538152D01*
X143178571Y-140538152D02*
X143130952Y-140442914D01*
X143130952Y-140442914D02*
X143130952Y-140395295D01*
X143130952Y-140395295D02*
X143178571Y-140300057D01*
X143178571Y-140300057D02*
X143226190Y-140252438D01*
X143226190Y-140252438D02*
X143321428Y-140204819D01*
X143321428Y-140204819D02*
X143511904Y-140204819D01*
X143511904Y-140204819D02*
X143607142Y-140252438D01*
X143607142Y-140252438D02*
X143654761Y-140300057D01*
X143654761Y-140300057D02*
X143702380Y-140395295D01*
X143702380Y-140395295D02*
X143702380Y-140442914D01*
X143702380Y-140442914D02*
X143654761Y-140538152D01*
X143654761Y-140538152D02*
X143607142Y-140585771D01*
X143607142Y-140585771D02*
X143511904Y-140633390D01*
X143511904Y-140633390D02*
X143321428Y-140633390D01*
X143321428Y-140633390D02*
X143226190Y-140681009D01*
X143226190Y-140681009D02*
X143178571Y-140728628D01*
X143178571Y-140728628D02*
X143130952Y-140823866D01*
X143130952Y-140823866D02*
X143130952Y-141014342D01*
X143130952Y-141014342D02*
X143178571Y-141109580D01*
X143178571Y-141109580D02*
X143226190Y-141157200D01*
X143226190Y-141157200D02*
X143321428Y-141204819D01*
X143321428Y-141204819D02*
X143511904Y-141204819D01*
X143511904Y-141204819D02*
X143607142Y-141157200D01*
X143607142Y-141157200D02*
X143654761Y-141109580D01*
X143654761Y-141109580D02*
X143702380Y-141014342D01*
X143702380Y-141014342D02*
X143702380Y-140823866D01*
X143702380Y-140823866D02*
X143654761Y-140728628D01*
X143654761Y-140728628D02*
X143607142Y-140681009D01*
X143607142Y-140681009D02*
X143511904Y-140633390D01*
X144083333Y-140300057D02*
X144130952Y-140252438D01*
X144130952Y-140252438D02*
X144226190Y-140204819D01*
X144226190Y-140204819D02*
X144464285Y-140204819D01*
X144464285Y-140204819D02*
X144559523Y-140252438D01*
X144559523Y-140252438D02*
X144607142Y-140300057D01*
X144607142Y-140300057D02*
X144654761Y-140395295D01*
X144654761Y-140395295D02*
X144654761Y-140490533D01*
X144654761Y-140490533D02*
X144607142Y-140633390D01*
X144607142Y-140633390D02*
X144035714Y-141204819D01*
X144035714Y-141204819D02*
X144654761Y-141204819D01*
X145273809Y-140204819D02*
X145369047Y-140204819D01*
X145369047Y-140204819D02*
X145464285Y-140252438D01*
X145464285Y-140252438D02*
X145511904Y-140300057D01*
X145511904Y-140300057D02*
X145559523Y-140395295D01*
X145559523Y-140395295D02*
X145607142Y-140585771D01*
X145607142Y-140585771D02*
X145607142Y-140823866D01*
X145607142Y-140823866D02*
X145559523Y-141014342D01*
X145559523Y-141014342D02*
X145511904Y-141109580D01*
X145511904Y-141109580D02*
X145464285Y-141157200D01*
X145464285Y-141157200D02*
X145369047Y-141204819D01*
X145369047Y-141204819D02*
X145273809Y-141204819D01*
X145273809Y-141204819D02*
X145178571Y-141157200D01*
X145178571Y-141157200D02*
X145130952Y-141109580D01*
X145130952Y-141109580D02*
X145083333Y-141014342D01*
X145083333Y-141014342D02*
X145035714Y-140823866D01*
X145035714Y-140823866D02*
X145035714Y-140585771D01*
X145035714Y-140585771D02*
X145083333Y-140395295D01*
X145083333Y-140395295D02*
X145130952Y-140300057D01*
X145130952Y-140300057D02*
X145178571Y-140252438D01*
X145178571Y-140252438D02*
X145273809Y-140204819D01*
X146464285Y-140538152D02*
X146464285Y-141204819D01*
X146035714Y-140538152D02*
X146035714Y-141061961D01*
X146035714Y-141061961D02*
X146083333Y-141157200D01*
X146083333Y-141157200D02*
X146178571Y-141204819D01*
X146178571Y-141204819D02*
X146321428Y-141204819D01*
X146321428Y-141204819D02*
X146416666Y-141157200D01*
X146416666Y-141157200D02*
X146464285Y-141109580D01*
X147273809Y-140681009D02*
X146940476Y-140681009D01*
X146940476Y-141204819D02*
X146940476Y-140204819D01*
X146940476Y-140204819D02*
X147416666Y-140204819D01*
X145083333Y-157359580D02*
X145035714Y-157407200D01*
X145035714Y-157407200D02*
X144892857Y-157454819D01*
X144892857Y-157454819D02*
X144797619Y-157454819D01*
X144797619Y-157454819D02*
X144654762Y-157407200D01*
X144654762Y-157407200D02*
X144559524Y-157311961D01*
X144559524Y-157311961D02*
X144511905Y-157216723D01*
X144511905Y-157216723D02*
X144464286Y-157026247D01*
X144464286Y-157026247D02*
X144464286Y-156883390D01*
X144464286Y-156883390D02*
X144511905Y-156692914D01*
X144511905Y-156692914D02*
X144559524Y-156597676D01*
X144559524Y-156597676D02*
X144654762Y-156502438D01*
X144654762Y-156502438D02*
X144797619Y-156454819D01*
X144797619Y-156454819D02*
X144892857Y-156454819D01*
X144892857Y-156454819D02*
X145035714Y-156502438D01*
X145035714Y-156502438D02*
X145083333Y-156550057D01*
X145988095Y-156454819D02*
X145511905Y-156454819D01*
X145511905Y-156454819D02*
X145464286Y-156931009D01*
X145464286Y-156931009D02*
X145511905Y-156883390D01*
X145511905Y-156883390D02*
X145607143Y-156835771D01*
X145607143Y-156835771D02*
X145845238Y-156835771D01*
X145845238Y-156835771D02*
X145940476Y-156883390D01*
X145940476Y-156883390D02*
X145988095Y-156931009D01*
X145988095Y-156931009D02*
X146035714Y-157026247D01*
X146035714Y-157026247D02*
X146035714Y-157264342D01*
X146035714Y-157264342D02*
X145988095Y-157359580D01*
X145988095Y-157359580D02*
X145940476Y-157407200D01*
X145940476Y-157407200D02*
X145845238Y-157454819D01*
X145845238Y-157454819D02*
X145607143Y-157454819D01*
X145607143Y-157454819D02*
X145511905Y-157407200D01*
X145511905Y-157407200D02*
X145464286Y-157359580D01*
X89047619Y-134904819D02*
X89380952Y-135904819D01*
X89380952Y-135904819D02*
X89714285Y-134904819D01*
X90047619Y-135523866D02*
X90809524Y-135523866D01*
X90428571Y-135904819D02*
X90428571Y-135142914D01*
X88261905Y-129954819D02*
X88833333Y-129954819D01*
X88547619Y-130954819D02*
X88547619Y-129954819D01*
X89166667Y-130954819D02*
X89166667Y-129954819D01*
X89166667Y-129954819D02*
X89547619Y-129954819D01*
X89547619Y-129954819D02*
X89642857Y-130002438D01*
X89642857Y-130002438D02*
X89690476Y-130050057D01*
X89690476Y-130050057D02*
X89738095Y-130145295D01*
X89738095Y-130145295D02*
X89738095Y-130288152D01*
X89738095Y-130288152D02*
X89690476Y-130383390D01*
X89690476Y-130383390D02*
X89642857Y-130431009D01*
X89642857Y-130431009D02*
X89547619Y-130478628D01*
X89547619Y-130478628D02*
X89166667Y-130478628D01*
X90690476Y-130954819D02*
X90119048Y-130954819D01*
X90404762Y-130954819D02*
X90404762Y-129954819D01*
X90404762Y-129954819D02*
X90309524Y-130097676D01*
X90309524Y-130097676D02*
X90214286Y-130192914D01*
X90214286Y-130192914D02*
X90119048Y-130240533D01*
X91071429Y-130050057D02*
X91119048Y-130002438D01*
X91119048Y-130002438D02*
X91214286Y-129954819D01*
X91214286Y-129954819D02*
X91452381Y-129954819D01*
X91452381Y-129954819D02*
X91547619Y-130002438D01*
X91547619Y-130002438D02*
X91595238Y-130050057D01*
X91595238Y-130050057D02*
X91642857Y-130145295D01*
X91642857Y-130145295D02*
X91642857Y-130240533D01*
X91642857Y-130240533D02*
X91595238Y-130383390D01*
X91595238Y-130383390D02*
X91023810Y-130954819D01*
X91023810Y-130954819D02*
X91642857Y-130954819D01*
X125704819Y-65523809D02*
X125704819Y-66095237D01*
X125704819Y-65809523D02*
X124704819Y-65809523D01*
X124704819Y-65809523D02*
X124847676Y-65904761D01*
X124847676Y-65904761D02*
X124942914Y-65999999D01*
X124942914Y-65999999D02*
X124990533Y-66095237D01*
X124704819Y-64904761D02*
X124704819Y-64809523D01*
X124704819Y-64809523D02*
X124752438Y-64714285D01*
X124752438Y-64714285D02*
X124800057Y-64666666D01*
X124800057Y-64666666D02*
X124895295Y-64619047D01*
X124895295Y-64619047D02*
X125085771Y-64571428D01*
X125085771Y-64571428D02*
X125323866Y-64571428D01*
X125323866Y-64571428D02*
X125514342Y-64619047D01*
X125514342Y-64619047D02*
X125609580Y-64666666D01*
X125609580Y-64666666D02*
X125657200Y-64714285D01*
X125657200Y-64714285D02*
X125704819Y-64809523D01*
X125704819Y-64809523D02*
X125704819Y-64904761D01*
X125704819Y-64904761D02*
X125657200Y-64999999D01*
X125657200Y-64999999D02*
X125609580Y-65047618D01*
X125609580Y-65047618D02*
X125514342Y-65095237D01*
X125514342Y-65095237D02*
X125323866Y-65142856D01*
X125323866Y-65142856D02*
X125085771Y-65142856D01*
X125085771Y-65142856D02*
X124895295Y-65095237D01*
X124895295Y-65095237D02*
X124800057Y-65047618D01*
X124800057Y-65047618D02*
X124752438Y-64999999D01*
X124752438Y-64999999D02*
X124704819Y-64904761D01*
X124704819Y-63952380D02*
X124704819Y-63857142D01*
X124704819Y-63857142D02*
X124752438Y-63761904D01*
X124752438Y-63761904D02*
X124800057Y-63714285D01*
X124800057Y-63714285D02*
X124895295Y-63666666D01*
X124895295Y-63666666D02*
X125085771Y-63619047D01*
X125085771Y-63619047D02*
X125323866Y-63619047D01*
X125323866Y-63619047D02*
X125514342Y-63666666D01*
X125514342Y-63666666D02*
X125609580Y-63714285D01*
X125609580Y-63714285D02*
X125657200Y-63761904D01*
X125657200Y-63761904D02*
X125704819Y-63857142D01*
X125704819Y-63857142D02*
X125704819Y-63952380D01*
X125704819Y-63952380D02*
X125657200Y-64047618D01*
X125657200Y-64047618D02*
X125609580Y-64095237D01*
X125609580Y-64095237D02*
X125514342Y-64142856D01*
X125514342Y-64142856D02*
X125323866Y-64190475D01*
X125323866Y-64190475D02*
X125085771Y-64190475D01*
X125085771Y-64190475D02*
X124895295Y-64142856D01*
X124895295Y-64142856D02*
X124800057Y-64095237D01*
X124800057Y-64095237D02*
X124752438Y-64047618D01*
X124752438Y-64047618D02*
X124704819Y-63952380D01*
X124704819Y-62999999D02*
X124704819Y-62904761D01*
X124704819Y-62904761D02*
X124752438Y-62809523D01*
X124752438Y-62809523D02*
X124800057Y-62761904D01*
X124800057Y-62761904D02*
X124895295Y-62714285D01*
X124895295Y-62714285D02*
X125085771Y-62666666D01*
X125085771Y-62666666D02*
X125323866Y-62666666D01*
X125323866Y-62666666D02*
X125514342Y-62714285D01*
X125514342Y-62714285D02*
X125609580Y-62761904D01*
X125609580Y-62761904D02*
X125657200Y-62809523D01*
X125657200Y-62809523D02*
X125704819Y-62904761D01*
X125704819Y-62904761D02*
X125704819Y-62999999D01*
X125704819Y-62999999D02*
X125657200Y-63095237D01*
X125657200Y-63095237D02*
X125609580Y-63142856D01*
X125609580Y-63142856D02*
X125514342Y-63190475D01*
X125514342Y-63190475D02*
X125323866Y-63238094D01*
X125323866Y-63238094D02*
X125085771Y-63238094D01*
X125085771Y-63238094D02*
X124895295Y-63190475D01*
X124895295Y-63190475D02*
X124800057Y-63142856D01*
X124800057Y-63142856D02*
X124752438Y-63095237D01*
X124752438Y-63095237D02*
X124704819Y-62999999D01*
X125038152Y-61809523D02*
X125704819Y-61809523D01*
X125038152Y-62238094D02*
X125561961Y-62238094D01*
X125561961Y-62238094D02*
X125657200Y-62190475D01*
X125657200Y-62190475D02*
X125704819Y-62095237D01*
X125704819Y-62095237D02*
X125704819Y-61952380D01*
X125704819Y-61952380D02*
X125657200Y-61857142D01*
X125657200Y-61857142D02*
X125609580Y-61809523D01*
X125181009Y-60999999D02*
X125181009Y-61333332D01*
X125704819Y-61333332D02*
X124704819Y-61333332D01*
X124704819Y-61333332D02*
X124704819Y-60857142D01*
X130859580Y-63666666D02*
X130907200Y-63714285D01*
X130907200Y-63714285D02*
X130954819Y-63857142D01*
X130954819Y-63857142D02*
X130954819Y-63952380D01*
X130954819Y-63952380D02*
X130907200Y-64095237D01*
X130907200Y-64095237D02*
X130811961Y-64190475D01*
X130811961Y-64190475D02*
X130716723Y-64238094D01*
X130716723Y-64238094D02*
X130526247Y-64285713D01*
X130526247Y-64285713D02*
X130383390Y-64285713D01*
X130383390Y-64285713D02*
X130192914Y-64238094D01*
X130192914Y-64238094D02*
X130097676Y-64190475D01*
X130097676Y-64190475D02*
X130002438Y-64095237D01*
X130002438Y-64095237D02*
X129954819Y-63952380D01*
X129954819Y-63952380D02*
X129954819Y-63857142D01*
X129954819Y-63857142D02*
X130002438Y-63714285D01*
X130002438Y-63714285D02*
X130050057Y-63666666D01*
X129954819Y-63333332D02*
X129954819Y-62714285D01*
X129954819Y-62714285D02*
X130335771Y-63047618D01*
X130335771Y-63047618D02*
X130335771Y-62904761D01*
X130335771Y-62904761D02*
X130383390Y-62809523D01*
X130383390Y-62809523D02*
X130431009Y-62761904D01*
X130431009Y-62761904D02*
X130526247Y-62714285D01*
X130526247Y-62714285D02*
X130764342Y-62714285D01*
X130764342Y-62714285D02*
X130859580Y-62761904D01*
X130859580Y-62761904D02*
X130907200Y-62809523D01*
X130907200Y-62809523D02*
X130954819Y-62904761D01*
X130954819Y-62904761D02*
X130954819Y-63190475D01*
X130954819Y-63190475D02*
X130907200Y-63285713D01*
X130907200Y-63285713D02*
X130859580Y-63333332D01*
X57352142Y-84414819D02*
X56875952Y-84414819D01*
X56875952Y-84414819D02*
X56875952Y-83414819D01*
X57685476Y-83891009D02*
X58018809Y-83891009D01*
X58161666Y-84414819D02*
X57685476Y-84414819D01*
X57685476Y-84414819D02*
X57685476Y-83414819D01*
X57685476Y-83414819D02*
X58161666Y-83414819D01*
X58590238Y-84414819D02*
X58590238Y-83414819D01*
X58590238Y-83414819D02*
X58828333Y-83414819D01*
X58828333Y-83414819D02*
X58971190Y-83462438D01*
X58971190Y-83462438D02*
X59066428Y-83557676D01*
X59066428Y-83557676D02*
X59114047Y-83652914D01*
X59114047Y-83652914D02*
X59161666Y-83843390D01*
X59161666Y-83843390D02*
X59161666Y-83986247D01*
X59161666Y-83986247D02*
X59114047Y-84176723D01*
X59114047Y-84176723D02*
X59066428Y-84271961D01*
X59066428Y-84271961D02*
X58971190Y-84367200D01*
X58971190Y-84367200D02*
X58828333Y-84414819D01*
X58828333Y-84414819D02*
X58590238Y-84414819D01*
D11*
X57404524Y-80363855D02*
X57404524Y-79563855D01*
X57404524Y-79563855D02*
X57595000Y-79563855D01*
X57595000Y-79563855D02*
X57709286Y-79601950D01*
X57709286Y-79601950D02*
X57785476Y-79678140D01*
X57785476Y-79678140D02*
X57823571Y-79754331D01*
X57823571Y-79754331D02*
X57861667Y-79906712D01*
X57861667Y-79906712D02*
X57861667Y-80020998D01*
X57861667Y-80020998D02*
X57823571Y-80173379D01*
X57823571Y-80173379D02*
X57785476Y-80249569D01*
X57785476Y-80249569D02*
X57709286Y-80325760D01*
X57709286Y-80325760D02*
X57595000Y-80363855D01*
X57595000Y-80363855D02*
X57404524Y-80363855D01*
X58547381Y-79830521D02*
X58547381Y-80363855D01*
X58356905Y-79525760D02*
X58166428Y-80097188D01*
X58166428Y-80097188D02*
X58661667Y-80097188D01*
D10*
X121084819Y-95619047D02*
X121084819Y-96190475D01*
X121084819Y-95904761D02*
X120084819Y-95904761D01*
X120084819Y-95904761D02*
X120227676Y-95999999D01*
X120227676Y-95999999D02*
X120322914Y-96095237D01*
X120322914Y-96095237D02*
X120370533Y-96190475D01*
X121084819Y-95190475D02*
X120084819Y-95190475D01*
X120703866Y-95095237D02*
X121084819Y-94809523D01*
X120418152Y-94809523D02*
X120799104Y-95190475D01*
X123454819Y-96142857D02*
X122978628Y-96476190D01*
X123454819Y-96714285D02*
X122454819Y-96714285D01*
X122454819Y-96714285D02*
X122454819Y-96333333D01*
X122454819Y-96333333D02*
X122502438Y-96238095D01*
X122502438Y-96238095D02*
X122550057Y-96190476D01*
X122550057Y-96190476D02*
X122645295Y-96142857D01*
X122645295Y-96142857D02*
X122788152Y-96142857D01*
X122788152Y-96142857D02*
X122883390Y-96190476D01*
X122883390Y-96190476D02*
X122931009Y-96238095D01*
X122931009Y-96238095D02*
X122978628Y-96333333D01*
X122978628Y-96333333D02*
X122978628Y-96714285D01*
X122550057Y-95761904D02*
X122502438Y-95714285D01*
X122502438Y-95714285D02*
X122454819Y-95619047D01*
X122454819Y-95619047D02*
X122454819Y-95380952D01*
X122454819Y-95380952D02*
X122502438Y-95285714D01*
X122502438Y-95285714D02*
X122550057Y-95238095D01*
X122550057Y-95238095D02*
X122645295Y-95190476D01*
X122645295Y-95190476D02*
X122740533Y-95190476D01*
X122740533Y-95190476D02*
X122883390Y-95238095D01*
X122883390Y-95238095D02*
X123454819Y-95809523D01*
X123454819Y-95809523D02*
X123454819Y-95190476D01*
X122454819Y-94285714D02*
X122454819Y-94761904D01*
X122454819Y-94761904D02*
X122931009Y-94809523D01*
X122931009Y-94809523D02*
X122883390Y-94761904D01*
X122883390Y-94761904D02*
X122835771Y-94666666D01*
X122835771Y-94666666D02*
X122835771Y-94428571D01*
X122835771Y-94428571D02*
X122883390Y-94333333D01*
X122883390Y-94333333D02*
X122931009Y-94285714D01*
X122931009Y-94285714D02*
X123026247Y-94238095D01*
X123026247Y-94238095D02*
X123264342Y-94238095D01*
X123264342Y-94238095D02*
X123359580Y-94285714D01*
X123359580Y-94285714D02*
X123407200Y-94333333D01*
X123407200Y-94333333D02*
X123454819Y-94428571D01*
X123454819Y-94428571D02*
X123454819Y-94666666D01*
X123454819Y-94666666D02*
X123407200Y-94761904D01*
X123407200Y-94761904D02*
X123359580Y-94809523D01*
X70775460Y-63287271D02*
X70723872Y-63330559D01*
X70723872Y-63330559D02*
X70577408Y-63365546D01*
X70577408Y-63365546D02*
X70482533Y-63357245D01*
X70482533Y-63357245D02*
X70344369Y-63297357D01*
X70344369Y-63297357D02*
X70257794Y-63194180D01*
X70257794Y-63194180D02*
X70218657Y-63095154D01*
X70218657Y-63095154D02*
X70187820Y-62901253D01*
X70187820Y-62901253D02*
X70200271Y-62758939D01*
X70200271Y-62758939D02*
X70264310Y-62573338D01*
X70264310Y-62573338D02*
X70320048Y-62482613D01*
X70320048Y-62482613D02*
X70423224Y-62396038D01*
X70423224Y-62396038D02*
X70569688Y-62361051D01*
X70569688Y-62361051D02*
X70664564Y-62369351D01*
X70664564Y-62369351D02*
X70802727Y-62429240D01*
X70802727Y-62429240D02*
X70846015Y-62480828D01*
X71336414Y-63431950D02*
X71245688Y-63376212D01*
X71245688Y-63376212D02*
X71202401Y-63324624D01*
X71202401Y-63324624D02*
X71163263Y-63225598D01*
X71163263Y-63225598D02*
X71188165Y-62940971D01*
X71188165Y-62940971D02*
X71243903Y-62850245D01*
X71243903Y-62850245D02*
X71295492Y-62806958D01*
X71295492Y-62806958D02*
X71394518Y-62767820D01*
X71394518Y-62767820D02*
X71536831Y-62780271D01*
X71536831Y-62780271D02*
X71627556Y-62836010D01*
X71627556Y-62836010D02*
X71670844Y-62887598D01*
X71670844Y-62887598D02*
X71709981Y-62986624D01*
X71709981Y-62986624D02*
X71685080Y-63271251D01*
X71685080Y-63271251D02*
X71629341Y-63361976D01*
X71629341Y-63361976D02*
X71577753Y-63405264D01*
X71577753Y-63405264D02*
X71478727Y-63444401D01*
X71478727Y-63444401D02*
X71336414Y-63431950D01*
X72153523Y-62834225D02*
X72095419Y-63498355D01*
X72145223Y-62929100D02*
X72196811Y-62885813D01*
X72196811Y-62885813D02*
X72295837Y-62846676D01*
X72295837Y-62846676D02*
X72438150Y-62859126D01*
X72438150Y-62859126D02*
X72528876Y-62914865D01*
X72528876Y-62914865D02*
X72568013Y-63013891D01*
X72568013Y-63013891D02*
X72522360Y-63535707D01*
X73054842Y-62913080D02*
X72996738Y-63577210D01*
X73046542Y-63007956D02*
X73098130Y-62964668D01*
X73098130Y-62964668D02*
X73197156Y-62925531D01*
X73197156Y-62925531D02*
X73339469Y-62937982D01*
X73339469Y-62937982D02*
X73430195Y-62993720D01*
X73430195Y-62993720D02*
X73469332Y-63092746D01*
X73469332Y-63092746D02*
X73423679Y-63614562D01*
X73652568Y-63730189D02*
X74411573Y-63796594D01*
X74933970Y-62742876D02*
X75028846Y-62751176D01*
X75028846Y-62751176D02*
X75119571Y-62806915D01*
X75119571Y-62806915D02*
X75162859Y-62858503D01*
X75162859Y-62858503D02*
X75201996Y-62957529D01*
X75201996Y-62957529D02*
X75232833Y-63151430D01*
X75232833Y-63151430D02*
X75212082Y-63388620D01*
X75212082Y-63388620D02*
X75148043Y-63574221D01*
X75148043Y-63574221D02*
X75092304Y-63664946D01*
X75092304Y-63664946D02*
X75040716Y-63708234D01*
X75040716Y-63708234D02*
X74941690Y-63747371D01*
X74941690Y-63747371D02*
X74846815Y-63739070D01*
X74846815Y-63739070D02*
X74756089Y-63683332D01*
X74756089Y-63683332D02*
X74712802Y-63631744D01*
X74712802Y-63631744D02*
X74673664Y-63532718D01*
X74673664Y-63532718D02*
X74642828Y-63338816D01*
X74642828Y-63338816D02*
X74663579Y-63101627D01*
X74663579Y-63101627D02*
X74727618Y-62916026D01*
X74727618Y-62916026D02*
X74783356Y-62825301D01*
X74783356Y-62825301D02*
X74834944Y-62782013D01*
X74834944Y-62782013D02*
X74933970Y-62742876D01*
X75637237Y-62900005D02*
X75688826Y-62856718D01*
X75688826Y-62856718D02*
X75787852Y-62817581D01*
X75787852Y-62817581D02*
X76025041Y-62838332D01*
X76025041Y-62838332D02*
X76115766Y-62894070D01*
X76115766Y-62894070D02*
X76159054Y-62945659D01*
X76159054Y-62945659D02*
X76198191Y-63044684D01*
X76198191Y-63044684D02*
X76189891Y-63139560D01*
X76189891Y-63139560D02*
X76130002Y-63277723D01*
X76130002Y-63277723D02*
X75510944Y-63797174D01*
X75510944Y-63797174D02*
X76127636Y-63851128D01*
X76459701Y-63880180D02*
X77039621Y-63261703D01*
X76517805Y-63216050D02*
X76981518Y-63925833D01*
X77637928Y-62979441D02*
X77732803Y-62987742D01*
X77732803Y-62987742D02*
X77823529Y-63043480D01*
X77823529Y-63043480D02*
X77866816Y-63095068D01*
X77866816Y-63095068D02*
X77905954Y-63194094D01*
X77905954Y-63194094D02*
X77936790Y-63387996D01*
X77936790Y-63387996D02*
X77916039Y-63625185D01*
X77916039Y-63625185D02*
X77852000Y-63810786D01*
X77852000Y-63810786D02*
X77796262Y-63901512D01*
X77796262Y-63901512D02*
X77744674Y-63944799D01*
X77744674Y-63944799D02*
X77645648Y-63983937D01*
X77645648Y-63983937D02*
X77550772Y-63975636D01*
X77550772Y-63975636D02*
X77460047Y-63919898D01*
X77460047Y-63919898D02*
X77416759Y-63868310D01*
X77416759Y-63868310D02*
X77377622Y-63769284D01*
X77377622Y-63769284D02*
X77346785Y-63575382D01*
X77346785Y-63575382D02*
X77367536Y-63338193D01*
X77367536Y-63338193D02*
X77431575Y-63152592D01*
X77431575Y-63152592D02*
X77487314Y-63061866D01*
X77487314Y-63061866D02*
X77538902Y-63018579D01*
X77538902Y-63018579D02*
X77637928Y-62979441D01*
X78501894Y-63485237D02*
X78411169Y-63429499D01*
X78411169Y-63429499D02*
X78367881Y-63377911D01*
X78367881Y-63377911D02*
X78328744Y-63278885D01*
X78328744Y-63278885D02*
X78332894Y-63231447D01*
X78332894Y-63231447D02*
X78388633Y-63140721D01*
X78388633Y-63140721D02*
X78440221Y-63097434D01*
X78440221Y-63097434D02*
X78539247Y-63058297D01*
X78539247Y-63058297D02*
X78728998Y-63074898D01*
X78728998Y-63074898D02*
X78819724Y-63130636D01*
X78819724Y-63130636D02*
X78863011Y-63182224D01*
X78863011Y-63182224D02*
X78902148Y-63281250D01*
X78902148Y-63281250D02*
X78897998Y-63328688D01*
X78897998Y-63328688D02*
X78842260Y-63419413D01*
X78842260Y-63419413D02*
X78790672Y-63462701D01*
X78790672Y-63462701D02*
X78691646Y-63501838D01*
X78691646Y-63501838D02*
X78501894Y-63485237D01*
X78501894Y-63485237D02*
X78402868Y-63524374D01*
X78402868Y-63524374D02*
X78351280Y-63567662D01*
X78351280Y-63567662D02*
X78295542Y-63658387D01*
X78295542Y-63658387D02*
X78278941Y-63848139D01*
X78278941Y-63848139D02*
X78318078Y-63947165D01*
X78318078Y-63947165D02*
X78361366Y-63998753D01*
X78361366Y-63998753D02*
X78452091Y-64054491D01*
X78452091Y-64054491D02*
X78641842Y-64071092D01*
X78641842Y-64071092D02*
X78740868Y-64031955D01*
X78740868Y-64031955D02*
X78792456Y-63988667D01*
X78792456Y-63988667D02*
X78848195Y-63897942D01*
X78848195Y-63897942D02*
X78864796Y-63708191D01*
X78864796Y-63708191D02*
X78825659Y-63609165D01*
X78825659Y-63609165D02*
X78782371Y-63557577D01*
X78782371Y-63557577D02*
X78691646Y-63501838D01*
X79013045Y-64199170D02*
X79772050Y-64265575D01*
X80294447Y-63211857D02*
X80484199Y-63228458D01*
X80484199Y-63228458D02*
X80574924Y-63284196D01*
X80574924Y-63284196D02*
X80661499Y-63387372D01*
X80661499Y-63387372D02*
X80692336Y-63581274D01*
X80692336Y-63581274D02*
X80663284Y-63913339D01*
X80663284Y-63913339D02*
X80599245Y-64098940D01*
X80599245Y-64098940D02*
X80496069Y-64185515D01*
X80496069Y-64185515D02*
X80397043Y-64224652D01*
X80397043Y-64224652D02*
X80207291Y-64208051D01*
X80207291Y-64208051D02*
X80116566Y-64152313D01*
X80116566Y-64152313D02*
X80029991Y-64049137D01*
X80029991Y-64049137D02*
X79999154Y-63855235D01*
X79999154Y-63855235D02*
X80028206Y-63523170D01*
X80028206Y-63523170D02*
X80092245Y-63337569D01*
X80092245Y-63337569D02*
X80195421Y-63250994D01*
X80195421Y-63250994D02*
X80294447Y-63211857D01*
X81488113Y-64320109D02*
X81575269Y-63323914D01*
X81492263Y-64272671D02*
X81393237Y-64311808D01*
X81393237Y-64311808D02*
X81203486Y-64295207D01*
X81203486Y-64295207D02*
X81112761Y-64239469D01*
X81112761Y-64239469D02*
X81069473Y-64187881D01*
X81069473Y-64187881D02*
X81030336Y-64088855D01*
X81030336Y-64088855D02*
X81055237Y-63804228D01*
X81055237Y-63804228D02*
X81110976Y-63713502D01*
X81110976Y-63713502D02*
X81162564Y-63670215D01*
X81162564Y-63670215D02*
X81261590Y-63631077D01*
X81261590Y-63631077D02*
X81451341Y-63647678D01*
X81451341Y-63647678D02*
X81542067Y-63703417D01*
X82389432Y-64398964D02*
X82476588Y-63402769D01*
X82393583Y-64351526D02*
X82294557Y-64390663D01*
X82294557Y-64390663D02*
X82104805Y-64374062D01*
X82104805Y-64374062D02*
X82014080Y-64318324D01*
X82014080Y-64318324D02*
X81970792Y-64266736D01*
X81970792Y-64266736D02*
X81931655Y-64167710D01*
X81931655Y-64167710D02*
X81956557Y-63883083D01*
X81956557Y-63883083D02*
X82012295Y-63792357D01*
X82012295Y-63792357D02*
X82063883Y-63749070D01*
X82063883Y-63749070D02*
X82162909Y-63709933D01*
X82162909Y-63709933D02*
X82352660Y-63726534D01*
X82352660Y-63726534D02*
X82443386Y-63782272D01*
X82618321Y-64514591D02*
X83377327Y-64580995D01*
X83668470Y-63985055D02*
X84000534Y-64014107D01*
X84097195Y-64548374D02*
X83622817Y-64506871D01*
X83622817Y-64506871D02*
X83709972Y-63510676D01*
X83709972Y-63510676D02*
X84184351Y-63552179D01*
X84487364Y-63913296D02*
X84666449Y-64598177D01*
X84666449Y-64598177D02*
X84961742Y-63954799D01*
X85666794Y-64637895D02*
X85567768Y-64677032D01*
X85567768Y-64677032D02*
X85378017Y-64660431D01*
X85378017Y-64660431D02*
X85287292Y-64604693D01*
X85287292Y-64604693D02*
X85248154Y-64505667D01*
X85248154Y-64505667D02*
X85281357Y-64126164D01*
X85281357Y-64126164D02*
X85337095Y-64035439D01*
X85337095Y-64035439D02*
X85436121Y-63996301D01*
X85436121Y-63996301D02*
X85625872Y-64012903D01*
X85625872Y-64012903D02*
X85716598Y-64068641D01*
X85716598Y-64068641D02*
X85755735Y-64167667D01*
X85755735Y-64167667D02*
X85747434Y-64262543D01*
X85747434Y-64262543D02*
X85264755Y-64315916D01*
X86195126Y-64062706D02*
X86137023Y-64726836D01*
X86186826Y-64157582D02*
X86238414Y-64114294D01*
X86238414Y-64114294D02*
X86337440Y-64075157D01*
X86337440Y-64075157D02*
X86479754Y-64087607D01*
X86479754Y-64087607D02*
X86570479Y-64143346D01*
X86570479Y-64143346D02*
X86609616Y-64242372D01*
X86609616Y-64242372D02*
X86563963Y-64764188D01*
X78900264Y-70025072D02*
X78838010Y-70736640D01*
X78838010Y-70736640D02*
X78778121Y-70874803D01*
X78778121Y-70874803D02*
X78674945Y-70961378D01*
X78674945Y-70961378D02*
X78528481Y-70996365D01*
X78528481Y-70996365D02*
X78433606Y-70988065D01*
X79849021Y-70108078D02*
X79374643Y-70066575D01*
X79374643Y-70066575D02*
X79285702Y-70536803D01*
X79285702Y-70536803D02*
X79337290Y-70493516D01*
X79337290Y-70493516D02*
X79436316Y-70454378D01*
X79436316Y-70454378D02*
X79673505Y-70475130D01*
X79673505Y-70475130D02*
X79764231Y-70530868D01*
X79764231Y-70530868D02*
X79807518Y-70582456D01*
X79807518Y-70582456D02*
X79846656Y-70681482D01*
X79846656Y-70681482D02*
X79825904Y-70918671D01*
X79825904Y-70918671D02*
X79770166Y-71009397D01*
X79770166Y-71009397D02*
X79718578Y-71052684D01*
X79718578Y-71052684D02*
X79619552Y-71091822D01*
X79619552Y-71091822D02*
X79382363Y-71071070D01*
X79382363Y-71071070D02*
X79291637Y-71015332D01*
X79291637Y-71015332D02*
X79248350Y-70963744D01*
X94580136Y-135006436D02*
X94580136Y-134006436D01*
X94580136Y-134006436D02*
X94913469Y-134720721D01*
X94913469Y-134720721D02*
X95246802Y-134006436D01*
X95246802Y-134006436D02*
X95246802Y-135006436D01*
X95865850Y-135006436D02*
X95770612Y-134958817D01*
X95770612Y-134958817D02*
X95722993Y-134911197D01*
X95722993Y-134911197D02*
X95675374Y-134815959D01*
X95675374Y-134815959D02*
X95675374Y-134530245D01*
X95675374Y-134530245D02*
X95722993Y-134435007D01*
X95722993Y-134435007D02*
X95770612Y-134387388D01*
X95770612Y-134387388D02*
X95865850Y-134339769D01*
X95865850Y-134339769D02*
X96008707Y-134339769D01*
X96008707Y-134339769D02*
X96103945Y-134387388D01*
X96103945Y-134387388D02*
X96151564Y-134435007D01*
X96151564Y-134435007D02*
X96199183Y-134530245D01*
X96199183Y-134530245D02*
X96199183Y-134815959D01*
X96199183Y-134815959D02*
X96151564Y-134911197D01*
X96151564Y-134911197D02*
X96103945Y-134958817D01*
X96103945Y-134958817D02*
X96008707Y-135006436D01*
X96008707Y-135006436D02*
X95865850Y-135006436D01*
X97056326Y-134339769D02*
X97056326Y-135006436D01*
X96627755Y-134339769D02*
X96627755Y-134863578D01*
X96627755Y-134863578D02*
X96675374Y-134958817D01*
X96675374Y-134958817D02*
X96770612Y-135006436D01*
X96770612Y-135006436D02*
X96913469Y-135006436D01*
X96913469Y-135006436D02*
X97008707Y-134958817D01*
X97008707Y-134958817D02*
X97056326Y-134911197D01*
X97532517Y-134339769D02*
X97532517Y-135006436D01*
X97532517Y-134435007D02*
X97580136Y-134387388D01*
X97580136Y-134387388D02*
X97675374Y-134339769D01*
X97675374Y-134339769D02*
X97818231Y-134339769D01*
X97818231Y-134339769D02*
X97913469Y-134387388D01*
X97913469Y-134387388D02*
X97961088Y-134482626D01*
X97961088Y-134482626D02*
X97961088Y-135006436D01*
X98294422Y-134339769D02*
X98675374Y-134339769D01*
X98437279Y-134006436D02*
X98437279Y-134863578D01*
X98437279Y-134863578D02*
X98484898Y-134958817D01*
X98484898Y-134958817D02*
X98580136Y-135006436D01*
X98580136Y-135006436D02*
X98675374Y-135006436D01*
X99008708Y-135006436D02*
X99008708Y-134339769D01*
X99008708Y-134006436D02*
X98961089Y-134054055D01*
X98961089Y-134054055D02*
X99008708Y-134101674D01*
X99008708Y-134101674D02*
X99056327Y-134054055D01*
X99056327Y-134054055D02*
X99008708Y-134006436D01*
X99008708Y-134006436D02*
X99008708Y-134101674D01*
X99484898Y-134339769D02*
X99484898Y-135006436D01*
X99484898Y-134435007D02*
X99532517Y-134387388D01*
X99532517Y-134387388D02*
X99627755Y-134339769D01*
X99627755Y-134339769D02*
X99770612Y-134339769D01*
X99770612Y-134339769D02*
X99865850Y-134387388D01*
X99865850Y-134387388D02*
X99913469Y-134482626D01*
X99913469Y-134482626D02*
X99913469Y-135006436D01*
X100818231Y-134339769D02*
X100818231Y-135149293D01*
X100818231Y-135149293D02*
X100770612Y-135244531D01*
X100770612Y-135244531D02*
X100722993Y-135292150D01*
X100722993Y-135292150D02*
X100627755Y-135339769D01*
X100627755Y-135339769D02*
X100484898Y-135339769D01*
X100484898Y-135339769D02*
X100389660Y-135292150D01*
X100818231Y-134958817D02*
X100722993Y-135006436D01*
X100722993Y-135006436D02*
X100532517Y-135006436D01*
X100532517Y-135006436D02*
X100437279Y-134958817D01*
X100437279Y-134958817D02*
X100389660Y-134911197D01*
X100389660Y-134911197D02*
X100342041Y-134815959D01*
X100342041Y-134815959D02*
X100342041Y-134530245D01*
X100342041Y-134530245D02*
X100389660Y-134435007D01*
X100389660Y-134435007D02*
X100437279Y-134387388D01*
X100437279Y-134387388D02*
X100532517Y-134339769D01*
X100532517Y-134339769D02*
X100722993Y-134339769D01*
X100722993Y-134339769D02*
X100818231Y-134387388D01*
X101294422Y-135006436D02*
X101294422Y-134006436D01*
X101294422Y-134482626D02*
X101865850Y-134482626D01*
X101865850Y-135006436D02*
X101865850Y-134006436D01*
X102484898Y-135006436D02*
X102389660Y-134958817D01*
X102389660Y-134958817D02*
X102342041Y-134911197D01*
X102342041Y-134911197D02*
X102294422Y-134815959D01*
X102294422Y-134815959D02*
X102294422Y-134530245D01*
X102294422Y-134530245D02*
X102342041Y-134435007D01*
X102342041Y-134435007D02*
X102389660Y-134387388D01*
X102389660Y-134387388D02*
X102484898Y-134339769D01*
X102484898Y-134339769D02*
X102627755Y-134339769D01*
X102627755Y-134339769D02*
X102722993Y-134387388D01*
X102722993Y-134387388D02*
X102770612Y-134435007D01*
X102770612Y-134435007D02*
X102818231Y-134530245D01*
X102818231Y-134530245D02*
X102818231Y-134815959D01*
X102818231Y-134815959D02*
X102770612Y-134911197D01*
X102770612Y-134911197D02*
X102722993Y-134958817D01*
X102722993Y-134958817D02*
X102627755Y-135006436D01*
X102627755Y-135006436D02*
X102484898Y-135006436D01*
X103389660Y-135006436D02*
X103294422Y-134958817D01*
X103294422Y-134958817D02*
X103246803Y-134863578D01*
X103246803Y-134863578D02*
X103246803Y-134006436D01*
X104151565Y-134958817D02*
X104056327Y-135006436D01*
X104056327Y-135006436D02*
X103865851Y-135006436D01*
X103865851Y-135006436D02*
X103770613Y-134958817D01*
X103770613Y-134958817D02*
X103722994Y-134863578D01*
X103722994Y-134863578D02*
X103722994Y-134482626D01*
X103722994Y-134482626D02*
X103770613Y-134387388D01*
X103770613Y-134387388D02*
X103865851Y-134339769D01*
X103865851Y-134339769D02*
X104056327Y-134339769D01*
X104056327Y-134339769D02*
X104151565Y-134387388D01*
X104151565Y-134387388D02*
X104199184Y-134482626D01*
X104199184Y-134482626D02*
X104199184Y-134577864D01*
X104199184Y-134577864D02*
X103722994Y-134673102D01*
X98603946Y-129756436D02*
X98603946Y-128756436D01*
X98603946Y-129232626D02*
X99175374Y-129232626D01*
X99175374Y-129756436D02*
X99175374Y-128756436D01*
X99603946Y-128851674D02*
X99651565Y-128804055D01*
X99651565Y-128804055D02*
X99746803Y-128756436D01*
X99746803Y-128756436D02*
X99984898Y-128756436D01*
X99984898Y-128756436D02*
X100080136Y-128804055D01*
X100080136Y-128804055D02*
X100127755Y-128851674D01*
X100127755Y-128851674D02*
X100175374Y-128946912D01*
X100175374Y-128946912D02*
X100175374Y-129042150D01*
X100175374Y-129042150D02*
X100127755Y-129185007D01*
X100127755Y-129185007D02*
X99556327Y-129756436D01*
X99556327Y-129756436D02*
X100175374Y-129756436D01*
X130559523Y-131324819D02*
X129988095Y-131324819D01*
X130273809Y-131324819D02*
X130273809Y-130324819D01*
X130273809Y-130324819D02*
X130178571Y-130467676D01*
X130178571Y-130467676D02*
X130083333Y-130562914D01*
X130083333Y-130562914D02*
X129988095Y-130610533D01*
X131178571Y-130324819D02*
X131273809Y-130324819D01*
X131273809Y-130324819D02*
X131369047Y-130372438D01*
X131369047Y-130372438D02*
X131416666Y-130420057D01*
X131416666Y-130420057D02*
X131464285Y-130515295D01*
X131464285Y-130515295D02*
X131511904Y-130705771D01*
X131511904Y-130705771D02*
X131511904Y-130943866D01*
X131511904Y-130943866D02*
X131464285Y-131134342D01*
X131464285Y-131134342D02*
X131416666Y-131229580D01*
X131416666Y-131229580D02*
X131369047Y-131277200D01*
X131369047Y-131277200D02*
X131273809Y-131324819D01*
X131273809Y-131324819D02*
X131178571Y-131324819D01*
X131178571Y-131324819D02*
X131083333Y-131277200D01*
X131083333Y-131277200D02*
X131035714Y-131229580D01*
X131035714Y-131229580D02*
X130988095Y-131134342D01*
X130988095Y-131134342D02*
X130940476Y-130943866D01*
X130940476Y-130943866D02*
X130940476Y-130705771D01*
X130940476Y-130705771D02*
X130988095Y-130515295D01*
X130988095Y-130515295D02*
X131035714Y-130420057D01*
X131035714Y-130420057D02*
X131083333Y-130372438D01*
X131083333Y-130372438D02*
X131178571Y-130324819D01*
X130107142Y-128954819D02*
X129773809Y-128478628D01*
X129535714Y-128954819D02*
X129535714Y-127954819D01*
X129535714Y-127954819D02*
X129916666Y-127954819D01*
X129916666Y-127954819D02*
X130011904Y-128002438D01*
X130011904Y-128002438D02*
X130059523Y-128050057D01*
X130059523Y-128050057D02*
X130107142Y-128145295D01*
X130107142Y-128145295D02*
X130107142Y-128288152D01*
X130107142Y-128288152D02*
X130059523Y-128383390D01*
X130059523Y-128383390D02*
X130011904Y-128431009D01*
X130011904Y-128431009D02*
X129916666Y-128478628D01*
X129916666Y-128478628D02*
X129535714Y-128478628D01*
X131059523Y-128954819D02*
X130488095Y-128954819D01*
X130773809Y-128954819D02*
X130773809Y-127954819D01*
X130773809Y-127954819D02*
X130678571Y-128097676D01*
X130678571Y-128097676D02*
X130583333Y-128192914D01*
X130583333Y-128192914D02*
X130488095Y-128240533D01*
X131440476Y-128050057D02*
X131488095Y-128002438D01*
X131488095Y-128002438D02*
X131583333Y-127954819D01*
X131583333Y-127954819D02*
X131821428Y-127954819D01*
X131821428Y-127954819D02*
X131916666Y-128002438D01*
X131916666Y-128002438D02*
X131964285Y-128050057D01*
X131964285Y-128050057D02*
X132011904Y-128145295D01*
X132011904Y-128145295D02*
X132011904Y-128240533D01*
X132011904Y-128240533D02*
X131964285Y-128383390D01*
X131964285Y-128383390D02*
X131392857Y-128954819D01*
X131392857Y-128954819D02*
X132011904Y-128954819D01*
X94580136Y-79857202D02*
X94580136Y-78857202D01*
X94580136Y-78857202D02*
X94913469Y-79571487D01*
X94913469Y-79571487D02*
X95246802Y-78857202D01*
X95246802Y-78857202D02*
X95246802Y-79857202D01*
X95865850Y-79857202D02*
X95770612Y-79809583D01*
X95770612Y-79809583D02*
X95722993Y-79761963D01*
X95722993Y-79761963D02*
X95675374Y-79666725D01*
X95675374Y-79666725D02*
X95675374Y-79381011D01*
X95675374Y-79381011D02*
X95722993Y-79285773D01*
X95722993Y-79285773D02*
X95770612Y-79238154D01*
X95770612Y-79238154D02*
X95865850Y-79190535D01*
X95865850Y-79190535D02*
X96008707Y-79190535D01*
X96008707Y-79190535D02*
X96103945Y-79238154D01*
X96103945Y-79238154D02*
X96151564Y-79285773D01*
X96151564Y-79285773D02*
X96199183Y-79381011D01*
X96199183Y-79381011D02*
X96199183Y-79666725D01*
X96199183Y-79666725D02*
X96151564Y-79761963D01*
X96151564Y-79761963D02*
X96103945Y-79809583D01*
X96103945Y-79809583D02*
X96008707Y-79857202D01*
X96008707Y-79857202D02*
X95865850Y-79857202D01*
X97056326Y-79190535D02*
X97056326Y-79857202D01*
X96627755Y-79190535D02*
X96627755Y-79714344D01*
X96627755Y-79714344D02*
X96675374Y-79809583D01*
X96675374Y-79809583D02*
X96770612Y-79857202D01*
X96770612Y-79857202D02*
X96913469Y-79857202D01*
X96913469Y-79857202D02*
X97008707Y-79809583D01*
X97008707Y-79809583D02*
X97056326Y-79761963D01*
X97532517Y-79190535D02*
X97532517Y-79857202D01*
X97532517Y-79285773D02*
X97580136Y-79238154D01*
X97580136Y-79238154D02*
X97675374Y-79190535D01*
X97675374Y-79190535D02*
X97818231Y-79190535D01*
X97818231Y-79190535D02*
X97913469Y-79238154D01*
X97913469Y-79238154D02*
X97961088Y-79333392D01*
X97961088Y-79333392D02*
X97961088Y-79857202D01*
X98294422Y-79190535D02*
X98675374Y-79190535D01*
X98437279Y-78857202D02*
X98437279Y-79714344D01*
X98437279Y-79714344D02*
X98484898Y-79809583D01*
X98484898Y-79809583D02*
X98580136Y-79857202D01*
X98580136Y-79857202D02*
X98675374Y-79857202D01*
X99008708Y-79857202D02*
X99008708Y-79190535D01*
X99008708Y-78857202D02*
X98961089Y-78904821D01*
X98961089Y-78904821D02*
X99008708Y-78952440D01*
X99008708Y-78952440D02*
X99056327Y-78904821D01*
X99056327Y-78904821D02*
X99008708Y-78857202D01*
X99008708Y-78857202D02*
X99008708Y-78952440D01*
X99484898Y-79190535D02*
X99484898Y-79857202D01*
X99484898Y-79285773D02*
X99532517Y-79238154D01*
X99532517Y-79238154D02*
X99627755Y-79190535D01*
X99627755Y-79190535D02*
X99770612Y-79190535D01*
X99770612Y-79190535D02*
X99865850Y-79238154D01*
X99865850Y-79238154D02*
X99913469Y-79333392D01*
X99913469Y-79333392D02*
X99913469Y-79857202D01*
X100818231Y-79190535D02*
X100818231Y-80000059D01*
X100818231Y-80000059D02*
X100770612Y-80095297D01*
X100770612Y-80095297D02*
X100722993Y-80142916D01*
X100722993Y-80142916D02*
X100627755Y-80190535D01*
X100627755Y-80190535D02*
X100484898Y-80190535D01*
X100484898Y-80190535D02*
X100389660Y-80142916D01*
X100818231Y-79809583D02*
X100722993Y-79857202D01*
X100722993Y-79857202D02*
X100532517Y-79857202D01*
X100532517Y-79857202D02*
X100437279Y-79809583D01*
X100437279Y-79809583D02*
X100389660Y-79761963D01*
X100389660Y-79761963D02*
X100342041Y-79666725D01*
X100342041Y-79666725D02*
X100342041Y-79381011D01*
X100342041Y-79381011D02*
X100389660Y-79285773D01*
X100389660Y-79285773D02*
X100437279Y-79238154D01*
X100437279Y-79238154D02*
X100532517Y-79190535D01*
X100532517Y-79190535D02*
X100722993Y-79190535D01*
X100722993Y-79190535D02*
X100818231Y-79238154D01*
X101294422Y-79857202D02*
X101294422Y-78857202D01*
X101294422Y-79333392D02*
X101865850Y-79333392D01*
X101865850Y-79857202D02*
X101865850Y-78857202D01*
X102484898Y-79857202D02*
X102389660Y-79809583D01*
X102389660Y-79809583D02*
X102342041Y-79761963D01*
X102342041Y-79761963D02*
X102294422Y-79666725D01*
X102294422Y-79666725D02*
X102294422Y-79381011D01*
X102294422Y-79381011D02*
X102342041Y-79285773D01*
X102342041Y-79285773D02*
X102389660Y-79238154D01*
X102389660Y-79238154D02*
X102484898Y-79190535D01*
X102484898Y-79190535D02*
X102627755Y-79190535D01*
X102627755Y-79190535D02*
X102722993Y-79238154D01*
X102722993Y-79238154D02*
X102770612Y-79285773D01*
X102770612Y-79285773D02*
X102818231Y-79381011D01*
X102818231Y-79381011D02*
X102818231Y-79666725D01*
X102818231Y-79666725D02*
X102770612Y-79761963D01*
X102770612Y-79761963D02*
X102722993Y-79809583D01*
X102722993Y-79809583D02*
X102627755Y-79857202D01*
X102627755Y-79857202D02*
X102484898Y-79857202D01*
X103389660Y-79857202D02*
X103294422Y-79809583D01*
X103294422Y-79809583D02*
X103246803Y-79714344D01*
X103246803Y-79714344D02*
X103246803Y-78857202D01*
X104151565Y-79809583D02*
X104056327Y-79857202D01*
X104056327Y-79857202D02*
X103865851Y-79857202D01*
X103865851Y-79857202D02*
X103770613Y-79809583D01*
X103770613Y-79809583D02*
X103722994Y-79714344D01*
X103722994Y-79714344D02*
X103722994Y-79333392D01*
X103722994Y-79333392D02*
X103770613Y-79238154D01*
X103770613Y-79238154D02*
X103865851Y-79190535D01*
X103865851Y-79190535D02*
X104056327Y-79190535D01*
X104056327Y-79190535D02*
X104151565Y-79238154D01*
X104151565Y-79238154D02*
X104199184Y-79333392D01*
X104199184Y-79333392D02*
X104199184Y-79428630D01*
X104199184Y-79428630D02*
X103722994Y-79523868D01*
X98603946Y-74607202D02*
X98603946Y-73607202D01*
X98603946Y-74083392D02*
X99175374Y-74083392D01*
X99175374Y-74607202D02*
X99175374Y-73607202D01*
X100175374Y-74607202D02*
X99603946Y-74607202D01*
X99889660Y-74607202D02*
X99889660Y-73607202D01*
X99889660Y-73607202D02*
X99794422Y-73750059D01*
X99794422Y-73750059D02*
X99699184Y-73845297D01*
X99699184Y-73845297D02*
X99603946Y-73892916D01*
X133478301Y-85800057D02*
X133525920Y-85752438D01*
X133525920Y-85752438D02*
X133621158Y-85704819D01*
X133621158Y-85704819D02*
X133859253Y-85704819D01*
X133859253Y-85704819D02*
X133954491Y-85752438D01*
X133954491Y-85752438D02*
X134002110Y-85800057D01*
X134002110Y-85800057D02*
X134049729Y-85895295D01*
X134049729Y-85895295D02*
X134049729Y-85990533D01*
X134049729Y-85990533D02*
X134002110Y-86133390D01*
X134002110Y-86133390D02*
X133430682Y-86704819D01*
X133430682Y-86704819D02*
X134049729Y-86704819D01*
X134430682Y-85800057D02*
X134478301Y-85752438D01*
X134478301Y-85752438D02*
X134573539Y-85704819D01*
X134573539Y-85704819D02*
X134811634Y-85704819D01*
X134811634Y-85704819D02*
X134906872Y-85752438D01*
X134906872Y-85752438D02*
X134954491Y-85800057D01*
X134954491Y-85800057D02*
X135002110Y-85895295D01*
X135002110Y-85895295D02*
X135002110Y-85990533D01*
X135002110Y-85990533D02*
X134954491Y-86133390D01*
X134954491Y-86133390D02*
X134383063Y-86704819D01*
X134383063Y-86704819D02*
X135002110Y-86704819D01*
X135621158Y-85704819D02*
X135716396Y-85704819D01*
X135716396Y-85704819D02*
X135811634Y-85752438D01*
X135811634Y-85752438D02*
X135859253Y-85800057D01*
X135859253Y-85800057D02*
X135906872Y-85895295D01*
X135906872Y-85895295D02*
X135954491Y-86085771D01*
X135954491Y-86085771D02*
X135954491Y-86323866D01*
X135954491Y-86323866D02*
X135906872Y-86514342D01*
X135906872Y-86514342D02*
X135859253Y-86609580D01*
X135859253Y-86609580D02*
X135811634Y-86657200D01*
X135811634Y-86657200D02*
X135716396Y-86704819D01*
X135716396Y-86704819D02*
X135621158Y-86704819D01*
X135621158Y-86704819D02*
X135525920Y-86657200D01*
X135525920Y-86657200D02*
X135478301Y-86609580D01*
X135478301Y-86609580D02*
X135430682Y-86514342D01*
X135430682Y-86514342D02*
X135383063Y-86323866D01*
X135383063Y-86323866D02*
X135383063Y-86085771D01*
X135383063Y-86085771D02*
X135430682Y-85895295D01*
X135430682Y-85895295D02*
X135478301Y-85800057D01*
X135478301Y-85800057D02*
X135525920Y-85752438D01*
X135525920Y-85752438D02*
X135621158Y-85704819D01*
X136811634Y-86038152D02*
X136811634Y-86704819D01*
X136383063Y-86038152D02*
X136383063Y-86561961D01*
X136383063Y-86561961D02*
X136430682Y-86657200D01*
X136430682Y-86657200D02*
X136525920Y-86704819D01*
X136525920Y-86704819D02*
X136668777Y-86704819D01*
X136668777Y-86704819D02*
X136764015Y-86657200D01*
X136764015Y-86657200D02*
X136811634Y-86609580D01*
X137621158Y-86181009D02*
X137287825Y-86181009D01*
X137287825Y-86704819D02*
X137287825Y-85704819D01*
X137287825Y-85704819D02*
X137764015Y-85704819D01*
X134954491Y-81359580D02*
X134906872Y-81407200D01*
X134906872Y-81407200D02*
X134764015Y-81454819D01*
X134764015Y-81454819D02*
X134668777Y-81454819D01*
X134668777Y-81454819D02*
X134525920Y-81407200D01*
X134525920Y-81407200D02*
X134430682Y-81311961D01*
X134430682Y-81311961D02*
X134383063Y-81216723D01*
X134383063Y-81216723D02*
X134335444Y-81026247D01*
X134335444Y-81026247D02*
X134335444Y-80883390D01*
X134335444Y-80883390D02*
X134383063Y-80692914D01*
X134383063Y-80692914D02*
X134430682Y-80597676D01*
X134430682Y-80597676D02*
X134525920Y-80502438D01*
X134525920Y-80502438D02*
X134668777Y-80454819D01*
X134668777Y-80454819D02*
X134764015Y-80454819D01*
X134764015Y-80454819D02*
X134906872Y-80502438D01*
X134906872Y-80502438D02*
X134954491Y-80550057D01*
X135906872Y-81454819D02*
X135335444Y-81454819D01*
X135621158Y-81454819D02*
X135621158Y-80454819D01*
X135621158Y-80454819D02*
X135525920Y-80597676D01*
X135525920Y-80597676D02*
X135430682Y-80692914D01*
X135430682Y-80692914D02*
X135335444Y-80740533D01*
X136240206Y-80454819D02*
X136859253Y-80454819D01*
X136859253Y-80454819D02*
X136525920Y-80835771D01*
X136525920Y-80835771D02*
X136668777Y-80835771D01*
X136668777Y-80835771D02*
X136764015Y-80883390D01*
X136764015Y-80883390D02*
X136811634Y-80931009D01*
X136811634Y-80931009D02*
X136859253Y-81026247D01*
X136859253Y-81026247D02*
X136859253Y-81264342D01*
X136859253Y-81264342D02*
X136811634Y-81359580D01*
X136811634Y-81359580D02*
X136764015Y-81407200D01*
X136764015Y-81407200D02*
X136668777Y-81454819D01*
X136668777Y-81454819D02*
X136383063Y-81454819D01*
X136383063Y-81454819D02*
X136287825Y-81407200D01*
X136287825Y-81407200D02*
X136240206Y-81359580D01*
X132102142Y-136454819D02*
X131768809Y-135978628D01*
X131530714Y-136454819D02*
X131530714Y-135454819D01*
X131530714Y-135454819D02*
X131911666Y-135454819D01*
X131911666Y-135454819D02*
X132006904Y-135502438D01*
X132006904Y-135502438D02*
X132054523Y-135550057D01*
X132054523Y-135550057D02*
X132102142Y-135645295D01*
X132102142Y-135645295D02*
X132102142Y-135788152D01*
X132102142Y-135788152D02*
X132054523Y-135883390D01*
X132054523Y-135883390D02*
X132006904Y-135931009D01*
X132006904Y-135931009D02*
X131911666Y-135978628D01*
X131911666Y-135978628D02*
X131530714Y-135978628D01*
X133054523Y-136454819D02*
X132483095Y-136454819D01*
X132768809Y-136454819D02*
X132768809Y-135454819D01*
X132768809Y-135454819D02*
X132673571Y-135597676D01*
X132673571Y-135597676D02*
X132578333Y-135692914D01*
X132578333Y-135692914D02*
X132483095Y-135740533D01*
X133387857Y-135454819D02*
X134006904Y-135454819D01*
X134006904Y-135454819D02*
X133673571Y-135835771D01*
X133673571Y-135835771D02*
X133816428Y-135835771D01*
X133816428Y-135835771D02*
X133911666Y-135883390D01*
X133911666Y-135883390D02*
X133959285Y-135931009D01*
X133959285Y-135931009D02*
X134006904Y-136026247D01*
X134006904Y-136026247D02*
X134006904Y-136264342D01*
X134006904Y-136264342D02*
X133959285Y-136359580D01*
X133959285Y-136359580D02*
X133911666Y-136407200D01*
X133911666Y-136407200D02*
X133816428Y-136454819D01*
X133816428Y-136454819D02*
X133530714Y-136454819D01*
X133530714Y-136454819D02*
X133435476Y-136407200D01*
X133435476Y-136407200D02*
X133387857Y-136359580D01*
X114876667Y-128904819D02*
X114876667Y-127904819D01*
X115924285Y-128904819D02*
X115590952Y-128428628D01*
X115352857Y-128904819D02*
X115352857Y-127904819D01*
X115352857Y-127904819D02*
X115733809Y-127904819D01*
X115733809Y-127904819D02*
X115829047Y-127952438D01*
X115829047Y-127952438D02*
X115876666Y-128000057D01*
X115876666Y-128000057D02*
X115924285Y-128095295D01*
X115924285Y-128095295D02*
X115924285Y-128238152D01*
X115924285Y-128238152D02*
X115876666Y-128333390D01*
X115876666Y-128333390D02*
X115829047Y-128381009D01*
X115829047Y-128381009D02*
X115733809Y-128428628D01*
X115733809Y-128428628D02*
X115352857Y-128428628D01*
X116686190Y-128381009D02*
X116352857Y-128381009D01*
X116352857Y-128904819D02*
X116352857Y-127904819D01*
X116352857Y-127904819D02*
X116829047Y-127904819D01*
X117543333Y-128381009D02*
X117686190Y-128428628D01*
X117686190Y-128428628D02*
X117733809Y-128476247D01*
X117733809Y-128476247D02*
X117781428Y-128571485D01*
X117781428Y-128571485D02*
X117781428Y-128714342D01*
X117781428Y-128714342D02*
X117733809Y-128809580D01*
X117733809Y-128809580D02*
X117686190Y-128857200D01*
X117686190Y-128857200D02*
X117590952Y-128904819D01*
X117590952Y-128904819D02*
X117210000Y-128904819D01*
X117210000Y-128904819D02*
X117210000Y-127904819D01*
X117210000Y-127904819D02*
X117543333Y-127904819D01*
X117543333Y-127904819D02*
X117638571Y-127952438D01*
X117638571Y-127952438D02*
X117686190Y-128000057D01*
X117686190Y-128000057D02*
X117733809Y-128095295D01*
X117733809Y-128095295D02*
X117733809Y-128190533D01*
X117733809Y-128190533D02*
X117686190Y-128285771D01*
X117686190Y-128285771D02*
X117638571Y-128333390D01*
X117638571Y-128333390D02*
X117543333Y-128381009D01*
X117543333Y-128381009D02*
X117210000Y-128381009D01*
X118114762Y-127904819D02*
X118733809Y-127904819D01*
X118733809Y-127904819D02*
X118400476Y-128285771D01*
X118400476Y-128285771D02*
X118543333Y-128285771D01*
X118543333Y-128285771D02*
X118638571Y-128333390D01*
X118638571Y-128333390D02*
X118686190Y-128381009D01*
X118686190Y-128381009D02*
X118733809Y-128476247D01*
X118733809Y-128476247D02*
X118733809Y-128714342D01*
X118733809Y-128714342D02*
X118686190Y-128809580D01*
X118686190Y-128809580D02*
X118638571Y-128857200D01*
X118638571Y-128857200D02*
X118543333Y-128904819D01*
X118543333Y-128904819D02*
X118257619Y-128904819D01*
X118257619Y-128904819D02*
X118162381Y-128857200D01*
X118162381Y-128857200D02*
X118114762Y-128809580D01*
X119352857Y-127904819D02*
X119448095Y-127904819D01*
X119448095Y-127904819D02*
X119543333Y-127952438D01*
X119543333Y-127952438D02*
X119590952Y-128000057D01*
X119590952Y-128000057D02*
X119638571Y-128095295D01*
X119638571Y-128095295D02*
X119686190Y-128285771D01*
X119686190Y-128285771D02*
X119686190Y-128523866D01*
X119686190Y-128523866D02*
X119638571Y-128714342D01*
X119638571Y-128714342D02*
X119590952Y-128809580D01*
X119590952Y-128809580D02*
X119543333Y-128857200D01*
X119543333Y-128857200D02*
X119448095Y-128904819D01*
X119448095Y-128904819D02*
X119352857Y-128904819D01*
X119352857Y-128904819D02*
X119257619Y-128857200D01*
X119257619Y-128857200D02*
X119210000Y-128809580D01*
X119210000Y-128809580D02*
X119162381Y-128714342D01*
X119162381Y-128714342D02*
X119114762Y-128523866D01*
X119114762Y-128523866D02*
X119114762Y-128285771D01*
X119114762Y-128285771D02*
X119162381Y-128095295D01*
X119162381Y-128095295D02*
X119210000Y-128000057D01*
X119210000Y-128000057D02*
X119257619Y-127952438D01*
X119257619Y-127952438D02*
X119352857Y-127904819D01*
X120019524Y-127904819D02*
X120686190Y-127904819D01*
X120686190Y-127904819D02*
X120257619Y-128904819D01*
X120971905Y-127904819D02*
X121638571Y-127904819D01*
X121638571Y-127904819D02*
X121210000Y-128904819D01*
X118114761Y-129000057D02*
X118019523Y-128952438D01*
X118019523Y-128952438D02*
X117924285Y-128857200D01*
X117924285Y-128857200D02*
X117781428Y-128714342D01*
X117781428Y-128714342D02*
X117686190Y-128666723D01*
X117686190Y-128666723D02*
X117590952Y-128666723D01*
X117638571Y-128904819D02*
X117543333Y-128857200D01*
X117543333Y-128857200D02*
X117448095Y-128761961D01*
X117448095Y-128761961D02*
X117400476Y-128571485D01*
X117400476Y-128571485D02*
X117400476Y-128238152D01*
X117400476Y-128238152D02*
X117448095Y-128047676D01*
X117448095Y-128047676D02*
X117543333Y-127952438D01*
X117543333Y-127952438D02*
X117638571Y-127904819D01*
X117638571Y-127904819D02*
X117829047Y-127904819D01*
X117829047Y-127904819D02*
X117924285Y-127952438D01*
X117924285Y-127952438D02*
X118019523Y-128047676D01*
X118019523Y-128047676D02*
X118067142Y-128238152D01*
X118067142Y-128238152D02*
X118067142Y-128571485D01*
X118067142Y-128571485D02*
X118019523Y-128761961D01*
X118019523Y-128761961D02*
X117924285Y-128857200D01*
X117924285Y-128857200D02*
X117829047Y-128904819D01*
X117829047Y-128904819D02*
X117638571Y-128904819D01*
X118448095Y-128000057D02*
X118495714Y-127952438D01*
X118495714Y-127952438D02*
X118590952Y-127904819D01*
X118590952Y-127904819D02*
X118829047Y-127904819D01*
X118829047Y-127904819D02*
X118924285Y-127952438D01*
X118924285Y-127952438D02*
X118971904Y-128000057D01*
X118971904Y-128000057D02*
X119019523Y-128095295D01*
X119019523Y-128095295D02*
X119019523Y-128190533D01*
X119019523Y-128190533D02*
X118971904Y-128333390D01*
X118971904Y-128333390D02*
X118400476Y-128904819D01*
X118400476Y-128904819D02*
X119019523Y-128904819D01*
X144954819Y-92166666D02*
X144478628Y-92499999D01*
X144954819Y-92738094D02*
X143954819Y-92738094D01*
X143954819Y-92738094D02*
X143954819Y-92357142D01*
X143954819Y-92357142D02*
X144002438Y-92261904D01*
X144002438Y-92261904D02*
X144050057Y-92214285D01*
X144050057Y-92214285D02*
X144145295Y-92166666D01*
X144145295Y-92166666D02*
X144288152Y-92166666D01*
X144288152Y-92166666D02*
X144383390Y-92214285D01*
X144383390Y-92214285D02*
X144431009Y-92261904D01*
X144431009Y-92261904D02*
X144478628Y-92357142D01*
X144478628Y-92357142D02*
X144478628Y-92738094D01*
X144050057Y-91785713D02*
X144002438Y-91738094D01*
X144002438Y-91738094D02*
X143954819Y-91642856D01*
X143954819Y-91642856D02*
X143954819Y-91404761D01*
X143954819Y-91404761D02*
X144002438Y-91309523D01*
X144002438Y-91309523D02*
X144050057Y-91261904D01*
X144050057Y-91261904D02*
X144145295Y-91214285D01*
X144145295Y-91214285D02*
X144240533Y-91214285D01*
X144240533Y-91214285D02*
X144383390Y-91261904D01*
X144383390Y-91261904D02*
X144954819Y-91833332D01*
X144954819Y-91833332D02*
X144954819Y-91214285D01*
X110830952Y-65454819D02*
X110259524Y-65454819D01*
X110545238Y-65454819D02*
X110545238Y-64454819D01*
X110545238Y-64454819D02*
X110450000Y-64597676D01*
X110450000Y-64597676D02*
X110354762Y-64692914D01*
X110354762Y-64692914D02*
X110259524Y-64740533D01*
X111450000Y-64454819D02*
X111545238Y-64454819D01*
X111545238Y-64454819D02*
X111640476Y-64502438D01*
X111640476Y-64502438D02*
X111688095Y-64550057D01*
X111688095Y-64550057D02*
X111735714Y-64645295D01*
X111735714Y-64645295D02*
X111783333Y-64835771D01*
X111783333Y-64835771D02*
X111783333Y-65073866D01*
X111783333Y-65073866D02*
X111735714Y-65264342D01*
X111735714Y-65264342D02*
X111688095Y-65359580D01*
X111688095Y-65359580D02*
X111640476Y-65407200D01*
X111640476Y-65407200D02*
X111545238Y-65454819D01*
X111545238Y-65454819D02*
X111450000Y-65454819D01*
X111450000Y-65454819D02*
X111354762Y-65407200D01*
X111354762Y-65407200D02*
X111307143Y-65359580D01*
X111307143Y-65359580D02*
X111259524Y-65264342D01*
X111259524Y-65264342D02*
X111211905Y-65073866D01*
X111211905Y-65073866D02*
X111211905Y-64835771D01*
X111211905Y-64835771D02*
X111259524Y-64645295D01*
X111259524Y-64645295D02*
X111307143Y-64550057D01*
X111307143Y-64550057D02*
X111354762Y-64502438D01*
X111354762Y-64502438D02*
X111450000Y-64454819D01*
X112164286Y-65169104D02*
X112640476Y-65169104D01*
X112069048Y-65454819D02*
X112402381Y-64454819D01*
X112402381Y-64454819D02*
X112735714Y-65454819D01*
X111166666Y-60931009D02*
X110833333Y-60931009D01*
X110833333Y-61454819D02*
X110833333Y-60454819D01*
X110833333Y-60454819D02*
X111309523Y-60454819D01*
X112214285Y-61454819D02*
X111642857Y-61454819D01*
X111928571Y-61454819D02*
X111928571Y-60454819D01*
X111928571Y-60454819D02*
X111833333Y-60597676D01*
X111833333Y-60597676D02*
X111738095Y-60692914D01*
X111738095Y-60692914D02*
X111642857Y-60740533D01*
X89977773Y-129212903D02*
X89882535Y-129165284D01*
X89882535Y-129165284D02*
X89739678Y-129165284D01*
X89739678Y-129165284D02*
X89596821Y-129212903D01*
X89596821Y-129212903D02*
X89501583Y-129308141D01*
X89501583Y-129308141D02*
X89453964Y-129403379D01*
X89453964Y-129403379D02*
X89406345Y-129593855D01*
X89406345Y-129593855D02*
X89406345Y-129736712D01*
X89406345Y-129736712D02*
X89453964Y-129927188D01*
X89453964Y-129927188D02*
X89501583Y-130022426D01*
X89501583Y-130022426D02*
X89596821Y-130117665D01*
X89596821Y-130117665D02*
X89739678Y-130165284D01*
X89739678Y-130165284D02*
X89834916Y-130165284D01*
X89834916Y-130165284D02*
X89977773Y-130117665D01*
X89977773Y-130117665D02*
X90025392Y-130070045D01*
X90025392Y-130070045D02*
X90025392Y-129736712D01*
X90025392Y-129736712D02*
X89834916Y-129736712D01*
X90453964Y-130165284D02*
X90453964Y-129165284D01*
X90453964Y-129165284D02*
X91025392Y-130165284D01*
X91025392Y-130165284D02*
X91025392Y-129165284D01*
X91501583Y-130165284D02*
X91501583Y-129165284D01*
X91501583Y-129165284D02*
X91739678Y-129165284D01*
X91739678Y-129165284D02*
X91882535Y-129212903D01*
X91882535Y-129212903D02*
X91977773Y-129308141D01*
X91977773Y-129308141D02*
X92025392Y-129403379D01*
X92025392Y-129403379D02*
X92073011Y-129593855D01*
X92073011Y-129593855D02*
X92073011Y-129736712D01*
X92073011Y-129736712D02*
X92025392Y-129927188D01*
X92025392Y-129927188D02*
X91977773Y-130022426D01*
X91977773Y-130022426D02*
X91882535Y-130117665D01*
X91882535Y-130117665D02*
X91739678Y-130165284D01*
X91739678Y-130165284D02*
X91501583Y-130165284D01*
X89001583Y-124215284D02*
X89573011Y-124215284D01*
X89287297Y-125215284D02*
X89287297Y-124215284D01*
X89906345Y-125215284D02*
X89906345Y-124215284D01*
X89906345Y-124215284D02*
X90287297Y-124215284D01*
X90287297Y-124215284D02*
X90382535Y-124262903D01*
X90382535Y-124262903D02*
X90430154Y-124310522D01*
X90430154Y-124310522D02*
X90477773Y-124405760D01*
X90477773Y-124405760D02*
X90477773Y-124548617D01*
X90477773Y-124548617D02*
X90430154Y-124643855D01*
X90430154Y-124643855D02*
X90382535Y-124691474D01*
X90382535Y-124691474D02*
X90287297Y-124739093D01*
X90287297Y-124739093D02*
X89906345Y-124739093D01*
X91430154Y-125215284D02*
X90858726Y-125215284D01*
X91144440Y-125215284D02*
X91144440Y-124215284D01*
X91144440Y-124215284D02*
X91049202Y-124358141D01*
X91049202Y-124358141D02*
X90953964Y-124453379D01*
X90953964Y-124453379D02*
X90858726Y-124500998D01*
X91763488Y-124215284D02*
X92382535Y-124215284D01*
X92382535Y-124215284D02*
X92049202Y-124596236D01*
X92049202Y-124596236D02*
X92192059Y-124596236D01*
X92192059Y-124596236D02*
X92287297Y-124643855D01*
X92287297Y-124643855D02*
X92334916Y-124691474D01*
X92334916Y-124691474D02*
X92382535Y-124786712D01*
X92382535Y-124786712D02*
X92382535Y-125024807D01*
X92382535Y-125024807D02*
X92334916Y-125120045D01*
X92334916Y-125120045D02*
X92287297Y-125167665D01*
X92287297Y-125167665D02*
X92192059Y-125215284D01*
X92192059Y-125215284D02*
X91906345Y-125215284D01*
X91906345Y-125215284D02*
X91811107Y-125167665D01*
X91811107Y-125167665D02*
X91763488Y-125120045D01*
X78047619Y-102704819D02*
X78380952Y-103704819D01*
X78380952Y-103704819D02*
X78714285Y-102704819D01*
X78809524Y-103800057D02*
X79571428Y-103800057D01*
X79761905Y-103657200D02*
X79904762Y-103704819D01*
X79904762Y-103704819D02*
X80142857Y-103704819D01*
X80142857Y-103704819D02*
X80238095Y-103657200D01*
X80238095Y-103657200D02*
X80285714Y-103609580D01*
X80285714Y-103609580D02*
X80333333Y-103514342D01*
X80333333Y-103514342D02*
X80333333Y-103419104D01*
X80333333Y-103419104D02*
X80285714Y-103323866D01*
X80285714Y-103323866D02*
X80238095Y-103276247D01*
X80238095Y-103276247D02*
X80142857Y-103228628D01*
X80142857Y-103228628D02*
X79952381Y-103181009D01*
X79952381Y-103181009D02*
X79857143Y-103133390D01*
X79857143Y-103133390D02*
X79809524Y-103085771D01*
X79809524Y-103085771D02*
X79761905Y-102990533D01*
X79761905Y-102990533D02*
X79761905Y-102895295D01*
X79761905Y-102895295D02*
X79809524Y-102800057D01*
X79809524Y-102800057D02*
X79857143Y-102752438D01*
X79857143Y-102752438D02*
X79952381Y-102704819D01*
X79952381Y-102704819D02*
X80190476Y-102704819D01*
X80190476Y-102704819D02*
X80333333Y-102752438D01*
X80761905Y-103704819D02*
X80761905Y-102704819D01*
X80761905Y-103181009D02*
X81333333Y-103181009D01*
X81333333Y-103704819D02*
X81333333Y-102704819D01*
X81809524Y-102704819D02*
X81809524Y-103514342D01*
X81809524Y-103514342D02*
X81857143Y-103609580D01*
X81857143Y-103609580D02*
X81904762Y-103657200D01*
X81904762Y-103657200D02*
X82000000Y-103704819D01*
X82000000Y-103704819D02*
X82190476Y-103704819D01*
X82190476Y-103704819D02*
X82285714Y-103657200D01*
X82285714Y-103657200D02*
X82333333Y-103609580D01*
X82333333Y-103609580D02*
X82380952Y-103514342D01*
X82380952Y-103514342D02*
X82380952Y-102704819D01*
X82857143Y-103704819D02*
X82857143Y-102704819D01*
X82857143Y-102704819D02*
X83428571Y-103704819D01*
X83428571Y-103704819D02*
X83428571Y-102704819D01*
X83761905Y-102704819D02*
X84333333Y-102704819D01*
X84047619Y-103704819D02*
X84047619Y-102704819D01*
X84428572Y-103800057D02*
X85190476Y-103800057D01*
X85761905Y-103181009D02*
X85428572Y-103181009D01*
X85428572Y-103704819D02*
X85428572Y-102704819D01*
X85428572Y-102704819D02*
X85904762Y-102704819D01*
X86619048Y-103181009D02*
X86761905Y-103228628D01*
X86761905Y-103228628D02*
X86809524Y-103276247D01*
X86809524Y-103276247D02*
X86857143Y-103371485D01*
X86857143Y-103371485D02*
X86857143Y-103514342D01*
X86857143Y-103514342D02*
X86809524Y-103609580D01*
X86809524Y-103609580D02*
X86761905Y-103657200D01*
X86761905Y-103657200D02*
X86666667Y-103704819D01*
X86666667Y-103704819D02*
X86285715Y-103704819D01*
X86285715Y-103704819D02*
X86285715Y-102704819D01*
X86285715Y-102704819D02*
X86619048Y-102704819D01*
X86619048Y-102704819D02*
X86714286Y-102752438D01*
X86714286Y-102752438D02*
X86761905Y-102800057D01*
X86761905Y-102800057D02*
X86809524Y-102895295D01*
X86809524Y-102895295D02*
X86809524Y-102990533D01*
X86809524Y-102990533D02*
X86761905Y-103085771D01*
X86761905Y-103085771D02*
X86714286Y-103133390D01*
X86714286Y-103133390D02*
X86619048Y-103181009D01*
X86619048Y-103181009D02*
X86285715Y-103181009D01*
X81238095Y-99304819D02*
X81809523Y-99304819D01*
X81523809Y-100304819D02*
X81523809Y-99304819D01*
X82142857Y-100304819D02*
X82142857Y-99304819D01*
X82142857Y-99304819D02*
X82523809Y-99304819D01*
X82523809Y-99304819D02*
X82619047Y-99352438D01*
X82619047Y-99352438D02*
X82666666Y-99400057D01*
X82666666Y-99400057D02*
X82714285Y-99495295D01*
X82714285Y-99495295D02*
X82714285Y-99638152D01*
X82714285Y-99638152D02*
X82666666Y-99733390D01*
X82666666Y-99733390D02*
X82619047Y-99781009D01*
X82619047Y-99781009D02*
X82523809Y-99828628D01*
X82523809Y-99828628D02*
X82142857Y-99828628D01*
X83285714Y-99733390D02*
X83190476Y-99685771D01*
X83190476Y-99685771D02*
X83142857Y-99638152D01*
X83142857Y-99638152D02*
X83095238Y-99542914D01*
X83095238Y-99542914D02*
X83095238Y-99495295D01*
X83095238Y-99495295D02*
X83142857Y-99400057D01*
X83142857Y-99400057D02*
X83190476Y-99352438D01*
X83190476Y-99352438D02*
X83285714Y-99304819D01*
X83285714Y-99304819D02*
X83476190Y-99304819D01*
X83476190Y-99304819D02*
X83571428Y-99352438D01*
X83571428Y-99352438D02*
X83619047Y-99400057D01*
X83619047Y-99400057D02*
X83666666Y-99495295D01*
X83666666Y-99495295D02*
X83666666Y-99542914D01*
X83666666Y-99542914D02*
X83619047Y-99638152D01*
X83619047Y-99638152D02*
X83571428Y-99685771D01*
X83571428Y-99685771D02*
X83476190Y-99733390D01*
X83476190Y-99733390D02*
X83285714Y-99733390D01*
X83285714Y-99733390D02*
X83190476Y-99781009D01*
X83190476Y-99781009D02*
X83142857Y-99828628D01*
X83142857Y-99828628D02*
X83095238Y-99923866D01*
X83095238Y-99923866D02*
X83095238Y-100114342D01*
X83095238Y-100114342D02*
X83142857Y-100209580D01*
X83142857Y-100209580D02*
X83190476Y-100257200D01*
X83190476Y-100257200D02*
X83285714Y-100304819D01*
X83285714Y-100304819D02*
X83476190Y-100304819D01*
X83476190Y-100304819D02*
X83571428Y-100257200D01*
X83571428Y-100257200D02*
X83619047Y-100209580D01*
X83619047Y-100209580D02*
X83666666Y-100114342D01*
X83666666Y-100114342D02*
X83666666Y-99923866D01*
X83666666Y-99923866D02*
X83619047Y-99828628D01*
X83619047Y-99828628D02*
X83571428Y-99781009D01*
X83571428Y-99781009D02*
X83476190Y-99733390D01*
X48944761Y-72284819D02*
X48373333Y-72284819D01*
X48659047Y-72284819D02*
X48659047Y-71284819D01*
X48659047Y-71284819D02*
X48563809Y-71427676D01*
X48563809Y-71427676D02*
X48468571Y-71522914D01*
X48468571Y-71522914D02*
X48373333Y-71570533D01*
X49563809Y-71284819D02*
X49659047Y-71284819D01*
X49659047Y-71284819D02*
X49754285Y-71332438D01*
X49754285Y-71332438D02*
X49801904Y-71380057D01*
X49801904Y-71380057D02*
X49849523Y-71475295D01*
X49849523Y-71475295D02*
X49897142Y-71665771D01*
X49897142Y-71665771D02*
X49897142Y-71903866D01*
X49897142Y-71903866D02*
X49849523Y-72094342D01*
X49849523Y-72094342D02*
X49801904Y-72189580D01*
X49801904Y-72189580D02*
X49754285Y-72237200D01*
X49754285Y-72237200D02*
X49659047Y-72284819D01*
X49659047Y-72284819D02*
X49563809Y-72284819D01*
X49563809Y-72284819D02*
X49468571Y-72237200D01*
X49468571Y-72237200D02*
X49420952Y-72189580D01*
X49420952Y-72189580D02*
X49373333Y-72094342D01*
X49373333Y-72094342D02*
X49325714Y-71903866D01*
X49325714Y-71903866D02*
X49325714Y-71665771D01*
X49325714Y-71665771D02*
X49373333Y-71475295D01*
X49373333Y-71475295D02*
X49420952Y-71380057D01*
X49420952Y-71380057D02*
X49468571Y-71332438D01*
X49468571Y-71332438D02*
X49563809Y-71284819D01*
X50325714Y-72284819D02*
X50325714Y-71284819D01*
X50420952Y-71903866D02*
X50706666Y-72284819D01*
X50706666Y-71618152D02*
X50325714Y-71999104D01*
X49579761Y-75949819D02*
X49246428Y-75473628D01*
X49008333Y-75949819D02*
X49008333Y-74949819D01*
X49008333Y-74949819D02*
X49389285Y-74949819D01*
X49389285Y-74949819D02*
X49484523Y-74997438D01*
X49484523Y-74997438D02*
X49532142Y-75045057D01*
X49532142Y-75045057D02*
X49579761Y-75140295D01*
X49579761Y-75140295D02*
X49579761Y-75283152D01*
X49579761Y-75283152D02*
X49532142Y-75378390D01*
X49532142Y-75378390D02*
X49484523Y-75426009D01*
X49484523Y-75426009D02*
X49389285Y-75473628D01*
X49389285Y-75473628D02*
X49008333Y-75473628D01*
X49865476Y-74949819D02*
X50198809Y-75949819D01*
X50198809Y-75949819D02*
X50532142Y-74949819D01*
X50817857Y-75045057D02*
X50865476Y-74997438D01*
X50865476Y-74997438D02*
X50960714Y-74949819D01*
X50960714Y-74949819D02*
X51198809Y-74949819D01*
X51198809Y-74949819D02*
X51294047Y-74997438D01*
X51294047Y-74997438D02*
X51341666Y-75045057D01*
X51341666Y-75045057D02*
X51389285Y-75140295D01*
X51389285Y-75140295D02*
X51389285Y-75235533D01*
X51389285Y-75235533D02*
X51341666Y-75378390D01*
X51341666Y-75378390D02*
X50770238Y-75949819D01*
X50770238Y-75949819D02*
X51389285Y-75949819D01*
X91166667Y-110760416D02*
X91166667Y-109760416D01*
X91166667Y-110236606D02*
X91738095Y-110236606D01*
X91738095Y-110760416D02*
X91738095Y-109760416D01*
X92071429Y-109760416D02*
X92404762Y-110760416D01*
X92404762Y-110760416D02*
X92738095Y-109760416D01*
X93071429Y-110379463D02*
X93833334Y-110379463D01*
X93452381Y-110760416D02*
X93452381Y-109998511D01*
X90761905Y-104810416D02*
X91333333Y-104810416D01*
X91047619Y-105810416D02*
X91047619Y-104810416D01*
X91666667Y-105810416D02*
X91666667Y-104810416D01*
X91666667Y-104810416D02*
X92047619Y-104810416D01*
X92047619Y-104810416D02*
X92142857Y-104858035D01*
X92142857Y-104858035D02*
X92190476Y-104905654D01*
X92190476Y-104905654D02*
X92238095Y-105000892D01*
X92238095Y-105000892D02*
X92238095Y-105143749D01*
X92238095Y-105143749D02*
X92190476Y-105238987D01*
X92190476Y-105238987D02*
X92142857Y-105286606D01*
X92142857Y-105286606D02*
X92047619Y-105334225D01*
X92047619Y-105334225D02*
X91666667Y-105334225D01*
X93190476Y-105810416D02*
X92619048Y-105810416D01*
X92904762Y-105810416D02*
X92904762Y-104810416D01*
X92904762Y-104810416D02*
X92809524Y-104953273D01*
X92809524Y-104953273D02*
X92714286Y-105048511D01*
X92714286Y-105048511D02*
X92619048Y-105096130D01*
X93523810Y-104810416D02*
X94190476Y-104810416D01*
X94190476Y-104810416D02*
X93761905Y-105810416D01*
X114314524Y-73549819D02*
X114314524Y-72549819D01*
X114314524Y-72549819D02*
X114695476Y-72549819D01*
X114695476Y-72549819D02*
X114790714Y-72597438D01*
X114790714Y-72597438D02*
X114838333Y-72645057D01*
X114838333Y-72645057D02*
X114885952Y-72740295D01*
X114885952Y-72740295D02*
X114885952Y-72883152D01*
X114885952Y-72883152D02*
X114838333Y-72978390D01*
X114838333Y-72978390D02*
X114790714Y-73026009D01*
X114790714Y-73026009D02*
X114695476Y-73073628D01*
X114695476Y-73073628D02*
X114314524Y-73073628D01*
X115885952Y-73454580D02*
X115838333Y-73502200D01*
X115838333Y-73502200D02*
X115695476Y-73549819D01*
X115695476Y-73549819D02*
X115600238Y-73549819D01*
X115600238Y-73549819D02*
X115457381Y-73502200D01*
X115457381Y-73502200D02*
X115362143Y-73406961D01*
X115362143Y-73406961D02*
X115314524Y-73311723D01*
X115314524Y-73311723D02*
X115266905Y-73121247D01*
X115266905Y-73121247D02*
X115266905Y-72978390D01*
X115266905Y-72978390D02*
X115314524Y-72787914D01*
X115314524Y-72787914D02*
X115362143Y-72692676D01*
X115362143Y-72692676D02*
X115457381Y-72597438D01*
X115457381Y-72597438D02*
X115600238Y-72549819D01*
X115600238Y-72549819D02*
X115695476Y-72549819D01*
X115695476Y-72549819D02*
X115838333Y-72597438D01*
X115838333Y-72597438D02*
X115885952Y-72645057D01*
X116457381Y-72978390D02*
X116362143Y-72930771D01*
X116362143Y-72930771D02*
X116314524Y-72883152D01*
X116314524Y-72883152D02*
X116266905Y-72787914D01*
X116266905Y-72787914D02*
X116266905Y-72740295D01*
X116266905Y-72740295D02*
X116314524Y-72645057D01*
X116314524Y-72645057D02*
X116362143Y-72597438D01*
X116362143Y-72597438D02*
X116457381Y-72549819D01*
X116457381Y-72549819D02*
X116647857Y-72549819D01*
X116647857Y-72549819D02*
X116743095Y-72597438D01*
X116743095Y-72597438D02*
X116790714Y-72645057D01*
X116790714Y-72645057D02*
X116838333Y-72740295D01*
X116838333Y-72740295D02*
X116838333Y-72787914D01*
X116838333Y-72787914D02*
X116790714Y-72883152D01*
X116790714Y-72883152D02*
X116743095Y-72930771D01*
X116743095Y-72930771D02*
X116647857Y-72978390D01*
X116647857Y-72978390D02*
X116457381Y-72978390D01*
X116457381Y-72978390D02*
X116362143Y-73026009D01*
X116362143Y-73026009D02*
X116314524Y-73073628D01*
X116314524Y-73073628D02*
X116266905Y-73168866D01*
X116266905Y-73168866D02*
X116266905Y-73359342D01*
X116266905Y-73359342D02*
X116314524Y-73454580D01*
X116314524Y-73454580D02*
X116362143Y-73502200D01*
X116362143Y-73502200D02*
X116457381Y-73549819D01*
X116457381Y-73549819D02*
X116647857Y-73549819D01*
X116647857Y-73549819D02*
X116743095Y-73502200D01*
X116743095Y-73502200D02*
X116790714Y-73454580D01*
X116790714Y-73454580D02*
X116838333Y-73359342D01*
X116838333Y-73359342D02*
X116838333Y-73168866D01*
X116838333Y-73168866D02*
X116790714Y-73073628D01*
X116790714Y-73073628D02*
X116743095Y-73026009D01*
X116743095Y-73026009D02*
X116647857Y-72978390D01*
X117790714Y-73549819D02*
X117219286Y-73549819D01*
X117505000Y-73549819D02*
X117505000Y-72549819D01*
X117505000Y-72549819D02*
X117409762Y-72692676D01*
X117409762Y-72692676D02*
X117314524Y-72787914D01*
X117314524Y-72787914D02*
X117219286Y-72835533D01*
X118124048Y-72549819D02*
X118790714Y-72549819D01*
X118790714Y-72549819D02*
X118362143Y-73549819D01*
X114528809Y-68949819D02*
X114719285Y-68949819D01*
X114719285Y-68949819D02*
X114814523Y-68997438D01*
X114814523Y-68997438D02*
X114909761Y-69092676D01*
X114909761Y-69092676D02*
X114957380Y-69283152D01*
X114957380Y-69283152D02*
X114957380Y-69616485D01*
X114957380Y-69616485D02*
X114909761Y-69806961D01*
X114909761Y-69806961D02*
X114814523Y-69902200D01*
X114814523Y-69902200D02*
X114719285Y-69949819D01*
X114719285Y-69949819D02*
X114528809Y-69949819D01*
X114528809Y-69949819D02*
X114433571Y-69902200D01*
X114433571Y-69902200D02*
X114338333Y-69806961D01*
X114338333Y-69806961D02*
X114290714Y-69616485D01*
X114290714Y-69616485D02*
X114290714Y-69283152D01*
X114290714Y-69283152D02*
X114338333Y-69092676D01*
X114338333Y-69092676D02*
X114433571Y-68997438D01*
X114433571Y-68997438D02*
X114528809Y-68949819D01*
X115385952Y-69949819D02*
X115385952Y-68949819D01*
X115385952Y-68949819D02*
X115766904Y-68949819D01*
X115766904Y-68949819D02*
X115862142Y-68997438D01*
X115862142Y-68997438D02*
X115909761Y-69045057D01*
X115909761Y-69045057D02*
X115957380Y-69140295D01*
X115957380Y-69140295D02*
X115957380Y-69283152D01*
X115957380Y-69283152D02*
X115909761Y-69378390D01*
X115909761Y-69378390D02*
X115862142Y-69426009D01*
X115862142Y-69426009D02*
X115766904Y-69473628D01*
X115766904Y-69473628D02*
X115385952Y-69473628D01*
X116243095Y-68949819D02*
X116814523Y-68949819D01*
X116528809Y-69949819D02*
X116528809Y-68949819D01*
X117338333Y-68949819D02*
X117528809Y-68949819D01*
X117528809Y-68949819D02*
X117624047Y-68997438D01*
X117624047Y-68997438D02*
X117719285Y-69092676D01*
X117719285Y-69092676D02*
X117766904Y-69283152D01*
X117766904Y-69283152D02*
X117766904Y-69616485D01*
X117766904Y-69616485D02*
X117719285Y-69806961D01*
X117719285Y-69806961D02*
X117624047Y-69902200D01*
X117624047Y-69902200D02*
X117528809Y-69949819D01*
X117528809Y-69949819D02*
X117338333Y-69949819D01*
X117338333Y-69949819D02*
X117243095Y-69902200D01*
X117243095Y-69902200D02*
X117147857Y-69806961D01*
X117147857Y-69806961D02*
X117100238Y-69616485D01*
X117100238Y-69616485D02*
X117100238Y-69283152D01*
X117100238Y-69283152D02*
X117147857Y-69092676D01*
X117147857Y-69092676D02*
X117243095Y-68997438D01*
X117243095Y-68997438D02*
X117338333Y-68949819D01*
X118100238Y-68949819D02*
X118719285Y-68949819D01*
X118719285Y-68949819D02*
X118385952Y-69330771D01*
X118385952Y-69330771D02*
X118528809Y-69330771D01*
X118528809Y-69330771D02*
X118624047Y-69378390D01*
X118624047Y-69378390D02*
X118671666Y-69426009D01*
X118671666Y-69426009D02*
X118719285Y-69521247D01*
X118719285Y-69521247D02*
X118719285Y-69759342D01*
X118719285Y-69759342D02*
X118671666Y-69854580D01*
X118671666Y-69854580D02*
X118624047Y-69902200D01*
X118624047Y-69902200D02*
X118528809Y-69949819D01*
X118528809Y-69949819D02*
X118243095Y-69949819D01*
X118243095Y-69949819D02*
X118147857Y-69902200D01*
X118147857Y-69902200D02*
X118100238Y-69854580D01*
%TO.C,D1*%
D12*
X142650000Y-127700000D02*
X142650000Y-126430000D01*
X146350000Y-127700000D02*
X146350000Y-126430000D01*
X149500000Y-126430000D02*
X139500000Y-126430000D01*
X139500000Y-123300000D02*
X149500000Y-123300000D01*
X149500000Y-127700000D01*
X139500000Y-127700000D01*
X139500000Y-123300000D01*
%TO.C,RV1*%
X128815000Y-74308000D02*
X130342000Y-75835000D01*
X128948000Y-74175000D02*
X130475000Y-75702000D01*
X126085000Y-73735000D02*
X130915000Y-73735000D01*
X130915000Y-83265000D01*
X126085000Y-83265000D01*
X126085000Y-73735000D01*
X130740000Y-75005000D02*
G75*
G02*
X128550000Y-75005000I-1095000J0D01*
G01*
X128550000Y-75005000D02*
G75*
G02*
X130740000Y-75005000I1095000J0D01*
G01*
%TO.C,D6*%
X123030306Y-110005000D02*
X125969694Y-110005000D01*
X123030306Y-110005000D02*
G75*
G02*
X125969694Y-110005000I1469694J2500000D01*
G01*
X127000000Y-107505000D02*
G75*
G02*
X122000000Y-107505000I-2500000J0D01*
G01*
X122000000Y-107505000D02*
G75*
G02*
X127000000Y-107505000I2500000J0D01*
G01*
%TO.C,R4*%
X117520000Y-115500000D02*
X120260000Y-115500000D01*
X120260000Y-111000000D02*
X120260000Y-120000000D01*
X120260000Y-120000000D02*
X145260000Y-120000000D01*
X145260000Y-111000000D02*
X120260000Y-111000000D01*
X145260000Y-120000000D02*
X145260000Y-111000000D01*
X148000000Y-115500000D02*
X145260000Y-115500000D01*
%TO.C,R3*%
X131500000Y-99420000D02*
X131500000Y-101350000D01*
X131500000Y-109580000D02*
X131500000Y-107650000D01*
X130250000Y-101350000D02*
X132750000Y-101350000D01*
X132750000Y-107650000D01*
X130250000Y-107650000D01*
X130250000Y-101350000D01*
%TO.C,PS1*%
X136977500Y-64469500D02*
X136977500Y-75392500D01*
X136977500Y-75392500D02*
X143177500Y-75392500D01*
X137684500Y-63762500D02*
X136977500Y-64469500D01*
X137684500Y-63762500D02*
X143177500Y-63762500D01*
X143177500Y-63762500D02*
X143177500Y-75392500D01*
%TO.C,C2*%
X156409885Y-51087500D02*
X156409885Y-48087500D01*
X157909885Y-49587500D02*
X154909885Y-49587500D01*
X160000000Y-43000000D02*
G75*
G02*
X130000000Y-43000000I-15000000J0D01*
G01*
X130000000Y-43000000D02*
G75*
G02*
X160000000Y-43000000I15000000J0D01*
G01*
%TO.C,C12*%
X130000000Y-70250000D02*
X135000000Y-70250000D01*
X135000000Y-72750000D01*
X130000000Y-72750000D01*
X130000000Y-70250000D01*
%TO.C,R17*%
X123420000Y-87000000D02*
X125350000Y-87000000D01*
X133580000Y-87000000D02*
X131650000Y-87000000D01*
X125350000Y-85750000D02*
X131650000Y-85750000D01*
X131650000Y-88250000D01*
X125350000Y-88250000D01*
X125350000Y-85750000D01*
%TO.C,Q1*%
X133300000Y-102650000D02*
X134570000Y-102650000D01*
X133300000Y-106350000D02*
X134570000Y-106350000D01*
X134570000Y-109500000D02*
X134570000Y-99500000D01*
X133300000Y-99500000D02*
X137700000Y-99500000D01*
X137700000Y-109500000D01*
X133300000Y-109500000D01*
X133300000Y-99500000D01*
%TO.C,J1*%
X123810000Y-73160000D02*
X126310000Y-73160000D01*
X126310000Y-73160000D02*
X126310000Y-70660000D01*
X122100000Y-65250000D02*
X125900000Y-65250000D01*
X125900000Y-72750000D01*
X122100000Y-72750000D01*
X122100000Y-65250000D01*
%TO.C,C4*%
X135775000Y-58000000D02*
X140775000Y-58000000D01*
X140775000Y-60500000D01*
X135775000Y-60500000D01*
X135775000Y-58000000D01*
%TO.C,OPTO2*%
X112830000Y-74955000D02*
X113830000Y-73955000D01*
X112830000Y-79035000D02*
X112830000Y-74955000D01*
X113830000Y-73955000D02*
X119180000Y-73955000D01*
X119180000Y-73955000D02*
X119180000Y-79035000D01*
X119180000Y-79035000D02*
X112830000Y-79035000D01*
%TO.C,C6*%
X127000000Y-54750000D02*
X132000000Y-54750000D01*
X132000000Y-57250000D01*
X127000000Y-57250000D01*
X127000000Y-54750000D01*
%TO.C,R6*%
X119500000Y-96920000D02*
X119500000Y-98850000D01*
X119500000Y-107080000D02*
X119500000Y-105150000D01*
X118250000Y-98850000D02*
X120750000Y-98850000D01*
X120750000Y-105150000D01*
X118250000Y-105150000D01*
X118250000Y-98850000D01*
%TO.C,R1*%
X99920000Y-66500000D02*
X101850000Y-66500000D01*
X110080000Y-66500000D02*
X108150000Y-66500000D01*
X101850000Y-65250000D02*
X108150000Y-65250000D01*
X108150000Y-67750000D01*
X101850000Y-67750000D01*
X101850000Y-65250000D01*
%TO.C,D2*%
X125920000Y-90500000D02*
X128400000Y-90500000D01*
X128400000Y-89150000D02*
X128400000Y-91850000D01*
X128400000Y-91850000D02*
X133600000Y-91850000D01*
X132720000Y-91850000D02*
X132720000Y-89150000D01*
X132820000Y-91850000D02*
X132820000Y-89150000D01*
X132920000Y-91850000D02*
X132920000Y-89150000D01*
X133600000Y-89150000D02*
X128400000Y-89150000D01*
X133600000Y-91850000D02*
X133600000Y-89150000D01*
X136080000Y-90500000D02*
X133600000Y-90500000D01*
%TO.C,J2*%
D13*
X99100000Y-111455750D02*
X100800000Y-111455750D01*
X99100000Y-113955750D02*
X99100000Y-111455750D01*
X100800000Y-109755750D02*
X110700000Y-109755750D01*
X100800000Y-111455750D02*
X100800000Y-109755750D01*
X100800000Y-113955750D02*
X99100000Y-113955750D01*
X100800000Y-118755750D02*
X100800000Y-113955750D01*
X102750000Y-124955750D02*
X103750000Y-124955750D01*
X103250000Y-125455750D02*
X103250000Y-124455750D01*
X107750000Y-124955750D02*
X108750000Y-124955750D01*
X110700000Y-109755750D02*
X110700000Y-111455750D01*
X110700000Y-111455750D02*
X112400000Y-111455750D01*
X110700000Y-113955750D02*
X110700000Y-118755750D01*
X110700000Y-118755750D02*
X100800000Y-118755750D01*
X112400000Y-111455750D02*
X112400000Y-113955750D01*
X112400000Y-113955750D02*
X110700000Y-113955750D01*
%TO.C,C1*%
D12*
X136500000Y-86000000D02*
X141500000Y-86000000D01*
X141500000Y-88500000D01*
X136500000Y-88500000D01*
X136500000Y-86000000D01*
%TO.C,C5*%
X156659885Y-165087500D02*
X156659885Y-162087500D01*
X158159885Y-163587500D02*
X155159885Y-163587500D01*
X160250000Y-157000000D02*
G75*
G02*
X130250000Y-157000000I-15000000J0D01*
G01*
X130250000Y-157000000D02*
G75*
G02*
X160250000Y-157000000I15000000J0D01*
G01*
%TO.C,C3*%
X132247500Y-60073241D02*
X132247500Y-60873241D01*
X132647500Y-60473241D02*
X131847500Y-60473241D01*
X134500000Y-63500000D02*
G75*
G02*
X126500000Y-63500000I-4000000J0D01*
G01*
X126500000Y-63500000D02*
G75*
G02*
X134500000Y-63500000I4000000J0D01*
G01*
%TO.C,D4*%
X55495000Y-78530306D02*
X55495000Y-81469694D01*
X55495000Y-78530306D02*
G75*
G02*
X55495000Y-81469694I2500000J-1469694D01*
G01*
X60495000Y-80000000D02*
G75*
G02*
X55495000Y-80000000I-2500000J0D01*
G01*
X55495000Y-80000000D02*
G75*
G02*
X60495000Y-80000000I2500000J0D01*
G01*
%TO.C,R25*%
X123000000Y-90420000D02*
X123000000Y-92350000D01*
X123000000Y-100580000D02*
X123000000Y-98650000D01*
X121750000Y-92350000D02*
X124250000Y-92350000D01*
X124250000Y-98650000D01*
X121750000Y-98650000D01*
X121750000Y-92350000D01*
%TO.C,J5*%
X64860207Y-73810988D02*
X65635894Y-64944854D01*
X65635894Y-64944854D02*
X92513227Y-67296317D01*
X66150266Y-72719270D02*
X66716778Y-66244004D01*
X66716778Y-66244004D02*
X77425871Y-67180929D01*
X77425871Y-67180929D02*
X77530458Y-65985495D01*
X81510270Y-67538267D02*
X92219363Y-68475191D01*
X81614860Y-66342834D02*
X81510270Y-67538267D01*
X91652850Y-74950457D02*
X66150266Y-72719270D01*
X92219363Y-68475191D02*
X91652850Y-74950457D01*
X92513227Y-67296317D02*
X93422265Y-68379668D01*
X92733735Y-76249606D02*
X64860207Y-73810988D01*
X93422265Y-68379668D02*
X92733735Y-76249606D01*
%TO.C,R12*%
X125670000Y-128500000D02*
X127600000Y-128500000D01*
X135830000Y-128500000D02*
X133900000Y-128500000D01*
X127600000Y-127250000D02*
X133900000Y-127250000D01*
X133900000Y-129750000D01*
X127600000Y-129750000D01*
X127600000Y-127250000D01*
%TO.C,C13*%
X132170590Y-79252500D02*
X132970590Y-79252500D01*
X132570590Y-78852500D02*
X132570590Y-79652500D01*
X139597349Y-81000000D02*
G75*
G02*
X131597349Y-81000000I-4000000J0D01*
G01*
X131597349Y-81000000D02*
G75*
G02*
X139597349Y-81000000I4000000J0D01*
G01*
%TO.C,R13*%
X117505000Y-136000000D02*
X120245000Y-136000000D01*
X120245000Y-131500000D02*
X120245000Y-140500000D01*
X120245000Y-140500000D02*
X145245000Y-140500000D01*
X145245000Y-131500000D02*
X120245000Y-131500000D01*
X145245000Y-140500000D02*
X145245000Y-131500000D01*
X147985000Y-136000000D02*
X145245000Y-136000000D01*
%TO.C,Q2*%
X116360000Y-130650000D02*
X116360000Y-129380000D01*
X120060000Y-130650000D02*
X120060000Y-129380000D01*
X123210000Y-129380000D02*
X113210000Y-129380000D01*
X113210000Y-126250000D02*
X123210000Y-126250000D01*
X123210000Y-130650000D01*
X113210000Y-130650000D01*
X113210000Y-126250000D01*
%TO.C,R2*%
X142000000Y-84250000D02*
X142000000Y-99750000D01*
X142000000Y-99750000D02*
X147000000Y-99750000D01*
X144500000Y-81840000D02*
X144500000Y-84250000D01*
X144500000Y-102160000D02*
X144500000Y-99750000D01*
X147000000Y-84250000D02*
X142000000Y-84250000D01*
X147000000Y-99750000D02*
X147000000Y-84250000D01*
%TO.C,F1*%
X101500000Y-58000000D02*
X121500000Y-58000000D01*
X101500000Y-64000000D02*
X101500000Y-58000000D01*
X111800000Y-61000000D02*
X111200000Y-61000000D01*
X121500000Y-58000000D02*
X121500000Y-64000000D01*
X121500000Y-64000000D02*
X101500000Y-64000000D01*
%TO.C,RV2*%
X45215000Y-75047000D02*
X46742000Y-73520000D01*
X45348000Y-75180000D02*
X46875000Y-73653000D01*
X44775000Y-73080000D02*
X54305000Y-73080000D01*
X54305000Y-77910000D01*
X44775000Y-77910000D01*
X44775000Y-73080000D01*
X47140000Y-74350000D02*
G75*
G02*
X44950000Y-74350000I-1095000J0D01*
G01*
X44950000Y-74350000D02*
G75*
G02*
X47140000Y-74350000I1095000J0D01*
G01*
%TO.C,OPTO3*%
X113330000Y-67955000D02*
X114330000Y-66955000D01*
X113330000Y-72035000D02*
X113330000Y-67955000D01*
X114330000Y-66955000D02*
X119680000Y-66955000D01*
X119680000Y-66955000D02*
X119680000Y-72035000D01*
X119680000Y-72035000D02*
X113330000Y-72035000D01*
%TD*%
M02*
