%TF.GenerationSoftware,KiCad,Pcbnew,10.0.3*%
%TF.CreationDate,2026-09-12T20:38:51-03:00*%
%TF.ProjectId,interfacecircuito,696e7465-7266-4616-9365-636972637569,rev?*%
%TF.SameCoordinates,Original*%
%TF.FileFunction,Other,User*%
%FSLAX46Y46*%
G04 Gerber Fmt 4.6, Leading zero omitted, Abs format (unit mm)*
G04 Created by KiCad (PCBNEW 10.0.3) date 2026-09-12 20:38:51*
%MOMM*%
%LPD*%
G01*
G04 APERTURE LIST*
%ADD10C,0.050000*%
G04 APERTURE END LIST*
%TO.C,D1*%
D10*
X139250000Y-123050000D02*
X149750000Y-123050000D01*
X149750000Y-127950000D01*
X139250000Y-127950000D01*
X139250000Y-123050000D01*
%TO.C,RV1*%
X125835000Y-73480000D02*
X131165000Y-73480000D01*
X131165000Y-83520000D01*
X125835000Y-83520000D01*
X125835000Y-73480000D01*
%TO.C,TP2*%
X134750000Y-68500000D02*
G75*
G02*
X132250000Y-68500000I-1250000J0D01*
G01*
X132250000Y-68500000D02*
G75*
G02*
X134750000Y-68500000I1250000J0D01*
G01*
%TO.C,TP16*%
X94800000Y-101500000D02*
G75*
G02*
X91200000Y-101500000I-1800000J0D01*
G01*
X91200000Y-101500000D02*
G75*
G02*
X94800000Y-101500000I1800000J0D01*
G01*
%TO.C,D6*%
X121290000Y-104285000D02*
X127710000Y-104285000D01*
X127710000Y-110715000D01*
X121290000Y-110715000D01*
X121290000Y-104285000D01*
%TO.C,TP6*%
X61250000Y-85000000D02*
G75*
G02*
X58750000Y-85000000I-1250000J0D01*
G01*
X58750000Y-85000000D02*
G75*
G02*
X61250000Y-85000000I1250000J0D01*
G01*
%TO.C,R4*%
X116070000Y-110750000D02*
X116070000Y-120250000D01*
X116070000Y-120250000D02*
X149460000Y-120250000D01*
X149460000Y-110750000D02*
X116070000Y-110750000D01*
X149460000Y-120250000D02*
X149460000Y-110750000D01*
%TO.C,R3*%
X130000000Y-98370000D02*
X133000000Y-98370000D01*
X133000000Y-110630000D01*
X130000000Y-110630000D01*
X130000000Y-98370000D01*
%TO.C,PS1*%
X136727500Y-63512500D02*
X136727500Y-75642500D01*
X143423597Y-75642500D02*
X136727500Y-75642500D01*
X143427500Y-63512500D02*
X136727500Y-63512500D01*
X143427500Y-63512500D02*
X143427500Y-75642500D01*
%TO.C,C2*%
X160250000Y-43000000D02*
G75*
G02*
X129750000Y-43000000I-15250000J0D01*
G01*
X129750000Y-43000000D02*
G75*
G02*
X160250000Y-43000000I15250000J0D01*
G01*
%TO.C,TP9*%
X132250000Y-94500000D02*
G75*
G02*
X129750000Y-94500000I-1250000J0D01*
G01*
X129750000Y-94500000D02*
G75*
G02*
X132250000Y-94500000I1250000J0D01*
G01*
%TO.C,C12*%
X129750000Y-70000000D02*
X135250000Y-70000000D01*
X135250000Y-73000000D01*
X129750000Y-73000000D01*
X129750000Y-70000000D01*
%TO.C,R17*%
X122370000Y-85500000D02*
X134630000Y-85500000D01*
X134630000Y-88500000D01*
X122370000Y-88500000D01*
X122370000Y-85500000D01*
%TO.C,Q1*%
X133050000Y-99250000D02*
X137950000Y-99250000D01*
X137950000Y-109750000D01*
X133050000Y-109750000D01*
X133050000Y-99250000D01*
%TO.C,J1*%
X121600000Y-64750000D02*
X126400000Y-64750000D01*
X126400000Y-73250000D01*
X121600000Y-73250000D01*
X121600000Y-64750000D01*
%TO.C,C4*%
X135525000Y-57750000D02*
X141025000Y-57750000D01*
X141025000Y-60750000D01*
X135525000Y-60750000D01*
X135525000Y-57750000D01*
%TO.C,JP1*%
X64750000Y-106650000D02*
X64750000Y-103350000D01*
X64750000Y-106650000D02*
X67250000Y-106650000D01*
X67250000Y-103350000D02*
X64750000Y-103350000D01*
X67250000Y-103350000D02*
X67250000Y-106650000D01*
%TO.C,OPTO2*%
X111135000Y-73705000D02*
X120865000Y-73705000D01*
X120865000Y-79295000D01*
X111135000Y-79295000D01*
X111135000Y-73705000D01*
%TO.C,C6*%
X126750000Y-54500000D02*
X132250000Y-54500000D01*
X132250000Y-57500000D01*
X126750000Y-57500000D01*
X126750000Y-54500000D01*
%TO.C,R6*%
X118000000Y-95870000D02*
X121000000Y-95870000D01*
X121000000Y-108130000D01*
X118000000Y-108130000D01*
X118000000Y-95870000D01*
%TO.C,R1*%
X98870000Y-65000000D02*
X111130000Y-65000000D01*
X111130000Y-68000000D01*
X98870000Y-68000000D01*
X98870000Y-65000000D01*
%TO.C,TP1*%
X124750000Y-61000000D02*
G75*
G02*
X122250000Y-61000000I-1250000J0D01*
G01*
X122250000Y-61000000D02*
G75*
G02*
X124750000Y-61000000I1250000J0D01*
G01*
%TO.C,D2*%
X124570000Y-88900000D02*
X124570000Y-92100000D01*
X124570000Y-92100000D02*
X137430000Y-92100000D01*
X137430000Y-88900000D02*
X124570000Y-88900000D01*
X137430000Y-92100000D02*
X137430000Y-88900000D01*
%TO.C,J2*%
X98850000Y-109505750D02*
X98850000Y-124230750D01*
X98850000Y-124230750D02*
X112650000Y-124230750D01*
X112650000Y-109505750D02*
X98850000Y-109505750D01*
X112650000Y-124230750D02*
X112650000Y-109505750D01*
%TO.C,C1*%
X136250000Y-85750000D02*
X141750000Y-85750000D01*
X141750000Y-88750000D01*
X136250000Y-88750000D01*
X136250000Y-85750000D01*
%TO.C,TP5*%
X119750000Y-93500000D02*
G75*
G02*
X117250000Y-93500000I-1250000J0D01*
G01*
X117250000Y-93500000D02*
G75*
G02*
X119750000Y-93500000I1250000J0D01*
G01*
%TO.C,C5*%
X160500000Y-157000000D02*
G75*
G02*
X130000000Y-157000000I-15250000J0D01*
G01*
X130000000Y-157000000D02*
G75*
G02*
X160500000Y-157000000I15250000J0D01*
G01*
%TO.C,TP12*%
X91800000Y-133000000D02*
G75*
G02*
X88200000Y-133000000I-1800000J0D01*
G01*
X88200000Y-133000000D02*
G75*
G02*
X91800000Y-133000000I1800000J0D01*
G01*
%TO.C,C3*%
X134750000Y-63500000D02*
G75*
G02*
X126250000Y-63500000I-4250000J0D01*
G01*
X126250000Y-63500000D02*
G75*
G02*
X134750000Y-63500000I4250000J0D01*
G01*
%TO.C,D4*%
X54785000Y-76790000D02*
X61215000Y-76790000D01*
X61215000Y-83210000D01*
X54785000Y-83210000D01*
X54785000Y-76790000D01*
%TO.C,R25*%
X121500000Y-89370000D02*
X124500000Y-89370000D01*
X124500000Y-101630000D01*
X121500000Y-101630000D01*
X121500000Y-89370000D01*
%TO.C,J5*%
X94051096Y-66928954D02*
X93188255Y-76791281D01*
X64318532Y-74265508D01*
X65181374Y-64403180D01*
X94051096Y-66928954D01*
%TO.C,H2*%
X103915851Y-129301617D02*
G75*
G02*
X94815851Y-129301617I-4550000J0D01*
G01*
X94815851Y-129301617D02*
G75*
G02*
X103915851Y-129301617I4550000J0D01*
G01*
%TO.C,R12*%
X124620000Y-127000000D02*
X136880000Y-127000000D01*
X136880000Y-130000000D01*
X124620000Y-130000000D01*
X124620000Y-127000000D01*
%TO.C,H1*%
X103915851Y-74152383D02*
G75*
G02*
X94815851Y-74152383I-4550000J0D01*
G01*
X94815851Y-74152383D02*
G75*
G02*
X103915851Y-74152383I4550000J0D01*
G01*
%TO.C,C13*%
X139847349Y-81000000D02*
G75*
G02*
X131347349Y-81000000I-4250000J0D01*
G01*
X131347349Y-81000000D02*
G75*
G02*
X139847349Y-81000000I4250000J0D01*
G01*
%TO.C,R13*%
X116055000Y-131250000D02*
X116055000Y-140750000D01*
X116055000Y-140750000D02*
X149445000Y-140750000D01*
X149445000Y-131250000D02*
X116055000Y-131250000D01*
X149445000Y-140750000D02*
X149445000Y-131250000D01*
%TO.C,Q2*%
X112960000Y-126000000D02*
X123460000Y-126000000D01*
X123460000Y-130900000D01*
X112960000Y-130900000D01*
X112960000Y-126000000D01*
%TO.C,R2*%
X141750000Y-80390000D02*
X141750000Y-103610000D01*
X141750000Y-103610000D02*
X147250000Y-103610000D01*
X147250000Y-80390000D02*
X141750000Y-80390000D01*
X147250000Y-103610000D02*
X147250000Y-80390000D01*
%TO.C,F1*%
X101250000Y-57750000D02*
X101250000Y-64250000D01*
X101250000Y-57750000D02*
X121750000Y-57750000D01*
X121750000Y-64250000D02*
X101250000Y-64250000D01*
X121750000Y-64250000D02*
X121750000Y-57750000D01*
%TO.C,TP13*%
X92539678Y-127260465D02*
G75*
G02*
X88939678Y-127260465I-1800000J0D01*
G01*
X88939678Y-127260465D02*
G75*
G02*
X92539678Y-127260465I1800000J0D01*
G01*
%TO.C,TP8*%
X83750000Y-101500000D02*
G75*
G02*
X81250000Y-101500000I-1250000J0D01*
G01*
X81250000Y-101500000D02*
G75*
G02*
X83750000Y-101500000I1250000J0D01*
G01*
%TO.C,RV2*%
X44520000Y-72830000D02*
X54560000Y-72830000D01*
X54560000Y-78160000D01*
X44520000Y-78160000D01*
X44520000Y-72830000D01*
%TO.C,TP17*%
X94300000Y-107855597D02*
G75*
G02*
X90700000Y-107855597I-1800000J0D01*
G01*
X90700000Y-107855597D02*
G75*
G02*
X94300000Y-107855597I1800000J0D01*
G01*
%TO.C,OPTO3*%
X111635000Y-66705000D02*
X121365000Y-66705000D01*
X121365000Y-72295000D01*
X111635000Y-72295000D01*
X111635000Y-66705000D01*
%TD*%
M02*
