M48
; DRILL file KiCad 10.0.5 date 2026-09-19T12:55:07
; FORMAT={-:-/ absolute / metric / decimal}
; #@! TF.CreationDate,2026-09-19T12:55:07-03:00
; #@! TF.GenerationSoftware,Kicad,Pcbnew,10.0.5
; #@! TF.FileFunction,Plated,1,2,PTH
FMAT,2
METRIC
; #@! TA.AperFunction,Plated,PTH,ViaDrill
T1C0.300
; #@! TA.AperFunction,Plated,PTH,ComponentDrill
T2C0.600
; #@! TA.AperFunction,Plated,PTH,ComponentDrill
T3C0.750
; #@! TA.AperFunction,Plated,PTH,ComponentDrill
T4C0.800
; #@! TA.AperFunction,Plated,PTH,ComponentDrill
T5C0.900
; #@! TA.AperFunction,Plated,PTH,ComponentDrill
T6C1.000
; #@! TA.AperFunction,Plated,PTH,ComponentDrill
T7C1.075
; #@! TA.AperFunction,Plated,PTH,ComponentDrill
T8C1.100
; #@! TA.AperFunction,Plated,PTH,ComponentDrill
T9C1.200
; #@! TA.AperFunction,Plated,PTH,ComponentDrill
T10C1.700
; #@! TA.AperFunction,Plated,PTH,ComponentDrill
T11C2.000
; #@! TA.AperFunction,Plated,PTH,ComponentDrill
T12C4.300
%
G90
G05
T1
X50.5Y-85.5
X53.0Y-83.0
X59.5Y-98.5
X61.0Y-93.0
X63.0Y-112.0
X64.0Y-100.15
X65.0Y-110.0
X65.5Y-146.5
X65.5Y-147.5
X65.5Y-148.5
X65.5Y-149.5
X66.0Y-97.04
X66.0Y-105.65
X66.5Y-146.5
X66.5Y-147.5
X66.5Y-148.5
X66.5Y-149.5
X67.0Y-100.0
X67.5Y-91.45
X67.5Y-97.0
X67.5Y-110.5
X67.5Y-146.5
X67.5Y-147.5
X67.5Y-148.5
X67.5Y-149.5
X68.5Y-146.5
X68.5Y-147.5
X68.5Y-148.5
X68.5Y-149.5
X68.97Y-113.03
X69.0Y-109.0
X69.5Y-146.5
X69.5Y-147.5
X69.5Y-148.5
X69.5Y-149.5
X69.951Y-47.902
X70.0Y-110.0
X70.326Y-48.551
X70.5Y-146.5
X70.5Y-147.5
X70.5Y-148.5
X70.5Y-149.5
X70.6Y-47.527
X70.701Y-49.201
X70.975Y-48.176
X71.076Y-49.85
X71.25Y-47.152
X71.35Y-48.826
X71.451Y-50.5
X71.5Y-146.5
X71.5Y-147.5
X71.5Y-148.5
X71.5Y-149.5
X71.625Y-47.801
X71.725Y-49.475
X71.826Y-51.15
X71.9Y-46.777
X72.0Y-48.451
X72.1Y-50.125
X72.201Y-51.799
X72.218Y-95.25
X72.218Y-99.0
X72.275Y-47.426
X72.375Y-49.1
X72.475Y-50.775
X72.5Y-146.5
X72.5Y-147.5
X72.5Y-148.5
X72.5Y-149.5
X72.549Y-46.402
X72.576Y-52.449
X72.618Y-97.69
X72.65Y-48.076
X72.75Y-49.75
X72.85Y-51.424
X72.924Y-47.051
X72.934Y-106.434
X72.951Y-53.098
X73.0Y-96.0
X73.025Y-48.725
X73.125Y-50.4
X73.225Y-52.074
X73.299Y-47.701
X73.326Y-53.748
X73.4Y-49.375
X73.5Y-51.049
X73.5Y-107.0
X73.5Y-146.5
X73.5Y-147.5
X73.5Y-148.5
X73.5Y-149.5
X73.6Y-52.723
X73.674Y-48.35
X73.701Y-54.397
X73.775Y-50.025
X73.875Y-51.699
X73.975Y-53.373
X74.049Y-49.0
X74.076Y-55.047
X74.15Y-50.674
X74.25Y-52.348
X74.35Y-54.022
X74.424Y-49.65
X74.5Y-146.5
X74.5Y-147.5
X74.5Y-148.5
X74.5Y-149.5
X74.525Y-51.324
X74.625Y-52.998
X74.725Y-54.672
X74.799Y-50.299
X74.9Y-51.973
X75.0Y-53.647
X75.174Y-50.949
X75.275Y-52.623
X75.375Y-54.297
X75.5Y-146.5
X75.5Y-147.5
X75.5Y-148.5
X75.5Y-149.5
X75.549Y-51.598
X75.65Y-53.272
X75.924Y-52.248
X76.025Y-53.922
X76.299Y-52.897
X76.5Y-146.5
X76.5Y-147.5
X76.5Y-148.5
X76.5Y-149.5
X76.674Y-53.547
X77.475Y-97.69
X77.475Y-98.96
X77.475Y-100.23
X77.475Y-101.5
X77.5Y-104.0
X78.0Y-111.0
X79.0Y-96.5
X79.5Y-65.0
X79.73Y-112.27
X80.75Y-101.376
X81.0Y-103.0
X81.5Y-93.0
X85.5Y-97.5
X85.5Y-99.5
X87.75Y-123.75
X87.75Y-125.25
X91.0Y-76.0
X91.0Y-119.5
X95.5Y-66.5
X96.0Y-117.0
X106.0Y-65.5
X113.483Y-52.346
X113.548Y-51.599
X113.614Y-50.852
X113.679Y-50.105
X113.744Y-49.358
X113.81Y-48.611
X113.875Y-47.864
X113.94Y-47.116
X114.006Y-46.369
X114.071Y-45.622
X114.136Y-44.875
X114.202Y-44.128
X114.23Y-52.412
X114.295Y-51.665
X114.361Y-50.918
X114.426Y-50.17
X114.491Y-49.423
X114.557Y-48.676
X114.622Y-47.929
X114.687Y-47.182
X114.753Y-46.435
X114.818Y-45.687
X114.884Y-44.94
X114.949Y-44.193
X114.977Y-52.477
X115.042Y-51.73
X115.108Y-50.983
X115.173Y-50.236
X115.239Y-49.489
X115.304Y-48.741
X115.369Y-47.994
X115.435Y-47.247
X115.5Y-46.5
X115.565Y-45.753
X115.631Y-45.006
X115.696Y-44.259
X115.724Y-52.543
X115.79Y-51.795
X115.855Y-51.048
X115.92Y-50.301
X115.986Y-49.554
X116.051Y-48.807
X116.116Y-48.06
X116.182Y-47.313
X116.247Y-46.565
X116.313Y-45.818
X116.378Y-45.071
X116.443Y-44.324
X116.471Y-52.608
X116.537Y-51.861
X116.602Y-51.114
X116.667Y-50.366
X116.733Y-49.619
X116.798Y-48.872
X116.864Y-48.125
X116.929Y-47.378
X116.994Y-46.631
X117.06Y-45.884
X117.125Y-45.136
X117.19Y-44.389
X118.5Y-93.5
X119.5Y-146.0
X119.5Y-147.0
X119.5Y-148.0
X119.5Y-149.0
X120.5Y-146.0
X120.5Y-147.0
X120.5Y-148.0
X120.5Y-149.0
X121.5Y-146.0
X121.5Y-147.0
X121.5Y-148.0
X121.5Y-149.0
X122.5Y-146.0
X122.5Y-147.0
X122.5Y-148.0
X122.5Y-149.0
X123.42Y-84.5
X123.5Y-146.0
X123.5Y-147.0
X123.5Y-148.0
X123.5Y-149.0
X124.5Y-146.0
X124.5Y-147.0
X124.5Y-148.0
X124.5Y-149.0
X125.5Y-146.0
X125.5Y-147.0
X125.5Y-148.0
X125.5Y-149.0
X126.5Y-146.0
X126.5Y-147.0
X126.5Y-148.0
X126.5Y-149.0
X127.5Y-113.0
X127.5Y-146.0
X127.5Y-147.0
X127.5Y-148.0
X127.5Y-149.0
X128.5Y-146.0
X128.5Y-147.0
X128.5Y-148.0
X128.5Y-149.0
X128.525Y-92.095
X129.5Y-146.0
X129.5Y-147.0
X129.5Y-148.0
X129.5Y-149.0
X130.5Y-116.0
X130.5Y-146.0
X130.5Y-147.0
X130.5Y-148.0
X130.5Y-149.0
X131.5Y-146.0
X131.5Y-147.0
X131.5Y-148.0
X131.5Y-149.0
X132.5Y-146.0
X132.5Y-147.0
X132.5Y-148.0
X132.5Y-149.0
X133.475Y-93.365
X133.5Y-73.5
X133.5Y-94.5
X133.5Y-146.0
X133.5Y-147.0
X133.5Y-148.0
X133.5Y-149.0
X134.5Y-146.0
X134.5Y-147.0
X134.5Y-148.0
X134.5Y-149.0
X135.0Y-97.5
X135.5Y-61.0
X136.0Y-94.5
T2
X96.141Y-74.152
X96.141Y-129.302
X97.085Y-71.872
X97.085Y-76.433
X97.085Y-127.021
X97.085Y-131.582
X99.366Y-70.927
X99.366Y-77.377
X99.366Y-126.077
X99.366Y-132.527
X101.646Y-71.872
X101.646Y-76.433
X101.646Y-127.021
X101.646Y-131.582
X102.591Y-74.152
X102.591Y-129.302
T3
X59.362Y-100.73
X59.362Y-102.0
X59.362Y-103.27
T4
X47.0Y-75.5
X49.54Y-75.5
X52.08Y-75.5
X52.5Y-107.92
X52.5Y-118.08
X53.42Y-89.5
X58.92Y-123.0
X62.92Y-77.0
X62.92Y-86.0
X63.58Y-89.5
X69.08Y-123.0
X73.08Y-77.0
X73.08Y-86.0
X73.42Y-94.0
X77.725Y-83.195
X77.725Y-90.815
X77.92Y-80.0
X78.92Y-107.5
X80.265Y-83.195
X80.265Y-90.815
X83.58Y-94.0
X87.23Y-85.5
X87.23Y-93.12
X88.08Y-80.0
X89.08Y-107.5
X89.77Y-85.5
X89.77Y-93.12
X90.42Y-82.5
X99.92Y-66.5
X100.58Y-82.5
X110.08Y-66.5
X112.195Y-75.225
X112.195Y-77.765
X112.695Y-68.225
X112.695Y-70.765
X119.5Y-96.92
X119.5Y-107.08
X119.815Y-75.225
X119.815Y-77.765
X120.315Y-68.225
X120.315Y-70.765
X123.0Y-90.42
X123.0Y-100.58
X123.42Y-87.0
X125.67Y-128.5
X128.25Y-56.0
X128.495Y-75.96
X128.495Y-78.5
X128.495Y-81.04
X130.5Y-61.0
X130.5Y-66.0
X130.75Y-56.0
X131.25Y-71.5
X131.5Y-99.42
X131.5Y-109.58
X133.097Y-81.0
X133.58Y-87.0
X133.75Y-71.5
X135.83Y-128.5
X137.025Y-59.25
X137.75Y-87.25
X138.097Y-81.0
X139.525Y-59.25
X140.25Y-87.25
X142.0Y-59.5
X142.0Y-62.0
T5
X56.725Y-80.0
X59.265Y-80.0
X124.5Y-106.235
X124.5Y-108.775
T6
X70.218Y-71.088
X70.439Y-68.557
X72.748Y-71.309
X72.97Y-68.779
X75.279Y-71.53
X75.5Y-69.0
X77.809Y-71.752
X78.03Y-69.221
X80.339Y-71.973
X80.561Y-69.443
X82.87Y-72.194
X83.091Y-69.664
X85.4Y-72.416
X85.621Y-69.886
X87.93Y-72.637
X88.152Y-70.107
X100.25Y-112.706
X111.25Y-112.706
X123.7Y-67.75
X123.7Y-70.25
T7
X138.134Y-65.877
X138.134Y-68.417
X138.134Y-70.957
X138.134Y-73.497
T8
X115.67Y-127.5
X118.21Y-127.5
X120.75Y-127.5
X125.92Y-90.5
X136.08Y-90.5
X136.45Y-101.96
X136.45Y-104.5
X136.45Y-107.04
X141.96Y-124.55
X147.04Y-124.55
T9
X71.38Y-117.5
X86.62Y-117.5
X117.505Y-136.0
X117.52Y-115.5
X144.5Y-81.84
X144.5Y-102.16
X147.985Y-136.0
X148.0Y-115.5
T10
X103.25Y-122.706
X108.25Y-122.706
T11
X90.0Y-133.0
X90.74Y-127.26
X92.5Y-107.856
X93.0Y-101.5
X140.0Y-43.0
X140.25Y-157.0
X150.0Y-43.0
X150.25Y-157.0
T12
X99.366Y-74.152
X99.366Y-129.302
T11
G00X104.85Y-61.0
M15
G01X108.85Y-61.0
M16
G05
G00X114.15Y-61.0
M15
G01X118.15Y-61.0
M16
G05
M30
