%TF.GenerationSoftware,KiCad,Pcbnew,10.0.5*%
%TF.CreationDate,2026-09-19T12:54:51-03:00*%
%TF.ProjectId,interfacecircuito,696e7465-7266-4616-9365-636972637569,rev?*%
%TF.SameCoordinates,Original*%
%TF.FileFunction,Legend,Bot*%
%TF.FilePolarity,Positive*%
%FSLAX46Y46*%
G04 Gerber Fmt 4.6, Leading zero omitted, Abs format (unit mm)*
G04 Created by KiCad (PCBNEW 10.0.5) date 2026-09-19 12:54:51*
%MOMM*%
%LPD*%
G01*
G04 APERTURE LIST*
%ADD10C,0.150000*%
%ADD11C,0.120000*%
G04 APERTURE END LIST*
D10*
X144859580Y-60107142D02*
X144907200Y-60059523D01*
X144907200Y-60059523D02*
X144954819Y-59916666D01*
X144954819Y-59916666D02*
X144954819Y-59821428D01*
X144954819Y-59821428D02*
X144907200Y-59678571D01*
X144907200Y-59678571D02*
X144811961Y-59583333D01*
X144811961Y-59583333D02*
X144716723Y-59535714D01*
X144716723Y-59535714D02*
X144526247Y-59488095D01*
X144526247Y-59488095D02*
X144383390Y-59488095D01*
X144383390Y-59488095D02*
X144192914Y-59535714D01*
X144192914Y-59535714D02*
X144097676Y-59583333D01*
X144097676Y-59583333D02*
X144002438Y-59678571D01*
X144002438Y-59678571D02*
X143954819Y-59821428D01*
X143954819Y-59821428D02*
X143954819Y-59916666D01*
X143954819Y-59916666D02*
X144002438Y-60059523D01*
X144002438Y-60059523D02*
X144050057Y-60107142D01*
X144954819Y-61059523D02*
X144954819Y-60488095D01*
X144954819Y-60773809D02*
X143954819Y-60773809D01*
X143954819Y-60773809D02*
X144097676Y-60678571D01*
X144097676Y-60678571D02*
X144192914Y-60583333D01*
X144192914Y-60583333D02*
X144240533Y-60488095D01*
X144954819Y-62011904D02*
X144954819Y-61440476D01*
X144954819Y-61726190D02*
X143954819Y-61726190D01*
X143954819Y-61726190D02*
X144097676Y-61630952D01*
X144097676Y-61630952D02*
X144192914Y-61535714D01*
X144192914Y-61535714D02*
X144240533Y-61440476D01*
X80761904Y-62806819D02*
X80190476Y-62806819D01*
X80476190Y-63806819D02*
X80476190Y-62806819D01*
X79857142Y-63806819D02*
X79857142Y-62806819D01*
X79857142Y-62806819D02*
X79476190Y-62806819D01*
X79476190Y-62806819D02*
X79380952Y-62854438D01*
X79380952Y-62854438D02*
X79333333Y-62902057D01*
X79333333Y-62902057D02*
X79285714Y-62997295D01*
X79285714Y-62997295D02*
X79285714Y-63140152D01*
X79285714Y-63140152D02*
X79333333Y-63235390D01*
X79333333Y-63235390D02*
X79380952Y-63283009D01*
X79380952Y-63283009D02*
X79476190Y-63330628D01*
X79476190Y-63330628D02*
X79857142Y-63330628D01*
X78952380Y-62806819D02*
X78333333Y-62806819D01*
X78333333Y-62806819D02*
X78666666Y-63187771D01*
X78666666Y-63187771D02*
X78523809Y-63187771D01*
X78523809Y-63187771D02*
X78428571Y-63235390D01*
X78428571Y-63235390D02*
X78380952Y-63283009D01*
X78380952Y-63283009D02*
X78333333Y-63378247D01*
X78333333Y-63378247D02*
X78333333Y-63616342D01*
X78333333Y-63616342D02*
X78380952Y-63711580D01*
X78380952Y-63711580D02*
X78428571Y-63759200D01*
X78428571Y-63759200D02*
X78523809Y-63806819D01*
X78523809Y-63806819D02*
X78809523Y-63806819D01*
X78809523Y-63806819D02*
X78904761Y-63759200D01*
X78904761Y-63759200D02*
X78952380Y-63711580D01*
X68166666Y-79824819D02*
X68499999Y-79348628D01*
X68738094Y-79824819D02*
X68738094Y-78824819D01*
X68738094Y-78824819D02*
X68357142Y-78824819D01*
X68357142Y-78824819D02*
X68261904Y-78872438D01*
X68261904Y-78872438D02*
X68214285Y-78920057D01*
X68214285Y-78920057D02*
X68166666Y-79015295D01*
X68166666Y-79015295D02*
X68166666Y-79158152D01*
X68166666Y-79158152D02*
X68214285Y-79253390D01*
X68214285Y-79253390D02*
X68261904Y-79301009D01*
X68261904Y-79301009D02*
X68357142Y-79348628D01*
X68357142Y-79348628D02*
X68738094Y-79348628D01*
X67595237Y-79253390D02*
X67690475Y-79205771D01*
X67690475Y-79205771D02*
X67738094Y-79158152D01*
X67738094Y-79158152D02*
X67785713Y-79062914D01*
X67785713Y-79062914D02*
X67785713Y-79015295D01*
X67785713Y-79015295D02*
X67738094Y-78920057D01*
X67738094Y-78920057D02*
X67690475Y-78872438D01*
X67690475Y-78872438D02*
X67595237Y-78824819D01*
X67595237Y-78824819D02*
X67404761Y-78824819D01*
X67404761Y-78824819D02*
X67309523Y-78872438D01*
X67309523Y-78872438D02*
X67261904Y-78920057D01*
X67261904Y-78920057D02*
X67214285Y-79015295D01*
X67214285Y-79015295D02*
X67214285Y-79062914D01*
X67214285Y-79062914D02*
X67261904Y-79158152D01*
X67261904Y-79158152D02*
X67309523Y-79205771D01*
X67309523Y-79205771D02*
X67404761Y-79253390D01*
X67404761Y-79253390D02*
X67595237Y-79253390D01*
X67595237Y-79253390D02*
X67690475Y-79301009D01*
X67690475Y-79301009D02*
X67738094Y-79348628D01*
X67738094Y-79348628D02*
X67785713Y-79443866D01*
X67785713Y-79443866D02*
X67785713Y-79634342D01*
X67785713Y-79634342D02*
X67738094Y-79729580D01*
X67738094Y-79729580D02*
X67690475Y-79777200D01*
X67690475Y-79777200D02*
X67595237Y-79824819D01*
X67595237Y-79824819D02*
X67404761Y-79824819D01*
X67404761Y-79824819D02*
X67309523Y-79777200D01*
X67309523Y-79777200D02*
X67261904Y-79729580D01*
X67261904Y-79729580D02*
X67214285Y-79634342D01*
X67214285Y-79634342D02*
X67214285Y-79443866D01*
X67214285Y-79443866D02*
X67261904Y-79348628D01*
X67261904Y-79348628D02*
X67309523Y-79301009D01*
X67309523Y-79301009D02*
X67404761Y-79253390D01*
X83166666Y-78084819D02*
X83499999Y-77608628D01*
X83738094Y-78084819D02*
X83738094Y-77084819D01*
X83738094Y-77084819D02*
X83357142Y-77084819D01*
X83357142Y-77084819D02*
X83261904Y-77132438D01*
X83261904Y-77132438D02*
X83214285Y-77180057D01*
X83214285Y-77180057D02*
X83166666Y-77275295D01*
X83166666Y-77275295D02*
X83166666Y-77418152D01*
X83166666Y-77418152D02*
X83214285Y-77513390D01*
X83214285Y-77513390D02*
X83261904Y-77561009D01*
X83261904Y-77561009D02*
X83357142Y-77608628D01*
X83357142Y-77608628D02*
X83738094Y-77608628D01*
X82261904Y-77084819D02*
X82738094Y-77084819D01*
X82738094Y-77084819D02*
X82785713Y-77561009D01*
X82785713Y-77561009D02*
X82738094Y-77513390D01*
X82738094Y-77513390D02*
X82642856Y-77465771D01*
X82642856Y-77465771D02*
X82404761Y-77465771D01*
X82404761Y-77465771D02*
X82309523Y-77513390D01*
X82309523Y-77513390D02*
X82261904Y-77561009D01*
X82261904Y-77561009D02*
X82214285Y-77656247D01*
X82214285Y-77656247D02*
X82214285Y-77894342D01*
X82214285Y-77894342D02*
X82261904Y-77989580D01*
X82261904Y-77989580D02*
X82309523Y-78037200D01*
X82309523Y-78037200D02*
X82404761Y-78084819D01*
X82404761Y-78084819D02*
X82642856Y-78084819D01*
X82642856Y-78084819D02*
X82738094Y-78037200D01*
X82738094Y-78037200D02*
X82785713Y-77989580D01*
X131761904Y-90054819D02*
X131761904Y-90864342D01*
X131761904Y-90864342D02*
X131714285Y-90959580D01*
X131714285Y-90959580D02*
X131666666Y-91007200D01*
X131666666Y-91007200D02*
X131571428Y-91054819D01*
X131571428Y-91054819D02*
X131380952Y-91054819D01*
X131380952Y-91054819D02*
X131285714Y-91007200D01*
X131285714Y-91007200D02*
X131238095Y-90959580D01*
X131238095Y-90959580D02*
X131190476Y-90864342D01*
X131190476Y-90864342D02*
X131190476Y-90054819D01*
X130761904Y-90150057D02*
X130714285Y-90102438D01*
X130714285Y-90102438D02*
X130619047Y-90054819D01*
X130619047Y-90054819D02*
X130380952Y-90054819D01*
X130380952Y-90054819D02*
X130285714Y-90102438D01*
X130285714Y-90102438D02*
X130238095Y-90150057D01*
X130238095Y-90150057D02*
X130190476Y-90245295D01*
X130190476Y-90245295D02*
X130190476Y-90340533D01*
X130190476Y-90340533D02*
X130238095Y-90483390D01*
X130238095Y-90483390D02*
X130809523Y-91054819D01*
X130809523Y-91054819D02*
X130190476Y-91054819D01*
X96142857Y-85324819D02*
X96476190Y-84848628D01*
X96714285Y-85324819D02*
X96714285Y-84324819D01*
X96714285Y-84324819D02*
X96333333Y-84324819D01*
X96333333Y-84324819D02*
X96238095Y-84372438D01*
X96238095Y-84372438D02*
X96190476Y-84420057D01*
X96190476Y-84420057D02*
X96142857Y-84515295D01*
X96142857Y-84515295D02*
X96142857Y-84658152D01*
X96142857Y-84658152D02*
X96190476Y-84753390D01*
X96190476Y-84753390D02*
X96238095Y-84801009D01*
X96238095Y-84801009D02*
X96333333Y-84848628D01*
X96333333Y-84848628D02*
X96714285Y-84848628D01*
X95190476Y-85324819D02*
X95761904Y-85324819D01*
X95476190Y-85324819D02*
X95476190Y-84324819D01*
X95476190Y-84324819D02*
X95571428Y-84467676D01*
X95571428Y-84467676D02*
X95666666Y-84562914D01*
X95666666Y-84562914D02*
X95761904Y-84610533D01*
X94333333Y-84324819D02*
X94523809Y-84324819D01*
X94523809Y-84324819D02*
X94619047Y-84372438D01*
X94619047Y-84372438D02*
X94666666Y-84420057D01*
X94666666Y-84420057D02*
X94761904Y-84562914D01*
X94761904Y-84562914D02*
X94809523Y-84753390D01*
X94809523Y-84753390D02*
X94809523Y-85134342D01*
X94809523Y-85134342D02*
X94761904Y-85229580D01*
X94761904Y-85229580D02*
X94714285Y-85277200D01*
X94714285Y-85277200D02*
X94619047Y-85324819D01*
X94619047Y-85324819D02*
X94428571Y-85324819D01*
X94428571Y-85324819D02*
X94333333Y-85277200D01*
X94333333Y-85277200D02*
X94285714Y-85229580D01*
X94285714Y-85229580D02*
X94238095Y-85134342D01*
X94238095Y-85134342D02*
X94238095Y-84896247D01*
X94238095Y-84896247D02*
X94285714Y-84801009D01*
X94285714Y-84801009D02*
X94333333Y-84753390D01*
X94333333Y-84753390D02*
X94428571Y-84705771D01*
X94428571Y-84705771D02*
X94619047Y-84705771D01*
X94619047Y-84705771D02*
X94714285Y-84753390D01*
X94714285Y-84753390D02*
X94761904Y-84801009D01*
X94761904Y-84801009D02*
X94809523Y-84896247D01*
X61654819Y-98666666D02*
X62369104Y-98666666D01*
X62369104Y-98666666D02*
X62511961Y-98619047D01*
X62511961Y-98619047D02*
X62607200Y-98523809D01*
X62607200Y-98523809D02*
X62654819Y-98380952D01*
X62654819Y-98380952D02*
X62654819Y-98285714D01*
X62654819Y-99142857D02*
X61654819Y-99142857D01*
X61654819Y-99142857D02*
X61654819Y-99523809D01*
X61654819Y-99523809D02*
X61702438Y-99619047D01*
X61702438Y-99619047D02*
X61750057Y-99666666D01*
X61750057Y-99666666D02*
X61845295Y-99714285D01*
X61845295Y-99714285D02*
X61988152Y-99714285D01*
X61988152Y-99714285D02*
X62083390Y-99666666D01*
X62083390Y-99666666D02*
X62131009Y-99619047D01*
X62131009Y-99619047D02*
X62178628Y-99523809D01*
X62178628Y-99523809D02*
X62178628Y-99142857D01*
X61750057Y-100095238D02*
X61702438Y-100142857D01*
X61702438Y-100142857D02*
X61654819Y-100238095D01*
X61654819Y-100238095D02*
X61654819Y-100476190D01*
X61654819Y-100476190D02*
X61702438Y-100571428D01*
X61702438Y-100571428D02*
X61750057Y-100619047D01*
X61750057Y-100619047D02*
X61845295Y-100666666D01*
X61845295Y-100666666D02*
X61940533Y-100666666D01*
X61940533Y-100666666D02*
X62083390Y-100619047D01*
X62083390Y-100619047D02*
X62654819Y-100047619D01*
X62654819Y-100047619D02*
X62654819Y-100666666D01*
X131761904Y-113806819D02*
X131190476Y-113806819D01*
X131476190Y-114806819D02*
X131476190Y-113806819D01*
X130857142Y-114806819D02*
X130857142Y-113806819D01*
X130857142Y-113806819D02*
X130476190Y-113806819D01*
X130476190Y-113806819D02*
X130380952Y-113854438D01*
X130380952Y-113854438D02*
X130333333Y-113902057D01*
X130333333Y-113902057D02*
X130285714Y-113997295D01*
X130285714Y-113997295D02*
X130285714Y-114140152D01*
X130285714Y-114140152D02*
X130333333Y-114235390D01*
X130333333Y-114235390D02*
X130380952Y-114283009D01*
X130380952Y-114283009D02*
X130476190Y-114330628D01*
X130476190Y-114330628D02*
X130857142Y-114330628D01*
X129428571Y-114140152D02*
X129428571Y-114806819D01*
X129666666Y-113759200D02*
X129904761Y-114473485D01*
X129904761Y-114473485D02*
X129285714Y-114473485D01*
X71261904Y-88454819D02*
X70690476Y-88454819D01*
X70976190Y-89454819D02*
X70976190Y-88454819D01*
X70357142Y-89454819D02*
X70357142Y-88454819D01*
X70357142Y-88454819D02*
X69976190Y-88454819D01*
X69976190Y-88454819D02*
X69880952Y-88502438D01*
X69880952Y-88502438D02*
X69833333Y-88550057D01*
X69833333Y-88550057D02*
X69785714Y-88645295D01*
X69785714Y-88645295D02*
X69785714Y-88788152D01*
X69785714Y-88788152D02*
X69833333Y-88883390D01*
X69833333Y-88883390D02*
X69880952Y-88931009D01*
X69880952Y-88931009D02*
X69976190Y-88978628D01*
X69976190Y-88978628D02*
X70357142Y-88978628D01*
X69452380Y-88454819D02*
X68785714Y-88454819D01*
X68785714Y-88454819D02*
X69214285Y-89454819D01*
X84642857Y-105584819D02*
X84976190Y-105108628D01*
X85214285Y-105584819D02*
X85214285Y-104584819D01*
X85214285Y-104584819D02*
X84833333Y-104584819D01*
X84833333Y-104584819D02*
X84738095Y-104632438D01*
X84738095Y-104632438D02*
X84690476Y-104680057D01*
X84690476Y-104680057D02*
X84642857Y-104775295D01*
X84642857Y-104775295D02*
X84642857Y-104918152D01*
X84642857Y-104918152D02*
X84690476Y-105013390D01*
X84690476Y-105013390D02*
X84738095Y-105061009D01*
X84738095Y-105061009D02*
X84833333Y-105108628D01*
X84833333Y-105108628D02*
X85214285Y-105108628D01*
X83690476Y-105584819D02*
X84261904Y-105584819D01*
X83976190Y-105584819D02*
X83976190Y-104584819D01*
X83976190Y-104584819D02*
X84071428Y-104727676D01*
X84071428Y-104727676D02*
X84166666Y-104822914D01*
X84166666Y-104822914D02*
X84261904Y-104870533D01*
X83119047Y-105013390D02*
X83214285Y-104965771D01*
X83214285Y-104965771D02*
X83261904Y-104918152D01*
X83261904Y-104918152D02*
X83309523Y-104822914D01*
X83309523Y-104822914D02*
X83309523Y-104775295D01*
X83309523Y-104775295D02*
X83261904Y-104680057D01*
X83261904Y-104680057D02*
X83214285Y-104632438D01*
X83214285Y-104632438D02*
X83119047Y-104584819D01*
X83119047Y-104584819D02*
X82928571Y-104584819D01*
X82928571Y-104584819D02*
X82833333Y-104632438D01*
X82833333Y-104632438D02*
X82785714Y-104680057D01*
X82785714Y-104680057D02*
X82738095Y-104775295D01*
X82738095Y-104775295D02*
X82738095Y-104822914D01*
X82738095Y-104822914D02*
X82785714Y-104918152D01*
X82785714Y-104918152D02*
X82833333Y-104965771D01*
X82833333Y-104965771D02*
X82928571Y-105013390D01*
X82928571Y-105013390D02*
X83119047Y-105013390D01*
X83119047Y-105013390D02*
X83214285Y-105061009D01*
X83214285Y-105061009D02*
X83261904Y-105108628D01*
X83261904Y-105108628D02*
X83309523Y-105203866D01*
X83309523Y-105203866D02*
X83309523Y-105394342D01*
X83309523Y-105394342D02*
X83261904Y-105489580D01*
X83261904Y-105489580D02*
X83214285Y-105537200D01*
X83214285Y-105537200D02*
X83119047Y-105584819D01*
X83119047Y-105584819D02*
X82928571Y-105584819D01*
X82928571Y-105584819D02*
X82833333Y-105537200D01*
X82833333Y-105537200D02*
X82785714Y-105489580D01*
X82785714Y-105489580D02*
X82738095Y-105394342D01*
X82738095Y-105394342D02*
X82738095Y-105203866D01*
X82738095Y-105203866D02*
X82785714Y-105108628D01*
X82785714Y-105108628D02*
X82833333Y-105061009D01*
X82833333Y-105061009D02*
X82928571Y-105013390D01*
X75761904Y-95674819D02*
X75761904Y-96484342D01*
X75761904Y-96484342D02*
X75714285Y-96579580D01*
X75714285Y-96579580D02*
X75666666Y-96627200D01*
X75666666Y-96627200D02*
X75571428Y-96674819D01*
X75571428Y-96674819D02*
X75380952Y-96674819D01*
X75380952Y-96674819D02*
X75285714Y-96627200D01*
X75285714Y-96627200D02*
X75238095Y-96579580D01*
X75238095Y-96579580D02*
X75190476Y-96484342D01*
X75190476Y-96484342D02*
X75190476Y-95674819D01*
X74238095Y-95674819D02*
X74714285Y-95674819D01*
X74714285Y-95674819D02*
X74761904Y-96151009D01*
X74761904Y-96151009D02*
X74714285Y-96103390D01*
X74714285Y-96103390D02*
X74619047Y-96055771D01*
X74619047Y-96055771D02*
X74380952Y-96055771D01*
X74380952Y-96055771D02*
X74285714Y-96103390D01*
X74285714Y-96103390D02*
X74238095Y-96151009D01*
X74238095Y-96151009D02*
X74190476Y-96246247D01*
X74190476Y-96246247D02*
X74190476Y-96484342D01*
X74190476Y-96484342D02*
X74238095Y-96579580D01*
X74238095Y-96579580D02*
X74285714Y-96627200D01*
X74285714Y-96627200D02*
X74380952Y-96674819D01*
X74380952Y-96674819D02*
X74619047Y-96674819D01*
X74619047Y-96674819D02*
X74714285Y-96627200D01*
X74714285Y-96627200D02*
X74761904Y-96579580D01*
X91554819Y-88548095D02*
X92364342Y-88548095D01*
X92364342Y-88548095D02*
X92459580Y-88595714D01*
X92459580Y-88595714D02*
X92507200Y-88643333D01*
X92507200Y-88643333D02*
X92554819Y-88738571D01*
X92554819Y-88738571D02*
X92554819Y-88929047D01*
X92554819Y-88929047D02*
X92507200Y-89024285D01*
X92507200Y-89024285D02*
X92459580Y-89071904D01*
X92459580Y-89071904D02*
X92364342Y-89119523D01*
X92364342Y-89119523D02*
X91554819Y-89119523D01*
X91554819Y-89500476D02*
X91554819Y-90119523D01*
X91554819Y-90119523D02*
X91935771Y-89786190D01*
X91935771Y-89786190D02*
X91935771Y-89929047D01*
X91935771Y-89929047D02*
X91983390Y-90024285D01*
X91983390Y-90024285D02*
X92031009Y-90071904D01*
X92031009Y-90071904D02*
X92126247Y-90119523D01*
X92126247Y-90119523D02*
X92364342Y-90119523D01*
X92364342Y-90119523D02*
X92459580Y-90071904D01*
X92459580Y-90071904D02*
X92507200Y-90024285D01*
X92507200Y-90024285D02*
X92554819Y-89929047D01*
X92554819Y-89929047D02*
X92554819Y-89643333D01*
X92554819Y-89643333D02*
X92507200Y-89548095D01*
X92507200Y-89548095D02*
X92459580Y-89500476D01*
X64642857Y-125824819D02*
X64976190Y-125348628D01*
X65214285Y-125824819D02*
X65214285Y-124824819D01*
X65214285Y-124824819D02*
X64833333Y-124824819D01*
X64833333Y-124824819D02*
X64738095Y-124872438D01*
X64738095Y-124872438D02*
X64690476Y-124920057D01*
X64690476Y-124920057D02*
X64642857Y-125015295D01*
X64642857Y-125015295D02*
X64642857Y-125158152D01*
X64642857Y-125158152D02*
X64690476Y-125253390D01*
X64690476Y-125253390D02*
X64738095Y-125301009D01*
X64738095Y-125301009D02*
X64833333Y-125348628D01*
X64833333Y-125348628D02*
X65214285Y-125348628D01*
X63690476Y-125824819D02*
X64261904Y-125824819D01*
X63976190Y-125824819D02*
X63976190Y-124824819D01*
X63976190Y-124824819D02*
X64071428Y-124967676D01*
X64071428Y-124967676D02*
X64166666Y-125062914D01*
X64166666Y-125062914D02*
X64261904Y-125110533D01*
X62833333Y-125158152D02*
X62833333Y-125824819D01*
X63071428Y-124777200D02*
X63309523Y-125491485D01*
X63309523Y-125491485D02*
X62690476Y-125491485D01*
X68166666Y-84084819D02*
X68499999Y-83608628D01*
X68738094Y-84084819D02*
X68738094Y-83084819D01*
X68738094Y-83084819D02*
X68357142Y-83084819D01*
X68357142Y-83084819D02*
X68261904Y-83132438D01*
X68261904Y-83132438D02*
X68214285Y-83180057D01*
X68214285Y-83180057D02*
X68166666Y-83275295D01*
X68166666Y-83275295D02*
X68166666Y-83418152D01*
X68166666Y-83418152D02*
X68214285Y-83513390D01*
X68214285Y-83513390D02*
X68261904Y-83561009D01*
X68261904Y-83561009D02*
X68357142Y-83608628D01*
X68357142Y-83608628D02*
X68738094Y-83608628D01*
X67690475Y-84084819D02*
X67499999Y-84084819D01*
X67499999Y-84084819D02*
X67404761Y-84037200D01*
X67404761Y-84037200D02*
X67357142Y-83989580D01*
X67357142Y-83989580D02*
X67261904Y-83846723D01*
X67261904Y-83846723D02*
X67214285Y-83656247D01*
X67214285Y-83656247D02*
X67214285Y-83275295D01*
X67214285Y-83275295D02*
X67261904Y-83180057D01*
X67261904Y-83180057D02*
X67309523Y-83132438D01*
X67309523Y-83132438D02*
X67404761Y-83084819D01*
X67404761Y-83084819D02*
X67595237Y-83084819D01*
X67595237Y-83084819D02*
X67690475Y-83132438D01*
X67690475Y-83132438D02*
X67738094Y-83180057D01*
X67738094Y-83180057D02*
X67785713Y-83275295D01*
X67785713Y-83275295D02*
X67785713Y-83513390D01*
X67785713Y-83513390D02*
X67738094Y-83608628D01*
X67738094Y-83608628D02*
X67690475Y-83656247D01*
X67690475Y-83656247D02*
X67595237Y-83703866D01*
X67595237Y-83703866D02*
X67404761Y-83703866D01*
X67404761Y-83703866D02*
X67309523Y-83656247D01*
X67309523Y-83656247D02*
X67261904Y-83608628D01*
X67261904Y-83608628D02*
X67214285Y-83513390D01*
X75286904Y-107689819D02*
X75286904Y-108499342D01*
X75286904Y-108499342D02*
X75239285Y-108594580D01*
X75239285Y-108594580D02*
X75191666Y-108642200D01*
X75191666Y-108642200D02*
X75096428Y-108689819D01*
X75096428Y-108689819D02*
X74905952Y-108689819D01*
X74905952Y-108689819D02*
X74810714Y-108642200D01*
X74810714Y-108642200D02*
X74763095Y-108594580D01*
X74763095Y-108594580D02*
X74715476Y-108499342D01*
X74715476Y-108499342D02*
X74715476Y-107689819D01*
X73810714Y-108023152D02*
X73810714Y-108689819D01*
X74048809Y-107642200D02*
X74286904Y-108356485D01*
X74286904Y-108356485D02*
X73667857Y-108356485D01*
X79642857Y-115034819D02*
X79976190Y-114558628D01*
X80214285Y-115034819D02*
X80214285Y-114034819D01*
X80214285Y-114034819D02*
X79833333Y-114034819D01*
X79833333Y-114034819D02*
X79738095Y-114082438D01*
X79738095Y-114082438D02*
X79690476Y-114130057D01*
X79690476Y-114130057D02*
X79642857Y-114225295D01*
X79642857Y-114225295D02*
X79642857Y-114368152D01*
X79642857Y-114368152D02*
X79690476Y-114463390D01*
X79690476Y-114463390D02*
X79738095Y-114511009D01*
X79738095Y-114511009D02*
X79833333Y-114558628D01*
X79833333Y-114558628D02*
X80214285Y-114558628D01*
X78690476Y-115034819D02*
X79261904Y-115034819D01*
X78976190Y-115034819D02*
X78976190Y-114034819D01*
X78976190Y-114034819D02*
X79071428Y-114177676D01*
X79071428Y-114177676D02*
X79166666Y-114272914D01*
X79166666Y-114272914D02*
X79261904Y-114320533D01*
X78071428Y-114034819D02*
X77976190Y-114034819D01*
X77976190Y-114034819D02*
X77880952Y-114082438D01*
X77880952Y-114082438D02*
X77833333Y-114130057D01*
X77833333Y-114130057D02*
X77785714Y-114225295D01*
X77785714Y-114225295D02*
X77738095Y-114415771D01*
X77738095Y-114415771D02*
X77738095Y-114653866D01*
X77738095Y-114653866D02*
X77785714Y-114844342D01*
X77785714Y-114844342D02*
X77833333Y-114939580D01*
X77833333Y-114939580D02*
X77880952Y-114987200D01*
X77880952Y-114987200D02*
X77976190Y-115034819D01*
X77976190Y-115034819D02*
X78071428Y-115034819D01*
X78071428Y-115034819D02*
X78166666Y-114987200D01*
X78166666Y-114987200D02*
X78214285Y-114939580D01*
X78214285Y-114939580D02*
X78261904Y-114844342D01*
X78261904Y-114844342D02*
X78309523Y-114653866D01*
X78309523Y-114653866D02*
X78309523Y-114415771D01*
X78309523Y-114415771D02*
X78261904Y-114225295D01*
X78261904Y-114225295D02*
X78214285Y-114130057D01*
X78214285Y-114130057D02*
X78166666Y-114082438D01*
X78166666Y-114082438D02*
X78071428Y-114034819D01*
X134738094Y-75806819D02*
X134166666Y-75806819D01*
X134452380Y-76806819D02*
X134452380Y-75806819D01*
X133833332Y-76806819D02*
X133833332Y-75806819D01*
X133833332Y-75806819D02*
X133452380Y-75806819D01*
X133452380Y-75806819D02*
X133357142Y-75854438D01*
X133357142Y-75854438D02*
X133309523Y-75902057D01*
X133309523Y-75902057D02*
X133261904Y-75997295D01*
X133261904Y-75997295D02*
X133261904Y-76140152D01*
X133261904Y-76140152D02*
X133309523Y-76235390D01*
X133309523Y-76235390D02*
X133357142Y-76283009D01*
X133357142Y-76283009D02*
X133452380Y-76330628D01*
X133452380Y-76330628D02*
X133833332Y-76330628D01*
X132309523Y-76806819D02*
X132880951Y-76806819D01*
X132595237Y-76806819D02*
X132595237Y-75806819D01*
X132595237Y-75806819D02*
X132690475Y-75949676D01*
X132690475Y-75949676D02*
X132785713Y-76044914D01*
X132785713Y-76044914D02*
X132880951Y-76092533D01*
X131357142Y-76806819D02*
X131928570Y-76806819D01*
X131642856Y-76806819D02*
X131642856Y-75806819D01*
X131642856Y-75806819D02*
X131738094Y-75949676D01*
X131738094Y-75949676D02*
X131833332Y-76044914D01*
X131833332Y-76044914D02*
X131928570Y-76092533D01*
X140238094Y-92306819D02*
X139666666Y-92306819D01*
X139952380Y-93306819D02*
X139952380Y-92306819D01*
X139333332Y-93306819D02*
X139333332Y-92306819D01*
X139333332Y-92306819D02*
X138952380Y-92306819D01*
X138952380Y-92306819D02*
X138857142Y-92354438D01*
X138857142Y-92354438D02*
X138809523Y-92402057D01*
X138809523Y-92402057D02*
X138761904Y-92497295D01*
X138761904Y-92497295D02*
X138761904Y-92640152D01*
X138761904Y-92640152D02*
X138809523Y-92735390D01*
X138809523Y-92735390D02*
X138857142Y-92783009D01*
X138857142Y-92783009D02*
X138952380Y-92830628D01*
X138952380Y-92830628D02*
X139333332Y-92830628D01*
X137809523Y-93306819D02*
X138380951Y-93306819D01*
X138095237Y-93306819D02*
X138095237Y-92306819D01*
X138095237Y-92306819D02*
X138190475Y-92449676D01*
X138190475Y-92449676D02*
X138285713Y-92544914D01*
X138285713Y-92544914D02*
X138380951Y-92592533D01*
X137190475Y-92306819D02*
X137095237Y-92306819D01*
X137095237Y-92306819D02*
X136999999Y-92354438D01*
X136999999Y-92354438D02*
X136952380Y-92402057D01*
X136952380Y-92402057D02*
X136904761Y-92497295D01*
X136904761Y-92497295D02*
X136857142Y-92687771D01*
X136857142Y-92687771D02*
X136857142Y-92925866D01*
X136857142Y-92925866D02*
X136904761Y-93116342D01*
X136904761Y-93116342D02*
X136952380Y-93211580D01*
X136952380Y-93211580D02*
X136999999Y-93259200D01*
X136999999Y-93259200D02*
X137095237Y-93306819D01*
X137095237Y-93306819D02*
X137190475Y-93306819D01*
X137190475Y-93306819D02*
X137285713Y-93259200D01*
X137285713Y-93259200D02*
X137333332Y-93211580D01*
X137333332Y-93211580D02*
X137380951Y-93116342D01*
X137380951Y-93116342D02*
X137428570Y-92925866D01*
X137428570Y-92925866D02*
X137428570Y-92687771D01*
X137428570Y-92687771D02*
X137380951Y-92497295D01*
X137380951Y-92497295D02*
X137333332Y-92402057D01*
X137333332Y-92402057D02*
X137285713Y-92354438D01*
X137285713Y-92354438D02*
X137190475Y-92306819D01*
X74849819Y-85028809D02*
X74849819Y-85219285D01*
X74849819Y-85219285D02*
X74897438Y-85314523D01*
X74897438Y-85314523D02*
X74992676Y-85409761D01*
X74992676Y-85409761D02*
X75183152Y-85457380D01*
X75183152Y-85457380D02*
X75516485Y-85457380D01*
X75516485Y-85457380D02*
X75706961Y-85409761D01*
X75706961Y-85409761D02*
X75802200Y-85314523D01*
X75802200Y-85314523D02*
X75849819Y-85219285D01*
X75849819Y-85219285D02*
X75849819Y-85028809D01*
X75849819Y-85028809D02*
X75802200Y-84933571D01*
X75802200Y-84933571D02*
X75706961Y-84838333D01*
X75706961Y-84838333D02*
X75516485Y-84790714D01*
X75516485Y-84790714D02*
X75183152Y-84790714D01*
X75183152Y-84790714D02*
X74992676Y-84838333D01*
X74992676Y-84838333D02*
X74897438Y-84933571D01*
X74897438Y-84933571D02*
X74849819Y-85028809D01*
X75849819Y-85885952D02*
X74849819Y-85885952D01*
X74849819Y-85885952D02*
X74849819Y-86266904D01*
X74849819Y-86266904D02*
X74897438Y-86362142D01*
X74897438Y-86362142D02*
X74945057Y-86409761D01*
X74945057Y-86409761D02*
X75040295Y-86457380D01*
X75040295Y-86457380D02*
X75183152Y-86457380D01*
X75183152Y-86457380D02*
X75278390Y-86409761D01*
X75278390Y-86409761D02*
X75326009Y-86362142D01*
X75326009Y-86362142D02*
X75373628Y-86266904D01*
X75373628Y-86266904D02*
X75373628Y-85885952D01*
X74849819Y-86743095D02*
X74849819Y-87314523D01*
X75849819Y-87028809D02*
X74849819Y-87028809D01*
X74849819Y-87838333D02*
X74849819Y-88028809D01*
X74849819Y-88028809D02*
X74897438Y-88124047D01*
X74897438Y-88124047D02*
X74992676Y-88219285D01*
X74992676Y-88219285D02*
X75183152Y-88266904D01*
X75183152Y-88266904D02*
X75516485Y-88266904D01*
X75516485Y-88266904D02*
X75706961Y-88219285D01*
X75706961Y-88219285D02*
X75802200Y-88124047D01*
X75802200Y-88124047D02*
X75849819Y-88028809D01*
X75849819Y-88028809D02*
X75849819Y-87838333D01*
X75849819Y-87838333D02*
X75802200Y-87743095D01*
X75802200Y-87743095D02*
X75706961Y-87647857D01*
X75706961Y-87647857D02*
X75516485Y-87600238D01*
X75516485Y-87600238D02*
X75183152Y-87600238D01*
X75183152Y-87600238D02*
X74992676Y-87647857D01*
X74992676Y-87647857D02*
X74897438Y-87743095D01*
X74897438Y-87743095D02*
X74849819Y-87838333D01*
X75849819Y-89219285D02*
X75849819Y-88647857D01*
X75849819Y-88933571D02*
X74849819Y-88933571D01*
X74849819Y-88933571D02*
X74992676Y-88838333D01*
X74992676Y-88838333D02*
X75087914Y-88743095D01*
X75087914Y-88743095D02*
X75135533Y-88647857D01*
X59142857Y-87584819D02*
X59476190Y-87108628D01*
X59714285Y-87584819D02*
X59714285Y-86584819D01*
X59714285Y-86584819D02*
X59333333Y-86584819D01*
X59333333Y-86584819D02*
X59238095Y-86632438D01*
X59238095Y-86632438D02*
X59190476Y-86680057D01*
X59190476Y-86680057D02*
X59142857Y-86775295D01*
X59142857Y-86775295D02*
X59142857Y-86918152D01*
X59142857Y-86918152D02*
X59190476Y-87013390D01*
X59190476Y-87013390D02*
X59238095Y-87061009D01*
X59238095Y-87061009D02*
X59333333Y-87108628D01*
X59333333Y-87108628D02*
X59714285Y-87108628D01*
X58190476Y-87584819D02*
X58761904Y-87584819D01*
X58476190Y-87584819D02*
X58476190Y-86584819D01*
X58476190Y-86584819D02*
X58571428Y-86727676D01*
X58571428Y-86727676D02*
X58666666Y-86822914D01*
X58666666Y-86822914D02*
X58761904Y-86870533D01*
X57238095Y-87584819D02*
X57809523Y-87584819D01*
X57523809Y-87584819D02*
X57523809Y-86584819D01*
X57523809Y-86584819D02*
X57619047Y-86727676D01*
X57619047Y-86727676D02*
X57714285Y-86822914D01*
X57714285Y-86822914D02*
X57809523Y-86870533D01*
X56352557Y-101904761D02*
X56304938Y-101809523D01*
X56304938Y-101809523D02*
X56209700Y-101714285D01*
X56209700Y-101714285D02*
X56066842Y-101571428D01*
X56066842Y-101571428D02*
X56019223Y-101476190D01*
X56019223Y-101476190D02*
X56019223Y-101380952D01*
X56257319Y-101428571D02*
X56209700Y-101333333D01*
X56209700Y-101333333D02*
X56114461Y-101238095D01*
X56114461Y-101238095D02*
X55923985Y-101190476D01*
X55923985Y-101190476D02*
X55590652Y-101190476D01*
X55590652Y-101190476D02*
X55400176Y-101238095D01*
X55400176Y-101238095D02*
X55304938Y-101333333D01*
X55304938Y-101333333D02*
X55257319Y-101428571D01*
X55257319Y-101428571D02*
X55257319Y-101619047D01*
X55257319Y-101619047D02*
X55304938Y-101714285D01*
X55304938Y-101714285D02*
X55400176Y-101809523D01*
X55400176Y-101809523D02*
X55590652Y-101857142D01*
X55590652Y-101857142D02*
X55923985Y-101857142D01*
X55923985Y-101857142D02*
X56114461Y-101809523D01*
X56114461Y-101809523D02*
X56209700Y-101714285D01*
X56209700Y-101714285D02*
X56257319Y-101619047D01*
X56257319Y-101619047D02*
X56257319Y-101428571D01*
X55257319Y-102190476D02*
X55257319Y-102809523D01*
X55257319Y-102809523D02*
X55638271Y-102476190D01*
X55638271Y-102476190D02*
X55638271Y-102619047D01*
X55638271Y-102619047D02*
X55685890Y-102714285D01*
X55685890Y-102714285D02*
X55733509Y-102761904D01*
X55733509Y-102761904D02*
X55828747Y-102809523D01*
X55828747Y-102809523D02*
X56066842Y-102809523D01*
X56066842Y-102809523D02*
X56162080Y-102761904D01*
X56162080Y-102761904D02*
X56209700Y-102714285D01*
X56209700Y-102714285D02*
X56257319Y-102619047D01*
X56257319Y-102619047D02*
X56257319Y-102333333D01*
X56257319Y-102333333D02*
X56209700Y-102238095D01*
X56209700Y-102238095D02*
X56162080Y-102190476D01*
X55324819Y-112357142D02*
X54848628Y-112023809D01*
X55324819Y-111785714D02*
X54324819Y-111785714D01*
X54324819Y-111785714D02*
X54324819Y-112166666D01*
X54324819Y-112166666D02*
X54372438Y-112261904D01*
X54372438Y-112261904D02*
X54420057Y-112309523D01*
X54420057Y-112309523D02*
X54515295Y-112357142D01*
X54515295Y-112357142D02*
X54658152Y-112357142D01*
X54658152Y-112357142D02*
X54753390Y-112309523D01*
X54753390Y-112309523D02*
X54801009Y-112261904D01*
X54801009Y-112261904D02*
X54848628Y-112166666D01*
X54848628Y-112166666D02*
X54848628Y-111785714D01*
X55324819Y-113309523D02*
X55324819Y-112738095D01*
X55324819Y-113023809D02*
X54324819Y-113023809D01*
X54324819Y-113023809D02*
X54467676Y-112928571D01*
X54467676Y-112928571D02*
X54562914Y-112833333D01*
X54562914Y-112833333D02*
X54610533Y-112738095D01*
X54324819Y-114214285D02*
X54324819Y-113738095D01*
X54324819Y-113738095D02*
X54801009Y-113690476D01*
X54801009Y-113690476D02*
X54753390Y-113738095D01*
X54753390Y-113738095D02*
X54705771Y-113833333D01*
X54705771Y-113833333D02*
X54705771Y-114071428D01*
X54705771Y-114071428D02*
X54753390Y-114166666D01*
X54753390Y-114166666D02*
X54801009Y-114214285D01*
X54801009Y-114214285D02*
X54896247Y-114261904D01*
X54896247Y-114261904D02*
X55134342Y-114261904D01*
X55134342Y-114261904D02*
X55229580Y-114214285D01*
X55229580Y-114214285D02*
X55277200Y-114166666D01*
X55277200Y-114166666D02*
X55324819Y-114071428D01*
X55324819Y-114071428D02*
X55324819Y-113833333D01*
X55324819Y-113833333D02*
X55277200Y-113738095D01*
X55277200Y-113738095D02*
X55229580Y-113690476D01*
X78666666Y-96824819D02*
X78999999Y-96348628D01*
X79238094Y-96824819D02*
X79238094Y-95824819D01*
X79238094Y-95824819D02*
X78857142Y-95824819D01*
X78857142Y-95824819D02*
X78761904Y-95872438D01*
X78761904Y-95872438D02*
X78714285Y-95920057D01*
X78714285Y-95920057D02*
X78666666Y-96015295D01*
X78666666Y-96015295D02*
X78666666Y-96158152D01*
X78666666Y-96158152D02*
X78714285Y-96253390D01*
X78714285Y-96253390D02*
X78761904Y-96301009D01*
X78761904Y-96301009D02*
X78857142Y-96348628D01*
X78857142Y-96348628D02*
X79238094Y-96348628D01*
X78333332Y-95824819D02*
X77666666Y-95824819D01*
X77666666Y-95824819D02*
X78095237Y-96824819D01*
%TO.C,C11*%
D11*
X140630000Y-58130000D02*
X140630000Y-63370000D01*
X140630000Y-63370000D02*
X143370000Y-63370000D01*
X143370000Y-58130000D02*
X140630000Y-58130000D01*
X143370000Y-63370000D02*
X143370000Y-58130000D01*
%TO.C,TP3*%
X80450000Y-65000000D02*
G75*
G02*
X78550000Y-65000000I-950000J0D01*
G01*
X78550000Y-65000000D02*
G75*
G02*
X80450000Y-65000000I950000J0D01*
G01*
%TO.C,R8*%
X63960000Y-77000000D02*
X64730000Y-77000000D01*
X72040000Y-77000000D02*
X71270000Y-77000000D01*
X64730000Y-75630000D02*
X71270000Y-75630000D01*
X71270000Y-78370000D01*
X64730000Y-78370000D01*
X64730000Y-75630000D01*
%TO.C,R5*%
X78960000Y-80000000D02*
X79730000Y-80000000D01*
X87040000Y-80000000D02*
X86270000Y-80000000D01*
X79730000Y-78630000D02*
X86270000Y-78630000D01*
X86270000Y-81370000D01*
X79730000Y-81370000D01*
X79730000Y-78630000D01*
%TO.C,U2*%
X128940000Y-91440000D02*
X128940000Y-91535000D01*
X128940000Y-96465000D02*
X128940000Y-96560000D01*
X128940000Y-96560000D02*
X133060000Y-96560000D01*
X133060000Y-91440000D02*
X128940000Y-91440000D01*
X133060000Y-91535000D02*
X133060000Y-91440000D01*
X133060000Y-96560000D02*
X133060000Y-96465000D01*
X133600000Y-91530000D02*
X133840000Y-91200000D01*
X133360000Y-91200000D01*
X133600000Y-91530000D01*
G36*
X133600000Y-91530000D02*
G01*
X133360000Y-91200000D01*
X133840000Y-91200000D01*
X133600000Y-91530000D01*
G37*
%TO.C,R16*%
X91460000Y-82500000D02*
X92230000Y-82500000D01*
X99540000Y-82500000D02*
X98770000Y-82500000D01*
X92230000Y-81130000D02*
X98770000Y-81130000D01*
X98770000Y-83870000D01*
X92230000Y-83870000D01*
X92230000Y-81130000D01*
%TO.C,JP2*%
X63000000Y-98800000D02*
X63000000Y-100200000D01*
X63700000Y-100900000D02*
X64300000Y-100900000D01*
X64300000Y-98100000D02*
X63700000Y-98100000D01*
X65000000Y-100200000D02*
X65000000Y-98800000D01*
X63000000Y-98800000D02*
G75*
G02*
X63700000Y-98100000I699999J1D01*
G01*
X63700000Y-100900000D02*
G75*
G02*
X63000000Y-100200000I0J700000D01*
G01*
X64300000Y-98100000D02*
G75*
G02*
X65000000Y-98800000I1J-699999D01*
G01*
X65000000Y-100200000D02*
G75*
G02*
X64300000Y-100900000I-700000J0D01*
G01*
%TO.C,TP4*%
X131450000Y-116000000D02*
G75*
G02*
X129550000Y-116000000I-950000J0D01*
G01*
X129550000Y-116000000D02*
G75*
G02*
X131450000Y-116000000I950000J0D01*
G01*
%TO.C,TP7*%
X68450000Y-89000000D02*
G75*
G02*
X66550000Y-89000000I-950000J0D01*
G01*
X66550000Y-89000000D02*
G75*
G02*
X68450000Y-89000000I950000J0D01*
G01*
%TO.C,R18*%
X79960000Y-107500000D02*
X80730000Y-107500000D01*
X88040000Y-107500000D02*
X87270000Y-107500000D01*
X80730000Y-106130000D02*
X87270000Y-106130000D01*
X87270000Y-108870000D01*
X80730000Y-108870000D01*
X80730000Y-106130000D01*
%TO.C,U5*%
X72940000Y-97065000D02*
X72940000Y-97130000D01*
X72940000Y-105870000D02*
X72940000Y-105935000D01*
X72940000Y-105935000D02*
X77060000Y-105935000D01*
X77060000Y-97065000D02*
X72940000Y-97065000D01*
X77060000Y-97130000D02*
X77060000Y-97065000D01*
X77060000Y-105935000D02*
X77060000Y-105870000D01*
X77600000Y-97130000D02*
X77840000Y-96800000D01*
X77360000Y-96800000D01*
X77600000Y-97130000D01*
G36*
X77600000Y-97130000D02*
G01*
X77360000Y-96800000D01*
X77840000Y-96800000D01*
X77600000Y-97130000D01*
G37*
%TO.C,U3*%
X85900000Y-86660000D02*
X91100000Y-86660000D01*
X85900000Y-91960000D02*
X85900000Y-86660000D01*
X91100000Y-86660000D02*
X91100000Y-88310000D01*
X91100000Y-90310000D02*
X91100000Y-91960000D01*
X91100000Y-91960000D02*
X85900000Y-91960000D01*
X91100000Y-90310000D02*
G75*
G02*
X91100000Y-88310000I0J1000000D01*
G01*
%TO.C,R14*%
X59960000Y-123000000D02*
X60730000Y-123000000D01*
X68040000Y-123000000D02*
X67270000Y-123000000D01*
X60730000Y-121630000D02*
X67270000Y-121630000D01*
X67270000Y-124370000D01*
X60730000Y-124370000D01*
X60730000Y-121630000D01*
%TO.C,R9*%
X63960000Y-86000000D02*
X64730000Y-86000000D01*
X72040000Y-86000000D02*
X71270000Y-86000000D01*
X64730000Y-84630000D02*
X71270000Y-84630000D01*
X71270000Y-87370000D01*
X64730000Y-87370000D01*
X64730000Y-84630000D01*
%TO.C,U4*%
X72465000Y-109075000D02*
X72465000Y-109170000D01*
X72465000Y-114100000D02*
X72465000Y-114195000D01*
X72465000Y-114195000D02*
X76585000Y-114195000D01*
X76585000Y-109075000D02*
X72465000Y-109075000D01*
X76585000Y-109170000D02*
X76585000Y-109075000D01*
X76585000Y-114195000D02*
X76585000Y-114100000D01*
X77125000Y-109165000D02*
X77365000Y-108835000D01*
X76885000Y-108835000D01*
X77125000Y-109165000D01*
G36*
X77125000Y-109165000D02*
G01*
X76885000Y-108835000D01*
X77365000Y-108835000D01*
X77125000Y-109165000D01*
G37*
%TO.C,R10*%
X72820000Y-117500000D02*
X73930000Y-117500000D01*
X85180000Y-117500000D02*
X84070000Y-117500000D01*
X73930000Y-115580000D02*
X84070000Y-115580000D01*
X84070000Y-119420000D01*
X73930000Y-119420000D01*
X73930000Y-115580000D01*
%TO.C,TP11*%
X133950000Y-78000000D02*
G75*
G02*
X132050000Y-78000000I-950000J0D01*
G01*
X132050000Y-78000000D02*
G75*
G02*
X133950000Y-78000000I950000J0D01*
G01*
%TO.C,TP10*%
X136950000Y-94500000D02*
G75*
G02*
X135050000Y-94500000I-950000J0D01*
G01*
X135050000Y-94500000D02*
G75*
G02*
X136950000Y-94500000I950000J0D01*
G01*
%TO.C,OPTO1*%
X76395000Y-84355000D02*
X81595000Y-84355000D01*
X76395000Y-86005000D02*
X76395000Y-84355000D01*
X76395000Y-89655000D02*
X76395000Y-88005000D01*
X81595000Y-84355000D02*
X81595000Y-89655000D01*
X81595000Y-89655000D02*
X76395000Y-89655000D01*
X76395000Y-86005000D02*
G75*
G02*
X76395000Y-88005000I0J-1000000D01*
G01*
%TO.C,R11*%
X54460000Y-89500000D02*
X55230000Y-89500000D01*
X62540000Y-89500000D02*
X61770000Y-89500000D01*
X55230000Y-88130000D02*
X61770000Y-88130000D01*
X61770000Y-90870000D01*
X55230000Y-90870000D01*
X55230000Y-88130000D01*
%TO.C,Q3*%
X61212500Y-100200000D02*
X61212500Y-103800000D01*
X56762500Y-102000000D02*
G75*
G02*
X61200978Y-100161522I2600000J0D01*
G01*
X61200978Y-103838478D02*
G75*
G02*
X56762499Y-102000000I-1838478J1838478D01*
G01*
%TO.C,R15*%
X52500000Y-108960000D02*
X52500000Y-109730000D01*
X52500000Y-117040000D02*
X52500000Y-116270000D01*
X51130000Y-109730000D02*
X53870000Y-109730000D01*
X53870000Y-116270000D01*
X51130000Y-116270000D01*
X51130000Y-109730000D01*
%TO.C,R7*%
X74460000Y-94000000D02*
X75230000Y-94000000D01*
X82540000Y-94000000D02*
X81770000Y-94000000D01*
X75230000Y-92630000D02*
X81770000Y-92630000D01*
X81770000Y-95370000D01*
X75230000Y-95370000D01*
X75230000Y-92630000D01*
%TD*%
M02*
