%TF.GenerationSoftware,KiCad,Pcbnew,10.0.5*%
%TF.CreationDate,2026-09-10T11:17:16-03:00*%
%TF.ProjectId,Kicker_LT3751_OxeBots,4b69636b-6572-45f4-9c54-333735315f4f,rev?*%
%TF.SameCoordinates,Original*%
%TF.FileFunction,Legend,Bot*%
%TF.FilePolarity,Positive*%
%FSLAX46Y46*%
G04 Gerber Fmt 4.6, Leading zero omitted, Abs format (unit mm)*
G04 Created by KiCad (PCBNEW 10.0.5) date 2026-09-10 11:17:16*
%MOMM*%
%LPD*%
G01*
G04 APERTURE LIST*
%ADD10C,0.200000*%
%ADD11C,0.150000*%
%ADD12C,0.120000*%
%ADD13C,0.000000*%
G04 APERTURE END LIST*
D10*
X109689000Y-145542000D02*
X109717406Y-145513838D01*
X110285533Y-144950605D02*
X110313940Y-144922443D01*
X110882067Y-144359210D02*
X110910473Y-144331048D01*
X111478600Y-143767815D02*
X111507006Y-143739653D01*
X109943000Y-93218000D02*
X109943000Y-93178000D01*
X109943000Y-92378000D02*
X109943000Y-92338000D01*
X109943000Y-91538000D02*
X109943000Y-91498000D01*
X109943000Y-90698000D02*
X109943000Y-90658000D01*
X109943000Y-89858000D02*
X109943000Y-89818000D01*
X109943000Y-89018000D02*
X109943000Y-88978000D01*
X109943000Y-88178000D02*
X109943000Y-88138000D01*
X109943000Y-87338000D02*
X109943000Y-87298000D01*
X109943000Y-86498000D02*
X109943000Y-86458000D01*
X109943000Y-85658000D02*
X109943000Y-85618000D01*
X109943000Y-84818000D02*
X109943000Y-84778000D01*
X109943000Y-83978000D02*
X109943000Y-83938000D01*
X109943000Y-83138000D02*
X109943000Y-83098000D01*
X109943000Y-82298000D02*
X109943000Y-82258000D01*
X109943000Y-81458000D02*
X109943000Y-81418000D01*
X109943000Y-80618000D02*
X109943000Y-80578000D01*
X109943000Y-79778000D02*
X109943000Y-79738000D01*
X109943000Y-78938000D02*
X109943000Y-78898000D01*
X109943000Y-78098000D02*
X109943000Y-78058000D01*
X109943000Y-77258000D02*
X109943000Y-77218000D01*
X109943000Y-76418000D02*
X109943000Y-76378000D01*
X109943000Y-75578000D02*
X109943000Y-75538000D01*
X109943000Y-74738000D02*
X109943000Y-74698000D01*
X109943000Y-73898000D02*
X109943000Y-73858000D01*
X109943000Y-73058000D02*
X109943000Y-73018000D01*
X109943000Y-72218000D02*
X109943000Y-72178000D01*
X109943000Y-71378000D02*
X109943000Y-71338000D01*
X109943000Y-70538000D02*
X109943000Y-70498000D01*
X109943000Y-69698000D02*
X109943000Y-69658000D01*
X109943000Y-68858000D02*
X109943000Y-68818000D01*
X109943000Y-68018000D02*
X109943000Y-67978000D01*
X109943000Y-67178000D02*
X109943000Y-67138000D01*
X109943000Y-66338000D02*
X109943000Y-66298000D01*
X109943000Y-65498000D02*
X109943000Y-65458000D01*
X109943000Y-64658000D02*
X109943000Y-64618000D01*
X109943000Y-63818000D02*
X109943000Y-63778000D01*
X109943000Y-62978000D02*
X109943000Y-62938000D01*
X109943000Y-62138000D02*
X109943000Y-62098000D01*
X109943000Y-61298000D02*
X109943000Y-61258000D01*
X109943000Y-60458000D02*
X109943000Y-60418000D01*
X109943000Y-59618000D02*
X109943000Y-59578000D01*
X109943000Y-58778000D02*
X109943000Y-58738000D01*
X109943000Y-57938000D02*
X109943000Y-57898000D01*
X109943000Y-57098000D02*
X109943000Y-57058000D01*
X111721000Y-111633000D02*
X111693585Y-111603872D01*
X111145294Y-111021312D02*
X111117879Y-110992184D01*
X110569587Y-110409624D02*
X110542173Y-110380496D01*
X111721000Y-124447868D02*
X111721000Y-124407868D01*
X111721000Y-123607868D02*
X111721000Y-123567868D01*
X111721000Y-122767868D02*
X111721000Y-122727868D01*
X111721000Y-121927868D02*
X111721000Y-121887868D01*
X111721000Y-121087868D02*
X111721000Y-121047868D01*
X111721000Y-120247868D02*
X111721000Y-120207868D01*
X111721000Y-119407868D02*
X111721000Y-119367868D01*
X111721000Y-118567868D02*
X111721000Y-118527868D01*
X111721000Y-117727868D02*
X111721000Y-117687868D01*
X111721000Y-116887868D02*
X111721000Y-116847868D01*
X111721000Y-116047868D02*
X111721000Y-116007868D01*
X111721000Y-115207868D02*
X111721000Y-115167868D01*
X111721000Y-114367868D02*
X111721000Y-114327868D01*
X111721000Y-113527868D02*
X111721000Y-113487868D01*
X111721000Y-112687868D02*
X111721000Y-112647868D01*
X111721000Y-111847868D02*
X111721000Y-111807868D01*
X111721000Y-133223000D02*
X111721000Y-133263000D01*
X111721000Y-134063000D02*
X111721000Y-134103000D01*
X111721000Y-134903000D02*
X111721000Y-134943000D01*
X111721000Y-135743000D02*
X111721000Y-135783000D01*
X111721000Y-136583000D02*
X111721000Y-136623000D01*
X111721000Y-137423000D02*
X111721000Y-137463000D01*
X111721000Y-138263000D02*
X111721000Y-138303000D01*
X111721000Y-139103000D02*
X111721000Y-139143000D01*
X111721000Y-139943000D02*
X111721000Y-139983000D01*
X111721000Y-140783000D02*
X111721000Y-140823000D01*
X111721000Y-141623000D02*
X111721000Y-141663000D01*
X111721000Y-142463000D02*
X111721000Y-142503000D01*
X111721000Y-143303000D02*
X111721000Y-143343000D01*
D11*
X146756714Y-73323855D02*
X146828142Y-73395284D01*
X146828142Y-73395284D02*
X147042428Y-73466712D01*
X147042428Y-73466712D02*
X147185285Y-73466712D01*
X147185285Y-73466712D02*
X147399571Y-73395284D01*
X147399571Y-73395284D02*
X147542428Y-73252426D01*
X147542428Y-73252426D02*
X147613857Y-73109569D01*
X147613857Y-73109569D02*
X147685285Y-72823855D01*
X147685285Y-72823855D02*
X147685285Y-72609569D01*
X147685285Y-72609569D02*
X147613857Y-72323855D01*
X147613857Y-72323855D02*
X147542428Y-72180998D01*
X147542428Y-72180998D02*
X147399571Y-72038141D01*
X147399571Y-72038141D02*
X147185285Y-71966712D01*
X147185285Y-71966712D02*
X147042428Y-71966712D01*
X147042428Y-71966712D02*
X146828142Y-72038141D01*
X146828142Y-72038141D02*
X146756714Y-72109569D01*
X145471000Y-72466712D02*
X145471000Y-73466712D01*
X146113857Y-72466712D02*
X146113857Y-73252426D01*
X146113857Y-73252426D02*
X146042428Y-73395284D01*
X146042428Y-73395284D02*
X145899571Y-73466712D01*
X145899571Y-73466712D02*
X145685285Y-73466712D01*
X145685285Y-73466712D02*
X145542428Y-73395284D01*
X145542428Y-73395284D02*
X145471000Y-73323855D01*
X144756714Y-73466712D02*
X144756714Y-72466712D01*
X144756714Y-71966712D02*
X144828142Y-72038141D01*
X144828142Y-72038141D02*
X144756714Y-72109569D01*
X144756714Y-72109569D02*
X144685285Y-72038141D01*
X144685285Y-72038141D02*
X144756714Y-71966712D01*
X144756714Y-71966712D02*
X144756714Y-72109569D01*
X143399571Y-73466712D02*
X143399571Y-71966712D01*
X143399571Y-73395284D02*
X143542428Y-73466712D01*
X143542428Y-73466712D02*
X143828142Y-73466712D01*
X143828142Y-73466712D02*
X143970999Y-73395284D01*
X143970999Y-73395284D02*
X144042428Y-73323855D01*
X144042428Y-73323855D02*
X144113856Y-73180998D01*
X144113856Y-73180998D02*
X144113856Y-72752426D01*
X144113856Y-72752426D02*
X144042428Y-72609569D01*
X144042428Y-72609569D02*
X143970999Y-72538141D01*
X143970999Y-72538141D02*
X143828142Y-72466712D01*
X143828142Y-72466712D02*
X143542428Y-72466712D01*
X143542428Y-72466712D02*
X143399571Y-72538141D01*
X142042428Y-73466712D02*
X142042428Y-72680998D01*
X142042428Y-72680998D02*
X142113856Y-72538141D01*
X142113856Y-72538141D02*
X142256713Y-72466712D01*
X142256713Y-72466712D02*
X142542428Y-72466712D01*
X142542428Y-72466712D02*
X142685285Y-72538141D01*
X142042428Y-73395284D02*
X142185285Y-73466712D01*
X142185285Y-73466712D02*
X142542428Y-73466712D01*
X142542428Y-73466712D02*
X142685285Y-73395284D01*
X142685285Y-73395284D02*
X142756713Y-73252426D01*
X142756713Y-73252426D02*
X142756713Y-73109569D01*
X142756713Y-73109569D02*
X142685285Y-72966712D01*
X142685285Y-72966712D02*
X142542428Y-72895284D01*
X142542428Y-72895284D02*
X142185285Y-72895284D01*
X142185285Y-72895284D02*
X142042428Y-72823855D01*
X140685285Y-73466712D02*
X140685285Y-71966712D01*
X140685285Y-73395284D02*
X140828142Y-73466712D01*
X140828142Y-73466712D02*
X141113856Y-73466712D01*
X141113856Y-73466712D02*
X141256713Y-73395284D01*
X141256713Y-73395284D02*
X141328142Y-73323855D01*
X141328142Y-73323855D02*
X141399570Y-73180998D01*
X141399570Y-73180998D02*
X141399570Y-72752426D01*
X141399570Y-72752426D02*
X141328142Y-72609569D01*
X141328142Y-72609569D02*
X141256713Y-72538141D01*
X141256713Y-72538141D02*
X141113856Y-72466712D01*
X141113856Y-72466712D02*
X140828142Y-72466712D01*
X140828142Y-72466712D02*
X140685285Y-72538141D01*
X139756713Y-73466712D02*
X139899570Y-73395284D01*
X139899570Y-73395284D02*
X139970999Y-73323855D01*
X139970999Y-73323855D02*
X140042427Y-73180998D01*
X140042427Y-73180998D02*
X140042427Y-72752426D01*
X140042427Y-72752426D02*
X139970999Y-72609569D01*
X139970999Y-72609569D02*
X139899570Y-72538141D01*
X139899570Y-72538141D02*
X139756713Y-72466712D01*
X139756713Y-72466712D02*
X139542427Y-72466712D01*
X139542427Y-72466712D02*
X139399570Y-72538141D01*
X139399570Y-72538141D02*
X139328142Y-72609569D01*
X139328142Y-72609569D02*
X139256713Y-72752426D01*
X139256713Y-72752426D02*
X139256713Y-73180998D01*
X139256713Y-73180998D02*
X139328142Y-73323855D01*
X139328142Y-73323855D02*
X139399570Y-73395284D01*
X139399570Y-73395284D02*
X139542427Y-73466712D01*
X139542427Y-73466712D02*
X139756713Y-73466712D01*
X149756713Y-75453057D02*
X149042428Y-75453057D01*
X149899570Y-75881628D02*
X149399570Y-74381628D01*
X149399570Y-74381628D02*
X148899570Y-75881628D01*
X148185285Y-75881628D02*
X148328142Y-75810200D01*
X148328142Y-75810200D02*
X148399571Y-75667342D01*
X148399571Y-75667342D02*
X148399571Y-74381628D01*
X147828142Y-74881628D02*
X147256714Y-74881628D01*
X147613857Y-74381628D02*
X147613857Y-75667342D01*
X147613857Y-75667342D02*
X147542428Y-75810200D01*
X147542428Y-75810200D02*
X147399571Y-75881628D01*
X147399571Y-75881628D02*
X147256714Y-75881628D01*
X146113857Y-75881628D02*
X146113857Y-75095914D01*
X146113857Y-75095914D02*
X146185285Y-74953057D01*
X146185285Y-74953057D02*
X146328142Y-74881628D01*
X146328142Y-74881628D02*
X146613857Y-74881628D01*
X146613857Y-74881628D02*
X146756714Y-74953057D01*
X146113857Y-75810200D02*
X146256714Y-75881628D01*
X146256714Y-75881628D02*
X146613857Y-75881628D01*
X146613857Y-75881628D02*
X146756714Y-75810200D01*
X146756714Y-75810200D02*
X146828142Y-75667342D01*
X146828142Y-75667342D02*
X146828142Y-75524485D01*
X146828142Y-75524485D02*
X146756714Y-75381628D01*
X146756714Y-75381628D02*
X146613857Y-75310200D01*
X146613857Y-75310200D02*
X146256714Y-75310200D01*
X146256714Y-75310200D02*
X146113857Y-75238771D01*
X144470999Y-74381628D02*
X143613857Y-74381628D01*
X144042428Y-75881628D02*
X144042428Y-74381628D01*
X142542428Y-75810200D02*
X142685285Y-75881628D01*
X142685285Y-75881628D02*
X142971000Y-75881628D01*
X142971000Y-75881628D02*
X143113857Y-75810200D01*
X143113857Y-75810200D02*
X143185285Y-75667342D01*
X143185285Y-75667342D02*
X143185285Y-75095914D01*
X143185285Y-75095914D02*
X143113857Y-74953057D01*
X143113857Y-74953057D02*
X142971000Y-74881628D01*
X142971000Y-74881628D02*
X142685285Y-74881628D01*
X142685285Y-74881628D02*
X142542428Y-74953057D01*
X142542428Y-74953057D02*
X142471000Y-75095914D01*
X142471000Y-75095914D02*
X142471000Y-75238771D01*
X142471000Y-75238771D02*
X143185285Y-75381628D01*
X141828143Y-74881628D02*
X141828143Y-75881628D01*
X141828143Y-75024485D02*
X141756714Y-74953057D01*
X141756714Y-74953057D02*
X141613857Y-74881628D01*
X141613857Y-74881628D02*
X141399571Y-74881628D01*
X141399571Y-74881628D02*
X141256714Y-74953057D01*
X141256714Y-74953057D02*
X141185286Y-75095914D01*
X141185286Y-75095914D02*
X141185286Y-75881628D01*
X140542428Y-75810200D02*
X140399571Y-75881628D01*
X140399571Y-75881628D02*
X140113857Y-75881628D01*
X140113857Y-75881628D02*
X139971000Y-75810200D01*
X139971000Y-75810200D02*
X139899571Y-75667342D01*
X139899571Y-75667342D02*
X139899571Y-75595914D01*
X139899571Y-75595914D02*
X139971000Y-75453057D01*
X139971000Y-75453057D02*
X140113857Y-75381628D01*
X140113857Y-75381628D02*
X140328143Y-75381628D01*
X140328143Y-75381628D02*
X140471000Y-75310200D01*
X140471000Y-75310200D02*
X140542428Y-75167342D01*
X140542428Y-75167342D02*
X140542428Y-75095914D01*
X140542428Y-75095914D02*
X140471000Y-74953057D01*
X140471000Y-74953057D02*
X140328143Y-74881628D01*
X140328143Y-74881628D02*
X140113857Y-74881628D01*
X140113857Y-74881628D02*
X139971000Y-74953057D01*
X138613857Y-75881628D02*
X138613857Y-75095914D01*
X138613857Y-75095914D02*
X138685285Y-74953057D01*
X138685285Y-74953057D02*
X138828142Y-74881628D01*
X138828142Y-74881628D02*
X139113857Y-74881628D01*
X139113857Y-74881628D02*
X139256714Y-74953057D01*
X138613857Y-75810200D02*
X138756714Y-75881628D01*
X138756714Y-75881628D02*
X139113857Y-75881628D01*
X139113857Y-75881628D02*
X139256714Y-75810200D01*
X139256714Y-75810200D02*
X139328142Y-75667342D01*
X139328142Y-75667342D02*
X139328142Y-75524485D01*
X139328142Y-75524485D02*
X139256714Y-75381628D01*
X139256714Y-75381628D02*
X139113857Y-75310200D01*
X139113857Y-75310200D02*
X138756714Y-75310200D01*
X138756714Y-75310200D02*
X138613857Y-75238771D01*
X139328142Y-74524485D02*
X139256714Y-74453057D01*
X139256714Y-74453057D02*
X139113857Y-74381628D01*
X139113857Y-74381628D02*
X138828142Y-74524485D01*
X138828142Y-74524485D02*
X138685285Y-74453057D01*
X138685285Y-74453057D02*
X138613857Y-74381628D01*
X137685285Y-75881628D02*
X137828142Y-75810200D01*
X137828142Y-75810200D02*
X137899571Y-75738771D01*
X137899571Y-75738771D02*
X137970999Y-75595914D01*
X137970999Y-75595914D02*
X137970999Y-75167342D01*
X137970999Y-75167342D02*
X137899571Y-75024485D01*
X137899571Y-75024485D02*
X137828142Y-74953057D01*
X137828142Y-74953057D02*
X137685285Y-74881628D01*
X137685285Y-74881628D02*
X137470999Y-74881628D01*
X137470999Y-74881628D02*
X137328142Y-74953057D01*
X137328142Y-74953057D02*
X137256714Y-75024485D01*
X137256714Y-75024485D02*
X137185285Y-75167342D01*
X137185285Y-75167342D02*
X137185285Y-75595914D01*
X137185285Y-75595914D02*
X137256714Y-75738771D01*
X137256714Y-75738771D02*
X137328142Y-75810200D01*
X137328142Y-75810200D02*
X137470999Y-75881628D01*
X137470999Y-75881628D02*
X137685285Y-75881628D01*
X98078819Y-80780142D02*
X97602628Y-80446809D01*
X98078819Y-80208714D02*
X97078819Y-80208714D01*
X97078819Y-80208714D02*
X97078819Y-80589666D01*
X97078819Y-80589666D02*
X97126438Y-80684904D01*
X97126438Y-80684904D02*
X97174057Y-80732523D01*
X97174057Y-80732523D02*
X97269295Y-80780142D01*
X97269295Y-80780142D02*
X97412152Y-80780142D01*
X97412152Y-80780142D02*
X97507390Y-80732523D01*
X97507390Y-80732523D02*
X97555009Y-80684904D01*
X97555009Y-80684904D02*
X97602628Y-80589666D01*
X97602628Y-80589666D02*
X97602628Y-80208714D01*
X97174057Y-81161095D02*
X97126438Y-81208714D01*
X97126438Y-81208714D02*
X97078819Y-81303952D01*
X97078819Y-81303952D02*
X97078819Y-81542047D01*
X97078819Y-81542047D02*
X97126438Y-81637285D01*
X97126438Y-81637285D02*
X97174057Y-81684904D01*
X97174057Y-81684904D02*
X97269295Y-81732523D01*
X97269295Y-81732523D02*
X97364533Y-81732523D01*
X97364533Y-81732523D02*
X97507390Y-81684904D01*
X97507390Y-81684904D02*
X98078819Y-81113476D01*
X98078819Y-81113476D02*
X98078819Y-81732523D01*
X97078819Y-82065857D02*
X97078819Y-82684904D01*
X97078819Y-82684904D02*
X97459771Y-82351571D01*
X97459771Y-82351571D02*
X97459771Y-82494428D01*
X97459771Y-82494428D02*
X97507390Y-82589666D01*
X97507390Y-82589666D02*
X97555009Y-82637285D01*
X97555009Y-82637285D02*
X97650247Y-82684904D01*
X97650247Y-82684904D02*
X97888342Y-82684904D01*
X97888342Y-82684904D02*
X97983580Y-82637285D01*
X97983580Y-82637285D02*
X98031200Y-82589666D01*
X98031200Y-82589666D02*
X98078819Y-82494428D01*
X98078819Y-82494428D02*
X98078819Y-82208714D01*
X98078819Y-82208714D02*
X98031200Y-82113476D01*
X98031200Y-82113476D02*
X97983580Y-82065857D01*
X101476057Y-89615261D02*
X101428438Y-89520023D01*
X101428438Y-89520023D02*
X101333200Y-89424785D01*
X101333200Y-89424785D02*
X101190342Y-89281928D01*
X101190342Y-89281928D02*
X101142723Y-89186690D01*
X101142723Y-89186690D02*
X101142723Y-89091452D01*
X101380819Y-89139071D02*
X101333200Y-89043833D01*
X101333200Y-89043833D02*
X101237961Y-88948595D01*
X101237961Y-88948595D02*
X101047485Y-88900976D01*
X101047485Y-88900976D02*
X100714152Y-88900976D01*
X100714152Y-88900976D02*
X100523676Y-88948595D01*
X100523676Y-88948595D02*
X100428438Y-89043833D01*
X100428438Y-89043833D02*
X100380819Y-89139071D01*
X100380819Y-89139071D02*
X100380819Y-89329547D01*
X100380819Y-89329547D02*
X100428438Y-89424785D01*
X100428438Y-89424785D02*
X100523676Y-89520023D01*
X100523676Y-89520023D02*
X100714152Y-89567642D01*
X100714152Y-89567642D02*
X101047485Y-89567642D01*
X101047485Y-89567642D02*
X101237961Y-89520023D01*
X101237961Y-89520023D02*
X101333200Y-89424785D01*
X101333200Y-89424785D02*
X101380819Y-89329547D01*
X101380819Y-89329547D02*
X101380819Y-89139071D01*
X100380819Y-89900976D02*
X100380819Y-90520023D01*
X100380819Y-90520023D02*
X100761771Y-90186690D01*
X100761771Y-90186690D02*
X100761771Y-90329547D01*
X100761771Y-90329547D02*
X100809390Y-90424785D01*
X100809390Y-90424785D02*
X100857009Y-90472404D01*
X100857009Y-90472404D02*
X100952247Y-90520023D01*
X100952247Y-90520023D02*
X101190342Y-90520023D01*
X101190342Y-90520023D02*
X101285580Y-90472404D01*
X101285580Y-90472404D02*
X101333200Y-90424785D01*
X101333200Y-90424785D02*
X101380819Y-90329547D01*
X101380819Y-90329547D02*
X101380819Y-90043833D01*
X101380819Y-90043833D02*
X101333200Y-89948595D01*
X101333200Y-89948595D02*
X101285580Y-89900976D01*
X64709580Y-125722142D02*
X64757200Y-125674523D01*
X64757200Y-125674523D02*
X64804819Y-125531666D01*
X64804819Y-125531666D02*
X64804819Y-125436428D01*
X64804819Y-125436428D02*
X64757200Y-125293571D01*
X64757200Y-125293571D02*
X64661961Y-125198333D01*
X64661961Y-125198333D02*
X64566723Y-125150714D01*
X64566723Y-125150714D02*
X64376247Y-125103095D01*
X64376247Y-125103095D02*
X64233390Y-125103095D01*
X64233390Y-125103095D02*
X64042914Y-125150714D01*
X64042914Y-125150714D02*
X63947676Y-125198333D01*
X63947676Y-125198333D02*
X63852438Y-125293571D01*
X63852438Y-125293571D02*
X63804819Y-125436428D01*
X63804819Y-125436428D02*
X63804819Y-125531666D01*
X63804819Y-125531666D02*
X63852438Y-125674523D01*
X63852438Y-125674523D02*
X63900057Y-125722142D01*
X64804819Y-126674523D02*
X64804819Y-126103095D01*
X64804819Y-126388809D02*
X63804819Y-126388809D01*
X63804819Y-126388809D02*
X63947676Y-126293571D01*
X63947676Y-126293571D02*
X64042914Y-126198333D01*
X64042914Y-126198333D02*
X64090533Y-126103095D01*
X63900057Y-127055476D02*
X63852438Y-127103095D01*
X63852438Y-127103095D02*
X63804819Y-127198333D01*
X63804819Y-127198333D02*
X63804819Y-127436428D01*
X63804819Y-127436428D02*
X63852438Y-127531666D01*
X63852438Y-127531666D02*
X63900057Y-127579285D01*
X63900057Y-127579285D02*
X63995295Y-127626904D01*
X63995295Y-127626904D02*
X64090533Y-127626904D01*
X64090533Y-127626904D02*
X64233390Y-127579285D01*
X64233390Y-127579285D02*
X64804819Y-127007857D01*
X64804819Y-127007857D02*
X64804819Y-127626904D01*
X50993580Y-125722142D02*
X51041200Y-125674523D01*
X51041200Y-125674523D02*
X51088819Y-125531666D01*
X51088819Y-125531666D02*
X51088819Y-125436428D01*
X51088819Y-125436428D02*
X51041200Y-125293571D01*
X51041200Y-125293571D02*
X50945961Y-125198333D01*
X50945961Y-125198333D02*
X50850723Y-125150714D01*
X50850723Y-125150714D02*
X50660247Y-125103095D01*
X50660247Y-125103095D02*
X50517390Y-125103095D01*
X50517390Y-125103095D02*
X50326914Y-125150714D01*
X50326914Y-125150714D02*
X50231676Y-125198333D01*
X50231676Y-125198333D02*
X50136438Y-125293571D01*
X50136438Y-125293571D02*
X50088819Y-125436428D01*
X50088819Y-125436428D02*
X50088819Y-125531666D01*
X50088819Y-125531666D02*
X50136438Y-125674523D01*
X50136438Y-125674523D02*
X50184057Y-125722142D01*
X51088819Y-126674523D02*
X51088819Y-126103095D01*
X51088819Y-126388809D02*
X50088819Y-126388809D01*
X50088819Y-126388809D02*
X50231676Y-126293571D01*
X50231676Y-126293571D02*
X50326914Y-126198333D01*
X50326914Y-126198333D02*
X50374533Y-126103095D01*
X50422152Y-127531666D02*
X51088819Y-127531666D01*
X50041200Y-127293571D02*
X50755485Y-127055476D01*
X50755485Y-127055476D02*
X50755485Y-127674523D01*
X78994666Y-126851580D02*
X79042285Y-126899200D01*
X79042285Y-126899200D02*
X79185142Y-126946819D01*
X79185142Y-126946819D02*
X79280380Y-126946819D01*
X79280380Y-126946819D02*
X79423237Y-126899200D01*
X79423237Y-126899200D02*
X79518475Y-126803961D01*
X79518475Y-126803961D02*
X79566094Y-126708723D01*
X79566094Y-126708723D02*
X79613713Y-126518247D01*
X79613713Y-126518247D02*
X79613713Y-126375390D01*
X79613713Y-126375390D02*
X79566094Y-126184914D01*
X79566094Y-126184914D02*
X79518475Y-126089676D01*
X79518475Y-126089676D02*
X79423237Y-125994438D01*
X79423237Y-125994438D02*
X79280380Y-125946819D01*
X79280380Y-125946819D02*
X79185142Y-125946819D01*
X79185142Y-125946819D02*
X79042285Y-125994438D01*
X79042285Y-125994438D02*
X78994666Y-126042057D01*
X78089904Y-125946819D02*
X78566094Y-125946819D01*
X78566094Y-125946819D02*
X78613713Y-126423009D01*
X78613713Y-126423009D02*
X78566094Y-126375390D01*
X78566094Y-126375390D02*
X78470856Y-126327771D01*
X78470856Y-126327771D02*
X78232761Y-126327771D01*
X78232761Y-126327771D02*
X78137523Y-126375390D01*
X78137523Y-126375390D02*
X78089904Y-126423009D01*
X78089904Y-126423009D02*
X78042285Y-126518247D01*
X78042285Y-126518247D02*
X78042285Y-126756342D01*
X78042285Y-126756342D02*
X78089904Y-126851580D01*
X78089904Y-126851580D02*
X78137523Y-126899200D01*
X78137523Y-126899200D02*
X78232761Y-126946819D01*
X78232761Y-126946819D02*
X78470856Y-126946819D01*
X78470856Y-126946819D02*
X78566094Y-126899200D01*
X78566094Y-126899200D02*
X78613713Y-126851580D01*
X53279580Y-125722142D02*
X53327200Y-125674523D01*
X53327200Y-125674523D02*
X53374819Y-125531666D01*
X53374819Y-125531666D02*
X53374819Y-125436428D01*
X53374819Y-125436428D02*
X53327200Y-125293571D01*
X53327200Y-125293571D02*
X53231961Y-125198333D01*
X53231961Y-125198333D02*
X53136723Y-125150714D01*
X53136723Y-125150714D02*
X52946247Y-125103095D01*
X52946247Y-125103095D02*
X52803390Y-125103095D01*
X52803390Y-125103095D02*
X52612914Y-125150714D01*
X52612914Y-125150714D02*
X52517676Y-125198333D01*
X52517676Y-125198333D02*
X52422438Y-125293571D01*
X52422438Y-125293571D02*
X52374819Y-125436428D01*
X52374819Y-125436428D02*
X52374819Y-125531666D01*
X52374819Y-125531666D02*
X52422438Y-125674523D01*
X52422438Y-125674523D02*
X52470057Y-125722142D01*
X53374819Y-126674523D02*
X53374819Y-126103095D01*
X53374819Y-126388809D02*
X52374819Y-126388809D01*
X52374819Y-126388809D02*
X52517676Y-126293571D01*
X52517676Y-126293571D02*
X52612914Y-126198333D01*
X52612914Y-126198333D02*
X52660533Y-126103095D01*
X53374819Y-127626904D02*
X53374819Y-127055476D01*
X53374819Y-127341190D02*
X52374819Y-127341190D01*
X52374819Y-127341190D02*
X52517676Y-127245952D01*
X52517676Y-127245952D02*
X52612914Y-127150714D01*
X52612914Y-127150714D02*
X52660533Y-127055476D01*
X95888057Y-89518261D02*
X95840438Y-89423023D01*
X95840438Y-89423023D02*
X95745200Y-89327785D01*
X95745200Y-89327785D02*
X95602342Y-89184928D01*
X95602342Y-89184928D02*
X95554723Y-89089690D01*
X95554723Y-89089690D02*
X95554723Y-88994452D01*
X95792819Y-89042071D02*
X95745200Y-88946833D01*
X95745200Y-88946833D02*
X95649961Y-88851595D01*
X95649961Y-88851595D02*
X95459485Y-88803976D01*
X95459485Y-88803976D02*
X95126152Y-88803976D01*
X95126152Y-88803976D02*
X94935676Y-88851595D01*
X94935676Y-88851595D02*
X94840438Y-88946833D01*
X94840438Y-88946833D02*
X94792819Y-89042071D01*
X94792819Y-89042071D02*
X94792819Y-89232547D01*
X94792819Y-89232547D02*
X94840438Y-89327785D01*
X94840438Y-89327785D02*
X94935676Y-89423023D01*
X94935676Y-89423023D02*
X95126152Y-89470642D01*
X95126152Y-89470642D02*
X95459485Y-89470642D01*
X95459485Y-89470642D02*
X95649961Y-89423023D01*
X95649961Y-89423023D02*
X95745200Y-89327785D01*
X95745200Y-89327785D02*
X95792819Y-89232547D01*
X95792819Y-89232547D02*
X95792819Y-89042071D01*
X94888057Y-89851595D02*
X94840438Y-89899214D01*
X94840438Y-89899214D02*
X94792819Y-89994452D01*
X94792819Y-89994452D02*
X94792819Y-90232547D01*
X94792819Y-90232547D02*
X94840438Y-90327785D01*
X94840438Y-90327785D02*
X94888057Y-90375404D01*
X94888057Y-90375404D02*
X94983295Y-90423023D01*
X94983295Y-90423023D02*
X95078533Y-90423023D01*
X95078533Y-90423023D02*
X95221390Y-90375404D01*
X95221390Y-90375404D02*
X95792819Y-89803976D01*
X95792819Y-89803976D02*
X95792819Y-90423023D01*
X60137580Y-125722142D02*
X60185200Y-125674523D01*
X60185200Y-125674523D02*
X60232819Y-125531666D01*
X60232819Y-125531666D02*
X60232819Y-125436428D01*
X60232819Y-125436428D02*
X60185200Y-125293571D01*
X60185200Y-125293571D02*
X60089961Y-125198333D01*
X60089961Y-125198333D02*
X59994723Y-125150714D01*
X59994723Y-125150714D02*
X59804247Y-125103095D01*
X59804247Y-125103095D02*
X59661390Y-125103095D01*
X59661390Y-125103095D02*
X59470914Y-125150714D01*
X59470914Y-125150714D02*
X59375676Y-125198333D01*
X59375676Y-125198333D02*
X59280438Y-125293571D01*
X59280438Y-125293571D02*
X59232819Y-125436428D01*
X59232819Y-125436428D02*
X59232819Y-125531666D01*
X59232819Y-125531666D02*
X59280438Y-125674523D01*
X59280438Y-125674523D02*
X59328057Y-125722142D01*
X60232819Y-126674523D02*
X60232819Y-126103095D01*
X60232819Y-126388809D02*
X59232819Y-126388809D01*
X59232819Y-126388809D02*
X59375676Y-126293571D01*
X59375676Y-126293571D02*
X59470914Y-126198333D01*
X59470914Y-126198333D02*
X59518533Y-126103095D01*
X59232819Y-127007857D02*
X59232819Y-127674523D01*
X59232819Y-127674523D02*
X60232819Y-127245952D01*
X62423580Y-125722142D02*
X62471200Y-125674523D01*
X62471200Y-125674523D02*
X62518819Y-125531666D01*
X62518819Y-125531666D02*
X62518819Y-125436428D01*
X62518819Y-125436428D02*
X62471200Y-125293571D01*
X62471200Y-125293571D02*
X62375961Y-125198333D01*
X62375961Y-125198333D02*
X62280723Y-125150714D01*
X62280723Y-125150714D02*
X62090247Y-125103095D01*
X62090247Y-125103095D02*
X61947390Y-125103095D01*
X61947390Y-125103095D02*
X61756914Y-125150714D01*
X61756914Y-125150714D02*
X61661676Y-125198333D01*
X61661676Y-125198333D02*
X61566438Y-125293571D01*
X61566438Y-125293571D02*
X61518819Y-125436428D01*
X61518819Y-125436428D02*
X61518819Y-125531666D01*
X61518819Y-125531666D02*
X61566438Y-125674523D01*
X61566438Y-125674523D02*
X61614057Y-125722142D01*
X62518819Y-126674523D02*
X62518819Y-126103095D01*
X62518819Y-126388809D02*
X61518819Y-126388809D01*
X61518819Y-126388809D02*
X61661676Y-126293571D01*
X61661676Y-126293571D02*
X61756914Y-126198333D01*
X61756914Y-126198333D02*
X61804533Y-126103095D01*
X61518819Y-127007857D02*
X61518819Y-127626904D01*
X61518819Y-127626904D02*
X61899771Y-127293571D01*
X61899771Y-127293571D02*
X61899771Y-127436428D01*
X61899771Y-127436428D02*
X61947390Y-127531666D01*
X61947390Y-127531666D02*
X61995009Y-127579285D01*
X61995009Y-127579285D02*
X62090247Y-127626904D01*
X62090247Y-127626904D02*
X62328342Y-127626904D01*
X62328342Y-127626904D02*
X62423580Y-127579285D01*
X62423580Y-127579285D02*
X62471200Y-127531666D01*
X62471200Y-127531666D02*
X62518819Y-127436428D01*
X62518819Y-127436428D02*
X62518819Y-127150714D01*
X62518819Y-127150714D02*
X62471200Y-127055476D01*
X62471200Y-127055476D02*
X62423580Y-127007857D01*
X95284819Y-80764142D02*
X94808628Y-80430809D01*
X95284819Y-80192714D02*
X94284819Y-80192714D01*
X94284819Y-80192714D02*
X94284819Y-80573666D01*
X94284819Y-80573666D02*
X94332438Y-80668904D01*
X94332438Y-80668904D02*
X94380057Y-80716523D01*
X94380057Y-80716523D02*
X94475295Y-80764142D01*
X94475295Y-80764142D02*
X94618152Y-80764142D01*
X94618152Y-80764142D02*
X94713390Y-80716523D01*
X94713390Y-80716523D02*
X94761009Y-80668904D01*
X94761009Y-80668904D02*
X94808628Y-80573666D01*
X94808628Y-80573666D02*
X94808628Y-80192714D01*
X94380057Y-81145095D02*
X94332438Y-81192714D01*
X94332438Y-81192714D02*
X94284819Y-81287952D01*
X94284819Y-81287952D02*
X94284819Y-81526047D01*
X94284819Y-81526047D02*
X94332438Y-81621285D01*
X94332438Y-81621285D02*
X94380057Y-81668904D01*
X94380057Y-81668904D02*
X94475295Y-81716523D01*
X94475295Y-81716523D02*
X94570533Y-81716523D01*
X94570533Y-81716523D02*
X94713390Y-81668904D01*
X94713390Y-81668904D02*
X95284819Y-81097476D01*
X95284819Y-81097476D02*
X95284819Y-81716523D01*
X94380057Y-82097476D02*
X94332438Y-82145095D01*
X94332438Y-82145095D02*
X94284819Y-82240333D01*
X94284819Y-82240333D02*
X94284819Y-82478428D01*
X94284819Y-82478428D02*
X94332438Y-82573666D01*
X94332438Y-82573666D02*
X94380057Y-82621285D01*
X94380057Y-82621285D02*
X94475295Y-82668904D01*
X94475295Y-82668904D02*
X94570533Y-82668904D01*
X94570533Y-82668904D02*
X94713390Y-82621285D01*
X94713390Y-82621285D02*
X95284819Y-82049857D01*
X95284819Y-82049857D02*
X95284819Y-82668904D01*
X62280819Y-114736666D02*
X62995104Y-114736666D01*
X62995104Y-114736666D02*
X63137961Y-114689047D01*
X63137961Y-114689047D02*
X63233200Y-114593809D01*
X63233200Y-114593809D02*
X63280819Y-114450952D01*
X63280819Y-114450952D02*
X63280819Y-114355714D01*
X63280819Y-115212857D02*
X62280819Y-115212857D01*
X62280819Y-115212857D02*
X62280819Y-115593809D01*
X62280819Y-115593809D02*
X62328438Y-115689047D01*
X62328438Y-115689047D02*
X62376057Y-115736666D01*
X62376057Y-115736666D02*
X62471295Y-115784285D01*
X62471295Y-115784285D02*
X62614152Y-115784285D01*
X62614152Y-115784285D02*
X62709390Y-115736666D01*
X62709390Y-115736666D02*
X62757009Y-115689047D01*
X62757009Y-115689047D02*
X62804628Y-115593809D01*
X62804628Y-115593809D02*
X62804628Y-115212857D01*
X62376057Y-116165238D02*
X62328438Y-116212857D01*
X62328438Y-116212857D02*
X62280819Y-116308095D01*
X62280819Y-116308095D02*
X62280819Y-116546190D01*
X62280819Y-116546190D02*
X62328438Y-116641428D01*
X62328438Y-116641428D02*
X62376057Y-116689047D01*
X62376057Y-116689047D02*
X62471295Y-116736666D01*
X62471295Y-116736666D02*
X62566533Y-116736666D01*
X62566533Y-116736666D02*
X62709390Y-116689047D01*
X62709390Y-116689047D02*
X63280819Y-116117619D01*
X63280819Y-116117619D02*
X63280819Y-116736666D01*
X79439094Y-117167819D02*
X79439094Y-116167819D01*
X79439094Y-116167819D02*
X79200999Y-116167819D01*
X79200999Y-116167819D02*
X79058142Y-116215438D01*
X79058142Y-116215438D02*
X78962904Y-116310676D01*
X78962904Y-116310676D02*
X78915285Y-116405914D01*
X78915285Y-116405914D02*
X78867666Y-116596390D01*
X78867666Y-116596390D02*
X78867666Y-116739247D01*
X78867666Y-116739247D02*
X78915285Y-116929723D01*
X78915285Y-116929723D02*
X78962904Y-117024961D01*
X78962904Y-117024961D02*
X79058142Y-117120200D01*
X79058142Y-117120200D02*
X79200999Y-117167819D01*
X79200999Y-117167819D02*
X79439094Y-117167819D01*
X77915285Y-117167819D02*
X78486713Y-117167819D01*
X78200999Y-117167819D02*
X78200999Y-116167819D01*
X78200999Y-116167819D02*
X78296237Y-116310676D01*
X78296237Y-116310676D02*
X78391475Y-116405914D01*
X78391475Y-116405914D02*
X78486713Y-116453533D01*
X99280857Y-123480819D02*
X99614190Y-123004628D01*
X99852285Y-123480819D02*
X99852285Y-122480819D01*
X99852285Y-122480819D02*
X99471333Y-122480819D01*
X99471333Y-122480819D02*
X99376095Y-122528438D01*
X99376095Y-122528438D02*
X99328476Y-122576057D01*
X99328476Y-122576057D02*
X99280857Y-122671295D01*
X99280857Y-122671295D02*
X99280857Y-122814152D01*
X99280857Y-122814152D02*
X99328476Y-122909390D01*
X99328476Y-122909390D02*
X99376095Y-122957009D01*
X99376095Y-122957009D02*
X99471333Y-123004628D01*
X99471333Y-123004628D02*
X99852285Y-123004628D01*
X98899904Y-122576057D02*
X98852285Y-122528438D01*
X98852285Y-122528438D02*
X98757047Y-122480819D01*
X98757047Y-122480819D02*
X98518952Y-122480819D01*
X98518952Y-122480819D02*
X98423714Y-122528438D01*
X98423714Y-122528438D02*
X98376095Y-122576057D01*
X98376095Y-122576057D02*
X98328476Y-122671295D01*
X98328476Y-122671295D02*
X98328476Y-122766533D01*
X98328476Y-122766533D02*
X98376095Y-122909390D01*
X98376095Y-122909390D02*
X98947523Y-123480819D01*
X98947523Y-123480819D02*
X98328476Y-123480819D01*
X97423714Y-122480819D02*
X97899904Y-122480819D01*
X97899904Y-122480819D02*
X97947523Y-122957009D01*
X97947523Y-122957009D02*
X97899904Y-122909390D01*
X97899904Y-122909390D02*
X97804666Y-122861771D01*
X97804666Y-122861771D02*
X97566571Y-122861771D01*
X97566571Y-122861771D02*
X97471333Y-122909390D01*
X97471333Y-122909390D02*
X97423714Y-122957009D01*
X97423714Y-122957009D02*
X97376095Y-123052247D01*
X97376095Y-123052247D02*
X97376095Y-123290342D01*
X97376095Y-123290342D02*
X97423714Y-123385580D01*
X97423714Y-123385580D02*
X97471333Y-123433200D01*
X97471333Y-123433200D02*
X97566571Y-123480819D01*
X97566571Y-123480819D02*
X97804666Y-123480819D01*
X97804666Y-123480819D02*
X97899904Y-123433200D01*
X97899904Y-123433200D02*
X97947523Y-123385580D01*
X50866580Y-136082833D02*
X50914200Y-136035214D01*
X50914200Y-136035214D02*
X50961819Y-135892357D01*
X50961819Y-135892357D02*
X50961819Y-135797119D01*
X50961819Y-135797119D02*
X50914200Y-135654262D01*
X50914200Y-135654262D02*
X50818961Y-135559024D01*
X50818961Y-135559024D02*
X50723723Y-135511405D01*
X50723723Y-135511405D02*
X50533247Y-135463786D01*
X50533247Y-135463786D02*
X50390390Y-135463786D01*
X50390390Y-135463786D02*
X50199914Y-135511405D01*
X50199914Y-135511405D02*
X50104676Y-135559024D01*
X50104676Y-135559024D02*
X50009438Y-135654262D01*
X50009438Y-135654262D02*
X49961819Y-135797119D01*
X49961819Y-135797119D02*
X49961819Y-135892357D01*
X49961819Y-135892357D02*
X50009438Y-136035214D01*
X50009438Y-136035214D02*
X50057057Y-136082833D01*
X49961819Y-136416167D02*
X49961819Y-137082833D01*
X49961819Y-137082833D02*
X50961819Y-136654262D01*
X53279580Y-136093142D02*
X53327200Y-136045523D01*
X53327200Y-136045523D02*
X53374819Y-135902666D01*
X53374819Y-135902666D02*
X53374819Y-135807428D01*
X53374819Y-135807428D02*
X53327200Y-135664571D01*
X53327200Y-135664571D02*
X53231961Y-135569333D01*
X53231961Y-135569333D02*
X53136723Y-135521714D01*
X53136723Y-135521714D02*
X52946247Y-135474095D01*
X52946247Y-135474095D02*
X52803390Y-135474095D01*
X52803390Y-135474095D02*
X52612914Y-135521714D01*
X52612914Y-135521714D02*
X52517676Y-135569333D01*
X52517676Y-135569333D02*
X52422438Y-135664571D01*
X52422438Y-135664571D02*
X52374819Y-135807428D01*
X52374819Y-135807428D02*
X52374819Y-135902666D01*
X52374819Y-135902666D02*
X52422438Y-136045523D01*
X52422438Y-136045523D02*
X52470057Y-136093142D01*
X53374819Y-137045523D02*
X53374819Y-136474095D01*
X53374819Y-136759809D02*
X52374819Y-136759809D01*
X52374819Y-136759809D02*
X52517676Y-136664571D01*
X52517676Y-136664571D02*
X52612914Y-136569333D01*
X52612914Y-136569333D02*
X52660533Y-136474095D01*
X52374819Y-137664571D02*
X52374819Y-137759809D01*
X52374819Y-137759809D02*
X52422438Y-137855047D01*
X52422438Y-137855047D02*
X52470057Y-137902666D01*
X52470057Y-137902666D02*
X52565295Y-137950285D01*
X52565295Y-137950285D02*
X52755771Y-137997904D01*
X52755771Y-137997904D02*
X52993866Y-137997904D01*
X52993866Y-137997904D02*
X53184342Y-137950285D01*
X53184342Y-137950285D02*
X53279580Y-137902666D01*
X53279580Y-137902666D02*
X53327200Y-137855047D01*
X53327200Y-137855047D02*
X53374819Y-137759809D01*
X53374819Y-137759809D02*
X53374819Y-137664571D01*
X53374819Y-137664571D02*
X53327200Y-137569333D01*
X53327200Y-137569333D02*
X53279580Y-137521714D01*
X53279580Y-137521714D02*
X53184342Y-137474095D01*
X53184342Y-137474095D02*
X52993866Y-137426476D01*
X52993866Y-137426476D02*
X52755771Y-137426476D01*
X52755771Y-137426476D02*
X52565295Y-137474095D01*
X52565295Y-137474095D02*
X52470057Y-137521714D01*
X52470057Y-137521714D02*
X52422438Y-137569333D01*
X52422438Y-137569333D02*
X52374819Y-137664571D01*
X55565580Y-125722142D02*
X55613200Y-125674523D01*
X55613200Y-125674523D02*
X55660819Y-125531666D01*
X55660819Y-125531666D02*
X55660819Y-125436428D01*
X55660819Y-125436428D02*
X55613200Y-125293571D01*
X55613200Y-125293571D02*
X55517961Y-125198333D01*
X55517961Y-125198333D02*
X55422723Y-125150714D01*
X55422723Y-125150714D02*
X55232247Y-125103095D01*
X55232247Y-125103095D02*
X55089390Y-125103095D01*
X55089390Y-125103095D02*
X54898914Y-125150714D01*
X54898914Y-125150714D02*
X54803676Y-125198333D01*
X54803676Y-125198333D02*
X54708438Y-125293571D01*
X54708438Y-125293571D02*
X54660819Y-125436428D01*
X54660819Y-125436428D02*
X54660819Y-125531666D01*
X54660819Y-125531666D02*
X54708438Y-125674523D01*
X54708438Y-125674523D02*
X54756057Y-125722142D01*
X55660819Y-126674523D02*
X55660819Y-126103095D01*
X55660819Y-126388809D02*
X54660819Y-126388809D01*
X54660819Y-126388809D02*
X54803676Y-126293571D01*
X54803676Y-126293571D02*
X54898914Y-126198333D01*
X54898914Y-126198333D02*
X54946533Y-126103095D01*
X54660819Y-127579285D02*
X54660819Y-127103095D01*
X54660819Y-127103095D02*
X55137009Y-127055476D01*
X55137009Y-127055476D02*
X55089390Y-127103095D01*
X55089390Y-127103095D02*
X55041771Y-127198333D01*
X55041771Y-127198333D02*
X55041771Y-127436428D01*
X55041771Y-127436428D02*
X55089390Y-127531666D01*
X55089390Y-127531666D02*
X55137009Y-127579285D01*
X55137009Y-127579285D02*
X55232247Y-127626904D01*
X55232247Y-127626904D02*
X55470342Y-127626904D01*
X55470342Y-127626904D02*
X55565580Y-127579285D01*
X55565580Y-127579285D02*
X55613200Y-127531666D01*
X55613200Y-127531666D02*
X55660819Y-127436428D01*
X55660819Y-127436428D02*
X55660819Y-127198333D01*
X55660819Y-127198333D02*
X55613200Y-127103095D01*
X55613200Y-127103095D02*
X55565580Y-127055476D01*
X58597819Y-114482666D02*
X59312104Y-114482666D01*
X59312104Y-114482666D02*
X59454961Y-114435047D01*
X59454961Y-114435047D02*
X59550200Y-114339809D01*
X59550200Y-114339809D02*
X59597819Y-114196952D01*
X59597819Y-114196952D02*
X59597819Y-114101714D01*
X59597819Y-114958857D02*
X58597819Y-114958857D01*
X58597819Y-114958857D02*
X58597819Y-115339809D01*
X58597819Y-115339809D02*
X58645438Y-115435047D01*
X58645438Y-115435047D02*
X58693057Y-115482666D01*
X58693057Y-115482666D02*
X58788295Y-115530285D01*
X58788295Y-115530285D02*
X58931152Y-115530285D01*
X58931152Y-115530285D02*
X59026390Y-115482666D01*
X59026390Y-115482666D02*
X59074009Y-115435047D01*
X59074009Y-115435047D02*
X59121628Y-115339809D01*
X59121628Y-115339809D02*
X59121628Y-114958857D01*
X58597819Y-115863619D02*
X58597819Y-116482666D01*
X58597819Y-116482666D02*
X58978771Y-116149333D01*
X58978771Y-116149333D02*
X58978771Y-116292190D01*
X58978771Y-116292190D02*
X59026390Y-116387428D01*
X59026390Y-116387428D02*
X59074009Y-116435047D01*
X59074009Y-116435047D02*
X59169247Y-116482666D01*
X59169247Y-116482666D02*
X59407342Y-116482666D01*
X59407342Y-116482666D02*
X59502580Y-116435047D01*
X59502580Y-116435047D02*
X59550200Y-116387428D01*
X59550200Y-116387428D02*
X59597819Y-116292190D01*
X59597819Y-116292190D02*
X59597819Y-116006476D01*
X59597819Y-116006476D02*
X59550200Y-115911238D01*
X59550200Y-115911238D02*
X59502580Y-115863619D01*
X100867325Y-80756220D02*
X100391134Y-80422887D01*
X100867325Y-80184792D02*
X99867325Y-80184792D01*
X99867325Y-80184792D02*
X99867325Y-80565744D01*
X99867325Y-80565744D02*
X99914944Y-80660982D01*
X99914944Y-80660982D02*
X99962563Y-80708601D01*
X99962563Y-80708601D02*
X100057801Y-80756220D01*
X100057801Y-80756220D02*
X100200658Y-80756220D01*
X100200658Y-80756220D02*
X100295896Y-80708601D01*
X100295896Y-80708601D02*
X100343515Y-80660982D01*
X100343515Y-80660982D02*
X100391134Y-80565744D01*
X100391134Y-80565744D02*
X100391134Y-80184792D01*
X99962563Y-81137173D02*
X99914944Y-81184792D01*
X99914944Y-81184792D02*
X99867325Y-81280030D01*
X99867325Y-81280030D02*
X99867325Y-81518125D01*
X99867325Y-81518125D02*
X99914944Y-81613363D01*
X99914944Y-81613363D02*
X99962563Y-81660982D01*
X99962563Y-81660982D02*
X100057801Y-81708601D01*
X100057801Y-81708601D02*
X100153039Y-81708601D01*
X100153039Y-81708601D02*
X100295896Y-81660982D01*
X100295896Y-81660982D02*
X100867325Y-81089554D01*
X100867325Y-81089554D02*
X100867325Y-81708601D01*
X100867325Y-82660982D02*
X100867325Y-82089554D01*
X100867325Y-82375268D02*
X99867325Y-82375268D01*
X99867325Y-82375268D02*
X100010182Y-82280030D01*
X100010182Y-82280030D02*
X100105420Y-82184792D01*
X100105420Y-82184792D02*
X100153039Y-82089554D01*
X89950819Y-86606142D02*
X89474628Y-86272809D01*
X89950819Y-86034714D02*
X88950819Y-86034714D01*
X88950819Y-86034714D02*
X88950819Y-86415666D01*
X88950819Y-86415666D02*
X88998438Y-86510904D01*
X88998438Y-86510904D02*
X89046057Y-86558523D01*
X89046057Y-86558523D02*
X89141295Y-86606142D01*
X89141295Y-86606142D02*
X89284152Y-86606142D01*
X89284152Y-86606142D02*
X89379390Y-86558523D01*
X89379390Y-86558523D02*
X89427009Y-86510904D01*
X89427009Y-86510904D02*
X89474628Y-86415666D01*
X89474628Y-86415666D02*
X89474628Y-86034714D01*
X89046057Y-86987095D02*
X88998438Y-87034714D01*
X88998438Y-87034714D02*
X88950819Y-87129952D01*
X88950819Y-87129952D02*
X88950819Y-87368047D01*
X88950819Y-87368047D02*
X88998438Y-87463285D01*
X88998438Y-87463285D02*
X89046057Y-87510904D01*
X89046057Y-87510904D02*
X89141295Y-87558523D01*
X89141295Y-87558523D02*
X89236533Y-87558523D01*
X89236533Y-87558523D02*
X89379390Y-87510904D01*
X89379390Y-87510904D02*
X89950819Y-86939476D01*
X89950819Y-86939476D02*
X89950819Y-87558523D01*
X88950819Y-88177571D02*
X88950819Y-88272809D01*
X88950819Y-88272809D02*
X88998438Y-88368047D01*
X88998438Y-88368047D02*
X89046057Y-88415666D01*
X89046057Y-88415666D02*
X89141295Y-88463285D01*
X89141295Y-88463285D02*
X89331771Y-88510904D01*
X89331771Y-88510904D02*
X89569866Y-88510904D01*
X89569866Y-88510904D02*
X89760342Y-88463285D01*
X89760342Y-88463285D02*
X89855580Y-88415666D01*
X89855580Y-88415666D02*
X89903200Y-88368047D01*
X89903200Y-88368047D02*
X89950819Y-88272809D01*
X89950819Y-88272809D02*
X89950819Y-88177571D01*
X89950819Y-88177571D02*
X89903200Y-88082333D01*
X89903200Y-88082333D02*
X89855580Y-88034714D01*
X89855580Y-88034714D02*
X89760342Y-87987095D01*
X89760342Y-87987095D02*
X89569866Y-87939476D01*
X89569866Y-87939476D02*
X89331771Y-87939476D01*
X89331771Y-87939476D02*
X89141295Y-87987095D01*
X89141295Y-87987095D02*
X89046057Y-88034714D01*
X89046057Y-88034714D02*
X88998438Y-88082333D01*
X88998438Y-88082333D02*
X88950819Y-88177571D01*
X57851580Y-125722142D02*
X57899200Y-125674523D01*
X57899200Y-125674523D02*
X57946819Y-125531666D01*
X57946819Y-125531666D02*
X57946819Y-125436428D01*
X57946819Y-125436428D02*
X57899200Y-125293571D01*
X57899200Y-125293571D02*
X57803961Y-125198333D01*
X57803961Y-125198333D02*
X57708723Y-125150714D01*
X57708723Y-125150714D02*
X57518247Y-125103095D01*
X57518247Y-125103095D02*
X57375390Y-125103095D01*
X57375390Y-125103095D02*
X57184914Y-125150714D01*
X57184914Y-125150714D02*
X57089676Y-125198333D01*
X57089676Y-125198333D02*
X56994438Y-125293571D01*
X56994438Y-125293571D02*
X56946819Y-125436428D01*
X56946819Y-125436428D02*
X56946819Y-125531666D01*
X56946819Y-125531666D02*
X56994438Y-125674523D01*
X56994438Y-125674523D02*
X57042057Y-125722142D01*
X57946819Y-126674523D02*
X57946819Y-126103095D01*
X57946819Y-126388809D02*
X56946819Y-126388809D01*
X56946819Y-126388809D02*
X57089676Y-126293571D01*
X57089676Y-126293571D02*
X57184914Y-126198333D01*
X57184914Y-126198333D02*
X57232533Y-126103095D01*
X57375390Y-127245952D02*
X57327771Y-127150714D01*
X57327771Y-127150714D02*
X57280152Y-127103095D01*
X57280152Y-127103095D02*
X57184914Y-127055476D01*
X57184914Y-127055476D02*
X57137295Y-127055476D01*
X57137295Y-127055476D02*
X57042057Y-127103095D01*
X57042057Y-127103095D02*
X56994438Y-127150714D01*
X56994438Y-127150714D02*
X56946819Y-127245952D01*
X56946819Y-127245952D02*
X56946819Y-127436428D01*
X56946819Y-127436428D02*
X56994438Y-127531666D01*
X56994438Y-127531666D02*
X57042057Y-127579285D01*
X57042057Y-127579285D02*
X57137295Y-127626904D01*
X57137295Y-127626904D02*
X57184914Y-127626904D01*
X57184914Y-127626904D02*
X57280152Y-127579285D01*
X57280152Y-127579285D02*
X57327771Y-127531666D01*
X57327771Y-127531666D02*
X57375390Y-127436428D01*
X57375390Y-127436428D02*
X57375390Y-127245952D01*
X57375390Y-127245952D02*
X57423009Y-127150714D01*
X57423009Y-127150714D02*
X57470628Y-127103095D01*
X57470628Y-127103095D02*
X57565866Y-127055476D01*
X57565866Y-127055476D02*
X57756342Y-127055476D01*
X57756342Y-127055476D02*
X57851580Y-127103095D01*
X57851580Y-127103095D02*
X57899200Y-127150714D01*
X57899200Y-127150714D02*
X57946819Y-127245952D01*
X57946819Y-127245952D02*
X57946819Y-127436428D01*
X57946819Y-127436428D02*
X57899200Y-127531666D01*
X57899200Y-127531666D02*
X57851580Y-127579285D01*
X57851580Y-127579285D02*
X57756342Y-127626904D01*
X57756342Y-127626904D02*
X57565866Y-127626904D01*
X57565866Y-127626904D02*
X57470628Y-127579285D01*
X57470628Y-127579285D02*
X57423009Y-127531666D01*
X57423009Y-127531666D02*
X57375390Y-127436428D01*
X65709819Y-114736666D02*
X66424104Y-114736666D01*
X66424104Y-114736666D02*
X66566961Y-114689047D01*
X66566961Y-114689047D02*
X66662200Y-114593809D01*
X66662200Y-114593809D02*
X66709819Y-114450952D01*
X66709819Y-114450952D02*
X66709819Y-114355714D01*
X66709819Y-115212857D02*
X65709819Y-115212857D01*
X65709819Y-115212857D02*
X65709819Y-115593809D01*
X65709819Y-115593809D02*
X65757438Y-115689047D01*
X65757438Y-115689047D02*
X65805057Y-115736666D01*
X65805057Y-115736666D02*
X65900295Y-115784285D01*
X65900295Y-115784285D02*
X66043152Y-115784285D01*
X66043152Y-115784285D02*
X66138390Y-115736666D01*
X66138390Y-115736666D02*
X66186009Y-115689047D01*
X66186009Y-115689047D02*
X66233628Y-115593809D01*
X66233628Y-115593809D02*
X66233628Y-115212857D01*
X66709819Y-116736666D02*
X66709819Y-116165238D01*
X66709819Y-116450952D02*
X65709819Y-116450952D01*
X65709819Y-116450952D02*
X65852676Y-116355714D01*
X65852676Y-116355714D02*
X65947914Y-116260476D01*
X65947914Y-116260476D02*
X65995533Y-116165238D01*
X115022904Y-133229819D02*
X115022904Y-134039342D01*
X115022904Y-134039342D02*
X114975285Y-134134580D01*
X114975285Y-134134580D02*
X114927666Y-134182200D01*
X114927666Y-134182200D02*
X114832428Y-134229819D01*
X114832428Y-134229819D02*
X114641952Y-134229819D01*
X114641952Y-134229819D02*
X114546714Y-134182200D01*
X114546714Y-134182200D02*
X114499095Y-134134580D01*
X114499095Y-134134580D02*
X114451476Y-134039342D01*
X114451476Y-134039342D02*
X114451476Y-133229819D01*
X113546714Y-133563152D02*
X113546714Y-134229819D01*
X113784809Y-133182200D02*
X114022904Y-133896485D01*
X114022904Y-133896485D02*
X113403857Y-133896485D01*
X56946819Y-114609666D02*
X57661104Y-114609666D01*
X57661104Y-114609666D02*
X57803961Y-114562047D01*
X57803961Y-114562047D02*
X57899200Y-114466809D01*
X57899200Y-114466809D02*
X57946819Y-114323952D01*
X57946819Y-114323952D02*
X57946819Y-114228714D01*
X57946819Y-115085857D02*
X56946819Y-115085857D01*
X56946819Y-115085857D02*
X56946819Y-115466809D01*
X56946819Y-115466809D02*
X56994438Y-115562047D01*
X56994438Y-115562047D02*
X57042057Y-115609666D01*
X57042057Y-115609666D02*
X57137295Y-115657285D01*
X57137295Y-115657285D02*
X57280152Y-115657285D01*
X57280152Y-115657285D02*
X57375390Y-115609666D01*
X57375390Y-115609666D02*
X57423009Y-115562047D01*
X57423009Y-115562047D02*
X57470628Y-115466809D01*
X57470628Y-115466809D02*
X57470628Y-115085857D01*
X57280152Y-116514428D02*
X57946819Y-116514428D01*
X56899200Y-116276333D02*
X57613485Y-116038238D01*
X57613485Y-116038238D02*
X57613485Y-116657285D01*
%TO.C,R23*%
D12*
X96889000Y-84952064D02*
X96889000Y-84497936D01*
X98359000Y-84952064D02*
X98359000Y-84497936D01*
%TO.C,Q3*%
X97014000Y-88950500D02*
X97014000Y-90470500D01*
X97014000Y-90470500D02*
X98014000Y-90470500D01*
X97064000Y-88950500D02*
X97014000Y-88950500D01*
X98964000Y-88950500D02*
X98184000Y-88950500D01*
X99134000Y-90470500D02*
X100134000Y-90470500D01*
X100134000Y-88950500D02*
X100084000Y-88950500D01*
X100134000Y-90470500D02*
X100134000Y-88950500D01*
X98194000Y-88410500D02*
X98524000Y-88650500D01*
X98524000Y-88170500D01*
X98194000Y-88410500D01*
G36*
X98524000Y-88650500D02*
G01*
X98194000Y-88410500D01*
X98524000Y-88170500D01*
X98524000Y-88650500D01*
G37*
%TO.C,C12*%
X63615000Y-122721648D02*
X63615000Y-123244152D01*
X65085000Y-122721648D02*
X65085000Y-123244152D01*
%TO.C,C14*%
X49899000Y-122729448D02*
X49899000Y-123251952D01*
X51369000Y-122729448D02*
X51369000Y-123251952D01*
%TO.C,C5*%
X79089252Y-123979000D02*
X78566748Y-123979000D01*
X79089252Y-125449000D02*
X78566748Y-125449000D01*
%TO.C,C11*%
X52185000Y-122696248D02*
X52185000Y-123218752D01*
X53655000Y-122696248D02*
X53655000Y-123218752D01*
%TO.C,Q2*%
X91426000Y-88853500D02*
X91426000Y-90373500D01*
X91426000Y-90373500D02*
X92426000Y-90373500D01*
X91476000Y-88853500D02*
X91426000Y-88853500D01*
X93376000Y-88853500D02*
X92596000Y-88853500D01*
X93546000Y-90373500D02*
X94546000Y-90373500D01*
X94546000Y-88853500D02*
X94496000Y-88853500D01*
X94546000Y-90373500D02*
X94546000Y-88853500D01*
X92606000Y-88313500D02*
X92936000Y-88553500D01*
X92936000Y-88073500D01*
X92606000Y-88313500D01*
G36*
X92936000Y-88553500D02*
G01*
X92606000Y-88313500D01*
X92936000Y-88073500D01*
X92936000Y-88553500D01*
G37*
%TO.C,C17*%
X59043000Y-122721648D02*
X59043000Y-123244152D01*
X60513000Y-122721648D02*
X60513000Y-123244152D01*
%TO.C,C13*%
X61329000Y-122721648D02*
X61329000Y-123244152D01*
X62799000Y-122721648D02*
X62799000Y-123244152D01*
%TO.C,R22*%
X94095000Y-84936064D02*
X94095000Y-84481936D01*
X95565000Y-84936064D02*
X95565000Y-84481936D01*
%TO.C,JP2*%
X61826000Y-117903000D02*
X61826000Y-119303000D01*
X62526000Y-120003000D02*
X63126000Y-120003000D01*
X63126000Y-117203000D02*
X62526000Y-117203000D01*
X63826000Y-119303000D02*
X63826000Y-117903000D01*
X61826000Y-117903000D02*
G75*
G02*
X62526000Y-117203000I700000J0D01*
G01*
X62526000Y-120003000D02*
G75*
G02*
X61826000Y-119303000I-1J699999D01*
G01*
X63126000Y-117203000D02*
G75*
G02*
X63826000Y-117903000I0J-700000D01*
G01*
X63826000Y-119303000D02*
G75*
G02*
X63126000Y-120003000I-699999J-1D01*
G01*
%TO.C,D1*%
X82370000Y-117865000D02*
X76560000Y-117865000D01*
X82370000Y-117865000D02*
X82370000Y-122165000D01*
X82370000Y-122165000D02*
X76560000Y-122165000D01*
%TO.C,R25*%
X96460936Y-118686000D02*
X100815064Y-118686000D01*
X96460936Y-122106000D02*
X100815064Y-122106000D01*
%TO.C,C7*%
X49772000Y-133589752D02*
X49772000Y-133067248D01*
X51242000Y-133589752D02*
X51242000Y-133067248D01*
%TO.C,C10*%
X52196000Y-133589752D02*
X52196000Y-133067248D01*
X53666000Y-133589752D02*
X53666000Y-133067248D01*
D13*
%TO.C,G\u002A\u002A\u002A*%
G36*
X143157584Y-67625033D02*
G01*
X143176506Y-67630357D01*
X143206327Y-67639419D01*
X143245080Y-67651610D01*
X143290799Y-67666317D01*
X143341516Y-67682932D01*
X143358916Y-67688678D01*
X143424660Y-67710358D01*
X143495561Y-67733701D01*
X143566679Y-67757081D01*
X143633073Y-67778873D01*
X143689803Y-67797454D01*
X143850914Y-67850141D01*
X143887647Y-68092032D01*
X143910757Y-68244008D01*
X143936263Y-68411205D01*
X143960712Y-68570837D01*
X143984736Y-68727033D01*
X144008969Y-68883923D01*
X144010156Y-68891595D01*
X144026294Y-68996115D01*
X144040159Y-69086423D01*
X144051883Y-69163442D01*
X144061597Y-69228091D01*
X144069432Y-69281290D01*
X144075520Y-69323960D01*
X144079992Y-69357022D01*
X144082981Y-69381395D01*
X144084617Y-69398001D01*
X144085031Y-69407760D01*
X144084357Y-69411592D01*
X144076980Y-69409532D01*
X144058104Y-69401390D01*
X144029960Y-69388174D01*
X143994752Y-69370921D01*
X143954689Y-69350667D01*
X143930004Y-69338012D01*
X143839569Y-69291665D01*
X143761687Y-69251785D01*
X143695455Y-69217916D01*
X143639971Y-69189603D01*
X143594332Y-69166389D01*
X143557635Y-69147820D01*
X143528978Y-69133440D01*
X143507459Y-69122794D01*
X143492173Y-69115425D01*
X143482220Y-69110879D01*
X143476695Y-69108699D01*
X143474698Y-69108431D01*
X143474634Y-69109953D01*
X143475726Y-69123725D01*
X143478435Y-69150479D01*
X143482578Y-69188598D01*
X143487974Y-69236465D01*
X143494442Y-69292463D01*
X143501802Y-69354975D01*
X143509872Y-69422385D01*
X143511188Y-69433293D01*
X143519909Y-69505629D01*
X143528488Y-69576869D01*
X143536642Y-69644650D01*
X143544085Y-69706608D01*
X143550535Y-69760382D01*
X143555707Y-69803608D01*
X143559318Y-69833923D01*
X143563519Y-69869168D01*
X143569553Y-69919449D01*
X143576403Y-69976270D01*
X143583512Y-70034994D01*
X143590318Y-70090982D01*
X143591759Y-70102825D01*
X143597388Y-70149526D01*
X143602251Y-70190570D01*
X143606071Y-70223553D01*
X143608568Y-70246072D01*
X143609462Y-70255725D01*
X143609458Y-70256425D01*
X143609036Y-70259893D01*
X143607318Y-70259328D01*
X143603463Y-70253066D01*
X143596630Y-70239443D01*
X143585979Y-70216796D01*
X143570668Y-70183459D01*
X143549857Y-70137769D01*
X143544179Y-70125285D01*
X143518609Y-70069076D01*
X143497619Y-70022976D01*
X143479719Y-69983728D01*
X143463417Y-69948074D01*
X143447221Y-69912755D01*
X143429641Y-69874513D01*
X143409185Y-69830091D01*
X143384362Y-69776230D01*
X143364059Y-69732109D01*
X143337512Y-69674282D01*
X143307848Y-69609553D01*
X143276755Y-69541610D01*
X143245924Y-69474144D01*
X143217044Y-69410846D01*
X143166714Y-69300480D01*
X143120658Y-69199603D01*
X143079412Y-69109386D01*
X143043232Y-69030389D01*
X143012375Y-68963169D01*
X142987097Y-68908287D01*
X142967654Y-68866300D01*
X142954303Y-68837769D01*
X142939147Y-68805124D01*
X142921501Y-68766220D01*
X142905463Y-68730076D01*
X142899747Y-68717096D01*
X142882955Y-68679663D01*
X142863988Y-68638084D01*
X142845957Y-68599200D01*
X142835810Y-68577306D01*
X142822072Y-68546824D01*
X142811563Y-68522484D01*
X142805983Y-68508155D01*
X142803857Y-68500810D01*
X142804637Y-68494140D01*
X142814503Y-68497880D01*
X142818961Y-68499980D01*
X142837097Y-68507628D01*
X142865272Y-68518989D01*
X142900610Y-68532909D01*
X142940231Y-68548237D01*
X142940359Y-68548286D01*
X142983598Y-68564911D01*
X143036641Y-68585373D01*
X143094976Y-68607926D01*
X143154087Y-68630826D01*
X143209462Y-68652328D01*
X143230603Y-68660488D01*
X143274484Y-68677012D01*
X143312367Y-68690719D01*
X143342180Y-68700889D01*
X143361847Y-68706803D01*
X143369296Y-68707743D01*
X143369306Y-68707712D01*
X143368316Y-68698657D01*
X143364539Y-68676600D01*
X143358362Y-68643555D01*
X143350170Y-68601539D01*
X143340348Y-68552566D01*
X143329282Y-68498651D01*
X143323002Y-68468347D01*
X143309590Y-68403500D01*
X143294260Y-68329229D01*
X143277761Y-68249183D01*
X143260846Y-68167006D01*
X143244265Y-68086345D01*
X143228770Y-68010846D01*
X143228767Y-68010828D01*
X143215140Y-67944456D01*
X143202054Y-67880876D01*
X143189931Y-67822135D01*
X143179196Y-67770278D01*
X143170271Y-67727354D01*
X143163582Y-67695409D01*
X143159551Y-67676489D01*
X143154534Y-67651429D01*
X143151592Y-67632281D01*
X143151513Y-67623923D01*
X143157584Y-67625033D01*
G37*
G36*
X143682291Y-65980076D02*
G01*
X143696008Y-66003860D01*
X143718285Y-66042442D01*
X143739217Y-66078648D01*
X143755638Y-66107000D01*
X143763328Y-66120274D01*
X143780404Y-66149799D01*
X143804081Y-66190768D01*
X143833720Y-66242076D01*
X143868681Y-66302616D01*
X143908326Y-66371281D01*
X143952018Y-66446964D01*
X143999116Y-66528560D01*
X144048983Y-66614961D01*
X144100979Y-66705061D01*
X144154467Y-66797753D01*
X144208808Y-66891931D01*
X144263362Y-66986488D01*
X144317491Y-67080318D01*
X144370557Y-67172314D01*
X144421921Y-67261369D01*
X144470945Y-67346376D01*
X144516989Y-67426230D01*
X144529532Y-67447984D01*
X144572403Y-67522327D01*
X144613089Y-67592864D01*
X144650903Y-67658406D01*
X144685159Y-67717761D01*
X144715168Y-67769739D01*
X144740244Y-67813151D01*
X144759699Y-67846804D01*
X144772845Y-67869510D01*
X144778997Y-67880076D01*
X144782398Y-67885888D01*
X144793774Y-67905507D01*
X144810821Y-67935026D01*
X144832263Y-67972231D01*
X144856825Y-68014908D01*
X144883231Y-68060846D01*
X144894339Y-68080173D01*
X144922610Y-68129282D01*
X144949997Y-68176754D01*
X144974810Y-68219662D01*
X144995356Y-68255079D01*
X145009942Y-68280076D01*
X145011331Y-68282446D01*
X145022920Y-68302345D01*
X145041277Y-68333984D01*
X145065632Y-68376033D01*
X145095215Y-68427160D01*
X145129258Y-68486034D01*
X145166990Y-68551324D01*
X145207641Y-68621700D01*
X145250442Y-68695830D01*
X145294624Y-68772384D01*
X145294734Y-68772575D01*
X145340549Y-68851968D01*
X145386244Y-68931143D01*
X145430874Y-69008461D01*
X145473493Y-69082283D01*
X145513154Y-69150971D01*
X145548912Y-69212887D01*
X145579821Y-69266392D01*
X145604934Y-69309847D01*
X145623305Y-69341615D01*
X145634698Y-69361311D01*
X145665062Y-69413854D01*
X145699678Y-69473808D01*
X145736171Y-69537061D01*
X145772168Y-69599496D01*
X145805294Y-69657000D01*
X145814950Y-69673767D01*
X145851606Y-69737372D01*
X145892029Y-69807450D01*
X145933360Y-69879049D01*
X145972739Y-69947216D01*
X146007309Y-70007000D01*
X146029900Y-70046063D01*
X146066245Y-70108970D01*
X146106103Y-70178014D01*
X146147057Y-70249006D01*
X146186689Y-70317757D01*
X146222582Y-70380076D01*
X146225244Y-70384701D01*
X146256961Y-70439768D01*
X146264678Y-70453153D01*
X146288459Y-70494403D01*
X146318249Y-70546024D01*
X146344839Y-70592051D01*
X146366741Y-70629903D01*
X146382464Y-70657000D01*
X146396865Y-70681783D01*
X146420720Y-70723207D01*
X146438309Y-70754706D01*
X146450675Y-70778504D01*
X146458859Y-70796827D01*
X146463903Y-70811898D01*
X146466850Y-70825943D01*
X146468742Y-70841186D01*
X146469312Y-70847667D01*
X146466115Y-70898959D01*
X146449138Y-70943995D01*
X146419032Y-70981582D01*
X146376447Y-71010524D01*
X146336993Y-71030185D01*
X143463008Y-71028208D01*
X140589024Y-71026230D01*
X140551166Y-71003116D01*
X140523922Y-70982587D01*
X140493773Y-70944751D01*
X140476552Y-70899650D01*
X140473202Y-70849147D01*
X140473827Y-70841401D01*
X140474848Y-70833195D01*
X140476672Y-70824406D01*
X140479758Y-70814184D01*
X140484567Y-70801681D01*
X140491557Y-70786049D01*
X140501191Y-70766437D01*
X140513926Y-70741997D01*
X140530224Y-70711880D01*
X140550544Y-70675236D01*
X140575347Y-70631218D01*
X140605091Y-70578976D01*
X140640238Y-70517661D01*
X140677373Y-70453153D01*
X141302887Y-70453153D01*
X143471246Y-70453153D01*
X145639606Y-70453153D01*
X145556575Y-70308923D01*
X145549823Y-70297191D01*
X145524190Y-70252603D01*
X145500325Y-70211015D01*
X145479707Y-70175011D01*
X145463815Y-70147170D01*
X145454129Y-70130076D01*
X145452106Y-70126485D01*
X145439478Y-70104323D01*
X145421675Y-70073336D01*
X145400773Y-70037129D01*
X145378847Y-69999307D01*
X145364567Y-69974685D01*
X145341955Y-69935615D01*
X145314112Y-69887447D01*
X145282354Y-69832457D01*
X145247993Y-69772920D01*
X145212345Y-69711112D01*
X145176722Y-69649307D01*
X145147876Y-69599262D01*
X145111014Y-69535357D01*
X145074694Y-69472443D01*
X145040345Y-69412990D01*
X145009391Y-69359466D01*
X144983260Y-69314339D01*
X144963376Y-69280076D01*
X144950108Y-69257232D01*
X144923213Y-69210836D01*
X144891922Y-69156774D01*
X144858278Y-69098580D01*
X144824326Y-69039785D01*
X144792106Y-68983923D01*
X144770943Y-68947214D01*
X144738821Y-68891531D01*
X144707050Y-68836497D01*
X144677464Y-68785283D01*
X144651892Y-68741061D01*
X144632167Y-68707000D01*
X144624872Y-68694409D01*
X144606004Y-68661807D01*
X144580777Y-68618186D01*
X144550054Y-68565036D01*
X144514696Y-68503851D01*
X144475564Y-68436122D01*
X144433522Y-68363341D01*
X144389430Y-68287001D01*
X144344151Y-68208594D01*
X144298546Y-68129611D01*
X144253477Y-68051545D01*
X144209806Y-67975888D01*
X144168394Y-67904132D01*
X144130104Y-67837769D01*
X144112067Y-67806467D01*
X144089019Y-67766370D01*
X144068508Y-67730577D01*
X144052255Y-67702093D01*
X144041981Y-67683923D01*
X144041470Y-67683009D01*
X144031037Y-67664649D01*
X144014544Y-67635923D01*
X143993557Y-67599544D01*
X143969643Y-67558229D01*
X143944366Y-67514692D01*
X143942150Y-67510881D01*
X143912838Y-67460389D01*
X143878788Y-67401628D01*
X143842700Y-67339263D01*
X143807275Y-67277960D01*
X143775212Y-67222384D01*
X143771138Y-67215315D01*
X143739246Y-67159995D01*
X143705000Y-67100618D01*
X143670909Y-67041531D01*
X143639481Y-66987081D01*
X143613224Y-66941615D01*
X143594881Y-66909832D01*
X143569034Y-66864943D01*
X143544625Y-66822442D01*
X143523743Y-66785970D01*
X143508481Y-66759170D01*
X143501357Y-66746746D01*
X143486997Y-66722686D01*
X143476239Y-66706018D01*
X143471000Y-66699781D01*
X143468641Y-66702782D01*
X143459371Y-66717391D01*
X143444019Y-66742746D01*
X143423508Y-66777294D01*
X143398759Y-66819478D01*
X143370693Y-66867743D01*
X143340231Y-66920533D01*
X143333375Y-66932457D01*
X143297579Y-66994701D01*
X143260337Y-67059432D01*
X143223472Y-67123484D01*
X143188805Y-67183694D01*
X143158158Y-67236894D01*
X143133355Y-67279921D01*
X143125373Y-67293763D01*
X143098752Y-67339966D01*
X143066830Y-67395408D01*
X143031342Y-67457077D01*
X142994022Y-67521959D01*
X142956602Y-67587040D01*
X142920818Y-67649307D01*
X142903112Y-67680116D01*
X142868801Y-67739775D01*
X142835103Y-67798314D01*
X142803426Y-67853290D01*
X142775180Y-67902256D01*
X142751774Y-67942769D01*
X142734617Y-67972384D01*
X142730973Y-67978661D01*
X142714503Y-68007072D01*
X142691538Y-68046728D01*
X142662993Y-68096046D01*
X142629785Y-68153440D01*
X142592830Y-68217327D01*
X142553043Y-68286122D01*
X142511342Y-68358240D01*
X142468641Y-68432097D01*
X142425858Y-68506109D01*
X142383907Y-68578691D01*
X142343706Y-68648258D01*
X142306170Y-68713226D01*
X142272216Y-68772011D01*
X142242759Y-68823027D01*
X142218716Y-68864692D01*
X142214523Y-68871959D01*
X142193979Y-68907535D01*
X142167691Y-68953023D01*
X142137222Y-69005723D01*
X142104132Y-69062932D01*
X142069984Y-69121950D01*
X142036340Y-69180076D01*
X142022779Y-69203503D01*
X141991138Y-69258194D01*
X141961048Y-69310240D01*
X141933741Y-69357508D01*
X141910450Y-69397864D01*
X141892407Y-69429175D01*
X141880844Y-69449307D01*
X141879093Y-69452366D01*
X141862495Y-69481213D01*
X141841063Y-69518286D01*
X141817375Y-69559134D01*
X141794005Y-69599307D01*
X141792154Y-69602484D01*
X141769938Y-69640741D01*
X141742556Y-69688064D01*
X141712256Y-69740556D01*
X141681289Y-69794321D01*
X141651904Y-69845461D01*
X141651323Y-69846473D01*
X141619553Y-69901800D01*
X141583084Y-69965238D01*
X141544856Y-70031680D01*
X141507806Y-70096021D01*
X141474872Y-70153153D01*
X141464615Y-70170940D01*
X141435722Y-70221096D01*
X141407363Y-70270397D01*
X141381329Y-70315725D01*
X141359410Y-70353965D01*
X141343396Y-70382000D01*
X141302887Y-70453153D01*
X140677373Y-70453153D01*
X140681247Y-70446424D01*
X140728579Y-70364416D01*
X140782692Y-70270788D01*
X140844048Y-70164692D01*
X140864333Y-70129601D01*
X140891287Y-70082920D01*
X140915794Y-70040422D01*
X140936537Y-70004387D01*
X140952202Y-69977101D01*
X140961473Y-69960846D01*
X140975684Y-69935851D01*
X140997731Y-69897348D01*
X141026331Y-69847586D01*
X141060878Y-69787618D01*
X141100766Y-69718495D01*
X141145387Y-69641272D01*
X141194137Y-69557000D01*
X141198437Y-69549569D01*
X141225788Y-69502302D01*
X141259046Y-69444811D01*
X141296701Y-69379711D01*
X141337241Y-69309613D01*
X141379157Y-69237130D01*
X141420936Y-69164876D01*
X141461067Y-69095461D01*
X141464076Y-69090256D01*
X141505625Y-69018392D01*
X141549679Y-68942202D01*
X141594538Y-68864629D01*
X141638502Y-68788612D01*
X141679868Y-68717092D01*
X141716938Y-68653010D01*
X141748009Y-68599307D01*
X141797816Y-68513195D01*
X141850502Y-68421997D01*
X141895533Y-68343914D01*
X141932964Y-68278852D01*
X141962849Y-68226716D01*
X141985242Y-68187412D01*
X142000198Y-68160846D01*
X142007404Y-68148079D01*
X142022426Y-68121833D01*
X142042170Y-68087576D01*
X142064911Y-68048300D01*
X142088922Y-68007000D01*
X142106648Y-67976556D01*
X142130746Y-67935113D01*
X142152696Y-67897304D01*
X142170631Y-67866347D01*
X142182681Y-67845461D01*
X142197619Y-67819457D01*
X142254375Y-67720790D01*
X142315453Y-67614799D01*
X142378173Y-67506126D01*
X142439856Y-67399414D01*
X142497824Y-67299307D01*
X142523486Y-67255009D01*
X142560527Y-67190992D01*
X142598685Y-67124970D01*
X142635749Y-67060772D01*
X142669509Y-67002224D01*
X142697754Y-66953153D01*
X142704881Y-66940762D01*
X142736931Y-66885139D01*
X142773378Y-66822023D01*
X142811548Y-66756033D01*
X142848768Y-66691793D01*
X142882366Y-66633923D01*
X142890776Y-66619447D01*
X142921986Y-66565620D01*
X142958292Y-66502871D01*
X142997746Y-66434571D01*
X143038404Y-66364091D01*
X143078318Y-66294803D01*
X143115542Y-66230076D01*
X143141383Y-66185142D01*
X143172205Y-66131671D01*
X143200444Y-66082811D01*
X143225088Y-66040309D01*
X143245122Y-66005914D01*
X143259534Y-65981372D01*
X143267309Y-65968430D01*
X143273792Y-65957719D01*
X143278558Y-65949307D01*
X143463308Y-65949307D01*
X143467154Y-65953153D01*
X143471000Y-65949307D01*
X143467154Y-65945461D01*
X143463308Y-65949307D01*
X143278558Y-65949307D01*
X143289068Y-65930754D01*
X143303760Y-65903046D01*
X143305920Y-65898872D01*
X143337672Y-65851425D01*
X143375760Y-65816022D01*
X143418636Y-65793498D01*
X143464752Y-65784688D01*
X143512561Y-65790427D01*
X143524351Y-65793919D01*
X143546007Y-65802369D01*
X143565350Y-65813945D01*
X143583948Y-65830399D01*
X143603372Y-65853486D01*
X143625191Y-65884959D01*
X143650974Y-65926571D01*
X143664282Y-65949307D01*
X143682291Y-65980076D01*
G37*
%TO.C,C15*%
D12*
X54471000Y-122696248D02*
X54471000Y-123218752D01*
X55941000Y-122696248D02*
X55941000Y-123218752D01*
%TO.C,JP3*%
X59159000Y-117903000D02*
X59159000Y-119303000D01*
X59859000Y-120003000D02*
X60459000Y-120003000D01*
X60459000Y-117203000D02*
X59859000Y-117203000D01*
X61159000Y-119303000D02*
X61159000Y-117903000D01*
X59159000Y-117903000D02*
G75*
G02*
X59859000Y-117203000I699999J1D01*
G01*
X59859000Y-120003000D02*
G75*
G02*
X59159000Y-119303000I0J700000D01*
G01*
X60459000Y-117203000D02*
G75*
G02*
X61159000Y-117903000I1J-699999D01*
G01*
X61159000Y-119303000D02*
G75*
G02*
X60459000Y-120003000I-700000J0D01*
G01*
%TO.C,R21*%
X99677506Y-84490014D02*
X99677506Y-84944142D01*
X101147506Y-84490014D02*
X101147506Y-84944142D01*
%TO.C,R20*%
X88761000Y-91016064D02*
X88761000Y-90561936D01*
X90231000Y-91016064D02*
X90231000Y-90561936D01*
%TO.C,C18*%
X56757000Y-122721648D02*
X56757000Y-123244152D01*
X58227000Y-122721648D02*
X58227000Y-123244152D01*
%TO.C,JP1*%
X64493000Y-117903000D02*
X64493000Y-119303000D01*
X65193000Y-120003000D02*
X65793000Y-120003000D01*
X65793000Y-117203000D02*
X65193000Y-117203000D01*
X66493000Y-119303000D02*
X66493000Y-117903000D01*
X64493000Y-117903000D02*
G75*
G02*
X65193000Y-117203000I699999J1D01*
G01*
X65193000Y-120003000D02*
G75*
G02*
X64493000Y-119303000I0J700000D01*
G01*
X65793000Y-117203000D02*
G75*
G02*
X66493000Y-117903000I1J-699999D01*
G01*
X66493000Y-119303000D02*
G75*
G02*
X65793000Y-120003000I-700000J0D01*
G01*
%TO.C,U4*%
X111726000Y-125035000D02*
X116796000Y-125035000D01*
X111726000Y-132775000D02*
X111726000Y-125035000D01*
X113261000Y-132775000D02*
X111726000Y-132775000D01*
X116796000Y-125035000D02*
X116796000Y-132775000D01*
X116796000Y-132775000D02*
X115261000Y-132775000D01*
X108026000Y-124975000D02*
X120496000Y-124975000D01*
X120496000Y-132835000D01*
X108026000Y-132835000D01*
X108026000Y-124975000D01*
X113261000Y-132775000D02*
G75*
G02*
X115261000Y-132775000I1000000J0D01*
G01*
%TO.C,JP4*%
X56492000Y-117887000D02*
X56492000Y-119287000D01*
X57192000Y-119987000D02*
X57792000Y-119987000D01*
X57792000Y-117187000D02*
X57192000Y-117187000D01*
X58492000Y-119287000D02*
X58492000Y-117887000D01*
X56492000Y-117887000D02*
G75*
G02*
X57192000Y-117187000I700000J0D01*
G01*
X57192000Y-119987000D02*
G75*
G02*
X56492000Y-119287000I-1J699999D01*
G01*
X57792000Y-117187000D02*
G75*
G02*
X58492000Y-117887000I0J-700000D01*
G01*
X58492000Y-119287000D02*
G75*
G02*
X57792000Y-119987000I-699999J-1D01*
G01*
%TD*%
M02*
