%TF.GenerationSoftware,KiCad,Pcbnew,10.0.5*%
%TF.CreationDate,2026-09-10T11:17:15-03:00*%
%TF.ProjectId,Kicker_LT3751_OxeBots,4b69636b-6572-45f4-9c54-333735315f4f,rev?*%
%TF.SameCoordinates,Original*%
%TF.FileFunction,Copper,L2,Bot*%
%TF.FilePolarity,Positive*%
%FSLAX46Y46*%
G04 Gerber Fmt 4.6, Leading zero omitted, Abs format (unit mm)*
G04 Created by KiCad (PCBNEW 10.0.5) date 2026-09-10 11:17:15*
%MOMM*%
%LPD*%
G01*
G04 APERTURE LIST*
G04 Aperture macros list*
%AMRoundRect*
0 Rectangle with rounded corners*
0 $1 Rounding radius*
0 $2 $3 $4 $5 $6 $7 $8 $9 X,Y pos of 4 corners*
0 Add a 4 corners polygon primitive as box body*
4,1,4,$2,$3,$4,$5,$6,$7,$8,$9,$2,$3,0*
0 Add four circle primitives for the rounded corners*
1,1,$1+$1,$2,$3*
1,1,$1+$1,$4,$5*
1,1,$1+$1,$6,$7*
1,1,$1+$1,$8,$9*
0 Add four rect primitives between the rounded corners*
20,1,$1+$1,$2,$3,$4,$5,0*
20,1,$1+$1,$4,$5,$6,$7,0*
20,1,$1+$1,$6,$7,$8,$9,0*
20,1,$1+$1,$8,$9,$2,$3,0*%
%AMHorizOval*
0 Thick line with rounded ends*
0 $1 width*
0 $2 $3 position (X,Y) of the first rounded end (center of the circle)*
0 $4 $5 position (X,Y) of the second rounded end (center of the circle)*
0 Add line between two ends*
20,1,$1,$2,$3,$4,$5,0*
0 Add two circle primitives to create the rounded ends*
1,1,$1,$2,$3*
1,1,$1,$4,$5*%
%AMRotRect*
0 Rectangle, with rotation*
0 The origin of the aperture is its center*
0 $1 length*
0 $2 width*
0 $3 Rotation angle, in degrees counterclockwise*
0 Add horizontal line*
21,1,$1,$2,0,0,$3*%
%AMFreePoly0*
4,1,23,0.500000,-0.750000,0.000000,-0.750000,0.000000,-0.745722,-0.065263,-0.745722,-0.191342,-0.711940,-0.304381,-0.646677,-0.396677,-0.554381,-0.461940,-0.441342,-0.495722,-0.315263,-0.495722,-0.250000,-0.500000,-0.250000,-0.500000,0.250000,-0.495722,0.250000,-0.495722,0.315263,-0.461940,0.441342,-0.396677,0.554381,-0.304381,0.646677,-0.191342,0.711940,-0.065263,0.745722,0.000000,0.745722,
0.000000,0.750000,0.500000,0.750000,0.500000,-0.750000,0.500000,-0.750000,$1*%
%AMFreePoly1*
4,1,23,0.000000,0.745722,0.065263,0.745722,0.191342,0.711940,0.304381,0.646677,0.396677,0.554381,0.461940,0.441342,0.495722,0.315263,0.495722,0.250000,0.500000,0.250000,0.500000,-0.250000,0.495722,-0.250000,0.495722,-0.315263,0.461940,-0.441342,0.396677,-0.554381,0.304381,-0.646677,0.191342,-0.711940,0.065263,-0.745722,0.000000,-0.745722,0.000000,-0.750000,-0.500000,-0.750000,
-0.500000,0.750000,0.000000,0.750000,0.000000,0.745722,0.000000,0.745722,$1*%
G04 Aperture macros list end*
%TA.AperFunction,ComponentPad*%
%ADD10C,1.700000*%
%TD*%
%TA.AperFunction,ComponentPad*%
%ADD11RoundRect,0.250000X0.600000X0.600000X-0.600000X0.600000X-0.600000X-0.600000X0.600000X-0.600000X0*%
%TD*%
%TA.AperFunction,ComponentPad*%
%ADD12RotRect,1.700000X1.700000X150.000000*%
%TD*%
%TA.AperFunction,ComponentPad*%
%ADD13C,2.000000*%
%TD*%
%TA.AperFunction,ComponentPad*%
%ADD14C,0.900000*%
%TD*%
%TA.AperFunction,ComponentPad*%
%ADD15C,8.600000*%
%TD*%
%TA.AperFunction,ComponentPad*%
%ADD16RotRect,1.905000X2.000000X152.800000*%
%TD*%
%TA.AperFunction,ComponentPad*%
%ADD17HorizOval,1.905000X0.021712X0.042247X-0.021712X-0.042247X0*%
%TD*%
%TA.AperFunction,ComponentPad*%
%ADD18R,1.800000X1.800000*%
%TD*%
%TA.AperFunction,ComponentPad*%
%ADD19C,1.800000*%
%TD*%
%TA.AperFunction,ComponentPad*%
%ADD20R,1.500000X1.500000*%
%TD*%
%TA.AperFunction,ComponentPad*%
%ADD21C,1.500000*%
%TD*%
%TA.AperFunction,ComponentPad*%
%ADD22R,1.905000X2.000000*%
%TD*%
%TA.AperFunction,ComponentPad*%
%ADD23O,1.905000X2.000000*%
%TD*%
%TA.AperFunction,ComponentPad*%
%ADD24RoundRect,0.250000X0.950000X0.550000X-0.950000X0.550000X-0.950000X-0.550000X0.950000X-0.550000X0*%
%TD*%
%TA.AperFunction,ComponentPad*%
%ADD25O,2.400000X1.600000*%
%TD*%
%TA.AperFunction,ComponentPad*%
%ADD26RoundRect,0.675000X0.000000X-2.227386X2.227386X0.000000X0.000000X2.227386X-2.227386X0.000000X0*%
%TD*%
%TA.AperFunction,ComponentPad*%
%ADD27C,2.400000*%
%TD*%
%TA.AperFunction,ComponentPad*%
%ADD28RoundRect,0.250000X-0.950000X-0.550000X0.950000X-0.550000X0.950000X0.550000X-0.950000X0.550000X0*%
%TD*%
%TA.AperFunction,ComponentPad*%
%ADD29O,3.800000X5.500000*%
%TD*%
%TA.AperFunction,ComponentPad*%
%ADD30O,3.800000X5.300000*%
%TD*%
%TA.AperFunction,ComponentPad*%
%ADD31RoundRect,0.250000X1.750000X1.750000X-1.750000X1.750000X-1.750000X-1.750000X1.750000X-1.750000X0*%
%TD*%
%TA.AperFunction,ComponentPad*%
%ADD32C,4.000000*%
%TD*%
%TA.AperFunction,ComponentPad*%
%ADD33C,2.550000*%
%TD*%
%TA.AperFunction,ComponentPad*%
%ADD34R,2.550000X2.550000*%
%TD*%
%TA.AperFunction,ComponentPad*%
%ADD35C,1.508000*%
%TD*%
%TA.AperFunction,ComponentPad*%
%ADD36R,1.750000X2.250000*%
%TD*%
%TA.AperFunction,ComponentPad*%
%ADD37O,1.750000X2.250000*%
%TD*%
%TA.AperFunction,SMDPad,CuDef*%
%ADD38RoundRect,0.250000X0.450000X-0.350000X0.450000X0.350000X-0.450000X0.350000X-0.450000X-0.350000X0*%
%TD*%
%TA.AperFunction,SMDPad,CuDef*%
%ADD39RoundRect,0.150000X-0.150000X0.587500X-0.150000X-0.587500X0.150000X-0.587500X0.150000X0.587500X0*%
%TD*%
%TA.AperFunction,SMDPad,CuDef*%
%ADD40RoundRect,0.250000X-0.475000X0.337500X-0.475000X-0.337500X0.475000X-0.337500X0.475000X0.337500X0*%
%TD*%
%TA.AperFunction,SMDPad,CuDef*%
%ADD41RoundRect,0.250000X0.337500X0.475000X-0.337500X0.475000X-0.337500X-0.475000X0.337500X-0.475000X0*%
%TD*%
%TA.AperFunction,SMDPad,CuDef*%
%ADD42FreePoly0,90.000000*%
%TD*%
%TA.AperFunction,SMDPad,CuDef*%
%ADD43FreePoly1,90.000000*%
%TD*%
%TA.AperFunction,SMDPad,CuDef*%
%ADD44RoundRect,0.250000X1.000000X0.900000X-1.000000X0.900000X-1.000000X-0.900000X1.000000X-0.900000X0*%
%TD*%
%TA.AperFunction,SMDPad,CuDef*%
%ADD45RoundRect,0.249999X-0.450001X-1.425001X0.450001X-1.425001X0.450001X1.425001X-0.450001X1.425001X0*%
%TD*%
%TA.AperFunction,SMDPad,CuDef*%
%ADD46RoundRect,0.250000X0.475000X-0.337500X0.475000X0.337500X-0.475000X0.337500X-0.475000X-0.337500X0*%
%TD*%
%TA.AperFunction,SMDPad,CuDef*%
%ADD47FreePoly0,270.000000*%
%TD*%
%TA.AperFunction,SMDPad,CuDef*%
%ADD48FreePoly1,270.000000*%
%TD*%
%TA.AperFunction,SMDPad,CuDef*%
%ADD49RoundRect,0.250000X-0.450000X0.350000X-0.450000X-0.350000X0.450000X-0.350000X0.450000X0.350000X0*%
%TD*%
%TA.AperFunction,SMDPad,CuDef*%
%ADD50RoundRect,0.250000X-1.300000X-0.550000X1.300000X-0.550000X1.300000X0.550000X-1.300000X0.550000X0*%
%TD*%
%TA.AperFunction,ViaPad*%
%ADD51C,0.600000*%
%TD*%
%TA.AperFunction,ViaPad*%
%ADD52C,3.000000*%
%TD*%
%TA.AperFunction,ViaPad*%
%ADD53C,1.000000*%
%TD*%
%TA.AperFunction,Conductor*%
%ADD54C,2.540000*%
%TD*%
%TA.AperFunction,Conductor*%
%ADD55C,0.381000*%
%TD*%
%TA.AperFunction,Conductor*%
%ADD56C,0.508000*%
%TD*%
%TA.AperFunction,Conductor*%
%ADD57C,1.016000*%
%TD*%
G04 APERTURE END LIST*
D10*
%TO.P,J2,16,Pin_16_16*%
%TO.N,GND*%
X78320000Y-90932000D03*
%TO.P,J2,15,Pin_15_15*%
X80860000Y-90932000D03*
%TO.P,J2,14,Pin_14_14*%
X78320000Y-93472000D03*
%TO.P,J2,13,Pin_13_13*%
X80860000Y-93472000D03*
%TO.P,J2,12,Pin_12_12*%
X78320000Y-96012000D03*
%TO.P,J2,11,Pin_11_11*%
X80860000Y-96012000D03*
%TO.P,J2,10,Pin_10_10*%
%TO.N,MCU_I2C_SCL*%
X78320000Y-98552000D03*
%TO.P,J2,9,Pin_9_9*%
%TO.N,+3.3V*%
X80860000Y-98552000D03*
%TO.P,J2,8,Pin_8_8*%
%TO.N,MCU_I2C_SDA*%
X78320000Y-101092000D03*
%TO.P,J2,7,Pin_7_7*%
%TO.N,+12V*%
X80860000Y-101092000D03*
%TO.P,J2,6,Pin_6_6*%
%TO.N,+24V_INPUT*%
X78320000Y-103632000D03*
%TO.P,J2,5,Pin_5_5*%
X80860000Y-103632000D03*
%TO.P,J2,4,Pin_4_4*%
X78320000Y-106172000D03*
%TO.P,J2,3,Pin_3_3*%
X80860000Y-106172000D03*
%TO.P,J2,2,Pin_2_2*%
X78320000Y-108712000D03*
D11*
%TO.P,J2,1,Pin_1_1*%
X80860000Y-108712000D03*
%TD*%
D12*
%TO.P,J1,1,Pin_1_1*%
%TO.N,+3.3V*%
X50380000Y-82463705D03*
D10*
%TO.P,J1,2,Pin_2_2*%
%TO.N,MCU_STLINK_SWDIO*%
X51650000Y-80264000D03*
%TO.P,J1,3,Pin_3_3*%
%TO.N,MCU_STLINK_SWCLK*%
X52920000Y-78064296D03*
%TO.P,J1,4,Pin_4_4*%
%TO.N,GND*%
X54190000Y-75864591D03*
%TD*%
D13*
%TO.P,C23,2*%
%TO.N,Net-(Q1-D)*%
X84162000Y-130803000D03*
%TO.P,C23,1*%
%TO.N,Net-(C23-Pad1)*%
X84162000Y-138303000D03*
%TD*%
D14*
%TO.P,H2,1*%
%TO.N,N/C*%
X96140851Y-129301617D03*
X97085432Y-127021198D03*
X97085432Y-131582036D03*
X99365851Y-126076617D03*
D15*
X99365851Y-129301617D03*
D14*
X99365851Y-132526617D03*
X101646270Y-127021198D03*
X101646270Y-131582036D03*
X102590851Y-129301617D03*
%TD*%
D16*
%TO.P,Q1,1,G_1*%
%TO.N,Net-(Q1-G)*%
X77304000Y-140335000D03*
D17*
%TO.P,Q1,2,D_2*%
%TO.N,Net-(Q1-D)*%
X75044882Y-139173971D03*
%TO.P,Q1,3,S_3*%
%TO.N,Net-(Q1-S)*%
X72785765Y-138012943D03*
%TD*%
D18*
%TO.P,D4,1,K_1*%
%TO.N,Net-(D4-K)*%
X116420000Y-144907000D03*
D19*
%TO.P,D4,2,A_2*%
%TO.N,Net-(D4-A)*%
X116420000Y-147447000D03*
%TD*%
D20*
%TO.P,RV1,1,1_1*%
%TO.N,Net-(R26-Pad1)*%
X93306000Y-73025000D03*
D21*
%TO.P,RV1,2,2_2*%
%TO.N,Net-(U3B-+)*%
X90766000Y-75565000D03*
%TO.P,RV1,3,3_3*%
X88226000Y-73025000D03*
%TD*%
D22*
%TO.P,Q4,1,G_1*%
%TO.N,Net-(Q4-G)*%
X128612000Y-88265000D03*
D23*
%TO.P,Q4,2,D_2*%
%TO.N,Net-(D5-A)*%
X131152000Y-88265000D03*
%TO.P,Q4,3,S_3*%
%TO.N,GNDPWR*%
X133692000Y-88265000D03*
%TD*%
D24*
%TO.P,U5,1*%
%TO.N,Net-(R28-Pad1)*%
X115404000Y-68707000D03*
D25*
%TO.P,U5,2*%
%TO.N,+15V_SEC*%
X115404000Y-66167000D03*
%TO.P,U5,3*%
%TO.N,Net-(U7B--)*%
X115404000Y-63627000D03*
%TO.P,U5,4*%
%TO.N,GNDPWR*%
X115404000Y-61087000D03*
%TO.P,U5,5*%
%TO.N,GND*%
X105244000Y-61087000D03*
%TO.P,U5,6*%
%TO.N,Net-(U3A--)*%
X105244000Y-63627000D03*
%TO.P,U5,7*%
%TO.N,unconnected-(U5-Pad7)*%
X105244000Y-66167000D03*
%TO.P,U5,8*%
%TO.N,unconnected-(U5-Pad8)*%
X105244000Y-68707000D03*
%TD*%
D26*
%TO.P,R31,1*%
%TO.N,Net-(D4-K)*%
X123745974Y-143169026D03*
%TO.P,R31,2*%
%TO.N,VCAP*%
X148424000Y-118491000D03*
%TD*%
D27*
%TO.P,R24,1*%
%TO.N,+24V*%
X90512000Y-120269000D03*
%TO.P,R24,2*%
%TO.N,Net-(C23-Pad1)*%
X90512000Y-140589000D03*
%TD*%
D13*
%TO.P,C26,1*%
%TO.N,VCAP*%
X148852000Y-88519000D03*
%TO.P,C26,2*%
%TO.N,GNDPWR*%
X138852000Y-88519000D03*
%TD*%
D28*
%TO.P,U6,1,NC_1*%
%TO.N,unconnected-(U6-NC-Pad1)*%
X106514000Y-73533000D03*
D25*
%TO.P,U6,2,A_2*%
%TO.N,Net-(U6-A)*%
X106514000Y-76073000D03*
%TO.P,U6,3,C_3*%
%TO.N,GND*%
X106514000Y-78613000D03*
%TO.P,U6,4,NC_4*%
%TO.N,unconnected-(U6-NC-Pad4)*%
X106514000Y-81153000D03*
%TO.P,U6,5,VEE_5*%
%TO.N,GNDPWR*%
X114134000Y-81153000D03*
%TO.P,U6,6,VO_6*%
%TO.N,unconnected-(U6-VO-Pad6)*%
X114134000Y-78613000D03*
%TO.P,U6,7,VO_7*%
%TO.N,Net-(R29-Pad1)*%
X114134000Y-76073000D03*
%TO.P,U6,8,VCC_8*%
%TO.N,+15V_SEC*%
X114134000Y-73533000D03*
%TD*%
D18*
%TO.P,D2,1,K_1*%
%TO.N,GND*%
X47967000Y-96552000D03*
D19*
%TO.P,D2,2,A_2*%
%TO.N,Net-(D2-A)*%
X47967000Y-94012000D03*
%TD*%
D29*
%TO.P,F1,1*%
%TO.N,+24V_INPUT*%
X88607000Y-105537000D03*
D30*
%TO.P,F1,2*%
%TO.N,+24V*%
X88607000Y-113537000D03*
%TD*%
D31*
%TO.P,C31,1*%
%TO.N,VCAP*%
X148137235Y-44726200D03*
D32*
%TO.P,C31,2*%
%TO.N,GNDPWR*%
X138137235Y-44726200D03*
%TD*%
D14*
%TO.P,H1,1*%
%TO.N,N/C*%
X96140851Y-74152383D03*
X97085432Y-71871964D03*
X97085432Y-76432802D03*
X99365851Y-70927383D03*
D15*
X99365851Y-74152383D03*
D14*
X99365851Y-77377383D03*
X101646270Y-71871964D03*
X101646270Y-76432802D03*
X102590851Y-74152383D03*
%TD*%
D33*
%TO.P,J3,N,N_N*%
%TO.N,Net-(D5-A)*%
X129493963Y-99036494D03*
D34*
%TO.P,J3,P,P_P*%
%TO.N,VCAP*%
X129493963Y-104036494D03*
D35*
%TO.P,J3,S1*%
%TO.N,N/C*%
X119493963Y-96036494D03*
%TO.P,J3,S2*%
X119493963Y-107036494D03*
%TD*%
D36*
%TO.P,PS1,1,-Vin_1*%
%TO.N,GND*%
X106260000Y-88265000D03*
D37*
%TO.P,PS1,2,+Vin_2*%
%TO.N,+12V*%
X108800000Y-88265000D03*
%TO.P,PS1,3,-Vout_3*%
%TO.N,GNDPWR*%
X111340000Y-88265000D03*
%TO.P,PS1,4,+Vout_4*%
%TO.N,+15V_SEC*%
X113880000Y-88265000D03*
%TD*%
D31*
%TO.P,C33,1*%
%TO.N,VCAP*%
X148137235Y-158727800D03*
D32*
%TO.P,C33,2*%
%TO.N,GNDPWR*%
X138137235Y-158727800D03*
%TD*%
D38*
%TO.P,R23,1*%
%TO.N,Net-(Q3-G)*%
X97624000Y-85725000D03*
%TO.P,R23,2*%
%TO.N,GND*%
X97624000Y-83725000D03*
%TD*%
D39*
%TO.P,Q3,1,G_1*%
%TO.N,Net-(Q3-G)*%
X97624000Y-88773000D03*
%TO.P,Q3,2,S_2*%
%TO.N,GND*%
X99524000Y-88773000D03*
%TO.P,Q3,3,D_3*%
%TO.N,Net-(Q2-S)*%
X98574000Y-90648000D03*
%TD*%
D40*
%TO.P,C12,1*%
%TO.N,LT3751_UVLO_1*%
X64350000Y-121945400D03*
%TO.P,C12,2*%
%TO.N,GND*%
X64350000Y-124020400D03*
%TD*%
%TO.P,C14,1*%
%TO.N,Net-(U2-CHARGE)*%
X50634000Y-121953200D03*
%TO.P,C14,2*%
%TO.N,GND*%
X50634000Y-124028200D03*
%TD*%
D41*
%TO.P,C5,1*%
%TO.N,+24V*%
X79865500Y-124714000D03*
%TO.P,C5,2*%
%TO.N,GND*%
X77790500Y-124714000D03*
%TD*%
D40*
%TO.P,C11,1*%
%TO.N,LT3751_DONE*%
X52920000Y-121920000D03*
%TO.P,C11,2*%
%TO.N,GND*%
X52920000Y-123995000D03*
%TD*%
D39*
%TO.P,Q2,1,G_1*%
%TO.N,Net-(Q2-G)*%
X92036000Y-88676000D03*
%TO.P,Q2,2,S_2*%
%TO.N,Net-(Q2-S)*%
X93936000Y-88676000D03*
%TO.P,Q2,3,D_3*%
%TO.N,Net-(Q2-D)*%
X92986000Y-90551000D03*
%TD*%
D40*
%TO.P,C17,1*%
%TO.N,LT3751_UVLO_2*%
X59778000Y-121945400D03*
%TO.P,C17,2*%
%TO.N,GND*%
X59778000Y-124020400D03*
%TD*%
%TO.P,C13,1*%
%TO.N,LT3751_OVLO_1*%
X62064000Y-121945400D03*
%TO.P,C13,2*%
%TO.N,GND*%
X62064000Y-124020400D03*
%TD*%
D38*
%TO.P,R22,1*%
%TO.N,Net-(Q2-G)*%
X94830000Y-85709000D03*
%TO.P,R22,2*%
%TO.N,GND*%
X94830000Y-83709000D03*
%TD*%
D42*
%TO.P,JP2,1,A_1*%
%TO.N,LT3751_OVLO_1*%
X62826000Y-119253000D03*
D43*
%TO.P,JP2,2,B_2*%
%TO.N,GND*%
X62826000Y-117953000D03*
%TD*%
D44*
%TO.P,D1,1,A1_1*%
%TO.N,+24V*%
X80860000Y-120015000D03*
%TO.P,D1,2,A2_2*%
%TO.N,GND*%
X76560000Y-120015000D03*
%TD*%
D45*
%TO.P,R25,1*%
%TO.N,+24V*%
X95588000Y-120396000D03*
%TO.P,R25,2*%
%TO.N,Net-(R25-Pad2)*%
X101688000Y-120396000D03*
%TD*%
D46*
%TO.P,C7,1*%
%TO.N,+12V*%
X50507000Y-134366000D03*
%TO.P,C7,2*%
%TO.N,GND*%
X50507000Y-132291000D03*
%TD*%
%TO.P,C10,1*%
%TO.N,+12V*%
X52931000Y-134366000D03*
%TO.P,C10,2*%
%TO.N,GND*%
X52931000Y-132291000D03*
%TD*%
D40*
%TO.P,C15,1*%
%TO.N,LT3751_FAULT*%
X55206000Y-121920000D03*
%TO.P,C15,2*%
%TO.N,GND*%
X55206000Y-123995000D03*
%TD*%
D47*
%TO.P,JP3,1,A_1*%
%TO.N,+12V*%
X60159000Y-117953000D03*
D48*
%TO.P,JP3,2,B_2*%
%TO.N,LT3751_UVLO_2*%
X60159000Y-119253000D03*
%TD*%
D49*
%TO.P,R21,1*%
%TO.N,MCU_OUT_BLEEDER*%
X100412506Y-83717078D03*
%TO.P,R21,2*%
%TO.N,Net-(Q3-G)*%
X100412506Y-85717078D03*
%TD*%
D38*
%TO.P,R20,1*%
%TO.N,+12V*%
X89496000Y-91789000D03*
%TO.P,R20,2*%
%TO.N,Net-(Q2-G)*%
X89496000Y-89789000D03*
%TD*%
D40*
%TO.P,C18,1*%
%TO.N,LT3751_OVLO_2*%
X57492000Y-121945400D03*
%TO.P,C18,2*%
%TO.N,GND*%
X57492000Y-124020400D03*
%TD*%
D47*
%TO.P,JP1,1,A_1*%
%TO.N,+12V*%
X65493000Y-117953000D03*
D48*
%TO.P,JP1,2,B_2*%
%TO.N,LT3751_UVLO_1*%
X65493000Y-119253000D03*
%TD*%
D50*
%TO.P,U4,1*%
%TO.N,Net-(R25-Pad2)*%
X109816000Y-131445000D03*
%TO.P,U4,2*%
%TO.N,Net-(Q2-D)*%
X109816000Y-128905000D03*
%TO.P,U4,3*%
%TO.N,unconnected-(U4-Pad3)*%
X109816000Y-126365000D03*
%TO.P,U4,4*%
%TO.N,GNDPWR*%
X118706000Y-126365000D03*
%TO.P,U4,5*%
%TO.N,unconnected-(U4-Pad5)*%
X118706000Y-128905000D03*
%TO.P,U4,6*%
%TO.N,Net-(D4-K)*%
X118706000Y-131445000D03*
%TD*%
D42*
%TO.P,JP4,1,A_1*%
%TO.N,LT3751_OVLO_2*%
X57492000Y-119237000D03*
D43*
%TO.P,JP4,2,B_2*%
%TO.N,GND*%
X57492000Y-117937000D03*
%TD*%
D51*
%TO.N,+12V*%
X91020000Y-91821000D03*
%TO.N,+3.3V*%
X59143000Y-78232000D03*
%TO.N,+12V*%
X60159000Y-115951000D03*
%TO.N,+3.3V*%
X71589000Y-78232000D03*
X70954000Y-85471000D03*
%TO.N,GND*%
X65493000Y-100203000D03*
X66255000Y-100203000D03*
X67017000Y-100203000D03*
X65493000Y-100965000D03*
X66255000Y-100965000D03*
X67017000Y-100965000D03*
X86194000Y-70993000D03*
X72859000Y-125095000D03*
X69049000Y-125095000D03*
X69811000Y-125857000D03*
X63080000Y-90551000D03*
D52*
X58783400Y-129404900D03*
D51*
X94830000Y-64389000D03*
X63080000Y-87757000D03*
X63080000Y-92964000D03*
X72097000Y-125095000D03*
X71335000Y-125857000D03*
X69811000Y-125095000D03*
X72097000Y-125857000D03*
X71335000Y-125095000D03*
X94830000Y-63119000D03*
X70573000Y-125095000D03*
X72859000Y-125857000D03*
X70573000Y-125857000D03*
X69049000Y-125857000D03*
%TO.N,LT3751_DONE*%
X52920000Y-120523000D03*
X52920000Y-113157000D03*
%TO.N,Net-(Q4-G)*%
X120198000Y-78613000D03*
%TO.N,GNDPWR*%
X115023000Y-83312000D03*
X134073000Y-132715000D03*
X133311000Y-131953000D03*
X133311000Y-133477000D03*
X133311000Y-132715000D03*
X133311000Y-134239000D03*
X134073000Y-131953000D03*
X115023000Y-84963000D03*
X126453000Y-52705000D03*
X119595000Y-62738000D03*
X134073000Y-134239000D03*
X134073000Y-135001000D03*
X133311000Y-131191000D03*
X115023000Y-85725000D03*
X119087000Y-51562000D03*
X115023000Y-84201000D03*
X133311000Y-135001000D03*
X134073000Y-131191000D03*
X134073000Y-133477000D03*
%TO.N,+12V*%
X57492000Y-134366000D03*
D53*
X62889500Y-111569500D03*
D51*
X64731000Y-115443000D03*
%TO.N,LT3751_UVLO_2*%
X59778000Y-120523000D03*
%TO.N,MCU_I2C_SDA*%
X72605000Y-77343000D03*
X73367000Y-85471000D03*
%TO.N,MCU_OUT_BLEEDER*%
X80923500Y-75501500D03*
X84987500Y-79565500D03*
X99084500Y-83502500D03*
%TO.N,MCU_PWM_OUT_KICK*%
X80987000Y-72644000D03*
X85114500Y-76771500D03*
%TO.N,LT3751_FAULT*%
X55206000Y-113157000D03*
X55206000Y-120555000D03*
%TO.N,LT3751_OVLO_1*%
X62064000Y-120523000D03*
%TO.N,Net-(Q1-G)*%
X57492000Y-141478000D03*
%TO.N,Net-(Q1-S)*%
X57111000Y-136271000D03*
X69049000Y-135382000D03*
%TO.N,Net-(U7B--)*%
X117309000Y-57912000D03*
X116928000Y-53822600D03*
%TO.N,LT3751_UVLO_1*%
X64350000Y-120523000D03*
%TO.N,Net-(U2-CSN)*%
X68033000Y-127254000D03*
X55714000Y-135382000D03*
%TO.N,Net-(U2-CHARGE)*%
X50634000Y-120573800D03*
%TO.N,LT3751_OVLO_2*%
X57492000Y-120523000D03*
%TO.N,VCAP*%
X126834000Y-156845000D03*
%TD*%
%TO.N,Net-(C23-Pad1)*%
D54*
X87845000Y-140589000D02*
X90512000Y-140589000D01*
X85559000Y-138303000D02*
X87845000Y-140589000D01*
X84162000Y-138303000D02*
X85559000Y-138303000D01*
%TO.N,+12V*%
D55*
X90988000Y-91789000D02*
X91020000Y-91821000D01*
X89496000Y-91789000D02*
X90988000Y-91789000D01*
%TO.N,+3.3V*%
D56*
X54911295Y-82463705D02*
X53260295Y-82463705D01*
X59143000Y-78232000D02*
X54911295Y-82463705D01*
X53260295Y-82463705D02*
X50380000Y-82463705D01*
%TO.N,MCU_I2C_SDA*%
D55*
X73367000Y-78105000D02*
X72605000Y-77343000D01*
X73367000Y-85471000D02*
X73367000Y-78105000D01*
%TO.N,+3.3V*%
D56*
X70954000Y-78867000D02*
X71589000Y-78232000D01*
X70954000Y-85471000D02*
X70954000Y-78867000D01*
%TO.N,LT3751_DONE*%
D55*
X52920000Y-120523000D02*
X52920000Y-113157000D01*
X52920000Y-121920000D02*
X52920000Y-120523000D01*
%TO.N,Net-(Q4-G)*%
D56*
X128612000Y-84074000D02*
X128612000Y-88265000D01*
X121468000Y-79883000D02*
X120198000Y-78613000D01*
X124421000Y-79883000D02*
X121468000Y-79883000D01*
X124421000Y-79883000D02*
X128612000Y-84074000D01*
%TO.N,+12V*%
D55*
X64731000Y-115443000D02*
X65493000Y-116205000D01*
D57*
X46954647Y-132972647D02*
X48348000Y-134366000D01*
X50507000Y-134366000D02*
X52931000Y-134366000D01*
X62889500Y-111569500D02*
X48919500Y-111569500D01*
D55*
X65493000Y-116205000D02*
X65493000Y-117953000D01*
D57*
X57492000Y-134366000D02*
X52931000Y-134366000D01*
X48919500Y-111569500D02*
X46954647Y-113534353D01*
X48348000Y-134366000D02*
X50507000Y-134366000D01*
X46954647Y-113534353D02*
X46954647Y-132972647D01*
%TO.N,LT3751_UVLO_2*%
D55*
X60159000Y-120142000D02*
X59778000Y-120523000D01*
X59778000Y-121945400D02*
X59778000Y-120523000D01*
X60159000Y-119253000D02*
X60159000Y-120142000D01*
%TO.N,MCU_OUT_BLEEDER*%
X99299078Y-83717078D02*
X100412506Y-83717078D01*
X80923500Y-75501500D02*
X84987500Y-79565500D01*
X99084500Y-83502500D02*
X99299078Y-83717078D01*
%TO.N,MCU_PWM_OUT_KICK*%
X85114500Y-76771500D02*
X80987000Y-72644000D01*
%TO.N,LT3751_FAULT*%
X55206000Y-121920000D02*
X55206000Y-120555000D01*
X55206000Y-120555000D02*
X55206000Y-113157000D01*
%TO.N,LT3751_OVLO_1*%
X62826000Y-119253000D02*
X62826000Y-119761000D01*
X62064000Y-121945400D02*
X62064000Y-120523000D01*
X62826000Y-119761000D02*
X62064000Y-120523000D01*
%TO.N,Net-(Q1-G)*%
D56*
X77304000Y-141986000D02*
X75653000Y-143637000D01*
X77304000Y-140335000D02*
X77304000Y-141986000D01*
X59651000Y-143637000D02*
X57492000Y-141478000D01*
X75653000Y-143637000D02*
X59651000Y-143637000D01*
%TO.N,Net-(Q1-S)*%
D55*
X68160000Y-136271000D02*
X69049000Y-135382000D01*
X57111000Y-136271000D02*
X68160000Y-136271000D01*
%TO.N,Net-(U7B--)*%
X116928000Y-57531000D02*
X117309000Y-57912000D01*
X116928000Y-53822600D02*
X116928000Y-57531000D01*
%TO.N,LT3751_UVLO_1*%
X65493000Y-119380000D02*
X64350000Y-120523000D01*
X64350000Y-121945400D02*
X64350000Y-120523000D01*
X65493000Y-119253000D02*
X65493000Y-119380000D01*
%TO.N,unconnected-(U5-Pad7)*%
D56*
X104140000Y-66548000D02*
X105410000Y-66548000D01*
%TO.N,Net-(U2-CSN)*%
D55*
X57365000Y-135382000D02*
X57746000Y-135675485D01*
X55714000Y-135382000D02*
X57365000Y-135382000D01*
X66455000Y-135690000D02*
X67271000Y-134874000D01*
X67271000Y-128016000D02*
X67271000Y-128651000D01*
X67271000Y-134874000D02*
X67271000Y-128651000D01*
X57746000Y-135690000D02*
X66455000Y-135690000D01*
X57746000Y-135675485D02*
X57746000Y-135690000D01*
X68033000Y-127254000D02*
X67271000Y-128016000D01*
%TO.N,Net-(U2-CHARGE)*%
X50634000Y-120573800D02*
X50634000Y-121953200D01*
%TO.N,LT3751_OVLO_2*%
X57492000Y-120523000D02*
X57492000Y-121945400D01*
X57492000Y-119237000D02*
X57492000Y-120523000D01*
%TO.N,VCAP*%
D56*
X126834000Y-156845000D02*
X137756000Y-167767000D01*
X148137235Y-158727800D02*
X148137235Y-164497765D01*
X148137235Y-164497765D02*
X144868000Y-167767000D01*
X144868000Y-167767000D02*
X137756000Y-167767000D01*
%TO.N,Net-(Q3-G)*%
D55*
X97624000Y-88773000D02*
X97624000Y-85725000D01*
X97624000Y-85725000D02*
X100404584Y-85725000D01*
X100404584Y-85725000D02*
X100412506Y-85717078D01*
%TO.N,Net-(Q2-S)*%
X94733000Y-88676000D02*
X96705000Y-90648000D01*
X93936000Y-88676000D02*
X94733000Y-88676000D01*
X96705000Y-90648000D02*
X98574000Y-90648000D01*
%TO.N,Net-(Q2-G)*%
X92036000Y-88676000D02*
X92036000Y-87249000D01*
X92036000Y-88676000D02*
X90609000Y-88676000D01*
X93576000Y-85709000D02*
X92036000Y-87249000D01*
X94830000Y-85709000D02*
X93576000Y-85709000D01*
X90609000Y-88676000D02*
X89496000Y-89789000D01*
%TO.N,Net-(Q2-D)*%
X109689000Y-128905000D02*
X107911000Y-128905000D01*
X106641000Y-121666000D02*
X105752000Y-120777000D01*
X106641000Y-127635000D02*
X106641000Y-121666000D01*
X92986000Y-90551000D02*
X92986000Y-108011000D01*
X92986000Y-108011000D02*
X105752000Y-120777000D01*
X107911000Y-128905000D02*
X106641000Y-127635000D01*
%TO.N,Net-(R25-Pad2)*%
X109689000Y-131445000D02*
X108800000Y-131445000D01*
X108800000Y-131445000D02*
X105625000Y-128270000D01*
X105625000Y-128270000D02*
X105625000Y-122809000D01*
X105625000Y-122809000D02*
X103212000Y-120396000D01*
X103212000Y-120396000D02*
X101688000Y-120396000D01*
%TO.N,+12V*%
X60159000Y-115951000D02*
X60159000Y-117953000D01*
%TD*%
%TA.AperFunction,Conductor*%
%TO.N,GND*%
G36*
X72328801Y-40827194D02*
G01*
X72330149Y-40827718D01*
X72380495Y-40863927D01*
X72385851Y-40870357D01*
X72400862Y-40893038D01*
X83494626Y-62479171D01*
X83563529Y-62613240D01*
X83638623Y-62696058D01*
X83652052Y-62710868D01*
X83652057Y-62710871D01*
X83652058Y-62710872D01*
X83762050Y-62781757D01*
X83762852Y-62782282D01*
X83764221Y-62782703D01*
X83821610Y-62801129D01*
X83888300Y-62822541D01*
X83888301Y-62822541D01*
X83889606Y-62822960D01*
X83904015Y-62826935D01*
X83921036Y-62824142D01*
X84019927Y-62828979D01*
X84148735Y-62801129D01*
X84206406Y-62771488D01*
X84206936Y-62771219D01*
X84207975Y-62770695D01*
X84208224Y-62770570D01*
X85313708Y-62222032D01*
X85315216Y-62221297D01*
X85316775Y-62220550D01*
X85318276Y-62219844D01*
X86437436Y-61703397D01*
X86438851Y-61702756D01*
X86440644Y-61701958D01*
X86442144Y-61701305D01*
X87575428Y-61216694D01*
X87576784Y-61216125D01*
X87578642Y-61215361D01*
X87580071Y-61214786D01*
X88726634Y-60762373D01*
X88727935Y-60761870D01*
X88730010Y-60761085D01*
X88731266Y-60760621D01*
X89890201Y-60340765D01*
X89891708Y-60340231D01*
X89893467Y-60339622D01*
X89894950Y-60339120D01*
X91065276Y-59952179D01*
X91066773Y-59951696D01*
X91068527Y-59951144D01*
X91070117Y-59950655D01*
X91120343Y-59935610D01*
X92250936Y-59596927D01*
X92252283Y-59596534D01*
X92254171Y-59595997D01*
X92255621Y-59595596D01*
X93445956Y-59275374D01*
X93447495Y-59274971D01*
X93449304Y-59274512D01*
X93450860Y-59274129D01*
X94649677Y-58987689D01*
X94651347Y-58987303D01*
X94652944Y-58986945D01*
X94654534Y-58986600D01*
X95861086Y-58734119D01*
X95862612Y-58733812D01*
X95864463Y-58733451D01*
X95866031Y-58733158D01*
X97079042Y-58514904D01*
X97080588Y-58514637D01*
X97082524Y-58514316D01*
X97084123Y-58514064D01*
X98302937Y-58330150D01*
X98304427Y-58329936D01*
X98306261Y-58329685D01*
X98307839Y-58329481D01*
X99531341Y-58180079D01*
X99532967Y-58179892D01*
X99534909Y-58179684D01*
X99536441Y-58179530D01*
X100763679Y-58064755D01*
X100765161Y-58064628D01*
X100767121Y-58064473D01*
X100768551Y-58064370D01*
X101998635Y-57984311D01*
X102000153Y-57984222D01*
X102002139Y-57984121D01*
X102003658Y-57984054D01*
X103235389Y-57938786D01*
X103236953Y-57938739D01*
X103238788Y-57938697D01*
X103240359Y-57938671D01*
X104473019Y-57928222D01*
X104474684Y-57928221D01*
X104475218Y-57928223D01*
X104476352Y-57928230D01*
X104477970Y-57928249D01*
X105710400Y-57952630D01*
X105712021Y-57952674D01*
X105713843Y-57952735D01*
X105715515Y-57952804D01*
X106946615Y-58011990D01*
X106948261Y-58012081D01*
X106950058Y-58012194D01*
X106951701Y-58012308D01*
X108180537Y-58106245D01*
X108182241Y-58106387D01*
X108182520Y-58106412D01*
X108183985Y-58106544D01*
X108185685Y-58106710D01*
X108925213Y-58184313D01*
X108959432Y-58192955D01*
X108973886Y-58198899D01*
X109028397Y-58242596D01*
X109031397Y-58246893D01*
X109052098Y-58297858D01*
X109052373Y-58299539D01*
X109054000Y-58319558D01*
X109054000Y-86752684D01*
X109048975Y-86787625D01*
X109045064Y-86800942D01*
X109007287Y-86859718D01*
X108943740Y-86888738D01*
X108930855Y-86890591D01*
X108893808Y-86890328D01*
X108888580Y-86889500D01*
X108888579Y-86889500D01*
X108711421Y-86889500D01*
X108653095Y-86898738D01*
X108536439Y-86917214D01*
X108367983Y-86971947D01*
X108367964Y-86971954D01*
X108367963Y-86971954D01*
X108367957Y-86971956D01*
X108367957Y-86971957D01*
X108355660Y-86978223D01*
X108210105Y-87052388D01*
X108128337Y-87111795D01*
X108128338Y-87111796D01*
X108078655Y-87147893D01*
X108071276Y-87152025D01*
X107937024Y-87286277D01*
X107932891Y-87293658D01*
X107903674Y-87333869D01*
X107903675Y-87333870D01*
X107837384Y-87425112D01*
X107756954Y-87582963D01*
X107756954Y-87582964D01*
X107756947Y-87582983D01*
X107702214Y-87751439D01*
X107674500Y-87926421D01*
X107674500Y-88603577D01*
X107702214Y-88778559D01*
X107756947Y-88947015D01*
X107756955Y-88947038D01*
X107756957Y-88947042D01*
X107825444Y-89081452D01*
X107837386Y-89104890D01*
X107941517Y-89248214D01*
X108066786Y-89373483D01*
X108210110Y-89477614D01*
X108367958Y-89558042D01*
X108444699Y-89582976D01*
X108476368Y-89598547D01*
X108485706Y-89604932D01*
X108529932Y-89659023D01*
X108537894Y-89728438D01*
X108507066Y-89791135D01*
X108501304Y-89797413D01*
X108468405Y-89822923D01*
X108452833Y-89831247D01*
X108441824Y-89836454D01*
X108430618Y-89841095D01*
X108419166Y-89845192D01*
X108266605Y-89891471D01*
X108254799Y-89894428D01*
X108242903Y-89896794D01*
X108230869Y-89898579D01*
X108063095Y-89915104D01*
X108057028Y-89915551D01*
X108050945Y-89915850D01*
X108044857Y-89916000D01*
X103212000Y-89916000D01*
X103212000Y-91145056D01*
X103206975Y-91180000D01*
X103202570Y-91194998D01*
X103164803Y-91253762D01*
X103160440Y-91257543D01*
X103112901Y-91283177D01*
X103112185Y-91283379D01*
X103093463Y-91287133D01*
X102654778Y-91340400D01*
X102654569Y-91340412D01*
X102645948Y-91341473D01*
X102643437Y-91342017D01*
X102251233Y-91413892D01*
X102023130Y-91455693D01*
X101406987Y-91607558D01*
X101406963Y-91607566D01*
X101406882Y-91607591D01*
X100801159Y-91796342D01*
X100207818Y-92021365D01*
X99629132Y-92281810D01*
X99067206Y-92576732D01*
X98524173Y-92905008D01*
X98524136Y-92905031D01*
X98001905Y-93265502D01*
X97502376Y-93656856D01*
X97499577Y-93659337D01*
X97499568Y-93659345D01*
X97027401Y-94077648D01*
X97027355Y-94077691D01*
X96578691Y-94526355D01*
X96578648Y-94526401D01*
X96160345Y-94998568D01*
X96160336Y-94998576D01*
X96160337Y-94998577D01*
X96157856Y-95001376D01*
X95766502Y-95500905D01*
X95406031Y-96023136D01*
X95406008Y-96023173D01*
X95077732Y-96566206D01*
X94782810Y-97128132D01*
X94696623Y-97319634D01*
X94677705Y-97349429D01*
X94667535Y-97361297D01*
X94608966Y-97399394D01*
X94594317Y-97403783D01*
X94558728Y-97409000D01*
X93568830Y-97409000D01*
X93533889Y-97403975D01*
X93518890Y-97399570D01*
X93460144Y-97361827D01*
X93458957Y-97360458D01*
X93431477Y-97305583D01*
X93429832Y-97298021D01*
X93427000Y-97271668D01*
X93427000Y-91483083D01*
X93432023Y-91448149D01*
X93439434Y-91422909D01*
X93460983Y-91386682D01*
X93458311Y-91384741D01*
X93464042Y-91376849D01*
X93464048Y-91376844D01*
X93464050Y-91376842D01*
X93521646Y-91263804D01*
X93521646Y-91263802D01*
X93521647Y-91263801D01*
X93521647Y-91263799D01*
X93521965Y-91263176D01*
X93522785Y-91259058D01*
X93522789Y-91259039D01*
X93523173Y-91254168D01*
X93536111Y-91172479D01*
X93536437Y-91170654D01*
X93536499Y-91170023D01*
X93536500Y-91170019D01*
X93536499Y-89931982D01*
X93521646Y-89838196D01*
X93521644Y-89838193D01*
X93521644Y-89838190D01*
X93518630Y-89828912D01*
X93518788Y-89828860D01*
X93511236Y-89806702D01*
X93509149Y-89795589D01*
X93516122Y-89726068D01*
X93559574Y-89671353D01*
X93625706Y-89648816D01*
X93639185Y-89648239D01*
X93663881Y-89649650D01*
X93754248Y-89663963D01*
X93754462Y-89663998D01*
X93754471Y-89663998D01*
X93754475Y-89663999D01*
X93754481Y-89664000D01*
X94117518Y-89663999D01*
X94211304Y-89649146D01*
X94324342Y-89591550D01*
X94414050Y-89501842D01*
X94462734Y-89406293D01*
X94466610Y-89400959D01*
X94469777Y-89393314D01*
X94472529Y-89387344D01*
X94473172Y-89379168D01*
X94478709Y-89344208D01*
X94489132Y-89310499D01*
X94494683Y-89298789D01*
X94541187Y-89246646D01*
X94608501Y-89227922D01*
X94670767Y-89245726D01*
X94677197Y-89249603D01*
X94678707Y-89250514D01*
X94702347Y-89269015D01*
X96352112Y-90918780D01*
X96434220Y-91000888D01*
X96534780Y-91058946D01*
X96646941Y-91089000D01*
X97881671Y-91089000D01*
X97916607Y-91094023D01*
X97931605Y-91098427D01*
X97990356Y-91136172D01*
X97991543Y-91137541D01*
X98019019Y-91192402D01*
X98020664Y-91199960D01*
X98023501Y-91226331D01*
X98023501Y-91267018D01*
X98038354Y-91360804D01*
X98095950Y-91473842D01*
X98095952Y-91473845D01*
X98095953Y-91473846D01*
X98095954Y-91473847D01*
X98185652Y-91563545D01*
X98185653Y-91563545D01*
X98185658Y-91563550D01*
X98185659Y-91563551D01*
X98185754Y-91563599D01*
X98298694Y-91621145D01*
X98298698Y-91621147D01*
X98392220Y-91635958D01*
X98392457Y-91635997D01*
X98392466Y-91635997D01*
X98392475Y-91635999D01*
X98392481Y-91636000D01*
X98755518Y-91635999D01*
X98849304Y-91621146D01*
X98962342Y-91563550D01*
X99052050Y-91473842D01*
X99109646Y-91360804D01*
X99109646Y-91360802D01*
X99109647Y-91360801D01*
X99109647Y-91360799D01*
X99109964Y-91360178D01*
X99110785Y-91356054D01*
X99110789Y-91356034D01*
X99111173Y-91351166D01*
X99123155Y-91275512D01*
X99123156Y-91275503D01*
X99124500Y-91267019D01*
X99124499Y-90028982D01*
X99109646Y-89935196D01*
X99052050Y-89822158D01*
X99052046Y-89822154D01*
X99052045Y-89822152D01*
X98962347Y-89732454D01*
X98962346Y-89732453D01*
X98962344Y-89732451D01*
X98867410Y-89684079D01*
X98867409Y-89684079D01*
X98849300Y-89674851D01*
X98849296Y-89674850D01*
X98755530Y-89660000D01*
X98755524Y-89660000D01*
X98392482Y-89660000D01*
X98392476Y-89660000D01*
X98321647Y-89671217D01*
X98321648Y-89671218D01*
X98312575Y-89672655D01*
X98296701Y-89674132D01*
X98272188Y-89674829D01*
X98204617Y-89657058D01*
X98157379Y-89605576D01*
X98145474Y-89536733D01*
X98146349Y-89529110D01*
X98159057Y-89486958D01*
X98159646Y-89485804D01*
X98174500Y-89392019D01*
X98174499Y-88153982D01*
X98159646Y-88060196D01*
X98117586Y-87977649D01*
X98117176Y-87975468D01*
X98107526Y-87957795D01*
X98105899Y-87954712D01*
X98102050Y-87947158D01*
X98101740Y-87946543D01*
X98100404Y-87943872D01*
X98096897Y-87938328D01*
X98080165Y-87907687D01*
X98065000Y-87848264D01*
X98065000Y-86710826D01*
X98070023Y-86675890D01*
X98074427Y-86660892D01*
X98112189Y-86602126D01*
X98113909Y-86600634D01*
X98116212Y-86598639D01*
X98164663Y-86572749D01*
X98166169Y-86572336D01*
X98174110Y-86570832D01*
X98181474Y-86569091D01*
X98181483Y-86569091D01*
X98316331Y-86518796D01*
X98431546Y-86432546D01*
X98517796Y-86317331D01*
X98537921Y-86263372D01*
X98554834Y-86232398D01*
X98559889Y-86225644D01*
X98564202Y-86219882D01*
X98620132Y-86178011D01*
X98631383Y-86173814D01*
X98674707Y-86166000D01*
X99361297Y-86166000D01*
X99396233Y-86171023D01*
X99411231Y-86175427D01*
X99470004Y-86213196D01*
X99477858Y-86222259D01*
X99500332Y-86260136D01*
X99518706Y-86309403D01*
X99518709Y-86309409D01*
X99518718Y-86309422D01*
X99604949Y-86424611D01*
X99604959Y-86424623D01*
X99604962Y-86424626D01*
X99633925Y-86446307D01*
X99720170Y-86510871D01*
X99720177Y-86510875D01*
X99769661Y-86529331D01*
X99805019Y-86555799D01*
X99861950Y-86561913D01*
X99861949Y-86561917D01*
X99861964Y-86561914D01*
X99914633Y-86567578D01*
X100910378Y-86567577D01*
X100969989Y-86561169D01*
X101104837Y-86510874D01*
X101220052Y-86424624D01*
X101306302Y-86309409D01*
X101356597Y-86174561D01*
X101363006Y-86114951D01*
X101363005Y-85319206D01*
X101356597Y-85259595D01*
X101356194Y-85258515D01*
X101306303Y-85124749D01*
X101306299Y-85124742D01*
X101225984Y-85017456D01*
X101220054Y-85009534D01*
X101220048Y-85009528D01*
X101115423Y-84931206D01*
X101104841Y-84923284D01*
X101104838Y-84923282D01*
X101104836Y-84923281D01*
X101104834Y-84923280D01*
X101055350Y-84904824D01*
X101020003Y-84878362D01*
X100918089Y-84867406D01*
X100913248Y-84866578D01*
X100910387Y-84866578D01*
X100910379Y-84866578D01*
X100910370Y-84866578D01*
X99914635Y-84866578D01*
X99914629Y-84866578D01*
X99911391Y-84866845D01*
X99911051Y-84866963D01*
X99855022Y-84872986D01*
X99741825Y-84915206D01*
X99720172Y-84923282D01*
X99720171Y-84923283D01*
X99604962Y-85009528D01*
X99604956Y-85009534D01*
X99518711Y-85124743D01*
X99518707Y-85124749D01*
X99518706Y-85124751D01*
X99495629Y-85186626D01*
X99478716Y-85217601D01*
X99469348Y-85230116D01*
X99413416Y-85271989D01*
X99413414Y-85271990D01*
X99402178Y-85276181D01*
X99358843Y-85284000D01*
X98678164Y-85284000D01*
X98643223Y-85278975D01*
X98628224Y-85274570D01*
X98569453Y-85236799D01*
X98561598Y-85227734D01*
X98539128Y-85189864D01*
X98538184Y-85187333D01*
X98517797Y-85132671D01*
X98517793Y-85132664D01*
X98431547Y-85017455D01*
X98431544Y-85017452D01*
X98431542Y-85017450D01*
X98373616Y-84974086D01*
X98316335Y-84931206D01*
X98316332Y-84931204D01*
X98316330Y-84931203D01*
X98316328Y-84931202D01*
X98266844Y-84912746D01*
X98231497Y-84886284D01*
X98129583Y-84875328D01*
X98124742Y-84874500D01*
X98121881Y-84874500D01*
X98121873Y-84874500D01*
X98121864Y-84874500D01*
X97126129Y-84874500D01*
X97126123Y-84874500D01*
X97124192Y-84874659D01*
X97122545Y-84874885D01*
X97066516Y-84880908D01*
X96952901Y-84923284D01*
X96931666Y-84931204D01*
X96931665Y-84931205D01*
X96816456Y-85017450D01*
X96816450Y-85017456D01*
X96730205Y-85132665D01*
X96730203Y-85132668D01*
X96679907Y-85267516D01*
X96673501Y-85327116D01*
X96673500Y-85327139D01*
X96673500Y-86122876D01*
X96673659Y-86124806D01*
X96673885Y-86126454D01*
X96679907Y-86182482D01*
X96698525Y-86232398D01*
X96730202Y-86317328D01*
X96730203Y-86317330D01*
X96730204Y-86317332D01*
X96730205Y-86317333D01*
X96816450Y-86432542D01*
X96816452Y-86432544D01*
X96816455Y-86432547D01*
X96931664Y-86518793D01*
X96931671Y-86518797D01*
X96976618Y-86535561D01*
X97066517Y-86569091D01*
X97066530Y-86569092D01*
X97066682Y-86569129D01*
X97085630Y-86575247D01*
X97097593Y-86580203D01*
X97103170Y-86582513D01*
X97157572Y-86626355D01*
X97157574Y-86626357D01*
X97160610Y-86630730D01*
X97181145Y-86681553D01*
X97181394Y-86683085D01*
X97183000Y-86702978D01*
X97183000Y-87840915D01*
X97177976Y-87875853D01*
X97170390Y-87901686D01*
X97149127Y-87943090D01*
X97145956Y-87947147D01*
X97145945Y-87947166D01*
X97088353Y-88060195D01*
X97088350Y-88060203D01*
X97073500Y-88153969D01*
X97073500Y-88153975D01*
X97073500Y-89392017D01*
X97082128Y-89446491D01*
X97088354Y-89485804D01*
X97142293Y-89591664D01*
X97145952Y-89598845D01*
X97145953Y-89598846D01*
X97145954Y-89598847D01*
X97235652Y-89688545D01*
X97235653Y-89688545D01*
X97235658Y-89688550D01*
X97235659Y-89688551D01*
X97235754Y-89688599D01*
X97345699Y-89744619D01*
X97348698Y-89746147D01*
X97442265Y-89760965D01*
X97442458Y-89760997D01*
X97442465Y-89760997D01*
X97442475Y-89760999D01*
X97442481Y-89761000D01*
X97805518Y-89760999D01*
X97805522Y-89760999D01*
X97841197Y-89755348D01*
X97885407Y-89748346D01*
X97901248Y-89746872D01*
X97909262Y-89746642D01*
X97909263Y-89746643D01*
X97917610Y-89746403D01*
X97925790Y-89746170D01*
X97993364Y-89763929D01*
X98040610Y-89815404D01*
X98052527Y-89884249D01*
X98052526Y-89884256D01*
X98051652Y-89891872D01*
X98038950Y-89934021D01*
X98038352Y-89935193D01*
X98023500Y-90028970D01*
X98023500Y-90065170D01*
X98018475Y-90100114D01*
X98014070Y-90115112D01*
X97976327Y-90173855D01*
X97974958Y-90175042D01*
X97920097Y-90202518D01*
X97912539Y-90204163D01*
X97886168Y-90207000D01*
X96956860Y-90207000D01*
X96921924Y-90201977D01*
X96896682Y-90194565D01*
X96843937Y-90163269D01*
X95003789Y-88323120D01*
X95003782Y-88323114D01*
X95003776Y-88323109D01*
X95003775Y-88323108D01*
X94917361Y-88273218D01*
X94917356Y-88273214D01*
X94903222Y-88265054D01*
X94865833Y-88255036D01*
X94791059Y-88235000D01*
X94791058Y-88235000D01*
X94628329Y-88235000D01*
X94593388Y-88229975D01*
X94578389Y-88225570D01*
X94519643Y-88187827D01*
X94518456Y-88186458D01*
X94490976Y-88131583D01*
X94489331Y-88124021D01*
X94486499Y-88097668D01*
X94486499Y-88056983D01*
X94486499Y-88056982D01*
X94486498Y-88056975D01*
X94471646Y-87963196D01*
X94414050Y-87850158D01*
X94414046Y-87850154D01*
X94414045Y-87850152D01*
X94324347Y-87760454D01*
X94324346Y-87760453D01*
X94324343Y-87760450D01*
X94247519Y-87721305D01*
X94247519Y-87721306D01*
X94246258Y-87720663D01*
X94211301Y-87702852D01*
X94211299Y-87702851D01*
X94211298Y-87702851D01*
X94211296Y-87702850D01*
X94117530Y-87688000D01*
X94117524Y-87688000D01*
X93754482Y-87688000D01*
X93754478Y-87688000D01*
X93689711Y-87698258D01*
X93673519Y-87700823D01*
X93660721Y-87702850D01*
X93660696Y-87702854D01*
X93547650Y-87760454D01*
X93457955Y-87850149D01*
X93457946Y-87850164D01*
X93400353Y-87963195D01*
X93400350Y-87963203D01*
X93385500Y-88056969D01*
X93385500Y-88056975D01*
X93385500Y-89295017D01*
X93390503Y-89326604D01*
X93400354Y-89388804D01*
X93403370Y-89398085D01*
X93403210Y-89398136D01*
X93410761Y-89420294D01*
X93412848Y-89431406D01*
X93405877Y-89500927D01*
X93362426Y-89555643D01*
X93296291Y-89578181D01*
X93296285Y-89578181D01*
X93282812Y-89578758D01*
X93258110Y-89577346D01*
X93167525Y-89563000D01*
X93167524Y-89563000D01*
X92804482Y-89563000D01*
X92804476Y-89563000D01*
X92733647Y-89574217D01*
X92733648Y-89574218D01*
X92724575Y-89575655D01*
X92708701Y-89577132D01*
X92684188Y-89577829D01*
X92616617Y-89560058D01*
X92569379Y-89508576D01*
X92557474Y-89439733D01*
X92558349Y-89432110D01*
X92571057Y-89389958D01*
X92571646Y-89388804D01*
X92586500Y-89295019D01*
X92586499Y-88056982D01*
X92571646Y-87963196D01*
X92529586Y-87880649D01*
X92529176Y-87878468D01*
X92519526Y-87860795D01*
X92517899Y-87857712D01*
X92514050Y-87850158D01*
X92513740Y-87849543D01*
X92512404Y-87846872D01*
X92508897Y-87841328D01*
X92492165Y-87810687D01*
X92477000Y-87751264D01*
X92477000Y-87500859D01*
X92482022Y-87465926D01*
X92489434Y-87440681D01*
X92520728Y-87387939D01*
X93071115Y-86837553D01*
X93697827Y-86210839D01*
X93726077Y-86189692D01*
X93738260Y-86183039D01*
X93806534Y-86168189D01*
X93871995Y-86192606D01*
X93875677Y-86195362D01*
X93917539Y-86251290D01*
X93929092Y-86282266D01*
X93936202Y-86301329D01*
X93936203Y-86301330D01*
X93936206Y-86301335D01*
X93948184Y-86317335D01*
X94022450Y-86416542D01*
X94022452Y-86416544D01*
X94022455Y-86416547D01*
X94137664Y-86502793D01*
X94137671Y-86502797D01*
X94187155Y-86521253D01*
X94222513Y-86547721D01*
X94279444Y-86553835D01*
X94279443Y-86553839D01*
X94279458Y-86553836D01*
X94332127Y-86559500D01*
X95327872Y-86559499D01*
X95387483Y-86553091D01*
X95522331Y-86502796D01*
X95637546Y-86416546D01*
X95723796Y-86301331D01*
X95774091Y-86166483D01*
X95780500Y-86106873D01*
X95780499Y-85311128D01*
X95774091Y-85251517D01*
X95773773Y-85250665D01*
X95723797Y-85116671D01*
X95723793Y-85116664D01*
X95659229Y-85030419D01*
X95637548Y-85001456D01*
X95637542Y-85001450D01*
X95543708Y-84931206D01*
X95522335Y-84915206D01*
X95522332Y-84915204D01*
X95522330Y-84915203D01*
X95522328Y-84915202D01*
X95472844Y-84896746D01*
X95437497Y-84870284D01*
X95335583Y-84859328D01*
X95330742Y-84858500D01*
X95327881Y-84858500D01*
X95327873Y-84858500D01*
X95327864Y-84858500D01*
X94332129Y-84858500D01*
X94332123Y-84858500D01*
X94330192Y-84858659D01*
X94328545Y-84858885D01*
X94272516Y-84864908D01*
X94144254Y-84912747D01*
X94137666Y-84915204D01*
X94137665Y-84915205D01*
X94022456Y-85001450D01*
X94022450Y-85001456D01*
X93936205Y-85116665D01*
X93936203Y-85116668D01*
X93936202Y-85116669D01*
X93916077Y-85170629D01*
X93899165Y-85201601D01*
X93889798Y-85214115D01*
X93833867Y-85255988D01*
X93822630Y-85260180D01*
X93779293Y-85268000D01*
X93517941Y-85268000D01*
X93405788Y-85298050D01*
X93405777Y-85298054D01*
X93405775Y-85298055D01*
X93305227Y-85356106D01*
X93305221Y-85356110D01*
X93305211Y-85356118D01*
X91683120Y-86978209D01*
X91683114Y-86978216D01*
X91683109Y-86978222D01*
X91683105Y-86978227D01*
X91633217Y-87064638D01*
X91633216Y-87064640D01*
X91625054Y-87078776D01*
X91595000Y-87190942D01*
X91595000Y-87743915D01*
X91589976Y-87778853D01*
X91582390Y-87804686D01*
X91561127Y-87846090D01*
X91557956Y-87850147D01*
X91557945Y-87850166D01*
X91500353Y-87963195D01*
X91500350Y-87963203D01*
X91485500Y-88056969D01*
X91485500Y-88093170D01*
X91480475Y-88128114D01*
X91476070Y-88143112D01*
X91438327Y-88201855D01*
X91436958Y-88203042D01*
X91382097Y-88230518D01*
X91374539Y-88232163D01*
X91348168Y-88235000D01*
X90550941Y-88235000D01*
X90438788Y-88265050D01*
X90438777Y-88265054D01*
X90438775Y-88265055D01*
X90338227Y-88323106D01*
X90338221Y-88323110D01*
X90338211Y-88323118D01*
X89771756Y-88889573D01*
X89743505Y-88910722D01*
X89720417Y-88923330D01*
X89660987Y-88938500D01*
X88998123Y-88938500D01*
X88996192Y-88938659D01*
X88994545Y-88938885D01*
X88938516Y-88944908D01*
X88803666Y-88995204D01*
X88803665Y-88995205D01*
X88688456Y-89081450D01*
X88688455Y-89081452D01*
X88688452Y-89081455D01*
X88658083Y-89122023D01*
X88602205Y-89196665D01*
X88602203Y-89196668D01*
X88551907Y-89331516D01*
X88545501Y-89391116D01*
X88545500Y-89391139D01*
X88545500Y-90186876D01*
X88545659Y-90188806D01*
X88545885Y-90190454D01*
X88551907Y-90246482D01*
X88579690Y-90320971D01*
X88602202Y-90381328D01*
X88602203Y-90381330D01*
X88602204Y-90381332D01*
X88602205Y-90381333D01*
X88688450Y-90496542D01*
X88688452Y-90496544D01*
X88688455Y-90496547D01*
X88803664Y-90582793D01*
X88803671Y-90582797D01*
X88853157Y-90601254D01*
X88871427Y-90609821D01*
X88905970Y-90629596D01*
X88945444Y-90633835D01*
X88945443Y-90633839D01*
X88945458Y-90633836D01*
X88998127Y-90639500D01*
X89993872Y-90639499D01*
X90053483Y-90633091D01*
X90188331Y-90582796D01*
X90303546Y-90496546D01*
X90389796Y-90381331D01*
X90440091Y-90246483D01*
X90446500Y-90186873D01*
X90446499Y-89531356D01*
X90451521Y-89496425D01*
X90454302Y-89486954D01*
X90458932Y-89471184D01*
X90490226Y-89418440D01*
X90742744Y-89165923D01*
X90770994Y-89144775D01*
X90794086Y-89132167D01*
X90853511Y-89117000D01*
X91343671Y-89117000D01*
X91378607Y-89122023D01*
X91393605Y-89126427D01*
X91452356Y-89164172D01*
X91453543Y-89165541D01*
X91481019Y-89220402D01*
X91482664Y-89227960D01*
X91485501Y-89254331D01*
X91485501Y-89295018D01*
X91500354Y-89388804D01*
X91555190Y-89496425D01*
X91557952Y-89501845D01*
X91557953Y-89501846D01*
X91557954Y-89501847D01*
X91647652Y-89591545D01*
X91647653Y-89591545D01*
X91647658Y-89591550D01*
X91647659Y-89591551D01*
X91647755Y-89591599D01*
X91706229Y-89621393D01*
X91757594Y-89647566D01*
X91757595Y-89647566D01*
X91757601Y-89647569D01*
X91760698Y-89649147D01*
X91854220Y-89663958D01*
X91854457Y-89663997D01*
X91854466Y-89663997D01*
X91854475Y-89663999D01*
X91854481Y-89664000D01*
X92217518Y-89663999D01*
X92217522Y-89663999D01*
X92261345Y-89657058D01*
X92297407Y-89651346D01*
X92313248Y-89649872D01*
X92321262Y-89649642D01*
X92321263Y-89649643D01*
X92329610Y-89649403D01*
X92337790Y-89649170D01*
X92405364Y-89666929D01*
X92452610Y-89718404D01*
X92464527Y-89787249D01*
X92464526Y-89787256D01*
X92463652Y-89794872D01*
X92450950Y-89837021D01*
X92450352Y-89838193D01*
X92435500Y-89931970D01*
X92435500Y-91170020D01*
X92439721Y-91196668D01*
X92446292Y-91238157D01*
X92450354Y-91263804D01*
X92489843Y-91341305D01*
X92492392Y-91346307D01*
X92492805Y-91348511D01*
X92502529Y-91366315D01*
X92504168Y-91369420D01*
X92505752Y-91372528D01*
X92509808Y-91381323D01*
X92511670Y-91385814D01*
X92517236Y-91393244D01*
X92529827Y-91416299D01*
X92545000Y-91475734D01*
X92545000Y-97267170D01*
X92539975Y-97302114D01*
X92535570Y-97317112D01*
X92497827Y-97375855D01*
X92496458Y-97377042D01*
X92441597Y-97404518D01*
X92434039Y-97406163D01*
X92407668Y-97409000D01*
X82440137Y-97409000D01*
X82490397Y-97398316D01*
X82543643Y-97353076D01*
X82563977Y-97286231D01*
X82621212Y-91391139D01*
X88545500Y-91391139D01*
X88545500Y-92186876D01*
X88545659Y-92188806D01*
X88545885Y-92190454D01*
X88551907Y-92246482D01*
X88565084Y-92281810D01*
X88602202Y-92381328D01*
X88602203Y-92381330D01*
X88602204Y-92381332D01*
X88602205Y-92381333D01*
X88688450Y-92496542D01*
X88688452Y-92496544D01*
X88688455Y-92496547D01*
X88803664Y-92582793D01*
X88803671Y-92582797D01*
X88853155Y-92601253D01*
X88888513Y-92627721D01*
X88945444Y-92633835D01*
X88945443Y-92633839D01*
X88945458Y-92633836D01*
X88998127Y-92639500D01*
X89993872Y-92639499D01*
X90053483Y-92633091D01*
X90188331Y-92582796D01*
X90303546Y-92496546D01*
X90389796Y-92381331D01*
X90409921Y-92327372D01*
X90413847Y-92322128D01*
X90414983Y-92315675D01*
X90426834Y-92296398D01*
X90436202Y-92283883D01*
X90450473Y-92273198D01*
X90451791Y-92271439D01*
X90453849Y-92270671D01*
X90492132Y-92242011D01*
X90503383Y-92237814D01*
X90546707Y-92230000D01*
X90581284Y-92230000D01*
X90616219Y-92235023D01*
X90642487Y-92242736D01*
X90685357Y-92265161D01*
X90694097Y-92272204D01*
X90702270Y-92273582D01*
X90710043Y-92277709D01*
X90720737Y-92283883D01*
X90804069Y-92331995D01*
X90807087Y-92333869D01*
X90807514Y-92333983D01*
X90807515Y-92333984D01*
X90947525Y-92371500D01*
X90947528Y-92371500D01*
X91092472Y-92371500D01*
X91092475Y-92371500D01*
X91232485Y-92333984D01*
X91358015Y-92261509D01*
X91460509Y-92159015D01*
X91532984Y-92033485D01*
X91570500Y-91893475D01*
X91570500Y-91748525D01*
X91532984Y-91608515D01*
X91532431Y-91607558D01*
X91531422Y-91605810D01*
X91460513Y-91482991D01*
X91460508Y-91482984D01*
X91460493Y-91482968D01*
X91358030Y-91380505D01*
X91358014Y-91380490D01*
X91358006Y-91380485D01*
X91304243Y-91349445D01*
X91275808Y-91319624D01*
X91221007Y-91304939D01*
X91221007Y-91304940D01*
X91139786Y-91283177D01*
X91092475Y-91270500D01*
X91092474Y-91270500D01*
X90947528Y-91270500D01*
X90947525Y-91270500D01*
X90807515Y-91308016D01*
X90807512Y-91308017D01*
X90807511Y-91308018D01*
X90781168Y-91323226D01*
X90751271Y-91335610D01*
X90730024Y-91341304D01*
X90720805Y-91343774D01*
X90688709Y-91348000D01*
X90550164Y-91348000D01*
X90515223Y-91342975D01*
X90500224Y-91338570D01*
X90441453Y-91300799D01*
X90433598Y-91291734D01*
X90411128Y-91253864D01*
X90411090Y-91253762D01*
X90389797Y-91196671D01*
X90389793Y-91196664D01*
X90316252Y-91098427D01*
X90303548Y-91081456D01*
X90303542Y-91081450D01*
X90245616Y-91038086D01*
X90188335Y-90995206D01*
X90188332Y-90995204D01*
X90188330Y-90995203D01*
X90188328Y-90995202D01*
X90138844Y-90976746D01*
X90103497Y-90950284D01*
X90001583Y-90939328D01*
X89996742Y-90938500D01*
X89993881Y-90938500D01*
X89993873Y-90938500D01*
X89993864Y-90938500D01*
X88998129Y-90938500D01*
X88998123Y-90938500D01*
X88996192Y-90938659D01*
X88994545Y-90938885D01*
X88938516Y-90944908D01*
X88853152Y-90976747D01*
X88803666Y-90995204D01*
X88803665Y-90995205D01*
X88688456Y-91081450D01*
X88688450Y-91081456D01*
X88602205Y-91196665D01*
X88602203Y-91196668D01*
X88551907Y-91331516D01*
X88545501Y-91391116D01*
X88545500Y-91391139D01*
X82621212Y-91391139D01*
X82636784Y-89787204D01*
X82625584Y-89734489D01*
X82579829Y-89681685D01*
X82512790Y-89662000D01*
X74815362Y-89662000D01*
X74789004Y-89664834D01*
X74727681Y-89698319D01*
X68704319Y-95721681D01*
X68687685Y-95742323D01*
X68668000Y-95809362D01*
X68668000Y-97790000D01*
X68287000Y-97409000D01*
X68032999Y-97409000D01*
X68032998Y-97409000D01*
X67652000Y-97789998D01*
X67652000Y-108972857D01*
X67651850Y-108978945D01*
X67651551Y-108985028D01*
X67651104Y-108991095D01*
X67634579Y-109158869D01*
X67632794Y-109170903D01*
X67630428Y-109182799D01*
X67627471Y-109194605D01*
X67581191Y-109347171D01*
X67577090Y-109358631D01*
X67572451Y-109369830D01*
X67567249Y-109380828D01*
X67492101Y-109521421D01*
X67485842Y-109531864D01*
X67479100Y-109541953D01*
X67471854Y-109551722D01*
X67370716Y-109674959D01*
X67362544Y-109683975D01*
X67353975Y-109692544D01*
X67344959Y-109700716D01*
X67221722Y-109801854D01*
X67211953Y-109809100D01*
X67201864Y-109815842D01*
X67191421Y-109822101D01*
X67050828Y-109897249D01*
X67039830Y-109902451D01*
X67028631Y-109907090D01*
X67017171Y-109911191D01*
X66864605Y-109957471D01*
X66852799Y-109960428D01*
X66840903Y-109962794D01*
X66828869Y-109964579D01*
X66661095Y-109981104D01*
X66655028Y-109981551D01*
X66648945Y-109981850D01*
X66642857Y-109982000D01*
X44121713Y-109982000D01*
X44086772Y-109976975D01*
X44071773Y-109972570D01*
X44013011Y-109934809D01*
X44009005Y-109930187D01*
X43983556Y-109883305D01*
X43983522Y-109883187D01*
X43979745Y-109865114D01*
X43862307Y-108976772D01*
X43862132Y-108975384D01*
X43861951Y-108973883D01*
X43861788Y-108972465D01*
X43706295Y-107532132D01*
X43706146Y-107530662D01*
X43706018Y-107529325D01*
X43705887Y-107527867D01*
X43584864Y-106084311D01*
X43584754Y-106082894D01*
X43584642Y-106081343D01*
X43584560Y-106080095D01*
X43498055Y-104633895D01*
X43497981Y-104632498D01*
X43497907Y-104630935D01*
X43497848Y-104629515D01*
X43490591Y-104427158D01*
X43487786Y-104348928D01*
X43445940Y-103182079D01*
X43446040Y-103181686D01*
X43445895Y-103180580D01*
X43445858Y-103179021D01*
X43445833Y-103177655D01*
X43444133Y-103035341D01*
X43439936Y-102684074D01*
X43444537Y-102649096D01*
X43446496Y-102642117D01*
X43483557Y-102582892D01*
X43546758Y-102553103D01*
X43616032Y-102562212D01*
X43668038Y-102605330D01*
X43671349Y-102610142D01*
X43686234Y-102639470D01*
X43729132Y-102762065D01*
X43729136Y-102762076D01*
X43860732Y-103035336D01*
X43860936Y-103035694D01*
X43861622Y-103036753D01*
X44022108Y-103292164D01*
X44211221Y-103529304D01*
X44425696Y-103743779D01*
X44662836Y-103932892D01*
X44919659Y-104094265D01*
X45192935Y-104225868D01*
X45309221Y-104266558D01*
X45363397Y-104285515D01*
X45479191Y-104326034D01*
X45479212Y-104326041D01*
X45479216Y-104326042D01*
X45479228Y-104326046D01*
X45774937Y-104393540D01*
X45774946Y-104393541D01*
X45774951Y-104393542D01*
X45975874Y-104416180D01*
X45975873Y-104416180D01*
X45990677Y-104417847D01*
X46073341Y-104427161D01*
X46075806Y-104427500D01*
X46379660Y-104427500D01*
X46389455Y-104427500D01*
X46397055Y-104425539D01*
X46533694Y-104410144D01*
X46679298Y-104393739D01*
X46680865Y-104393585D01*
X46681734Y-104393390D01*
X46686188Y-104392408D01*
X46686919Y-104392203D01*
X46976772Y-104326046D01*
X47263065Y-104225868D01*
X47536341Y-104094265D01*
X47793164Y-103932892D01*
X48030304Y-103743779D01*
X48244779Y-103529304D01*
X48433892Y-103292164D01*
X48595265Y-103035341D01*
X48726868Y-102762065D01*
X48827046Y-102475772D01*
X48894540Y-102180063D01*
X48928500Y-101878657D01*
X48928500Y-101575343D01*
X48909838Y-101409708D01*
X48894542Y-101273951D01*
X48894541Y-101273946D01*
X48894540Y-101273937D01*
X48827046Y-100978228D01*
X48726868Y-100691935D01*
X48595265Y-100418659D01*
X48433892Y-100161836D01*
X48244779Y-99924696D01*
X48030304Y-99710221D01*
X48030301Y-99710219D01*
X47970078Y-99662193D01*
X47793164Y-99521108D01*
X47537753Y-99360622D01*
X47536694Y-99359936D01*
X47536336Y-99359732D01*
X47263075Y-99228136D01*
X47263061Y-99228130D01*
X46976807Y-99127964D01*
X46976791Y-99127959D01*
X46976765Y-99127951D01*
X46809208Y-99089707D01*
X46748556Y-99075864D01*
X46748555Y-99075863D01*
X46682246Y-99060730D01*
X46681211Y-99060483D01*
X46681038Y-99060455D01*
X46379669Y-99026500D01*
X46379663Y-99026500D01*
X46379657Y-99026500D01*
X46076343Y-99026500D01*
X46076336Y-99026500D01*
X46076329Y-99026500D01*
X45774965Y-99060455D01*
X45774942Y-99060458D01*
X45774917Y-99060464D01*
X45479224Y-99127954D01*
X45479212Y-99127957D01*
X45479191Y-99127964D01*
X45192937Y-99228130D01*
X45192923Y-99228136D01*
X44919663Y-99359731D01*
X44662838Y-99521106D01*
X44425696Y-99710219D01*
X44211219Y-99924696D01*
X44022108Y-100161836D01*
X43860731Y-100418663D01*
X43729136Y-100691923D01*
X43729132Y-100691932D01*
X43686645Y-100813352D01*
X43670369Y-100844662D01*
X43666147Y-100850549D01*
X43611081Y-100893555D01*
X43541506Y-100899963D01*
X43479511Y-100867738D01*
X43445364Y-100809455D01*
X43443896Y-100803803D01*
X43439923Y-100771150D01*
X43445834Y-100276381D01*
X43445862Y-100274892D01*
X43445900Y-100273330D01*
X43445943Y-100271901D01*
X43449891Y-100161836D01*
X43458395Y-99924696D01*
X43497856Y-98824325D01*
X43497908Y-98823063D01*
X43497987Y-98821415D01*
X43498062Y-98820022D01*
X43519274Y-98465389D01*
X43582461Y-97409000D01*
X43584553Y-97374029D01*
X43584650Y-97372561D01*
X43584751Y-97371156D01*
X43584865Y-97369688D01*
X43585569Y-97361297D01*
X43610801Y-97060327D01*
X43705894Y-95926056D01*
X43706021Y-95924653D01*
X43706149Y-95923317D01*
X43706300Y-95921834D01*
X43751742Y-95500905D01*
X43861785Y-94481567D01*
X43861954Y-94480095D01*
X43862131Y-94478627D01*
X43862309Y-94477219D01*
X43935782Y-93921448D01*
X46816500Y-93921448D01*
X46816500Y-94102550D01*
X46844829Y-94281413D01*
X46900778Y-94453612D01*
X46900786Y-94453635D01*
X46900788Y-94453639D01*
X46983006Y-94614997D01*
X47089441Y-94761494D01*
X47089445Y-94761499D01*
X47089452Y-94761507D01*
X47217493Y-94889548D01*
X47217497Y-94889551D01*
X47217500Y-94889554D01*
X47217505Y-94889558D01*
X47217522Y-94889570D01*
X47345284Y-94982395D01*
X47345287Y-94982396D01*
X47354646Y-94989196D01*
X47364004Y-94995995D01*
X47374578Y-95001383D01*
X47469484Y-95049740D01*
X47525360Y-95078211D01*
X47525363Y-95078212D01*
X47571976Y-95093357D01*
X47640074Y-95115483D01*
X47697584Y-95134169D01*
X47697585Y-95134169D01*
X47697591Y-95134171D01*
X47780429Y-95147291D01*
X47876449Y-95162500D01*
X47876454Y-95162500D01*
X48057548Y-95162500D01*
X48057551Y-95162500D01*
X48144259Y-95148765D01*
X48236409Y-95134171D01*
X48408639Y-95078211D01*
X48569994Y-94995996D01*
X48716501Y-94889553D01*
X48844553Y-94761501D01*
X48950996Y-94614994D01*
X49033211Y-94453639D01*
X49089171Y-94281409D01*
X49103765Y-94189259D01*
X49117500Y-94102551D01*
X49117500Y-93921448D01*
X49090288Y-93749646D01*
X49089171Y-93742591D01*
X49034713Y-93574986D01*
X49033655Y-93571232D01*
X49004740Y-93514484D01*
X49004739Y-93514483D01*
X48950995Y-93409004D01*
X48937397Y-93390289D01*
X48937395Y-93390285D01*
X48846735Y-93265502D01*
X48844558Y-93262505D01*
X48844554Y-93262500D01*
X48844551Y-93262497D01*
X48844548Y-93262493D01*
X48716507Y-93134452D01*
X48716498Y-93134444D01*
X48716474Y-93134426D01*
X48577888Y-93033738D01*
X48577555Y-93033454D01*
X48569987Y-93027998D01*
X48569572Y-93027789D01*
X48518301Y-93001664D01*
X48518300Y-93001664D01*
X48408639Y-92945788D01*
X48408636Y-92945787D01*
X48408633Y-92945786D01*
X48408631Y-92945785D01*
X48408612Y-92945778D01*
X48236412Y-92889829D01*
X48236413Y-92889829D01*
X48102265Y-92868582D01*
X48057551Y-92861500D01*
X48057550Y-92861500D01*
X47876450Y-92861500D01*
X47876449Y-92861500D01*
X47840677Y-92867165D01*
X47697585Y-92889829D01*
X47525386Y-92945778D01*
X47525363Y-92945786D01*
X47525359Y-92945788D01*
X47364005Y-93028004D01*
X47364002Y-93028005D01*
X47364002Y-93028006D01*
X47346771Y-93040525D01*
X47217499Y-93134445D01*
X47217491Y-93134452D01*
X47089452Y-93262491D01*
X47089445Y-93262499D01*
X46983004Y-93409005D01*
X46900788Y-93570359D01*
X46900786Y-93570363D01*
X46900778Y-93570386D01*
X46844829Y-93742585D01*
X46816500Y-93921448D01*
X43935782Y-93921448D01*
X43938574Y-93900325D01*
X44052137Y-93041288D01*
X44052319Y-93039958D01*
X44052568Y-93038234D01*
X44052758Y-93036974D01*
X44054164Y-93028004D01*
X44276885Y-91605729D01*
X44277118Y-91604352D01*
X44277119Y-91604297D01*
X44277363Y-91602856D01*
X44277596Y-91601524D01*
X44284477Y-91563548D01*
X44535890Y-90175872D01*
X44536081Y-90174851D01*
X44536410Y-90173150D01*
X44536633Y-90172035D01*
X44828921Y-88752962D01*
X44829222Y-88751550D01*
X44829517Y-88750201D01*
X44829836Y-88748781D01*
X45155916Y-87337236D01*
X45156191Y-87336082D01*
X45156557Y-87334579D01*
X45156895Y-87333228D01*
X45170081Y-87281786D01*
X45516602Y-85929913D01*
X45516975Y-85928501D01*
X45517365Y-85927056D01*
X45517710Y-85925800D01*
X45521740Y-85911511D01*
X45666380Y-85398525D01*
X70403500Y-85398525D01*
X70403500Y-85406025D01*
X70403500Y-85543474D01*
X70441013Y-85683477D01*
X70441017Y-85683488D01*
X70441018Y-85683489D01*
X70511635Y-85805802D01*
X70513123Y-85808568D01*
X70513353Y-85808877D01*
X70615985Y-85911509D01*
X70616674Y-85912005D01*
X70619178Y-85913353D01*
X70738069Y-85981995D01*
X70741087Y-85983869D01*
X70741514Y-85983983D01*
X70741515Y-85983984D01*
X70881525Y-86021500D01*
X70881528Y-86021500D01*
X71026472Y-86021500D01*
X71026475Y-86021500D01*
X71166485Y-85983984D01*
X71292015Y-85911509D01*
X71394509Y-85809015D01*
X71466984Y-85683485D01*
X71504500Y-85543475D01*
X71504500Y-85398525D01*
X71469950Y-85269586D01*
X71468111Y-85261693D01*
X71460882Y-85225343D01*
X71458500Y-85201157D01*
X71458500Y-79145161D01*
X71463522Y-79110228D01*
X71470934Y-79084983D01*
X71502228Y-79032241D01*
X71754927Y-78779541D01*
X71773711Y-78764126D01*
X71794956Y-78749932D01*
X71794955Y-78749931D01*
X71804568Y-78743509D01*
X71811420Y-78739247D01*
X71927015Y-78672509D01*
X72029509Y-78570015D01*
X72101982Y-78444488D01*
X72101983Y-78444488D01*
X72124486Y-78360506D01*
X72139500Y-78304475D01*
X72139500Y-78159525D01*
X72101984Y-78019515D01*
X72087184Y-77993880D01*
X72032712Y-77899532D01*
X72032710Y-77899530D01*
X72029509Y-77893985D01*
X71927015Y-77791491D01*
X71926877Y-77791353D01*
X71926568Y-77791123D01*
X71923802Y-77789635D01*
X71873243Y-77760445D01*
X71844808Y-77730624D01*
X71790007Y-77715939D01*
X71790007Y-77715940D01*
X71725740Y-77698720D01*
X71661475Y-77681500D01*
X71661474Y-77681500D01*
X71516525Y-77681500D01*
X71387994Y-77715939D01*
X71387993Y-77715940D01*
X71380338Y-77717991D01*
X71376510Y-77719017D01*
X71250991Y-77791485D01*
X71250984Y-77791490D01*
X71250968Y-77791505D01*
X71148497Y-77893976D01*
X71148490Y-77893985D01*
X71124937Y-77934781D01*
X71081752Y-78009579D01*
X71077463Y-78016475D01*
X71056876Y-78047282D01*
X71041459Y-78066067D01*
X70550300Y-78557228D01*
X70550295Y-78557233D01*
X70530828Y-78590954D01*
X70522597Y-78605211D01*
X70522596Y-78605213D01*
X70483882Y-78672266D01*
X70483881Y-78672270D01*
X70449500Y-78800581D01*
X70449500Y-78800583D01*
X70449500Y-85202193D01*
X70448403Y-85216422D01*
X70448658Y-85216451D01*
X70446990Y-85231360D01*
X70444799Y-85239872D01*
X70443883Y-85248336D01*
X70441483Y-85257703D01*
X70441016Y-85258515D01*
X70403500Y-85398525D01*
X45666380Y-85398525D01*
X45910863Y-84531430D01*
X45911229Y-84530163D01*
X45911651Y-84528730D01*
X45912006Y-84527552D01*
X46338809Y-83141537D01*
X46338926Y-83141164D01*
X46339127Y-83140526D01*
X46339263Y-83140096D01*
X46344192Y-83124747D01*
X46359155Y-83078142D01*
X46365593Y-82946515D01*
X46337743Y-82817707D01*
X46298571Y-82741486D01*
X48965656Y-82741486D01*
X48965656Y-82741488D01*
X48965656Y-82741489D01*
X48972173Y-82840931D01*
X49016250Y-82930309D01*
X49072260Y-82979429D01*
X50587240Y-83854103D01*
X50657784Y-83878049D01*
X50757226Y-83871532D01*
X50846604Y-83827455D01*
X50895724Y-83771445D01*
X51314768Y-83045637D01*
X51336577Y-83017905D01*
X51350203Y-83004912D01*
X51406536Y-82974156D01*
X51416661Y-82971700D01*
X51445892Y-82968205D01*
X54977711Y-82968205D01*
X54977714Y-82968205D01*
X55106025Y-82933824D01*
X55148132Y-82909513D01*
X55221065Y-82867406D01*
X59308927Y-78779541D01*
X59327711Y-78764126D01*
X59348956Y-78749932D01*
X59348955Y-78749931D01*
X59358568Y-78743509D01*
X59365420Y-78739247D01*
X59481015Y-78672509D01*
X59583509Y-78570015D01*
X59655982Y-78444488D01*
X59655983Y-78444488D01*
X59678486Y-78360506D01*
X59693500Y-78304475D01*
X59693500Y-78159525D01*
X59655984Y-78019515D01*
X59631833Y-77977685D01*
X59583511Y-77893988D01*
X59583506Y-77893982D01*
X59583500Y-77893976D01*
X59583493Y-77893968D01*
X59481030Y-77791505D01*
X59481014Y-77791490D01*
X59481006Y-77791485D01*
X59427243Y-77760445D01*
X59398808Y-77730624D01*
X59344007Y-77715939D01*
X59344007Y-77715940D01*
X59279740Y-77698720D01*
X59215475Y-77681500D01*
X59215474Y-77681500D01*
X59070525Y-77681500D01*
X58941994Y-77715939D01*
X58941993Y-77715940D01*
X58934338Y-77717991D01*
X58930510Y-77719017D01*
X58804991Y-77791485D01*
X58804984Y-77791490D01*
X58804968Y-77791505D01*
X58702497Y-77893976D01*
X58702490Y-77893985D01*
X58678937Y-77934781D01*
X58635752Y-78009579D01*
X58631463Y-78016475D01*
X58610876Y-78047282D01*
X58595459Y-78066067D01*
X54751250Y-81910278D01*
X54722999Y-81931427D01*
X54699911Y-81944035D01*
X54640481Y-81959205D01*
X51756732Y-81959205D01*
X51724636Y-81954979D01*
X51694170Y-81946815D01*
X51664266Y-81934428D01*
X50537468Y-81283871D01*
X50172764Y-81073309D01*
X50172762Y-81073308D01*
X50172760Y-81073307D01*
X50165874Y-81070969D01*
X50165868Y-81070966D01*
X50102219Y-81049361D01*
X50102217Y-81049361D01*
X50102216Y-81049361D01*
X50077355Y-81050990D01*
X50052492Y-81052619D01*
X50052491Y-81052618D01*
X50002777Y-81055876D01*
X50002770Y-81055878D01*
X49915217Y-81099055D01*
X49913452Y-81099889D01*
X49864277Y-81155963D01*
X49864272Y-81155969D01*
X48989606Y-82670935D01*
X48989597Y-82670957D01*
X48979570Y-82700496D01*
X48965656Y-82741486D01*
X46298571Y-82741486D01*
X46277505Y-82700496D01*
X46231078Y-82649295D01*
X46188983Y-82602869D01*
X46188982Y-82602868D01*
X46188981Y-82602867D01*
X46188980Y-82602866D01*
X46093297Y-82541204D01*
X46093289Y-82541198D01*
X46089339Y-82538652D01*
X46087417Y-82537101D01*
X46079532Y-82532288D01*
X46077869Y-82531245D01*
X46074345Y-82530240D01*
X45959315Y-82493307D01*
X45959238Y-82493281D01*
X39098627Y-80290581D01*
X39063567Y-80279324D01*
X39016349Y-80264164D01*
X38984624Y-80248703D01*
X38971691Y-80239926D01*
X38960355Y-80226162D01*
X38958536Y-80224927D01*
X38957672Y-80222904D01*
X38927274Y-80185992D01*
X38927270Y-80185984D01*
X38926697Y-80184641D01*
X38925595Y-80177383D01*
X50549500Y-80177383D01*
X50549500Y-80350614D01*
X50566317Y-80456795D01*
X50570522Y-80483342D01*
X50576598Y-80521701D01*
X50630127Y-80686445D01*
X50708768Y-80840788D01*
X50810586Y-80980928D01*
X50933072Y-81103414D01*
X51073212Y-81205232D01*
X51227555Y-81283873D01*
X51392299Y-81337402D01*
X51563389Y-81364500D01*
X51563390Y-81364500D01*
X51736610Y-81364500D01*
X51736611Y-81364500D01*
X51907701Y-81337402D01*
X52072445Y-81283873D01*
X52226788Y-81205232D01*
X52366928Y-81103414D01*
X52489414Y-80980928D01*
X52591232Y-80840788D01*
X52669873Y-80686445D01*
X52723402Y-80521701D01*
X52750500Y-80350611D01*
X52750500Y-80177389D01*
X52723402Y-80006299D01*
X52669873Y-79841555D01*
X52591232Y-79687212D01*
X52489414Y-79547072D01*
X52366928Y-79424586D01*
X52226788Y-79322768D01*
X52196236Y-79307201D01*
X52072449Y-79244128D01*
X51916532Y-79193467D01*
X51912010Y-79191614D01*
X51902820Y-79189444D01*
X51898057Y-79189070D01*
X51887513Y-79187400D01*
X51776271Y-79169781D01*
X51760407Y-79167268D01*
X51736614Y-79163500D01*
X51736611Y-79163500D01*
X51563389Y-79163500D01*
X51563388Y-79163500D01*
X51523726Y-79169781D01*
X51523725Y-79169780D01*
X51392304Y-79190596D01*
X51227549Y-79244129D01*
X51073210Y-79322768D01*
X50993256Y-79380859D01*
X50993255Y-79380859D01*
X50944941Y-79415961D01*
X50937564Y-79420092D01*
X50806092Y-79551564D01*
X50801961Y-79558941D01*
X50766859Y-79607255D01*
X50766859Y-79607256D01*
X50708768Y-79687210D01*
X50630129Y-79841549D01*
X50576596Y-80006305D01*
X50549500Y-80177383D01*
X38925595Y-80177383D01*
X38917392Y-80123382D01*
X38918239Y-80115088D01*
X38923943Y-80088525D01*
X38927286Y-80078484D01*
X39006148Y-79841552D01*
X39184022Y-79307153D01*
X39184450Y-79305892D01*
X39184874Y-79304664D01*
X39185291Y-79303477D01*
X39206460Y-79244127D01*
X39658169Y-77977679D01*
X51819500Y-77977679D01*
X51819500Y-78150911D01*
X51843821Y-78304470D01*
X51846597Y-78321994D01*
X51846598Y-78321997D01*
X51900127Y-78486741D01*
X51900128Y-78486743D01*
X51900129Y-78486745D01*
X51905053Y-78496408D01*
X51978768Y-78641084D01*
X52080586Y-78781224D01*
X52203072Y-78903710D01*
X52343212Y-79005528D01*
X52497555Y-79084169D01*
X52662299Y-79137698D01*
X52833389Y-79164796D01*
X52833390Y-79164796D01*
X53006610Y-79164796D01*
X53006611Y-79164796D01*
X53177701Y-79137698D01*
X53342445Y-79084169D01*
X53496788Y-79005528D01*
X53636928Y-78903710D01*
X53759414Y-78781224D01*
X53861232Y-78641084D01*
X53939873Y-78486741D01*
X53993402Y-78321997D01*
X54020500Y-78150907D01*
X54020500Y-77977685D01*
X54011977Y-77923876D01*
X54007242Y-77893976D01*
X53993402Y-77806595D01*
X53939873Y-77641851D01*
X53861232Y-77487508D01*
X53759414Y-77347368D01*
X53682571Y-77270525D01*
X72054500Y-77270525D01*
X72054500Y-77415475D01*
X72092016Y-77555485D01*
X72092017Y-77555488D01*
X72161287Y-77675467D01*
X72161289Y-77675469D01*
X72164491Y-77681015D01*
X72220603Y-77737127D01*
X72266985Y-77783509D01*
X72267674Y-77784005D01*
X72270178Y-77785353D01*
X72389069Y-77853995D01*
X72392086Y-77855869D01*
X72483719Y-77880422D01*
X72513620Y-77892807D01*
X72540940Y-77908580D01*
X72566614Y-77928282D01*
X72877073Y-78238741D01*
X72898223Y-78266993D01*
X72910831Y-78290082D01*
X72926000Y-78349511D01*
X72926000Y-85084282D01*
X72921775Y-85116376D01*
X72913612Y-85146840D01*
X72901224Y-85176746D01*
X72854018Y-85258509D01*
X72853989Y-85258580D01*
X72853748Y-85259513D01*
X72816500Y-85398525D01*
X72816500Y-85543474D01*
X72854013Y-85683477D01*
X72854017Y-85683488D01*
X72854018Y-85683489D01*
X72924635Y-85805802D01*
X72926123Y-85808568D01*
X72926353Y-85808877D01*
X73028985Y-85911509D01*
X73029674Y-85912005D01*
X73032178Y-85913353D01*
X73151069Y-85981995D01*
X73154087Y-85983869D01*
X73154514Y-85983983D01*
X73154515Y-85983984D01*
X73294525Y-86021500D01*
X73294528Y-86021500D01*
X73439472Y-86021500D01*
X73439475Y-86021500D01*
X73579485Y-85983984D01*
X73705015Y-85911509D01*
X73807509Y-85809015D01*
X73879984Y-85683485D01*
X73917500Y-85543475D01*
X73917500Y-85398525D01*
X73879984Y-85258515D01*
X73857210Y-85219069D01*
X73832775Y-85176746D01*
X73820388Y-85146840D01*
X73812225Y-85116374D01*
X73808000Y-85084282D01*
X73808000Y-83430025D01*
X98534000Y-83430025D01*
X98534000Y-83437425D01*
X98534000Y-83574974D01*
X98571513Y-83714977D01*
X98571517Y-83714988D01*
X98571518Y-83714989D01*
X98642135Y-83837302D01*
X98643623Y-83840068D01*
X98643853Y-83840377D01*
X98746485Y-83943009D01*
X98747174Y-83943505D01*
X98749678Y-83944853D01*
X98868569Y-84013495D01*
X98871586Y-84015369D01*
X98872014Y-84015483D01*
X98872015Y-84015484D01*
X98967434Y-84041051D01*
X98990184Y-84049614D01*
X99011674Y-84060212D01*
X99021145Y-84066101D01*
X99021260Y-84065903D01*
X99083461Y-84101814D01*
X99128858Y-84128024D01*
X99241019Y-84158078D01*
X99357137Y-84158078D01*
X99358342Y-84158078D01*
X99393278Y-84163101D01*
X99408276Y-84167505D01*
X99467052Y-84205278D01*
X99474907Y-84214343D01*
X99497377Y-84252215D01*
X99518706Y-84309403D01*
X99518707Y-84309405D01*
X99518711Y-84309411D01*
X99604956Y-84424620D01*
X99604958Y-84424622D01*
X99604961Y-84424625D01*
X99720170Y-84510871D01*
X99720177Y-84510875D01*
X99769661Y-84529331D01*
X99805019Y-84555799D01*
X99861950Y-84561913D01*
X99861949Y-84561917D01*
X99861964Y-84561914D01*
X99914633Y-84567578D01*
X100910378Y-84567577D01*
X100969989Y-84561169D01*
X101104837Y-84510874D01*
X101220052Y-84424624D01*
X101306302Y-84309409D01*
X101356597Y-84174561D01*
X101363006Y-84114951D01*
X101363005Y-83319206D01*
X101356597Y-83259595D01*
X101321124Y-83164488D01*
X101306303Y-83124749D01*
X101306299Y-83124742D01*
X101270169Y-83076479D01*
X101220054Y-83009534D01*
X101220048Y-83009528D01*
X101135868Y-82946511D01*
X101104841Y-82923284D01*
X101104838Y-82923282D01*
X101104836Y-82923281D01*
X101104834Y-82923280D01*
X101055350Y-82904824D01*
X101020003Y-82878362D01*
X100918089Y-82867406D01*
X100913248Y-82866578D01*
X100910387Y-82866578D01*
X100910379Y-82866578D01*
X100910370Y-82866578D01*
X99914635Y-82866578D01*
X99914629Y-82866578D01*
X99912698Y-82866737D01*
X99911051Y-82866963D01*
X99855022Y-82872986D01*
X99769658Y-82904825D01*
X99720172Y-82923282D01*
X99720171Y-82923283D01*
X99604963Y-83009528D01*
X99604957Y-83009534D01*
X99599122Y-83017329D01*
X99574165Y-83042286D01*
X99561649Y-83051655D01*
X99496184Y-83076071D01*
X99496180Y-83076071D01*
X99492411Y-83076341D01*
X99490482Y-83076479D01*
X99436954Y-83068461D01*
X99436162Y-83068155D01*
X99418852Y-83059875D01*
X99368742Y-83030944D01*
X99340308Y-83001124D01*
X99268894Y-82981989D01*
X99268893Y-82981988D01*
X99186963Y-82960035D01*
X99156975Y-82952000D01*
X99156974Y-82952000D01*
X99012025Y-82952000D01*
X98900105Y-82981989D01*
X98900104Y-82981988D01*
X98872012Y-82989516D01*
X98872007Y-82989518D01*
X98746492Y-83061985D01*
X98746484Y-83061990D01*
X98746468Y-83062005D01*
X98644005Y-83164468D01*
X98643990Y-83164484D01*
X98643985Y-83164492D01*
X98571517Y-83290009D01*
X98571504Y-83290041D01*
X98571409Y-83290414D01*
X98534000Y-83430025D01*
X73808000Y-83430025D01*
X73808000Y-81256471D01*
X105063499Y-81256471D01*
X105103864Y-81459394D01*
X105103868Y-81459412D01*
X105103870Y-81459420D01*
X105183058Y-81650596D01*
X105298023Y-81822655D01*
X105298027Y-81822661D01*
X105444336Y-81968970D01*
X105444340Y-81968973D01*
X105444342Y-81968975D01*
X105444345Y-81968977D01*
X105444349Y-81968980D01*
X105444348Y-81968980D01*
X105444411Y-81969032D01*
X105444448Y-81969046D01*
X105616402Y-82083941D01*
X105807580Y-82163130D01*
X105998540Y-82201114D01*
X106007559Y-82202908D01*
X106009794Y-82203409D01*
X106010532Y-82203500D01*
X107017466Y-82203500D01*
X107021586Y-82203500D01*
X107029435Y-82201118D01*
X107220420Y-82163130D01*
X107411598Y-82083941D01*
X107583655Y-81968977D01*
X107729977Y-81822655D01*
X107844941Y-81650598D01*
X107924130Y-81459420D01*
X107964500Y-81256465D01*
X107964500Y-81049535D01*
X107924130Y-80846580D01*
X107844941Y-80655402D01*
X107730046Y-80483449D01*
X107730036Y-80483417D01*
X107729980Y-80483348D01*
X107729980Y-80483349D01*
X107729975Y-80483342D01*
X107729970Y-80483336D01*
X107583659Y-80337025D01*
X107466506Y-80258747D01*
X107466458Y-80258715D01*
X107411598Y-80222059D01*
X107411596Y-80222058D01*
X107411593Y-80222056D01*
X107405370Y-80219479D01*
X107405367Y-80219478D01*
X107324525Y-80185992D01*
X107220420Y-80142870D01*
X107220412Y-80142868D01*
X107220404Y-80142866D01*
X107220394Y-80142864D01*
X107017471Y-80102500D01*
X107017469Y-80102500D01*
X107017465Y-80102500D01*
X106010535Y-80102500D01*
X106010530Y-80102500D01*
X106010528Y-80102500D01*
X105807604Y-80142864D01*
X105807579Y-80142870D01*
X105616404Y-80222057D01*
X105444337Y-80337027D01*
X105298027Y-80483337D01*
X105183057Y-80655404D01*
X105103870Y-80846579D01*
X105103864Y-80846604D01*
X105063500Y-81049527D01*
X105063500Y-81049530D01*
X105063500Y-81256469D01*
X105063500Y-81256471D01*
X105063499Y-81256471D01*
X73808000Y-81256471D01*
X73808000Y-78046942D01*
X73808000Y-78046941D01*
X73800651Y-78019515D01*
X73777947Y-77934781D01*
X73719888Y-77834220D01*
X73190282Y-77304614D01*
X73170580Y-77278938D01*
X73154807Y-77251620D01*
X73142423Y-77221722D01*
X73117984Y-77130515D01*
X73113933Y-77123499D01*
X73113880Y-77123408D01*
X73045513Y-77004992D01*
X73045508Y-77004984D01*
X73045493Y-77004968D01*
X72943030Y-76902505D01*
X72943014Y-76902490D01*
X72943006Y-76902485D01*
X72889243Y-76871445D01*
X72860808Y-76841624D01*
X72806007Y-76826939D01*
X72806007Y-76826940D01*
X72741740Y-76809720D01*
X72677475Y-76792500D01*
X72677474Y-76792500D01*
X72532525Y-76792500D01*
X72403994Y-76826939D01*
X72403993Y-76826940D01*
X72396338Y-76828991D01*
X72392510Y-76830017D01*
X72266991Y-76902485D01*
X72266984Y-76902490D01*
X72266968Y-76902505D01*
X72164505Y-77004968D01*
X72164490Y-77004984D01*
X72164485Y-77004992D01*
X72092017Y-77130509D01*
X72091989Y-77130578D01*
X72091748Y-77131511D01*
X72059564Y-77251627D01*
X72054500Y-77270525D01*
X53682571Y-77270525D01*
X53636928Y-77224882D01*
X53496788Y-77123064D01*
X53492961Y-77121114D01*
X53342449Y-77044424D01*
X53186532Y-76993763D01*
X53182010Y-76991910D01*
X53172820Y-76989740D01*
X53168057Y-76989366D01*
X53157513Y-76987696D01*
X53046271Y-76970077D01*
X53030407Y-76967564D01*
X53006614Y-76963796D01*
X53006611Y-76963796D01*
X52833389Y-76963796D01*
X52833388Y-76963796D01*
X52793726Y-76970077D01*
X52793725Y-76970076D01*
X52662304Y-76990892D01*
X52497549Y-77044425D01*
X52343210Y-77123064D01*
X52263256Y-77181155D01*
X52263255Y-77181155D01*
X52214941Y-77216257D01*
X52207564Y-77220388D01*
X52076092Y-77351860D01*
X52071961Y-77359237D01*
X52036859Y-77407551D01*
X52036859Y-77407552D01*
X51978768Y-77487506D01*
X51900129Y-77641845D01*
X51846596Y-77806601D01*
X51819500Y-77977679D01*
X39658169Y-77977679D01*
X39676174Y-77927198D01*
X39676534Y-77926205D01*
X39677000Y-77924941D01*
X39677362Y-77923977D01*
X40197503Y-76558282D01*
X40197851Y-76557383D01*
X40198488Y-76555764D01*
X40198808Y-76554965D01*
X40240703Y-76451635D01*
X40655318Y-75429025D01*
X80373000Y-75429025D01*
X80373000Y-75573975D01*
X80373383Y-75575403D01*
X80396999Y-75663542D01*
X80410515Y-75713984D01*
X80410518Y-75713991D01*
X80481135Y-75836302D01*
X80482623Y-75839068D01*
X80482853Y-75839377D01*
X80585485Y-75942009D01*
X80586174Y-75942505D01*
X80588678Y-75943853D01*
X80707569Y-76012495D01*
X80710586Y-76014369D01*
X80802219Y-76038922D01*
X80832120Y-76051307D01*
X80859440Y-76067080D01*
X80885114Y-76086782D01*
X84402212Y-79603880D01*
X84421918Y-79629560D01*
X84437688Y-79656874D01*
X84450075Y-79686780D01*
X84474512Y-79777977D01*
X84474516Y-79777986D01*
X84474521Y-79777996D01*
X84545135Y-79900302D01*
X84546623Y-79903068D01*
X84546853Y-79903377D01*
X84649485Y-80006009D01*
X84650174Y-80006505D01*
X84652678Y-80007853D01*
X84771569Y-80076495D01*
X84774587Y-80078369D01*
X84775014Y-80078483D01*
X84775015Y-80078484D01*
X84915025Y-80116000D01*
X84915028Y-80116000D01*
X85059972Y-80116000D01*
X85059975Y-80116000D01*
X85199985Y-80078484D01*
X85325515Y-80006009D01*
X85428009Y-79903515D01*
X85500484Y-79777985D01*
X85538000Y-79637975D01*
X85538000Y-79493025D01*
X85500484Y-79353015D01*
X85437617Y-79244127D01*
X85428011Y-79227488D01*
X85428006Y-79227482D01*
X85428002Y-79227478D01*
X85427993Y-79227468D01*
X85325530Y-79125005D01*
X85325514Y-79124990D01*
X85325506Y-79124985D01*
X85199996Y-79052521D01*
X85199986Y-79052516D01*
X85199977Y-79052512D01*
X85108780Y-79028075D01*
X85078874Y-79015688D01*
X85051560Y-78999918D01*
X85025880Y-78980212D01*
X81508782Y-75463114D01*
X81489080Y-75437438D01*
X81473307Y-75410120D01*
X81460923Y-75380222D01*
X81436484Y-75289015D01*
X81418013Y-75257023D01*
X81364011Y-75163488D01*
X81364006Y-75163482D01*
X81363993Y-75163468D01*
X81261530Y-75061005D01*
X81261514Y-75060990D01*
X81261506Y-75060985D01*
X81207743Y-75029945D01*
X81179308Y-75000124D01*
X81124507Y-74985439D01*
X81124507Y-74985440D01*
X81060240Y-74968220D01*
X80995975Y-74951000D01*
X80995974Y-74951000D01*
X80851025Y-74951000D01*
X80722494Y-74985439D01*
X80722493Y-74985440D01*
X80714838Y-74987491D01*
X80711010Y-74988517D01*
X80585491Y-75060985D01*
X80585484Y-75060990D01*
X80585468Y-75061005D01*
X80483005Y-75163468D01*
X80482990Y-75163484D01*
X80482985Y-75163492D01*
X80410517Y-75289009D01*
X80410489Y-75289078D01*
X80410248Y-75290011D01*
X80379883Y-75403336D01*
X80373000Y-75429025D01*
X40655318Y-75429025D01*
X40747932Y-75200602D01*
X40748325Y-75199647D01*
X40748840Y-75198416D01*
X40749268Y-75197405D01*
X41327054Y-73855157D01*
X41327561Y-73853999D01*
X41328061Y-73852871D01*
X41328597Y-73851678D01*
X41351185Y-73802136D01*
X41934775Y-72522157D01*
X41935241Y-72521148D01*
X41935847Y-72519857D01*
X41936322Y-72518861D01*
X41953768Y-72482659D01*
X42570688Y-71202511D01*
X42571111Y-71201643D01*
X42571819Y-71200211D01*
X42572267Y-71199318D01*
X43234571Y-69896665D01*
X43235138Y-69895566D01*
X43235706Y-69894477D01*
X43236237Y-69893471D01*
X43926125Y-68605218D01*
X43926602Y-68604340D01*
X43927367Y-68602947D01*
X43927853Y-68602073D01*
X44330000Y-67888087D01*
X44351516Y-67860118D01*
X44362718Y-67849208D01*
X44424425Y-67816545D01*
X44425861Y-67816253D01*
X44487792Y-67819435D01*
X44495749Y-67821932D01*
X44520618Y-67832854D01*
X52045399Y-72177289D01*
X52409007Y-72387218D01*
X56278786Y-74621436D01*
X56285569Y-74625649D01*
X56289893Y-74628532D01*
X56294630Y-74630583D01*
X56377388Y-74678364D01*
X56403417Y-74693392D01*
X56403420Y-74693393D01*
X56430315Y-74700600D01*
X56430316Y-74700600D01*
X56435418Y-74701966D01*
X56438158Y-74702701D01*
X56438161Y-74702701D01*
X56447831Y-74705292D01*
X56530711Y-74727501D01*
X56662495Y-74727500D01*
X56789790Y-74693392D01*
X56903918Y-74627500D01*
X56997103Y-74534314D01*
X57029598Y-74478028D01*
X57029780Y-74477715D01*
X57030281Y-74476859D01*
X57030444Y-74476581D01*
X57722976Y-73310886D01*
X57723721Y-73309653D01*
X57724465Y-73308436D01*
X57725196Y-73307254D01*
X58187484Y-72571525D01*
X80436500Y-72571525D01*
X80436500Y-72716475D01*
X80440975Y-72733176D01*
X80454249Y-72782717D01*
X80474016Y-72856486D01*
X80474018Y-72856491D01*
X80544635Y-72978802D01*
X80546123Y-72981568D01*
X80546353Y-72981877D01*
X80648985Y-73084509D01*
X80649674Y-73085005D01*
X80652178Y-73086353D01*
X80771069Y-73154995D01*
X80774086Y-73156869D01*
X80774514Y-73156983D01*
X80774515Y-73156984D01*
X80810164Y-73166536D01*
X80865719Y-73181422D01*
X80895620Y-73193807D01*
X80922940Y-73209580D01*
X80948614Y-73229282D01*
X84529216Y-76809884D01*
X84548921Y-76835563D01*
X84561381Y-76857145D01*
X84564689Y-76862874D01*
X84577076Y-76892779D01*
X84601516Y-76983986D01*
X84601518Y-76983991D01*
X84672135Y-77106302D01*
X84673623Y-77109068D01*
X84673853Y-77109377D01*
X84776485Y-77212009D01*
X84777174Y-77212505D01*
X84779678Y-77213853D01*
X84898569Y-77282495D01*
X84901587Y-77284369D01*
X84902014Y-77284483D01*
X84902015Y-77284484D01*
X85042025Y-77322000D01*
X85042028Y-77322000D01*
X85186972Y-77322000D01*
X85186975Y-77322000D01*
X85326985Y-77284484D01*
X85452515Y-77212009D01*
X85555009Y-77109515D01*
X85627484Y-76983985D01*
X85665000Y-76843975D01*
X85665000Y-76699025D01*
X85627484Y-76559015D01*
X85626804Y-76557838D01*
X85565487Y-76451633D01*
X85555013Y-76433491D01*
X85555006Y-76433482D01*
X85554993Y-76433468D01*
X85452530Y-76331005D01*
X85452514Y-76330990D01*
X85452511Y-76330988D01*
X85405192Y-76303668D01*
X85405190Y-76303667D01*
X85326988Y-76258517D01*
X85326989Y-76258517D01*
X85253085Y-76238714D01*
X85253082Y-76238713D01*
X85235780Y-76234077D01*
X85205874Y-76221689D01*
X85178565Y-76205922D01*
X85152884Y-76186216D01*
X84603762Y-75637094D01*
X89760237Y-75637094D01*
X89803945Y-75856822D01*
X89803946Y-75856826D01*
X89803947Y-75856829D01*
X89803950Y-75856839D01*
X89803953Y-75856847D01*
X89803958Y-75856861D01*
X89879360Y-76038900D01*
X89879364Y-76038907D01*
X89879371Y-76038920D01*
X89911352Y-76086782D01*
X89988861Y-76202783D01*
X89988862Y-76202784D01*
X89988867Y-76202790D01*
X90128208Y-76342131D01*
X90128214Y-76342136D01*
X90128218Y-76342139D01*
X90292079Y-76451628D01*
X90292092Y-76451635D01*
X90468573Y-76524735D01*
X90472992Y-76526825D01*
X90473728Y-76526967D01*
X90474469Y-76527112D01*
X90667453Y-76565500D01*
X90864543Y-76565500D01*
X90864544Y-76565500D01*
X90897148Y-76559014D01*
X90994582Y-76539632D01*
X90994583Y-76539632D01*
X91007301Y-76537102D01*
X91057835Y-76527051D01*
X91239914Y-76451632D01*
X91403782Y-76342139D01*
X91543139Y-76202782D01*
X91652632Y-76038914D01*
X91728051Y-75856835D01*
X91731497Y-75839515D01*
X91746004Y-75766580D01*
X91746004Y-75766578D01*
X91766500Y-75663542D01*
X91766500Y-75466453D01*
X91727812Y-75271964D01*
X91725727Y-75267556D01*
X91721365Y-75257023D01*
X91697127Y-75198506D01*
X91652638Y-75091098D01*
X91652633Y-75091089D01*
X91652628Y-75091079D01*
X91543139Y-74927218D01*
X91543136Y-74927214D01*
X91543131Y-74927208D01*
X91403790Y-74787867D01*
X91403784Y-74787862D01*
X91403783Y-74787861D01*
X91239926Y-74678375D01*
X91239925Y-74678374D01*
X91239920Y-74678371D01*
X91239907Y-74678364D01*
X91239900Y-74678360D01*
X91057861Y-74602958D01*
X91057847Y-74602953D01*
X91057839Y-74602950D01*
X91057829Y-74602947D01*
X91057826Y-74602946D01*
X91057822Y-74602945D01*
X90864546Y-74564500D01*
X90864543Y-74564500D01*
X90864541Y-74564500D01*
X90667459Y-74564500D01*
X90667457Y-74564500D01*
X90667453Y-74564500D01*
X90474176Y-74602945D01*
X90474170Y-74602947D01*
X90474160Y-74602950D01*
X90474155Y-74602951D01*
X90474137Y-74602958D01*
X90292098Y-74678360D01*
X90292092Y-74678364D01*
X90292072Y-74678375D01*
X90128215Y-74787861D01*
X90128214Y-74787862D01*
X90128208Y-74787867D01*
X89988867Y-74927208D01*
X89988862Y-74927214D01*
X89988861Y-74927215D01*
X89879375Y-75091072D01*
X89879365Y-75091089D01*
X89879360Y-75091098D01*
X89803958Y-75273137D01*
X89803945Y-75273176D01*
X89765500Y-75466451D01*
X89765500Y-75619174D01*
X89760237Y-75637094D01*
X84603762Y-75637094D01*
X82063762Y-73097094D01*
X87220237Y-73097094D01*
X87263945Y-73316822D01*
X87263946Y-73316826D01*
X87263947Y-73316829D01*
X87263950Y-73316839D01*
X87263953Y-73316847D01*
X87263958Y-73316861D01*
X87339360Y-73498900D01*
X87339365Y-73498909D01*
X87339375Y-73498926D01*
X87448861Y-73662783D01*
X87448862Y-73662784D01*
X87448867Y-73662790D01*
X87588208Y-73802131D01*
X87588214Y-73802136D01*
X87588218Y-73802139D01*
X87752079Y-73911628D01*
X87752092Y-73911635D01*
X87858237Y-73955601D01*
X87928553Y-73984726D01*
X87932962Y-73986812D01*
X88127453Y-74025500D01*
X88324543Y-74025500D01*
X88324544Y-74025500D01*
X88346216Y-74021188D01*
X88454582Y-73999632D01*
X88454583Y-73999632D01*
X88467301Y-73997102D01*
X88517835Y-73987051D01*
X88699914Y-73911632D01*
X88863782Y-73802139D01*
X88866241Y-73799680D01*
X92305499Y-73799680D01*
X92320028Y-73872717D01*
X92320032Y-73872735D01*
X92320033Y-73872739D01*
X92323480Y-73878826D01*
X92326816Y-73882891D01*
X92375398Y-73955600D01*
X92375401Y-73955603D01*
X92406779Y-73976568D01*
X92422470Y-73987052D01*
X92440365Y-73999009D01*
X92458258Y-74010965D01*
X92458260Y-74010966D01*
X92458264Y-74010967D01*
X92458280Y-74010970D01*
X92458288Y-74010972D01*
X92503021Y-74019869D01*
X92523681Y-74023979D01*
X92526415Y-74024703D01*
X92531323Y-74025500D01*
X94080676Y-74025500D01*
X94084796Y-74025500D01*
X94092648Y-74023117D01*
X94153740Y-74010966D01*
X94236601Y-73955601D01*
X94237874Y-73953696D01*
X94815351Y-73953696D01*
X94815351Y-74351068D01*
X94849983Y-74746912D01*
X94918981Y-75138214D01*
X94918985Y-75138237D01*
X95021822Y-75522034D01*
X95157726Y-75895433D01*
X95325657Y-76255562D01*
X95325663Y-76255574D01*
X95428379Y-76433482D01*
X95524345Y-76599700D01*
X95752261Y-76925198D01*
X95884782Y-77083129D01*
X95884784Y-77083131D01*
X96003729Y-77224884D01*
X96007676Y-77229587D01*
X96288645Y-77510557D01*
X96342189Y-77555485D01*
X96342190Y-77555486D01*
X96593039Y-77765975D01*
X96783779Y-77899532D01*
X96895390Y-77977683D01*
X96917664Y-77993279D01*
X96918416Y-77993816D01*
X96918490Y-77993863D01*
X96918539Y-77993891D01*
X96918540Y-77993892D01*
X96962922Y-78019516D01*
X97028600Y-78057435D01*
X97262658Y-78192569D01*
X97262670Y-78192575D01*
X97622799Y-78360506D01*
X97853534Y-78444485D01*
X97853542Y-78444488D01*
X97994381Y-78495749D01*
X97995973Y-78496357D01*
X97997820Y-78497000D01*
X97997886Y-78497024D01*
X98001390Y-78497800D01*
X98116770Y-78528716D01*
X98380004Y-78599250D01*
X98771326Y-78668251D01*
X99148156Y-78701218D01*
X99154958Y-78702883D01*
X99564531Y-78702883D01*
X99591053Y-78702883D01*
X99593927Y-78701313D01*
X99609483Y-78698949D01*
X99960376Y-78668251D01*
X100351698Y-78599250D01*
X100733210Y-78497024D01*
X100735509Y-78496408D01*
X100735510Y-78496407D01*
X100735516Y-78496406D01*
X101016493Y-78394139D01*
X101108906Y-78360504D01*
X101108907Y-78360503D01*
X101108911Y-78360502D01*
X101469040Y-78192571D01*
X101813162Y-77993892D01*
X102138659Y-77765977D01*
X102443053Y-77510560D01*
X102724028Y-77229585D01*
X102979445Y-76925191D01*
X103207360Y-76599694D01*
X103406039Y-76255572D01*
X103442924Y-76176471D01*
X105063499Y-76176471D01*
X105103864Y-76379394D01*
X105103868Y-76379412D01*
X105103870Y-76379420D01*
X105126266Y-76433488D01*
X105178260Y-76559014D01*
X105183058Y-76570596D01*
X105268872Y-76699027D01*
X105298027Y-76742661D01*
X105444336Y-76888970D01*
X105444340Y-76888973D01*
X105444342Y-76888975D01*
X105444345Y-76888977D01*
X105444349Y-76888980D01*
X105444348Y-76888980D01*
X105444411Y-76889032D01*
X105444448Y-76889046D01*
X105616402Y-77003941D01*
X105807580Y-77083130D01*
X105865266Y-77094604D01*
X106007579Y-77122913D01*
X106009789Y-77123408D01*
X106010532Y-77123500D01*
X107017466Y-77123500D01*
X107021586Y-77123500D01*
X107029435Y-77121118D01*
X107220420Y-77083130D01*
X107411598Y-77003941D01*
X107583655Y-76888977D01*
X107729977Y-76742655D01*
X107844941Y-76570598D01*
X107924130Y-76379420D01*
X107964500Y-76176465D01*
X107964500Y-75969535D01*
X107924130Y-75766580D01*
X107844941Y-75575402D01*
X107730046Y-75403449D01*
X107730036Y-75403417D01*
X107729980Y-75403348D01*
X107729980Y-75403349D01*
X107729977Y-75403345D01*
X107729975Y-75403342D01*
X107729973Y-75403340D01*
X107729970Y-75403336D01*
X107583659Y-75257025D01*
X107443717Y-75163520D01*
X107443669Y-75163488D01*
X107411598Y-75142059D01*
X107411599Y-75142059D01*
X107411597Y-75142058D01*
X107288568Y-75091098D01*
X107220420Y-75062870D01*
X107220412Y-75062868D01*
X107220404Y-75062866D01*
X107220394Y-75062864D01*
X107017471Y-75022500D01*
X107017469Y-75022500D01*
X107017465Y-75022500D01*
X106010535Y-75022500D01*
X106010530Y-75022500D01*
X106010528Y-75022500D01*
X105807604Y-75062864D01*
X105807579Y-75062870D01*
X105616404Y-75142057D01*
X105444337Y-75257027D01*
X105298027Y-75403337D01*
X105183057Y-75575404D01*
X105103870Y-75766579D01*
X105103864Y-75766604D01*
X105063500Y-75969527D01*
X105063500Y-75969530D01*
X105063500Y-76176469D01*
X105063500Y-76176471D01*
X105063499Y-76176471D01*
X103442924Y-76176471D01*
X103573970Y-75895443D01*
X103594328Y-75839511D01*
X103607607Y-75803025D01*
X103709874Y-75522048D01*
X103812718Y-75138230D01*
X103881719Y-74746908D01*
X103916351Y-74351062D01*
X103916351Y-73953704D01*
X103881719Y-73557858D01*
X103812718Y-73166536D01*
X103780041Y-73044586D01*
X103758623Y-72964649D01*
X103758623Y-72964641D01*
X103758614Y-72964616D01*
X103758422Y-72963900D01*
X103758422Y-72963899D01*
X103750713Y-72935128D01*
X105063500Y-72935128D01*
X105063500Y-74130876D01*
X105063659Y-74132806D01*
X105063885Y-74134454D01*
X105069907Y-74190482D01*
X105097690Y-74264971D01*
X105120202Y-74325328D01*
X105120206Y-74325335D01*
X105139466Y-74351063D01*
X105206450Y-74440542D01*
X105206452Y-74440544D01*
X105206455Y-74440547D01*
X105321664Y-74526793D01*
X105321671Y-74526797D01*
X105371155Y-74545253D01*
X105406513Y-74571721D01*
X105463444Y-74577835D01*
X105463443Y-74577839D01*
X105463458Y-74577836D01*
X105516127Y-74583500D01*
X107511872Y-74583499D01*
X107571483Y-74577091D01*
X107706331Y-74526796D01*
X107821546Y-74440546D01*
X107907796Y-74325331D01*
X107958091Y-74190483D01*
X107964500Y-74130873D01*
X107964499Y-72935128D01*
X107958091Y-72875517D01*
X107923484Y-72782730D01*
X107923481Y-72782723D01*
X107923481Y-72782722D01*
X107907799Y-72740676D01*
X107907795Y-72740668D01*
X107907793Y-72740664D01*
X107821547Y-72625455D01*
X107821544Y-72625452D01*
X107821542Y-72625450D01*
X107724263Y-72552627D01*
X107706335Y-72539206D01*
X107706332Y-72539204D01*
X107706330Y-72539203D01*
X107706328Y-72539202D01*
X107656844Y-72520746D01*
X107621497Y-72494284D01*
X107519583Y-72483328D01*
X107514742Y-72482500D01*
X107511881Y-72482500D01*
X107511873Y-72482500D01*
X107511864Y-72482500D01*
X105516129Y-72482500D01*
X105516123Y-72482500D01*
X105514192Y-72482659D01*
X105512545Y-72482885D01*
X105456516Y-72488908D01*
X105371152Y-72520747D01*
X105321666Y-72539204D01*
X105321665Y-72539205D01*
X105206456Y-72625450D01*
X105206450Y-72625456D01*
X105120205Y-72740665D01*
X105120203Y-72740668D01*
X105069907Y-72875516D01*
X105065963Y-72912212D01*
X105064432Y-72926456D01*
X105064432Y-72926460D01*
X105064431Y-72926459D01*
X105063500Y-72935128D01*
X103750713Y-72935128D01*
X103709875Y-72782721D01*
X103573972Y-72409327D01*
X103573969Y-72409321D01*
X103456428Y-72157254D01*
X103406043Y-72049202D01*
X103406035Y-72049187D01*
X103391782Y-72024500D01*
X103207360Y-71705072D01*
X103207359Y-71705070D01*
X103207327Y-71705015D01*
X103207284Y-71704948D01*
X103206747Y-71704196D01*
X102979443Y-71379571D01*
X102724038Y-71075193D01*
X102724033Y-71075187D01*
X102724025Y-71075178D01*
X102443055Y-70794208D01*
X102443046Y-70794200D01*
X102443039Y-70794194D01*
X102138666Y-70538793D01*
X101813168Y-70310877D01*
X101710923Y-70251846D01*
X101469042Y-70112195D01*
X101469030Y-70112189D01*
X101108901Y-69944258D01*
X100735502Y-69808354D01*
X100453383Y-69732762D01*
X100436511Y-69722478D01*
X100351699Y-69705516D01*
X100296450Y-69695774D01*
X99960380Y-69636515D01*
X99564536Y-69601883D01*
X99564533Y-69601883D01*
X99564530Y-69601883D01*
X99167172Y-69601883D01*
X99167168Y-69601883D01*
X99167164Y-69601883D01*
X98771320Y-69636515D01*
X98390694Y-69703631D01*
X98386386Y-69704007D01*
X98382060Y-69705029D01*
X98380412Y-69705388D01*
X98378339Y-69705908D01*
X98370573Y-69707741D01*
X98367874Y-69708766D01*
X97996198Y-69808354D01*
X97622799Y-69944258D01*
X97262670Y-70112189D01*
X97262658Y-70112195D01*
X96918538Y-70310874D01*
X96918520Y-70310885D01*
X96593039Y-70538789D01*
X96288661Y-70794194D01*
X96288637Y-70794216D01*
X96007684Y-71075169D01*
X96007662Y-71075193D01*
X95752257Y-71379571D01*
X95524353Y-71705052D01*
X95524342Y-71705070D01*
X95325663Y-72049190D01*
X95325662Y-72049193D01*
X95157731Y-72409322D01*
X95157727Y-72409330D01*
X95021822Y-72782730D01*
X94918985Y-73166527D01*
X94918981Y-73166550D01*
X94849983Y-73557852D01*
X94815351Y-73953696D01*
X94237874Y-73953696D01*
X94291966Y-73872740D01*
X94306500Y-73799674D01*
X94306500Y-72250326D01*
X94306500Y-72250323D01*
X94306500Y-72250139D01*
X94306064Y-72248134D01*
X94291972Y-72177289D01*
X94291967Y-72177266D01*
X94291966Y-72177260D01*
X94280251Y-72159728D01*
X94278557Y-72157192D01*
X94278556Y-72157190D01*
X94236604Y-72094402D01*
X94236600Y-72094398D01*
X94168945Y-72049193D01*
X94168945Y-72049192D01*
X94153742Y-72039034D01*
X94153739Y-72039033D01*
X94153735Y-72039032D01*
X94153725Y-72039030D01*
X94153709Y-72039026D01*
X94080680Y-72024500D01*
X94080677Y-72024500D01*
X94080674Y-72024500D01*
X92531326Y-72024500D01*
X92531323Y-72024500D01*
X92531319Y-72024500D01*
X92458285Y-72039027D01*
X92458262Y-72039032D01*
X92458258Y-72039033D01*
X92375399Y-72094399D01*
X92320033Y-72177258D01*
X92320032Y-72177266D01*
X92320028Y-72177281D01*
X92305500Y-72250318D01*
X92305500Y-72250321D01*
X92305500Y-73799678D01*
X92305500Y-73799680D01*
X92305499Y-73799680D01*
X88866241Y-73799680D01*
X89003139Y-73662782D01*
X89112632Y-73498914D01*
X89188051Y-73316835D01*
X89195219Y-73280795D01*
X89200632Y-73253585D01*
X89200632Y-73253582D01*
X89226500Y-73123543D01*
X89226500Y-72926456D01*
X89226500Y-72926453D01*
X89187812Y-72731963D01*
X89185729Y-72727560D01*
X89181137Y-72716472D01*
X89181133Y-72716462D01*
X89112638Y-72551098D01*
X89112633Y-72551089D01*
X89112628Y-72551079D01*
X89003139Y-72387218D01*
X89003136Y-72387214D01*
X89003131Y-72387208D01*
X88863790Y-72247867D01*
X88863784Y-72247862D01*
X88863783Y-72247861D01*
X88699926Y-72138375D01*
X88699925Y-72138374D01*
X88699920Y-72138371D01*
X88699907Y-72138364D01*
X88699900Y-72138360D01*
X88517861Y-72062958D01*
X88517847Y-72062953D01*
X88517839Y-72062950D01*
X88517829Y-72062947D01*
X88517826Y-72062946D01*
X88517822Y-72062945D01*
X88324546Y-72024500D01*
X88324543Y-72024500D01*
X88324541Y-72024500D01*
X88127459Y-72024500D01*
X88127457Y-72024500D01*
X88127453Y-72024500D01*
X87934176Y-72062945D01*
X87934170Y-72062947D01*
X87934160Y-72062950D01*
X87934155Y-72062951D01*
X87934137Y-72062958D01*
X87752098Y-72138360D01*
X87752089Y-72138365D01*
X87752072Y-72138375D01*
X87588215Y-72247861D01*
X87588214Y-72247862D01*
X87588208Y-72247867D01*
X87448867Y-72387208D01*
X87448862Y-72387214D01*
X87448861Y-72387215D01*
X87339375Y-72551072D01*
X87339365Y-72551089D01*
X87339360Y-72551098D01*
X87263958Y-72733137D01*
X87263945Y-72733176D01*
X87225500Y-72926451D01*
X87225500Y-73079174D01*
X87220237Y-73097094D01*
X82063762Y-73097094D01*
X81572282Y-72605614D01*
X81552580Y-72579938D01*
X81536807Y-72552620D01*
X81524423Y-72522722D01*
X81499984Y-72431515D01*
X81495921Y-72424479D01*
X81487171Y-72409322D01*
X81487170Y-72409321D01*
X81427513Y-72305991D01*
X81427508Y-72305984D01*
X81427493Y-72305968D01*
X81325030Y-72203505D01*
X81325014Y-72203490D01*
X81325006Y-72203485D01*
X81271243Y-72172445D01*
X81242808Y-72142624D01*
X81188007Y-72127939D01*
X81188007Y-72127940D01*
X81123740Y-72110720D01*
X81059475Y-72093500D01*
X81059474Y-72093500D01*
X80914525Y-72093500D01*
X80785994Y-72127939D01*
X80785993Y-72127940D01*
X80778338Y-72129991D01*
X80774510Y-72131017D01*
X80648991Y-72203485D01*
X80648984Y-72203490D01*
X80648968Y-72203505D01*
X80546505Y-72305968D01*
X80546490Y-72305984D01*
X80546485Y-72305992D01*
X80474017Y-72431509D01*
X80474004Y-72431541D01*
X80473909Y-72431914D01*
X80436500Y-72571525D01*
X58187484Y-72571525D01*
X58445846Y-72160343D01*
X58446631Y-72159113D01*
X58447515Y-72157745D01*
X58448174Y-72156739D01*
X59197214Y-71028123D01*
X59197909Y-71027090D01*
X59198894Y-71025644D01*
X59199600Y-71024622D01*
X59976570Y-69914994D01*
X59977274Y-69914001D01*
X59978288Y-69912590D01*
X59979046Y-69911550D01*
X60783404Y-68821682D01*
X60784201Y-68820618D01*
X60785247Y-68819237D01*
X60786030Y-68818218D01*
X60792052Y-68810471D01*
X103793499Y-68810471D01*
X103833864Y-69013394D01*
X103833868Y-69013412D01*
X103833870Y-69013420D01*
X103913058Y-69204596D01*
X104028023Y-69376655D01*
X104028027Y-69376661D01*
X104174336Y-69522970D01*
X104174340Y-69522973D01*
X104174342Y-69522975D01*
X104174345Y-69522977D01*
X104174349Y-69522980D01*
X104174348Y-69522980D01*
X104174411Y-69523032D01*
X104174448Y-69523046D01*
X104346402Y-69637941D01*
X104537580Y-69717130D01*
X104728540Y-69755114D01*
X104737559Y-69756908D01*
X104739794Y-69757409D01*
X104740532Y-69757500D01*
X105747466Y-69757500D01*
X105751586Y-69757500D01*
X105759435Y-69755118D01*
X105950420Y-69717130D01*
X106141598Y-69637941D01*
X106313655Y-69522977D01*
X106459977Y-69376655D01*
X106574941Y-69204598D01*
X106654130Y-69013420D01*
X106694500Y-68810465D01*
X106694500Y-68603535D01*
X106654130Y-68400580D01*
X106574941Y-68209402D01*
X106460046Y-68037449D01*
X106460036Y-68037417D01*
X106459980Y-68037348D01*
X106459980Y-68037349D01*
X106459977Y-68037345D01*
X106459975Y-68037342D01*
X106459973Y-68037340D01*
X106459970Y-68037336D01*
X106313659Y-67891025D01*
X106192175Y-67809853D01*
X106141604Y-67776062D01*
X106141595Y-67776057D01*
X106018010Y-67724867D01*
X105950420Y-67696870D01*
X105950412Y-67696868D01*
X105950404Y-67696866D01*
X105950394Y-67696864D01*
X105747471Y-67656500D01*
X105747469Y-67656500D01*
X105747465Y-67656500D01*
X104740535Y-67656500D01*
X104740530Y-67656500D01*
X104740528Y-67656500D01*
X104537604Y-67696864D01*
X104537579Y-67696870D01*
X104346404Y-67776057D01*
X104174337Y-67891027D01*
X104028027Y-68037337D01*
X103913057Y-68209404D01*
X103833870Y-68400579D01*
X103833864Y-68400604D01*
X103793500Y-68603527D01*
X103793500Y-68603530D01*
X103793500Y-68810469D01*
X103793500Y-68810471D01*
X103793499Y-68810471D01*
X60792052Y-68810471D01*
X61617283Y-67748777D01*
X61617993Y-67747875D01*
X61619140Y-67746436D01*
X61619886Y-67745513D01*
X62477628Y-66697024D01*
X62478418Y-66696070D01*
X62479546Y-66694726D01*
X62480330Y-66693803D01*
X62662962Y-66481581D01*
X103635500Y-66481581D01*
X103635500Y-66614419D01*
X103669881Y-66742730D01*
X103736300Y-66857770D01*
X103830230Y-66951700D01*
X103945270Y-67018119D01*
X104073581Y-67052500D01*
X104222949Y-67052500D01*
X104257881Y-67057521D01*
X104289695Y-67066863D01*
X104323644Y-67082735D01*
X104346402Y-67097941D01*
X104537580Y-67177130D01*
X104728540Y-67215114D01*
X104737559Y-67216908D01*
X104739794Y-67217409D01*
X104740532Y-67217500D01*
X105747466Y-67217500D01*
X105751586Y-67217500D01*
X105759435Y-67215118D01*
X105950420Y-67177130D01*
X106141598Y-67097941D01*
X106313655Y-66982977D01*
X106459977Y-66836655D01*
X106574941Y-66664598D01*
X106654130Y-66473420D01*
X106694500Y-66270465D01*
X106694500Y-66063535D01*
X106654130Y-65860580D01*
X106574941Y-65669402D01*
X106460046Y-65497449D01*
X106460036Y-65497417D01*
X106459980Y-65497348D01*
X106459980Y-65497349D01*
X106459977Y-65497345D01*
X106459975Y-65497342D01*
X106459973Y-65497340D01*
X106459970Y-65497336D01*
X106313662Y-65351028D01*
X106313655Y-65351022D01*
X106227626Y-65293540D01*
X106227625Y-65293540D01*
X106141604Y-65236062D01*
X106141595Y-65236057D01*
X106018010Y-65184867D01*
X105950420Y-65156870D01*
X105950412Y-65156868D01*
X105950404Y-65156866D01*
X105950394Y-65156864D01*
X105747471Y-65116500D01*
X105747469Y-65116500D01*
X105747465Y-65116500D01*
X104740535Y-65116500D01*
X104740530Y-65116500D01*
X104740528Y-65116500D01*
X104537604Y-65156864D01*
X104537579Y-65156870D01*
X104346404Y-65236057D01*
X104174337Y-65351027D01*
X104028027Y-65497337D01*
X103913057Y-65669404D01*
X103833870Y-65860579D01*
X103833864Y-65860604D01*
X103793500Y-66063527D01*
X103793500Y-66111838D01*
X103788476Y-66146775D01*
X103781064Y-66172016D01*
X103749769Y-66224760D01*
X103736302Y-66238226D01*
X103736298Y-66238230D01*
X103736298Y-66238231D01*
X103736296Y-66238234D01*
X103669882Y-66353266D01*
X103669881Y-66353270D01*
X103635500Y-66481581D01*
X62662962Y-66481581D01*
X63363863Y-65667119D01*
X63364765Y-65666085D01*
X63365843Y-65664865D01*
X63366825Y-65663766D01*
X63495195Y-65521910D01*
X63649832Y-65351027D01*
X64275587Y-64659530D01*
X64276599Y-64658428D01*
X64277615Y-64657334D01*
X64278635Y-64656248D01*
X64481525Y-64442980D01*
X65159360Y-63730471D01*
X103793499Y-63730471D01*
X103833864Y-63933394D01*
X103833868Y-63933412D01*
X103833870Y-63933420D01*
X103913058Y-64124596D01*
X104028023Y-64296655D01*
X104028027Y-64296661D01*
X104174336Y-64442970D01*
X104174340Y-64442973D01*
X104174342Y-64442975D01*
X104174345Y-64442977D01*
X104174349Y-64442980D01*
X104174348Y-64442980D01*
X104174411Y-64443032D01*
X104174448Y-64443046D01*
X104346402Y-64557941D01*
X104537580Y-64637130D01*
X104728540Y-64675114D01*
X104737559Y-64676908D01*
X104739794Y-64677409D01*
X104740532Y-64677500D01*
X105747466Y-64677500D01*
X105751586Y-64677500D01*
X105759435Y-64675118D01*
X105950420Y-64637130D01*
X106141598Y-64557941D01*
X106313655Y-64442977D01*
X106459977Y-64296655D01*
X106574941Y-64124598D01*
X106654130Y-63933420D01*
X106694500Y-63730465D01*
X106694500Y-63523535D01*
X106654130Y-63320580D01*
X106574941Y-63129402D01*
X106460046Y-62957449D01*
X106460036Y-62957417D01*
X106459980Y-62957348D01*
X106459980Y-62957349D01*
X106459977Y-62957345D01*
X106459975Y-62957342D01*
X106459973Y-62957340D01*
X106459970Y-62957336D01*
X106313659Y-62811025D01*
X106163759Y-62710866D01*
X106163759Y-62710865D01*
X106141598Y-62696059D01*
X106141591Y-62696056D01*
X105950420Y-62616870D01*
X105950412Y-62616868D01*
X105950404Y-62616866D01*
X105950394Y-62616864D01*
X105747471Y-62576500D01*
X105747469Y-62576500D01*
X105747465Y-62576500D01*
X104740535Y-62576500D01*
X104740530Y-62576500D01*
X104740528Y-62576500D01*
X104537604Y-62616864D01*
X104537579Y-62616870D01*
X104346404Y-62696057D01*
X104174337Y-62811027D01*
X104028027Y-62957337D01*
X103913057Y-63129404D01*
X103833870Y-63320579D01*
X103833864Y-63320604D01*
X103793500Y-63523527D01*
X103793500Y-63523530D01*
X103793500Y-63730469D01*
X103793500Y-63730471D01*
X103793499Y-63730471D01*
X65159360Y-63730471D01*
X65212159Y-63674971D01*
X65213004Y-63674094D01*
X65214297Y-63672769D01*
X65215142Y-63671915D01*
X66172913Y-62714144D01*
X66173767Y-62713299D01*
X66175092Y-62712006D01*
X66175969Y-62711161D01*
X67157262Y-61777622D01*
X67158333Y-61776617D01*
X67159427Y-61775601D01*
X67160529Y-61774589D01*
X68164885Y-60865718D01*
X68165856Y-60864852D01*
X68167182Y-60863682D01*
X68168043Y-60862931D01*
X68247001Y-60794983D01*
X68285960Y-60761458D01*
X68776109Y-60339649D01*
X69195664Y-59978591D01*
X69195942Y-59978353D01*
X69196753Y-59977665D01*
X69197199Y-59977290D01*
X69246868Y-59935614D01*
X69246867Y-59935614D01*
X69246874Y-59935609D01*
X69322462Y-59827658D01*
X69367535Y-59703822D01*
X69379021Y-59572538D01*
X69356137Y-59442756D01*
X69300442Y-59323319D01*
X60648482Y-49012313D01*
X60648482Y-49012312D01*
X60483593Y-48815804D01*
X60464985Y-48785813D01*
X60458719Y-48771495D01*
X60449870Y-48702217D01*
X60450098Y-48700790D01*
X60474893Y-48643933D01*
X60480051Y-48637342D01*
X60499056Y-48617896D01*
X61191398Y-48050010D01*
X61192306Y-48049274D01*
X61193525Y-48048297D01*
X61194342Y-48047649D01*
X62401218Y-47102018D01*
X62402147Y-47101299D01*
X62403237Y-47100464D01*
X62404278Y-47099677D01*
X63631907Y-46181291D01*
X63632935Y-46180533D01*
X63634046Y-46179722D01*
X63634990Y-46179040D01*
X64882795Y-45288332D01*
X64883622Y-45287748D01*
X64885060Y-45286745D01*
X64885924Y-45286151D01*
X66153402Y-44423479D01*
X66154260Y-44422902D01*
X66155629Y-44421992D01*
X66156546Y-44421392D01*
X67442954Y-43587264D01*
X67443844Y-43586694D01*
X67445257Y-43585800D01*
X67446132Y-43585255D01*
X68750849Y-42780072D01*
X68751841Y-42779468D01*
X68753085Y-42778719D01*
X68754083Y-42778126D01*
X70076487Y-42002277D01*
X70077500Y-42001690D01*
X70078759Y-42000970D01*
X70079756Y-42000406D01*
X71419165Y-41254288D01*
X71420137Y-41253753D01*
X71421446Y-41253043D01*
X71422584Y-41252435D01*
X72103086Y-40893039D01*
X72210653Y-40836228D01*
X72243884Y-40824358D01*
X72259206Y-40821248D01*
X72328801Y-40827194D01*
G37*
%TD.AperFunction*%
%TD*%
%TA.AperFunction,Conductor*%
%TO.N,GNDPWR*%
G36*
X140804000Y-90551000D02*
G01*
X135470000Y-90551000D01*
X134454000Y-89535000D01*
X133504115Y-89535000D01*
X133491920Y-89534399D01*
X133406313Y-89525937D01*
X133324069Y-89517809D01*
X133300148Y-89513033D01*
X133144679Y-89465696D01*
X133122156Y-89456330D01*
X132978962Y-89379474D01*
X132958708Y-89365881D01*
X132833324Y-89262474D01*
X132816125Y-89245180D01*
X132713409Y-89119225D01*
X132699935Y-89098908D01*
X132623863Y-88955282D01*
X132614624Y-88932713D01*
X132568143Y-88776977D01*
X132563500Y-88753030D01*
X132547835Y-88585087D01*
X132547302Y-88572916D01*
X132550735Y-87950041D01*
X132551394Y-87937956D01*
X132568743Y-87770671D01*
X132573581Y-87746946D01*
X132621326Y-87592055D01*
X132630687Y-87569719D01*
X132707631Y-87427069D01*
X132721147Y-87406990D01*
X132824363Y-87282013D01*
X132841533Y-87264939D01*
X132860613Y-87249357D01*
X132967070Y-87162418D01*
X132987222Y-87149012D01*
X133130307Y-87072848D01*
X133152683Y-87063616D01*
X133307836Y-87016727D01*
X133331588Y-87012019D01*
X133498958Y-86995593D01*
X133511070Y-86995000D01*
X134454000Y-86995000D01*
X135470000Y-85979000D01*
X140804000Y-85979000D01*
X140804000Y-90551000D01*
G37*
%TD.AperFunction*%
%TD*%
%TA.AperFunction,Conductor*%
%TO.N,+24V_INPUT*%
G36*
X89803917Y-102235147D02*
G01*
X89810047Y-102235448D01*
X89816058Y-102235892D01*
X89983886Y-102252421D01*
X89995910Y-102254205D01*
X90007792Y-102256568D01*
X90019584Y-102259521D01*
X90172181Y-102305810D01*
X90183629Y-102309907D01*
X90194833Y-102314548D01*
X90205818Y-102319744D01*
X90328116Y-102385114D01*
X90346421Y-102394898D01*
X90356857Y-102401153D01*
X90366946Y-102407894D01*
X90376722Y-102415144D01*
X90499959Y-102516282D01*
X90508975Y-102524454D01*
X90517544Y-102533023D01*
X90525716Y-102542039D01*
X90626854Y-102665276D01*
X90634100Y-102675045D01*
X90640847Y-102685142D01*
X90647101Y-102695577D01*
X90722249Y-102836170D01*
X90727451Y-102847168D01*
X90732090Y-102858367D01*
X90736191Y-102869827D01*
X90782471Y-103022393D01*
X90785428Y-103034199D01*
X90787794Y-103046095D01*
X90789579Y-103058129D01*
X90806104Y-103225903D01*
X90806551Y-103231970D01*
X90806850Y-103238053D01*
X90807000Y-103244141D01*
X90807000Y-107702857D01*
X90806850Y-107708945D01*
X90806551Y-107715028D01*
X90806104Y-107721095D01*
X90789579Y-107888869D01*
X90787794Y-107900903D01*
X90785428Y-107912799D01*
X90782471Y-107924605D01*
X90736191Y-108077171D01*
X90732090Y-108088631D01*
X90727451Y-108099830D01*
X90722249Y-108110828D01*
X90647101Y-108251421D01*
X90640842Y-108261864D01*
X90634100Y-108271953D01*
X90626854Y-108281722D01*
X90525716Y-108404959D01*
X90517544Y-108413975D01*
X90508975Y-108422544D01*
X90499959Y-108430716D01*
X90376722Y-108531854D01*
X90366953Y-108539100D01*
X90356864Y-108545842D01*
X90346421Y-108552101D01*
X90205828Y-108627249D01*
X90194830Y-108632451D01*
X90183631Y-108637090D01*
X90172171Y-108641191D01*
X90019605Y-108687471D01*
X90007799Y-108690428D01*
X89995903Y-108692794D01*
X89983869Y-108694579D01*
X89816095Y-108711104D01*
X89810028Y-108711551D01*
X89803945Y-108711850D01*
X89797857Y-108712000D01*
X84288998Y-108712000D01*
X83996107Y-109004893D01*
X82556354Y-110444644D01*
X82551954Y-110448834D01*
X82547451Y-110452916D01*
X82542835Y-110456898D01*
X82412509Y-110563854D01*
X82402740Y-110571100D01*
X82392651Y-110577842D01*
X82382208Y-110584101D01*
X82241615Y-110659249D01*
X82230617Y-110664451D01*
X82219418Y-110669090D01*
X82207958Y-110673191D01*
X82055392Y-110719471D01*
X82043586Y-110722428D01*
X82031690Y-110724794D01*
X82019656Y-110726579D01*
X81851881Y-110743104D01*
X81845814Y-110743551D01*
X81839731Y-110743850D01*
X81833643Y-110744000D01*
X77424143Y-110744000D01*
X77418063Y-110743851D01*
X77411971Y-110743551D01*
X77405904Y-110743104D01*
X77238129Y-110726579D01*
X77226095Y-110724794D01*
X77214199Y-110722428D01*
X77202393Y-110719471D01*
X77049827Y-110673191D01*
X77038367Y-110669090D01*
X77027168Y-110664451D01*
X77016170Y-110659249D01*
X76997610Y-110649328D01*
X76875569Y-110584096D01*
X76865142Y-110577847D01*
X76855045Y-110571100D01*
X76845276Y-110563854D01*
X76722039Y-110462716D01*
X76713023Y-110454544D01*
X76704454Y-110445975D01*
X76696282Y-110436959D01*
X76595144Y-110313722D01*
X76587898Y-110303953D01*
X76581147Y-110293850D01*
X76574905Y-110283435D01*
X76499745Y-110142821D01*
X76494551Y-110131840D01*
X76489903Y-110120619D01*
X76485807Y-110109170D01*
X76439521Y-109956584D01*
X76436566Y-109944783D01*
X76434205Y-109932909D01*
X76432421Y-109920882D01*
X76415892Y-109753058D01*
X76415448Y-109747047D01*
X76415147Y-109740917D01*
X76415000Y-109734857D01*
X76415000Y-103244141D01*
X76415148Y-103238075D01*
X76415149Y-103238053D01*
X76415449Y-103231948D01*
X76415892Y-103225939D01*
X76432421Y-103058109D01*
X76434206Y-103046083D01*
X76436570Y-103034199D01*
X76439518Y-103022425D01*
X76485813Y-102869806D01*
X76489908Y-102858367D01*
X76494550Y-102847160D01*
X76499738Y-102836191D01*
X76574905Y-102695563D01*
X76581156Y-102685135D01*
X76587889Y-102675058D01*
X76595130Y-102665292D01*
X76696295Y-102542023D01*
X76704448Y-102533028D01*
X76713028Y-102524448D01*
X76722023Y-102516295D01*
X76845292Y-102415130D01*
X76855058Y-102407889D01*
X76865135Y-102401156D01*
X76875563Y-102394905D01*
X77016191Y-102319738D01*
X77027160Y-102314550D01*
X77038371Y-102309906D01*
X77049806Y-102305813D01*
X77202425Y-102259518D01*
X77214202Y-102256569D01*
X77226085Y-102254205D01*
X77238109Y-102252421D01*
X77405940Y-102235892D01*
X77411952Y-102235448D01*
X77418081Y-102235147D01*
X77424143Y-102235000D01*
X89797857Y-102235000D01*
X89803917Y-102235147D01*
G37*
%TD.AperFunction*%
%TD*%
%TA.AperFunction,Conductor*%
%TO.N,GNDPWR*%
G36*
X135470000Y-90551000D02*
G01*
X140804000Y-90551000D01*
X140804000Y-159175433D01*
X140803734Y-159183543D01*
X140783142Y-159497711D01*
X140781025Y-159513792D01*
X140720400Y-159818574D01*
X140716202Y-159834241D01*
X140616311Y-160128512D01*
X140610104Y-160143498D01*
X140472658Y-160422210D01*
X140464548Y-160436257D01*
X140291898Y-160694646D01*
X140282024Y-160707514D01*
X140077125Y-160941156D01*
X140065656Y-160952625D01*
X139832014Y-161157524D01*
X139819146Y-161167398D01*
X139560757Y-161340048D01*
X139546710Y-161348158D01*
X139267998Y-161485604D01*
X139253012Y-161491811D01*
X138958741Y-161591702D01*
X138943074Y-161595900D01*
X138638292Y-161656525D01*
X138622211Y-161658642D01*
X138308043Y-161679234D01*
X138299933Y-161679500D01*
X137974067Y-161679500D01*
X137965957Y-161679234D01*
X137651788Y-161658642D01*
X137635707Y-161656525D01*
X137330925Y-161595900D01*
X137315258Y-161591702D01*
X137020987Y-161491811D01*
X137006001Y-161485604D01*
X136727289Y-161348158D01*
X136713242Y-161340048D01*
X136454853Y-161167398D01*
X136441985Y-161157524D01*
X136208343Y-160952625D01*
X136196874Y-160941156D01*
X135991975Y-160707514D01*
X135982101Y-160694646D01*
X135809451Y-160436257D01*
X135801341Y-160422210D01*
X135794659Y-160408660D01*
X135663892Y-160143491D01*
X135657688Y-160128512D01*
X135557797Y-159834241D01*
X135553599Y-159818574D01*
X135545525Y-159777986D01*
X135492972Y-159513781D01*
X135490857Y-159497723D01*
X135470265Y-159183543D01*
X135470000Y-159175433D01*
X135470000Y-139573000D01*
X132649106Y-136752106D01*
X132643559Y-136746184D01*
X132435975Y-136509480D01*
X132426101Y-136496612D01*
X132253451Y-136238223D01*
X132245341Y-136224176D01*
X132238659Y-136210626D01*
X132107892Y-135945457D01*
X132101688Y-135930478D01*
X132001797Y-135636207D01*
X131997599Y-135620540D01*
X131989258Y-135578609D01*
X131936972Y-135315748D01*
X131934857Y-135299690D01*
X131914265Y-134985509D01*
X131914000Y-134977399D01*
X131914000Y-130937000D01*
X135470000Y-130937000D01*
X135470000Y-121920000D01*
X135468834Y-121921165D01*
X135463782Y-90544782D01*
X135470000Y-90551000D01*
G37*
%TD.AperFunction*%
%TA.AperFunction,Conductor*%
G36*
X140804000Y-85979000D02*
G01*
X135470000Y-85979000D01*
X135463048Y-85985951D01*
X135456951Y-48114086D01*
X135521363Y-48133000D01*
X140680000Y-48133000D01*
X140731511Y-48121794D01*
X140784315Y-48076039D01*
X140804000Y-48009000D01*
X140804000Y-85979000D01*
G37*
%TD.AperFunction*%
%TD*%
%TA.AperFunction,Conductor*%
%TO.N,Net-(D4-K)*%
G36*
X120456847Y-130556597D02*
G01*
X120633728Y-130574018D01*
X120657556Y-130578757D01*
X120821788Y-130628576D01*
X120844240Y-130637877D01*
X120995585Y-130718772D01*
X121015797Y-130732277D01*
X121153186Y-130845030D01*
X121162202Y-130853202D01*
X127806797Y-137497797D01*
X127814969Y-137506813D01*
X127927722Y-137644202D01*
X127941227Y-137664414D01*
X128022121Y-137815756D01*
X128031424Y-137838214D01*
X128081240Y-138002437D01*
X128085982Y-138026278D01*
X128103403Y-138203152D01*
X128104000Y-138215306D01*
X128104000Y-143470693D01*
X128103403Y-143482847D01*
X128085982Y-143659721D01*
X128081240Y-143683562D01*
X128031424Y-143847785D01*
X128022121Y-143870243D01*
X127941227Y-144021585D01*
X127927722Y-144041797D01*
X127814969Y-144179186D01*
X127806797Y-144188202D01*
X124972202Y-147022797D01*
X124963186Y-147030969D01*
X124825797Y-147143722D01*
X124805585Y-147157227D01*
X124654243Y-147238121D01*
X124631785Y-147247424D01*
X124467562Y-147297240D01*
X124443721Y-147301982D01*
X124266847Y-147319403D01*
X124254693Y-147320000D01*
X119380307Y-147320000D01*
X119368153Y-147319403D01*
X119191278Y-147301982D01*
X119167437Y-147297240D01*
X119003214Y-147247424D01*
X118980756Y-147238121D01*
X118829414Y-147157227D01*
X118809202Y-147143722D01*
X118671813Y-147030969D01*
X118662797Y-147022797D01*
X117563000Y-145923000D01*
X117148786Y-145923000D01*
X115528000Y-145923000D01*
X115460961Y-145903315D01*
X115415206Y-145850511D01*
X115404000Y-145799000D01*
X115404000Y-131562092D01*
X115404597Y-131549938D01*
X115422018Y-131373056D01*
X115426757Y-131349232D01*
X115476577Y-131184994D01*
X115485875Y-131162549D01*
X115566775Y-131011195D01*
X115580272Y-130990995D01*
X115689149Y-130858328D01*
X115706328Y-130841149D01*
X115838995Y-130732272D01*
X115859195Y-130718775D01*
X116010549Y-130637875D01*
X116032994Y-130628577D01*
X116197232Y-130578757D01*
X116221056Y-130574018D01*
X116397939Y-130556597D01*
X116410093Y-130556000D01*
X120444693Y-130556000D01*
X120456847Y-130556597D01*
G37*
%TD.AperFunction*%
%TD*%
%TA.AperFunction,Conductor*%
%TO.N,GND*%
G36*
X82579829Y-89681685D02*
G01*
X82625584Y-89734489D01*
X82636784Y-89787204D01*
X82563977Y-97286231D01*
X82543643Y-97353076D01*
X82490397Y-97398316D01*
X82440010Y-97409027D01*
X82222145Y-97409075D01*
X76034001Y-97410440D01*
X76034000Y-97410440D01*
X76034000Y-97410441D01*
X76033999Y-97410442D01*
X75734164Y-97710064D01*
X75734161Y-97710067D01*
X75734148Y-97710080D01*
X75734147Y-97710079D01*
X75734130Y-97710097D01*
X75384573Y-98059408D01*
X74002000Y-99440998D01*
X74002000Y-99440999D01*
X74002000Y-99441000D01*
X74002000Y-117729000D01*
X75018000Y-118745000D01*
X77641210Y-118745000D01*
X77670170Y-118745000D01*
X77705106Y-118750023D01*
X77720104Y-118754427D01*
X77778855Y-118792172D01*
X77780042Y-118793541D01*
X77807518Y-118848402D01*
X77809163Y-118855960D01*
X77812000Y-118882331D01*
X77812000Y-127641857D01*
X77811850Y-127647945D01*
X77811551Y-127654028D01*
X77811104Y-127660095D01*
X77794579Y-127827869D01*
X77792794Y-127839903D01*
X77790428Y-127851799D01*
X77787471Y-127863605D01*
X77741191Y-128016171D01*
X77737090Y-128027631D01*
X77732451Y-128038830D01*
X77727249Y-128049828D01*
X77652101Y-128190421D01*
X77645842Y-128200864D01*
X77639100Y-128210953D01*
X77631854Y-128220722D01*
X77530716Y-128343959D01*
X77522544Y-128352975D01*
X77513975Y-128361544D01*
X77504959Y-128369716D01*
X77381722Y-128470854D01*
X77371953Y-128478100D01*
X77361864Y-128484842D01*
X77351421Y-128491101D01*
X77210828Y-128566249D01*
X77199830Y-128571451D01*
X77188631Y-128576090D01*
X77177171Y-128580191D01*
X77024605Y-128626471D01*
X77012799Y-128629428D01*
X77000903Y-128631794D01*
X76988869Y-128633579D01*
X76821095Y-128650104D01*
X76815028Y-128650551D01*
X76808945Y-128650850D01*
X76802857Y-128651000D01*
X69677143Y-128651000D01*
X69671063Y-128650851D01*
X69664971Y-128650551D01*
X69658904Y-128650104D01*
X69491129Y-128633579D01*
X69479095Y-128631794D01*
X69467199Y-128629428D01*
X69455393Y-128626471D01*
X69302827Y-128580191D01*
X69291367Y-128576090D01*
X69280168Y-128571451D01*
X69269170Y-128566249D01*
X69250610Y-128556328D01*
X69128569Y-128491096D01*
X69118142Y-128484847D01*
X69108045Y-128478100D01*
X69098276Y-128470854D01*
X68975039Y-128369716D01*
X68966023Y-128361544D01*
X68957454Y-128352975D01*
X68949282Y-128343959D01*
X68848144Y-128220722D01*
X68840898Y-128210953D01*
X68834147Y-128200850D01*
X68827905Y-128190435D01*
X68752745Y-128049821D01*
X68747547Y-128038830D01*
X68742903Y-128027619D01*
X68738807Y-128016170D01*
X68692527Y-127863605D01*
X68692521Y-127863584D01*
X68689566Y-127851783D01*
X68687205Y-127839909D01*
X68685421Y-127827882D01*
X68685420Y-127827869D01*
X68668892Y-127660058D01*
X68668448Y-127654028D01*
X68668147Y-127647917D01*
X68668000Y-127641857D01*
X68668000Y-95809362D01*
X68687685Y-95742323D01*
X68704319Y-95721681D01*
X74727681Y-89698319D01*
X74789004Y-89664834D01*
X74815362Y-89662000D01*
X82512790Y-89662000D01*
X82579829Y-89681685D01*
G37*
%TD.AperFunction*%
%TD*%
%TA.AperFunction,Conductor*%
%TO.N,GNDPWR*%
G36*
X135470000Y-130937000D02*
G01*
X131914000Y-130937000D01*
X131914000Y-130175000D01*
X130263000Y-128524000D01*
X122936307Y-128524000D01*
X122924153Y-128523403D01*
X122747278Y-128505982D01*
X122723437Y-128501240D01*
X122559214Y-128451424D01*
X122536756Y-128442121D01*
X122385414Y-128361227D01*
X122365202Y-128347722D01*
X122227813Y-128234969D01*
X122218797Y-128226797D01*
X121246000Y-127254000D01*
X120831786Y-127254000D01*
X117322454Y-127254000D01*
X117298283Y-127251621D01*
X117237640Y-127239569D01*
X117192975Y-127221087D01*
X117151898Y-127193672D01*
X117117692Y-127159514D01*
X117090220Y-127118477D01*
X117071675Y-127073839D01*
X117059537Y-127013204D01*
X117057126Y-126989055D01*
X117055290Y-125682829D01*
X117059476Y-125650719D01*
X117072095Y-125603401D01*
X117104163Y-125547740D01*
X117126808Y-125525063D01*
X117182428Y-125492916D01*
X117229722Y-125480231D01*
X117261840Y-125476000D01*
X131914000Y-125476000D01*
X135470000Y-121920000D01*
X135470000Y-130937000D01*
G37*
%TD.AperFunction*%
%TD*%
%TA.AperFunction,Conductor*%
%TO.N,VCAP*%
G36*
X145586287Y-32475531D02*
G01*
X145630096Y-32483311D01*
X145643546Y-32486085D01*
X146304230Y-32641588D01*
X146317552Y-32645116D01*
X146968586Y-32836962D01*
X146981705Y-32841227D01*
X147621079Y-33068820D01*
X147633942Y-33073804D01*
X147807964Y-33146843D01*
X148259778Y-33336475D01*
X148272299Y-33342143D01*
X148666773Y-33534057D01*
X148882629Y-33639072D01*
X148894832Y-33645432D01*
X149487802Y-33975717D01*
X149499620Y-33982737D01*
X150073363Y-34345338D01*
X150084809Y-34353023D01*
X150473920Y-34630238D01*
X150637562Y-34746821D01*
X150648571Y-34755133D01*
X151178672Y-35178942D01*
X151189204Y-35187851D01*
X151695041Y-35640384D01*
X151705044Y-35649845D01*
X152185026Y-36129682D01*
X152194508Y-36139701D01*
X152647185Y-36645388D01*
X152656097Y-36655917D01*
X153080069Y-37185890D01*
X153088385Y-37196897D01*
X153482353Y-37749532D01*
X153490040Y-37760973D01*
X153635209Y-37990518D01*
X153852800Y-38334581D01*
X153859848Y-38346439D01*
X154190297Y-38939278D01*
X154196677Y-38951510D01*
X154493770Y-39561706D01*
X154499463Y-39574271D01*
X154762316Y-40200004D01*
X154767304Y-40212865D01*
X154995101Y-40852196D01*
X154999369Y-40865315D01*
X155191400Y-41516248D01*
X155194936Y-41529582D01*
X155350634Y-42190193D01*
X155353425Y-42203702D01*
X155472295Y-42871899D01*
X155474334Y-42885543D01*
X155556017Y-43559305D01*
X155557297Y-43573040D01*
X155601541Y-44250278D01*
X155602059Y-44264064D01*
X155608730Y-44942736D01*
X155608483Y-44956529D01*
X155577558Y-45634509D01*
X155576548Y-45648266D01*
X155508125Y-46323493D01*
X155506355Y-46337175D01*
X155400641Y-47007584D01*
X155398116Y-47021145D01*
X155255435Y-47684682D01*
X155252162Y-47698084D01*
X155072955Y-48352691D01*
X155068945Y-48365890D01*
X154853767Y-49009552D01*
X154849033Y-49022509D01*
X154598528Y-49653290D01*
X154593083Y-49665965D01*
X154308032Y-50281902D01*
X154301893Y-50294256D01*
X153983177Y-50893445D01*
X153976364Y-50905440D01*
X153624951Y-51486065D01*
X153617484Y-51497665D01*
X153234447Y-52057948D01*
X153226349Y-52069116D01*
X152812874Y-52607322D01*
X152804170Y-52618024D01*
X152361533Y-53132496D01*
X152352250Y-53142700D01*
X151905910Y-53606798D01*
X151905907Y-53606802D01*
X151877610Y-53636226D01*
X151875531Y-53638305D01*
X151830034Y-53683063D01*
X151828976Y-53684860D01*
X151827500Y-53686337D01*
X151795565Y-53741648D01*
X151763208Y-53796647D01*
X151762651Y-53798657D01*
X151761608Y-53800465D01*
X151745084Y-53862130D01*
X151728057Y-53923657D01*
X151728039Y-53925744D01*
X151727500Y-53927759D01*
X151727500Y-53965985D01*
X151727500Y-53990491D01*
X151727492Y-53992534D01*
X151726896Y-54065162D01*
X151727500Y-54074988D01*
X151727500Y-149379002D01*
X151726897Y-149388821D01*
X151726976Y-149398540D01*
X151726976Y-149398542D01*
X151727500Y-149462420D01*
X151727500Y-149526219D01*
X151728039Y-149528233D01*
X151728057Y-149530322D01*
X151745093Y-149591879D01*
X151761608Y-149653513D01*
X151762651Y-149655319D01*
X151763208Y-149657332D01*
X151795596Y-149712382D01*
X151827500Y-149767641D01*
X151828974Y-149769115D01*
X151830034Y-149770916D01*
X151874577Y-149814734D01*
X151879366Y-149819577D01*
X152352260Y-150311285D01*
X152361541Y-150321488D01*
X152475956Y-150454471D01*
X152804174Y-150835953D01*
X152812878Y-150846655D01*
X153226355Y-151384863D01*
X153234453Y-151396031D01*
X153617486Y-151956306D01*
X153624953Y-151967905D01*
X153976377Y-152548545D01*
X153983190Y-152560541D01*
X154301899Y-153159716D01*
X154308038Y-153172069D01*
X154593097Y-153788019D01*
X154598542Y-153800695D01*
X154849043Y-154431466D01*
X154853777Y-154444422D01*
X155068961Y-155088094D01*
X155072971Y-155101294D01*
X155252181Y-155755911D01*
X155255453Y-155769312D01*
X155398129Y-156432819D01*
X155400655Y-156446381D01*
X155506373Y-157116809D01*
X155508143Y-157130490D01*
X155576567Y-157805718D01*
X155577577Y-157819476D01*
X155608502Y-158497455D01*
X155608749Y-158511248D01*
X155602079Y-159189923D01*
X155601561Y-159203708D01*
X155557319Y-159880944D01*
X155556039Y-159894680D01*
X155474356Y-160568447D01*
X155472317Y-160582090D01*
X155353449Y-161250282D01*
X155350658Y-161263792D01*
X155194959Y-161924407D01*
X155191423Y-161937741D01*
X154999391Y-162588681D01*
X154995123Y-162601799D01*
X154767330Y-163241120D01*
X154762342Y-163253981D01*
X154499488Y-163879720D01*
X154493795Y-163892287D01*
X154196697Y-164502492D01*
X154190317Y-164514722D01*
X153859878Y-165107547D01*
X153852830Y-165119406D01*
X153490074Y-165693008D01*
X153482381Y-165704458D01*
X153088415Y-166257093D01*
X153080099Y-166268100D01*
X152656115Y-166798089D01*
X152647202Y-166808619D01*
X152194533Y-167314298D01*
X152185051Y-167324317D01*
X151705068Y-167804155D01*
X151695045Y-167813634D01*
X151189239Y-168266141D01*
X151178707Y-168275051D01*
X150648594Y-168698870D01*
X150637585Y-168707183D01*
X150084834Y-169100979D01*
X150073382Y-169108668D01*
X149499649Y-169471264D01*
X149487787Y-169478308D01*
X148894884Y-169808556D01*
X148882652Y-169814933D01*
X148666787Y-169919953D01*
X148272336Y-170111855D01*
X148259776Y-170117541D01*
X147633962Y-170380203D01*
X147621099Y-170385187D01*
X146981725Y-170612780D01*
X146968606Y-170617045D01*
X146317571Y-170808892D01*
X146304235Y-170812423D01*
X145678375Y-170959729D01*
X145581279Y-170963110D01*
X145490280Y-170929077D01*
X145419232Y-170862810D01*
X145378951Y-170774399D01*
X145372329Y-170717503D01*
X145293758Y-32720833D01*
X145312657Y-32625540D01*
X145366587Y-32544728D01*
X145447338Y-32490705D01*
X145542615Y-32471697D01*
X145586287Y-32475531D01*
G37*
%TD.AperFunction*%
%TD*%
%TA.AperFunction,Conductor*%
%TO.N,GND*%
G36*
X52312539Y-113049685D02*
G01*
X52358294Y-113102489D01*
X52369500Y-113154000D01*
X52369500Y-113229475D01*
X52407016Y-113369485D01*
X52462387Y-113465391D01*
X52479000Y-113527389D01*
X52479000Y-120152609D01*
X52462387Y-120214609D01*
X52407017Y-120310511D01*
X52407016Y-120310515D01*
X52369500Y-120450525D01*
X52369500Y-120595475D01*
X52407016Y-120735485D01*
X52462387Y-120831391D01*
X52479000Y-120893389D01*
X52479000Y-120961814D01*
X52459315Y-121028853D01*
X52406511Y-121074608D01*
X52368256Y-121085103D01*
X52337519Y-121088407D01*
X52202671Y-121138702D01*
X52202664Y-121138706D01*
X52087455Y-121224952D01*
X52087452Y-121224955D01*
X52001206Y-121340164D01*
X52001202Y-121340171D01*
X51950910Y-121475013D01*
X51950909Y-121475017D01*
X51944500Y-121534627D01*
X51944500Y-121534634D01*
X51944500Y-121534635D01*
X51944500Y-122305370D01*
X51944501Y-122305376D01*
X51950908Y-122364983D01*
X52001202Y-122499828D01*
X52001206Y-122499835D01*
X52087452Y-122615044D01*
X52087455Y-122615047D01*
X52202664Y-122701293D01*
X52202671Y-122701297D01*
X52337517Y-122751591D01*
X52337516Y-122751591D01*
X52344444Y-122752335D01*
X52397127Y-122758000D01*
X53442872Y-122757999D01*
X53502483Y-122751591D01*
X53637331Y-122701296D01*
X53752546Y-122615046D01*
X53838796Y-122499831D01*
X53889091Y-122364983D01*
X53895500Y-122305373D01*
X53895499Y-121534628D01*
X53889091Y-121475017D01*
X53848270Y-121365571D01*
X53838797Y-121340171D01*
X53838793Y-121340164D01*
X53752547Y-121224955D01*
X53752544Y-121224952D01*
X53637335Y-121138706D01*
X53637328Y-121138702D01*
X53502482Y-121088408D01*
X53502483Y-121088408D01*
X53471745Y-121085104D01*
X53407194Y-121058366D01*
X53367345Y-121000974D01*
X53361000Y-120961815D01*
X53361000Y-120893389D01*
X53377612Y-120831391D01*
X53432984Y-120735485D01*
X53470500Y-120595475D01*
X53470500Y-120450525D01*
X53432984Y-120310515D01*
X53396088Y-120246609D01*
X53377613Y-120214609D01*
X53361000Y-120152609D01*
X53361000Y-113527389D01*
X53377612Y-113465391D01*
X53432984Y-113369485D01*
X53470500Y-113229475D01*
X53470500Y-113154000D01*
X53490185Y-113086961D01*
X53542989Y-113041206D01*
X53594500Y-113030000D01*
X54531500Y-113030000D01*
X54598539Y-113049685D01*
X54644294Y-113102489D01*
X54655500Y-113154000D01*
X54655500Y-113229475D01*
X54693016Y-113369485D01*
X54748387Y-113465391D01*
X54765000Y-113527389D01*
X54765000Y-120184609D01*
X54748387Y-120246609D01*
X54693017Y-120342511D01*
X54693016Y-120342515D01*
X54655500Y-120482525D01*
X54655500Y-120627475D01*
X54693016Y-120767485D01*
X54748387Y-120863391D01*
X54765000Y-120925389D01*
X54765000Y-120961814D01*
X54745315Y-121028853D01*
X54692511Y-121074608D01*
X54654256Y-121085103D01*
X54623519Y-121088407D01*
X54488671Y-121138702D01*
X54488664Y-121138706D01*
X54373455Y-121224952D01*
X54373452Y-121224955D01*
X54287206Y-121340164D01*
X54287202Y-121340171D01*
X54236910Y-121475013D01*
X54236909Y-121475017D01*
X54230500Y-121534627D01*
X54230500Y-121534634D01*
X54230500Y-121534635D01*
X54230500Y-122305370D01*
X54230501Y-122305376D01*
X54236908Y-122364983D01*
X54287202Y-122499828D01*
X54287206Y-122499835D01*
X54373452Y-122615044D01*
X54373455Y-122615047D01*
X54488664Y-122701293D01*
X54488671Y-122701297D01*
X54623517Y-122751591D01*
X54623516Y-122751591D01*
X54630444Y-122752335D01*
X54683127Y-122758000D01*
X55728872Y-122757999D01*
X55788483Y-122751591D01*
X55923331Y-122701296D01*
X56038546Y-122615046D01*
X56124796Y-122499831D01*
X56175091Y-122364983D01*
X56181500Y-122305373D01*
X56181499Y-121534628D01*
X56175091Y-121475017D01*
X56134270Y-121365571D01*
X56124797Y-121340171D01*
X56124793Y-121340164D01*
X56038547Y-121224955D01*
X56038544Y-121224952D01*
X55923335Y-121138706D01*
X55923328Y-121138702D01*
X55788482Y-121088408D01*
X55788483Y-121088408D01*
X55757745Y-121085104D01*
X55693194Y-121058366D01*
X55653345Y-121000974D01*
X55647000Y-120961815D01*
X55647000Y-120925389D01*
X55663612Y-120863391D01*
X55718984Y-120767485D01*
X55756500Y-120627475D01*
X55756500Y-120482525D01*
X55718984Y-120342515D01*
X55701496Y-120312225D01*
X55663613Y-120246609D01*
X55647000Y-120184609D01*
X55647000Y-118736995D01*
X56486500Y-118736995D01*
X56486500Y-119302826D01*
X56495205Y-119368952D01*
X56529282Y-119496126D01*
X56554800Y-119557734D01*
X56554808Y-119557750D01*
X56620626Y-119671749D01*
X56620637Y-119671765D01*
X56661233Y-119724671D01*
X56661239Y-119724678D01*
X56754321Y-119817760D01*
X56754328Y-119817766D01*
X56775180Y-119833766D01*
X56807243Y-119858369D01*
X56807250Y-119858373D01*
X56921249Y-119924191D01*
X56921253Y-119924193D01*
X56921257Y-119924195D01*
X56974453Y-119946229D01*
X57028855Y-119990069D01*
X57050921Y-120056363D01*
X57051000Y-120060790D01*
X57051000Y-120152609D01*
X57034387Y-120214609D01*
X56979017Y-120310511D01*
X56979016Y-120310515D01*
X56941500Y-120450525D01*
X56941500Y-120595475D01*
X56979016Y-120735485D01*
X57034387Y-120831391D01*
X57051000Y-120893389D01*
X57051000Y-120987214D01*
X57031315Y-121054253D01*
X56978511Y-121100008D01*
X56940256Y-121110503D01*
X56909519Y-121113807D01*
X56774671Y-121164102D01*
X56774664Y-121164106D01*
X56659455Y-121250352D01*
X56659452Y-121250355D01*
X56573206Y-121365564D01*
X56573202Y-121365571D01*
X56522910Y-121500413D01*
X56522909Y-121500417D01*
X56516500Y-121560027D01*
X56516500Y-121560034D01*
X56516500Y-121560035D01*
X56516500Y-122330770D01*
X56516501Y-122330776D01*
X56522908Y-122390383D01*
X56573202Y-122525228D01*
X56573206Y-122525235D01*
X56659452Y-122640444D01*
X56659455Y-122640447D01*
X56774664Y-122726693D01*
X56774671Y-122726697D01*
X56909517Y-122776991D01*
X56909516Y-122776991D01*
X56916444Y-122777735D01*
X56969127Y-122783400D01*
X58014872Y-122783399D01*
X58074483Y-122776991D01*
X58209331Y-122726696D01*
X58324546Y-122640446D01*
X58410796Y-122525231D01*
X58461091Y-122390383D01*
X58467500Y-122330773D01*
X58467499Y-121560028D01*
X58467499Y-121560027D01*
X58802500Y-121560027D01*
X58802500Y-121560034D01*
X58802500Y-121560035D01*
X58802500Y-122330770D01*
X58802501Y-122330776D01*
X58808908Y-122390383D01*
X58859202Y-122525228D01*
X58859206Y-122525235D01*
X58945452Y-122640444D01*
X58945455Y-122640447D01*
X59060664Y-122726693D01*
X59060671Y-122726697D01*
X59195517Y-122776991D01*
X59195516Y-122776991D01*
X59202444Y-122777735D01*
X59255127Y-122783400D01*
X60300872Y-122783399D01*
X60360483Y-122776991D01*
X60495331Y-122726696D01*
X60610546Y-122640446D01*
X60696796Y-122525231D01*
X60747091Y-122390383D01*
X60753500Y-122330773D01*
X60753499Y-121560028D01*
X60753499Y-121560027D01*
X61088500Y-121560027D01*
X61088500Y-121560034D01*
X61088500Y-121560035D01*
X61088500Y-122330770D01*
X61088501Y-122330776D01*
X61094908Y-122390383D01*
X61145202Y-122525228D01*
X61145206Y-122525235D01*
X61231452Y-122640444D01*
X61231455Y-122640447D01*
X61346664Y-122726693D01*
X61346671Y-122726697D01*
X61481517Y-122776991D01*
X61481516Y-122776991D01*
X61488444Y-122777735D01*
X61541127Y-122783400D01*
X62586872Y-122783399D01*
X62646483Y-122776991D01*
X62781331Y-122726696D01*
X62896546Y-122640446D01*
X62982796Y-122525231D01*
X63033091Y-122390383D01*
X63039500Y-122330773D01*
X63039499Y-121560028D01*
X63039499Y-121560027D01*
X63374500Y-121560027D01*
X63374500Y-121560034D01*
X63374500Y-121560035D01*
X63374500Y-122330770D01*
X63374501Y-122330776D01*
X63380908Y-122390383D01*
X63431202Y-122525228D01*
X63431206Y-122525235D01*
X63517452Y-122640444D01*
X63517455Y-122640447D01*
X63632664Y-122726693D01*
X63632671Y-122726697D01*
X63767517Y-122776991D01*
X63767516Y-122776991D01*
X63774444Y-122777735D01*
X63827127Y-122783400D01*
X64872872Y-122783399D01*
X64932483Y-122776991D01*
X65067331Y-122726696D01*
X65182546Y-122640446D01*
X65268796Y-122525231D01*
X65319091Y-122390383D01*
X65325500Y-122330773D01*
X65325499Y-121560028D01*
X65320299Y-121511657D01*
X65319091Y-121500416D01*
X65268797Y-121365571D01*
X65268793Y-121365564D01*
X65182547Y-121250355D01*
X65182544Y-121250352D01*
X65067335Y-121164106D01*
X65067328Y-121164102D01*
X64932482Y-121113808D01*
X64932483Y-121113808D01*
X64901745Y-121110504D01*
X64837194Y-121083766D01*
X64797345Y-121026374D01*
X64791000Y-120987215D01*
X64791000Y-120893389D01*
X64807612Y-120831391D01*
X64862984Y-120735485D01*
X64891647Y-120628511D01*
X64923738Y-120572928D01*
X65451849Y-120044819D01*
X65513172Y-120011334D01*
X65539530Y-120008500D01*
X65808827Y-120008500D01*
X65822052Y-120006758D01*
X65874956Y-119999794D01*
X66002123Y-119965719D01*
X66059212Y-119942072D01*
X66063734Y-119940199D01*
X66063737Y-119940197D01*
X66063743Y-119940195D01*
X66177757Y-119874369D01*
X66230673Y-119833765D01*
X66323765Y-119740673D01*
X66364369Y-119687757D01*
X66430195Y-119573743D01*
X66455719Y-119512123D01*
X66489794Y-119384956D01*
X66498500Y-119318826D01*
X66498500Y-118753000D01*
X66498500Y-118752997D01*
X66498499Y-118752995D01*
X66479052Y-118655229D01*
X66479051Y-118655228D01*
X66479051Y-118655224D01*
X66479048Y-118655219D01*
X66477077Y-118650460D01*
X66469604Y-118580991D01*
X66477077Y-118555540D01*
X66479047Y-118550781D01*
X66479051Y-118550776D01*
X66498500Y-118453000D01*
X66498500Y-117887174D01*
X66489794Y-117821044D01*
X66455719Y-117693877D01*
X66447211Y-117673337D01*
X66430199Y-117632265D01*
X66430191Y-117632249D01*
X66364373Y-117518250D01*
X66364369Y-117518243D01*
X66323765Y-117465327D01*
X66323760Y-117465321D01*
X66230678Y-117372239D01*
X66230671Y-117372233D01*
X66177765Y-117331637D01*
X66177763Y-117331635D01*
X66177757Y-117331631D01*
X66177752Y-117331628D01*
X66177749Y-117331626D01*
X66063750Y-117265808D01*
X66063738Y-117265803D01*
X66010547Y-117243770D01*
X65956144Y-117199929D01*
X65934079Y-117133634D01*
X65934000Y-117129209D01*
X65934000Y-116146942D01*
X65934000Y-116146941D01*
X65922919Y-116105587D01*
X65903947Y-116034781D01*
X65845888Y-115934220D01*
X65304740Y-115393072D01*
X65272647Y-115337487D01*
X65243984Y-115230515D01*
X65171509Y-115104985D01*
X65069015Y-115002491D01*
X65069013Y-115002490D01*
X65069011Y-115002488D01*
X64943488Y-114930017D01*
X64943489Y-114930017D01*
X64932006Y-114926940D01*
X64803475Y-114892500D01*
X64658525Y-114892500D01*
X64529993Y-114926940D01*
X64518511Y-114930017D01*
X64392988Y-115002488D01*
X64392982Y-115002493D01*
X64290493Y-115104982D01*
X64290488Y-115104988D01*
X64218017Y-115230511D01*
X64218016Y-115230515D01*
X64180500Y-115370525D01*
X64180500Y-115515475D01*
X64206628Y-115612985D01*
X64218017Y-115655488D01*
X64290488Y-115781011D01*
X64290490Y-115781013D01*
X64290491Y-115781015D01*
X64392985Y-115883509D01*
X64392986Y-115883510D01*
X64392988Y-115883511D01*
X64518511Y-115955982D01*
X64518512Y-115955982D01*
X64518515Y-115955984D01*
X64625487Y-115984647D01*
X64681072Y-116016740D01*
X65015681Y-116351349D01*
X65049166Y-116412672D01*
X65052000Y-116439030D01*
X65052000Y-117129209D01*
X65032315Y-117196248D01*
X64979511Y-117242003D01*
X64975453Y-117243770D01*
X64922261Y-117265803D01*
X64922249Y-117265808D01*
X64808250Y-117331626D01*
X64808234Y-117331637D01*
X64755328Y-117372233D01*
X64755321Y-117372239D01*
X64662239Y-117465321D01*
X64662233Y-117465328D01*
X64621637Y-117518234D01*
X64621626Y-117518250D01*
X64555808Y-117632249D01*
X64555800Y-117632265D01*
X64530282Y-117693873D01*
X64496205Y-117821047D01*
X64487500Y-117887173D01*
X64487500Y-118453004D01*
X64506947Y-118550771D01*
X64508926Y-118555548D01*
X64516394Y-118625018D01*
X64508926Y-118650452D01*
X64506947Y-118655228D01*
X64487500Y-118752995D01*
X64487500Y-119318826D01*
X64496205Y-119384952D01*
X64530282Y-119512126D01*
X64555805Y-119573745D01*
X64556064Y-119574270D01*
X64556094Y-119574442D01*
X64557358Y-119577494D01*
X64556675Y-119577776D01*
X64568062Y-119643102D01*
X64540941Y-119707493D01*
X64532534Y-119716796D01*
X64300072Y-119949258D01*
X64244486Y-119981351D01*
X64137518Y-120010014D01*
X64137511Y-120010017D01*
X64011988Y-120082488D01*
X64011982Y-120082493D01*
X63909493Y-120184982D01*
X63909488Y-120184988D01*
X63837017Y-120310511D01*
X63837016Y-120310515D01*
X63799500Y-120450525D01*
X63799500Y-120595475D01*
X63837016Y-120735485D01*
X63892387Y-120831391D01*
X63909000Y-120893389D01*
X63909000Y-120987214D01*
X63889315Y-121054253D01*
X63836511Y-121100008D01*
X63798256Y-121110503D01*
X63767519Y-121113807D01*
X63632671Y-121164102D01*
X63632664Y-121164106D01*
X63517455Y-121250352D01*
X63517452Y-121250355D01*
X63431206Y-121365564D01*
X63431202Y-121365571D01*
X63380910Y-121500413D01*
X63380909Y-121500417D01*
X63374500Y-121560027D01*
X63039499Y-121560027D01*
X63034580Y-121514269D01*
X63033091Y-121500416D01*
X62982797Y-121365571D01*
X62982793Y-121365564D01*
X62896547Y-121250355D01*
X62896544Y-121250352D01*
X62781335Y-121164106D01*
X62781328Y-121164102D01*
X62646482Y-121113808D01*
X62646483Y-121113808D01*
X62615745Y-121110504D01*
X62551194Y-121083766D01*
X62511345Y-121026374D01*
X62505000Y-120987215D01*
X62505000Y-120893389D01*
X62521612Y-120831391D01*
X62576984Y-120735485D01*
X62605647Y-120628511D01*
X62637738Y-120572928D01*
X63178888Y-120031780D01*
X63178888Y-120031779D01*
X63184635Y-120026033D01*
X63186279Y-120027677D01*
X63233034Y-119993521D01*
X63242901Y-119990430D01*
X63335123Y-119965719D01*
X63335125Y-119965718D01*
X63335128Y-119965717D01*
X63377910Y-119947996D01*
X63396734Y-119940199D01*
X63396737Y-119940197D01*
X63396743Y-119940195D01*
X63510757Y-119874369D01*
X63563673Y-119833765D01*
X63656765Y-119740673D01*
X63697369Y-119687757D01*
X63763195Y-119573743D01*
X63788719Y-119512123D01*
X63822794Y-119384956D01*
X63831500Y-119318826D01*
X63831500Y-118753000D01*
X63831500Y-118752997D01*
X63831499Y-118752995D01*
X63812052Y-118655228D01*
X63812051Y-118655227D01*
X63812051Y-118655224D01*
X63756666Y-118572334D01*
X63756665Y-118572333D01*
X63673778Y-118516950D01*
X63673771Y-118516947D01*
X63576003Y-118497500D01*
X63576000Y-118497500D01*
X62076000Y-118497500D01*
X62075997Y-118497500D01*
X61978228Y-118516947D01*
X61978221Y-118516950D01*
X61895334Y-118572333D01*
X61895333Y-118572334D01*
X61839950Y-118655221D01*
X61839947Y-118655228D01*
X61820500Y-118752995D01*
X61820500Y-119318826D01*
X61829205Y-119384952D01*
X61863282Y-119512126D01*
X61888800Y-119573734D01*
X61888808Y-119573750D01*
X61954626Y-119687749D01*
X61954637Y-119687765D01*
X61995233Y-119740671D01*
X61995239Y-119740678D01*
X62021265Y-119766704D01*
X62054750Y-119828027D01*
X62049766Y-119897719D01*
X62021259Y-119942072D01*
X62014066Y-119949264D01*
X61958486Y-119981351D01*
X61851518Y-120010014D01*
X61851511Y-120010017D01*
X61725988Y-120082488D01*
X61725982Y-120082493D01*
X61623493Y-120184982D01*
X61623488Y-120184988D01*
X61551017Y-120310511D01*
X61551016Y-120310515D01*
X61513500Y-120450525D01*
X61513500Y-120595475D01*
X61551016Y-120735485D01*
X61606387Y-120831391D01*
X61623000Y-120893389D01*
X61623000Y-120987214D01*
X61603315Y-121054253D01*
X61550511Y-121100008D01*
X61512256Y-121110503D01*
X61481519Y-121113807D01*
X61346671Y-121164102D01*
X61346664Y-121164106D01*
X61231455Y-121250352D01*
X61231452Y-121250355D01*
X61145206Y-121365564D01*
X61145202Y-121365571D01*
X61094910Y-121500413D01*
X61094909Y-121500417D01*
X61088500Y-121560027D01*
X60753499Y-121560027D01*
X60748580Y-121514269D01*
X60747091Y-121500416D01*
X60696797Y-121365571D01*
X60696793Y-121365564D01*
X60610547Y-121250355D01*
X60610544Y-121250352D01*
X60495335Y-121164106D01*
X60495328Y-121164102D01*
X60360482Y-121113808D01*
X60360483Y-121113808D01*
X60329745Y-121110504D01*
X60265194Y-121083766D01*
X60225345Y-121026374D01*
X60219000Y-120987215D01*
X60219000Y-120893389D01*
X60235612Y-120831391D01*
X60290984Y-120735485D01*
X60319647Y-120628511D01*
X60351737Y-120572930D01*
X60511888Y-120412780D01*
X60546528Y-120352781D01*
X60552458Y-120342511D01*
X60569943Y-120312225D01*
X60569944Y-120312224D01*
X60569944Y-120312222D01*
X60569946Y-120312220D01*
X60600000Y-120200059D01*
X60600000Y-120076790D01*
X60619685Y-120009751D01*
X60672489Y-119963996D01*
X60676510Y-119962244D01*
X60729743Y-119940195D01*
X60843757Y-119874369D01*
X60896673Y-119833765D01*
X60989765Y-119740673D01*
X61030369Y-119687757D01*
X61096195Y-119573743D01*
X61121719Y-119512123D01*
X61155794Y-119384956D01*
X61164500Y-119318826D01*
X61164500Y-118753000D01*
X61164500Y-118752997D01*
X61164499Y-118752995D01*
X61145052Y-118655229D01*
X61145051Y-118655228D01*
X61145051Y-118655224D01*
X61145048Y-118655219D01*
X61143077Y-118650460D01*
X61135604Y-118580991D01*
X61143077Y-118555540D01*
X61145047Y-118550781D01*
X61145051Y-118550776D01*
X61164500Y-118453000D01*
X61164500Y-117887174D01*
X61155794Y-117821044D01*
X61121719Y-117693877D01*
X61113211Y-117673337D01*
X61096199Y-117632265D01*
X61096191Y-117632249D01*
X61030373Y-117518250D01*
X61030369Y-117518243D01*
X60989765Y-117465327D01*
X60989760Y-117465321D01*
X60896678Y-117372239D01*
X60896671Y-117372233D01*
X60843765Y-117331637D01*
X60843763Y-117331635D01*
X60843757Y-117331631D01*
X60843752Y-117331628D01*
X60843749Y-117331626D01*
X60729750Y-117265808D01*
X60729738Y-117265803D01*
X60676547Y-117243770D01*
X60622144Y-117199929D01*
X60600079Y-117133634D01*
X60600000Y-117129209D01*
X60600000Y-116321389D01*
X60616612Y-116259391D01*
X60671984Y-116163485D01*
X60709500Y-116023475D01*
X60709500Y-115878525D01*
X60671984Y-115738515D01*
X60624046Y-115655485D01*
X60599511Y-115612988D01*
X60599506Y-115612982D01*
X60497017Y-115510493D01*
X60497011Y-115510488D01*
X60371488Y-115438017D01*
X60371489Y-115438017D01*
X60360006Y-115434940D01*
X60231475Y-115400500D01*
X60086525Y-115400500D01*
X59957993Y-115434940D01*
X59946511Y-115438017D01*
X59820988Y-115510488D01*
X59820982Y-115510493D01*
X59718493Y-115612982D01*
X59718488Y-115612988D01*
X59646017Y-115738511D01*
X59646016Y-115738515D01*
X59608500Y-115878525D01*
X59608500Y-116023475D01*
X59646016Y-116163485D01*
X59701387Y-116259391D01*
X59718000Y-116321389D01*
X59718000Y-117129209D01*
X59698315Y-117196248D01*
X59645511Y-117242003D01*
X59641453Y-117243770D01*
X59588261Y-117265803D01*
X59588249Y-117265808D01*
X59474250Y-117331626D01*
X59474234Y-117331637D01*
X59421328Y-117372233D01*
X59421321Y-117372239D01*
X59328239Y-117465321D01*
X59328233Y-117465328D01*
X59287637Y-117518234D01*
X59287626Y-117518250D01*
X59221808Y-117632249D01*
X59221800Y-117632265D01*
X59196282Y-117693873D01*
X59162205Y-117821047D01*
X59153500Y-117887173D01*
X59153500Y-118453004D01*
X59172947Y-118550771D01*
X59174926Y-118555548D01*
X59182394Y-118625018D01*
X59174926Y-118650452D01*
X59172947Y-118655228D01*
X59153500Y-118752995D01*
X59153500Y-119318826D01*
X59162205Y-119384952D01*
X59196282Y-119512126D01*
X59221800Y-119573734D01*
X59221808Y-119573750D01*
X59287626Y-119687749D01*
X59287637Y-119687765D01*
X59328233Y-119740671D01*
X59328239Y-119740678D01*
X59421321Y-119833760D01*
X59421328Y-119833766D01*
X59467078Y-119868871D01*
X59508281Y-119925298D01*
X59512436Y-119995044D01*
X59478224Y-120055965D01*
X59453596Y-120074632D01*
X59439988Y-120082488D01*
X59439982Y-120082493D01*
X59337493Y-120184982D01*
X59337488Y-120184988D01*
X59265017Y-120310511D01*
X59265016Y-120310515D01*
X59227500Y-120450525D01*
X59227500Y-120595475D01*
X59265016Y-120735485D01*
X59320387Y-120831391D01*
X59337000Y-120893389D01*
X59337000Y-120987214D01*
X59317315Y-121054253D01*
X59264511Y-121100008D01*
X59226256Y-121110503D01*
X59195519Y-121113807D01*
X59060671Y-121164102D01*
X59060664Y-121164106D01*
X58945455Y-121250352D01*
X58945452Y-121250355D01*
X58859206Y-121365564D01*
X58859202Y-121365571D01*
X58808910Y-121500413D01*
X58808909Y-121500417D01*
X58802500Y-121560027D01*
X58467499Y-121560027D01*
X58462580Y-121514269D01*
X58461091Y-121500416D01*
X58410797Y-121365571D01*
X58410793Y-121365564D01*
X58324547Y-121250355D01*
X58324544Y-121250352D01*
X58209335Y-121164106D01*
X58209328Y-121164102D01*
X58074482Y-121113808D01*
X58074483Y-121113808D01*
X58043745Y-121110504D01*
X57979194Y-121083766D01*
X57939345Y-121026374D01*
X57933000Y-120987215D01*
X57933000Y-120893389D01*
X57949612Y-120831391D01*
X58004984Y-120735485D01*
X58042500Y-120595475D01*
X58042500Y-120450525D01*
X58004984Y-120310515D01*
X57968088Y-120246609D01*
X57949613Y-120214609D01*
X57933000Y-120152609D01*
X57933000Y-120060790D01*
X57952685Y-119993751D01*
X58005489Y-119947996D01*
X58009510Y-119946244D01*
X58062743Y-119924195D01*
X58176757Y-119858369D01*
X58229673Y-119817765D01*
X58322765Y-119724673D01*
X58363369Y-119671757D01*
X58429195Y-119557743D01*
X58454719Y-119496123D01*
X58488794Y-119368956D01*
X58497500Y-119302826D01*
X58497500Y-118737000D01*
X58497500Y-118736997D01*
X58497499Y-118736995D01*
X58478052Y-118639228D01*
X58478051Y-118639227D01*
X58478051Y-118639224D01*
X58422666Y-118556334D01*
X58414348Y-118550776D01*
X58339778Y-118500950D01*
X58339771Y-118500947D01*
X58242003Y-118481500D01*
X58242000Y-118481500D01*
X56742000Y-118481500D01*
X56741997Y-118481500D01*
X56644228Y-118500947D01*
X56644221Y-118500950D01*
X56561334Y-118556333D01*
X56561333Y-118556334D01*
X56505950Y-118639221D01*
X56505947Y-118639228D01*
X56486500Y-118736995D01*
X55647000Y-118736995D01*
X55647000Y-113527389D01*
X55663612Y-113465391D01*
X55718984Y-113369485D01*
X55756500Y-113229475D01*
X55756500Y-113154000D01*
X55776185Y-113086961D01*
X55828989Y-113041206D01*
X55880500Y-113030000D01*
X66469693Y-113030000D01*
X66481847Y-113030597D01*
X66658728Y-113048018D01*
X66682556Y-113052757D01*
X66846788Y-113102576D01*
X66869240Y-113111877D01*
X67020585Y-113192772D01*
X67040797Y-113206277D01*
X67178186Y-113319030D01*
X67187202Y-113327202D01*
X67354797Y-113494797D01*
X67362969Y-113503813D01*
X67475722Y-113641202D01*
X67489227Y-113661414D01*
X67570121Y-113812756D01*
X67579424Y-113835214D01*
X67629240Y-113999437D01*
X67633982Y-114023278D01*
X67651403Y-114200152D01*
X67652000Y-114212306D01*
X67652000Y-123317000D01*
X67906000Y-123571000D01*
X68234395Y-123571000D01*
X68414000Y-123571000D01*
X68668000Y-123317000D01*
X68668000Y-126365000D01*
X67398000Y-126365000D01*
X67397999Y-126365000D01*
X66382000Y-127380999D01*
X66382000Y-131835907D01*
X66381403Y-131848061D01*
X66363982Y-132024934D01*
X66359240Y-132048775D01*
X66309424Y-132212998D01*
X66300121Y-132235456D01*
X66219227Y-132386798D01*
X66205722Y-132407010D01*
X66096854Y-132539666D01*
X66079666Y-132556854D01*
X65947010Y-132665722D01*
X65926798Y-132679227D01*
X65775456Y-132760121D01*
X65752998Y-132769424D01*
X65588775Y-132819240D01*
X65564934Y-132823982D01*
X65388061Y-132841403D01*
X65375907Y-132842000D01*
X48967302Y-132842000D01*
X48955148Y-132841403D01*
X48804181Y-132826534D01*
X48780340Y-132821792D01*
X48641027Y-132779532D01*
X48618571Y-132770230D01*
X48490185Y-132701606D01*
X48469974Y-132688101D01*
X48357440Y-132595747D01*
X48340252Y-132578559D01*
X48247898Y-132466025D01*
X48234393Y-132445814D01*
X48202848Y-132386798D01*
X48165767Y-132317423D01*
X48156467Y-132294972D01*
X48114205Y-132155653D01*
X48109466Y-132131823D01*
X48094597Y-131980850D01*
X48094000Y-131968697D01*
X48094000Y-121567827D01*
X49658500Y-121567827D01*
X49658500Y-121567834D01*
X49658500Y-121567835D01*
X49658500Y-122338570D01*
X49658501Y-122338576D01*
X49664908Y-122398183D01*
X49715202Y-122533028D01*
X49715206Y-122533035D01*
X49801452Y-122648244D01*
X49801455Y-122648247D01*
X49916664Y-122734493D01*
X49916671Y-122734497D01*
X50051517Y-122784791D01*
X50051516Y-122784791D01*
X50058444Y-122785535D01*
X50111127Y-122791200D01*
X51156872Y-122791199D01*
X51216483Y-122784791D01*
X51351331Y-122734496D01*
X51466546Y-122648246D01*
X51552796Y-122533031D01*
X51603091Y-122398183D01*
X51609500Y-122338573D01*
X51609499Y-121567828D01*
X51603091Y-121508217D01*
X51600181Y-121500416D01*
X51552797Y-121373371D01*
X51552793Y-121373364D01*
X51466547Y-121258155D01*
X51466544Y-121258152D01*
X51351335Y-121171906D01*
X51351328Y-121171902D01*
X51216482Y-121121608D01*
X51216483Y-121121608D01*
X51185745Y-121118304D01*
X51121194Y-121091566D01*
X51081345Y-121034174D01*
X51075000Y-120995015D01*
X51075000Y-120944189D01*
X51091612Y-120882191D01*
X51146984Y-120786285D01*
X51184500Y-120646275D01*
X51184500Y-120501325D01*
X51146984Y-120361315D01*
X51136127Y-120342511D01*
X51074511Y-120235788D01*
X51074506Y-120235782D01*
X50972017Y-120133293D01*
X50972011Y-120133288D01*
X50846488Y-120060817D01*
X50846489Y-120060817D01*
X50828381Y-120055965D01*
X50706475Y-120023300D01*
X50561525Y-120023300D01*
X50439619Y-120055965D01*
X50421511Y-120060817D01*
X50295988Y-120133288D01*
X50295982Y-120133293D01*
X50193493Y-120235782D01*
X50193488Y-120235788D01*
X50121017Y-120361311D01*
X50121016Y-120361315D01*
X50083500Y-120501325D01*
X50083500Y-120646275D01*
X50121016Y-120786285D01*
X50176387Y-120882191D01*
X50193000Y-120944189D01*
X50193000Y-120995014D01*
X50173315Y-121062053D01*
X50120511Y-121107808D01*
X50082256Y-121118303D01*
X50051519Y-121121607D01*
X49916671Y-121171902D01*
X49916664Y-121171906D01*
X49801455Y-121258152D01*
X49801452Y-121258155D01*
X49715206Y-121373364D01*
X49715202Y-121373371D01*
X49667818Y-121500417D01*
X49664909Y-121508217D01*
X49658500Y-121567827D01*
X48094000Y-121567827D01*
X48094000Y-114466306D01*
X48094597Y-114454152D01*
X48112018Y-114277269D01*
X48116757Y-114253445D01*
X48166577Y-114089207D01*
X48175875Y-114066762D01*
X48256775Y-113915408D01*
X48270272Y-113895208D01*
X48383039Y-113757802D01*
X48391192Y-113748807D01*
X48812807Y-113327192D01*
X48821802Y-113319039D01*
X48959208Y-113206272D01*
X48979408Y-113192775D01*
X49130762Y-113111875D01*
X49153207Y-113102577D01*
X49317445Y-113052757D01*
X49341269Y-113048018D01*
X49518153Y-113030597D01*
X49530307Y-113030000D01*
X52245500Y-113030000D01*
X52312539Y-113049685D01*
G37*
%TD.AperFunction*%
%TD*%
%TA.AperFunction,Conductor*%
%TO.N,+24V*%
G36*
X90611847Y-110490597D02*
G01*
X90788728Y-110508018D01*
X90812556Y-110512757D01*
X90976788Y-110562576D01*
X90999240Y-110571877D01*
X91150585Y-110652772D01*
X91170797Y-110666277D01*
X91308186Y-110779030D01*
X91317202Y-110787202D01*
X95802797Y-115272797D01*
X95810969Y-115281813D01*
X95923722Y-115419202D01*
X95937227Y-115439414D01*
X96018121Y-115590756D01*
X96027424Y-115613214D01*
X96077240Y-115777437D01*
X96081982Y-115801278D01*
X96099403Y-115978152D01*
X96100000Y-115990306D01*
X96100000Y-121372693D01*
X96099403Y-121384847D01*
X96081982Y-121561721D01*
X96077240Y-121585562D01*
X96027424Y-121749785D01*
X96018121Y-121772243D01*
X95937227Y-121923585D01*
X95923722Y-121943797D01*
X95810969Y-122081186D01*
X95802797Y-122090202D01*
X91825202Y-126067797D01*
X91816186Y-126075969D01*
X91678797Y-126188722D01*
X91658585Y-126202227D01*
X91507243Y-126283121D01*
X91484785Y-126292424D01*
X91320562Y-126342240D01*
X91296721Y-126346982D01*
X91119847Y-126364403D01*
X91107693Y-126365000D01*
X80596093Y-126365000D01*
X80583939Y-126364403D01*
X80407065Y-126346982D01*
X80383224Y-126342240D01*
X80219001Y-126292424D01*
X80196543Y-126283121D01*
X80045201Y-126202227D01*
X80024989Y-126188722D01*
X79892333Y-126079854D01*
X79875145Y-126062666D01*
X79766277Y-125930010D01*
X79752772Y-125909798D01*
X79671878Y-125758456D01*
X79662575Y-125735998D01*
X79612757Y-125571769D01*
X79608018Y-125547941D01*
X79590597Y-125371061D01*
X79590000Y-125358907D01*
X79590000Y-119243092D01*
X79590597Y-119230938D01*
X79608018Y-119054056D01*
X79612757Y-119030232D01*
X79662577Y-118865994D01*
X79671875Y-118843549D01*
X79752775Y-118692195D01*
X79766272Y-118671995D01*
X79875149Y-118539328D01*
X79892328Y-118522149D01*
X80024995Y-118413272D01*
X80045195Y-118399775D01*
X80196549Y-118318875D01*
X80218994Y-118309577D01*
X80383232Y-118259757D01*
X80407056Y-118255018D01*
X80583939Y-118237597D01*
X80596093Y-118237000D01*
X83654000Y-118237000D01*
X85940000Y-115951000D01*
X85940000Y-111496092D01*
X85940597Y-111483938D01*
X85958018Y-111307056D01*
X85962757Y-111283232D01*
X86012577Y-111118994D01*
X86021875Y-111096549D01*
X86102775Y-110945195D01*
X86116272Y-110924995D01*
X86225149Y-110792328D01*
X86242328Y-110775149D01*
X86374995Y-110666272D01*
X86395195Y-110652775D01*
X86546549Y-110571875D01*
X86568994Y-110562577D01*
X86733232Y-110512757D01*
X86757056Y-110508018D01*
X86933939Y-110490597D01*
X86946093Y-110490000D01*
X90599693Y-110490000D01*
X90611847Y-110490597D01*
G37*
%TD.AperFunction*%
%TD*%
%TA.AperFunction,Conductor*%
%TO.N,GNDPWR*%
G36*
X139800917Y-42164147D02*
G01*
X139807047Y-42164448D01*
X139813058Y-42164892D01*
X139980886Y-42181421D01*
X139992910Y-42183205D01*
X140004792Y-42185568D01*
X140016584Y-42188521D01*
X140169181Y-42234810D01*
X140180626Y-42238906D01*
X140191829Y-42243547D01*
X140202818Y-42248745D01*
X140253215Y-42275682D01*
X140253217Y-42275683D01*
X140343435Y-42323905D01*
X140353850Y-42330147D01*
X140363953Y-42336898D01*
X140373722Y-42344144D01*
X140496959Y-42445282D01*
X140505975Y-42453454D01*
X140514544Y-42462023D01*
X140522716Y-42471039D01*
X140623854Y-42594276D01*
X140631100Y-42604045D01*
X140637847Y-42614142D01*
X140644101Y-42624577D01*
X140719249Y-42765170D01*
X140724451Y-42776168D01*
X140729090Y-42787367D01*
X140733191Y-42798827D01*
X140779471Y-42951393D01*
X140782428Y-42963199D01*
X140784794Y-42975095D01*
X140786579Y-42987129D01*
X140803104Y-43154903D01*
X140803551Y-43160970D01*
X140803850Y-43167053D01*
X140804000Y-43173141D01*
X140804000Y-48009000D01*
X140784315Y-48076039D01*
X140731511Y-48121794D01*
X140680000Y-48133000D01*
X135521363Y-48133000D01*
X135454324Y-48113315D01*
X135433682Y-48096681D01*
X134200000Y-46863000D01*
X133785786Y-46863000D01*
X131312214Y-46863000D01*
X130898000Y-46863000D01*
X130897999Y-46863000D01*
X130897998Y-46863000D01*
X129628000Y-48132998D01*
X129628000Y-63965643D01*
X129627850Y-63971731D01*
X129627551Y-63977814D01*
X129627104Y-63983881D01*
X129610579Y-64151656D01*
X129608794Y-64163690D01*
X129606428Y-64175586D01*
X129603471Y-64187392D01*
X129557191Y-64339958D01*
X129553090Y-64351418D01*
X129548451Y-64362617D01*
X129543249Y-64373615D01*
X129468101Y-64514208D01*
X129461842Y-64524651D01*
X129455100Y-64534740D01*
X129447854Y-64544509D01*
X129340898Y-64674835D01*
X129336926Y-64679440D01*
X129332845Y-64683943D01*
X129328645Y-64688354D01*
X127768354Y-66248645D01*
X127763953Y-66252835D01*
X127759440Y-66256926D01*
X127754835Y-66260898D01*
X127624509Y-66367854D01*
X127614740Y-66375100D01*
X127604651Y-66381842D01*
X127594208Y-66388101D01*
X127453615Y-66463249D01*
X127442617Y-66468451D01*
X127431418Y-66473090D01*
X127419958Y-66477191D01*
X127267392Y-66523471D01*
X127255586Y-66526428D01*
X127243690Y-66528794D01*
X127231656Y-66530579D01*
X127063881Y-66547104D01*
X127057814Y-66547551D01*
X127051731Y-66547850D01*
X127045643Y-66548000D01*
X124929000Y-66548000D01*
X123469247Y-68007753D01*
X123469243Y-68007762D01*
X123469240Y-68008431D01*
X123465024Y-68415896D01*
X123353022Y-79237955D01*
X123347637Y-79272839D01*
X123343078Y-79287790D01*
X123304696Y-79346173D01*
X123304688Y-79346180D01*
X123303046Y-79347573D01*
X123248573Y-79374314D01*
X123241581Y-79375798D01*
X123215836Y-79378500D01*
X121746163Y-79378500D01*
X121711227Y-79373477D01*
X121685985Y-79366065D01*
X121633240Y-79334769D01*
X120745547Y-78447076D01*
X120730126Y-78428286D01*
X120709514Y-78397438D01*
X120705229Y-78390547D01*
X120663836Y-78318853D01*
X120663835Y-78318852D01*
X120656750Y-78306580D01*
X120638509Y-78274985D01*
X120536015Y-78172491D01*
X120536013Y-78172490D01*
X120536011Y-78172488D01*
X120482242Y-78141444D01*
X120453808Y-78111624D01*
X120399007Y-78096939D01*
X120399007Y-78096940D01*
X120334740Y-78079720D01*
X120270475Y-78062500D01*
X120270474Y-78062500D01*
X120125525Y-78062500D01*
X119996994Y-78096939D01*
X119996993Y-78096940D01*
X119989338Y-78098991D01*
X119985510Y-78100017D01*
X119859991Y-78172485D01*
X119859984Y-78172490D01*
X119859968Y-78172505D01*
X119757505Y-78274968D01*
X119757490Y-78274984D01*
X119757485Y-78274992D01*
X119685017Y-78400509D01*
X119684989Y-78400578D01*
X119684748Y-78401511D01*
X119647500Y-78540525D01*
X119647500Y-78685474D01*
X119685013Y-78825477D01*
X119685017Y-78825488D01*
X119685018Y-78825489D01*
X119755635Y-78947802D01*
X119757123Y-78950568D01*
X119757353Y-78950877D01*
X119757491Y-78951015D01*
X119859985Y-79053509D01*
X119958866Y-79110598D01*
X119958867Y-79110599D01*
X119975545Y-79120228D01*
X119982438Y-79124514D01*
X119992043Y-79130931D01*
X119992043Y-79130932D01*
X120000701Y-79136717D01*
X120013286Y-79145126D01*
X120032076Y-79160547D01*
X121158230Y-80286701D01*
X121273270Y-80353119D01*
X121401581Y-80387500D01*
X123198006Y-80387500D01*
X123232942Y-80392523D01*
X123247940Y-80396927D01*
X123306704Y-80434686D01*
X123307667Y-80435797D01*
X123335268Y-80491286D01*
X123336995Y-80499428D01*
X123339687Y-80526440D01*
X123288335Y-85488254D01*
X123288125Y-85494303D01*
X123287766Y-85500364D01*
X123287262Y-85506383D01*
X123269231Y-85672881D01*
X123267346Y-85684820D01*
X123264889Y-85696614D01*
X123261849Y-85708316D01*
X123214600Y-85859488D01*
X123210436Y-85870836D01*
X123205740Y-85881929D01*
X123200490Y-85892819D01*
X123124835Y-86031969D01*
X123118550Y-86042295D01*
X123111800Y-86052257D01*
X123104538Y-86061923D01*
X123003357Y-86183758D01*
X122995187Y-86192673D01*
X122986613Y-86201158D01*
X122977620Y-86209229D01*
X122854740Y-86309147D01*
X122844993Y-86316312D01*
X122834949Y-86322966D01*
X122824566Y-86329139D01*
X122684653Y-86403345D01*
X122673711Y-86408482D01*
X122662568Y-86413064D01*
X122651175Y-86417111D01*
X122499529Y-86462791D01*
X122487805Y-86465708D01*
X122475990Y-86468043D01*
X122464023Y-86469807D01*
X122297327Y-86486116D01*
X122291302Y-86486557D01*
X122285262Y-86486852D01*
X122279213Y-86487000D01*
X114992390Y-86487000D01*
X114969138Y-86489500D01*
X113870093Y-86489500D01*
X113853229Y-86489914D01*
X113845285Y-86490109D01*
X113833126Y-86490706D01*
X113808399Y-86492530D01*
X113631523Y-86509950D01*
X113631503Y-86509952D01*
X113582449Y-86517228D01*
X113566347Y-86520431D01*
X113558612Y-86521970D01*
X113542490Y-86526008D01*
X113510502Y-86534021D01*
X113346259Y-86583842D01*
X113299541Y-86600558D01*
X113299504Y-86600573D01*
X113277103Y-86609853D01*
X113277079Y-86609863D01*
X113232269Y-86631058D01*
X113232264Y-86631060D01*
X113232259Y-86631063D01*
X113080905Y-86711963D01*
X113080897Y-86711967D01*
X113080891Y-86711971D01*
X113038359Y-86737463D01*
X113018129Y-86750981D01*
X112978329Y-86780499D01*
X112978299Y-86780522D01*
X112845656Y-86889379D01*
X112845631Y-86889401D01*
X112808884Y-86922707D01*
X112808877Y-86922715D01*
X112791715Y-86939877D01*
X112791707Y-86939884D01*
X112758401Y-86976631D01*
X112758379Y-86976656D01*
X112649522Y-87109299D01*
X112649499Y-87109329D01*
X112619981Y-87149129D01*
X112606463Y-87169359D01*
X112580971Y-87211891D01*
X112580963Y-87211905D01*
X112500063Y-87363259D01*
X112500058Y-87363269D01*
X112478863Y-87408079D01*
X112478853Y-87408103D01*
X112469573Y-87430504D01*
X112469558Y-87430541D01*
X112452842Y-87477259D01*
X112403021Y-87641502D01*
X112390970Y-87689613D01*
X112386228Y-87713447D01*
X112378954Y-87762490D01*
X112378949Y-87762534D01*
X112361530Y-87939398D01*
X112359706Y-87964125D01*
X112359109Y-87976284D01*
X112358500Y-88001108D01*
X112358500Y-90013245D01*
X112356000Y-90021758D01*
X112356000Y-92818692D01*
X112355403Y-92830847D01*
X112354214Y-92842918D01*
X112352428Y-92854958D01*
X112343858Y-92898035D01*
X112336802Y-92921292D01*
X112327634Y-92943426D01*
X112316176Y-92964863D01*
X112302094Y-92985939D01*
X112286672Y-93004731D01*
X112269731Y-93021672D01*
X112250939Y-93037094D01*
X112229863Y-93051176D01*
X112208428Y-93062634D01*
X112186295Y-93071802D01*
X112163036Y-93078858D01*
X112146640Y-93082119D01*
X112126989Y-93086029D01*
X112126988Y-93086029D01*
X112119960Y-93087427D01*
X112107927Y-93089212D01*
X112095850Y-93090402D01*
X112083691Y-93091000D01*
X111333143Y-93091000D01*
X111327063Y-93090851D01*
X111320971Y-93090551D01*
X111314904Y-93090104D01*
X111147129Y-93073579D01*
X111135095Y-93071794D01*
X111123199Y-93069428D01*
X111111393Y-93066471D01*
X110958827Y-93020191D01*
X110947367Y-93016090D01*
X110936168Y-93011451D01*
X110925170Y-93006249D01*
X110906173Y-92996095D01*
X110784569Y-92931096D01*
X110774142Y-92924847D01*
X110764045Y-92918100D01*
X110754276Y-92910854D01*
X110631039Y-92809716D01*
X110622023Y-92801544D01*
X110613454Y-92792975D01*
X110605282Y-92783959D01*
X110504144Y-92660722D01*
X110496898Y-92650953D01*
X110490147Y-92640850D01*
X110483905Y-92630435D01*
X110408745Y-92489821D01*
X110403551Y-92478840D01*
X110398903Y-92467619D01*
X110394807Y-92456170D01*
X110348521Y-92303584D01*
X110345566Y-92291783D01*
X110343205Y-92279909D01*
X110341421Y-92267882D01*
X110324892Y-92100058D01*
X110324448Y-92094047D01*
X110324147Y-92087917D01*
X110324000Y-92081857D01*
X110324000Y-78716471D01*
X112683499Y-78716471D01*
X112723864Y-78919394D01*
X112723870Y-78919421D01*
X112779409Y-79053505D01*
X112803055Y-79110590D01*
X112803063Y-79110605D01*
X112816646Y-79130933D01*
X112918025Y-79282659D01*
X113064336Y-79428970D01*
X113064340Y-79428973D01*
X113064342Y-79428975D01*
X113064345Y-79428977D01*
X113064349Y-79428980D01*
X113064348Y-79428980D01*
X113064411Y-79429032D01*
X113064448Y-79429046D01*
X113236402Y-79543941D01*
X113427580Y-79623130D01*
X113618540Y-79661114D01*
X113627559Y-79662908D01*
X113629794Y-79663409D01*
X113630532Y-79663500D01*
X114637466Y-79663500D01*
X114641586Y-79663500D01*
X114649435Y-79661118D01*
X114840420Y-79623130D01*
X115031598Y-79543941D01*
X115203655Y-79428977D01*
X115349977Y-79282655D01*
X115464941Y-79110598D01*
X115544130Y-78919420D01*
X115584500Y-78716465D01*
X115584500Y-78509535D01*
X115544130Y-78306580D01*
X115464941Y-78115402D01*
X115350046Y-77943449D01*
X115350036Y-77943417D01*
X115349980Y-77943348D01*
X115349980Y-77943349D01*
X115349977Y-77943345D01*
X115349975Y-77943342D01*
X115349973Y-77943340D01*
X115349970Y-77943336D01*
X115203662Y-77797028D01*
X115203655Y-77797022D01*
X115117626Y-77739540D01*
X115117625Y-77739540D01*
X115031604Y-77682062D01*
X115031595Y-77682057D01*
X114908010Y-77630867D01*
X114840420Y-77602870D01*
X114840412Y-77602868D01*
X114840404Y-77602866D01*
X114840394Y-77602864D01*
X114637471Y-77562500D01*
X114637469Y-77562500D01*
X114637465Y-77562500D01*
X113630535Y-77562500D01*
X113630530Y-77562500D01*
X113630528Y-77562500D01*
X113427604Y-77602864D01*
X113427579Y-77602870D01*
X113236404Y-77682057D01*
X113064337Y-77797027D01*
X112918027Y-77943337D01*
X112803057Y-78115404D01*
X112723870Y-78306579D01*
X112683500Y-78509527D01*
X112683500Y-78509530D01*
X112683500Y-78716469D01*
X112683500Y-78716471D01*
X112683499Y-78716471D01*
X110324000Y-78716471D01*
X110324000Y-76176471D01*
X112683499Y-76176471D01*
X112723864Y-76379394D01*
X112723868Y-76379412D01*
X112723870Y-76379420D01*
X112803058Y-76570596D01*
X112918023Y-76742655D01*
X112918027Y-76742661D01*
X113064336Y-76888970D01*
X113064340Y-76888973D01*
X113064342Y-76888975D01*
X113064345Y-76888977D01*
X113064349Y-76888980D01*
X113064348Y-76888980D01*
X113064411Y-76889032D01*
X113064448Y-76889046D01*
X113236402Y-77003941D01*
X113427580Y-77083130D01*
X113618540Y-77121114D01*
X113627559Y-77122908D01*
X113629794Y-77123409D01*
X113630532Y-77123500D01*
X114637466Y-77123500D01*
X114641586Y-77123500D01*
X114649435Y-77121118D01*
X114840420Y-77083130D01*
X115031598Y-77003941D01*
X115203655Y-76888977D01*
X115349977Y-76742655D01*
X115464941Y-76570598D01*
X115544130Y-76379420D01*
X115584500Y-76176465D01*
X115584500Y-75969535D01*
X115544130Y-75766580D01*
X115464941Y-75575402D01*
X115350046Y-75403449D01*
X115350036Y-75403417D01*
X115349980Y-75403348D01*
X115349980Y-75403349D01*
X115349977Y-75403345D01*
X115349975Y-75403342D01*
X115349973Y-75403340D01*
X115349970Y-75403336D01*
X115203662Y-75257028D01*
X115203655Y-75257022D01*
X115117626Y-75199540D01*
X115117625Y-75199540D01*
X115031604Y-75142062D01*
X115031595Y-75142057D01*
X114908010Y-75090867D01*
X114840420Y-75062870D01*
X114840412Y-75062868D01*
X114840404Y-75062866D01*
X114840394Y-75062864D01*
X114637471Y-75022500D01*
X114637469Y-75022500D01*
X114637465Y-75022500D01*
X113630535Y-75022500D01*
X113630530Y-75022500D01*
X113630528Y-75022500D01*
X113427604Y-75062864D01*
X113427579Y-75062870D01*
X113236404Y-75142057D01*
X113064337Y-75257027D01*
X112918027Y-75403337D01*
X112803057Y-75575404D01*
X112723870Y-75766579D01*
X112723864Y-75766604D01*
X112683500Y-75969527D01*
X112683500Y-75969530D01*
X112683500Y-76176469D01*
X112683500Y-76176471D01*
X112683499Y-76176471D01*
X110324000Y-76176471D01*
X110324000Y-73636471D01*
X112683499Y-73636471D01*
X112723864Y-73839394D01*
X112723868Y-73839412D01*
X112723870Y-73839420D01*
X112803058Y-74030596D01*
X112918023Y-74202655D01*
X112918027Y-74202661D01*
X113064336Y-74348970D01*
X113064340Y-74348973D01*
X113064342Y-74348975D01*
X113064345Y-74348977D01*
X113064349Y-74348980D01*
X113064348Y-74348980D01*
X113064411Y-74349032D01*
X113064448Y-74349046D01*
X113236402Y-74463941D01*
X113427580Y-74543130D01*
X113618540Y-74581114D01*
X113627559Y-74582908D01*
X113629794Y-74583409D01*
X113630532Y-74583500D01*
X114637466Y-74583500D01*
X114641586Y-74583500D01*
X114649435Y-74581118D01*
X114840420Y-74543130D01*
X115031598Y-74463941D01*
X115203655Y-74348977D01*
X115349977Y-74202655D01*
X115464941Y-74030598D01*
X115544130Y-73839420D01*
X115584500Y-73636465D01*
X115584500Y-73429535D01*
X115544130Y-73226580D01*
X115464941Y-73035402D01*
X115350046Y-72863449D01*
X115350036Y-72863417D01*
X115349980Y-72863348D01*
X115349980Y-72863349D01*
X115349977Y-72863345D01*
X115349975Y-72863342D01*
X115349973Y-72863340D01*
X115349970Y-72863336D01*
X115203662Y-72717028D01*
X115203655Y-72717022D01*
X115117626Y-72659540D01*
X115117625Y-72659540D01*
X115031604Y-72602062D01*
X115031595Y-72602057D01*
X114908010Y-72550867D01*
X114840420Y-72522870D01*
X114840412Y-72522868D01*
X114840404Y-72522866D01*
X114840394Y-72522864D01*
X114637471Y-72482500D01*
X114637469Y-72482500D01*
X114637465Y-72482500D01*
X113630535Y-72482500D01*
X113630530Y-72482500D01*
X113630528Y-72482500D01*
X113427604Y-72522864D01*
X113427579Y-72522870D01*
X113236404Y-72602057D01*
X113064337Y-72717027D01*
X112918027Y-72863337D01*
X112803057Y-73035404D01*
X112723870Y-73226579D01*
X112723864Y-73226604D01*
X112683500Y-73429527D01*
X112683500Y-73429530D01*
X112683500Y-73636469D01*
X112683500Y-73636471D01*
X112683499Y-73636471D01*
X110324000Y-73636471D01*
X110324000Y-68109125D01*
X113953500Y-68109125D01*
X113953500Y-69304876D01*
X113953659Y-69306806D01*
X113953885Y-69308454D01*
X113959907Y-69364482D01*
X113987690Y-69438971D01*
X114010202Y-69499328D01*
X114010203Y-69499330D01*
X114010204Y-69499332D01*
X114010205Y-69499333D01*
X114096450Y-69614542D01*
X114096452Y-69614544D01*
X114096455Y-69614547D01*
X114211664Y-69700793D01*
X114211671Y-69700797D01*
X114261155Y-69719253D01*
X114296513Y-69745721D01*
X114353444Y-69751835D01*
X114353443Y-69751839D01*
X114353458Y-69751836D01*
X114406127Y-69757500D01*
X116401872Y-69757499D01*
X116461483Y-69751091D01*
X116596331Y-69700796D01*
X116711546Y-69614546D01*
X116797796Y-69499331D01*
X116848091Y-69364483D01*
X116854500Y-69304873D01*
X116854499Y-68109128D01*
X116848091Y-68049517D01*
X116848091Y-68049516D01*
X116848089Y-68049510D01*
X116832530Y-68007796D01*
X116832525Y-68007783D01*
X116832514Y-68007754D01*
X116797797Y-67914671D01*
X116797793Y-67914664D01*
X116711547Y-67799455D01*
X116711544Y-67799452D01*
X116711542Y-67799450D01*
X116653616Y-67756086D01*
X116596335Y-67713206D01*
X116596332Y-67713204D01*
X116596330Y-67713203D01*
X116596328Y-67713202D01*
X116546844Y-67694746D01*
X116511497Y-67668284D01*
X116409583Y-67657328D01*
X116404742Y-67656500D01*
X116401881Y-67656500D01*
X116401873Y-67656500D01*
X116401864Y-67656500D01*
X114406129Y-67656500D01*
X114406123Y-67656500D01*
X114404192Y-67656659D01*
X114402545Y-67656885D01*
X114346516Y-67662908D01*
X114261152Y-67694747D01*
X114211666Y-67713204D01*
X114211665Y-67713205D01*
X114096456Y-67799450D01*
X114096450Y-67799456D01*
X114010205Y-67914665D01*
X114010203Y-67914668D01*
X113959908Y-68049516D01*
X113953500Y-68109125D01*
X110324000Y-68109125D01*
X110324000Y-66270471D01*
X113953499Y-66270471D01*
X113992881Y-66468451D01*
X113993868Y-66473412D01*
X113993870Y-66473420D01*
X114073058Y-66664596D01*
X114188023Y-66836655D01*
X114188027Y-66836661D01*
X114334336Y-66982970D01*
X114334340Y-66982973D01*
X114334342Y-66982975D01*
X114334345Y-66982977D01*
X114334349Y-66982980D01*
X114334348Y-66982980D01*
X114334411Y-66983032D01*
X114334448Y-66983046D01*
X114506402Y-67097941D01*
X114697580Y-67177130D01*
X114888540Y-67215114D01*
X114897559Y-67216908D01*
X114899794Y-67217409D01*
X114900532Y-67217500D01*
X115907466Y-67217500D01*
X115911586Y-67217500D01*
X115919435Y-67215118D01*
X116110420Y-67177130D01*
X116301598Y-67097941D01*
X116473655Y-66982977D01*
X116619977Y-66836655D01*
X116734941Y-66664598D01*
X116814130Y-66473420D01*
X116854500Y-66270465D01*
X116854500Y-66063535D01*
X116814130Y-65860580D01*
X116734941Y-65669402D01*
X116620046Y-65497449D01*
X116620036Y-65497417D01*
X116619980Y-65497348D01*
X116619980Y-65497349D01*
X116619977Y-65497345D01*
X116619975Y-65497342D01*
X116619973Y-65497340D01*
X116619970Y-65497336D01*
X116473662Y-65351028D01*
X116473655Y-65351022D01*
X116387626Y-65293540D01*
X116387625Y-65293540D01*
X116301604Y-65236062D01*
X116301595Y-65236057D01*
X116178010Y-65184867D01*
X116110420Y-65156870D01*
X116110412Y-65156868D01*
X116110404Y-65156866D01*
X116110394Y-65156864D01*
X115907471Y-65116500D01*
X115907469Y-65116500D01*
X115907465Y-65116500D01*
X114900535Y-65116500D01*
X114900530Y-65116500D01*
X114900528Y-65116500D01*
X114697604Y-65156864D01*
X114697579Y-65156870D01*
X114506404Y-65236057D01*
X114334337Y-65351027D01*
X114188027Y-65497337D01*
X114073057Y-65669404D01*
X113993870Y-65860579D01*
X113993864Y-65860604D01*
X113953500Y-66063527D01*
X113953500Y-66063530D01*
X113953500Y-66270469D01*
X113953500Y-66270471D01*
X113953499Y-66270471D01*
X110324000Y-66270471D01*
X110324000Y-63730471D01*
X113953499Y-63730471D01*
X113993864Y-63933394D01*
X113993868Y-63933412D01*
X113993870Y-63933420D01*
X114073058Y-64124596D01*
X114188023Y-64296655D01*
X114188027Y-64296661D01*
X114334336Y-64442970D01*
X114334340Y-64442973D01*
X114334342Y-64442975D01*
X114334345Y-64442977D01*
X114334349Y-64442980D01*
X114334348Y-64442980D01*
X114334411Y-64443032D01*
X114334448Y-64443046D01*
X114506402Y-64557941D01*
X114697580Y-64637130D01*
X114897573Y-64676910D01*
X114899792Y-64677409D01*
X114900532Y-64677500D01*
X115907466Y-64677500D01*
X115911586Y-64677500D01*
X115919435Y-64675118D01*
X116110420Y-64637130D01*
X116301598Y-64557941D01*
X116473655Y-64442977D01*
X116619977Y-64296655D01*
X116734941Y-64124598D01*
X116814130Y-63933420D01*
X116854500Y-63730465D01*
X116854500Y-63523535D01*
X116814130Y-63320580D01*
X116734941Y-63129402D01*
X116620046Y-62957449D01*
X116620036Y-62957417D01*
X116619980Y-62957348D01*
X116619980Y-62957349D01*
X116619977Y-62957345D01*
X116619975Y-62957342D01*
X116619973Y-62957340D01*
X116619970Y-62957336D01*
X116473662Y-62811028D01*
X116473655Y-62811022D01*
X116323759Y-62710866D01*
X116301598Y-62696059D01*
X116301596Y-62696058D01*
X116245602Y-62672864D01*
X116110420Y-62616870D01*
X116110412Y-62616868D01*
X116110404Y-62616866D01*
X116110394Y-62616864D01*
X115907471Y-62576500D01*
X115907469Y-62576500D01*
X115907465Y-62576500D01*
X114900535Y-62576500D01*
X114900530Y-62576500D01*
X114900528Y-62576500D01*
X114697604Y-62616864D01*
X114697579Y-62616870D01*
X114506404Y-62696057D01*
X114334337Y-62811027D01*
X114188027Y-62957337D01*
X114073057Y-63129404D01*
X113993870Y-63320579D01*
X113993864Y-63320604D01*
X113953500Y-63523527D01*
X113953500Y-63523530D01*
X113953500Y-63730469D01*
X113953500Y-63730471D01*
X113953499Y-63730471D01*
X110324000Y-63730471D01*
X110324000Y-54842507D01*
X110324217Y-54835166D01*
X110324655Y-54827796D01*
X110325304Y-54820513D01*
X110452941Y-53750125D01*
X116377500Y-53750125D01*
X116377500Y-53895075D01*
X116405637Y-54000082D01*
X116415016Y-54035086D01*
X116415017Y-54035087D01*
X116462225Y-54116854D01*
X116474612Y-54146758D01*
X116482774Y-54177217D01*
X116487000Y-54209313D01*
X116487000Y-57589061D01*
X116498005Y-57630129D01*
X116498005Y-57630132D01*
X116498006Y-57630132D01*
X116517054Y-57701221D01*
X116525212Y-57715352D01*
X116525216Y-57715357D01*
X116535092Y-57732463D01*
X116535093Y-57732464D01*
X116575111Y-57801778D01*
X116575112Y-57801779D01*
X116575113Y-57801781D01*
X116575117Y-57801786D01*
X116723712Y-57950381D01*
X116743417Y-57976060D01*
X116759187Y-58003373D01*
X116771575Y-58033280D01*
X116796012Y-58124477D01*
X116796016Y-58124486D01*
X116796021Y-58124496D01*
X116866635Y-58246802D01*
X116868123Y-58249568D01*
X116868353Y-58249877D01*
X116970985Y-58352509D01*
X116971674Y-58353005D01*
X116974178Y-58354353D01*
X117093069Y-58422995D01*
X117096087Y-58424869D01*
X117096514Y-58424983D01*
X117096515Y-58424984D01*
X117236525Y-58462500D01*
X117236528Y-58462500D01*
X117381472Y-58462500D01*
X117381475Y-58462500D01*
X117521485Y-58424984D01*
X117647015Y-58352509D01*
X117749509Y-58250015D01*
X117821984Y-58124485D01*
X117859500Y-57984475D01*
X117859500Y-57839525D01*
X117821984Y-57699515D01*
X117749509Y-57573985D01*
X117647015Y-57471491D01*
X117647013Y-57471490D01*
X117647011Y-57471488D01*
X117521488Y-57399017D01*
X117521483Y-57399015D01*
X117492838Y-57391339D01*
X117492836Y-57391338D01*
X117478128Y-57387397D01*
X117445684Y-57373504D01*
X117432333Y-57365366D01*
X117385337Y-57313667D01*
X117381458Y-57305681D01*
X117369000Y-57251512D01*
X117369000Y-54209313D01*
X117373225Y-54177221D01*
X117381386Y-54146762D01*
X117393775Y-54116853D01*
X117440981Y-54035090D01*
X117440982Y-54035089D01*
X117440983Y-54035086D01*
X117440984Y-54035085D01*
X117478500Y-53895075D01*
X117478500Y-53750125D01*
X117440984Y-53610115D01*
X117368509Y-53484585D01*
X117266015Y-53382091D01*
X117265877Y-53381953D01*
X117265568Y-53381723D01*
X117262802Y-53380235D01*
X117212243Y-53351045D01*
X117183808Y-53321224D01*
X117129007Y-53306539D01*
X117129007Y-53306540D01*
X117064740Y-53289320D01*
X117000475Y-53272100D01*
X117000474Y-53272100D01*
X116855525Y-53272100D01*
X116726994Y-53306539D01*
X116726993Y-53306540D01*
X116719338Y-53308591D01*
X116715510Y-53309617D01*
X116589991Y-53382085D01*
X116589984Y-53382090D01*
X116589968Y-53382105D01*
X116487505Y-53484568D01*
X116487490Y-53484584D01*
X116487485Y-53484592D01*
X116415017Y-53610109D01*
X116415004Y-53610141D01*
X116414909Y-53610514D01*
X116377500Y-53750125D01*
X110452941Y-53750125D01*
X110455661Y-53727316D01*
X111095753Y-48359339D01*
X111669508Y-43547679D01*
X111678629Y-43513595D01*
X111684781Y-43499217D01*
X111729242Y-43445331D01*
X111730458Y-43444507D01*
X111788814Y-43423677D01*
X111797116Y-43422926D01*
X111824252Y-43423452D01*
X112403078Y-43498596D01*
X112404059Y-43498728D01*
X112405558Y-43498938D01*
X112406602Y-43499090D01*
X113614341Y-43681538D01*
X113615328Y-43681693D01*
X113616839Y-43681937D01*
X113617854Y-43682106D01*
X114821277Y-43889630D01*
X114822386Y-43889826D01*
X114823856Y-43890095D01*
X114824899Y-43890292D01*
X116023982Y-44122886D01*
X116024956Y-44123080D01*
X116026384Y-44123373D01*
X116027387Y-44123583D01*
X117221274Y-44381086D01*
X117222473Y-44381351D01*
X117223777Y-44381646D01*
X117224912Y-44381910D01*
X118260054Y-44627848D01*
X118413030Y-44664194D01*
X118414310Y-44664506D01*
X118415616Y-44664831D01*
X118416825Y-44665138D01*
X118654179Y-44726782D01*
X119426339Y-44927320D01*
X119599649Y-44972330D01*
X119599857Y-44972385D01*
X119600663Y-44972598D01*
X119601399Y-44972794D01*
X119894253Y-45052152D01*
X120490019Y-45176994D01*
X121092015Y-45267120D01*
X121698221Y-45322227D01*
X122306601Y-45342129D01*
X122306606Y-45342128D01*
X122306622Y-45342129D01*
X122306623Y-45342128D01*
X122306624Y-45342129D01*
X122718241Y-45331732D01*
X122718242Y-45331732D01*
X122733385Y-45331349D01*
X122915113Y-45326760D01*
X123429083Y-45283896D01*
X123519836Y-45276328D01*
X123520712Y-45276269D01*
X123520815Y-45276259D01*
X123522535Y-45276103D01*
X123523012Y-45276063D01*
X123525421Y-45275644D01*
X124121881Y-45190886D01*
X124123700Y-45190667D01*
X124124033Y-45190600D01*
X124124791Y-45190450D01*
X124126580Y-45190100D01*
X124127126Y-45189976D01*
X124485060Y-45117752D01*
X124721035Y-45070137D01*
X124789436Y-45052156D01*
X125091689Y-44972700D01*
X125309747Y-44915377D01*
X125888499Y-44726782D01*
X126455356Y-44504981D01*
X127008415Y-44250721D01*
X127545818Y-43964854D01*
X128065762Y-43648340D01*
X128566500Y-43302242D01*
X129046352Y-42927723D01*
X129503705Y-42526039D01*
X129621246Y-42410077D01*
X129821776Y-42212240D01*
X129850160Y-42191291D01*
X129873472Y-42178765D01*
X129932157Y-42164000D01*
X139794857Y-42164000D01*
X139800917Y-42164147D01*
G37*
%TD.AperFunction*%
%TD*%
%TA.AperFunction,Conductor*%
%TO.N,Net-(Q1-S)*%
G36*
X72778652Y-132461578D02*
G01*
X72952760Y-132478451D01*
X72976222Y-132483042D01*
X73138079Y-132531313D01*
X73160230Y-132540327D01*
X73309796Y-132618777D01*
X73329811Y-132631880D01*
X73461533Y-132737593D01*
X73478655Y-132754293D01*
X73587624Y-132883330D01*
X73601224Y-132903010D01*
X73683385Y-133050566D01*
X73692952Y-133072493D01*
X73745250Y-133233083D01*
X73750429Y-133256438D01*
X73771647Y-133430057D01*
X73772524Y-133442000D01*
X73798478Y-134480115D01*
X73798495Y-134480895D01*
X73798706Y-134492176D01*
X73798726Y-134493716D01*
X73798798Y-134505172D01*
X73798800Y-134505951D01*
X73798800Y-138058907D01*
X73798203Y-138071061D01*
X73780782Y-138247934D01*
X73776040Y-138271775D01*
X73726224Y-138435998D01*
X73716921Y-138458456D01*
X73636027Y-138609798D01*
X73622522Y-138630010D01*
X73513654Y-138762666D01*
X73496466Y-138779854D01*
X73363810Y-138888722D01*
X73343598Y-138902227D01*
X73192256Y-138983121D01*
X73169798Y-138992424D01*
X73005575Y-139042240D01*
X72981734Y-139046982D01*
X72804861Y-139064403D01*
X72792707Y-139065000D01*
X72110736Y-139065000D01*
X72099253Y-139064467D01*
X71932042Y-139048915D01*
X71909470Y-139044679D01*
X71845597Y-139026434D01*
X71753550Y-139000142D01*
X71732146Y-138991816D01*
X71587114Y-138919288D01*
X71567618Y-138907161D01*
X71433838Y-138805629D01*
X71425020Y-138798268D01*
X70618444Y-138058907D01*
X68997004Y-136572587D01*
X68988016Y-136563447D01*
X68863627Y-136423114D01*
X68848690Y-136402264D01*
X68759035Y-136244961D01*
X68748708Y-136221484D01*
X68693335Y-136049107D01*
X68688059Y-136024012D01*
X68668665Y-135837493D01*
X68668000Y-135824669D01*
X68668000Y-133104125D01*
X68669061Y-133087940D01*
X68687506Y-132947836D01*
X68695884Y-132916568D01*
X68746827Y-132793581D01*
X68763012Y-132765548D01*
X68844053Y-132659932D01*
X68866932Y-132637053D01*
X68972549Y-132556010D01*
X69000579Y-132539827D01*
X69123569Y-132488883D01*
X69154835Y-132480506D01*
X69294941Y-132462061D01*
X69311126Y-132461000D01*
X72766691Y-132461000D01*
X72778652Y-132461578D01*
G37*
%TD.AperFunction*%
%TD*%
%TA.AperFunction,Conductor*%
%TO.N,+15V_SEC*%
G36*
X115228279Y-86995655D02*
G01*
X115413366Y-87014749D01*
X115438278Y-87019945D01*
X115609456Y-87074478D01*
X115632784Y-87084650D01*
X115789229Y-87172984D01*
X115809990Y-87187706D01*
X115949927Y-87310345D01*
X115959065Y-87319224D01*
X116080686Y-87450201D01*
X117780714Y-89281000D01*
X121754000Y-89281000D01*
X121995788Y-89281000D01*
X122019980Y-89283383D01*
X122081011Y-89295523D01*
X122125709Y-89314037D01*
X122167096Y-89341691D01*
X122201309Y-89375904D01*
X122228962Y-89417291D01*
X122247476Y-89461987D01*
X122259617Y-89523019D01*
X122262000Y-89547212D01*
X122262000Y-92824787D01*
X122259617Y-92848980D01*
X122247476Y-92910012D01*
X122228962Y-92954708D01*
X122201309Y-92996095D01*
X122167095Y-93030309D01*
X122125708Y-93057962D01*
X122081012Y-93076476D01*
X122032989Y-93086029D01*
X122019978Y-93088617D01*
X121995788Y-93091000D01*
X121754000Y-93091000D01*
X113130212Y-93091000D01*
X113106021Y-93088617D01*
X113089690Y-93085368D01*
X113044987Y-93076476D01*
X113000291Y-93057962D01*
X112958904Y-93030309D01*
X112924691Y-92996096D01*
X112897037Y-92954708D01*
X112878523Y-92910010D01*
X112866383Y-92848978D01*
X112864000Y-92824787D01*
X112864000Y-88001092D01*
X112864597Y-87988938D01*
X112882018Y-87812056D01*
X112886757Y-87788232D01*
X112936577Y-87623994D01*
X112945875Y-87601549D01*
X113026775Y-87450195D01*
X113040272Y-87429995D01*
X113149149Y-87297328D01*
X113166328Y-87280149D01*
X113298995Y-87171272D01*
X113319195Y-87157775D01*
X113470549Y-87076875D01*
X113492994Y-87067577D01*
X113657232Y-87017757D01*
X113681056Y-87013018D01*
X113857939Y-86995597D01*
X113870093Y-86995000D01*
X115215554Y-86995000D01*
X115228279Y-86995655D01*
G37*
%TD.AperFunction*%
%TD*%
M02*
