%TF.GenerationSoftware,KiCad,Pcbnew,10.0.5*%
%TF.CreationDate,2026-09-10T11:17:16-03:00*%
%TF.ProjectId,Kicker_LT3751_OxeBots,4b69636b-6572-45f4-9c54-333735315f4f,rev?*%
%TF.SameCoordinates,Original*%
%TF.FileFunction,Soldermask,Bot*%
%TF.FilePolarity,Negative*%
%FSLAX46Y46*%
G04 Gerber Fmt 4.6, Leading zero omitted, Abs format (unit mm)*
G04 Created by KiCad (PCBNEW 10.0.5) date 2026-09-10 11:17:16*
%MOMM*%
%LPD*%
G01*
G04 APERTURE LIST*
G04 Aperture macros list*
%AMRoundRect*
0 Rectangle with rounded corners*
0 $1 Rounding radius*
0 $2 $3 $4 $5 $6 $7 $8 $9 X,Y pos of 4 corners*
0 Add a 4 corners polygon primitive as box body*
4,1,4,$2,$3,$4,$5,$6,$7,$8,$9,$2,$3,0*
0 Add four circle primitives for the rounded corners*
1,1,$1+$1,$2,$3*
1,1,$1+$1,$4,$5*
1,1,$1+$1,$6,$7*
1,1,$1+$1,$8,$9*
0 Add four rect primitives between the rounded corners*
20,1,$1+$1,$2,$3,$4,$5,0*
20,1,$1+$1,$4,$5,$6,$7,0*
20,1,$1+$1,$6,$7,$8,$9,0*
20,1,$1+$1,$8,$9,$2,$3,0*%
%AMHorizOval*
0 Thick line with rounded ends*
0 $1 width*
0 $2 $3 position (X,Y) of the first rounded end (center of the circle)*
0 $4 $5 position (X,Y) of the second rounded end (center of the circle)*
0 Add line between two ends*
20,1,$1,$2,$3,$4,$5,0*
0 Add two circle primitives to create the rounded ends*
1,1,$1,$2,$3*
1,1,$1,$4,$5*%
%AMRotRect*
0 Rectangle, with rotation*
0 The origin of the aperture is its center*
0 $1 length*
0 $2 width*
0 $3 Rotation angle, in degrees counterclockwise*
0 Add horizontal line*
21,1,$1,$2,0,0,$3*%
%AMFreePoly0*
4,1,23,0.500000,-0.750000,0.000000,-0.750000,0.000000,-0.745722,-0.065263,-0.745722,-0.191342,-0.711940,-0.304381,-0.646677,-0.396677,-0.554381,-0.461940,-0.441342,-0.495722,-0.315263,-0.495722,-0.250000,-0.500000,-0.250000,-0.500000,0.250000,-0.495722,0.250000,-0.495722,0.315263,-0.461940,0.441342,-0.396677,0.554381,-0.304381,0.646677,-0.191342,0.711940,-0.065263,0.745722,0.000000,0.745722,
0.000000,0.750000,0.500000,0.750000,0.500000,-0.750000,0.500000,-0.750000,$1*%
%AMFreePoly1*
4,1,23,0.000000,0.745722,0.065263,0.745722,0.191342,0.711940,0.304381,0.646677,0.396677,0.554381,0.461940,0.441342,0.495722,0.315263,0.495722,0.250000,0.500000,0.250000,0.500000,-0.250000,0.495722,-0.250000,0.495722,-0.315263,0.461940,-0.441342,0.396677,-0.554381,0.304381,-0.646677,0.191342,-0.711940,0.065263,-0.745722,0.000000,-0.745722,0.000000,-0.750000,-0.500000,-0.750000,
-0.500000,0.750000,0.000000,0.750000,0.000000,0.745722,0.000000,0.745722,$1*%
G04 Aperture macros list end*
%ADD10C,1.700000*%
%ADD11RoundRect,0.250000X0.600000X0.600000X-0.600000X0.600000X-0.600000X-0.600000X0.600000X-0.600000X0*%
%ADD12RotRect,1.700000X1.700000X150.000000*%
%ADD13C,2.000000*%
%ADD14C,0.900000*%
%ADD15C,8.600000*%
%ADD16C,3.500000*%
%ADD17RotRect,1.905000X2.000000X152.800000*%
%ADD18HorizOval,1.905000X0.021712X0.042247X-0.021712X-0.042247X0*%
%ADD19R,1.800000X1.800000*%
%ADD20C,1.800000*%
%ADD21R,1.500000X1.500000*%
%ADD22C,1.500000*%
%ADD23R,1.905000X2.000000*%
%ADD24O,1.905000X2.000000*%
%ADD25RoundRect,0.250000X0.950000X0.550000X-0.950000X0.550000X-0.950000X-0.550000X0.950000X-0.550000X0*%
%ADD26O,2.400000X1.600000*%
%ADD27RoundRect,0.675000X0.000000X-2.227386X2.227386X0.000000X0.000000X2.227386X-2.227386X0.000000X0*%
%ADD28C,2.400000*%
%ADD29RoundRect,0.250000X-0.950000X-0.550000X0.950000X-0.550000X0.950000X0.550000X-0.950000X0.550000X0*%
%ADD30O,3.800000X5.500000*%
%ADD31O,3.800000X5.300000*%
%ADD32RoundRect,0.250000X1.750000X1.750000X-1.750000X1.750000X-1.750000X-1.750000X1.750000X-1.750000X0*%
%ADD33C,4.000000*%
%ADD34C,2.754000*%
%ADD35RoundRect,0.102000X1.275000X-1.275000X1.275000X1.275000X-1.275000X1.275000X-1.275000X-1.275000X0*%
%ADD36C,1.712000*%
%ADD37R,1.750000X2.250000*%
%ADD38O,1.750000X2.250000*%
%ADD39RoundRect,0.250000X0.450000X-0.350000X0.450000X0.350000X-0.450000X0.350000X-0.450000X-0.350000X0*%
%ADD40RoundRect,0.150000X-0.150000X0.587500X-0.150000X-0.587500X0.150000X-0.587500X0.150000X0.587500X0*%
%ADD41RoundRect,0.250000X-0.475000X0.337500X-0.475000X-0.337500X0.475000X-0.337500X0.475000X0.337500X0*%
%ADD42RoundRect,0.250000X0.337500X0.475000X-0.337500X0.475000X-0.337500X-0.475000X0.337500X-0.475000X0*%
%ADD43FreePoly0,90.000000*%
%ADD44FreePoly1,90.000000*%
%ADD45RoundRect,0.250000X1.000000X0.900000X-1.000000X0.900000X-1.000000X-0.900000X1.000000X-0.900000X0*%
%ADD46RoundRect,0.249999X-0.450001X-1.425001X0.450001X-1.425001X0.450001X1.425001X-0.450001X1.425001X0*%
%ADD47RoundRect,0.250000X0.475000X-0.337500X0.475000X0.337500X-0.475000X0.337500X-0.475000X-0.337500X0*%
%ADD48FreePoly0,270.000000*%
%ADD49FreePoly1,270.000000*%
%ADD50RoundRect,0.250000X-0.450000X0.350000X-0.450000X-0.350000X0.450000X-0.350000X0.450000X0.350000X0*%
%ADD51RoundRect,0.250000X-1.300000X-0.550000X1.300000X-0.550000X1.300000X0.550000X-1.300000X0.550000X0*%
%ADD52C,3.000000*%
G04 APERTURE END LIST*
%TO.C,JP2*%
G36*
X62076000Y-118453000D02*
G01*
X63576000Y-118453000D01*
X63576000Y-118753000D01*
X62076000Y-118753000D01*
X62076000Y-118453000D01*
G37*
%TO.C,JP3*%
G36*
X59409000Y-118453000D02*
G01*
X60909000Y-118453000D01*
X60909000Y-118753000D01*
X59409000Y-118753000D01*
X59409000Y-118453000D01*
G37*
%TO.C,JP1*%
G36*
X64743000Y-118453000D02*
G01*
X66243000Y-118453000D01*
X66243000Y-118753000D01*
X64743000Y-118753000D01*
X64743000Y-118453000D01*
G37*
%TO.C,JP4*%
G36*
X56742000Y-118437000D02*
G01*
X58242000Y-118437000D01*
X58242000Y-118737000D01*
X56742000Y-118737000D01*
X56742000Y-118437000D01*
G37*
%TD*%
D10*
%TO.C,J2*%
X78320000Y-90932000D03*
X80860000Y-90932000D03*
X78320000Y-93472000D03*
X80860000Y-93472000D03*
X78320000Y-96012000D03*
X80860000Y-96012000D03*
X78320000Y-98552000D03*
X80860000Y-98552000D03*
X78320000Y-101092000D03*
X80860000Y-101092000D03*
X78320000Y-103632000D03*
X80860000Y-103632000D03*
X78320000Y-106172000D03*
X80860000Y-106172000D03*
X78320000Y-108712000D03*
D11*
X80860000Y-108712000D03*
%TD*%
D12*
%TO.C,J1*%
X50380000Y-82463705D03*
D10*
X51650000Y-80264000D03*
X52920000Y-78064296D03*
X54190000Y-75864591D03*
%TD*%
D13*
%TO.C,C23*%
X84162000Y-130803000D03*
X84162000Y-138303000D03*
%TD*%
D14*
%TO.C,H2*%
X96140851Y-129301617D03*
X97085432Y-127021198D03*
X97085432Y-131582036D03*
X99365851Y-126076617D03*
D15*
X99365851Y-129301617D03*
D14*
X99365851Y-132526617D03*
X101646270Y-127021198D03*
X101646270Y-131582036D03*
X102590851Y-129301617D03*
%TD*%
D16*
%TO.C,Q1*%
X67429631Y-153991648D03*
D17*
X77304000Y-140335000D03*
D18*
X75044882Y-139173971D03*
X72785765Y-138012943D03*
%TD*%
D19*
%TO.C,D4*%
X116420000Y-144907000D03*
D20*
X116420000Y-147447000D03*
%TD*%
D21*
%TO.C,RV1*%
X93306000Y-73025000D03*
D22*
X90766000Y-75565000D03*
X88226000Y-73025000D03*
%TD*%
D16*
%TO.C,Q4*%
X131152000Y-71605000D03*
D23*
X128612000Y-88265000D03*
D24*
X131152000Y-88265000D03*
X133692000Y-88265000D03*
%TD*%
D25*
%TO.C,U5*%
X115404000Y-68707000D03*
D26*
X115404000Y-66167000D03*
X115404000Y-63627000D03*
X115404000Y-61087000D03*
X105244000Y-61087000D03*
X105244000Y-63627000D03*
X105244000Y-66167000D03*
X105244000Y-68707000D03*
%TD*%
D27*
%TO.C,R31*%
X123745974Y-143169026D03*
X148424000Y-118491000D03*
%TD*%
D28*
%TO.C,R24*%
X90512000Y-120269000D03*
X90512000Y-140589000D03*
%TD*%
D13*
%TO.C,C26*%
X148852000Y-88519000D03*
X138852000Y-88519000D03*
%TD*%
D29*
%TO.C,U6*%
X106514000Y-73533000D03*
D26*
X106514000Y-76073000D03*
X106514000Y-78613000D03*
X106514000Y-81153000D03*
X114134000Y-81153000D03*
X114134000Y-78613000D03*
X114134000Y-76073000D03*
X114134000Y-73533000D03*
%TD*%
D19*
%TO.C,D2*%
X47967000Y-96552000D03*
D20*
X47967000Y-94012000D03*
%TD*%
D30*
%TO.C,F1*%
X88607000Y-105537000D03*
D31*
X88607000Y-113537000D03*
%TD*%
D32*
%TO.C,C31*%
X148137235Y-44726200D03*
D33*
X138137235Y-44726200D03*
%TD*%
D14*
%TO.C,H1*%
X96140851Y-74152383D03*
X97085432Y-71871964D03*
X97085432Y-76432802D03*
X99365851Y-70927383D03*
D15*
X99365851Y-74152383D03*
D14*
X99365851Y-77377383D03*
X101646270Y-71871964D03*
X101646270Y-76432802D03*
X102590851Y-74152383D03*
%TD*%
D34*
%TO.C,J3*%
X129493963Y-99036494D03*
D35*
X129493963Y-104036494D03*
D36*
X119493963Y-96036494D03*
X119493963Y-107036494D03*
%TD*%
D37*
%TO.C,PS1*%
X106260000Y-88265000D03*
D38*
X108800000Y-88265000D03*
X111340000Y-88265000D03*
X113880000Y-88265000D03*
%TD*%
D32*
%TO.C,C33*%
X148137235Y-158727800D03*
D33*
X138137235Y-158727800D03*
%TD*%
D39*
%TO.C,R23*%
X97624000Y-85725000D03*
X97624000Y-83725000D03*
%TD*%
D40*
%TO.C,Q3*%
X97624000Y-88773000D03*
X99524000Y-88773000D03*
X98574000Y-90648000D03*
%TD*%
D41*
%TO.C,C12*%
X64350000Y-121945400D03*
X64350000Y-124020400D03*
%TD*%
%TO.C,C14*%
X50634000Y-121953200D03*
X50634000Y-124028200D03*
%TD*%
D42*
%TO.C,C5*%
X79865500Y-124714000D03*
X77790500Y-124714000D03*
%TD*%
D41*
%TO.C,C11*%
X52920000Y-121920000D03*
X52920000Y-123995000D03*
%TD*%
D40*
%TO.C,Q2*%
X92036000Y-88676000D03*
X93936000Y-88676000D03*
X92986000Y-90551000D03*
%TD*%
D41*
%TO.C,C17*%
X59778000Y-121945400D03*
X59778000Y-124020400D03*
%TD*%
%TO.C,C13*%
X62064000Y-121945400D03*
X62064000Y-124020400D03*
%TD*%
D39*
%TO.C,R22*%
X94830000Y-85709000D03*
X94830000Y-83709000D03*
%TD*%
D43*
%TO.C,JP2*%
X62826000Y-119253000D03*
D44*
X62826000Y-117953000D03*
%TD*%
D45*
%TO.C,D1*%
X80860000Y-120015000D03*
X76560000Y-120015000D03*
%TD*%
D46*
%TO.C,R25*%
X95588000Y-120396000D03*
X101688000Y-120396000D03*
%TD*%
D47*
%TO.C,C7*%
X50507000Y-134366000D03*
X50507000Y-132291000D03*
%TD*%
%TO.C,C10*%
X52931000Y-134366000D03*
X52931000Y-132291000D03*
%TD*%
D41*
%TO.C,C15*%
X55206000Y-121920000D03*
X55206000Y-123995000D03*
%TD*%
D48*
%TO.C,JP3*%
X60159000Y-117953000D03*
D49*
X60159000Y-119253000D03*
%TD*%
D50*
%TO.C,R21*%
X100412506Y-83717078D03*
X100412506Y-85717078D03*
%TD*%
D39*
%TO.C,R20*%
X89496000Y-91789000D03*
X89496000Y-89789000D03*
%TD*%
D41*
%TO.C,C18*%
X57492000Y-121945400D03*
X57492000Y-124020400D03*
%TD*%
D48*
%TO.C,JP1*%
X65493000Y-117953000D03*
D49*
X65493000Y-119253000D03*
%TD*%
D51*
%TO.C,U4*%
X109816000Y-131445000D03*
X109816000Y-128905000D03*
X109816000Y-126365000D03*
X118706000Y-126365000D03*
X118706000Y-128905000D03*
X118706000Y-131445000D03*
%TD*%
D43*
%TO.C,JP4*%
X57492000Y-119237000D03*
D44*
X57492000Y-117937000D03*
%TD*%
D52*
X58783400Y-129404900D03*
M02*
